<?xml version="1.0" standalone="no"?>
<!DOCTYPE svg PUBLIC "-//W3C//DTD SVG 1.1//EN" "http://www.w3.org/Graphics/SVG/1.1/DTD/svg11.dtd">
<svg xmlns="http://www.w3.org/2000/svg"><metadata>This SVG WebFont was generated by YouWorkForThem.
Copyright  2011 by Case Studio, Inc. All rights reserved.</metadata><defs><font horiz-adv-x="1490" id="ywftsvg"><font-face ascent="1638" bbox="-211 -396 2300 1870" cap-height="1462" descent="-410" font-family="" font-stretch="normal" font-weight="400" panose-1="2 0 0 0 0 0 0 0 0 0" underline-position="0" underline-thickness="0" unicode-range="U+0020-FB02" units-per-em="2048" x-height="1044"/><missing-glyph d="M922 39l-326 555l-324 -555h650zM596 670l326 557h-650zM983 0h-772v1264h772v-1264zM621 633l323 -555v1112zM575 633l-325 557v-1112z" horiz-adv-x="1196"/><glyph d="M922 39l-326 555l-324 -555h650zM596 670l326 557h-650zM983 0h-772v1264h772v-1264zM621 633l323 -555v1112zM575 633l-325 557v-1112z" glyph-name=".notdef" horiz-adv-x="1196"/><glyph glyph-name="glyph1" horiz-adv-x="0"/><glyph glyph-name="glyph2" horiz-adv-x="681"/><glyph glyph-name="space" horiz-adv-x="460" unicode=" "/><glyph d="M514 118q0 -34 -53 -87.5t-87 -53.5t-88.5 53.5t-54.5 87.5t54.5 88t88.5 54t87 -54t53 -88zM272 1295q0 81 5.5 112t29 54.5t77.5 23.5t72.5 -41t18.5 -136t-18.5 -335t-20.5 -318l-1 -85q-1 -84 -10 -97.5t-17 -23t-27 -9.5q-18 0 -26.5 2t-15.5 9.5t-16.5 22 t-9.5 35.5l-2 146q-2 78 -20.5 318.5t-18.5 321.5z" glyph-name="exclam" horiz-adv-x="681" unicode="!"/><glyph d="M559 942q-27 0 -42 31t-36 123t-21 208t30 136q28 22 68 22t70 -20t30 -134q0 -112 -21 -208q-20 -96 -35.5 -127t-42.5 -31zM215 942q-27 0 -42 31t-36 123t-21 208t30 136q28 22 68 22t70 -20t30 -134q0 -112 -21 -208q-20 -96 -35.5 -127t-42.5 -31z" glyph-name="quotedbl" horiz-adv-x="774" unicode="&quot;"/><glyph d="M1141 977h-234l-88 -272h234l-31 -89h-234l-135 -419h-102l137 419h-225l-137 -419h-101l135 419h-231l29 89h231l88 272h-231l28 88h232l137 422h102l-137 -422h226l137 422h102l-137 -422h233zM717 705l88 272h-225l-88 -272h225z" glyph-name="numbersign" horiz-adv-x="1298" unicode="#"/><glyph d="M135 586q18 0 32.5 -16.5t36 -55.5t38.5 -61q129 -176 290 -177q121 0 201 68t80 189t-90.5 170t-205 84.5t-159.5 56.5q-211 96 -211 289q0 139 100.5 237t262.5 115v182q0 14 16 14h47q16 0 17 -14v-180q197 -10 268 -92q47 -53 47 -159t-47 -106q-23 0 -41 25 t-79.5 136t-221.5 112q-102 0 -165.5 -61.5t-63.5 -140.5t44 -130t116.5 -78.5t216 -71t217.5 -133.5t73 -200q0 -152 -105.5 -260.5t-258.5 -132.5v-179q0 -16 -17 -16h-47q-16 0 -16 16v170h-27q-121 0 -220 38t-132 96t-37 163l-2 54q0 49 43 49z" glyph-name="dollar" horiz-adv-x="1110" unicode="$"/><glyph d="M598 1096q0 141 -49 235t-127 94t-119 -89t-41 -234t48 -241.5t124 -96.5q164 0 164 332zM737 1100q0 -172 -86.5 -286t-232.5 -114t-220.5 111t-74.5 280t87 282.5t227 113.5t220 -107.5t80 -279.5zM1399 373q0 141 -49.5 235t-127.5 94t-118.5 -89t-40.5 -234 t48 -241.5t124 -96.5q164 0 164 332zM1538 377q0 -172 -86 -286t-232 -114t-221 111t-75 280t87 282.5t227 113.5t220 -107.5t80 -279.5zM1223 1462h108l-895 -1462h-108z" glyph-name="percent" horiz-adv-x="1636" unicode="%"/><glyph d="M936 206.5q0 7.5 -303 266.5q-145 127 -215 209q-68 -35 -110 -108.5t-42 -157.5q0 -138 106 -242t276 -104q171 0 284 125q4 4 4 11.5zM1278 809q43 0 43 -33q0 -20 -24.5 -32.5t-26.5 -14.5q-57 -33 -82 -117q-6 -23 -29.5 -127.5t-66.5 -185.5q-4 -8 -4 -11t16 -20 q131 -133 131 -248q0 -20 -21 -20h-110q-27 0 -31 20q-16 66 -72 125q-7 7 -12 0q-156 -170 -397 -170q-197 0 -339 114t-142 296q0 119 68.5 216t182.5 136q8 4 9 6l-4 9q-72 114 -72 241t97 213t249 86t203 -75q22 -33 22 -108t-9 -97.5t-35 -22.5t-40 16.5t-33.5 55.5 t-33.5 59q-53 82 -127 82t-116 -51t-42 -139t76 -185.5t219 -222.5q259 -222 277 -238t22 -16t8 8q41 86 41 177q0 147 -131 200q-37 16 -37 39q0 35 51 35h322z" glyph-name="ampersand" horiz-adv-x="1421" unicode="&amp;"/><glyph d="M215 942q-27 0 -42 31t-36 123t-21 208t30 136q28 22 68 22t70 -20t30 -134q0 -112 -21 -208q-20 -96 -35.5 -127t-42.5 -31z" glyph-name="quotesingle" horiz-adv-x="428" unicode="'"/><glyph d="M686 -293q0 -27 -44 -27t-141.5 70t-185.5 189q-217 289 -217 667t217 666q88 119 185.5 188.5t141.5 69.5t44 -27q0 -14 -37 -39q-123 -72 -207 -190q-176 -238 -176 -669t176 -668q87 -123 165.5 -168t78.5 -62z" glyph-name="parenleft" horiz-adv-x="749" unicode="("/><glyph d="M63 1503q0 27 45 27t142.5 -69.5t185.5 -188.5q215 -291 215 -667t-215 -666q-88 -119 -185 -188.5t-143 -69.5t-45 26q0 12 3 13l16 13q14 11 18 13q383 227 383 861t-383 857q-4 2 -12 8.5t-16.5 13t-8.5 17.5z" glyph-name="parenright" horiz-adv-x="749" unicode=")"/><glyph d="M464 1200q-36 0 -62 100t-25 149q0 48 16 64q17 17 71 17t70 -18t17 -52q0 -35 -31 -174q-20 -86 -56 -86zM346 1135q-260 1 -260 79q0 26 10 56q20 61 60 61q58 0 190 -88q66 -41 66 -69q0 -39 -66 -39zM299 805q-31 -1 -71 31t-40 60q0 51 144 167q53 43 74 43 q39 0 38 -39q0 -23 -30 -95t-56 -119q-28 -48 -59 -48zM735 895q0 -31 -44 -62t-62 -30q-37 0 -72 63q-9 18 -43 97t-35 102q0 39 35 39q23 0 81 -46t99 -89t41 -74zM591 1130q-77 0 -77 41q0 16 10.5 25.5t18 17t92.5 62.5t135 53q37 0 59 -65q10 -27 11 -52 q0 -49 -86 -65.5t-163 -16.5z" glyph-name="asterisk" horiz-adv-x="944" unicode="*"/><glyph d="M1241 762v-62q0 -18 -20 -18h-451q-10 0 -10 -10v-455q0 -20 -21 -20h-65q-20 0 -21 20v455q0 10 -10 10h-450q-20 0 -21 18v62q0 20 21 20h450q10 0 10 9v454q0 20 21 21h65q20 0 21 -21v-454q0 -8 10 -9h451q20 0 20 -20z" glyph-name="plus" horiz-adv-x="1413" unicode="+"/><glyph d="M166 -358q-18 0 -30.5 10t-12.5 22.5t6 18.5t35 29t61 71q31 49 31 95t-70 112t-70 100t48.5 82.5t81.5 48.5t82 -53q70 -72 70 -184t-81 -225q-47 -63 -90 -95t-61 -32z" glyph-name="comma" horiz-adv-x="516" unicode=","/><glyph d="M98 510v98q0 18 23 19h452q20 0 21 -19v-98q0 -18 -21 -18h-452q-23 0 -23 18z" glyph-name="hyphen" horiz-adv-x="692" unicode="-"/><glyph d="M117 117q0 35 53 89t88 54t89 -54t54 -88t-55 -88.5t-88 -54.5t-87 53.5t-54 88.5z" glyph-name="period" horiz-adv-x="518" unicode="."/><glyph d="M995 1532h76q10 0 10 -5t-4 -11l-1036 -1698q-10 -16 -25 -17h-73q-23 0 -9 21l1039 1698q8 12 22 12z" glyph-name="slash" horiz-adv-x="991" unicode="/"/><glyph d="M650 -23q-231 0 -371 149.5t-140 393.5t145.5 408t379.5 164t373 -155t138 -393t-147.5 -402.5t-377.5 -164.5zM303 570q0 -212 109.5 -360.5t262.5 -148.5t244 119.5t91 323.5t-108 355t-258 151t-245.5 -114t-95.5 -326z" glyph-name="zero" horiz-adv-x="1312" unicode="0"/><glyph d="M506 1042v-1015q0 -27 -29 -27h-98q-29 0 -29 27v735q0 141 -15 162t-91 20l-135 -2q-57 0 -58 41q0 39 37 45q10 2 26.5 3t42 4t87.5 10t136 27q73 20 85 20q41 -1 41 -50z" glyph-name="one" horiz-adv-x="745" unicode="1"/><glyph d="M203 0q-55 0 -70.5 21.5t-15.5 72.5q0 195 213 328q66 43 199 104.5t171 81.5q158 86 158 201q0 88 -73.5 144.5t-194.5 56.5t-211 -82q-59 -53 -121 -183q-25 -47 -55 -47q-45 0 -45 114t47 160t153.5 83t239.5 37q264 0 377 -138q55 -68 55 -153q0 -137 -141 -226 q-66 -41 -268.5 -115.5t-300.5 -148.5t-99 -133q0 -27 31 -26h549q87 0 121 10t56 51t42 41q31 0 31 -37q-1 -8 -7 -57t-7 -70.5t-2 -29t-4 -21.5t-8 -18.5t-15.5 -16.5t-81.5 -12l-295 8h-428z" glyph-name="two" horiz-adv-x="1171" unicode="2"/><glyph d="M854 725q0 135 -77 209t-195 74t-209 -84q-63 -61 -117 -179q-24 -47 -54 -47t-40 28t-10 97q0 115 67 174q47 39 142.5 67t216.5 28q186 0 316 -96.5t130 -258.5q0 -117 -79 -211t-228 -127q-10 -2 -10 -8t10 -6q141 -12 247.5 -106.5t106.5 -264.5t-149.5 -289.5 t-382.5 -119.5q-133 0 -245 39t-149 104t-36 205q0 43 13 59.5t40 16.5t44 -24.5t42.5 -76t56.5 -88.5q123 -147 285 -147q133 0 222 92t89 253t-106.5 234.5t-262.5 73.5l-129 -8q-45 0 -45 41v31q0 35 43 34l160 -8q127 0 210 77t83 212z" glyph-name="three" horiz-adv-x="1191" unicode="3"/><glyph d="M911 131h195q27 0 27 -25v-79q0 -27 -27 -27h-197q-20 0 -20 -20v-324q0 -27 -25 -27h-100q-27 0 -27 27v324q0 20 -24 20h-584q-27 0 -27 25v36q0 16 13 33q211 250 309 481.5t108 497.5q0 18 21 19h109q18 0 18 -19q-23 -215 -133.5 -455.5t-284.5 -465.5 q-8 -10 -8 -16t10 -5h451q23 0 22 23v694q0 27 25 26h100q27 0 27 -26v-694q-1 -23 22 -23z" glyph-name="four" horiz-adv-x="1243" unicode="4"/><glyph d="M530 -395q-123 0 -228 36.5t-146 98.5t-41 199q0 55 11 76.5t42 21.5t49 -33q4 -8 31 -64t71 -116q104 -129 257 -129t239 91t86 226q0 136 -79 224t-217 138t-410 54q-16 0 -11 23l123 608q2 10 12 10h392q106 0 144 9q37 9 59 39t40 30q31 0 31 -31q0 -30 -8 -98 q-7 -68 -25 -81t-67 -13h-514q-10 0 -13 -9l-65 -327q-2 -10 -2 -18t12 -7q441 -6 623 -203q116 -125 116 -302t-135 -315t-377 -138z" glyph-name="five" horiz-adv-x="1161" unicode="5"/><glyph d="M975 460q0 192 -87.5 305.5t-231.5 113.5t-234 -105.5t-90 -302.5t89 -306.5t227 -109.5t232.5 106.5t94.5 298.5zM1042 1274q0 -137 -51 -137q-27 0 -43 21.5t-33.5 69.5t-33.5 75q-61 106 -206 106t-252.5 -171t-111.5 -513q0 -14 3 -14t10 14q51 127 160.5 190.5 t230.5 63.5q195 0 307 -132t111 -347q0 -215 -139.5 -369t-348.5 -154q-248 0 -391 228q-115 178 -115 478t102.5 480t217 252t238.5 72t208.5 -34.5t110.5 -72.5t26 -106z" glyph-name="six" horiz-adv-x="1249" unicode="6"/><glyph d="M391 -170q0 -90 60 -129q35 -23 34 -39q0 -33 -49 -33h-155q-43 0 -56.5 24.5t-13.5 72.5q0 137 97 315t384 483q129 137 174 213t54 168q0 16 -21 17h-461q-166 0 -210 -10t-64 -40q-20 -29 -37 -28q-33 0 -33 37q0 23 7 91t25 82t69 15h798q35 0 35 -29 q0 -174 -40 -271t-180 -251t-233.5 -274t-138.5 -222t-45 -192z" glyph-name="seven" horiz-adv-x="1116" unicode="7"/><glyph d="M897 1123q0 136 -77.5 208t-195.5 72t-196 -77t-78 -210t83 -211t195.5 -78t190.5 80t78 216zM299 388q0 -159 97.5 -245t232.5 -86t230 92.5t95 250.5t-103 246.5t-226 88.5t-224.5 -94t-101.5 -253zM1065 1154q0 -144 -77 -225t-177 -118q-25 -8 -25 -15t25 -14 q133 -33 225 -131t92 -248q0 -182 -147 -304t-363 -122t-354.5 115t-138.5 287q0 139 88 240.5t229 132.5q18 2 19 10q0 10 -17 14q-96 33 -178 118t-82 214q0 162 126 270.5t316 108.5t314.5 -94.5t124.5 -238.5z" glyph-name="eight" horiz-adv-x="1251" unicode="8"/><glyph d="M283 614q0 -182 85 -296.5t232 -114.5t236.5 102.5t89.5 298.5t-88 303t-232 107t-233.5 -109t-89.5 -291zM180 -94q0 72 49 71q33 0 56 -40l18 -39q39 -85 106 -149q66 -63 169 -62q358 0 370 671q0 8 -4 9q-2 0 -8 -11q-57 -127 -163.5 -192.5t-225.5 -65.5 q-178 0 -301 132t-123 341t137 365t356 156q172 0 340 -140t168 -551q0 -209 -59 -387q-137 -410 -522 -409q-109 0 -202 29.5t-127 79.5t-34 192z" glyph-name="nine" horiz-adv-x="1261" unicode="9"/><glyph d="M215 927q0 34 54.5 88t88.5 54t88 -54t54 -88t-54.5 -88.5t-88.5 -54.5t-88 54.5t-54 88.5zM215 117q0 35 53.5 89t88 54t89 -54t54.5 -88t-55.5 -88.5t-88 -54.5t-87 53.5t-54.5 88.5z" glyph-name="colon" horiz-adv-x="724" unicode=":"/><glyph d="M500 925q0 -34 -54.5 -87.5t-88.5 -53.5t-88 54.5t-54 88.5t54.5 88t87 54t88 -55t55.5 -89zM496 -6q0 -112 -80 -225q-47 -63 -90.5 -95t-61.5 -32t-30.5 10t-12.5 22.5t6 18.5t34.5 28t60.5 72q32 49 32 95t-70 112t-69 100q0 34 48 82.5t81 48.5t82 -53 q70 -72 70 -184z" glyph-name="semicolon" horiz-adv-x="724" unicode=";"/><glyph d="M1296 240v-86q0 -22 -22 -11l-1055 463q-18 8 -18 29v59q0 23 18 31l1051 461q12 6 19 6t7 -12v-86q0 -23 -22 -31l-897 -391q-4 -2 -4 -6t4 -7q6 -2 897 -389q22 -7 22 -30z" glyph-name="less" horiz-adv-x="1507" unicode="&lt;"/><glyph d="M1290 950v-59q0 -20 -22 -21h-1028q-20 0 -21 21v59q0 20 21 21h1028q22 -1 22 -21zM1290 571v-59q0 -18 -22 -18h-1028q-20 0 -21 18v59q0 20 21 21h1028q22 -1 22 -21z" glyph-name="equal" horiz-adv-x="1509" unicode="="/><glyph d="M211 1092v86q0 14 10 14q4 0 12 -4l1055 -463q18 -8 19 -29v-59q0 -23 -19 -31l-1050 -461q-12 -6 -20 -6t-7 13v86q0 23 22 30l897 391q4 2 4.5 6.5t-4.5 6.5q-6 2 -897 389q-22 8 -22 31z" glyph-name="greater" horiz-adv-x="1507" unicode=">"/><glyph d="M490 1397q-116 0 -172 -63.5t-56 -132.5t55 -93t55 -56t-30.5 -54.5t-83.5 -22.5t-96 51t-43 129q0 127 104.5 228.5t283.5 101.5t288.5 -109.5t109.5 -267.5q0 -195 -157 -328q-41 -33 -135.5 -88t-143.5 -102.5t-49 -99.5t36 -64t36 -35q0 -41 -74 -41q-121 0 -121 115 q0 80 86 164q14 14 127 103t156 145q78 96 78 226t-69 212t-185 82zM551 118q0 -34 -54.5 -87.5t-87 -53.5t-87 53.5t-54.5 87.5t54.5 88t88.5 54t87 -54t53 -88z" glyph-name="question" horiz-adv-x="1005" unicode="?"/><glyph d="M1333 823q0 51 -70.5 90t-132.5 39t-114 -49q-92 -86 -158.5 -256.5t-66.5 -328.5t86 -158q96 0 260 229q84 117 140 250t56 184zM1409 326q0 -216 154 -213q137 0 241 170q90 147 90 356q0 297 -200 500q-236 240 -576 239.5t-582.5 -249t-242.5 -599t241.5 -598 t583.5 -247.5q186 0 353 78.5t286 224.5q17 20 33 20t27.5 -10t11.5 -26t-12 -31q-129 -160 -312.5 -248t-386.5 -88q-377 0 -644 270t-267 655t267 655.5t644 270.5q174 0 342 -69.5t287 -188.5q229 -229 229 -571q0 -248 -125 -428.5t-315 -180.5q-156 0 -236 127 q-53 82 -53 248l2 25q-4 0 -6 -4q-84 -147 -195.5 -261t-221.5 -114t-156.5 71.5t-46.5 182.5q0 219 137 452q168 285 393 285q72 0 147.5 -28.5t94.5 -28.5t35 14.5t30 28.5t33 14q33 0 33 -37q0 -10 -58.5 -274.5t-58.5 -392.5z" glyph-name="at" horiz-adv-x="2185" unicode="@"/><glyph d="M473 586h500q16 0 16 12q0 4 -4 14l-240 621q-4 12 -9 12t-9 -12l-266 -623q-4 -8 -4 -12q0 -12 16 -12zM1409 0h-291q-45 0 -45 31q0 18 31 35q53 27 53 67.5t-49 163.5l-74 186q-6 18 -33 19h-569q-18 0 -24 -17q-106 -249 -106 -319t65 -100q27 -12 26 -33 q0 -33 -51 -33h-264q-55 0 -55 29q0 18 11 26t13 10.5t49.5 26t124.5 201.5q494 1106 518 1169q6 16 23 17h43q18 -1 24 -19t219.5 -575t251.5 -649t76 -134q17 -16 52 -33t34 -38q0 -31 -53 -31z" glyph-name="A" unicode="A"/><glyph d="M563 0h-399q-53 0 -53 35q-1 14 35 38t51 50q27 45 26 209v823q0 127 -7.5 166.5t-49 59.5t-47.5 28t-6 18q0 35 49 35h399q119 0 179.5 -3t142.5 -24.5t139 -66.5q113 -86 113 -228t-95.5 -231.5t-218.5 -107.5q-16 -3 -16 -13t14 -10q164 -14 268.5 -110t104.5 -249 t-93 -246t-223.5 -133t-312.5 -40zM408 733q-27 0 -27 -26v-371q0 -194 20 -222t117 -28h60q440 0 440 336q0 168 -113.5 240.5t-333.5 72.5l-33 -1zM381 1335v-483q0 -33 37 -33h127q418 0 418 299q0 72 -27 123t-91.5 95t-285.5 44l-137 -2q-41 0 -41 -43z" glyph-name="B" horiz-adv-x="1296" unicode="B"/><glyph d="M1298 274q0 -176 -126 -236t-316 -60q-192 0 -337.5 62t-283 223t-137.5 464q0 184 76 341t215 263q201 156 453 156q195 0 329 -64q66 -31 84.5 -73.5t18.5 -126.5t-10 -103.5t-34 -19.5t-41.5 27.5t-42 76.5t-56.5 82q-115 117 -285 117q-223 0 -378 -186.5 t-155 -479.5t160 -484.5t388 -191.5t360 220q8 12 17.5 32.5t22 38t40.5 17.5q38 0 38 -95z" glyph-name="C" horiz-adv-x="1406" unicode="C"/><glyph d="M428 1380q-43 0 -43 -37v-1026q0 -121 4 -156.5t26 -56.5t105 -20h53q344 0 514 162q178 178 179 499q0 180 -76 340t-250 238q-116 50 -239 53.5t-273 3.5zM582 0h-416q-55 0 -55 35q0 16 34 37q37 16 58 47q27 45 26 213v823q0 131 -8.5 170.5t-55 59.5t-46.5 42 q0 35 55 35h367q276 0 427 -52t255 -144q211 -186 211 -500t-152 -476.5t-319.5 -226t-380.5 -63.5z" glyph-name="D" horiz-adv-x="1531" unicode="D"/><glyph d="M478 813l388 16q74 0 74 -30q0 -17 -4 -25t-8 -28t-20.5 -29.5t-57.5 -9.5l-225 10q-156 4 -209 4q-25 0 -25 -27v-436q0 -131 32 -154q33 -22 143 -22t210 12t155.5 57.5t133.5 174.5q30 53 63 53q47 0 48 -47q0 -20 -12 -66t-24 -108t-35.5 -118t-88.5 -56 q-12 0 -118.5 8t-219.5 8h-508q-57 0 -57 33q0 14 34 37q37 23 60 53q27 47 26 207v841q0 117 -8 152t-47 55q-22 14 -38.5 21t-16.5 28q0 35 49 35h526q117 0 224.5 8.5t115.5 8.5q70 0 72 -56q8 -64 8 -258q0 -61 -39 -61t-57 47q-4 10 -18.5 47t-26.5 66.5t-64 62.5 q-72 51 -346 51h-137q-39 0 -39 -37v-487q0 -23 9.5 -32t77.5 -9z" glyph-name="E" horiz-adv-x="1271" unicode="E"/><glyph d="M389 633v-303q0 -160 27 -207q25 -35 61 -53q33 -23 33 -37q0 -33 -57 -33h-285q-57 0 -57 33q0 14 34 37q35 18 61 56t25 204v856q0 106 -8 139t-47 53q-19 13 -37 20.5t-18 28.5q0 35 51 35h526q117 0 223.5 8.5t114.5 8.5q70 0 72 -56q2 -33 5 -128t5 -130 q0 -63 -43 -63q-37 0 -55 49q-4 10 -17.5 47t-28.5 68.5t-61 60.5q-76 51 -370 51h-115q-39 0 -39 -37v-546q0 -25 8.5 -33t82.5 -8t140 3q64 3 146 9t113 6q59 0 59 -35q0 -5 -8 -39t-23.5 -43.5t-68.5 -9.5l-215 10q-78 2 -209 2q-25 -2 -25 -24z" glyph-name="F" horiz-adv-x="1193" unicode="F"/><glyph d="M1341 688q49 0 50 -33q0 -19 -27 -32t-35 -19q-31 -20 -41 -62t-10 -163v-221q0 -45 -31 -74q-45 -35 -157.5 -71t-247.5 -36q-330 0 -537 217.5t-207 537.5t211 536.5t533 218.5q201 0 336 -66q57 -29 77.5 -77t20.5 -128t-11.5 -98t-32.5 -18t-33.5 14t-76 151.5 t-305.5 137.5t-394.5 -181.5t-152.5 -465.5t170 -489.5t430 -205.5q127 0 213 41q39 16 39 64v213q0 133 -12 171t-66 56q-4 2 -23.5 9t-32.5 14t-13 26q0 33 49 33h317z" glyph-name="G" horiz-adv-x="1495" unicode="G"/><glyph d="M1454 33q0 -33 -57 -33h-285q-57 0 -57 31q1 20 39 43t55 49q27 47 27 207v381q0 20 -23 20h-743q-20 0 -21 -18v-383q1 -160 23 -199t60 -59t38 -41q0 -31 -57 -31h-285q-57 0 -57 33q0 14 34 37q35 18 61 56t25 204v825q0 121 -9 162t-40 61q-8 6 -27.5 15.5 t-26.5 16.5t-7 20q2 33 51 32h277q53 0 53 -32q0 -20 -26.5 -33t-35.5 -19q-33 -20 -42 -61t-9 -162v-319q0 -20 25 -21h743q18 0 19 19v321q0 121 -9.5 162t-42.5 61q-8 6 -27.5 15.5t-26.5 16.5t-7 20q2 33 53 32h277q49 0 51 -32q0 -20 -26.5 -33t-35.5 -19 q-31 -20 -40 -61t-9 -162v-825q-1 -166 25 -204t61 -56q35 -23 35 -37z" glyph-name="H" horiz-adv-x="1564" unicode="H"/><glyph d="M510 33q0 -33 -57 -33h-285q-57 0 -57 33q0 20 34 39q37 18 62 55t24 203v823q0 123 -9 164t-40 61q-8 6 -28.5 15.5t-26.5 16.5t-6 20q0 33 51 32h277q53 0 53 -32q0 -20 -26.5 -33t-35.5 -19q-33 -20 -42 -61t-9 -164v-823q0 -160 27 -207q20 -28 61 -51q33 -16 33 -39 z" glyph-name="I" horiz-adv-x="620" unicode="I"/><glyph d="M228 -23q-110 0 -155 37q-46 37 -46 174q0 78 45 78q25 0 55 -43q9 -19 42.5 -56.5t63 -58t93.5 -20.5q66 0 120 54t73.5 134.5t19.5 227.5v622q0 164 -31 217q-12 20 -62 50q-31 16 -30 37q0 33 49 32h299q47 0 47 -32q0 -20 -35 -38t-51 -49q-31 -55 -31 -217l2 -460 q0 -172 -15 -275.5t-65 -189.5q-61 -109 -169.5 -166.5t-218.5 -57.5z" glyph-name="J" horiz-adv-x="915" unicode="J"/><glyph d="M1399 35q0 -35 -49 -35h-127q-55 0 -103 41t-286 371q-197 265 -221.5 287t-40.5 22t-54 -33l-104 -98q-25 -23 -25 -47v-213q0 -160 27 -207q14 -25 54 -47t40 -43q0 -33 -57 -33h-285q-57 0 -57 33q-1 19 35 39t59 51q27 41 26 207v825q0 121 -9 162t-40 61 q-8 6 -27.5 15.5t-26.5 16.5t-7 20q2 33 51 32h277q51 0 53 -32q0 -20 -26.5 -33t-35.5 -19q-33 -20 -42 -61t-9 -162v-461q0 -8 5 -8t16 10q229 211 485 463q135 129 135 169t-31.5 61.5t-31.5 37.5q0 35 59 35h315q45 0 45 -30t-71 -54q-143 -72 -328 -250 q-4 -4 -165.5 -155t-162.5 -160q0 -12 13 -12l26 6q34 0 80.5 -56.5t194 -264.5t240 -304t139.5 -112t47 -35z" glyph-name="K" horiz-adv-x="1462" unicode="K"/><glyph d="M1069 381q45 0 45 -47q0 -29 -14 -75t-26.5 -105.5t-22 -89t-34 -55t-58.5 -25.5t-134 8t-211 8h-446q-57 0 -57 33q1 16 37 39t57 51q27 41 26 207v825q0 123 -9 164t-40 61q-8 6 -27.5 15.5t-26.5 16.5t-7 20q2 31 51 30h277q53 0 53 -30q0 -20 -26.5 -33t-35.5 -19 q-33 -20 -42 -61t-9 -164v-897q0 -131 32 -154q52 -37 265 -14q125 16 180.5 61.5t134.5 174.5q37 55 68 55z" glyph-name="L" horiz-adv-x="1140" unicode="L"/><glyph d="M1622 0h-285q-59 0 -59 35q0 16 16 25.5t36 20.5t44 42q27 49 27 373v764q0 8 -7 8t-12 -8l-462 -1000q-10 -23 -35 -22h-39q-25 0 -35 22l-461 1002q-2 6 -9 6t-7 -8q0 -784 7 -916t41 -188t103 -80q37 -14 37 -41q0 -35 -49 -35h-321q-57 0 -58 37q0 21 28 39t38 26 q47 41 66.5 128t19.5 294v785q0 41 -54 62q-22 9 -33.5 13.5t-29.5 13.5t-18 32q0 33 49 32h227q43 0 57 -32l451 -979q6 -12 10 -12.5t10 12.5l455 979q14 33 49 32h199q49 0 50 -25t-25.5 -38t-34.5 -19q-31 -20 -40 -61t-9 -162v-825q0 -164 26 -209q19 -26 57 -50 t37 -40q0 -33 -57 -33z" glyph-name="M" horiz-adv-x="1792" unicode="M"/><glyph d="M1434 1462q57 0 57 -32q0 -25 -17.5 -31t-25.5 -10.5t-10 -4.5q-45 -18 -71 -67t-33 -161t-7 -855v-293q0 -25 -27 -24h-40q-12 0 -29 20l-862 1194q-5 6 -11 6t-6 -10q0 -754 7 -868t41 -171t104 -81q37 -14 37 -39q0 -35 -52 -35h-342q-55 0 -55 35q0 22 23.5 31.5 t25.5 11.5q103 42 113 244t10 987q0 15 -20 35t-44 29t-60 17.5t-36 34.5q0 37 58 37h170q41 0 57 -24l830 -1151q6 -10 12 -11q8 0 8 9q0 725 -6 850t-31.5 178t-77.5 71t-53 41q0 37 62 37h301z" glyph-name="N" horiz-adv-x="1576" unicode="N"/><glyph d="M817 1407q-231 0 -387 -175t-156 -466t155 -498t403 -207t397 183.5t149 455.5q0 186 -66.5 345t-196.5 260.5t-298 101.5zM1550 746q0 -322 -206.5 -545.5t-516.5 -223.5q-367 0 -567 240q-160 195 -160 503t208 537.5t536 229.5t524 -219q182 -200 182 -522z" glyph-name="O" horiz-adv-x="1650" unicode="O"/><glyph d="M969 1052q0 116 -53 194t-143.5 105t-235.5 27h-107q-41 0 -41 -43v-602q0 -31 35 -31h94q160 0 257.5 34t145.5 117t48 199zM412 618q-23 0 -23 -26v-256q0 -162 31 -219q16 -29 53 -44t37 -40q0 -33 -47 -33h-305q-47 0 -47 33q0 23 30 37q43 18 60 47q33 55 32 219 v819q0 127 -9 169t-56 62t-47 41q0 35 51 35h342q129 0 199.5 -4t168 -35.5t158.5 -95.5q102 -102 103 -264q-1 -119 -60 -215q-141 -229 -555 -230h-116z" glyph-name="P" horiz-adv-x="1196" unicode="P"/><glyph d="M834 59q231 0 387.5 173.5t156.5 465.5t-155.5 499.5t-405.5 207.5q-219 0 -381 -168t-162 -469q0 -186 66 -346t196 -261.5t298 -101.5zM100 714q0 318 208 545.5t530 227.5t518 -207t196 -555q0 -248 -146 -451.5t-380 -271.5q31 -8 143 -80q231 -147 301 -147l46 6 q33 0 32 -31q0 -20 -22 -35l-94 -65q-52 -35 -118 -1.5t-146.5 92t-96.5 69.5q-227 160 -326 167q-307 27 -476 223t-169 514z" glyph-name="Q" horiz-adv-x="1662" unicode="Q"/><glyph d="M561 793q172 0 284.5 73.5t112.5 235.5q0 76 -24.5 130t-82 100t-282.5 46h-135q-47 0 -47 -37v-520q0 -29 35 -28h139zM1313 33q0 -33 -43 -33h-117q-39 0 -60.5 17.5t-40.5 52.5t-43 92t-56.5 141t-66.5 167t-93.5 149.5t-153.5 82.5q-55 10 -129 10t-98 -3 q-25 -2 -25 -25v-348q0 -164 31 -217q16 -29 61 -47q31 -16 31 -39q0 -33 -49 -33h-303q-47 0 -47 33q0 23 30 39q45 18 60 47q31 47 30 217v819q0 127 -8.5 167t-55 62.5t-46.5 42.5q0 35 49 35h217l254 2q276 0 389 -100q102 -94 102 -242t-95 -242t-238 -116 q-16 -2 -17 -12q0 -8 17 -11q98 -16 154.5 -82.5t134.5 -252.5t111 -249t61 -77t31 -16.5t12.5 -7.5t9.5 -23z" glyph-name="R" horiz-adv-x="1366" unicode="R"/><glyph d="M289 1146q0 -106 90 -181q57 -49 244.5 -107.5t273.5 -112.5q172 -106 172 -304q-1 -198 -157 -331t-369 -133q-141 0 -256 43t-156 118t-41 241q0 51 43 51q23 0 35 -16t35.5 -60.5t40.5 -68.5q147 -215 352 -215q147 0 241.5 86t94.5 220t-111 212q-61 43 -178 77.5 t-304 106t-187 309.5q0 172 137 289t340 117q106 0 198 -30t139 -84q48 -55 48 -173t-45 -119q-31 0 -54 39q-2 2 -39 69.5t-85 117.5q-101 96 -225 95t-200.5 -75.5t-76.5 -180.5z" glyph-name="S" horiz-adv-x="1181" unicode="S"/><glyph d="M1139 1102q-35 0 -54 49q-4 10 -18 47t-42.5 100.5t-135.5 69.5t-176 6h-13q-18 0 -18 -16v-1022q0 -158 33 -219q12 -20 59 -47q31 -12 31 -37q0 -33 -47 -33h-305q-47 0 -47 33q0 23 30 37q51 33 60 47q31 57 30 219v1022q0 16 -16 16h-14q-194 0 -254 -42 q-51 -37 -70.5 -75t-40.5 -97q-20 -58 -55 -58q-45 0 -45 63q4 178 10 258q2 55 72 56q8 0 114.5 -8.5t223.5 -8.5h311q117 0 224.5 8.5t115.5 8.5q70 0 72 -56q2 -27 8 -258q0 -63 -43 -63z" glyph-name="T" horiz-adv-x="1212" unicode="T"/><glyph d="M1395 1462q57 0 57 -28t-48 -46t-72 -68t-32 -145t-8 -376v-267q0 -152 -39 -260q-115 -295 -507 -295t-494 250q-49 115 -49 320v608q0 129 -8.5 166t-47.5 59q-41 20 -48 28.5t-7 18.5q0 35 49 35h281q51 0 51 -35q0 -17 -10 -22.5t-16.5 -8.5t-16.5 -8.5t-14 -7.5 q-39 -20 -47.5 -55t-8.5 -154v-596q0 -170 37 -272q82 -219 381 -219q207 0 313.5 108.5t106.5 348.5q0 503 -5 611t-29.5 160t-78.5 72q-5 0 -23 9.5t-22 15.5t-4 18q0 35 58 35h301z" glyph-name="U" horiz-adv-x="1505" unicode="U"/><glyph d="M1470 1434q0 -19 -16 -30.5t-42 -25.5t-66 -70t-67 -119t-270 -610t-259 -579q-6 -16 -19 -16h-47q-14 0 -20 16q-424 1104 -468 1214t-74 140q-30 28 -60 42q-32 14 -31 36q0 31 57 30h287q43 0 43 -32q0 -18 -31 -33q-53 -25 -53 -64t64 -200t345 -904q5 -14 11 -14 t14 16q190 435 306 717t116 351t-66 98q-29 12 -28 35q0 31 55 30h264q55 1 55 -28z" glyph-name="V" unicode="V"/><glyph d="M2101 1462q55 0 56 -30q-1 -20 -51 -50t-81 -84q-31 -53 -63 -137t-214.5 -613.5t-186.5 -547.5q-8 -16 -21 -16h-41q-16 0 -20 16l-394 1200q-2 8 -8 8t-8 -8l-440 -1200q-8 -16 -21 -16h-43q-16 0 -20 16l-346 1169q-47 155 -73 183t-60 40t-33 35q0 35 67 35h281 q43 0 43 -32q0 -18 -31 -37q-2 0 -11 -6.5t-27.5 -15.5t-18.5 -58t289 -1020q6 -10 11 -10t7 8l432 1169q6 16 21 17h51q14 0 20 -17l385 -1171q2 -8 8 -8t9 6l237 717q68 204 68 278t-59 109q-31 16 -31 36q0 35 51 35h266z" glyph-name="W" horiz-adv-x="2183" unicode="W"/><glyph d="M1339 0h-262q-51 0 -51 31q0 14 27.5 30.5t27.5 40.5q-1 24 -41 82q-40 60 -346 469q-14 19 -26 -2q-301 -434 -306 -524q0 -37 41 -55.5t41 -36.5q0 -35 -53 -35h-262q-53 0 -53 33q0 18 13 26.5t63 36t156 174.5q106 146 211 304t105 165q0 6 -6 17l-368 501 q-57 76 -76.5 97.5t-46.5 36.5q-39 18 -39 39q0 33 47 32h254q51 0 51 -30q0 -16 -26.5 -33t-26.5 -39t32 -69q32 -48 343 -470q8 -12 14 -12t15 12q295 433 299 514q0 35 -40 55.5t-40 39.5q0 33 51 32h260q55 0 55 -32q0 -20 -25.5 -34.5t-35.5 -21.5q-68 -41 -150 -153 q-173 -242 -253 -363t-80 -125t6 -14l350 -477q72 -98 98.5 -128t63.5 -46t36 -35q0 -33 -47 -33z" glyph-name="X" horiz-adv-x="1462" unicode="X"/><glyph d="M1350 1432q0 -18 -54 -45t-144 -171q-54 -85 -392 -641q-6 -10 -6 -22v-217q0 -164 30 -217q14 -27 52 -44t38 -40q0 -35 -47 -35h-303q-49 0 -49 33q0 25 37 40q38 15 62 57t24 206v170q0 14 -18 47t-97.5 180.5t-148 273.5t-121.5 226t-77 127t-56 38t-31 32 q0 33 57 32h297q43 0 43 -30q0 -20 -40.5 -41t-40.5 -64t65 -168l270 -497q11 -15 20 -1q9 15 220 371q127 215 127 277t-44 79t-44 46t51 28h260q60 1 60 -30z" glyph-name="Y" horiz-adv-x="1380" unicode="Y"/><glyph d="M166 1102q-45 0 -45 52q0 28 3 90t4 110.5t3 68.5q6 55 70 56q8 0 115.5 -8.5t224.5 -8.5h536q27 0 35 -6t8 -38t-16 -58l-803 -1251q-8 -15 -8 -21t12 -6h162q217 0 270 8q127 18 180.5 62.5t133.5 173.5q34 55 65 55q47 0 47 -51q0 -10 -15 -68t-27.5 -120t-34 -110 t-85.5 -48q-16 0 -119.5 8t-215.5 8h-516q-27 0 -37.5 7t-10.5 40t19 64l797 1243q6 10 6 16t-13 6h-202q-315 0 -371 -40q-55 -39 -69.5 -66t-19.5 -39t-15.5 -41t-14.5 -39q-20 -49 -53 -49z" glyph-name="Z" horiz-adv-x="1245" unicode="Z"/><glyph d="M653 1442h-329q-20 0 -21 -19v-1634q0 -23 21 -22h331q20 0 21 -19v-47q0 -20 -21 -20h-479q-20 0 -20 20v1808q0 20 20 21h477q23 0 23 -21v-47q0 -20 -23 -20z" glyph-name="bracketleft" horiz-adv-x="741" unicode="["/><glyph d="M-80 1532h76q14 0 22 -12l1039 -1698q4 -6 4 -10q0 -10 -12 -11h-74q-14 0 -25 17l-1036 1698q-4 6 -4 11t10 5z" glyph-name="backslash" horiz-adv-x="991" unicode="\"/><glyph d="M88 -231h328q23 0 22 20v1634q0 20 -22 21h-330q-23 0 -23 18v47q0 20 23 21h479q20 0 21 -21v-1808q0 -20 -21 -20h-477q-25 0 -25 20v47q0 21 25 21z" glyph-name="bracketright" horiz-adv-x="741" unicode="]"/><glyph d="M213 950h-94q-27 0 -8 27l290 491q10 18 35 19h60q25 0 36 -19l293 -493q4 -8 4 -12q0 -12 -14 -13h-94q-29 0 -37 19l-209 352q-4 8 -8 8t-215 -360q-12 -19 -39 -19z" glyph-name="asciicircum" horiz-adv-x="933" unicode="^"/><glyph d="M-12 -299v59q0 20 22 21h1028q20 0 21 -21v-59q0 -20 -21 -20h-1028q-22 0 -22 20z" glyph-name="underscore" horiz-adv-x="1046" unicode="_"/><glyph d="M244 1473q0 14 20 14h146q47 0 77 -27l252 -196q12 -8 13 -15q0 -10 -15 -10h-88q-38 0 -65 18l-328 201q-12 8 -12 15z" glyph-name="grave" horiz-adv-x="993" unicode="`"/><glyph d="M1159 0h-268q-39 0 -39 27q0 14 37 33.5t37 51.5t-52 150l-24 53q-6 10 -19 11h-469q-10 0 -16 -11q-63 -133 -63 -178t18 -59.5t36.5 -23.5t18.5 -25q0 -29 -45 -29h-231q-49 0 -49 25q0 6 2 10t3.5 9t15.5 11.5t16 10.5q41 24 68 62q77 106 482 921q8 14 19 14h39 q14 0 20 -14l351 -793q59 -131 81 -157t53 -39q30 -13 29 -31q0 -29 -51 -29zM403 406h390q12 0 12 6t-2 10l-187 422q-4 8 -7 8t-7 -8l-205 -418q-4 -8 -4 -14t10 -6z" glyph-name="a" horiz-adv-x="1241" unicode="a"/><glyph d="M610 1044q387 0 387 -229q0 -106 -74.5 -166.5t-181.5 -75.5q-8 0 -8 -8t10 -8q301 -32 301 -256q0 -86 -51 -154q-111 -147 -454 -147h-363q-70 0 -70 33q0 13 9.5 19.5t40 26t45.5 44.5q27 41 26 190v441q0 113 -10 155.5t-48 60t-45 24.5t-7 20q0 31 51 30h442z M381 932v-305q0 -25 31 -25h102q313 0 313 195q0 111 -93.5 139.5t-209.5 28.5h-108q-35 0 -35 -33zM477 84h55q340 0 340 218t-346 218q-100 0 -120 -2q-25 0 -25 -22v-246q-1 -130 17 -148t79 -18z" glyph-name="b" horiz-adv-x="1146" unicode="b"/><glyph d="M1053 332q43 0 43 -86t-22.5 -141.5t-86.5 -81.5q-106 -45 -262 -46q-299 0 -464 158t-165 386t175 387t442 161q162 0 274 -45q55 -25 69.5 -64.5t14.5 -113.5t-10.5 -93.5t-28.5 -19.5t-30 5.5t-35.5 44.5t-30.5 55q-88 150 -261 150t-287 -133t-114 -337t125 -330.5 t284 -126.5q198 0 258 117t74.5 135.5t37.5 18.5z" glyph-name="c" horiz-adv-x="1204" unicode="c"/><glyph d="M532 0h-366q-57 0 -57 33q0 23 34 39q37 16 62 56t24 202v409q0 121 -10.5 168t-55 65.5t-44.5 41.5q0 31 51 30h332q221 0 341 -36.5t204 -102.5q167 -131 167 -356t-120.5 -341t-254.5 -162t-307 -46zM1044 524q0 125 -58 236.5t-180 157.5t-405 47q-18 0 -18 -19v-729 q0 -68 3 -88t17 -33q23 -16 123 -16q248 0 383 117t135 327z" glyph-name="d" horiz-adv-x="1310" unicode="d"/><glyph d="M410 498q-27 0 -27 -25v-182q0 -96 5 -133t26 -52q39 -24 134 -24q94 0 168 10t128.5 47t106.5 114t87 77q45 0 45 -54q0 -20 -7 -50t-18.5 -89t-33.5 -106t-84 -47q-14 0 -113.5 8t-214.5 8h-446q-57 0 -57 33q1 20 39 41q38 22 60 58t21 198v438q0 106 -8.5 143t-55 57 t-46.5 42q0 35 49 34h455q117 0 223 8.5t117 8.5q70 0 71 -53q6 -154 6 -218t-47 -63q-31 0 -57 51q-51 102 -106 146t-242 43h-164q-41 0 -41 -39v-305q0 -25 9.5 -34t65.5 -9t115 2l220 16q61 0 61 -33l-6 -30q-8 -29 -27.5 -39.5t-62.5 -10.5l-193 11q-59 2 -155 2z" glyph-name="e" horiz-adv-x="1183" unicode="e"/><glyph d="M410 444q-29 0 -29 -22v-92q0 -160 31 -207q20 -35 57 -51.5t37 -38.5q0 -33 -62 -33h-278q-59 0 -60 33q0 6 2.5 10t4 9t34 21t57.5 55q26 40 25 202v407q0 129 -8.5 169t-49 59.5t-46.5 26.5t-6 18q0 35 49 34h455q117 0 223 8.5t115 8.5q69 0 71 -53q8 -205 8 -209 q0 -72 -49 -72q-35 0 -67.5 71t-51 90t-34.5 30q-66 49 -238 49h-178q-41 0 -41 -39v-359q0 -25 9.5 -34t65.5 -9t117 2l215 17q63 0 64 -33q0 -4 -7 -33t-24.5 -38t-60.5 -9l-197 10q-55 2 -153 2z" glyph-name="f" horiz-adv-x="1107" unicode="f"/><glyph d="M725 -23q-274 0 -451.5 153t-177.5 385t175 392t442 162q162 0 274 -45q55 -23 70.5 -67t15.5 -134t-43 -90q-27 0 -42 17.5t-70.5 126t-235.5 108.5t-294 -131t-114 -322q0 -127 43 -223t149.5 -173t274.5 -77q86 0 152 21q25 8 25 33v43q0 129 -14 169t-75 60t-61 45 q0 33 53 33h312q51 0 51 -31q0 -23 -27 -36t-35 -17q-31 -18 -40 -58t-9 -151v-76q0 -29 -22 -45q-133 -72 -326 -72z" glyph-name="g" horiz-adv-x="1271" unicode="g"/><glyph d="M1200 33q0 -33 -57 -33h-283q-59 0 -59 33q0 19 37 35q38 16 62 60t24 202v147q0 18 -21 19h-502q-20 0 -20 -17v-149q0 -160 31 -209q16 -29 57 -51q35 -16 35 -39q0 -31 -60 -31h-280q-57 0 -58 33q0 14 40 39q40 26 61 60t20 194v409q0 125 -9 170.5t-48 63.5t-46 25 t-7 20q0 31 51 30h276q49 0 50 -30q0 -21 -27 -33t-35 -18q-31 -20 -41 -62.5t-10 -161.5v-141q0 -18 25 -18h499q18 0 19 16v143q0 121 -11 167.5t-50 63.5t-44.5 25.5t-5.5 18.5q0 31 49 30h277q51 0 51 -30q0 -21 -26.5 -33t-35.5 -18q-33 -20 -41 -60.5t-8 -163.5v-409 q-1 -160 21 -200t61 -58t39 -39z" glyph-name="h" horiz-adv-x="1306" unicode="h"/><glyph d="M504 33q0 -33 -60 -33h-280q-57 0 -58 33q0 20 37 39q37 16 61 55t23 203v409q0 123 -9 167.5t-48 62.5t-46 25t-7 20q0 31 51 30h276q49 0 50 -30q0 -21 -27 -33t-35 -18q-31 -20 -41 -62.5t-10 -161.5v-409q0 -158 31 -209q16 -31 54 -49t38 -39z" glyph-name="i" horiz-adv-x="610" unicode="i"/><glyph d="M784 1044q48 0 50 -25t-25 -37.5t-35 -18.5q-31 -20 -40 -61.5t-9 -162.5v-84q0 -176 -15.5 -279.5t-70.5 -197.5t-163 -147.5t-218 -53.5t-156 37q-47 43 -47 172q0 80 47 80q20 0 38 -20.5t41.5 -56t47.5 -58.5q53 -47 135 -47t144 78q63 84 63 342v235 q0 119 -11.5 166.5t-50 64.5t-44.5 24t-6 20q0 31 51 30h274z" glyph-name="j" horiz-adv-x="927" unicode="j"/><glyph d="M1194 33q0 -33 -45 -33h-119q-63 0 -106 31q-52 33 -184 195t-168.5 198.5t-61.5 36.5t-47 -23l-55 -53q-27 -27 -27 -49q0 -160 31 -213q18 -33 55 -52t37 -38q0 -33 -60 -33h-280q-57 0 -58 33q0 16 39 39q39 24 61 58t21 200v407q0 125 -9 169.5t-48 62.5t-46 25 t-7 20q0 31 51 30h276q49 0 50 -30q0 -20 -27 -32.5t-35 -18.5q-31 -20 -41 -62.5t-10 -163.5v-241q0 -14 6 -15q4 0 10 6l224 215q135 126 165 170t29 63q0 19 -30.5 37.5t-30.5 37.5q0 35 57 34h315q47 0 48 -30q0 -18 -16 -27.5t-90.5 -42.5t-157.5 -99.5t-308 -279.5 q-10 -10 -10 -14q0 -12 12 -12l39 10q22 0 39.5 -15.5t29 -26.5t29 -30.5t29.5 -34t33.5 -40.5t98.5 -118t135.5 -143t107.5 -67t49 -41z" glyph-name="k" horiz-adv-x="1261" unicode="k"/><glyph d="M999 330q45 0 45 -51q0 -20 -8 -53t-15 -70t-15.5 -77t-35 -67.5t-71.5 -27.5q-6 0 -109.5 8t-216.5 8h-407q-57 0 -57 33q1 23 37 40t60 56t23 201v409q0 121 -10.5 168t-55 65.5t-44.5 41.5q0 31 51 30h274q51 0 52 -30q0 -20 -27 -32.5t-35 -18.5q-31 -20 -41 -62.5 t-10 -161.5v-452q0 -92 5 -129t30 -57q24 -19 146 -19t198 35t158 149q42 64 79 64z" glyph-name="l" horiz-adv-x="1069" unicode="l"/><glyph d="M1327 0h-285q-57 0 -57 33q0 20 39 41t55 49q27 47 27 373v344q0 8 -8 8t-11 -6l-323 -654q-12 -23 -35 -22h-31q-25 0 -34 20l-322 658q-2 6 -10 6t-8 -10q0 -365 8 -498t35 -187.5t77 -73.5t50 -46q0 -35 -50 -35h-297q-55 0 -55 35q0 20 27.5 38.5t38.5 28.5 q47 41 65.5 128t18.5 294v367q0 41 -54 63q-22 10 -30 12.5t-12.5 4.5t-11.5 5t-9 5t-10.5 7t-8.5 22q4 35 50 34h217q41 0 55 -32l315 -641q2 -6 10.5 -6t10.5 6l319 639q18 35 50 34h190q51 0 51 -30q0 -21 -26.5 -33t-34.5 -18q-31 -20 -40 -61.5t-9 -164.5v-407 q0 -164 22 -201t61 -56q38 -19 37 -40q0 -33 -57 -33z" glyph-name="m" unicode="m"/><glyph d="M1231 1044q57 0 59 -32q0 -19 -12 -26t-15 -9t-35 -12t-58.5 -61.5t-35.5 -167.5t-10 -580v-150q0 -23 -24 -22h-39q-12 0 -31 18l-668 782q-6 6 -8 7q-6 0 -6 -9q0 -342 7 -456t41 -171t102 -81q37 -14 37 -39q0 -35 -50 -35h-335q-57 0 -58 35q0 22 48.5 41.5t79 78.5 t37.5 195t7 535q0 54 -67.5 73t-80 26t-12.5 24q0 37 60 36h143q37 0 60 -26l657 -764q8 -8 13 -8t5 12q0 334 -5 458t-34 181t-65.5 67.5t-40.5 13.5t-13.5 8.5t-9.5 21.5q0 37 60 36h297z" glyph-name="n" horiz-adv-x="1372" unicode="n"/><glyph d="M1065 499q-1 187 -109 335t-296 149q-188 0 -290 -122.5t-102 -320.5t118 -339t298 -141t287 135q94 117 94 304zM1237 534q0 -234 -163.5 -396.5t-415.5 -162.5t-407 149.5t-155 383.5t163 397.5t417 163.5t407.5 -150.5t153.5 -384.5z" glyph-name="o" horiz-adv-x="1333" unicode="o"/><glyph d="M1026 762q0 -108 -51 -178q-125 -170 -483 -170h-89q-23 0 -22 -19v-65q0 -160 31 -207q18 -31 55 -53t37 -37q0 -33 -60 -33h-280q-57 0 -58 33q0 14 39 38q39 23 61 59t21 200v409q0 123 -8 163t-41 61q-10 6 -35.5 17t-25.5 34q0 31 51 30h311q119 0 180.5 -3 t143.5 -26.5t135 -70.5q88 -74 88 -182zM403 498h74q186 0 280.5 57t94.5 186q0 76 -40 131t-114.5 73t-203.5 18h-91q-23 0 -22 -19v-426q-1 -20 22 -20z" glyph-name="p" horiz-adv-x="1087" unicode="p"/><glyph d="M96 512q0 232 163 394.5t417 162.5t407.5 -150.5t153.5 -388.5q0 -172 -92 -308t-246 -202q68 -26 195 -104t193.5 -111.5t103.5 -33.5l43 6q35 0 34 -29q0 -23 -22 -37l-94 -65q-52 -38 -117.5 -3t-116 73t-129.5 91q-240 168 -340 170q-256 8 -404.5 155.5 t-148.5 379.5zM268 571q0 -207 108 -359t306 -153q198 0 307 160q76 111 76 251t-44 248.5t-114 168.5q-111 96 -256 96t-245 -88q-138 -117 -138 -324z" glyph-name="q" horiz-adv-x="1351" unicode="q"/><glyph d="M1128 31q0 -31 -43 -31h-81q-75 0 -96 33t-28.5 43t-18.5 33.5t-28.5 59t-48.5 103.5q-63 135 -124.5 180.5t-176.5 45.5h-73q-27 0 -27 -27v-141q0 -162 29 -207q16 -29 55 -49t39 -41q0 -33 -60 -33h-268q-70 0 -69 33q1 20 37 41t57 49q27 41 26 190v441 q0 113 -10.5 156.5t-55 62t-44.5 41.5q0 31 51 30h479q203 0 278 -68t75 -180t-78 -178.5t-209 -80.5q-8 1 -8 -7t8 -8q78 -14 126.5 -57t122.5 -199t121 -190q43 -21 43 -45zM561 582q266 0 266 190q0 133 -81 162t-179 29h-157q-27 0 -27 -27v-328q0 -27 27 -26h151z" glyph-name="r" horiz-adv-x="1191" unicode="r"/><glyph d="M150 344q18 0 33.5 -18.5t92.5 -138.5t287 -119q106 0 183 54t77 127t-49 116t-124 62t-161 45t-160.5 52.5t-123.5 86t-49 139.5q0 166 157 260q98 57 249 57t255 -47q55 -27 73.5 -62.5t18.5 -118.5t-47 -87q-33 0 -71 63q-100 162 -279 162q-84 0 -143.5 -47 t-59.5 -120t68.5 -114t166 -64.5t195 -52t166 -95t68.5 -156.5q0 -185 -174 -283q-119 -68 -259 -68t-241.5 31t-152.5 75t-52 167q1 94 56 94z" glyph-name="s" horiz-adv-x="1069" unicode="s"/><glyph d="M1063 799q0 -70 -49 -70q-31 0 -58 51q-42 105 -97 146q-56 41 -212 41q-12 0 -12 -13v-618q0 -168 31 -219q12 -19 51 -41t39 -43q0 -33 -49 -33h-301q-49 0 -50 33q0 20 39 42t51 42q31 51 31 219v618q0 12 -12 13q-156 0 -215 -45q-57 -40 -94 -142q-25 -51 -58 -51 q-49 0 -49 70q0 111 8 209q2 53 76 53q10 0 115.5 -8.5t218.5 -8.5h178q113 0 218.5 8.5t115.5 8.5q74 0 76 -53q8 -98 8 -209z" glyph-name="t" horiz-adv-x="1112" unicode="t"/><glyph d="M692 88q334 0 334 370q0 182 -2 286q-2 102 -29 156t-79 68.5t-52 39.5q0 37 60 36h284q57 0 58 -30q0 -24 -51 -46t-72 -69t-24 -153t-5 -271q-2 -164 -39 -256q-100 -242 -412 -242t-411 216q-47 98 -47 354v194q0 127 -9.5 169t-56.5 61t-47 41q0 33 51 32h279 q51 0 51 -32q0 -23 -27.5 -35t-29.5 -14q-39 -20 -47.5 -54.5t-8.5 -150.5v-183q0 -240 35 -323q72 -164 297 -164z" glyph-name="u" horiz-adv-x="1325" unicode="u"/><glyph d="M604 -6h-41q-16 0 -22 16l-346 778q-57 126 -80 154t-54 42t-30 32q0 29 51 28h268q39 0 39 -26q0 -14 -18.5 -24.5t-37 -26t-18.5 -42t52 -141.5l258 -581q2 -6 6 -6t8 6l229 473q90 184 90 234t-36.5 69.5t-36.5 36.5q0 29 45 28h229q51 1 51 -22t-17 -33t-19 -10 q-49 -31 -100 -105t-445 -866q-8 -14 -25 -14z" glyph-name="v" horiz-adv-x="1236" unicode="v"/><glyph d="M1810 1044q51 0 52 -30q0 -21 -43.5 -44.5t-75.5 -67.5q-33 -44 -78 -150q-162 -401 -293 -738q-8 -20 -29 -20h-59q-18 0 -27 18l-319 824q-2 8 -6 8t-8 -8l-340 -826q-6 -16 -27 -16h-59q-23 0 -29 18l-260 740q-57 162 -90 192q-17 18 -51 32t-33 38q0 31 59 30h289 q45 0 45 -28t-46 -46.5t-46 -69.5q0 -52 35 -150l192 -543q2 -8 6 -8t6 6l351 846q6 16 22 16h47q16 0 23 -16l328 -846q2 -8 7 -8q11 0 169 424q72 207 72 252q-1 74 -49 96t-48 45q0 31 53 30h260z" glyph-name="w" horiz-adv-x="1892" unicode="w"/><glyph d="M1198 35q0 -35 -49 -35h-264q-55 0 -56 29q0 18 26 33.5t26 37.5t-54 90l-223 275q-6 6 -10 6t-10 -6q-113 -156 -163 -233q-50 -78 -50 -108t37.5 -50.5t37.5 -36.5q0 -37 -49 -37h-258q-51 0 -51 33q0 19 13.5 27t59 31t144.5 151q105 126 167 210t62.5 90.5t-6.5 14.5 l-186 225q-120 142 -146 160t-50.5 29.5t-35 19.5t-10.5 23q0 31 50 30h266q55 0 55 -28q0 -18 -27 -34q-26 -16 -26 -30t14 -40t250 -312q6 -6 10 -6t8 6q203 270 203 330q0 25 -38 43t-38 37q0 35 52 34h254q51 0 51 -30q0 -20 -13.5 -27.5t-54 -25.5t-147.5 -152 l-211 -272q-6 -7 -6 -13t6 -16l184 -221q130 -157 158 -179t52 -33.5t35 -18.5t11 -21z" glyph-name="x" horiz-adv-x="1286" unicode="x"/><glyph d="M1178 1014q0 -23 -43 -40t-85 -52q-42 -34 -108 -118t-268 -347q-6 -8 -6 -25v-96q0 -162 32 -217q14 -25 52 -43t39 -41q0 -35 -50 -35h-303q-49 0 -49 35q0 20 39 42t51 42q31 51 31 217v53q0 18 -6 31l-217 323q-100 147 -160 201q-25 20 -57 32t-31 38q0 31 57 30 h297q45 0 45 -30q0 -16 -34.5 -34.5t-34.5 -51.5t94 -168l151 -223q9 -14 17 0l108 145q152 201 152 252q0 25 -38 43t-38 37q0 31 51 30h250q62 1 62 -30z" glyph-name="y" horiz-adv-x="1208" unicode="y"/><glyph d="M1024 330q47 0 47 -49q0 -23 -8 -53t-14.5 -65.5t-14 -76t-34 -71.5t-76.5 -31q-6 0 -107.5 8t-214.5 8h-448q-49 0 -50 37q0 53 21 76l690 835q4 6 4 12t-12 7h-150q-264 0 -331 -49q-44 -27 -81.5 -109t-72.5 -82q-47 0 -47 72q0 133 6 209q2 53 72 53q8 0 114.5 -8.5 t221.5 -8.5h440q45 0 45 -28q0 -47 -20 -72l-695 -844q-4 -4 -4 -11t10 -7h195q188 0 250 24t100.5 58.5t76.5 88.5t52.5 65.5t34.5 11.5z" glyph-name="z" horiz-adv-x="1159" unicode="z"/><glyph d="M238 605q0 -5 8 -7q104 -27 144 -89.5t40 -162.5q0 -45 -12 -162.5t-12 -173.5q0 -123 51 -184.5t176 -65.5q18 0 18 -20v-41q0 -18 -24 -18q-199 2 -281 83.5t-82 253.5q0 66 11.5 190t11.5 157q0 90 -39 135t-150 63q-23 4 -22 27v33q0 20 20 24q113 18 152 64.5 t39 138.5q0 33 -11.5 155.5t-11.5 188.5q0 172 82 253t279 85q27 0 26 -19v-40q0 -18 -18 -19q-125 -6 -176 -67.5t-51 -184.5l24 -336q0 -102 -40 -164.5t-144 -89.5q-8 -2 -8 -7z" glyph-name="braceleft" horiz-adv-x="733" unicode="{"/><glyph d="M233 1788h62q20 0 20 -19v-2142q0 -23 -20 -22h-62q-23 0 -22 22v2142q-1 19 22 19z" glyph-name="bar" horiz-adv-x="528" unicode="|"/><glyph d="M657 590q0 -20 -20 -25q-113 -18 -152 -64t-39 -139q0 -33 11.5 -155.5t11.5 -188.5q0 -172 -82 -252.5t-278 -84.5q-27 0 -27 18v41q0 18 18 18q125 6 176.5 67.5t51.5 184.5q0 55 -12.5 172.5t-12.5 191.5q0 179 184 226q8 2 9 6q0 6 -9 8q-104 27 -144 89.5t-40 162.5 q0 45 12.5 163t12.5 173q0 123 -51.5 184.5t-176.5 65.5q-18 0 -18 21v40q0 18 24 19q199 -2 281 -84t82 -254q0 -66 -11.5 -189.5t-11.5 -156.5q0 -90 39 -135.5t150 -63.5q23 -4 22 -26v-33z" glyph-name="braceright" horiz-adv-x="733" unicode="}"/><glyph d="M1194 748q0 -8 -2 -15q-86 -252 -274 -252q-96 0 -288 75t-257 75q-102 0 -168 -133q-13 -22 -33 -15l-33 11q-16 6 -16 18q0 6 2 12q45 131 111.5 191.5t159.5 60.5t237 -55q231 -92 303 -92t109.5 29.5t68.5 97.5q8 18 19 18q4 0 16 -4l27 -8q18 -6 18 -14z" glyph-name="asciitilde" horiz-adv-x="1318" unicode="~"/><glyph glyph-name="uni00A0" horiz-adv-x="436" unicode=" "/><glyph d="M168 972q0 34 53 87t87 53t88.5 -53t54.5 -87t-54.5 -88.5t-88.5 -54.5t-87 54.5t-53 88.5zM410 -206q0 -80 -5.5 -111t-29 -54.5t-77.5 -23.5t-72.5 41t-18.5 136t18.5 334.5t20.5 317.5l1 84q1 84 10 98.5t17.5 23.5t26.5 9t26.5 -2t15.5 -9t16.5 -22.5t9.5 -35.5 l2 -146q2 -78 20.5 -319t18.5 -321z" glyph-name="exclamdown" horiz-adv-x="681" unicode="¡"/><glyph d="M948 256q33 0 33 -37q0 -61 -113.5 -147t-238.5 -92v-162q0 -16 -17 -17h-49q-16 0 -16 17v159q-190 12 -306 150.5t-116 353.5t120 387t302 209v185q0 14 16 14h49q16 0 17 -14v-172q10 2 33 2q182 0 256 -74q38 -40 38 -148t-51 -108q-25 0 -38 19.5t-33.5 61.5 t-49.5 72q-70 80 -163 80q-178 0 -255 -146.5t-77 -316.5q0 -221 98.5 -327.5t240.5 -106.5t267 121q41 37 53 37z" glyph-name="cent" horiz-adv-x="1085" unicode="¢"/><glyph d="M1014 231q39 0 39 -34q0 -16 -12.5 -45t-18.5 -48q-20 -78 -50 -102.5t-90 -24.5t-89 2.5t-63 8.5t-55.5 9t-62.5 14.5t-77.5 19t-172.5 48.5q-137 41 -171 41t-57.5 -15t-35.5 -15t-22 9.5t-10 26.5t34.5 60t84.5 43t110.5 -11t66.5 -11t17 4q170 72 170 209 q0 63 -39 160h-219q-14 0 -15 16v49q0 14 15 14h184q-8 16 -50 93t-61.5 130.5t-19.5 108.5q0 131 105.5 209t229.5 78t183 -41q47 -29 47 -123t-53 -94q-23 0 -37 13.5t-39 56.5q-66 111 -151 110q-66 0 -108 -41t-42 -102t79 -215t91 -183h283q16 0 16 -14v-49 q0 -16 -16 -16h-254q16 -55 16 -103q0 -111 -65.5 -181.5t-153.5 -100.5q-12 -3 -12 -7t12 -8q233 -43 317 -43t112 11.5t46 29.5t32 35.5t32 17.5z" glyph-name="sterling" horiz-adv-x="1220" unicode="£"/><glyph d="M1358 50q0 -5 -6 -11l-35 -35q-6 -6 -11 -6t-12 6l-235 236q-129 -106 -297 -106.5t-297 106.5l-238 -236q-6 -6 -11 -6t-11 6l-35 35q-6 6 -6 11t6 11l236 236q-113 125 -113 296t113 300l-234 233q-8 8 -8 14t8 13l33 33q6 6 11 6t11 -6l238 -238q125 106 297 106.5 t297 -106.5l235 238q6 6 12 6t11 -6l35 -35q6 -6 6 -11t-6 -12l-234 -235q111 -131 111 -302t-111 -294l234 -236q6 -6 6 -11zM762 272q131 0 224 94.5t93 227.5t-93 227t-224 94t-224.5 -94t-93.5 -227t93.5 -227.5t224.5 -94.5z" glyph-name="currency" horiz-adv-x="1527" unicode="¤"/><glyph d="M1243 1239q0 -19 -8 -23t-45 -21.5t-137 -176.5l-160 -260l-4 -8q0 -6 10 -7h238q12 0 12 -12v-51q0 -12 -14 -12h-285q-14 0 -21 -11l-90 -147q-4 -6 -4 -11t10 -5h390q14 0 14 -13v-51q0 -14 -14 -14h-400q-10 0 -10 -10v-115q0 -147 27 -189q14 -25 46 -38t31 -33 q0 -31 -41 -31h-270q-39 0 -39 29q0 20 31 34t45 39q27 43 27 189v112q0 12 -13 13h-376q-12 0 -13 14v49q0 14 13 15h352q12 0 12 5t-4 13l-76 143q-6 12 -24 13h-263q-10 0 -10 12v53q0 10 10 10h222q10 1 10 7t-4 12l-135 250q-73 139 -95 163q-22 25 -50 35t-27 27 q0 27 47 27h258q39 0 39 -27q0 -14 -36 -33.5t-36 -56.5t57 -143l232 -431q4 -10 9 -10t9 8l191 320q111 184 110 252q0 39 -39 57.5t-39 36.5q0 27 45 27h234q51 0 51 -25z" glyph-name="yen" horiz-adv-x="1413" unicode="¥"/><glyph d="M233 1788h62q20 0 20 -19v-950q0 -18 -20 -18h-62q-23 0 -22 18v950q-1 19 22 19zM233 594h62q20 0 20 -21v-946q0 -23 -20 -22h-62q-23 0 -22 22v946q-1 21 22 21z" glyph-name="brokenbar" horiz-adv-x="528" unicode="¦"/><glyph d="M498 797q-110 0 -169 -60.5t-59 -147.5t80 -147.5t186 -60.5t172 55.5t66 149.5t-83 152.5t-193 58.5zM903 -33q0 -183 -179 -300q-92 -61 -214 -61t-214.5 36t-137.5 92t-45 186q0 70 53 70q31 0 63 -62q125 -227 299 -227q100 0 169 63.5t69 151.5q0 120 -109 182 t-234 115q-126 53 -209 136t-83 197t67.5 199.5t176.5 120.5q8 2 8 7t-6 8q-225 106 -225 315q0 141 112 238.5t264 97.5t248 -76q68 -49 68 -156q0 -68 -10 -96t-42 -28t-53 47q-31 74 -53 112.5t-68 70.5t-124 32t-136.5 -58.5t-58.5 -136.5t30.5 -111.5t55 -59.5 t231.5 -109q287 -121 287 -336q0 -80 -52.5 -178.5t-203.5 -143.5q-6 -2 -6 -6t4 -6q258 -121 258 -326z" glyph-name="section" horiz-adv-x="1083" unicode="§"/><glyph d="M673 1291q-51 0 -67 15t-16 69t16.5 70.5t67.5 16.5t71 -16q15 -16 15 -70t-18 -70q-18 -15 -69 -15zM328 1291q-52 0 -68 15t-16 69t16 70.5t68 16.5t71 -16q16 -20 16.5 -71.5t-17.5 -67.5t-70 -16z" glyph-name="dieresis" horiz-adv-x="1005" unicode="¨"/><glyph d="M295 731.5q0 -276.5 196.5 -474.5t471 -198t471 198t196.5 474.5t-196.5 473t-471 196.5t-471 -196.5t-196.5 -473zM207 731q0 311 221.5 533.5t533.5 222.5t534 -222.5t222 -533.5t-222 -532.5t-534 -221.5t-533.5 221.5t-221.5 532.5zM1288 592q35 0 35 -66 t-18.5 -110.5t-67.5 -65.5q-88 -37 -209 -37q-236 0 -363.5 126t-127.5 305t137 303t348 127q133 0 213 -35q45 -18 56.5 -50.5t11.5 -92.5t-8.5 -72.5t-27.5 -12.5t-30.5 14.5t-28 47.5t-37.5 55q-68 80 -174 80q-141 0 -232 -103t-91 -261t96 -260.5t224 -102.5t200 94 q18 25 35.5 57.5t29 46t29.5 13.5z" glyph-name="copyright" horiz-adv-x="1925" unicode="©"/><glyph d="M512 1104v22q0 14 -22 -6q-22 -21 -98.5 -55.5t-104.5 -54.5q-57 -40 -57 -96t34.5 -87.5t83.5 -31.5q92 0 137 88q27 55 27 221zM628 700q-42 0 -71 30t-33 85q0 6 -4 6l-6 -8q-76 -113 -219 -113q-86 0 -153.5 54.5t-67.5 143.5t88 151q41 27 124 56.5t109 41.5 q117 53 117 151q0 49 -29.5 83t-89.5 34q-89 0 -135.5 -77.5t-60 -91t-35.5 -13.5q-43 0 -43 75q-1 74 25 108t99.5 52.5t137.5 18.5q125 0 199.5 -65.5t74.5 -180.5l-4 -358q0 -72 43 -72l19 2q25 0 24.5 -28.5t-34 -56.5t-75.5 -28zM477 376.5q0 -53.5 -17 -68.5 q-18 -15 -68 -15t-66.5 16.5t-16.5 66.5q-1 50 15 67t69 17.5t70 -14.5q14 -16 14 -69.5z" glyph-name="ordfeminine" horiz-adv-x="811" unicode="ª"/><glyph d="M977 213v-92q0 -12 -7 -12t-16 8l-505 442q-20 16 0 35l505 442q8 8 16 8t7 -10v-90q0 -23 -19 -37l-364 -319q-6 -6 -6 -10t373 -330q16 -10 16 -35zM578 213v-92q0 -10 -8 -10q-8 1 -80 65t-379 334q-12 12 -13 29v77q0 18 13 29l446 391q8 8 14.5 8t6.5 -10v-90 q0 -23 -15 -37l-368 -319q-10 -10 0 -19q276 -240 370 -321q13 -12 13 -35z" glyph-name="guillemotleft" horiz-adv-x="1144" unicode="«"/><glyph d="M1417 1069q20 0 21 -22v-592q0 -20 -21 -21h-59q-25 0 -25 21v493q0 16 -14 17h-1167q-20 0 -21 18v64q0 23 21 22h1265z" glyph-name="logicalnot" horiz-adv-x="1648" unicode="¬"/><glyph d="M662 1126q0 90 -127 88h-41q-14 0 -15 -12v-162q0 -10 10 -10h43q53 0 91.5 23.5t38.5 72.5zM557 1274q207 0 207 -130q0 -56 -32 -92t-89 -44q-8 0 -8 -6q1 -6 21 -10q53 -13 98 -122q46 -110 67 -121t21 -22q0 -16 -21 -16h-63q-39 0 -56 28q-14 29 -30 68t-34 77 q-40 89 -126 89h-25q-8 0 -8 -10v-109q0 -62 9 -80t26 -26q16 -10 16 -24t-24 -13h-154q-23 0 -22 16q0 9 17 19t27 28t9 80v297q0 72 -23 84q-2 2 -13 7.5t-11 18.5t22 13h199zM131 989q0 -176 125 -302t300 -126t300 126t125 302t-125 302t-300 126t-300 -126t-125 -302z M59 989q0 205 145.5 351.5t351.5 146.5t352.5 -146.5t146.5 -351.5t-146.5 -350t-352.5 -145t-351.5 145t-145.5 350z" glyph-name="registered" horiz-adv-x="1130" unicode="®"/><glyph d="M811 1446v-68q0 -16 -18 -16h-535q-16 0 -16 16v68q0 16 16 16h535q18 0 18 -16z" glyph-name="macron" horiz-adv-x="1052" unicode="¯"/><glyph d="M158 1297q0 -62 44 -107t106 -45t106.5 45t44.5 107t-44.5 107.5t-106.5 45.5t-106 -45.5t-44 -107.5zM70 1297q0 97 70.5 166t169 69t168 -68t69.5 -166t-69.5 -166.5t-168 -68.5t-169 68.5t-70.5 165.5z" glyph-name="degree" horiz-adv-x="632" unicode="°"/><glyph d="M1188 856v-59q0 -18 -21 -19h-411q-8 0 -8 -10v-389q0 -18 -23 -19h-66q-20 0 -20 19v389q0 10 -10 10h-410q-20 0 -20 19v59q0 23 20 23h410q10 0 10 8v387q0 23 20 22h66q23 0 23 -22v-387q0 -8 8 -8h411q21 0 21 -23zM1186 209v-62q0 -18 -21 -18h-948q-20 0 -20 18 v62q0 20 20 20h948q21 0 21 -20z" glyph-name="plusminus" horiz-adv-x="1384" unicode="±"/><glyph d="M127 1092q-63 0 -64 63q0 139 115 231q35 29 104.5 69t98.5 65q70 59 70 145q0 55 -33.5 91t-93.5 36t-105 -53q-18 -23 -35.5 -53.5t-29 -44t-31.5 -13.5q-37 0 -37 68t27 96q61 61 192 61t207 -57.5t76 -149.5t-66 -155q-45 -43 -179 -94t-177 -115q-18 -29 -18 -48 t16 -20h205q79 0 111 6t52 29q20 22 35 23q31 0 31 -29l-10 -80q-2 -29 -4 -41t-16.5 -24.5t-43.5 -12.5l-141 7h-256z" glyph-name="uni00B2" horiz-adv-x="665" unicode="²"/><glyph d="M455 1655q0 61 -33 99t-87 38t-89 -30t-62 -84t-51 -54q-45 0 -45 77t45 105q72 47 198 47t193 -56q68 -55 68 -123t-46 -117.5t-136 -67.5q-4 0 -4 -4t4 -4q80 -8 143 -54.5t63 -130.5t-55 -143q-80 -84 -256 -84t-221 76q-23 37 -23 101t41 65q18 0 29.5 -14.5 t47.5 -90.5t147 -76q70 0 112.5 42t42.5 124q0 154 -159 154l-84 -8q-31 0 -31 41t33 41l84 -8q131 0 131 139z" glyph-name="uni00B3" horiz-adv-x="688" unicode="³"/><glyph d="M311 1239h-92q-12 0 -12 7t12 18l242 196q31 27 76 27h147q20 0 21 -12q-1 -9 -9 -15l-321 -203q-25 -18 -64 -18z" glyph-name="acute" horiz-adv-x="911" unicode="´"/><glyph d="M444 223q0 -131 93 -131q139 0 299 282t223 537l31 129q6 25 26 29l105 21q8 2 14 2q16 0 16 -12t-86 -427q-86 -416 -86 -469t41 -53q27 0 68 32t55 32t23.5 -9.5t9.5 -21.5q0 -37 -76 -112t-170 -75q-133 0 -133 142q0 70 43 233l8 31q0 4 -5 4t-9 -6 q-213 -403 -447 -404q-125 0 -163 103q-2 6 -6.5 6t-6.5 -6l-45 -195q-18 -80 -23 -150.5t-7 -74.5q-12 -53 -81 -53t-69 45q0 23 63 175.5t156 604.5l125 608q2 20 31 27l108 20l15 3q16 0 16 -17q0 -8 -2 -16l-127 -627q-27 -139 -27 -207z" glyph-name="uni00B5" horiz-adv-x="1478" unicode="µ"/><glyph d="M676 729v629q0 20 -23 20q-225 -4 -321 -137q-55 -80 -56 -192q0 -156 101.5 -246t273.5 -94q25 0 25 20zM1094 1462q49 0 49 -30q0 -21 -43.5 -35.5t-53.5 -53t-10 -147.5v-1364q0 -29 -28 -29h-41q-31 0 -31 29v1507q0 25 -8 32t-31 7h-100q-23 0 -23 -22v-1524 q0 -29 -26 -29h-46q-27 0 -26 27v774q0 20 -23 21q-254 4 -403.5 102.5t-149.5 290.5t113 305q66 66 166 98.5t171 36.5t195 4h349z" glyph-name="paragraph" horiz-adv-x="1298" unicode="¶"/><glyph d="M145 574q0 34 53.5 88.5t88.5 54.5t89 -54.5t54 -88.5t-55.5 -88t-88 -54t-87 54t-54.5 88z" glyph-name="periodcentered" horiz-adv-x="575" unicode="·"/><glyph d="M408 -91q0 -25 29.5 -37.5t64.5 -19t64.5 -32t29.5 -68.5q0 -66 -67 -106.5t-131 -40.5t-110 17.5t-46 43.5q0 33 37 33q16 0 48.5 -10.5t59.5 -10.5t47.5 18.5t20.5 44.5t-22.5 41t-50.5 20t-50 22.5t-22 51.5t61 124h92q-55 -66 -55 -91z" glyph-name="cedilla" horiz-adv-x="839" unicode="¸"/><glyph d="M326 1819v-707q0 -20 -21 -20h-82q-20 0 -20 20v545q0 82 -10 94t-52 12l-84 -2q-25 0 -25 28t17 30q16 2 77.5 8t103.5 17t53 11q43 1 43 -36z" glyph-name="uni00B9" horiz-adv-x="481" unicode="¹"/><glyph d="M664 1072q0 142 -62 242.5t-154 100.5t-144 -72.5t-52 -212.5t60.5 -248t154.5 -108t145.5 78t51.5 220zM465 1487q158 0 253 -110.5t95 -277.5t-101.5 -283t-257.5 -116t-254 105.5t-98 276.5t102.5 288t260.5 117zM538 376.5q0 -53.5 -17 -68.5t-67 -15t-66.5 16.5 t-16.5 66.5t15 67t68.5 17.5t69.5 -14.5q14 -16 14 -69.5z" glyph-name="ordmasculine" horiz-adv-x="915" unicode="º"/><glyph d="M168 121v92q0 25 16 35l367 321q6 5 6 9t-6 10q-225 197 -365 319q-18 14 -18 37v90q0 10 7 10t15 -8l506 -442q20 -20 0 -35l-506 -442q-8 -8 -15 -8t-7 12zM567 121v92q0 23 13 35l370 321q4 3 4 9t-4 10l-368 319q-14 14 -15 37v90q0 10 6.5 10t14.5 -8l446 -391 q12 -10 13 -29v-77q0 -16 -13 -29l-444 -391q-8 -8 -16 -8t-7 10z" glyph-name="guillemotright" horiz-adv-x="1144" unicode="»"/><glyph d="M1255 258h78q18 0 19 -18v-62q0 -18 -19 -18h-80q-14 0 -14 -17v-120q0 -23 -20 -23h-82q-20 0 -21 23v120q0 16 -16 17h-328q-18 0 -18 20v58q0 27 16 41q207 195 219 466q0 18 17 19h81q14 0 15 -19q-8 -233 -256 -477q-4 -4 -4 -7t6 -3h254q14 0 14 14v367q0 16 17 16 h88q18 0 18 -16v-367q0 -14 16 -14zM1067 1264h115l-822 -1067h-114zM399 1487q43 0 43 -37v-707q0 -20 -20 -20h-82q-20 0 -21 20v545q0 82 -10 94t-51 13l-84 -2q-24 -1 -24 27t16 30t77.5 8t103.5 18t52 11z" glyph-name="onequarter" horiz-adv-x="1433" unicode="¼"/><glyph d="M1063 1264h115l-822 -1067h-114zM399 1491q43 0 43 -37v-706q0 -20 -20 -21h-82q-20 0 -21 21v544q0 82 -10 94t-51 13l-84 -2q-24 0 -24 28t18 29q14 2 75.5 8t103.5 18t52 11zM940 0q-63 0 -63 63q0 139 114 232q35 29 104.5 68.5t98.5 64.5q70 59 70 145q0 55 -34 91 t-94 36t-104 -53q-18 -23 -35.5 -53.5t-29 -43.5t-31.5 -13q-37 0 -37 68t27 95q60 62 192 62t207.5 -57.5t75.5 -149.5q1 -91 -55 -145t-190 -105t-177 -115q-18 -27 -18 -47t16 -20h205q80 0 112 6q32 7 52 29t34 22q31 0 31 -28l-10 -80q-2 -29 -4 -41.5t-16.5 -24.5 t-43.5 -12l-141 6h-256z" glyph-name="onehalf" horiz-adv-x="1503" unicode="½"/><glyph d="M1395 258h78q18 0 18 -18v-62q0 -18 -18 -18h-80q-14 0 -15 -17v-120q0 -23 -20 -23h-82q-20 0 -21 23v120q0 16 -16 17h-328q-18 0 -18 20v58q0 27 16 41q207 195 219 466q0 18 17 19h82q14 0 14 -19q-8 -233 -256 -477q-4 -4 -4 -7t6 -3h254q14 0 14 14v367q0 16 17 16 h88q18 0 18 -16v-367q1 -14 17 -14zM1210 1264h115l-821 -1067h-115zM516 1286q0 61 -33 99t-87 38q-54 1 -89 -29t-61 -84t-51 -55q-45 0 -45 77t45 106q71 47 197 47q126 -1 194 -57t67 -124q0 -68 -46 -116.5t-136 -67.5q-4 0 -4 -4t4 -4q80 -8 143.5 -54t63.5 -130 t-55 -144q-80 -84 -256 -84t-222 76q-23 38 -23 102t42 64q18 0 29.5 -14.5t25.5 -45t29 -48.5q59 -72 134 -72t118 42t43 124q0 154 -160 153l-84 -8q-31 0 -31 41t33 41l84 -8q131 0 131 139z" glyph-name="threequarters" horiz-adv-x="1572" unicode="¾"/><glyph d="M513 -307q116 0 172 63.5t56 131.5t-57 96q-53 22 -53 54t30.5 54.5t83.5 22.5t96.5 -51.5t43.5 -129.5q0 -127 -104.5 -228t-283.5 -101t-289 109.5t-110 267.5q0 195 158 327q41 33 135 88.5t143.5 102.5t49.5 99q0 53 -36 65t-36 34q0 41 74 41q121 0 121 -114 q0 -80 -86 -164q-14 -14 -127 -103.5t-156 -144.5q-78 -96 -78 -226t68.5 -212t184.5 -82zM453 972q0 34 54 87t87 53t87 -53t54 -87t-54 -88.5t-88 -54.5t-87 54.5t-53 88.5z" glyph-name="questiondown" horiz-adv-x="1003" unicode="¿"/><glyph d="M696 1870q47 0 78 -27l252 -196q12 -9 12 -17t-14 -8h-88q-39 0 -66 18l-327 201q-13 8 -13 18t21 11h145zM473 586h500q16 0 16 12q0 4 -4 14l-240 621q-4 12 -9 12t-9 -12l-266 -623q-4 -8 -4 -12q0 -12 16 -12zM1409 0h-291q-45 0 -45 31q0 18 31 35q53 27 53 67.5 t-49 163.5l-74 186q-6 18 -33 19h-569q-18 0 -24 -17q-106 -249 -106 -319t65 -100q27 -12 26 -33q0 -33 -51 -33h-264q-55 0 -55 29q0 18 11 26t13 10.5t49.5 26t124.5 201.5q494 1106 518 1169q6 16 23 17h43q18 -1 24 -19t219.5 -575t251.5 -649t76 -134q17 -16 52 -33 t34 -38q0 -31 -53 -31z" glyph-name="Agrave" unicode="À"/><glyph d="M639 1622h-92q-12 0 -12 8t12 17l241 196q31 27 76 27h148q20 0 20 -10t-8 -17l-322 -203q-25 -18 -63 -18zM473 586h500q16 0 16 12q0 4 -4 14l-240 621q-4 12 -9 12t-9 -12l-266 -623q-4 -8 -4 -12q0 -12 16 -12zM1409 0h-291q-45 0 -45 31q0 18 31 35q53 27 53 67.5 t-49 163.5l-74 186q-6 18 -33 19h-569q-18 0 -24 -17q-106 -249 -106 -319t65 -100q27 -12 26 -33q0 -33 -51 -33h-264q-55 0 -55 29q0 18 11 26t13 10.5t49.5 26t124.5 201.5q494 1106 518 1169q6 16 23 17h43q18 -1 24 -19t219.5 -575t251.5 -649t76 -134q17 -16 52 -33 t34 -38q0 -31 -53 -31z" glyph-name="Aacute" unicode="Á"/><glyph d="M592 1612h-74q-10 0 -10 5t6 13l182 225q12 14 33 15h100q23 0 35 -15l183 -225q6 -6 6 -12t-11 -6h-77q-12 0 -27 14l-152 160q-4 4 -8 4t-10 -6l-150 -160q-12 -12 -26 -12zM473 586h500q16 0 16 12q0 4 -4 14l-240 621q-4 12 -9 12t-9 -12l-266 -623q-4 -8 -4 -12 q0 -12 16 -12zM1409 0h-291q-45 0 -45 31q0 18 31 35q53 27 53 67.5t-49 163.5l-74 186q-6 18 -33 19h-569q-18 0 -24 -17q-106 -249 -106 -319t65 -100q27 -12 26 -33q0 -33 -51 -33h-264q-55 0 -55 29q0 18 11 26t13 10.5t49.5 26t124.5 201.5q494 1106 518 1169 q6 16 23 17h43q18 -1 24 -19t219.5 -575t251.5 -649t76 -134q17 -16 52 -33t34 -38q0 -31 -53 -31z" glyph-name="Acircumflex" unicode="Â"/><glyph d="M434 1641q0 7 6 22q59 162 187 162q57 0 174 -45t171 -45t95 75q9 17 31 9l22 -9q10 -4 10 -9t-4 -15q-33 -86 -75.5 -125t-109.5 -39t-183.5 45t-157.5 45q-63 0 -102 -80q-6 -14 -12 -14t-17 4l-23 8q-12 4 -12 11zM473 586h500q16 0 16 12q0 4 -4 14l-240 621 q-4 12 -9 12t-9 -12l-266 -623q-4 -8 -4 -12q0 -12 16 -12zM1409 0h-291q-45 0 -45 31q0 18 31 35q53 27 53 67.5t-49 163.5l-74 186q-6 18 -33 19h-569q-18 0 -24 -17q-106 -249 -106 -319t65 -100q27 -12 26 -33q0 -33 -51 -33h-264q-55 0 -55 29q0 18 11 26t13 10.5 t49.5 26t124.5 201.5q494 1106 518 1169q6 16 23 17h43q18 -1 24 -19t219.5 -575t251.5 -649t76 -134q17 -16 52 -33t34 -38q0 -31 -53 -31z" glyph-name="Atilde" unicode="Ã"/><glyph d="M473 586h500q16 0 16 12q0 4 -4 14l-240 621q-4 12 -9 12t-9 -12l-266 -623q-4 -8 -4 -12q0 -12 16 -12zM1409 0h-291q-45 0 -45 31q0 18 31 35q53 27 53 67.5t-49 163.5l-74 186q-6 18 -33 19h-569q-18 0 -24 -17q-106 -249 -106 -319t65 -100q27 -12 26 -33 q0 -33 -51 -33h-264q-55 0 -55 29q0 18 11 26t13 10.5t49.5 26t124.5 201.5q494 1106 518 1169q6 16 23 17h43q18 -1 24 -19t219.5 -575t251.5 -649t76 -134q17 -16 52 -33t34 -38q0 -31 -53 -31zM956 1788q51 0 72 -16q14 -16 14 -70t-14 -70q-20 -16 -71.5 -16t-67.5 15 q-17 15 -17 69t16.5 71t67.5 17zM610 1788q51 0 72 -16q16 -20 16 -71.5t-16 -68.5q-20 -16 -71.5 -16t-67.5 15q-17 15 -17 69t16.5 71t67.5 17z" glyph-name="Adieresis" unicode="Ä"/><glyph d="M473 586h500q16 0 16 12q0 4 -4 14l-240 621q-4 12 -9 12t-9 -12l-266 -623q-4 -8 -4 -12q0 -12 16 -12zM1409 0h-291q-45 0 -45 31q0 18 31 35q53 27 53 67.5t-49 163.5l-74 186q-6 18 -33 19h-569q-18 0 -24 -17q-106 -249 -106 -319t65 -100q27 -12 26 -33 q0 -33 -51 -33h-264q-55 0 -55 29q0 18 11 26t13 10.5t49.5 26t124.5 201.5q494 1106 518 1169q6 16 23 17h43q18 -1 24 -19t219.5 -575t251.5 -649t76 -134q17 -16 52 -33t34 -38q0 -31 -53 -31zM670 1685.5q0 -47.5 32.5 -81t79.5 -33.5t80 33.5t33 81t-33 80t-79 32.5 t-79.5 -32.5t-33.5 -80zM596 1685.5q0 75.5 54.5 129t132 53.5t132 -53.5t54.5 -129t-54.5 -130t-132 -54.5t-132 54.5t-54.5 130z" glyph-name="Aring" unicode="Å"/><glyph d="M526 586h498q18 0 18 14v721q0 8 -4 8t-10 -8l-504 -717q-6 -10 -6 -14t8 -4zM1656 707q-40 0 -137 7t-296 7q-25 0 -25 -27v-436q0 -131 32 -154q32 -22 144 -22t190 9t132.5 38t87 69t76.5 112t77 71q45 0 45 -47q0 -29 -12 -71t-29.5 -121t-36 -118.5t-83.5 -39.5 q-12 0 -117 8t-217 8h-510q-57 0 -57 33q0 20 36 39q39 18 63 59t23 199v155q0 14 -20 15h-555q-16 0 -34 -24t-111 -165t-93 -181t29 -54q4 -2 9 -5t9.5 -5.5t15.5 -8t11 -22.5q0 -35 -51 -35h-264q-51 0 -51 33q0 14 10 21t15 11.5t46 24t144 154.5q195 258 772 1079 q16 23 16 33t-4 16t-12.5 9t-15.5 5.5t-40 8t-32 35.5q0 33 49 32h620q117 0 224.5 8.5t115.5 8.5q70 0 72 -56q0 -124 8 -256q0 -63 -43 -63q-33 0 -55 49q-8 16 -19.5 48t-27 66.5t-58.5 61.5q-72 49 -362 49h-123q-39 0 -39 -37v-485q0 -25 9 -33t95 -8t228 8t158 8 q59 0 59 -32l-8 -37q-6 -35 -24.5 -45t-58.5 -10z" glyph-name="AE" horiz-adv-x="2078" unicode="Æ"/><glyph d="M979 -248q0 -66 -66.5 -106.5t-130.5 -40.5t-110.5 17.5t-46.5 43.5q0 33 37 33q14 0 48.5 -10.5t60.5 -10.5t46.5 18.5t20.5 44.5t-22.5 41t-50.5 20t-50.5 22.5t-22.5 53.5t49 106q-309 33 -476 243.5t-167 499.5q0 184 76 341t215 263q201 156 453 156q195 0 329 -64 q66 -31 84.5 -73.5t18.5 -126.5t-10 -103.5t-34 -19.5t-41.5 27.5t-42 76.5t-56.5 82q-115 117 -285 117q-223 0 -378 -186.5t-155 -479.5t160 -484.5t388 -191.5t360 220q8 12 17.5 32.5t22 38t36.5 17.5t33 -20.5t9 -74.5q0 -176 -126 -236t-326 -61l-19 3 q-37 -52 -37 -74t30 -34.5t65 -19t64.5 -32t29.5 -68.5z" glyph-name="Ccedilla" horiz-adv-x="1406" unicode="Ç"/><glyph d="M344 1855q0 14 21 15h145q47 0 78 -27l252 -196q12 -9 12 -17t-14 -8h-88q-37 0 -66 18l-328 201q-12 8 -12 14zM478 813l388 16q74 0 74 -30q0 -17 -4 -25t-8 -28t-20.5 -29.5t-57.5 -9.5l-225 10q-156 4 -209 4q-25 0 -25 -27v-436q0 -131 32 -154q33 -22 143 -22 t210 12t155.5 57.5t133.5 174.5q30 53 63 53q47 0 48 -47q0 -20 -12 -66t-24 -108t-35.5 -118t-88.5 -56q-12 0 -118.5 8t-219.5 8h-508q-57 0 -57 33q0 14 34 37q37 23 60 53q27 47 26 207v841q0 117 -8 152t-47 55q-22 14 -38.5 21t-16.5 28q0 35 49 35h526 q117 0 224.5 8.5t115.5 8.5q70 0 72 -56q8 -64 8 -258q0 -61 -39 -61t-57 47q-4 10 -18.5 47t-26.5 66.5t-64 62.5q-72 51 -346 51h-137q-39 0 -39 -37v-487q0 -23 9.5 -32t77.5 -9z" glyph-name="Egrave" horiz-adv-x="1271" unicode="È"/><glyph d="M535 1622h-93q-12 0 -12 8t12 17l242 196q31 27 76 27h147q20 0 21 -12q0 -9 -8 -15l-322 -203q-25 -18 -63 -18zM478 813l388 16q74 0 74 -30q0 -17 -4 -25t-8 -28t-20.5 -29.5t-57.5 -9.5l-225 10q-156 4 -209 4q-25 0 -25 -27v-436q0 -131 32 -154q33 -22 143 -22 t210 12t155.5 57.5t133.5 174.5q30 53 63 53q47 0 48 -47q0 -20 -12 -66t-24 -108t-35.5 -118t-88.5 -56q-12 0 -118.5 8t-219.5 8h-508q-57 0 -57 33q0 14 34 37q37 23 60 53q27 47 26 207v841q0 117 -8 152t-47 55q-22 14 -38.5 21t-16.5 28q0 35 49 35h526 q117 0 224.5 8.5t115.5 8.5q70 0 72 -56q8 -64 8 -258q0 -61 -39 -61t-57 47q-4 10 -18.5 47t-26.5 66.5t-64 62.5q-72 51 -346 51h-137q-39 0 -39 -37v-487q0 -23 9.5 -32t77.5 -9z" glyph-name="Eacute" horiz-adv-x="1271" unicode="É"/><glyph d="M432 1612h-74q-10 0 -10 5t6 13l183 225q12 14 32 15h101q23 0 35 -15l182 -225q6 -6 6 -12t-10 -6h-78q-12 0 -27 14l-151 160q-4 4 -8.5 4t-10.5 -6l-149 -160q-13 -12 -27 -12zM478 813l388 16q74 0 74 -30q0 -17 -4 -25t-8 -28t-20.5 -29.5t-57.5 -9.5l-225 10 q-156 4 -209 4q-25 0 -25 -27v-436q0 -131 32 -154q33 -22 143 -22t210 12t155.5 57.5t133.5 174.5q30 53 63 53q47 0 48 -47q0 -20 -12 -66t-24 -108t-35.5 -118t-88.5 -56q-12 0 -118.5 8t-219.5 8h-508q-57 0 -57 33q0 14 34 37q37 23 60 53q27 47 26 207v841 q0 117 -8 152t-47 55q-22 14 -38.5 21t-16.5 28q0 35 49 35h526q117 0 224.5 8.5t115.5 8.5q70 0 72 -56q8 -64 8 -258q0 -61 -39 -61t-57 47q-4 10 -18.5 47t-26.5 66.5t-64 62.5q-72 51 -346 51h-137q-39 0 -39 -37v-487q0 -23 9.5 -32t77.5 -9z" glyph-name="Ecircumflex" horiz-adv-x="1271" unicode="Ê"/><glyph d="M478 813l388 16q74 0 74 -30q0 -17 -4 -25t-8 -28t-20.5 -29.5t-57.5 -9.5l-225 10q-156 4 -209 4q-25 0 -25 -27v-436q0 -131 32 -154q33 -22 143 -22t210 12t155.5 57.5t133.5 174.5q30 53 63 53q47 0 48 -47q0 -20 -12 -66t-24 -108t-35.5 -118t-88.5 -56 q-12 0 -118.5 8t-219.5 8h-508q-57 0 -57 33q0 14 34 37q37 23 60 53q27 47 26 207v841q0 117 -8 152t-47 55q-22 14 -38.5 21t-16.5 28q0 35 49 35h526q117 0 224.5 8.5t115.5 8.5q70 0 72 -56q8 -64 8 -258q0 -61 -39 -61t-57 47q-4 10 -18.5 47t-26.5 66.5t-64 62.5 q-72 51 -346 51h-137q-39 0 -39 -37v-487q0 -23 9.5 -32t77.5 -9zM790.5 1616q-51.5 0 -67.5 15t-16 69t15.5 71t67.5 17t72 -16q14 -16 14 -70t-16 -70q-18 -16 -69.5 -16zM444 1788q51 0 72 -16q16 -20 16 -71.5t-16 -68.5q-20 -16 -71.5 -16t-67.5 15q-17 15 -17 69 t16.5 71t67.5 17z" glyph-name="Edieresis" horiz-adv-x="1271" unicode="Ë"/><glyph d="M225 1870q47 0 78 -27l252 -196q12 -9 12 -17t-14 -8h-88q-39 0 -66 18l-327 201q-12 8 -12 18t20 11h145zM510 33q0 -33 -57 -33h-285q-57 0 -57 33q0 20 34 39q37 18 62 55t24 203v823q0 123 -9 164t-40 61q-8 6 -28.5 15.5t-26.5 16.5t-6 20q0 33 51 32h277 q53 0 53 -32q0 -20 -26.5 -33t-35.5 -19q-33 -20 -42 -61t-9 -164v-823q0 -160 27 -207q20 -28 61 -51q33 -16 33 -39z" glyph-name="Igrave" horiz-adv-x="620" unicode="Ì"/><glyph d="M172 1622h-92q-12 0 -12 8t12 17l242 196q31 27 75 27h148q20 0 20 -10t-8 -17l-321 -203q-25 -18 -64 -18zM510 33q0 -33 -57 -33h-285q-57 0 -57 33q0 20 34 39q37 18 62 55t24 203v823q0 123 -9 164t-40 61q-8 6 -28.5 15.5t-26.5 16.5t-6 20q0 33 51 32h277 q53 0 53 -32q0 -20 -26.5 -33t-35.5 -19q-33 -20 -42 -61t-9 -164v-823q0 -160 27 -207q20 -28 61 -51q33 -16 33 -39z" glyph-name="Iacute" horiz-adv-x="620" unicode="Í"/><glyph d="M121 1612h-74q-10 0 -10 5t6 13l182 225q12 14 33 15h100q23 0 35 -15l182 -225q6 -6 7 -10q0 -8 -11 -8h-77q-12 0 -27 14l-152 160q-4 4 -8 4t-10 -6l-150 -160q-12 -12 -26 -12zM510 33q0 -33 -57 -33h-285q-57 0 -57 33q0 20 34 39q37 18 62 55t24 203v823 q0 123 -9 164t-40 61q-8 6 -28.5 15.5t-26.5 16.5t-6 20q0 33 51 32h277q53 0 53 -32q0 -20 -26.5 -33t-35.5 -19q-33 -20 -42 -61t-9 -164v-823q0 -160 27 -207q20 -28 61 -51q33 -16 33 -39z" glyph-name="Icircumflex" horiz-adv-x="620" unicode="Î"/><glyph d="M510 33q0 -33 -57 -33h-285q-57 0 -57 33q0 20 34 39q37 18 62 55t24 203v823q0 123 -9 164t-40 61q-8 6 -28.5 15.5t-26.5 16.5t-6 20q0 33 51 32h277q53 0 53 -32q0 -20 -26.5 -33t-35.5 -19q-33 -20 -42 -61t-9 -164v-823q0 -160 27 -207q20 -28 61 -51q33 -16 33 -39 zM483 1788q51 0 72 -16q14 -16 14 -70t-14 -70q-20 -16 -71.5 -16t-67.5 15t-16 69t16 71t67 17zM137 1788q51 0 72 -16q16 -20 16 -71.5t-16 -68.5q-20 -16 -71.5 -16t-67.5 15t-16 69t16 71t67 17z" glyph-name="Idieresis" horiz-adv-x="620" unicode="Ï"/><glyph d="M354 799q16 0 17 16v340q0 127 -8.5 165t-47.5 60q-30 15 -42.5 21t-12.5 26q0 35 49 35h371q279 0 428.5 -52t253.5 -144q215 -186 215 -499t-152.5 -476.5t-321.5 -227t-384 -63.5h-412q-57 0 -57 33q0 20 35 39q39 18 57 51q29 45 29 207v354q0 14 -17 14 q-70 0 -108 -2l-123 -8q-55 0 -55 29q0 10 8 38.5t23.5 41t50.5 12.5l110 -8q43 -2 94 -2zM545 698q-18 0 -19 -14v-444q0 -68 6 -93.5t28 -45.5t132 -19h25q338 0 514 170t176 481q0 160 -48 282t-116.5 193.5t-164.5 111.5t-204 51t-309 11q-39 0 -39 -39v-528 q0 -16 21 -16q88 0 131 2l158 10q59 0 59 -33q0 -8 -7 -37t-23.5 -41t-53.5 -12l-145 8q-51 2 -121 2z" glyph-name="Eth" horiz-adv-x="1677" unicode="Ð"/><glyph d="M631 1825q57 0 174 -45t171 -45t95 75q9 17 31 9l22 -9q10 -4 11 -10q0 -4 -5 -14q-33 -86 -75.5 -125t-109.5 -39t-183.5 45t-157.5 45q-63 0 -102 -80q-6 -14 -12 -14t-17 4l-22 8q-12 4 -13 12q0 6 6 21q59 162 187 162zM1434 1462q57 0 57 -32q0 -25 -17.5 -31 t-25.5 -10.5t-10 -4.5q-45 -18 -71 -67t-33 -161t-7 -855v-293q0 -25 -27 -24h-40q-12 0 -29 20l-862 1194q-5 6 -11 6t-6 -10q0 -754 7 -868t41 -171t104 -81q37 -14 37 -39q0 -35 -52 -35h-342q-55 0 -55 35q0 22 23.5 31.5t25.5 11.5q103 42 113 244t10 987q0 15 -20 35 t-44 29t-60 17.5t-36 34.5q0 37 58 37h170q41 0 57 -24l830 -1151q6 -10 12 -11q8 0 8 9q0 725 -6 850t-31.5 178t-77.5 71t-53 41q0 37 62 37h301z" glyph-name="Ntilde" horiz-adv-x="1576" unicode="Ñ"/><glyph d="M561 1855q0 14 21 15h145q47 0 78 -27l252 -196q12 -9 12 -17t-14 -8h-88q-37 0 -66 18l-328 201q-12 8 -12 14zM817 1407q-231 0 -387 -175t-156 -466t155 -498t403 -207t397 183.5t149 455.5q0 186 -66.5 345t-196.5 260.5t-298 101.5zM1550 746q0 -322 -206.5 -545.5 t-516.5 -223.5q-367 0 -567 240q-160 195 -160 503t208 537.5t536 229.5t524 -219q182 -200 182 -522z" glyph-name="Ograve" horiz-adv-x="1650" unicode="Ò"/><glyph d="M698 1622h-92q-12 0 -12 8t12 17l242 196q31 27 76 27h147q20 0 21 -12q-1 -9 -9 -15l-321 -203q-25 -18 -64 -18zM817 1407q-231 0 -387 -175t-156 -466t155 -498t403 -207t397 183.5t149 455.5q0 186 -66.5 345t-196.5 260.5t-298 101.5zM1550 746 q0 -322 -206.5 -545.5t-516.5 -223.5q-367 0 -567 240q-160 195 -160 503t208 537.5t536 229.5t524 -219q182 -200 182 -522z" glyph-name="Oacute" horiz-adv-x="1650" unicode="Ó"/><glyph d="M645 1612h-74q-10 0 -10 5t6 13l183 225q12 14 32 15h101q23 0 35 -15l182 -225q6 -6 6 -12t-10 -6h-78q-12 0 -27 14l-151 160q-4 4 -8.5 4t-10.5 -6l-149 -160q-13 -12 -27 -12zM817 1407q-231 0 -387 -175t-156 -466t155 -498t403 -207t397 183.5t149 455.5 q0 186 -66.5 345t-196.5 260.5t-298 101.5zM1550 746q0 -322 -206.5 -545.5t-516.5 -223.5q-367 0 -567 240q-160 195 -160 503t208 537.5t536 229.5t524 -219q182 -200 182 -522z" glyph-name="Ocircumflex" horiz-adv-x="1650" unicode="Ô"/><glyph d="M674 1825q59 0 176 -45t170 -45t94 75q9 17 31 9l22 -9q10 -4 11 -10q0 -4 -4 -14q-33 -86 -76 -125t-110 -39t-183.5 45t-157.5 45q-61 0 -102 -80q-9 -14 -13 -14t-16 4l-22 8q-12 4 -13 12q0 6 6 21q59 162 187 162zM817 1407q-231 0 -387 -175t-156 -466t155 -498 t403 -207t397 183.5t149 455.5q0 186 -66.5 345t-196.5 260.5t-298 101.5zM1550 746q0 -322 -206.5 -545.5t-516.5 -223.5q-367 0 -567 240q-160 195 -160 503t208 537.5t536 229.5t524 -219q182 -200 182 -522z" glyph-name="Otilde" horiz-adv-x="1650" unicode="Õ"/><glyph d="M817 1407q-231 0 -387 -175t-156 -466t155 -498t403 -207t397 183.5t149 455.5q0 186 -66.5 345t-196.5 260.5t-298 101.5zM1550 746q0 -322 -206.5 -545.5t-516.5 -223.5q-367 0 -567 240q-160 195 -160 503t208 537.5t536 229.5t524 -219q182 -200 182 -522zM999 1788 q51 0 72 -16q14 -16 14 -70t-14 -70q-20 -16 -71.5 -16t-67.5 15t-16 69t16 71t67 17zM653 1788q51 0 72 -16q16 -20 16 -71.5t-16 -68.5q-20 -16 -71.5 -16t-67.5 15t-16 69t16 71t67 17z" glyph-name="Odieresis" horiz-adv-x="1650" unicode="Ö"/><glyph d="M272 1147l340 -340l340 340l76 -74l-342 -342l342 -340l-76 -76l-340 342l-340 -342l-75 76l340 340l-340 342z" glyph-name="multiply" horiz-adv-x="1224" unicode="×"/><glyph d="M854 61q240 0 386 185.5t146 440.5t-108 443q-7 14 -16 5l-807 -871q-4 -4 -4 -9t4 -9q159 -185 399 -185zM401.5 328q4.5 0 10.5 6l800 866q11 11 -2 23q-154 182 -392 182t-387 -183.5t-149 -438.5t109 -445q6 -10 10.5 -10zM1559 739q0 -315 -207 -538.5t-505 -223.5 t-493 156q-6 6 -10 6t-10 -6l-111 -119q-12 -14 -33 -14h-65q-12 0 -12 6t8 14l153 166q13 13 2 21q-166 187 -166 501t202 546.5t522 232.5q270 0 475 -158q6 -6 12 -6t12 6l115 125q8 8 25 8h71q12 0 12 -5t-8 -13l-157 -170q-6 -6 -6 -12t6 -11q168 -197 168 -512z" glyph-name="Oslash" horiz-adv-x="1669" unicode="Ø"/><glyph d="M508 1855q0 14 20 15h146q47 0 78 -27l252 -196q12 -9 12 -17t-15 -8h-88q-36 0 -65 18l-328 201q-12 8 -12 14zM1395 1462q57 0 57 -28t-48 -46t-72 -68t-32 -145t-8 -376v-267q0 -152 -39 -260q-115 -295 -507 -295t-494 250q-49 115 -49 320v608q0 129 -8.5 166 t-47.5 59q-41 20 -48 28.5t-7 18.5q0 35 49 35h281q51 0 51 -35q0 -17 -10 -22.5t-16.5 -8.5t-16.5 -8.5t-14 -7.5q-39 -20 -47.5 -55t-8.5 -154v-596q0 -170 37 -272q82 -219 381 -219q207 0 313.5 108.5t106.5 348.5q0 503 -5 611t-29.5 160t-78.5 72q-5 0 -23 9.5 t-22 15.5t-4 18q0 35 58 35h301z" glyph-name="Ugrave" horiz-adv-x="1505" unicode="Ù"/><glyph d="M651 1622h-92q-12 0 -12 8t12 17l242 196q31 27 76 27h147q20 0 20 -10t-8 -17l-321 -203q-25 -18 -64 -18zM1395 1462q57 0 57 -28t-48 -46t-72 -68t-32 -145t-8 -376v-267q0 -152 -39 -260q-115 -295 -507 -295t-494 250q-49 115 -49 320v608q0 129 -8.5 166t-47.5 59 q-41 20 -48 28.5t-7 18.5q0 35 49 35h281q51 0 51 -35q0 -17 -10 -22.5t-16.5 -8.5t-16.5 -8.5t-14 -7.5q-39 -20 -47.5 -55t-8.5 -154v-596q0 -170 37 -272q82 -219 381 -219q207 0 313.5 108.5t106.5 348.5q0 503 -5 611t-29.5 160t-78.5 72q-5 0 -23 9.5t-22 15.5t-4 18 q0 35 58 35h301z" glyph-name="Uacute" horiz-adv-x="1505" unicode="Ú"/><glyph d="M580 1612h-74q-10 0 -10 5t6 13l182 225q12 14 33 15h100q23 0 35 -15l182 -225q6 -6 6 -12t-10 -6h-78q-12 0 -26 14l-152 160q-4 4 -8 4t-10 -6l-150 -160q-12 -12 -26 -12zM1395 1462q57 0 57 -28t-48 -46t-72 -68t-32 -145t-8 -376v-267q0 -152 -39 -260 q-115 -295 -507 -295t-494 250q-49 115 -49 320v608q0 129 -8.5 166t-47.5 59q-41 20 -48 28.5t-7 18.5q0 35 49 35h281q51 0 51 -35q0 -17 -10 -22.5t-16.5 -8.5t-16.5 -8.5t-14 -7.5q-39 -20 -47.5 -55t-8.5 -154v-596q0 -170 37 -272q82 -219 381 -219q207 0 313.5 108.5 t106.5 348.5q0 503 -5 611t-29.5 160t-78.5 72q-5 0 -23 9.5t-22 15.5t-4 18q0 35 58 35h301z" glyph-name="Ucircumflex" horiz-adv-x="1505" unicode="Û"/><glyph d="M1395 1462q57 0 57 -28t-48 -46t-72 -68t-32 -145t-8 -376v-267q0 -152 -39 -260q-115 -295 -507 -295t-494 250q-49 115 -49 320v608q0 129 -8.5 166t-47.5 59q-41 20 -48 28.5t-7 18.5q0 35 49 35h281q51 0 51 -35q0 -17 -10 -22.5t-16.5 -8.5t-16.5 -8.5t-14 -7.5 q-39 -20 -47.5 -55t-8.5 -154v-596q0 -170 37 -272q82 -219 381 -219q207 0 313.5 108.5t106.5 348.5q0 503 -5 611t-29.5 160t-78.5 72q-5 0 -23 9.5t-22 15.5t-4 18q0 35 58 35h301zM929 1616q-51 0 -67 15t-16 69t16.5 71t67.5 17t71 -16q15 -16 15 -70t-18 -70t-69 -16z M583.5 1616q-51.5 0 -67.5 15t-16 69t16 71t68 17t71 -16q16 -20 16.5 -71.5t-16.5 -68.5q-20 -16 -71.5 -16z" glyph-name="Udieresis" horiz-adv-x="1505" unicode="Ü"/><glyph d="M594 1622h-92q-12 0 -13 10q0 6 13 15l241 196q31 27 76 27h148q20 0 20 -10t-8 -17l-322 -203q-25 -18 -63 -18zM1350 1432q0 -18 -54 -45t-144 -171q-54 -85 -392 -641q-6 -10 -6 -22v-217q0 -164 30 -217q14 -27 52 -44t38 -40q0 -35 -47 -35h-303q-49 0 -49 33 q0 25 37 40q38 15 62 57t24 206v170q0 14 -18 47t-97.5 180.5t-148 273.5t-121.5 226t-77 127t-56 38t-31 32q0 33 57 32h297q43 0 43 -30q0 -20 -40.5 -41t-40.5 -64t65 -168l270 -497q11 -15 20 -1q9 15 220 371q127 215 127 277t-44 79t-44 46t51 28h260q60 1 60 -30z " glyph-name="Yacute" horiz-adv-x="1378" unicode="Ý"/><glyph d="M414 1167h116q127 0 198 -5t161 -35t149 -91q102 -102 103 -264q0 -121 -60 -215q-145 -229 -555 -229h-112q-25 0 -25 -21q-1 -139 21 -174t61 -57t39 -41q0 -35 -57 -35h-285q-57 0 -57 35q0 18 34 37q37 18 63 58t25 202v821q0 121 -10 163t-41 62q-8 6 -27.5 15.5 t-26.5 16.5t-7 20q2 33 51 32h277q51 0 51 -32q0 -20 -27 -34t-33 -18q-29 -18 -39 -54t-12 -134q0 -23 25 -23zM967 758q0 112 -53 192t-143.5 107.5t-235.5 27.5h-121q-25 0 -25 -20v-633q0 -20 25 -20h102q158 0 257.5 31.5t146.5 116.5t47 198z" glyph-name="Thorn" horiz-adv-x="1239" unicode="Þ"/><glyph d="M1219 344q18 0 33.5 -18.5t92.5 -138.5t287 -119q106 0 183 54t77 127t-49 116t-123.5 62t-160.5 45t-161 52.5t-124 86t-49 139.5q0 166 157 260q98 57 249 57t255 -47q55 -27 73.5 -62.5t18.5 -118.5t-47 -87q-33 0 -71 63q-100 162 -279 162q-84 0 -143.5 -47 t-59.5 -120t69 -114t166 -64.5t194.5 -52t166 -95t68.5 -156.5q0 -185 -174 -283q-118 -68 -258 -68t-242 31t-153 76t-52 166q1 94 56 94zM150 344q18 0 33.5 -18.5t92.5 -138.5t287 -119q106 0 183 54t77 127t-49 116t-124 62t-161 45t-160.5 52.5t-123.5 86t-49 139.5 q0 166 157 260q98 57 249 57t255 -47q55 -27 73.5 -62.5t18.5 -118.5t-47 -87q-33 0 -71 63q-100 162 -279 162q-84 0 -143.5 -47t-59.5 -120t68.5 -114t166 -64.5t195 -52t166 -95t68.5 -156.5q0 -185 -174 -283q-119 -68 -259 -68t-241.5 31t-152.5 75t-52 167q1 94 56 94 z" glyph-name="germandbls" horiz-adv-x="2138" unicode="ß"/><glyph d="M424 1487h145q47 0 78 -27l252 -196q12 -8 12 -16t-14 -9h-88q-39 0 -66 18l-327 201q-12 8 -12 18t20 11zM1159 0h-268q-39 0 -39 27q0 14 37 33.5t37 51.5t-52 150l-24 53q-6 10 -19 11h-469q-10 0 -16 -11q-63 -133 -63 -178t18 -59.5t36.5 -23.5t18.5 -25 q0 -29 -45 -29h-231q-49 0 -49 25q0 6 2 10t3.5 9t15.5 11.5t16 10.5q41 24 68 62q77 106 482 921q8 14 19 14h39q14 0 20 -14l351 -793q59 -131 81 -157t53 -39q30 -13 29 -31q0 -29 -51 -29zM403 406h390q12 0 12 6t-2 10l-187 422q-4 8 -7 8t-7 -8l-205 -418 q-4 -8 -4 -14t10 -6z" glyph-name="agrave" horiz-adv-x="1241" unicode="à"/><glyph d="M512 1239h-92q-12 0 -12 7t12 18l242 196q31 27 75 27h148q20 -1 20 -11t-8 -16l-322 -203q-25 -18 -63 -18zM1159 0h-268q-39 0 -39 27q0 14 37 33.5t37 51.5t-52 150l-24 53q-6 10 -19 11h-469q-10 0 -16 -11q-63 -133 -63 -178t18 -59.5t36.5 -23.5t18.5 -25 q0 -29 -45 -29h-231q-49 0 -49 25q0 6 2 10t3.5 9t15.5 11.5t16 10.5q41 24 68 62q77 106 482 921q8 14 19 14h39q14 0 20 -14l351 -793q59 -131 81 -157t53 -39q30 -13 29 -31q0 -29 -51 -29zM403 406h390q12 0 12 6t-2 10l-187 422q-4 8 -7 8t-7 -8l-205 -418 q-4 -8 -4 -14t10 -6z" glyph-name="aacute" horiz-adv-x="1241" unicode="á"/><glyph d="M469 1229h-74q-10 0 -10 5t6 13l182 226q12 14 33 14h101q23 0 34 -14l183 -226q6 -6 6 -12t-10 -6h-78q-12 0 -27 14l-151 160q-4 4 -8.5 4t-10.5 -6l-149 -160q-13 -12 -27 -12zM1159 0h-268q-39 0 -39 27q0 14 37 33.5t37 51.5t-52 150l-24 53q-6 10 -19 11h-469 q-10 0 -16 -11q-63 -133 -63 -178t18 -59.5t36.5 -23.5t18.5 -25q0 -29 -45 -29h-231q-49 0 -49 25q0 6 2 10t3.5 9t15.5 11.5t16 10.5q41 24 68 62q77 106 482 921q8 14 19 14h39q14 0 20 -14l351 -793q59 -131 81 -157t53 -39q30 -13 29 -31q0 -29 -51 -29zM403 406h390 q12 0 12 6t-2 10l-187 422q-4 8 -7 8t-7 -8l-205 -418q-4 -8 -4 -14t10 -6z" glyph-name="acircumflex" horiz-adv-x="1241" unicode="â"/><glyph d="M305 1304q0 8 6 21q59 162 187 162q59 0 174.5 -45t169.5 -45t96 76q6 12 13 12t18 -4l22 -8q10 -3 10 -9t-4 -16q-33 -86 -75.5 -125t-109.5 -39t-183.5 45t-157.5 45q-61 0 -102 -80q-9 -14 -13 -14t-16 4l-23 8q-12 4 -12 12zM1159 0h-268q-39 0 -39 27q0 14 37 33.5 t37 51.5t-52 150l-24 53q-6 10 -19 11h-469q-10 0 -16 -11q-63 -133 -63 -178t18 -59.5t36.5 -23.5t18.5 -25q0 -29 -45 -29h-231q-49 0 -49 25q0 6 2 10t3.5 9t15.5 11.5t16 10.5q41 24 68 62q77 106 482 921q8 14 19 14h39q14 0 20 -14l351 -793q59 -131 81 -157t53 -39 q30 -13 29 -31q0 -29 -51 -29zM403 406h390q12 0 12 6t-2 10l-187 422q-4 8 -7 8t-7 -8l-205 -418q-4 -8 -4 -14t10 -6z" glyph-name="atilde" horiz-adv-x="1241" unicode="ã"/><glyph d="M1159 0h-268q-39 0 -39 27q0 14 37 33.5t37 51.5t-52 150l-24 53q-6 10 -19 11h-469q-10 0 -16 -11q-63 -133 -63 -178t18 -59.5t36.5 -23.5t18.5 -25q0 -29 -45 -29h-231q-49 0 -49 25q0 6 2 10t3.5 9t15.5 11.5t16 10.5q41 24 68 62q77 106 482 921q8 14 19 14h39 q14 0 20 -14l351 -793q59 -131 81 -157t53 -39q30 -13 29 -31q0 -29 -51 -29zM403 406h390q12 0 12 6t-2 10l-187 422q-4 8 -7 8t-7 -8l-205 -418q-4 -8 -4 -14t10 -6zM825 1462q51 0 72 -16q14 -16 14 -70t-17 -70q-17 -15 -68.5 -15t-67.5 15t-16 69t16 70.5t67 16.5z M479 1462q51 0 72 -16q16 -20 16 -71.5t-18 -67.5t-69.5 -16t-67.5 15t-16 69t16 70.5t67 16.5z" glyph-name="adieresis" horiz-adv-x="1241" unicode="ä"/><glyph d="M1159 0h-268q-39 0 -39 27q0 14 37 33.5t37 51.5t-52 150l-24 53q-6 10 -19 11h-469q-10 0 -16 -11q-63 -133 -63 -178t18 -59.5t36.5 -23.5t18.5 -25q0 -29 -45 -29h-231q-49 0 -49 25q0 6 2 10t3.5 9t15.5 11.5t16 10.5q41 24 68 62q77 106 482 921q8 14 19 14h39 q14 0 20 -14l351 -793q59 -131 81 -157t53 -39q30 -13 29 -31q0 -29 -51 -29zM403 406h390q12 0 12 6t-2 10l-187 422q-4 8 -7 8t-7 -8l-205 -418q-4 -8 -4 -14t10 -6zM543 1347q0 -46 32.5 -80t79.5 -34t80 33.5t33 81t-33 80t-79 32.5t-79.5 -33.5t-33.5 -79.5z M469 1347.5q0 75.5 54.5 129t132 53.5t132 -53.5t54.5 -129t-54.5 -130t-132 -54.5t-132 54.5t-54.5 130z" glyph-name="aring" horiz-adv-x="1241" unicode="å"/><glyph d="M930 496q-25 0 -25 -23l-2 -160q0 -113 5 -151.5t32 -59.5q27 -20 162 -20t225 41q63 29 146 143q42 64 79 64q45 0 45 -56q0 -28 -8 -56t-19.5 -86.5t-32.5 -103t-85 -44.5q-6 0 -108.5 8t-217.5 8h-440q-57 0 -57 33q0 23 36.5 39t60.5 57t26 182q0 16 -19 17h-420 q-18 0 -30 -19l-17 -24q-6 -10 -17 -25.5t-17.5 -25t-15.5 -22.5t-14 -21.5t-12.5 -19.5t-10.5 -18.5t-8 -19t-5 -31.5q0 -21 28 -39t27 -34q0 -29 -43 -29h-237q-49 0 -50 27q0 16 17 29t50 31q32 18 81 67q141 152 507 644q111 150 111 154t-9 10t-24.5 11.5t-29.5 11.5 t-14 25q0 35 53 34h504q117 0 223 8.5t115 8.5q70 0 71 -53q8 -102 8 -209q0 -72 -45 -72q-37 0 -61 51q-2 6 -12.5 26.5t-23.5 48t-60 65.5q-68 49 -258 49h-148q-41 0 -41 -39v-305q0 -25 9.5 -34t65.5 -9t110 2t126 8t101 6q57 0 57 -33q0 -7 -7 -33t-25.5 -35.5 t-69.5 -9.5l-182 9q-55 2 -160 2zM752 424v496q0 8 -6 8t-13 -10l-368 -496q-4 -6 -5 -10q0 -6 13 -6h360q19 0 19 18z" glyph-name="ae" horiz-adv-x="1699" unicode="æ"/><glyph d="M1053 332q43 0 43 -86t-22.5 -141.5t-86.5 -81.5q-106 -45 -262 -46h-14q-35 -43 -35 -68t29.5 -37.5t64.5 -19t64.5 -32t29.5 -68.5q0 -66 -67 -106.5t-131 -40.5t-110 17.5t-46 43.5q0 33 37 33q14 0 48.5 -10.5t60.5 -10.5t46.5 18.5t20.5 44.5t-22.5 41t-50 20 t-50 22.5t-22.5 53.5t49 106q-254 27 -392.5 178t-138.5 369t175 377t442 161q162 0 274 -45q55 -25 69.5 -64.5t14.5 -113.5t-10.5 -93.5t-28.5 -19.5t-30 5.5t-35.5 44.5t-30.5 55q-88 150 -261 150t-287 -133t-114 -337t125 -330.5t284 -126.5q198 0 258 117t74.5 135.5 t37.5 18.5z" glyph-name="ccedilla" horiz-adv-x="1204" unicode="ç"/><glyph d="M324 1473q0 14 20 14h145q47 0 78 -27l252 -196q12 -8 12 -16t-14 -9h-88q-36 0 -65 18l-328 201q-12 8 -12 15zM410 498q-27 0 -27 -25v-182q0 -96 5 -133t26 -52q39 -24 134 -24q94 0 168 10t128.5 47t106.5 114t87 77q45 0 45 -54q0 -20 -7 -50t-18.5 -89t-33.5 -106 t-84 -47q-14 0 -113.5 8t-214.5 8h-446q-57 0 -57 33q1 20 39 41q38 22 60 58t21 198v438q0 106 -8.5 143t-55 57t-46.5 42q0 35 49 34h455q117 0 223 8.5t117 8.5q70 0 71 -53q6 -154 6 -218t-47 -63q-31 0 -57 51q-51 102 -106 146t-242 43h-164q-41 0 -41 -39v-305 q0 -25 9.5 -34t65.5 -9t115 2l220 16q61 0 61 -33l-6 -30q-8 -29 -27.5 -39.5t-62.5 -10.5l-193 11q-59 2 -155 2z" glyph-name="egrave" horiz-adv-x="1183" unicode="è"/><glyph d="M449 1239h-93q-12 0 -12 7t12 18l242 196q31 27 76 27h147q20 0 21 -12q0 -9 -8 -15l-322 -203q-25 -18 -63 -18zM410 498q-27 0 -27 -25v-182q0 -96 5 -133t26 -52q39 -24 134 -24q94 0 168 10t128.5 47t106.5 114t87 77q45 0 45 -54q0 -20 -7 -50t-18.5 -89t-33.5 -106 t-84 -47q-14 0 -113.5 8t-214.5 8h-446q-57 0 -57 33q1 20 39 41q38 22 60 58t21 198v438q0 106 -8.5 143t-55 57t-46.5 42q0 35 49 34h455q117 0 223 8.5t117 8.5q70 0 71 -53q6 -154 6 -218t-47 -63q-31 0 -57 51q-51 102 -106 146t-242 43h-164q-41 0 -41 -39v-305 q0 -25 9.5 -34t65.5 -9t115 2l220 16q61 0 61 -33l-6 -30q-8 -29 -27.5 -39.5t-62.5 -10.5l-193 11q-59 2 -155 2z" glyph-name="eacute" horiz-adv-x="1183" unicode="é"/><glyph d="M397 1229h-73q-10 0 -11 6q0 4 6 12l183 226q12 14 33 14h100q23 0 35 -14l182 -226q6 -6 6 -12t-10 -6h-78q-12 0 -27 14l-151 160q-4 4 -8 4t-11 -6l-149 -160q-13 -12 -27 -12zM410 498q-27 0 -27 -25v-182q0 -96 5 -133t26 -52q39 -24 134 -24q94 0 168 10t128.5 47 t106.5 114t87 77q45 0 45 -54q0 -20 -7 -50t-18.5 -89t-33.5 -106t-84 -47q-14 0 -113.5 8t-214.5 8h-446q-57 0 -57 33q1 20 39 41q38 22 60 58t21 198v438q0 106 -8.5 143t-55 57t-46.5 42q0 35 49 34h455q117 0 223 8.5t117 8.5q70 0 71 -53q6 -154 6 -218t-47 -63 q-31 0 -57 51q-51 102 -106 146t-242 43h-164q-41 0 -41 -39v-305q0 -25 9.5 -34t65.5 -9t115 2l220 16q61 0 61 -33l-6 -30q-8 -29 -27.5 -39.5t-62.5 -10.5l-193 11q-59 2 -155 2z" glyph-name="ecircumflex" horiz-adv-x="1183" unicode="ê"/><glyph d="M410 498q-27 0 -27 -25v-182q0 -96 5 -133t26 -52q39 -24 134 -24q94 0 168 10t128.5 47t106.5 114t87 77q45 0 45 -54q0 -20 -7 -50t-18.5 -89t-33.5 -106t-84 -47q-14 0 -113.5 8t-214.5 8h-446q-57 0 -57 33q1 20 39 41q38 22 60 58t21 198v438q0 106 -8.5 143t-55 57 t-46.5 42q0 35 49 34h455q117 0 223 8.5t117 8.5q70 0 71 -53q6 -154 6 -218t-47 -63q-31 0 -57 51q-51 102 -106 146t-242 43h-164q-41 0 -41 -39v-305q0 -25 9.5 -34t65.5 -9t115 2l220 16q61 0 61 -33l-6 -30q-8 -29 -27.5 -39.5t-62.5 -10.5l-193 11q-59 2 -155 2z M757 1291q-51 0 -67 15t-16 69t16.5 70.5t67.5 16.5t71 -16q15 -16 15 -70t-18 -70q-18 -15 -69 -15zM412 1291q-52 0 -68 15t-16 69t16 70.5t68 16.5t71 -16q16 -20 16.5 -71.5t-17.5 -67.5t-70 -16z" glyph-name="edieresis" horiz-adv-x="1183" unicode="ë"/><glyph d="M74 1487h145q47 0 78 -27l252 -196q12 -8 12 -16t-14 -9h-88q-37 0 -66 18l-327 201q-12 8 -12 18t20 11zM504 33q0 -33 -60 -33h-280q-57 0 -58 33q0 20 37 39q37 16 61 55t23 203v409q0 123 -9 167.5t-48 62.5t-46 25t-7 20q0 31 51 30h276q49 0 50 -30q0 -21 -27 -33 t-35 -18q-31 -20 -41 -62.5t-10 -161.5v-409q0 -158 31 -209q16 -31 54 -49t38 -39z" glyph-name="igrave" horiz-adv-x="612" unicode="ì"/><glyph d="M162 1239h-92q-12 0 -12 7t12 18l241 196q31 27 76 27h148q20 -1 20 -11t-8 -16l-322 -203q-25 -18 -63 -18zM504 33q0 -33 -60 -33h-280q-57 0 -58 33q0 20 37 39q37 16 61 55t23 203v409q0 123 -9 167.5t-48 62.5t-46 25t-7 20q0 31 51 30h276q49 0 50 -30 q0 -21 -27 -33t-35 -18q-31 -20 -41 -62.5t-10 -161.5v-409q0 -158 31 -209q16 -31 54 -49t38 -39z" glyph-name="iacute" horiz-adv-x="612" unicode="í"/><glyph d="M121 1229h-74q-10 0 -10 5t6 13l182 226q12 14 33 14h100q23 0 35 -14l182 -226q6 -6 7 -10q0 -8 -11 -8h-77q-12 0 -27 14l-152 160q-4 4 -8 4t-10 -6l-150 -160q-12 -12 -26 -12zM504 33q0 -33 -60 -33h-280q-57 0 -58 33q0 20 37 39q37 16 61 55t23 203v409 q0 123 -9 167.5t-48 62.5t-46 25t-7 20q0 31 51 30h276q49 0 50 -30q0 -21 -27 -33t-35 -18q-31 -20 -41 -62.5t-10 -161.5v-409q0 -158 31 -209q16 -31 54 -49t38 -39z" glyph-name="icircumflex" horiz-adv-x="612" unicode="î"/><glyph d="M504 33q0 -33 -60 -33h-280q-57 0 -58 33q0 20 37 39q37 16 61 55t23 203v409q0 123 -9 167.5t-48 62.5t-46 25t-7 20q0 31 51 30h276q49 0 50 -30q0 -21 -27 -33t-35 -18q-31 -20 -41 -62.5t-10 -161.5v-409q0 -158 31 -209q16 -31 54 -49t38 -39zM477 1462q51 0 72 -16 q14 -16 14 -70t-17 -70q-17 -15 -68.5 -15t-67.5 15t-16 69t16 70.5t67 16.5zM131 1291q-52 0 -68 15t-16 69t16.5 70.5t67.5 16.5t72 -16q16 -20 16 -71.5t-18 -67.5t-70 -16z" glyph-name="idieresis" horiz-adv-x="612" unicode="ï"/><glyph d="M303 590v149q0 119 -10.5 161t-30.5 56t-38.5 21.5t-26 14.5t-7.5 22q0 31 52 30h329q223 0 343 -36.5t204 -102.5q170 -133 170 -356t-120.5 -340t-256 -163t-307.5 -46h-364q-59 0 -60 33q0 6 2 10t3.5 8.5t36 22t58.5 59.5q23 43 23 197v147q0 14 -16 15 q-45 0 -103.5 -6.5t-70.5 -6.5q-45 0 -45 27q0 2 7 30t19 39t43 11l150 -8q16 0 16 12zM455 477v-258q0 -68 3 -88.5t20 -34.5t93 -14h29q250 0 383 116t133 332q0 125 -58.5 233.5t-180.5 154.5t-402 47q-20 0 -20 -19v-354q0 -14 16 -14q66 0 141.5 6t87.5 6q47 0 48 -31 l-7 -27q-8 -29 -22 -40t-45 -11l-203 11q-16 0 -16 -15z" glyph-name="eth" horiz-adv-x="1384" unicode="ð"/><glyph d="M342 1304q0 8 6 21q59 162 187 162q57 0 174.5 -45t170.5 -45t95 76q6 12 13 12t18 -4l22 -8q10 -3 10 -9t-4 -16q-33 -86 -76.5 -125t-109.5 -39t-182.5 45t-157.5 45q-61 0 -102 -80q-8 -14 -12 -14t-17 4l-23 8q-12 4 -12 12zM1231 1044q57 0 59 -32q0 -19 -12 -26 t-15 -9t-35 -12t-58.5 -61.5t-35.5 -167.5t-10 -580v-150q0 -23 -24 -22h-39q-12 0 -31 18l-668 782q-6 6 -8 7q-6 0 -6 -9q0 -342 7 -456t41 -171t102 -81q37 -14 37 -39q0 -35 -50 -35h-335q-57 0 -58 35q0 22 48.5 41.5t79 78.5t37.5 195t7 535q0 54 -67.5 73t-80 26 t-12.5 24q0 37 60 36h143q37 0 60 -26l657 -764q8 -8 13 -8t5 12q0 334 -5 458t-34 181t-65.5 67.5t-40.5 13.5t-13.5 8.5t-9.5 21.5q0 37 60 36h297z" glyph-name="ntilde" horiz-adv-x="1368" unicode="ñ"/><glyph d="M418 1473q0 14 20 14h146q47 0 78 -27l251 -196q12 -8 13 -15q0 -10 -15 -10h-88q-36 0 -65 18l-328 201q-12 8 -12 15zM1065 499q-1 187 -109 335t-296 149q-188 0 -290 -122.5t-102 -320.5t118 -339t298 -141t287 135q94 117 94 304zM1237 534q0 -234 -163.5 -396.5 t-415.5 -162.5t-407 149.5t-155 383.5t163 397.5t417 163.5t407.5 -150.5t153.5 -384.5z" glyph-name="ograve" horiz-adv-x="1333" unicode="ò"/><glyph d="M516 1239h-92q-12 0 -12 7t12 18l242 196q31 27 75 27h148q20 -1 20 -11t-8 -16l-321 -203q-25 -18 -64 -18zM1065 499q-1 187 -109 335t-296 149q-188 0 -290 -122.5t-102 -320.5t118 -339t298 -141t287 135q94 117 94 304zM1237 534q0 -234 -163.5 -396.5 t-415.5 -162.5t-407 149.5t-155 383.5t163 397.5t417 163.5t407.5 -150.5t153.5 -384.5z" glyph-name="oacute" horiz-adv-x="1333" unicode="ó"/><glyph d="M479 1229h-73q-10 0 -11 6q0 4 6 12l183 226q12 14 32 14h101q23 0 35 -14l182 -226q6 -6 6 -12t-10 -6h-78q-12 0 -27 14l-151 160q-4 4 -8 4t-11 -6l-149 -160q-13 -12 -27 -12zM1065 499q-1 187 -109 335t-296 149q-188 0 -290 -122.5t-102 -320.5t118 -339t298 -141 t287 135q94 117 94 304zM1237 534q0 -234 -163.5 -396.5t-415.5 -162.5t-407 149.5t-155 383.5t163 397.5t417 163.5t407.5 -150.5t153.5 -384.5z" glyph-name="ocircumflex" horiz-adv-x="1333" unicode="ô"/><glyph d="M512 1487q57 0 174 -45t171 -45t95 76q6 12 14 12t17 -4l23 -8q10 -3 10 -9t-4 -16q-33 -86 -76 -125t-110 -39t-183.5 45t-157.5 45q-63 0 -102 -80q-5 -14 -11 -14t-18 4l-22 8q-12 4 -13 13q0 6 7 20q59 162 186 162zM1065 499q-1 187 -109 335t-296 149 q-188 0 -290 -122.5t-102 -320.5t118 -339t298 -141t287 135q94 117 94 304zM1237 534q0 -234 -163.5 -396.5t-415.5 -162.5t-407 149.5t-155 383.5t163 397.5t417 163.5t407.5 -150.5t153.5 -384.5z" glyph-name="otilde" horiz-adv-x="1333" unicode="õ"/><glyph d="M1065 499q-1 187 -109 335t-296 149q-188 0 -290 -122.5t-102 -320.5t118 -339t298 -141t287 135q94 117 94 304zM1237 534q0 -234 -163.5 -396.5t-415.5 -162.5t-407 149.5t-155 383.5t163 397.5t417 163.5t407.5 -150.5t153.5 -384.5zM829 1462q51 0 72 -16 q14 -16 14 -70t-17 -70q-17 -15 -68.5 -15t-67.5 15t-16 69t16 70.5t67 16.5zM483 1462q51 0 72 -16q16 -20 16 -71.5t-18 -67.5t-69.5 -16t-67.5 15t-16 69t16 70.5t67 16.5z" glyph-name="odieresis" horiz-adv-x="1333" unicode="ö"/><glyph d="M621 422q0 47 31.5 80t78.5 33t80 -33t33 -79t-33 -80t-79 -34t-78.5 33t-32.5 80zM621 1040q0 47 31.5 80t78.5 33t80 -33t33 -80t-33 -79.5t-80 -32.5t-78.5 32.5t-31.5 79.5zM1266 762v-62q0 -18 -21 -18h-1028q-20 0 -20 18v62q0 20 20 20h1028q21 0 21 -20z" glyph-name="divide" horiz-adv-x="1462" unicode="÷"/><glyph d="M1104 909.5q0 -6.5 6 -14.5q133 -143 133 -369t-161.5 -387.5t-409.5 -161.5q-203 0 -348 95q-8 6 -12.5 6t-12.5 -8l-57 -60q-10 -10 -23 -10h-80q-10 0 -10 6t4 10l105 109q4 4 4 9t-6 11q-134 145 -134 371t162 389.5t408 163.5q201 0 346 -94q10 -6 16 -6t15 8l55 59 q8 8 22 8h80q8 0 8 -5t-4 -9l-98 -106q-8 -8 -8 -14.5zM358 258q4 0 11 6l557 586q6 6 6 12t-6 12q-110 111 -278 111t-271 -124t-103 -294t74 -301q6 -8 10 -8zM695 61q167 0 271.5 120t104.5 297t-74 302q-4 6 -9 6t-9 -4l-559 -585q-8 -7 -8 -13t6 -12q110 -111 277 -111 z" glyph-name="oslash" horiz-adv-x="1345" unicode="ø"/><glyph d="M428 1473q0 14 21 14h145q47 0 78 -27l252 -196q12 -8 12 -16t-14 -9h-88q-39 0 -66 18l-328 201q-12 8 -12 15zM692 88q334 0 334 370q0 182 -2 286q-2 102 -29 156t-79 68.5t-52 39.5q0 37 60 36h284q57 0 58 -30q0 -24 -51 -46t-72 -69t-24 -153t-5 -271 q-2 -164 -39 -256q-100 -242 -412 -242t-411 216q-47 98 -47 354v194q0 127 -9.5 169t-56.5 61t-47 41q0 33 51 32h279q51 0 51 -32q0 -23 -27.5 -35t-29.5 -14q-39 -20 -47.5 -54.5t-8.5 -150.5v-183q0 -240 35 -323q72 -164 297 -164z" glyph-name="ugrave" horiz-adv-x="1325" unicode="ù"/><glyph d="M543 1239h-92q-13 0 -13 7t13 18l241 196q31 27 76 27h147q20 0 21 -12q0 -9 -8 -15l-322 -203q-25 -18 -63 -18zM692 88q334 0 334 370q0 182 -2 286q-2 102 -29 156t-79 68.5t-52 39.5q0 37 60 36h284q57 0 58 -30q0 -24 -51 -46t-72 -69t-24 -153t-5 -271 q-2 -164 -39 -256q-100 -242 -412 -242t-411 216q-47 98 -47 354v194q0 127 -9.5 169t-56.5 61t-47 41q0 33 51 32h279q51 0 51 -32q0 -23 -27.5 -35t-29.5 -14q-39 -20 -47.5 -54.5t-8.5 -150.5v-183q0 -240 35 -323q72 -164 297 -164z" glyph-name="uacute" horiz-adv-x="1325" unicode="ú"/><glyph d="M487 1229h-73q-10 0 -11 6q0 4 7 12l182 226q12 14 33 14h100q23 0 35 -14l182 -226q6 -6 6 -12t-10 -6h-78q-12 0 -26 14l-152 160q-4 4 -8 4t-10 -6l-150 -160q-13 -12 -27 -12zM692 88q334 0 334 370q0 182 -2 286q-2 102 -29 156t-79 68.5t-52 39.5q0 37 60 36h284 q57 0 58 -30q0 -24 -51 -46t-72 -69t-24 -153t-5 -271q-2 -164 -39 -256q-100 -242 -412 -242t-411 216q-47 98 -47 354v194q0 127 -9.5 169t-56.5 61t-47 41q0 33 51 32h279q51 0 51 -32q0 -23 -27.5 -35t-29.5 -14q-39 -20 -47.5 -54.5t-8.5 -150.5v-183q0 -240 35 -323 q72 -164 297 -164z" glyph-name="ucircumflex" horiz-adv-x="1325" unicode="û"/><glyph d="M692 88q334 0 334 370q0 182 -2 286q-2 102 -29 156t-79 68.5t-52 39.5q0 37 60 36h284q57 0 58 -30q0 -24 -51 -46t-72 -69t-24 -153t-5 -271q-2 -164 -39 -256q-100 -242 -412 -242t-411 216q-47 98 -47 354v194q0 127 -9.5 169t-56.5 61t-47 41q0 33 51 32h279 q51 0 51 -32q0 -23 -27.5 -35t-29.5 -14q-39 -20 -47.5 -54.5t-8.5 -150.5v-183q0 -240 35 -323q72 -164 297 -164zM862 1462q51 0 72 -16q14 -16 14 -70t-17 -70q-17 -15 -68.5 -15t-67.5 15q-17 15 -17 69t16.5 70.5t67.5 16.5zM516 1462q51 0 72 -16q16 -20 16 -71.5 t-18 -67.5t-69.5 -16t-67.5 15q-17 15 -17 69t16.5 70.5t67.5 16.5z" glyph-name="udieresis" horiz-adv-x="1325" unicode="ü"/><glyph d="M496 1239h-93q-12 0 -12 7t12 18l242 196q31 27 76 27h147q20 0 21 -12q0 -9 -8 -15l-322 -203q-25 -18 -63 -18zM1178 1014q0 -23 -43 -40t-85 -52q-42 -34 -108 -118t-268 -347q-6 -8 -6 -25v-96q0 -162 32 -217q14 -25 52 -43t39 -41q0 -35 -50 -35h-303q-49 0 -49 35 q0 20 39 42t51 42q31 51 31 217v53q0 18 -6 31l-217 323q-100 147 -160 201q-25 20 -57 32t-31 38q0 31 57 30h297q45 0 45 -30q0 -16 -34.5 -34.5t-34.5 -51.5t94 -168l151 -223q9 -14 17 0l108 145q152 201 152 252q0 25 -38 43t-38 37q0 31 51 30h250q62 1 62 -30z" glyph-name="yacute" horiz-adv-x="1208" unicode="ý"/><glyph d="M997 563q0 -104 -51 -172q-123 -166 -469 -166h-76q-16 0 -16 -14q8 -100 84 -139q35 -18 35 -39q0 -33 -60 -33h-280q-57 0 -58 33q0 19 38 39t61 59t22 199v409q0 123 -8 163t-41 61q-10 6 -35.5 17t-25.5 34q0 31 51 30h274q51 0 52 -30q0 -20 -27 -32.5t-35 -18.5 q-45 -29 -47 -109q0 -12 14 -12h84q109 -2 166.5 -5t134 -26t127.5 -66q86 -78 86 -182zM477 756h-78q-18 0 -18 -17v-409q0 -20 16 -21h64q127 2 207 27t123 88q31 51 31 124t-39 124q-38 51 -110.5 67.5t-195.5 16.5z" glyph-name="thorn" horiz-adv-x="1099" unicode="þ"/><glyph d="M1178 1014q0 -23 -43 -40t-85 -52q-42 -34 -108 -118t-268 -347q-6 -8 -6 -25v-96q0 -162 32 -217q14 -25 52 -43t39 -41q0 -35 -50 -35h-303q-49 0 -49 35q0 20 39 42t51 42q31 51 31 217v53q0 18 -6 31l-217 323q-100 147 -160 201q-25 20 -57 32t-31 38q0 31 57 30 h297q45 0 45 -30q0 -16 -34.5 -34.5t-34.5 -51.5t94 -168l151 -223q9 -14 17 0l108 145q152 201 152 252q0 25 -38 43t-38 37q0 31 51 30h250q62 1 62 -30zM794.5 1291q-51.5 0 -67.5 15t-16 69t15.5 70.5t67.5 16.5t72 -16q14 -16 14 -70t-16 -70q-18 -15 -69.5 -15z M448.5 1291q-51.5 0 -67.5 15t-16 69t15.5 70.5t67.5 16.5t72 -16q16 -20 16 -71.5t-18 -67.5t-69.5 -16z" glyph-name="ydieresis" horiz-adv-x="1208" unicode="ÿ"/><glyph d="M504 33q0 -33 -60 -33h-280q-57 0 -58 33q0 20 37 39q37 16 61 55t23 203v409q0 123 -9 167.5t-48 62.5t-46 25t-7 20q0 31 51 30h276q49 0 50 -30q0 -21 -27 -33t-35 -18q-31 -20 -41 -62.5t-10 -161.5v-409q0 -158 31 -209q16 -31 54 -49t38 -39z" glyph-name="dotlessi" horiz-adv-x="610" unicode="ı"/><glyph d="M1085 383q45 0 45 -49q0 -25 -12 -66t-25.5 -105.5t-22.5 -95t-35.5 -57t-52.5 -26.5t-130 8t-219 8h-447q-59 0 -59 35q0 18 37.5 36.5t61.5 58.5t24 202v305l-103 -55q-8 -4 -15 -4t-7 10v59q0 14 14 23l111 59v426q0 121 -10.5 168t-49 64t-45 25.5t-6.5 19.5 q0 31 49 30h277q53 0 53 -30q0 -21 -26.5 -33.5t-34.5 -18.5q-33 -20 -42 -61t-9 -164v-340l210 115q8 4 16 4t7 -10v-60q0 -16 -14 -22l-219 -121v-461q0 -130 32 -154t114 -24t160 10t131.5 37t87.5 68t87 131q32 55 67 55z" glyph-name="Lslash" horiz-adv-x="1157" unicode="Ł"/><glyph d="M1030 332q45 0 45 -51q0 -21 -10 -57t-21.5 -92t-18.5 -79.5t-33 -46t-48 -22.5t-123.5 8t-216.5 8h-409q-57 0 -58 35q0 19 36 35t56 53q31 51 31 209v102l-108 -59q-4 -2 -12 -2t-7 10v59q0 16 14 23l113 63v213q0 121 -10 166.5t-56.5 64.5t-46.5 42q0 31 52 30h274 q51 0 51 -30q0 -22 -26.5 -33.5t-34.5 -17.5q-31 -20 -40 -60.5t-9 -161.5v-131l184 101q4 2 10 2t6 -8v-62q0 -16 -12 -22l-188 -103v-227q0 -94 5 -130.5t31 -56.5t156 -20t215 49q57 33 129 135q45 64 80 64z" glyph-name="lslash" horiz-adv-x="1099" unicode="ł"/><glyph d="M274 741q0 -205 118.5 -444.5t471.5 -239.5q150 0 213 52q27 23 34 66.5t7 156.5v823q0 96 -9 135t-46 68q-70 49 -215 49q-254 0 -414 -187.5t-160 -478.5zM1300 721q-25 0 -24 -27v-436q0 -76 5 -106.5t32 -50.5q27 -19 139 -19t190 9t132.5 38t87 69t88.5 128 q32 55 65 55q45 0 45 -47q0 -23 -14 -73t-27.5 -119t-34 -113.5t-90.5 -44.5q-8 0 -111.5 8t-217.5 8h-480q-27 0 -103.5 -11.5t-131.5 -11.5q-240 0 -414 106.5t-255 272.5t-81 362t83 367.5t251 286.5t385 115q74 0 162 -12.5t111 -12.5h491q117 0 223.5 8.5t114.5 8.5 q68 0 74 -56q4 -43 4 -125l4 -127q0 -68 -41 -67.5t-57 49.5q-2 8 -9.5 28.5t-10.5 29t-17.5 44t-77.5 79.5q-62 44 -336 44h-141q-37 0 -37 -37v-485q0 -25 8 -33t83 -8t129 3t137 9.5t116 6.5q76 0 76 -37q0 -4 -7 -36t-25.5 -43t-72.5 -11l-213 10q-139 4 -207 4z" glyph-name="OE" horiz-adv-x="2156" unicode="Œ"/><glyph d="M1049 496q-27 0 -27 -23v-182q0 -96 5 -133t33 -57q28 -19 160 -19t210 34t161 150q43 64 76 64q47 0 47 -54q0 -18 -7 -48t-14 -65.5t-16 -77t-33 -71.5t-75 -30q-6 0 -108.5 8t-215.5 8h-284q-23 0 -94.5 -11.5t-141.5 -11.5q-299 0 -464 158t-165 383q0 150 77 271.5 t219 199.5t323 78q63 0 135 -11.5t100 -11.5h303q117 0 224.5 8.5t115.5 8.5q68 0 70 -53q8 -102 8 -209q0 -72 -47 -72q-31 0 -64 66t-52 88t-40 37q-68 49 -278 49h-129q-39 0 -39 -39v-305q0 -25 9 -34t65 -9t108 2q51 2 126 9t100 7q61 0 61 -31l-6 -30 q-8 -33 -26.5 -42.5t-69.5 -9.5l-187 9q-57 2 -153 2zM700 59q84 0 126 44t42 227v407q0 113 -7 154t-43 67t-130 27q-186 0 -301 -134t-115 -337t127 -329t301 -126z" glyph-name="oe" horiz-adv-x="1814" unicode="œ"/><glyph d="M791 1870h73q10 0 10 -5t-6 -14l-182 -225q-12 -14 -33 -14h-100q-23 0 -35 14l-182 225q-6 7 -6 13t10 6h78q12 0 26 -15l152 -159q4 -4 8 -4t10 6l150 160q13 12 27 12zM289 1146q0 -106 90 -181q57 -49 244.5 -107.5t273.5 -112.5q172 -106 172 -304 q-1 -198 -157 -331t-369 -133q-141 0 -256 43t-156 118t-41 241q0 51 43 51q23 0 35 -16t35.5 -60.5t40.5 -68.5q147 -215 352 -215q147 0 241.5 86t94.5 220t-111 212q-61 43 -178 77.5t-304 106t-187 309.5q0 172 137 289t340 117q106 0 198 -30t139 -84q48 -55 48 -173 t-45 -119q-31 0 -54 39q-2 2 -39 69.5t-85 117.5q-101 96 -225 95t-200.5 -75.5t-76.5 -180.5z" glyph-name="Scaron" horiz-adv-x="1181" unicode="Š"/><glyph d="M735 1487h74q10 0 10 -5t-6 -14l-182 -225q-12 -14 -33 -14h-100q-23 0 -35 14l-182 225q-6 6 -7 11q0 8 11 8h77q12 0 27 -14l152 -160q4 -4 8 -4t10 6l150 160q12 12 26 12zM150 344q18 0 33.5 -18.5t92.5 -138.5t287 -119q106 0 183 54t77 127t-49 116t-124 62 t-161 45t-160.5 52.5t-123.5 86t-49 139.5q0 166 157 260q98 57 249 57t255 -47q55 -27 73.5 -62.5t18.5 -118.5t-47 -87q-33 0 -71 63q-100 162 -279 162q-84 0 -143.5 -47t-59.5 -120t68.5 -114t166 -64.5t195 -52t166 -95t68.5 -156.5q0 -185 -174 -283 q-119 -68 -259 -68t-241.5 31t-152.5 75t-52 167q1 94 56 94z" glyph-name="scaron" horiz-adv-x="1069" unicode="š"/><glyph d="M1350 1432q0 -18 -54 -45t-144 -171q-54 -85 -392 -641q-6 -10 -6 -22v-217q0 -164 30 -217q14 -27 52 -44t38 -40q0 -35 -47 -35h-303q-49 0 -49 33q0 25 37 40q38 15 62 57t24 206v170q0 14 -18 47t-97.5 180.5t-148 273.5t-121.5 226t-77 127t-56 38t-31 32 q0 33 57 32h297q43 0 43 -30q0 -20 -40.5 -41t-40.5 -64t65 -168l270 -497q11 -15 20 -1q9 15 220 371q127 215 127 277t-44 79t-44 46t51 28h260q60 1 60 -30zM880.5 1616q-51.5 0 -67.5 15t-16 69t15.5 71t67.5 17t72 -16q14 -16 14 -70t-16 -70q-18 -16 -69.5 -16z M534.5 1616q-51.5 0 -67.5 15t-16 69t15.5 71t67.5 17t72 -16q16 -20 16.5 -71.5t-16.5 -68.5q-20 -16 -71.5 -16z" glyph-name="Ydieresis" horiz-adv-x="1378" unicode="Ÿ"/><glyph d="M817 1870h74q10 0 10 -5t-6 -14l-182 -225q-12 -14 -33 -14h-100q-23 0 -35 14l-183 225q-6 7 -6 13t11 6h77q12 0 27 -15l152 -159q4 -4 8 -4t10 6l150 160q12 12 26 12zM166 1102q-45 0 -45 52q0 28 3 90t4 110.5t3 68.5q6 55 70 56q8 0 115.5 -8.5t224.5 -8.5h536 q27 0 35 -6t8 -38t-16 -58l-803 -1251q-8 -15 -8 -21t12 -6h162q217 0 270 8q127 18 180.5 62.5t133.5 173.5q34 55 65 55q47 0 47 -51q0 -10 -15 -68t-27.5 -120t-34 -110t-85.5 -48q-16 0 -119.5 8t-215.5 8h-516q-27 0 -37.5 7t-10.5 40t19 64l797 1243q6 10 6 16t-13 6 h-202q-315 0 -371 -40q-55 -39 -69.5 -66t-19.5 -39t-15.5 -41t-14.5 -39q-20 -49 -53 -49z" glyph-name="Zcaron" horiz-adv-x="1245" unicode="Ž"/><glyph d="M764 1487h74q10 0 10 -5t-6 -14l-183 -225q-12 -14 -32 -14h-101q-23 0 -34 14l-183 225q-6 6 -6 12t10 7h78q12 0 27 -14l151 -160q4 -4 8.5 -4t10.5 6l149 160q13 12 27 12zM1024 330q47 0 47 -49q0 -23 -8 -53t-14.5 -65.5t-14 -76t-34 -71.5t-76.5 -31q-6 0 -107.5 8 t-214.5 8h-448q-49 0 -50 37q0 53 21 76l690 835q4 6 4 12t-12 7h-150q-264 0 -331 -49q-44 -27 -81.5 -109t-72.5 -82q-47 0 -47 72q0 133 6 209q2 53 72 53q8 0 114.5 -8.5t221.5 -8.5h440q45 0 45 -28q0 -47 -20 -72l-695 -844q-4 -4 -4 -11t10 -7h195q188 0 250 24 t100.5 58.5t76.5 88.5t52.5 65.5t34.5 11.5z" glyph-name="zcaron" horiz-adv-x="1159" unicode="ž"/><glyph d="M932 1530q123 0 123 -82q0 -59 -41 -59q-16 0 -46 28.5t-55 28.5q-68 0 -111.5 -112.5t-88.5 -346.5q-2 -10 -2 -14q0 -12 14 -12h143q25 0 25 -17l-10 -49q-6 -20 -29 -21h-149q-12 0 -15 -12q-8 -42 -61 -362t-147.5 -607.5t-313.5 -287.5q-119 0 -119 92q0 53 39 53 q16 0 46 -29.5t56 -29.5q78 0 124 149.5t118 540.5l88 471q2 10 2 16t-12 6h-139q-23 0 -23 23l4 41q2 23 31 23h147q14 0 17 14q55 266 158.5 410.5t226.5 144.5z" glyph-name="florin" horiz-adv-x="1103" unicode="ƒ"/><glyph d="M326 1229h-74q-10 0 -10 5t6 13l182 226q12 14 33 14h100q23 0 35 -14l182 -226q6 -6 6 -12t-10 -6h-78q-12 0 -26 14l-152 160q-4 4 -8 4t-10 -6l-150 -160q-12 -12 -26 -12z" glyph-name="circumflex" horiz-adv-x="1030" unicode="ˆ"/><glyph d="M702 1487h74q10 0 10 -5t-6 -14l-182 -225q-12 -14 -33 -14h-100q-23 0 -35 14l-182 225q-6 6 -6 12t10 7h78q12 0 26 -14l152 -160q4 -4 8 -4t10 6l150 160q12 12 26 12z" glyph-name="caron" horiz-adv-x="1030" unicode="ˇ"/><glyph d="M209 1448q0 41 33 41q25 0 32 -31q40 -135 176 -135t175 135q10 31 32 31q33 0 33 -41q0 -94 -69.5 -155.5t-172 -61.5t-171 61.5t-68.5 155.5z" glyph-name="breve" horiz-adv-x="899" unicode="˘"/><glyph d="M244 1377q0 50 16 71q14 14 67.5 14t69.5 -14q14 -16 14 -69.5t-17 -68.5q-17 -16 -67 -16t-66.5 16.5t-16.5 66.5z" glyph-name="dotaccent" horiz-adv-x="655" unicode="˙"/><glyph d="M315 1347q0 -46 33 -80t80 -34t80 33.5t33 81t-33 80t-80 32.5t-80 -33.5t-33 -79.5zM242 1347.5q0 75.5 54 129t132 53.5t132 -53.5t54 -129t-54 -130t-132 -54.5t-132 54.5t-54 130z" glyph-name="ring" horiz-adv-x="856" unicode="˚"/><glyph d="M618 -281q20 0 20 -16t-13 -31q-72 -68 -169 -68t-154.5 48.5t-57.5 136.5t114 223l70 -8q-37 -86 -37 -157t41.5 -108.5t87.5 -37.5t69 9t29 9z" glyph-name="ogonek" horiz-adv-x="882" unicode="˛"/><glyph d="M242 1304q0 8 6 21q59 162 186 162q57 0 174 -45t171 -45t95 76q6 12 14 12t17 -4l23 -8q10 -3 10 -9t-4 -16q-33 -86 -76.5 -125t-109.5 -39t-182.5 45t-157.5 45q-63 0 -103 -80q-5 -14 -11 -14t-18 4l-22 8q-12 4 -12 12z" glyph-name="tilde" horiz-adv-x="1179" unicode="˜"/><glyph d="M602 1270q0 16 35 59q86 109 147 139q35 18 109 18t74 -30q1 -30 -99 -102t-143 -92t-83 -20t-40 28zM242 1270q0 16 34 59q86 109 148 139q34 18 108 18t74 -30t-100 -102t-142 -92t-82 -20t-40 28z" glyph-name="hungarumlaut" horiz-adv-x="1212" unicode="˝"/><glyph d="M1167 1145q25 0 25 -31q0 -4 -15 -79t-45 -96t-149 -21h-37q-10 0 -12 -9q-45 -247 -45 -413q0 -376 123 -375q33 0 61.5 34.5t42.5 34.5q29 0 29 -46t-52.5 -106.5t-137.5 -60.5t-142 82t-57 271q0 276 80 573q2 8 2 13t-9 6l-305 12q-12 0 -12 -12q0 -260 -41 -488 t-107 -342t-128 -115q-29 0 -62 34q-33 33 -33 49q0 35 56 42q70 10 118 136q98 242 117 686q0 10 -12 10q-139 0 -211 -49q-29 -19 -40 -19t-19.5 9.5t-8.5 23.5q0 15 39 71t81 85t132 28l518 -14q111 0 151 9t66 38t39 29z" glyph-name="pi" horiz-adv-x="1333" unicode="π"/><glyph d="M1376 602v-88q0 -18 -20 -18h-1225q-20 0 -20 18v88q0 20 20 21h1225q20 -1 20 -21z" glyph-name="endash" horiz-adv-x="1486" unicode="–"/><glyph d="M111 514v88q0 20 20 21h1808q18 0 19 -21v-88q0 -18 -19 -18h-1808q-20 0 -20 18z" glyph-name="emdash" horiz-adv-x="2068" unicode="—"/><glyph d="M147 1132q0 112 80 226q45 63 89 96t62 33t31 -10.5t13 -22.5t-6 -18t-35.5 -31t-61.5 -73q-31 -48 -31 -94t70 -112t70 -100t-48 -82.5t-81 -48.5t-82 53q-70 72 -70 184z" glyph-name="quoteleft" horiz-adv-x="542" unicode="‘"/><glyph d="M166 897q-18 0 -30.5 10.5t-12.5 22.5t6 18t35.5 29.5t60.5 71.5q31 49 31 95t-70 112t-70 99q0 34 48.5 83t81.5 49t82 -53q70 -72 70 -185t-81 -225q-47 -63 -90 -95t-61 -32z" glyph-name="quoteright" horiz-adv-x="544" unicode="’"/><glyph d="M166 -358q-18 0 -30.5 10t-12.5 22.5t6 18.5t35 29t61 71q31 49 31 95t-70 112t-70 100t48.5 82.5t81.5 48.5t82 -53q70 -72 70 -184t-81 -225q-47 -63 -90 -95t-61 -32z" glyph-name="quotesinglbase" horiz-adv-x="542" unicode="‚"/><glyph d="M780 1487q18 0 30.5 -10.5t12.5 -22.5t-6 -18t-36.5 -31.5t-60.5 -73.5q-30 -47 -30 -93t70 -112t70 -100t-48.5 -82.5t-81.5 -48.5t-82 53q-70 72 -70 184t81 226q45 63 89 96t62 33zM145 1132q0 112 80 226q45 63 89 96t62 33t31 -10.5t13 -22.5t-6 -18t-35.5 -31 t-61.5 -73q-31 -48 -31 -94t70 -112t70 -100t-48 -82.5t-81 -48.5t-82 53q-70 72 -70 184z" glyph-name="quotedblleft" horiz-adv-x="944" unicode="“"/><glyph d="M799 1249q0 -113 -80 -225q-47 -63 -90 -95t-61 -32t-31 10.5t-13 22.5t6 18t35 29t61 72t32 95t-70 112t-70 99q0 34 48 83t81 49t82 -53q70 -72 70 -185zM166 897q-18 0 -30.5 10.5t-12.5 22.5t6 18t35.5 29.5t60.5 71.5q31 49 31 95t-70 112t-70 99q0 34 48.5 83 t81.5 49t82 -53q70 -72 70 -185t-81 -225q-47 -63 -90 -95t-61 -32z" glyph-name="quotedblright" horiz-adv-x="944" unicode="”"/><glyph d="M799 -6q0 -112 -80 -225q-47 -63 -90 -95t-61 -32t-31 10t-13 22.5t6 18.5t34.5 28.5t61.5 71.5q32 49 32 95t-70 112t-70 100t48 82.5t81 48.5t82 -53q70 -72 70 -184zM166 -358q-18 0 -30.5 10t-12.5 22.5t6 18.5t35 29t61 71q31 49 31 95t-70 112t-70 100t48.5 82.5 t81.5 48.5t82 -53q70 -72 70 -184t-81 -225q-47 -63 -90 -95t-61 -32z" glyph-name="quotedblbase" horiz-adv-x="944" unicode="„"/><glyph d="M512 1063q0 -37 37 -130t37 -151t-22.5 -268.5t-24.5 -257.5t-3 -71.5t-2.5 -40t-2.5 -36t-2 -33t-4 -25.5t-6 -21.5t-9 -15.5t-13.5 -10t-17.5 -3t-18 3t-14.5 10t-10.5 15.5t-7 23t-4 25.5t-2 31.5t-3 51.5t-4 86t-24.5 264t-22.5 269t36.5 153.5t36.5 123.5t-32 30 t-114.5 -33t-116.5 -33t-50 18.5t-16 42.5l1 11l-1 69q0 27 18.5 44.5t50.5 17.5t112.5 -33t114.5 -33t33 25q0 41 -33.5 118.5t-33.5 120.5q0 66 67 66l9 -1l65 1q61 0 62 -66q0 -45 -33 -122.5t-33 -109.5t27 -32q37 0 120.5 33t116.5 33q66 0 66 -64l-2 -37l2 -37 q0 -66 -66 -65q-32 0 -82 20t-88 34q-94 36 -94 -11z" glyph-name="dagger" horiz-adv-x="966" unicode="†"/><glyph d="M182 1223q35 0 117 -34t127 -34q18 0 18 19q0 43 -33.5 120.5t-33.5 124.5q0 68 65 68l9 -1l65 1q61 0 62 -68q0 -47 -34 -124.5t-34 -123.5q0 -18 16 -18q41 0 126 35t122 35q68 0 68 -58l-2 -43l2 -45q0 -57 -68 -57q-39 0 -123 35t-125 35q-16 0 -16 -23t32.5 -149 t32.5 -176t-32.5 -176t-32.5 -147t18 -22q37 0 124 34t126 34q63 0 64 -59v-10v-72q0 -59 -64 -60q-39 0 -126 34t-124 34q-18 0 -18 -27t34 -114t34 -128q0 -63 -68 -63l-35 2l-33 -2q-66 0 -65 63q0 43 33.5 129.5t33.5 112.5t-18 27q-41 0 -125 -34t-123 -34 q-66 0 -65 60l2 41l-2 41q0 59 65 59q39 0 123 -34t125 -34q18 0 18 22t-33.5 147.5t-33.5 174.5t33.5 175t33.5 148t-18 23q-43 0 -127 -33.5t-120 -33.5q-66 0 -66 57l2 47l-2 39q0 25 17 42.5t52 17.5z" glyph-name="daggerdbl" horiz-adv-x="964" unicode="‡"/><glyph d="M643 653q0 -49 -78 -128t-128 -79t-129 79t-79 128t79 127t129 78t128 -78t78 -127z" glyph-name="bullet" horiz-adv-x="874" unicode="•"/><glyph d="M1022 117q0 35 53 89t88 54t89.5 -54t54.5 -88t-54.5 -88.5t-88.5 -54.5t-88 53.5t-54 88.5zM569 117q0 35 53.5 89t88 54t89 -54t54.5 -88t-54.5 -88.5t-89 -54.5t-88 53.5t-53.5 88.5zM117 117q0 35 53 89t88 54t89 -54t54 -88t-55 -88.5t-88 -54.5t-87 53.5t-54 88.5z " glyph-name="ellipsis" horiz-adv-x="1421" unicode="…"/><glyph d="M598 1096q0 141 -49 235t-127 94t-119 -89t-41 -234t48 -241.5t124 -96.5q164 0 164 332zM737 1100q0 -172 -86.5 -286t-232.5 -114t-220.5 111t-74.5 280t87 282.5t227 113.5t220 -107.5t80 -279.5zM1403 373q0 141 -49 235t-127 94t-119 -89t-41 -234t48 -241.5 t124 -96.5q164 0 164 332zM1542 377q0 -172 -86 -286t-232 -114t-221 111t-75 280t87 282.5t227 113.5t220 -107.5t80 -279.5zM2161 373q0 141 -49.5 235t-127.5 94t-118.5 -89t-40.5 -234t48 -241.5t124 -96.5q164 0 164 332zM2300 377q0 -172 -86 -286t-232 -114t-221 111 t-75 280t87 282.5t227 113.5t220 -107.5t80 -279.5zM1223 1462h108l-895 -1462h-108z" glyph-name="perthousand" horiz-adv-x="2408" unicode="‰"/><glyph d="M637 213v-92q0 -12 -7 -12t-16 8l-505 442q-20 16 0 35l505 442q8 8 16 8t7 -10v-90q0 -23 -19 -37l-364 -319q-6 -6 -6 -10t373 -330q16 -10 16 -35z" glyph-name="guilsinglleft" horiz-adv-x="804" unicode="‹"/><glyph d="M168 121v92q0 25 16 35l367 321q6 5 6 9t-6 10q-225 197 -365 319q-18 14 -18 37v90q0 10 7 10t15 -8l506 -442q20 -20 0 -35l-506 -442q-8 -8 -15 -8t-7 12z" glyph-name="guilsinglright" horiz-adv-x="804" unicode="›"/><glyph d="M610 1264h115l-821 -1067h-115z" glyph-name="fraction" horiz-adv-x="514" unicode="⁄"/><glyph d="M995 172q0 -115 -55 -158q-43 -37 -141 -37q-215 0 -362.5 136.5t-186.5 355.5q-2 10 -14 10h-152q-14 0 -14 13v57q0 10 14 10h141q9 -1 9 17q-2 83 6 139q0 10 -13 10h-143q-14 0 -14 12v58q0 12 14 12h158q12 0 16 16q38 166 136 267.5t197 143.5t201 42t149 -39 q46 -39 46 -143q0 -55 -41 -56q-27 0 -56.5 34t-73.5 69t-105 35q-113 0 -194 -104.5t-101 -252.5q0 -12 12 -12h457q10 0 10 -7t-2 -16l-10 -47q-2 -12 -17 -12h-454q-10 0 -11 -8q-2 -35 -2 -82l2 -68q0 -8 9 -8h417q15 0 15 -7t-2 -15l-11 -45q-2 -12 -16 -13h-391 q-10 0 -10 -10q25 -166 105.5 -275.5t207.5 -109.5q51 0 91 22.5t75 70.5t65 48q39 0 39 -53z" glyph-name="Euro" horiz-adv-x="1193" unicode="€"/><glyph d="M295 731.5q0 -276.5 196.5 -474.5t471 -198t471 198t196.5 474.5t-196.5 473t-471 196.5t-471 -196.5t-196.5 -473zM207 731q0 311 221.5 533.5t533.5 222.5t534 -222.5t222 -533.5t-222 -532.5t-534 -221.5t-533.5 221.5t-221.5 532.5zM1364 939q0 -89 -41 -146 q-102 -137 -391 -138h-70q-18 0 -18 -14v-53q0 -129 19 -163t63 -54q16 -10 16 -23q0 -27 -47 -26h-227q-47 0 -47 26q0 14 28.5 28.5t48.5 48.5t21 163v330q0 154 -32 176q-15 10 -30.5 18t-21.5 13t-6 16q2 27 41 26h254q94 0 143 -3t115.5 -21.5t109.5 -55.5 q72 -59 72 -148zM1225 920q0 60 -33 106q-33 45 -93.5 59.5t-164.5 14.5h-72q-18 0 -18 -17v-344q0 -16 18 -16h62q210 4 269 90q32 47 32 107z" glyph-name="uni2117" horiz-adv-x="1925" unicode="℗"/><glyph d="M635 1442q0 20 33 20h147q29 0 37 -20l123 -309q6 -10 12 0l123 309q8 20 31 20h139q33 0 33 -16t-13.5 -22t-27.5 -16q-14 -9 -19.5 -31.5t-5.5 -88.5v-215q0 -87 13 -111q14 -24 36 -37t22 -29t-36 -17h-180q-37 0 -37 20q0 10 22.5 24.5t36.5 38.5t15 181v192 q0 6 -4.5 6t-6.5 -4l-139 -350q-6 -16 -24 -16h-27q-16 0 -23 14l-139 352q-2 4 -6 4t-4 -6q0 -211 4 -273q7 -108 66 -132q29 -16 28 -29q0 -23 -35 -22h-165q-37 0 -37 22q0 14 17.5 24.5t23.5 16.5q39 41 41 221l2 201q0 29 -38 44q-38 14 -38 34zM598 1328 q0 -54 -27 -54t-45 33q-32 61 -60 81t-85 19q-10 0 -10 -10v-320q0 -97 13 -119t37 -33t23 -26q0 -20 -32 -20h-191q-31 0 -31 20q0 14 23 24.5t36 36.5t13 117v322q0 8 -10 8q-95 0 -127.5 -66.5t-58.5 -66.5q-31 0 -31 54t4 110q2 33 43 32l192 -8h84l193 8q41 1 43 -32 q4 -56 4 -110z" glyph-name="trademark" horiz-adv-x="1396" unicode="™"/><glyph d="M135 254q16 0 31 -27q29 -53 68 -65t153 -12h164q10 0 10 6t-8 12q-385 233 -385 616q0 127 47 252t132 225.5t216 163t285 62.5q205 0 364.5 -107.5t239.5 -265.5t80 -330q0 -381 -387 -616q-6 -4 -6 -11t10 -7h164q115 0 153 12t68 65q15 27 35 27q29 0 28 -37 q0 -16 -7 -98t-25.5 -104.5t-91.5 -22.5l-297 8h-150q-49 0 -67.5 15.5t-18.5 51.5t35 54q160 96 270.5 277.5t110.5 415.5t-139.5 412.5t-367.5 178.5t-366.5 -178.5t-138.5 -412.5t110.5 -415.5t270.5 -277.5q35 -18 35 -54t-18.5 -51.5t-67.5 -15.5h-152l-295 -8 q-74 0 -94.5 26.5t-30.5 198.5q0 37 33 37z" glyph-name="uni2126" horiz-adv-x="1699" unicode="Ω"/><glyph d="M283 1159q-47 0 -47 74t47 125t148 90t218 39q248 0 405.5 -222.5t157.5 -555.5q0 -428 -197 -580t-389 -152t-325 141.5t-133 337.5t131 335t330 139q158 0 265 -84t142 -217q13 -65 13 91t-41 324q-27 125 -116 244t-255 119t-289 -195q-20 -33 -32.5 -43t-32.5 -10z M655 842q-135 0 -225 -112t-90 -280t94 -278.5t235.5 -110.5t233.5 110t92 286t-102.5 280.5t-237.5 104.5z" glyph-name="partialdiff" horiz-adv-x="1394" unicode="∂"/><glyph d="M1290 0h-1216q-18 0 -19 14q0 2 4 15l613 1433q6 16 20 17h47q14 0 21 -17q537 -1397 545 -1417t8 -27q0 -18 -23 -18zM190 84h910q16 0 16 5t-4 17l-432 1127q-2 8 -9 8t-9 -8l-480 -1127q-4 -12 -4 -17t12 -5z" glyph-name="uni2206" horiz-adv-x="1378" unicode="∆"/><glyph d="M1546 -164q0 -35 -59 -35h-285q-57 0 -57 35q0 20 37 39q39 18 55 49q29 43 29 209v1231q0 16 -17 16h-753q-16 0 -17 -18v-1229q1 -162 25 -201t61 -57t37 -39q0 -35 -59 -35h-283q-57 0 -57 35q0 18 37 39q36 21 60 59t24 199v1022q0 119 -11.5 166.5t-51 65.5t-45 26 t-5.5 19q0 31 53 30h1221q49 0 49 -30q0 -20 -26.5 -33t-34.5 -19q-31 -20 -40.5 -62t-9.5 -163v-1022q0 -166 29 -209q18 -33 56 -49t38 -39z" glyph-name="product" horiz-adv-x="1744" unicode="∏"/><glyph d="M168 0q-27 0 -27 25v43q0 29 11 45l407 594q8 10 8 20q0 6 -8 18l-389 584q-18 27 -18 60v45q0 29 28 28h422q117 0 223.5 8.5t114.5 8.5q66 0 72 -56q2 -11 6 -117t4 -155t-39 -49t-57 49q-4 10 -12.5 33.5t-17.5 47.5t-27.5 48t-57.5 51t-122 35t-238 8h-84 q-23 0 -23 -14q0 -6 4 -12l365 -537q10 -17 10 -31t-10 -28l-404 -580q-4 -8 -4 -10q0 -14 19 -15h452q113 1 152 13t59 52t43 40q29 0 29 -37q0 -12 -9 -97t-25.5 -105.5t-92.5 -20.5l-291 8h-473z" glyph-name="summation" horiz-adv-x="1155" unicode="∑"/><glyph d="M1266 762v-62q0 -18 -21 -18h-1028q-20 0 -20 18v62q0 20 20 20h1028q21 0 21 -20z" glyph-name="minus" horiz-adv-x="1462" unicode="−"/><glyph d="M1245 1604v-58q0 -16 -12 -16h-98q-12 0 -17 -10l-334 -1520q-2 -10 -16 -10h-82q-14 0 -18 10l-346 831q-8 12 -21 13h-166q-14 0 -14 12v57q0 12 14 13h295q20 0 27 -15l278 -667q9 -27 17 2l297 1351q4 18 22 19h162q12 0 12 -12z" glyph-name="radical" horiz-adv-x="1376" unicode="√"/><glyph d="M498 901q-78 0 -140.5 -62.5t-62.5 -154.5t62.5 -155.5t156.5 -63.5q59 0 118.5 32.5t99.5 69.5t116 117q-72 78 -112 116t-100 69.5t-138 31.5zM1329 465q90 0 154.5 64.5t64.5 155.5t-62.5 153.5t-156.5 62.5q-59 0 -118.5 -31.5t-98.5 -67.5t-119 -120 q104 -115 175 -166t161 -51zM1337 362q-127 0 -215 60.5t-202 183.5q-86 -88 -130.5 -128t-120 -78t-155.5 -38q-141 0 -236.5 93.5t-95.5 227.5t96.5 228.5t235.5 94.5q82 0 159 -39t124 -82t125 -127q82 86 128 128t122.5 81t156.5 39q139 0 232.5 -88.5t93.5 -229.5 t-95.5 -233.5t-222.5 -92.5z" glyph-name="infinity" horiz-adv-x="1839" unicode="∞"/><glyph d="M608 1528q96 0 97 -80q0 -35 -33 -35q-14 0 -42 18.5t-52 18.5q-76 0 -88.5 -163t-12.5 -488v-230q0 -375 -33 -669.5t-264 -294.5q-96 0 -96 78q0 41 33 41q10 0 38.5 -20.5t50.5 -20.5q78 0 90.5 177t12.5 535v170q0 367 21.5 555.5t75.5 278.5q71 129 202 129z" glyph-name="integral" horiz-adv-x="786" unicode="∫"/><glyph d="M526 711q113 0 323.5 -98.5t318.5 -98.5t202 92q6 6 14.5 6t14.5 -6l47 -45q6 -6 6 -13t-10 -18q-119 -119 -281 -118q-98 0 -220 48t-233.5 97t-181.5 49q-113 0 -207 -137q-8 -10 -12 -10t-14 6l-55 41q-17 10 -5 26q127 179 293 179zM1147 739q-111 0 -324 98.5 t-319 98.5t-201 -92q-6 -6 -14 -6t-15 6l-47 45q-6 6 -6 13t10 18q119 119 281 118q98 0 220 -48t233.5 -97t181.5 -49q113 0 207 137q8 10 13 10t13 -6l56 -41q10 -6 10 -11t-6 -15q-127 -179 -293 -179z" glyph-name="approxequal" horiz-adv-x="1673" unicode="≈"/><glyph d="M985 971h283q23 0 22 -21v-59q0 -20 -22 -21h-350q-8 0 -19 -12l-156 -250q-4 -6 -4 -11t9 -5h520q23 0 22 -21v-59q0 -18 -22 -18h-584q-14 0 -20 -11q-68 -106 -185 -297q-10 -16 -28 -16h-72q-12 0 -12 6t4 12l178 287q6 8 6 13t-10 6h-305q-20 0 -21 18v59 q0 20 21 21h368q12 0 21 10l155 252q4 6 4 11t-8 5h-540q-20 0 -21 21v59q0 20 21 21h604q12 0 22 12l185 297q8 14 26 14h74q12 0 12 -6t-4 -12l-180 -291q-2 -4 -2 -9t8 -5z" glyph-name="notequal" horiz-adv-x="1509" unicode="≠"/><glyph d="M1200 1257v-75q0 -20 -18 -29l-803 -348q-10 -4 -10 -9t10 -10q412 -180 803 -350q18 -8 18 -26v-76q0 -12 -7 -12t-11 2l-953 417q-18 8 -18 27v53q0 18 18 27l945 414q12 6 18 6q8 -1 8 -11zM213 154v63q0 20 20 21h947q20 0 20 -21v-63q0 -20 -20 -21h-947 q-20 1 -20 21z" glyph-name="lessequal" horiz-adv-x="1413" unicode="≤"/><glyph d="M213 1182v75q0 10 8 11q6 0 19 -6l944 -414q18 -8 18 -27v-53q0 -18 -18 -27l-953 -417q-4 -2 -11 -2t-7 12v76q0 18 18 26l803 350q10 4 10 10t-10 9q-410 178 -803 348q-18 9 -18 29zM1200 217v-63q0 -20 -20 -21h-947q-20 0 -20 21v63q0 20 20 21h947q20 -1 20 -21z " glyph-name="greaterequal" horiz-adv-x="1413" unicode="≥"/><glyph d="M1171 729.5q0 -6.5 -6 -18.5l-413 -766q-10 -18 -33 -19h-64q-25 0 -34 19l-412 766q-6 12 -6 19t6 18l412 765q10 16 34 17h64q23 -1 33 -17l413 -765q6 -12 6 -18.5zM1061 728q0 3 -4 11l-365 674q-4 6 -6 6t-6 -6l-363 -670q-4 -8 -4 -15t4 -15l363 -668q4 -8 8 -8 t8 10l361 670q4 8 4 11z" glyph-name="lozenge" horiz-adv-x="1372" unicode="◊"/><glyph d="M1497 236q0 -110 -74.5 -184.5t-184.5 -74.5t-182 83t-71 221v98h-291v-98q0 -137 -70 -221t-180 -83q-110 0 -186 74.5t-76 184.5t85 181.5t220 71.5h99v291h-99q-135 0 -220 72t-85 181t76 184t186 75t181 -84q70 -84 69 -219v-100h291v100q0 135 72 219t181 84 t184 -74.5t75 -184.5t-84 -181.5t-217 -71.5h-100v-291h100q133 0 217 -71.5t84 -181.5zM1389 1032q0 64 -43 107t-107 43t-103.5 -53.5t-39.5 -139.5v-100h100q88 0 140.5 39.5t52.5 103.5zM487 889h99v100q0 86 -40 139.5t-104 53.5t-106.5 -43t-42.5 -107t52 -103.5 t142 -39.5zM694 489h291v291h-291v-291zM1389 236q0 64 -52.5 103.5t-140.5 39.5h-100v-98q0 -88 40 -141.5t103 -53.5t106.5 43t43.5 107zM586 281v98h-99q-88 0 -141 -39.5t-53 -103.5t42.5 -107t106.5 -43t104 53.5t40 141.5z" glyph-name="uniF8FF" horiz-adv-x="1679" unicode=""/><glyph d="M410 444q-29 0 -29 -22v-92q0 -160 31 -207q20 -35 57 -51.5t37 -38.5q0 -33 -62 -33h-278q-59 0 -60 33q0 6 2.5 10t4 9t34 21t57.5 55q26 40 25 202v407q0 129 -8.5 169t-49 59.5t-46.5 26.5t-6 18q0 35 49 34h455q117 0 223 8.5t115 8.5q69 0 71 -53q8 -205 8 -209 q0 -72 -49 -72q-35 0 -67.5 71t-51 90t-34.5 30q-66 49 -238 49h-178q-41 0 -41 -39v-359q0 -25 9.5 -34t65.5 -9t117 2l215 17q63 0 64 -33q0 -4 -7 -33t-24.5 -38t-60.5 -9l-197 10q-55 2 -153 2zM1612 33q0 -33 -60 -33h-280q-57 0 -58 33q0 20 37 39q37 16 61 55t23 203 v409q0 123 -9 167.5t-48 62.5t-46 25t-7 20q0 31 51 30h276q49 0 50 -30q0 -21 -27 -33t-35 -18q-31 -20 -41 -62.5t-10 -161.5v-409q0 -158 31 -209q16 -31 54 -49t38 -39z" glyph-name="uniFB01" horiz-adv-x="1720" unicode="ﬁ"/><glyph d="M410 444q-29 0 -29 -22v-92q0 -160 31 -207q20 -35 57 -51.5t37 -38.5q0 -33 -62 -33h-278q-59 0 -60 33q0 6 2.5 10t4 9t34 21t57.5 55q26 40 25 202v407q0 129 -8.5 169t-49 59.5t-46.5 26.5t-6 18q0 35 49 34h455q117 0 223 8.5t115 8.5q69 0 71 -53q8 -205 8 -209 q0 -72 -49 -72q-35 0 -67.5 71t-51 90t-34.5 30q-66 49 -238 49h-178q-41 0 -41 -39v-359q0 -25 9.5 -34t65.5 -9t117 2l215 17q63 0 64 -33q0 -4 -7 -33t-24.5 -38t-60.5 -9l-197 10q-55 2 -153 2zM2107 330q45 0 45 -51q0 -20 -8 -53t-15 -70t-15.5 -77t-35 -67.5 t-71.5 -27.5q-6 0 -109.5 8t-216.5 8h-407q-57 0 -57 33q1 23 37 40t60 56t23 201v409q0 121 -10.5 168t-55 65.5t-44.5 41.5q0 31 51 30h274q51 0 52 -30q0 -20 -27 -32.5t-35 -18.5q-31 -20 -41 -62.5t-10 -161.5v-452q0 -92 5 -129t30 -57q24 -19 146 -19t198 35t158 149 q42 64 79 64z" glyph-name="uniFB02" horiz-adv-x="2174" unicode="ﬂ"/></font>
</defs>
</svg>
