<?xml version="1.0" standalone="no"?>
<!DOCTYPE svg PUBLIC "-//W3C//DTD SVG 1.1//EN" "http://www.w3.org/Graphics/SVG/1.1/DTD/svg11.dtd">
<svg xmlns="http://www.w3.org/2000/svg"><metadata>This SVG WebFont was generated by YouWorkForThem.
Copyright  2011 by Case Studio, Inc. All rights reserved.</metadata><defs><font horiz-adv-x="1431" id="ywftsvg"><font-face ascent="1638" bbox="-406 -395.013 2470 1880" cap-height="1462" descent="-410" font-family="" font-stretch="normal" font-weight="500" panose-1="2 0 0 0 0 0 0 0 0 0" underline-position="0" underline-thickness="0" unicode-range="U+0020-FB02" units-per-em="2048" x-height="1047"/><missing-glyph d="M915 82l-284 475l-285 -475h569zM631 711l284 473h-569zM1044 0h-829v1266h829v-1266zM678 633l285 -475v950zM582 633l-285 475v-950z" horiz-adv-x="1259"/><glyph d="M915 82l-284 475l-285 -475h569zM631 711l284 473h-569zM1044 0h-829v1266h829v-1266zM678 633l285 -475v950zM582 633l-285 475v-950z" glyph-name=".notdef" horiz-adv-x="1259"/><glyph glyph-name="glyph1" horiz-adv-x="0"/><glyph glyph-name="glyph2" horiz-adv-x="681"/><glyph glyph-name="space" horiz-adv-x="436" unicode=" "/><glyph d="M383 453q-49 0 -49 65q0 20 14 124t39 345t56.5 370.5t142.5 129.5q110 0 110 -98q0 -61 -32 -181t-84 -294.5t-66 -224.5t-22.5 -82t-12.5 -46t-12 -40.5t-26 -47t-58 -20.5zM300 -23q-36 0 -88 61.5t-52 101.5t70.5 98.5t107.5 58.5t89 -61.5t52 -101.5t-71.5 -98.5 t-107.5 -58.5z" glyph-name="exclam" horiz-adv-x="651" unicode="!"/><glyph d="M731 1487q90 0 90 -72q0 -109 -100 -344q-53 -119 -96 -119q-31 0 -43.5 33t-12.5 118q1 85 17 205t54 149q38 30 91 30zM375 1487q90 0 90 -72q0 -109 -100 -344q-53 -119 -97 -119q-31 0 -43 33t-12 118t16 205q17 120 55 149q38 30 91 30z" glyph-name="quotedbl" horiz-adv-x="796" unicode="&quot;"/><glyph d="M721 717l84 260h-217l-84 -260h217zM1159 977h-227l-84 -260h227l-35 -111h-229l-133 -409h-125l133 409h-219l-133 -409h-125l131 409h-225l37 111h225l84 260h-225l36 110h226l129 400h127l-129 -400h217l129 400h127l-129 -400h227z" glyph-name="numbersign" horiz-adv-x="1310" unicode="#"/><glyph d="M117 598q27 0 39 -17.5t28.5 -61.5t34.5 -75q88 -147 268 -147q106 0 198.5 65.5t92.5 174.5q0 132 -130 188.5t-206.5 95.5t-130 108.5t-53.5 168.5q0 150 121 258t278 127l35 168q2 20 25 20h55q18 0 18 -10t-2 -21l-30 -153q174 -6 250 -82q39 -39 39 -119 q0 -164 -68 -164q-32 0 -41.5 19.5t-58 128.5t-209.5 108q-92 0 -162 -58t-70 -139t54.5 -133.5t131 -87t153.5 -72.5t131.5 -109.5t54.5 -172.5q0 -170 -142.5 -286.5t-328.5 -129.5l-35 -170q-2 -20 -25 -20h-53q-20 0 -21 16q0 4 2 15l31 155q-74 4 -144.5 21.5t-134 69 t-63.5 126.5l10 107q4 88 58 88z" glyph-name="dollar" horiz-adv-x="1146" unicode="$"/><glyph d="M1389 1462h131l-1049 -1462h-131zM657 1227q0 78 -27.5 126t-76.5 48q-76 0 -151.5 -116.5t-75.5 -313.5q0 -84 26.5 -134.5t75.5 -50.5q78 0 133 87.5t75.5 181.5t20.5 172zM412 700q-133 0 -200 78t-67 205q0 201 130.5 352.5t295.5 151.5q127 0 196 -78t69 -209 q0 -203 -131 -351.5t-293 -148.5zM1534 504q0 78 -27.5 126t-76.5 48q-76 0 -152 -116.5t-76 -313.5q0 -84 26.5 -134.5t76.5 -50.5q78 0 133 87.5t75.5 181.5t20.5 172zM1288 -23q-133 0 -199.5 78t-66.5 205q0 201 130 352.5t296 151.5q127 0 195.5 -78t68.5 -209 q0 -203 -131 -351.5t-293 -148.5z" glyph-name="percent" horiz-adv-x="1753" unicode="%"/><glyph d="M299 399q0 -131 110.5 -219t268.5 -88t274 74q-72 82 -241.5 226.5t-243.5 238.5q-72 -23 -120 -88.5t-48 -143.5zM977 698q0 48 34.5 83.5t108.5 35.5t132.5 -71.5t58.5 -190.5q0 -196 -158 -356q51 -94 51 -201q0 -152 -101.5 -266.5t-252.5 -114.5q-88 0 -140.5 44 t-52.5 99t37 86t68 31t49 -13.5t18 -31.5l-6 -35q0 -18 20.5 -37.5t69.5 -19.5t98.5 50t49.5 133t-49 167q-184 -113 -406 -113t-363 111t-141 274q0 127 88.5 220.5t223.5 132.5q-55 94 -56 198q0 158 110 260.5t242 102.5t208.5 -67.5t76.5 -155.5q0 -57 -35.5 -98.5 t-83.5 -41.5t-75 21.5t-27 37.5t26.5 36t26.5 61t-38.5 74t-101.5 33t-115 -55.5t-52 -138.5t34 -136t50.5 -78t60.5 -67t58 -56t142 -119.5t227 -234.5q78 92 77 203q0 70 -31.5 117.5t-80.5 47.5l-41 -8q-39 -1 -39 47z" glyph-name="ampersand" horiz-adv-x="1519" unicode="&amp;"/><glyph d="M373 1487q90 0 90 -72q0 -109 -101 -344q-53 -119 -96 -119q-31 0 -43 33t-12 118t16 205q17 120 55 149q38 30 91 30z" glyph-name="quotesingle" horiz-adv-x="436" unicode="'"/><glyph d="M655 -287q0 -33 -39 -32q-63 0 -151 83.5t-152 200.5q-125 227 -125 477t98.5 481.5t307.5 413.5q106 92 211 142.5t159 50.5t54 -33q0 -20 -24.5 -34.5t-85 -45.5t-115.5 -78q-182 -150 -294 -421t-112 -556q0 -391 231 -598q37 -33 37 -51z" glyph-name="parenleft" horiz-adv-x="862" unicode="("/><glyph d="M242 1497q0 33 39 33q63 0 151 -84t152 -201q125 -227 125 -477t-98.5 -481.5t-307.5 -413.5q-106 -92 -210.5 -142t-158.5 -50t-55 32q0 20 24.5 34.5t85 45.5t115.5 78q182 150 294 421t112 556q0 391 -231 598q-37 33 -37 51z" glyph-name="parenright" horiz-adv-x="864" unicode=")"/><glyph d="M463 1530q96 0 96 -68q0 -50 -19.5 -106t-23.5 -70t-7 -27.5t-5 -19.5t-5 -15.5t-6.5 -13.5t-9 -11t-23.5 -7q-17 0 -26.5 20t-18.5 54t-28.5 90t-19.5 98q0 76 96 76zM502 1169q0 10 4 15.5t6 8.5t7 7t8 7t9.5 7.5t14.5 10.5t20 13t43 29.5t49.5 35t46 23.5t48 11 t35 -12t28 -45.5t15.5 -67.5q0 -72 -144 -71l-139 -4q-51 0 -51 32zM477 1088q0 10 10.5 20t24.5 10t49 -28t75.5 -55.5t72.5 -62.5q32 -36 32 -64.5t-45 -63.5q-46 -35 -80 -35q-48 0 -80 95.5t-46 134.5t-13 49zM90 1212q0 38 14.5 69.5t28.5 43.5t34.5 12t48.5 -11 t46.5 -23.5t49 -35.5t66.5 -47t42 -34q4 -10 4 -17q0 -32 -51 -32l-140 4q-143 0 -143 71zM416 1118q14 0 24.5 -9t10.5 -20q1 -11 -13 -50t-31.5 -90.5t-29.5 -74.5q-31 -66 -66 -66t-79 36q-44 35 -45 63.5t30 63.5t73 63t76 56q36 28 50 28z" glyph-name="asterisk" horiz-adv-x="907" unicode="*"/><glyph d="M1241 766v-68q0 -25 -24 -24h-439q-12 0 -12 -10v-443q0 -25 -23 -24h-75q-23 0 -23 24v443q0 10 -12 10h-438q-23 0 -23 24v68q0 23 23 22h438q12 0 12 13v442q0 23 23 23h75q23 0 23 -23v-442q0 -12 12 -13h439q24 1 24 -22z" glyph-name="plus" horiz-adv-x="1413" unicode="+"/><glyph d="M418 78q0 -147 -164 -301q-117 -109 -193 -109q-18 0 -32.5 13.5t-14.5 30.5t13 26l43 24q45 25 77 56q63 58 63 110t-50 120q-51 68 -51 110t62.5 89.5t106.5 47.5t92 -77t48 -140z" glyph-name="comma" horiz-adv-x="591" unicode=","/><glyph d="M158 641h460q23 0 23 -18q0 -4 -2 -15l-23 -106q-4 -23 -26 -23h-463q-20 0 -21 19q1 6 3 14l22 106q4 23 27 23z" glyph-name="hyphen" horiz-adv-x="780" unicode="-"/><glyph d="M189 -23q-36 0 -88 61.5t-52 101.5t70.5 98.5t107.5 58.5t89.5 -61.5t52.5 -101.5t-72 -98.5t-108 -58.5z" glyph-name="period" horiz-adv-x="538" unicode="."/><glyph d="M1167 1530h95q12 0 12 -5t-6 -16l-1215 -1693q-12 -14 -28 -15h-93q-10 1 -10 7t6 14l1213 1696q10 12 26 12z" glyph-name="slash" horiz-adv-x="1122" unicode="/"/><glyph d="M572 84q120 0 213.5 86t137.5 211t44 279t-71 241.5t-183 87.5q-170 0 -284 -156.5t-114 -396.5q0 -164 68.5 -258t188.5 -94zM758 1092q201 0 310.5 -113t109.5 -299q0 -291 -198 -497t-456 -206q-195 0 -306.5 112t-111.5 302q0 289 201 495t451 206z" glyph-name="zero" horiz-adv-x="1245" unicode="0"/><glyph d="M629 1051q0 -7 -2 -17l-203 -1001q-6 -33 -43 -33h-127q-35 0 -35 33q0 6 2 16l139 690q23 109 23 145t-19 36l-204 -7q-53 0 -54 39q0 27 13 45q14 18 55 25q192 18 294 44t116 26q45 0 45 -41z" glyph-name="one" horiz-adv-x="720" unicode="1"/><glyph d="M115 0q-80 0 -80 63q0 217 246 359q66 37 211 94t190 78q197 90 197 227q0 68 -60.5 118t-146.5 50q-147 0 -260 -135q-18 -23 -45 -64.5t-46.5 -64.5t-41.5 -23q-51 0 -51 54t19 123t69 112t150.5 72t205.5 29q186 0 304 -85t118 -223t-127 -221q-94 -61 -343 -127.5 t-343 -136.5q-37 -27 -60.5 -57.5t-23.5 -45t16 -14.5h506q129 0 165 14t72.5 52.5t59.5 38.5q41 0 41 -37q0 -28 -14.5 -64t-32.5 -90t-41 -79t-103 -25l-297 8h-454z" glyph-name="two" horiz-adv-x="1161" unicode="2"/><glyph d="M850 764q0 100 -61.5 163.5t-170.5 63.5q-162 0 -274 -170q-10 -14 -27.5 -43.5t-34.5 -56.5t-51 -27q-55 0 -55 68q0 49 22.5 116.5t75.5 112.5q121 100 344 101q174 0 304.5 -89.5t130.5 -254.5q0 -125 -94.5 -225.5t-278.5 -129.5q-18 -2 -18 -8t14 -8 q125 -25 203.5 -108t78.5 -206q0 -178 -165.5 -318t-421.5 -140q-115 0 -215.5 33.5t-146.5 89.5t-46 152q0 95 66 95q25 0 42 -15t48 -63.5t41 -62.5q96 -125 249 -125t244.5 104.5t91.5 244.5t-73.5 207t-198.5 69l-133 -8q-47 0 -47 34l6 37q8 53 51 54l135 -9 q162 0 254 76q111 96 111 246z" glyph-name="three" horiz-adv-x="1120" unicode="3"/><glyph d="M901 164h184q20 0 21 -17q0 -4 -2 -12l-23 -112q-4 -23 -26 -23h-191q-20 0 -22 -18l-68 -332q-2 -20 -24 -21h-154q-20 0 -21 19q0 4 3 14l63 311q2 10 2 15q0 12 -18 12h-598q-27 0 -27 23q0 6 2 16l12 59q6 25 19 37q250 262 385 483.5t192 452.5q6 20 31 21h133 q16 0 17 -13q0 -4 -3 -10q-123 -418 -585 -895q-4 -4 -4 -7t8 -3h450q20 0 27 18l129 643q6 25 33 25h141q25 0 25 -19q0 -6 -2 -16l-125 -622q-2 -10 -2 -15q0 -14 18 -14z" glyph-name="four" horiz-adv-x="1208" unicode="4"/><glyph d="M944 127q0 -187 -108.5 -305.5t-223 -167.5t-242.5 -49t-264.5 47.5t-136.5 214.5q0 115 70 115q31 0 48 -27t78 -138.5t271 -111.5q162 0 252 108.5t90 216.5t-59 187q-131 178 -567 184q-18 0 -19 13q0 4 4 14l250 623q10 18 27 18h305q178 0 214 10t70.5 42t55.5 32 q37 0 37 -35q0 -6 -36 -106t-56 -112q-20 -13 -86 -13h-476q-12 0 -18 -15l-111 -272q-4 -10 -4 -14q0 -12 17 -13q380 -12 530 -196q88 -113 88 -250z" glyph-name="five" horiz-adv-x="1079" unicode="5"/><glyph d="M367 352q0 -116 64.5 -195t168.5 -79q150 0 254 156.5t104 353.5q0 131 -61 206.5t-174 75.5t-199 -90t-121.5 -201t-35.5 -227zM1167 1188q-27 0 -46 17.5t-61 67.5t-86 78.5t-116 28.5t-163 -59t-167.5 -220.5t-105.5 -307.5q0 -6 4 -7q2 0 10 11q145 203 371 202 q174 0 273.5 -112.5t99.5 -278.5q0 -248 -172 -440.5t-410 -192.5q-203 0 -320.5 148.5t-117.5 386.5q0 166 54 337t148.5 314.5t240 234.5t315.5 91t270 -78q45 -39 45 -109q0 -112 -66 -112z" glyph-name="six" horiz-adv-x="1269" unicode="6"/><glyph d="M340 -336q0 -37 -57 -37h-195q-63 1 -63 61t48.5 166.5t118.5 190.5t131.5 145.5t108.5 104.5t133 118.5t169 151.5q199 182 220 307q0 12 -18 13h-434q-172 1 -212 -11t-71 -43.5t-51 -31.5q-35 0 -35 41q0 13 13.5 48.5t29.5 88.5t40 73q26 20 95 19h795q23 0 22 -14 q0 -3 -2 -17q-35 -223 -161 -376q-59 -74 -197.5 -205t-317 -317t-180.5 -341q0 -55 35 -85t35 -50z" glyph-name="seven" horiz-adv-x="1042" unicode="7"/><glyph d="M285 307q0 -104 66.5 -167.5t176.5 -63.5q156 0 265.5 126t109.5 281q0 113 -71.5 175.5t-163.5 62.5q-150 0 -266.5 -126t-116.5 -288zM991 1196q0 92 -51 142.5t-135 50.5q-139 0 -225 -114.5t-86 -222.5t57 -160t141 -52q119 0 209 108.5t90 247.5zM848 798 q0 -9 16 -14q117 -31 185.5 -110.5t68.5 -190.5q0 -203 -179 -354.5t-435 -151.5q-197 0 -314.5 96.5t-117.5 252.5t126 275.5t294 150.5q10 2 10 10t-15 12q-86 31 -146 98.5t-60 165.5q0 170 155.5 309.5t390.5 139.5q172 0 274.5 -82t102.5 -218t-98.5 -235.5 t-239.5 -138.5q-18 -6 -18 -15z" glyph-name="eight" horiz-adv-x="1222" unicode="8"/><glyph d="M346 489q0 -121 58.5 -199.5t173.5 -78.5q150 0 254 149.5t104 339.5q0 135 -64.5 213t-173.5 78q-139 0 -245.5 -149.5t-106.5 -352.5zM115 -35q42 0 90 -96q96 -160 233 -160q295 0 443 570q2 8 2 12t-3 4t-12 -10q-147 -203 -376 -203q-166 0 -266.5 109.5 t-100.5 279.5q0 244 172 432.5t408 188.5q205 0 321.5 -146.5t116.5 -349.5q0 -272 -103.5 -500.5t-277.5 -359.5t-377 -131q-94 0 -218 43.5t-124 212.5q0 104 72 104z" glyph-name="nine" horiz-adv-x="1255" unicode="9"/><glyph d="M411 750q-36 0 -88.5 61t-52.5 101t71 98.5t108 58.5t89 -61.5t52 -101.5t-71.5 -98t-107.5 -58zM251 -23q-36 0 -88 61.5t-52 101.5t70.5 98.5t107.5 58.5t89 -61.5t52 -101.5t-71.5 -98.5t-107.5 -58.5z" glyph-name="colon" horiz-adv-x="735" unicode=":"/><glyph d="M431 750q-36 0 -88 62t-52 101t71.5 97.5t107.5 58.5t88 -61.5t52 -101.5t-71.5 -98t-107.5 -58zM446 78q0 -147 -163 -301q-117 -109 -193 -109q-18 0 -32.5 13.5t-14.5 30.5t12 26l43 24q45 25 78 56q64 58 64 110t-52 120t-51 110q0 42 62.5 89.5t107.5 47.5t92 -77 t47 -140z" glyph-name="semicolon" horiz-adv-x="729" unicode=";"/><glyph d="M1286 150q0 -25 -35 -11l-1018 449q-23 10 -22 35v84q0 27 22 34l1018 447q16 6 21 6q14 0 14 -16v-107q0 -25 -22 -35l-842 -366q-4 -2 -4 -6.5t18 -12.5l828 -360q23 -8 22 -35v-106z" glyph-name="less" horiz-adv-x="1507" unicode="&lt;"/><glyph d="M219 879v69q0 23 25 23h1022q23 0 22 -23v-69q0 -23 -22 -23h-1022q-25 0 -25 23zM219 516v68q0 25 25 24h1022q23 0 22 -24v-68q0 -23 -22 -22h-1022q-25 -1 -25 22z" glyph-name="equal" horiz-adv-x="1507" unicode="="/><glyph d="M221 1071v107q0 16 15 16q6 0 20 -6l1018 -449q23 -10 22 -34v-84q0 -27 -22 -35l-1018 -447q-14 -6 -20 -6q-14 0 -15 17v106q0 25 23 35l841 366q4 2 4 6.5t-18 12.5l-827 360q-23 8 -23 35z" glyph-name="greater" horiz-adv-x="1507" unicode=">"/><glyph d="M459 508q0 -35 35 -47q34 -12 34 -40t-36.5 -40t-79.5 -12t-82 27.5t-39 72.5q0 86 125 188q25 18 143.5 99.5t175.5 136.5q137 133 137 272q0 100 -57 158.5t-155 58.5t-170 -62.5t-72 -143.5q0 -60 50 -76t50 -48t-46 -65t-105 -33t-99.5 39t-40.5 113q0 137 140.5 259 t328.5 122t289.5 -91t101.5 -225q0 -210 -229 -368q-59 -39 -161.5 -91.5t-139.5 -76.5q-98 -66 -98 -127zM343 -23q-36 0 -88 61.5t-52 101.5t70.5 98.5t107.5 58.5t89 -61.5t52 -101.5t-71.5 -98.5t-107.5 -58.5z" glyph-name="question" horiz-adv-x="1062" unicode="?"/><glyph d="M1305 820q0 50 -65.5 87t-123.5 37t-106 -47q-88 -88 -145.5 -251t-57.5 -304t78 -141q88 0 252 233q74 109 121 222.5t47 163.5zM1980 631q0 -236 -123.5 -415t-320.5 -179q-143 0 -225 95t-82 255v12q0 8 -4 8.5t-8 -10.5q-91 -160 -203 -251t-204 -91t-146 67.5 t-54 190.5q0 223 144 455q168 268 383 268q72 0 152.5 -29.5t103.5 -29.5t52.5 29.5t47.5 29.5q35 0 35 -39q0 -22 -31 -162.5t-59 -274.5t-27 -224q0 -197 148 -197q135 1 229 157t94 361q0 276 -176 471q-113 123 -266.5 189.5t-323.5 66.5q-342 0 -583.5 -247.5 t-241.5 -598t241.5 -598t583.5 -247.5q188 0 356 83t287 232q15 20 37 20t33.5 -13t11.5 -28t-12 -34q-125 -162 -313.5 -255t-399.5 -93q-383 0 -653 271t-270 662.5t270 664t653 272.5q195 0 373 -83.5t301 -228.5q190 -231 190 -532z" glyph-name="at" horiz-adv-x="2174" unicode="@"/><glyph d="M418 590h463q16 0 16 12q0 4 -2 14l-102 564q-1 14 -7 14t-12 -10l-360 -574q-6 -8 -6 -14t10 -6zM1317 39q0 -39 -64 -39h-333q-51 0 -52 33q0 32 35 43.5t51.5 33t16.5 53.5t-17 124l-32 180q-2 16 -23 16h-545q-20 0 -28 -14q-154 -250 -154 -326q0 -35 38 -59.5 t38 -44.5q0 -39 -62 -39h-290q-53 0 -54 35q0 16 11.5 26.5t19.5 13t21 11.5q79 37 212 244l730 1126q12 20 32 21h70q23 0 25 -21l211 -1163q32 -147 54 -169t44 -34t33.5 -22.5t11.5 -28.5z" glyph-name="A" unicode="A"/><glyph d="M485 831h113q190 0 314 83t124 249q0 190 -288 195q-104 0 -148 -1t-51 -38l-88 -434q-4 -20 -4 -31q-1 -23 28 -23zM420 111h63q281 0 398 147q80 100 80 229q0 236 -361 236q-123 0 -147.5 -2t-30.5 -25l-70 -352q-30 -145 -30 -179t23.5 -44t74.5 -10zM436 0h-422 q-55 0 -55 35q0 28 46 48.5t78 66.5t62 202l162 797q23 119 23 158t-27 59q-8 6 -35.5 19.5t-27.5 35.5q0 41 67 41h387q199 0 313.5 -21t183.5 -91t69 -179q0 -156 -116 -253t-276 -119q-14 -2 -14 -12.5t12 -10.5q145 -10 230.5 -86t85.5 -219t-117 -270 q-182 -201 -629 -201z" glyph-name="B" horiz-adv-x="1327" unicode="B"/><glyph d="M699 92q187 0 341 166q14 16 41 49t55.5 63.5t61.5 30.5q45 0 45 -54t-42 -150t-124 -142q-143 -78 -348 -78q-281 0 -462 173.5t-181 457.5q0 170 70.5 330t191.5 280.5t295 194.5t378 74t318 -70q100 -60 33 -284q-16 -53 -53 -54q-27 0 -39 16.5t-31 63.5 q-39 100 -106.5 159.5t-194.5 59.5q-186 0 -336.5 -122.5t-227.5 -303t-77 -370.5t102.5 -340t289.5 -150z" glyph-name="C" horiz-adv-x="1388" unicode="C"/><glyph d="M1255 893q0 299 -208 403q-119 59 -385 60h-60q-45 0 -53 -43l-195 -967q-30 -150 -30 -182t30.5 -43.5t94.5 -11.5h45q301 -1 489 161q129 113 200.5 277t71.5 346zM1481 895q0 -346 -184.5 -542.5t-387 -274.5t-456.5 -78h-441q-53 0 -53 41q0 18 8 23.5t15.5 9.5 t10.5 6t35 17t60 58q29 43 59 197l162 797q23 109 23 149t-22.5 60t-45 32.5t-22.5 30.5q0 41 61 41h367q246 0 391.5 -33.5t245.5 -115.5q174 -141 174 -418z" glyph-name="D" horiz-adv-x="1550" unicode="D"/><glyph d="M453 707q-27 0 -33 -27l-68 -338q-27 -141 -26 -160q0 -47 35.5 -62.5t105.5 -15.5q203 0 307 48.5t177 148.5t110 100q53 0 53 -51q0 -35 -20 -80t-40 -105.5t-32 -92t-48 -58t-70 -26.5t-141.5 6t-215.5 6h-535q-53 0 -53 39q0 25 13.5 31t15.5 8t31.5 13t62.5 59 t63 202q153 758 169 830t16 121q0 48 -45 73t-45 47q0 39 67 39h537q119 0 238.5 8.5t131.5 8.5q63 0 64 -47q0 -29 -17.5 -122t-26.5 -161t-63 -68t-59.5 60.5t-27 103.5t-66.5 70q-68 41 -338 41h-80q-43 0 -51 -43l-86 -422q-6 -31 -6 -39q0 -27 39 -27q211 0 308 8.5 t124 8.5q55 0 55 -31q0 -4 -15 -46t-37 -55.5t-81 -13.5l-188 9q-63 2 -209 2z" glyph-name="E" horiz-adv-x="1263" unicode="E"/><glyph d="M442 647q-29 0 -34 -26l-54 -267q-24 -117 -24 -163q1 -81 50.5 -101.5t49.5 -48.5q0 -41 -63 -41h-359q-49 0 -49 37q0 29 45 48t79 65t64 204l160 795q23 121 23 151.5t-14.5 50t-45 30.5t-30.5 42q0 39 67 39h537q119 0 238.5 8.5t131.5 8.5q66 0 66 -47 q0 -30 -17.5 -120.5t-28.5 -160.5t-65 -70t-57.5 59.5t-25 102.5t-64.5 71t-120 35t-222 7h-80q-43 0 -51 -43l-103 -504q-2 -12 -2 -18q0 -27 39 -27q125 0 203 2l225 16q59 0 60 -32l-17 -50q-12 -39 -34.5 -52t-73.5 -13l-197 10q-63 2 -207 2z" glyph-name="F" horiz-adv-x="1206" unicode="F"/><glyph d="M1350 698q53 0 53 -36t-80 -62q-33 -16 -50.5 -58t-41.5 -159l-43 -217q-10 -51 -68 -88t-166 -69t-221 -32q-305 0 -476 183.5t-171 431.5t120 450.5t329 323.5t451 121t353 -70q61 -37 62 -117q0 -43 -12 -104q-23 -117 -70 -117q-27 0 -39 16.5t-31 63.5 q-39 102 -106.5 160.5t-194.5 58.5q-184 0 -334.5 -120.5t-227.5 -302t-77 -391.5t127 -341t318 -131q109 0 186 37q33 14 41 51l43 203q20 94 20 137q0 76 -60 89t-60 46q0 43 65 43h361z" glyph-name="G" horiz-adv-x="1488" unicode="G"/><glyph d="M1565 1462q51 0 51 -35q0 -18 -10.5 -27t-34 -19.5t-31.5 -14.5q-33 -18 -49 -58t-41 -159l-162 -795q-22 -109 -22 -164t24.5 -78.5t49 -37t24.5 -35.5q0 -39 -64 -39h-358q-49 0 -49 37q0 26 12.5 31.5t21.5 10.5t35 19t56 54q29 38 61 202l70 334q2 10 2 14 q0 18 -23 19h-677q-20 0 -23 -19q-4 -14 -34 -169.5t-47 -225.5q-15 -70 -15 -116q1 -81 50.5 -101.5t49.5 -48.5q0 -41 -63 -41h-361q-49 0 -49 39q0 21 48 47.5t73 56.5q35 47 67 211l162 795q23 109 23 158t-45 71t-45 45q0 39 65 39h324q53 0 53 -37q0 -16 -11 -25 t-34 -18.5t-33 -15.5q-31 -18 -47 -59t-41 -158l-59 -291q-2 -10 -2 -14q0 -18 22 -19h678q18 0 23 19l61 305q23 109 23 158t-45 71t-45 45q0 39 65 39h326z" glyph-name="H" horiz-adv-x="1574" unicode="H"/><glyph d="M332 191q0 -78 49 -99t49 -51q0 -41 -61 -41h-361q-49 0 -49 39q0 21 12.5 28t15.5 9t32.5 13t62.5 56t65 209l160 795q25 123 25 153t-14.5 49t-45 30t-30.5 40q0 41 63 41h326q53 0 53 -37q0 -16 -11 -25t-35 -19.5t-44 -22.5q-43 -26 -78 -209l-160 -795 q-24 -117 -24 -163z" glyph-name="I" horiz-adv-x="643" unicode="I"/><glyph d="M-389 -197q0 86 63 86q27 0 65 -38.5t87.5 -77.5t115.5 -39t126 75t98.5 211t99.5 433l131 651q29 143 29 184q0 69 -45 86t-45 49q0 39 59 39h334q53 0 53 -39q0 -25 -44 -42t-68 -54t-48 -151t-94 -472.5t-92 -445.5q-57 -231 -142 -368.5t-209 -211.5t-255 -73 q-219 0 -219 198z" glyph-name="J" horiz-adv-x="770" unicode="J"/><glyph d="M1099 -25q-76 0 -128.5 84.5t-71 120t-45 85t-43.5 84.5q-16 34 -38.5 80t-36 71.5t-32 60.5t-32 54.5t-33 48t-41.5 28.5t-39 -12l-147 -117q-14 -12 -21 -33l-37 -176q-22 -115 -22 -160q1 -83 49.5 -104t48.5 -49q0 -41 -63 -41h-359q-49 0 -49 41q0 12 4 16t7 7.5 t8.5 6.5t8.5 5t30.5 12.5t62.5 54.5q35 49 67 211l162 795q23 109 23 145q0 63 -45 82.5t-45 46.5q0 39 63 39h326q53 0 53 -37q0 -16 -11 -25t-35 -19.5t-44 -22.5q-43 -26 -78 -209l-84 -412q-2 -10 -2 -15t4 -5t19 10q440 347 515 411t130 115.5t55 94.5q0 23 -24.5 40 t-24.5 35q0 39 67 39h342q53 0 54 -37q0 -16 -12.5 -25t-43 -20.5t-43.5 -17.5q-115 -51 -372 -256l-373 -295q-6 -4 -6 -10t8 -6l35 10q37 0 82.5 -71.5t151.5 -280.5t154 -273t105 -76t57 -43t-46 -47q-117 -39 -165 -39z" glyph-name="K" horiz-adv-x="1470" unicode="K"/><glyph d="M994 401q57 0 56.5 -37.5t-20.5 -91.5t-42.5 -122.5t-52.5 -115t-116 -46.5q-16 0 -118.5 6t-208.5 6h-480q-53 0 -53 39q0 14 5 19t7 8.5t8.5 7.5t9.5 5t10 5t31 16t54 50q29 40 61 202q157 782 171 844t14 100t-12 54q-12 14 -45 33.5t-33 39.5q0 39 65 39h324 q53 0 53 -37q0 -27 -35 -41t-55 -26q-43 -26 -78 -209l-158 -787q-33 -160 -32 -184q0 -74 130 -74t217 31t132 75t77.5 87t60 73.5t53.5 30.5z" glyph-name="L" horiz-adv-x="1132" unicode="L"/><glyph d="M1520 192q0 -81 49 -102t49 -49q0 -41 -68 -41h-348q-55 0 -55 39q0 25 46.5 46t72.5 57q25 36 42 95.5t52 235.5l151 752l2 12q0 8 -7 8t-15 -12l-631 -971q-16 -25 -43 -24h-53q-27 0 -35 26l-237 973q-2 8 -8.5 8t-8.5 -8q-47 -217 -111.5 -559t-64.5 -421 t21.5 -111.5t67.5 -54.5t46 -48q0 -43 -69 -43h-338q-57 0 -58 41q0 22 19.5 33.5t66 36.5t82 113.5t76.5 285.5l162 780q4 20 4 31q0 29 -54.5 52.5t-54.5 49.5q0 39 64 39h262q51 0 59 -37l226 -901q4 -12 9 -12t11 10l594 903q25 37 70 37h252q55 0 55 -37 q0 -18 -16.5 -29.5t-52.5 -25.5t-56.5 -60t-42.5 -161l-162 -797q-22 -115 -22 -160z" glyph-name="M" horiz-adv-x="1830" unicode="M"/><glyph d="M1612 1462q61 0 61 -39t-78 -61q-53 -23 -81 -69.5t-52 -140.5t-239 -1142q-6 -25 -29 -24h-80q-20 0 -33 20l-579 1133q-6 12 -11 12t-10 -16q-158 -747 -162 -889q0 -109 80 -150q6 -2 16.5 -8t27 -14t16.5 -33q0 -41 -66 -41h-362q-61 0 -62 41q0 28 61 52t100.5 77 t70.5 171q31 117 115 535t85 427q0 32 -59 60t-69.5 37t-10.5 25q0 37 53 37h207q47 0 64 -35l565 -1101q8 -16 14 -17q10 0 13 19q106 537 133 680q49 244 19 295t-74 67t-44 51q0 41 72 41h328z" glyph-name="N" horiz-adv-x="1624" unicode="N"/><glyph d="M1350 885q0 223 -105.5 358t-294.5 135q-266 0 -449 -238t-184 -554q0 -225 104.5 -362.5t291.5 -137.5q272 0 454.5 237.5t182.5 561.5zM987 1487q276 0 436 -166t160 -428q0 -373 -269.5 -644.5t-633.5 -271.5q-276 0 -435 165t-159 429q0 371 268 643.5t633 272.5z " glyph-name="O" horiz-adv-x="1669" unicode="O"/><glyph d="M692 1358h-92q-39 0 -49 -41l-115 -559q-2 -12 -2 -21q0 -23 29 -22h84q301 -1 414 151q75 96 75 238t-89 198t-255 56zM551 610h-119q-27 0 -31 -26l-45 -226q-24 -115 -24 -162q1 -82 50.5 -105t49.5 -52q0 -39 -65 -39h-359q-49 0 -49 33t22 40.5t29 14.5q41 20 72 58 t65 212l160 791q25 123 25 153q0 55 -46 73t-46 48q0 39 61 39h383q295 0 414 -63q164 -88 164 -281q0 -151 -86 -270q-168 -238 -625 -238z" glyph-name="P" horiz-adv-x="1241" unicode="P"/><glyph d="M710 88q183 0 330.5 113.5t227.5 296t80 396.5t-105 349t-291 135t-334.5 -119.5t-225.5 -300t-77 -388.5t106 -345t289 -137zM799.5 -18.5q0.5 -4.5 24.5 -11.5t214.5 -81.5t238.5 -74.5t75.5 11t39.5 11t25 -10t13 -24t-5.5 -22.5t-23 -29t-27.5 -33.5l-18 -22 q-45 -64 -92 -64q-74 0 -173.5 43t-211.5 99q-225 102 -312 102q-51 0 -92 -22.5t-55 -22.5q-31 0 -31 28t50 64t77 50q27 12 27 16t-15 6q-207 41 -324.5 196.5t-117.5 382.5q0 344 227 601q127 145 301 229t371 84q276 0 436 -166t160 -430q0 -330 -220 -589t-554 -314 q-8 -2 -7.5 -6.5z" glyph-name="Q" horiz-adv-x="1667" unicode="Q"/><glyph d="M483 803h125q252 0 361 145q67 92 67 208t-82 158t-227 42h-123q-41 0 -49 -37l-96 -479q-2 -12 -2 -17q-1 -20 26 -20zM1176 0h-123q-78 0 -104 46t-43 112.5t-32.5 129t-27.5 107.5q-41 156 -101.5 229.5t-228.5 73.5q-38 0 -62 -4t-30 -26l-64 -310q-24 -123 -24 -167 q1 -79 49.5 -101t48.5 -49q0 -41 -61 -41h-365q-49 0 -49 37q0 19 13.5 27t19.5 14t14 6q47 26 80 66t66 208q94 471 139 693t45 252q0 56 -45 72.5t-45 47.5q0 39 61 39h451q342 0 440 -106q66 -72 66 -180q0 -174 -129 -286t-324 -130q-14 0 -14 -11t10 -14 q94 -16 147.5 -81.5t102.5 -246.5t72.5 -238.5t62.5 -82.5q37 -33 41 -45q0 -41 -57 -41z" glyph-name="R" horiz-adv-x="1363" unicode="R"/><glyph d="M494 96q133 0 241.5 82t108.5 205q0 86 -62.5 147.5t-151.5 102.5t-179.5 86t-152.5 126t-62 191t58 202.5t155 154.5q150 94 335 94q100 0 183.5 -26.5t125.5 -69.5t42 -140q0 -23 -5 -63q-14 -117 -67 -117q-33 0 -46 19.5t-25.5 50t-18.5 43.5q-88 186 -266 186 q-123 0 -201 -75t-78 -161t45 -142t112.5 -89t146.5 -72.5t146.5 -80.5t112.5 -116t45 -173q0 -195 -174 -339t-436 -145q-139 0 -242.5 40t-147.5 90.5t-44 115.5l12 127q4 100 66 101q38 0 50.5 -28t26 -63.5t25.5 -60.5q98 -203 322 -203z" glyph-name="S" horiz-adv-x="1179" unicode="S"/><glyph d="M1268 1477q72 0 71 -47q0 -13 -19.5 -127.5t-25.5 -155.5q-8 -66 -61 -66q-45 0 -59 60q0 22 -20 79.5t-70 96.5q-51 39 -216 39q-27 0 -32 -27l-197 -975q-25 -117 -25 -163q0 -82 50.5 -100t50.5 -50q0 -41 -64 -41h-360q-49 0 -49 39q0 27 45 46t79 65t64 204l195 965 q4 20 4 22q0 14 -21 15q-166 0 -236 -44t-147 -171q-56 -92 -92.5 -63.5t-36.5 46.5t20 98t31 127.5t17 69.5q18 57 96 58q16 0 130 -7.5t218 -7.5h303q106 0 223.5 7.5t133.5 7.5z" glyph-name="T" horiz-adv-x="1228" unicode="T"/><glyph d="M1556 1462q61 0 62 -39q0 -26 -25.5 -38.5t-63 -25.5t-67.5 -63t-56 -146t-132 -613q-31 -160 -86 -258q-82 -143 -227 -222.5t-347 -79.5t-338.5 93.5t-136.5 289.5q0 76 23 193l121 596q23 106 23 150t-34 69q-6 4 -32.5 17t-26.5 38q0 39 66 39h325q53 0 53 -37 q0 -16 -11 -25t-34.5 -19.5t-43.5 -22.5q-44 -27 -79 -209l-114 -574q-23 -106 -23 -174q0 -137 86 -210.5t238 -73.5q397 0 487 428q95 475 109 563t14 123q0 104 -50 126.5t-54 25.5t-13.5 10t-9.5 26q0 43 70 43h327z" glyph-name="U" horiz-adv-x="1511" unicode="U"/><glyph d="M1534 1462q53 0 53 -30t-48 -54.5t-86 -67.5t-122 -165l-739 -1139q-12 -20 -31 -20h-69q-20 0 -27 20l-211 1163q-18 90 -28.5 123.5t-28.5 51.5q-19 18 -53 37t-33 42q0 39 63 39h334q51 0 51 -33t-50 -48.5t-50 -84.5q0 -37 14 -120l162 -891q4 -35 22 -2 q227 354 459 733q141 233 141 297q0 41 -38.5 66.5t-38.5 45.5q0 37 61 37h293z" glyph-name="V" horiz-adv-x="1413" unicode="V"/><glyph d="M2269 1462q59 0 60 -39q0 -16 -11.5 -26.5t-58.5 -32.5t-94 -81q-47 -58 -107 -159l-624 -1118q-14 -20 -31 -20h-66q-23 0 -24 20l-146 1137q-2 10 -7 10t-11 -10l-645 -1137q-12 -20 -31 -20h-70q-23 0 -24 20l-117 1163q-12 141 -45 177q-14 14 -36.5 25t-35 21.5 t-12.5 28.5q0 41 72 41h319q55 0 56 -37q0 -35 -40 -46t-58.5 -38t-18.5 -61t6 -106l76 -828q4 -24 9 -24t15 16l639 1120q10 18 31 19h72q23 0 24 -19l140 -1118q4 -23 8 -23t12 12.5t373 692.5q121 232 121 280t-44 73.5t-44 45.5q0 41 63 41h305z" glyph-name="W" horiz-adv-x="2177" unicode="W"/><glyph d="M1198 0h-309q-49 0 -49 33q0 20 37.5 40.5t37.5 49.5t-26 82l-217 420q-8 14 -12.5 14t-14.5 -10q-293 -334 -354 -439q-44 -77 -0.5 -105t43.5 -46q0 -39 -62 -39h-305q-53 0 -53 37q0 26 70 58t196 169q166 172 414 465q12 16 12 20.5t-6 16.5l-240 459 q-43 80 -59.5 105.5t-34.5 37.5q-41 26 -49 32.5t-8 24.5q0 37 61 37h305q49 0 50 -32q0 -20 -37 -40t-37 -47t47 -125t186 -364q6 -12 10.5 -12t14.5 10q255 292 309 374t54 110t-33 47.5t-33 39.5q0 39 61 39h306q51 0 51 -37q0 -20 -32.5 -38.5t-45.5 -24.5 q-84 -51 -189 -164q-201 -217 -397 -446q-10 -12 -10 -20t4 -15l223 -428q59 -113 83 -148.5t59 -57.5t41 -46q0 -37 -62 -37z" glyph-name="X" horiz-adv-x="1449" unicode="X"/><glyph d="M1446 1462q57 0 57 -35q0 -25 -48 -46t-101 -73t-146 -163l-465 -567q-6 -8 -10 -25l-41 -201q-43 -196 -8 -230t59.5 -47.5t24.5 -33.5q0 -41 -63 -41h-361q-47 0 -47 37q0 19 9 26t18.5 15t21.5 8q43 23 70 57q35 49 67 209l29 144q4 16 4 21t-6 24l-215 630 q-45 133 -67 164t-54.5 48.5t-32.5 39.5q0 39 66 39h323q47 0 48 -35q0 -25 -49.5 -45.5t-49.5 -68.5q0 -49 29 -135l166 -482q6 -18 11 -18q12 0 308 375q164 211 164 270q0 33 -36 57.5t-36 42.5q0 39 60 39h301z" glyph-name="Y" horiz-adv-x="1372" unicode="Y"/><glyph d="M1102 401q18 0 34.5 -12t16.5 -36q1 -24 -23 -73t-52.5 -121t-59 -123.5t-103.5 -51.5q-14 0 -121.5 8t-224.5 8h-561q-43 0 -43 33q0 41 39 98l1018 1198q14 17 14 23t-12 6h-127q-188 0 -295.5 -11.5t-155.5 -56t-77 -95t-33 -56.5q-37 -59 -72 -60q-55 0 -55 51 q0 20 12 64t28.5 118t24.5 105q16 59 95 60q12 0 127.5 -7.5t230.5 -7.5h569q31 0 31 -22q0 -64 -37 -107l-1022 -1200q-12 -14 -12 -20t10 -7q330 0 426 12t164 60.5t158 161.5q49 61 88 61z" glyph-name="Z" horiz-adv-x="1292" unicode="Z"/><glyph d="M987 1425h-311q-27 0 -33 -26l-315 -1555q-6 -31 -6 -32q0 -25 28 -25h303q27 0 27 -23q0 -4 -2 -14l-8 -45q-6 -25 -35 -24h-500q-23 0 -22 20q0 6 4 27l360 1777q6 25 31 25h500q25 0 24 -19q0 -6 -2 -18l-8 -43q-6 -25 -35 -25z" glyph-name="bracketleft" horiz-adv-x="1001" unicode="["/><glyph d="M31 1530h119l868 -1727h-119z" glyph-name="backslash" horiz-adv-x="1048" unicode="\"/><glyph d="M-12 -215h311q27 0 33 27l315 1554q6 31 6 33q0 25 -28 24h-303q-27 0 -27 23q0 4 2 14l8 45q6 25 35 25h500q23 0 22 -21q0 -6 -4 -26l-360 -1778q-6 -25 -31 -24h-500q-25 0 -24 18q0 6 2 18l8 43q6 25 35 25z" glyph-name="bracketright" horiz-adv-x="962" unicode="]"/><glyph d="M285 950h-138q-16 0 -16 8t12 23l387 485q18 20 48 21h100q31 0 39 -21l192 -487q4 -12 4 -14q0 -14 -22 -15h-111q-31 0 -39 21l-127 329q-4 10 -10 11q-4 0 -14 -15l-258 -325q-14 -21 -47 -21z" glyph-name="asciicircum" horiz-adv-x="968" unicode="^"/><glyph d="M1298 -233q18 0 19 -15q0 -4 -2 -16l-12 -55q-2 -20 -23 -21h-1290q-16 0 -17 16q0 5 2 15l11 55q4 20 24 21h1288z" glyph-name="underscore" horiz-adv-x="1290" unicode="_"/><glyph d="M473 1487q47 0 72 -27l176 -180q12 -12 12 -21t-16 -10h-105q-38 1 -69 21l-260 184q-12 10 -13 16q0 16 23 17h180z" glyph-name="grave" horiz-adv-x="1024" unicode="`"/><glyph d="M399 410h349q18 0 18 14q0 4 -2 12l-92 367q-4 16 -12.5 15.5t-140.5 -198.5t-132 -204t12 -6zM1141 35q0 -35 -58 -35h-295q-45 0 -45 33q0 18 41 43.5t41 61.5t-26 151q-6 23 -31 22h-432q-25 0 -35 -18q-82 -127 -82 -163t34 -56.5t34 -40.5q0 -33 -54 -33h-262 q-51 0 -51 33q0 15 8.5 21.5t16 13.5t39.5 26t67 60q43 45 129 165l510 715q14 18 35 19h63q23 0 29 -23l197 -786q26 -106 44 -130t50.5 -41.5t32.5 -37.5z" glyph-name="a" horiz-adv-x="1247" unicode="a"/><glyph d="M446 104h21q166 0 259 60.5t93 183.5q0 160 -278 160h-109q-25 -4 -26 -23l-48 -227q-16 -82 -16 -110t18 -36t86 -8zM434 631q0 -20 25 -21h106q102 0 204.5 40t102.5 163q0 131 -229 131h-115q-30 0 -36 -31l-54 -256q-4 -18 -4 -26zM1042 340q0 -106 -88 -193 q-147 -147 -516 -147h-393q-53 0 -53 39q0 25 49 48t78 65t59 194l78 385q20 99 20 141q0 69 -45 89.5t-45 46.5q0 39 58 39h479q219 -1 294 -61t75 -160t-91.5 -168t-218.5 -83q-14 -2 -14 -10t12 -8q113 -6 187.5 -58.5t74.5 -158.5z" glyph-name="b" horiz-adv-x="1167" unicode="b"/><glyph d="M606 80q154 0 287 176q6 8 18.5 24.5t34.5 46t55 29.5q45 0 45 -47t-35 -145q-36 -98 -108 -133q-106 -53 -320 -53t-362.5 124.5t-148.5 333.5q0 266 210 449.5t515 183.5q217 0 301 -55q43 -28 43 -88q0 -83 -21 -148t-52 -65q-30 0 -43 16t-27.5 56t-24.5 61 q-63 119 -223 119q-201 0 -332 -165t-131 -380q0 -145 82.5 -242.5t236.5 -97.5z" glyph-name="c" horiz-adv-x="1193" unicode="c"/><glyph d="M520 944q-23 0 -24 -20l-134 -656q-25 -119 -16 -137q9 -26 139 -27q229 12 353 107q165 129 192 352q35 256 -156 340q-88 41 -354 41zM438 0h-391q-55 0 -55 39q2 25 47 47t74 55q33 49 65 205l88 440q27 129 -20 166q-6 4 -25.5 15.5t-26 19.5t-6.5 23q0 37 58 37h342 q215 0 331.5 -31t195.5 -91t115 -166t9 -237q-43 -221 -250 -371.5t-551 -150.5z" glyph-name="d" horiz-adv-x="1310" unicode="d"/><glyph d="M432 487q-27 0 -31 -26l-22 -105q-31 -147 -31 -182t23.5 -52.5t48 -19.5t76.5 -2t130 12q77 12 128 37t79.5 50.5t88.5 91.5q60 65 86 65q56 -1 57 -49q-1 -27 -19 -67t-41.5 -101.5t-54 -108t-100.5 -46.5q-8 0 -113.5 8t-222.5 8h-469q-53 0 -53 39q0 23 48 48t77 63 t61 196q76 379 87 432q11 52 11 94q0 69 -45 89.5t-45 48.5q0 37 58 37h477q111 0 228.5 7t131.5 7q78 0 78 -47q0 -8 -39 -232q-12 -74 -63 -73q-45 0 -62 49q-2 6 -17.5 63.5t-68.5 85.5q-61 37 -258 37h-108q-45 0 -54 -43l-53 -266q-2 -12 -2 -17q0 -29 39 -28 q92 0 148 2l204 16q49 0 49 -30q0 -10 -12 -43t-33.5 -45.5t-68.5 -12.5l-176 8q-53 2 -152 2z" glyph-name="e" horiz-adv-x="1191" unicode="e"/><glyph d="M424 436q-27 0 -33 -28l-14 -70q-21 -109 -21 -150t14.5 -65.5t46.5 -37.5t32 -46q0 -39 -62 -39h-340q-53 0 -53 37q0 25 47 48t76 61t61 200l80 385q20 99 20 141q1 72 -44.5 90t-45.5 48q0 37 58 37h477q111 0 228 7t137 7t33.5 -2t25.5 -13.5t12 -22.5t-39 -241 q-12 -74 -65 -73q-45 0 -60 49q0 2 -9 34.5t-20.5 61t-56.5 53.5q-61 37 -258 37h-108q-41 0 -51 -43l-64 -317q-2 -12 -2 -17q0 -29 39 -28q92 0 141 2l193 16q68 0 67 -33q0 -4 -12 -38t-33.5 -47t-70.5 -13l-170 8q-59 2 -156 2z" glyph-name="f" horiz-adv-x="1148" unicode="f"/><glyph d="M1108 481q55 0 55 -37q0 -21 -13 -28.5t-50.5 -24.5t-58.5 -63.5t-44 -157.5l-12 -59q-12 -55 -65 -78q-125 -55 -299 -56q-248 0 -398.5 128t-150.5 335q0 250 200.5 439.5t524.5 189.5q215 0 299 -53q43 -27 43 -85t-13 -120q-18 -96 -63 -96q-27 0 -39 15t-27 56 q-39 109 -105 144t-142 35q-197 0 -329 -157t-132 -370q0 -158 96.5 -254t246.5 -96t161 53q23 117 23 157t-19 62.5t-58 36t-39 43.5q0 41 58 41h350z" glyph-name="g" horiz-adv-x="1253" unicode="g"/><glyph d="M1272 1047q55 0 55 -35q0 -25 -14.5 -32t-50 -22.5t-57 -63.5t-44.5 -159l-78 -385q-23 -115 -22.5 -164t23 -73.5t46 -38t23.5 -33.5q0 -41 -63 -41h-338q-55 0 -56 39q0 23 49 47t77 62t61 198l22 115q2 10 2 14q0 14 -16 14h-467q-18 0 -21 -18l-24 -121 q-25 -117 -25 -160q0 -77 46 -98t46 -49q0 -43 -61 -43h-340q-53 0 -53 37q0 32 41 44.5t77 59.5t68 205l78 385q20 99 20 145t-21.5 66.5t-44 32.5t-22.5 33q0 39 56 39h323q55 0 56 -37q0 -22 -13.5 -29.5t-30 -15t-24.5 -11.5q-37 -20 -56.5 -64t-41.5 -155l-25 -117 q-2 -10 -2 -14q0 -14 14 -14h469q20 0 23 18l25 123q20 101 20 147t-14 60t-44 29t-30 41q0 39 57 39h322z" glyph-name="h" horiz-adv-x="1320" unicode="h"/><glyph d="M354 190q0 -79 46 -100t46 -49q0 -41 -61 -41h-340q-53 0 -53 39q0 23 46 44t77 64t63 199q76 379 87 432q11 52 11 94q0 72 -45 90t-45 48q0 37 58 37h323q55 0 56 -37q0 -22 -14.5 -29.5t-51 -22.5t-57 -63.5t-43.5 -159.5l-78 -385q-25 -117 -25 -160z" glyph-name="i" horiz-adv-x="616" unicode="i"/><glyph d="M-133 -377q-211 0 -211 201q0 31 16 52.5t44 21.5t62 -37t81 -75t115 -38t127 72q58 72 93.5 197t90.5 395q83 361 86 465q0 45 -23.5 65.5t-46 31.5t-22.5 32q0 41 59 41h326q53 0 53 -37q0 -25 -47 -45.5t-73 -66.5t-39 -120q-55 -314 -112 -556q-90 -382 -335 -531 q-117 -68 -244 -68z" glyph-name="j" horiz-adv-x="708" unicode="j"/><glyph d="M1266 1047q49 0 49 -35q0 -29 -88 -59.5t-197.5 -108.5t-327.5 -248l-20 -16q-12 -10 -12 -16t4 -5q4 0 24.5 10.5t36.5 10.5q41 0 99 -95q130 -221 164 -275t57 -75t39 -25l24 -6t13.5 -3t14.5 -5.5t9 -26.5t-37 -44q-154 -92 -203 -43t-78 98t-135 242 q-92 158 -133 157q-16 0 -32 -12l-140 -109q-20 -16 -24 -39q-19 -104 -19 -142t23.5 -62.5t46 -39t22.5 -34.5q0 -41 -61 -41h-340q-53 0 -53 39q0 31 48.5 46.5t78.5 67.5q31 52 59 193l78 385q20 101 20 149t-30 72q-12 9 -35 22t-23 34q0 39 56 39h323q55 0 56 -37 q0 -24 -30 -38t-38 -18q-37 -20 -56.5 -64t-41.5 -155l-43 -207l-2 -12q0 -8 6 -8t16 8l242 189q12 10 43 33.5t46 35.5t77.5 64.5t62.5 88.5q0 21 -24.5 39.5t-24.5 37.5q0 43 68 43h342z" glyph-name="k" horiz-adv-x="1294" unicode="k"/><glyph d="M970 356q56 0 56 -55q0 -27 -15 -57t-38 -92t-56 -115t-104 -53q-10 0 -115.5 8t-222.5 8h-428q-55 0 -55 39q0 23 47 46t77 63t62 198l78 385q20 99 20 145t-21.5 66.5t-44 32.5t-22.5 33q0 39 56 39h323q55 0 56 -37q0 -24 -30 -38t-38 -18q-37 -20 -56.5 -64 t-41.5 -155l-76 -379q-31 -147 -31 -187t32 -54.5t95 -14.5t115 11q102 16 157 52.5t125 114.5t96 78z" glyph-name="l" horiz-adv-x="1089" unicode="l"/><glyph d="M1454 1047q53 0 53 -37q0 -14 -8 -22.5t-31.5 -19t-31.5 -14.5q-39 -23 -56.5 -62.5t-42.5 -158.5l-77 -383q-25 -117 -25 -160q0 -76 46 -98t46 -53q0 -39 -61 -39h-340q-53 0 -54 39q0 23 49 48t79 69t59 190l92 463l2 14q0 6 -5 6t-11 -8l-426 -628q-16 -27 -45 -27 h-50q-29 0 -36 29l-174 626q-2 8 -10 8t-11 -16q-94 -459 -94 -545q0 -142 59.5 -169.5t59.5 -57.5q0 -41 -60 -41h-311q-61 0 -62 43q0 24 36 41.5t50 30.5q53 43 84 119.5t72 275.5l76 362q4 20 4 31q0 31 -54.5 52.5t-54.5 48.5q0 43 64 43h246q47 0 57 -39l158 -564 q8 -28 15 -28t20 18l389 576q25 37 65 37h250z" glyph-name="m" horiz-adv-x="1501" unicode="m"/><glyph d="M1335 1047q63 0 64 -41q0 -20 -17.5 -32.5t-48 -25t-49.5 -28.5q-63 -51 -106 -222t-148 -690q-2 -23 -31 -22h-69q-27 0 -41 22l-467 752q-10 16 -16.5 16t-10.5 -16q-86 -400 -86 -512t80 -154q4 -2 14.5 -7t26.5 -13t16 -35q0 -39 -59 -39h-344q-61 0 -61 39 q0 31 59 57t109.5 99.5t164.5 678.5q2 10 2 15q0 33 -63 61q-16 8 -33.5 15.5t-30 15t-12.5 25.5q0 41 60 41h192q45 0 66 -33l458 -740q10 -16 18 -16t11 18q86 440 86 514t-21.5 110t-67.5 55t-46 51q0 41 59 41h342z" glyph-name="n" horiz-adv-x="1368" unicode="n"/><glyph d="M291 432q0 -158 77.5 -253t209.5 -95q184 0 312 154.5t128 371.5q0 162 -78 258.5t-209 96.5q-174 0 -307 -148.5t-133 -384.5zM770 1069q221 0 344 -120t123 -310q0 -268 -204 -465t-496 -197q-217 0 -341 118t-124 311q0 272 207.5 467.5t490.5 195.5z" glyph-name="o" horiz-adv-x="1296" unicode="o"/><glyph d="M895 776q1 41 -21 87t-85.5 64.5t-182.5 18.5h-84q-20 0 -26 -20l-78 -385q-2 -10 -2 -15q0 -16 20 -16h74q119 2 191.5 22t132.5 84t61 160zM1112 771q0 -108 -76 -196q-141 -170 -520 -169h-102q-25 0 -27 -23q-31 -143 -31 -191q0 -81 46.5 -102t46.5 -49 q0 -41 -62 -41h-340q-53 0 -53 37q0 25 47 48t77 63t60 198l78 385q23 109 23 146q0 64 -45.5 84.5t-45.5 48.5q0 37 58 37h368q123 -2 184.5 -6.5t137.5 -28t126 -78.5t50 -163z" glyph-name="p" horiz-adv-x="1099" unicode="p"/><glyph d="M289 436q0 -160 77.5 -257t211.5 -97q178 0 309 152.5t131 379.5q0 143 -72 247t-215 104q-184 0 -313 -154t-129 -375zM1245 -164q12 0 24.5 -10t12.5 -26t-8 -28t-24.5 -31.5t-24.5 -31.5q-55 -80 -125 -80t-323 122t-355 122q-53 0 -95 -22.5t-54.5 -22.5t-21.5 9 t-9 24q0 49 151 121q8 4 8 7t-8 5q-152 35 -236.5 145.5t-84.5 266.5q0 279 207.5 471t490.5 192q221 0 344 -120t123 -310q0 -141 -63.5 -274.5t-196.5 -237.5t-309 -137q-30 -4 -11 -13q49 -14 233.5 -88.5t258.5 -74.5q27 0 55.5 11t40.5 11z" glyph-name="q" horiz-adv-x="1312" unicode="q"/><glyph d="M449 588h120q168 0 236.5 62.5t68.5 152.5q0 141 -221 141h-133q-23 0 -26 -20l-62 -308q-2 -10 -2 -14q1 -14 19 -14zM1083 37q0 -37 -59 -37h-106q-81 0 -107 42t-41.5 105.5t-34.5 120.5q-33 115 -79 160t-124 53q-37 4 -104 4q-20 0 -27 -20l-22 -115 q-25 -117 -25 -160q0 -77 46 -98t46 -51q0 -41 -61 -41h-340q-53 0 -53 39q0 23 48 48t77 63t61 196q76 379 87 432q11 52 11 94q0 69 -45 89.5t-45 48.5q0 37 58 37h461q262 0 344 -86q49 -51 49 -132q0 -119 -91.5 -194.5t-242.5 -91.5q-25 -2 -25 -9t11 -10 q74 -14 115.5 -60t87.5 -190t83 -182q6 -6 26.5 -21t20.5 -34z" glyph-name="r" horiz-adv-x="1200" unicode="r"/><glyph d="M39 219v19q0 119 63 118q20 0 34 -13t38.5 -50t44.5 -62q121 -143 289 -143q123 0 189.5 56t66.5 124t-60.5 108t-145.5 61.5t-171 48t-146.5 87t-60.5 156.5q0 135 131 237.5t309 102.5t287 -57q49 -25 65.5 -55.5t16.5 -90.5v-18q0 -106 -59 -107q-35 0 -82 70 q-111 156 -266 156q-78 0 -145.5 -41.5t-67.5 -111.5t60 -108t147.5 -58.5t174.5 -47.5t147 -89t60 -165q0 -152 -135 -260.5t-372 -108.5q-113 0 -212.5 26t-144.5 65q-55 42 -55 151z" glyph-name="s" horiz-adv-x="1085" unicode="s"/><glyph d="M1092 1061q78 0 77 -55q0 -29 -13 -103.5t-16 -102.5q-10 -91 -65 -91q-43 0 -59 49l-8 26q-9 25 -14 36t-16.5 37.5t-43.5 49.5q-51 39 -174 39q-16 0 -19 -14l-118 -582q-23 -115 -23 -159q0 -76 46 -99.5t46 -50.5q0 -41 -63 -41h-338q-55 0 -55 39q0 23 51 49.5 t79 68.5t56 189l117 576q2 10 2 14q0 12 -15 12q-145 0 -215 -43q-46 -32 -60.5 -58t-33.5 -59l-16 -32q-29 -49 -60 -49q-59 0 -59 61q0 23 19 115q19 91 31 121t33 43.5t49 13.5t140.5 -7t225.5 -7h161q113 0 226 7t125 7z" glyph-name="t" horiz-adv-x="1118" unicode="t"/><glyph d="M1315 1047q66 0 65 -39q0 -21 -15.5 -30.5t-56 -27.5t-74.5 -70.5t-57 -152.5t-44 -197q-49 -231 -107 -323q-141 -229 -461 -230q-184 0 -292.5 82t-108.5 265q0 86 26 217l39 190q33 167 13.5 195t-50 41t-30.5 41q0 39 57 39h322q55 0 55 -37q0 -23 -18 -32.5 t-52 -25.5q-35 -16 -53 -59t-43 -158l-35 -172q-31 -150 -30 -223q0 -115 70.5 -173t189.5 -58q176 0 262 97t132 302q46 206 46 286t-15.5 108t-35.5 40t-33.5 19.5t-25 14.5t-11.5 30q0 41 72 41h299z" glyph-name="u" horiz-adv-x="1339" unicode="u"/><glyph d="M1272 1047q51 0 51 -33q0 -18 -15.5 -28.5t-50 -33t-74.5 -67.5t-120 -158l-512 -719q-14 -16 -35 -16h-63q-25 0 -31 22l-193 774q-29 120 -48 144t-50 42.5t-31 39.5q0 33 56 33h297q45 0 45 -29t-41 -46.5t-41 -66.5t14 -106l137 -551q6 -23 10.5 -23.5t98.5 133.5 t196 288t126 200.5t24 77t-34 50t-34 38.5q0 35 54 35h264z" glyph-name="v" horiz-adv-x="1236" unicode="v"/><glyph d="M1163 -8q-27 0 -28 20l-131 768q-7 27 -21 4l-465 -772q-12 -20 -35 -20h-102q-29 0 -31 20l-106 740q-25 158 -42 177q-28 32 -57.5 43t-29.5 40q0 35 63 35h330q47 0 47 -33t-40 -48.5t-58.5 -45t-18.5 -93.5t78 -581q4 -18 8 -18.5t11 10.5l483 809q8 14 26 14h93 q18 0 20 -14l137 -803q4 -29 21 0l221 381q119 207 119 270q0 39 -42 65.5t-42 49.5q0 37 61 37h297q52 0 56 -35q-1 -24 -51 -48t-97 -73t-125 -176l-416 -701q-12 -23 -39 -22h-94z" glyph-name="w" horiz-adv-x="1898" unicode="w"/><glyph d="M1266 1047q59 0 59 -37q0 -21 -16.5 -31.5t-70.5 -37t-196 -165.5q-247 -247 -247 -261t54.5 -94.5t118.5 -180.5q64 -101 109 -136q14 -10 42 -28.5t28 -36.5q0 -39 -60 -39h-327q-55 0 -55 31q0 20 34.5 41.5t34.5 43.5t-22 62l-160 268q-14 20 -27 7 q-203 -211 -246 -285q-14 -24 -14 -46t32 -42.5t32 -42.5q0 -37 -62 -37h-280q-61 0 -62 39q0 22 20.5 32.5t69.5 32.5t164 136t270 278l17 19q10 12 10 18t-6 14l-121 185q-102 156 -143 188q-12 10 -34 23.5t-29 21.5t-7 21q0 39 60 39h325q55 0 55 -33q0 -18 -33.5 -39 t-33.5 -49t41 -95l133 -217q6 -8 10 -8t10 6q186 195 230 267q12 25 12 47t-30.5 41.5t-30.5 38.5q0 41 61 41h281z" glyph-name="x" horiz-adv-x="1308" unicode="x"/><glyph d="M1235 1047q57 0 57 -37q0 -29 -79.5 -58t-225.5 -178l-311 -315q-16 -16 -19 -33l-16 -82q-23 -115 -23 -156q0 -75 46.5 -96t46.5 -53q0 -39 -62 -39h-340q-53 0 -53 39q0 26 42.5 42t76.5 60q35 51 76 250q2 9 2 17t-7 20l-151 307q-67 131 -95 169t-52.5 52.5 t-36 23.5t-11.5 30q0 37 64 37h321q47 0 47 -33q0 -23 -43 -45.5t-43 -60.5t50 -136l110 -215q4 -10 9 -10t16 10l149 154q164 164 164 217q0 25 -31.5 43t-31.5 39q0 37 57 37h297z" glyph-name="y" horiz-adv-x="1204" unicode="y"/><glyph d="M1042 356q58 0 58 -51q0 -25 -18 -65t-44 -105.5t-54.5 -108t-100.5 -42.5q-14 0 -116.5 8t-219.5 8h-492q-43 0 -43 31q0 6 4 20l13 39q8 25 24 41l832 795q6 6 6 12t-12 6h-185q-223 0 -283.5 -59t-101.5 -121q-41 -57 -69 -57q-53 0 -54 53q0 26 10 68t21.5 93.5 t22.5 82.5q18 57 94 57q14 0 126.5 -7t225.5 -7h481q39 0 39 -29q0 -4 -2 -14l-8 -31q-8 -29 -31 -51l-835 -799q-8 -8 -8 -14t10 -7q201 0 303 10t172.5 49t140.5 117t94 78z" glyph-name="z" horiz-adv-x="1218" unicode="z"/><glyph d="M934 1530q27 0 27 -19q0 -4 -3 -16l-8 -43q-4 -23 -30 -22q-131 -6 -184.5 -79t-73.5 -243q-30 -262 -84 -360t-188 -138q-34 -10 -36 -14q0 -6 8 -8q84 -31 120 -78t36 -119t-46 -242.5t-46 -236.5t38 -97.5t120 -35.5q23 0 22 -19q0 -4 -2 -16l-8 -41q-6 -23 -37 -22 q-168 0 -245.5 60t-77.5 183q0 86 48 252t48 225q-1 117 -148 152q-23 4 -22 27q0 4 2 16l6 31q4 23 42 29t72.5 19t59.5 26.5t42 41t27.5 48t18.5 65.5t12.5 76t12.5 95.5t14 107.5q31 205 137.5 300t325.5 95z" glyph-name="braceleft" horiz-adv-x="1017" unicode="{"/><glyph d="M317 -395h-84q-23 0 -22 24v2134q0 23 22 23h84q23 0 23 -23v-2134q0 -24 -23 -24z" glyph-name="bar" horiz-adv-x="557" unicode="|"/><glyph d="M88 -319q-27 0 -27 18q0 4 2 16l9 43q4 23 30 23q131 6 184.5 78.5t73.5 242.5q30 264 86 362t186 136q34 10 36 14q0 6 -9 9q-84 31 -119.5 78t-35.5 118.5t46 242t46 236.5t-38 97.5t-120 36.5q-23 0 -22 18q0 4 2 16l8 41q6 23 37 23q168 0 245.5 -60.5t77.5 -183.5 q0 -86 -48 -252t-48 -225q1 -117 148 -152q23 -4 22 -26q0 -4 -2 -17l-6 -30q-4 -23 -42 -29t-73 -19.5t-59.5 -26.5t-42 -41t-27.5 -48.5t-18 -65.5t-12.5 -75.5t-12.5 -95t-14 -107.5q-31 -205 -137.5 -300t-325.5 -95z" glyph-name="braceright" horiz-adv-x="1040" unicode="}"/><glyph d="M395 786q86 0 270.5 -69.5t254.5 -69.5q96 0 157 117q13 20 23 20t16 -2l39 -12q23 -8 23 -22q0 -4 -2 -13q-94 -266 -297 -266q-98 0 -278.5 69.5t-246.5 69.5q-96 0 -161 -125q-7 -18 -19 -18t-18 2l-45 14q-18 6 -19 21q0 4 4 16q94 268 299 268z" glyph-name="asciitilde" horiz-adv-x="1269" unicode="~"/><glyph glyph-name="uni00A0" horiz-adv-x="436" unicode=" "/><glyph d="M248 639q49 0 49 -66q0 -19 -14 -123t-40 -349.5t-56.5 -370.5t-149.5 -125q-102 0 -103 98q0 61 33 181t85 294t66 224t21.5 82t12 46.5t12.5 40t26 47t58 21.5zM294 797q-36 0 -88 61.5t-52 101.5t70.5 98t107.5 58t89 -61.5t52 -101.5t-71.5 -98t-107.5 -58z" glyph-name="exclamdown" horiz-adv-x="657" unicode="¡"/><glyph d="M1006 916q0 -100 -64 -99q-31 0 -101.5 79.5t-174.5 80.5q-156 0 -264.5 -182.5t-108.5 -380.5q0 -131 61.5 -213t178.5 -82t204.5 65.5t108.5 65.5q35 0 35 -40t-112 -127t-259 -103l-33 -156q-4 -23 -26 -23h-54q-18 0 -18 19q0 4 2 14l29 146q-152 20 -237 129.5 t-85 271.5q0 240 154.5 445.5t390.5 254.5l35 174q6 23 28 23h52q20 0 20 -18q0 -4 -2 -15l-31 -153q115 0 193 -38t78 -138z" glyph-name="cent" horiz-adv-x="1038" unicode="¢"/><glyph d="M510 494q0 33 -14 94h-238q-16 0 -16 16q0 4 2 12l10 46q4 20 22 20h189q-55 162 -55 240q0 150 121 253t271 103t208 -45q37 -29 37 -90q0 -139 -66 -139q-18 0 -31.5 14t-36.5 51q-61 102 -139 102t-127 -50.5t-49 -122.5t38 -178.5t44 -137.5h289q18 0 18 -16 q0 -4 -2 -13l-10 -45q-4 -20 -25 -20h-250q2 -16 2 -49q0 -104 -68.5 -192.5t-174.5 -127.5q-16 -6 -17 -10q0 -1 100 -23t176 -22q130 0 175 51t71 51q52 0 52 -39q0 -20 -22.5 -58t-24.5 -42q-43 -98 -95 -124t-122 -26q-133 0 -371 77t-274 77t-67.5 -15.5t-43.5 -15.5 q-29 0 -29 35t92 98q35 25 91 25l114 -12q12 0 33 4q90 20 151.5 85.5t61.5 158.5z" glyph-name="sterling" horiz-adv-x="1200" unicode="£"/><glyph d="M753.5 303q118.5 0 202.5 85t84 206t-84 206t-204 85t-203.5 -85t-83.5 -206t85 -206t203.5 -85zM1354 54q0 -8 -6 -13l-39 -39q-7 -8 -15 -8t-14 6l-236 233q-127 -100 -290.5 -100t-290.5 100l-236 -233q-6 -6 -13 -6t-13 6l-39 39q-8 8 -8 15t6 14l233 233 q-109 129 -108.5 293t108.5 293l-231 231q-8 8 -8 16t8 15l35 35q10 10 17 10t15 -8l234 -232q127 100 291 100.5t290 -100.5l236 234q6 6 13 6t16 -8l37 -37q8 -8 8 -15t-8 -16l-232 -231q106 -125 106 -293t-106 -293l232 -231q8 -8 8 -16z" glyph-name="currency" horiz-adv-x="1507" unicode="¤"/><glyph d="M1399 1266q49 0 49 -31q0 -23 -44 -45t-92 -67q-48 -44 -128 -142l-170 -209q-22 -25 -2 -27h227q18 0 18 -14q0 -4 -2 -12l-8 -41q-2 -18 -22 -19h-287q-16 0 -29 -14l-96 -119q-10 -12 -10 -18t12 -6h377q16 0 16 -15q0 -2 -2 -12l-8 -41q-2 -20 -24 -20h-388 q-18 0 -20 -15l-18 -86q-34 -161 -14 -193t50.5 -44.5t30.5 -40.5q0 -35 -57 -35h-328q-45 0 -45 35q0 23 44 44t68 57t54 177l16 76l2 12q0 12 -14 13h-377q-16 0 -16 16q0 4 2 12l8 41q4 18 23 19h348q14 0 14 7t-2 13l-41 121q-6 16 -27 16h-260q-16 0 -16 15q0 4 2 14 l8 39q4 18 23 18h213q16 0 16 13q0 4 -6 20l-82 236q-45 125 -60 144t-44 35.5t-29 35.5q0 37 59 37h293q45 0 45 -31q0 -20 -21.5 -30.5t-43 -27t-21.5 -50.5t23 -101l141 -416q6 -16 9 -16t7 4q392 464 394 543q0 29 -32 50t-32 40q0 35 55 35h271z" glyph-name="yen" horiz-adv-x="1507" unicode="¥"/><glyph d="M317 784h-84q-23 0 -22 25v954q0 23 22 23h84q23 0 23 -23v-954q0 -25 -23 -25zM317 -395h-84q-23 0 -22 22v955q0 25 22 24h84q23 0 23 -24v-955q0 -22 -23 -22z" glyph-name="brokenbar" horiz-adv-x="550" unicode="¦"/><glyph d="M813 594q0 84 -68.5 134t-157.5 50t-164 -60t-75 -136t59.5 -128.5t154.5 -54.5t173 54.5t78 140.5zM846 14q0 -170 -132 -289.5t-333 -119.5q-109 0 -198 35.5t-120 87.5t-31 131q0 78 13.5 110.5t51.5 32.5t67 -59q47 -106 108.5 -165t162.5 -59t164 64.5t63 140.5 t-50.5 131.5t-122 95t-142.5 82.5t-121 112t-50 175t89 205.5t222 136.5q23 7 5 19q-176 111 -176 277t125.5 269t296.5 103t266 -84q45 -38 45 -94q0 -186 -74 -187q-34 0 -45.5 27t-21 48.5t-13.5 31.5q-63 150 -197 149q-78 0 -141 -53.5t-63 -121.5t36.5 -116.5t91 -80 t118 -70.5t117.5 -77t91 -99.5t37 -136.5q0 -125 -93 -222.5t-224 -132.5q-12 -4 -12 -8t8 -8q182 -111 182 -281z" glyph-name="section" horiz-adv-x="1191" unicode="§"/><glyph d="M797 1417q0 -33 -11.5 -70t-33.5 -53t-73 -16q-52 0 -72.5 9t-20.5 42q0 88 41 123q19 18 75 18t75.5 -10t19.5 -43zM442 1417q0 -33 -11 -70t-33 -53t-74 -16t-72.5 9t-20.5 42q0 88 41 123q23 18 77 18t73.5 -10t19.5 -43z" glyph-name="dieresis" horiz-adv-x="1034" unicode="¨"/><glyph d="M246 731.5q0 -274.5 192.5 -468t465 -193.5t465 193.5t192.5 468t-193.5 469t-465.5 194.5t-464 -194.5t-192 -469zM147 732q0 312 221.5 533.5t533.5 221.5t533.5 -221.5t221.5 -533.5t-221.5 -533.5t-533.5 -221.5t-533.5 221.5t-221.5 533.5zM1219 571q0 -25 -17 -82 q-30 -98 -104 -136t-237 -38t-282.5 94.5t-119.5 266.5q0 213 164.5 355.5t404.5 142.5q166 0 229 -44q35 -20 35 -66t-12 -108t-49 -63q-18 0 -29.5 16.5t-24 49t-22.5 51.5q-47 84 -162 84q-145 0 -255.5 -119t-110.5 -311q0 -115 62 -192t174 -77t162 54.5t88.5 108.5 t68.5 54q37 0 37 -41z" glyph-name="copyright" horiz-adv-x="1804" unicode="©"/><glyph d="M400 297q-66 0 -82.5 13.5t-16.5 47.5t12.5 74.5t30.5 52.5q20 21 86 21t82 -13t16 -45t-12 -74t-31 -57q-19 -20 -85 -20zM303 936q0 -106 64 -105q70 0 184 175q55 84 90 172t35 129t-50.5 67.5t-96.5 26.5t-83 -37q-63 -70 -103 -196t-40 -232zM846 1487q29 0 28 -35 q0 -14 -58 -269t-58 -311.5t26 -56.5q18 0 43 22.5t41 22.5q27 0 27 -24q1 -44 -63 -90t-127 -46q-106 0 -107 121q0 53 18 142q0 4 -3 4t-7 -6q-59 -109 -142 -185t-168 -76t-129 55.5t-44 157.5q0 186 104 359q133 215 326 215q55 0 122.5 -23.5t85.5 -23.5t42.5 23.5 t42.5 23.5z" glyph-name="ordfeminine" horiz-adv-x="972" unicode="ª"/><glyph d="M868 86q-8 0 -16 8l-412 445q-12 16 -12 23t14 20l594 436q12 10 20 10t7 -6q0 -6 -2 -16l-23 -109q-6 -25 -26 -41l-400 -293q-14 -10 -14 -15t6 -11l283 -306q10 -10 10 -19t-2 -19l-18 -97q-1 -10 -9 -10zM468 119q-7 0 -15 8l-357 389q-8 10 -8 20t2 21l19 88 q4 20 18 31l506 375q16 12 25 12t4 -23l-21 -106q-6 -27 -29 -41l-399 -293q-12 -10 -12 -15t6 -12l282 -307q14 -16 9 -39l-19 -90q-4 -18 -11 -18z" glyph-name="guillemotleft" horiz-adv-x="1171" unicode="«"/><glyph d="M1430 1069v-633h-130v502h-1155v131h1285z" glyph-name="logicalnot" horiz-adv-x="1654" unicode="¬"/><glyph d="M620.5 1487q206.5 0 352 -145.5t145.5 -352.5t-145.5 -352t-352 -145t-352 145t-145.5 352t145.5 352.5t352 145.5zM668 1274q213 0 213 -114q0 -50 -27 -83q-51 -66 -160 -76q-6 0 -6 -4t14 -6q60 -11 92 -111t52 -120q2 -2 13 -11t11 -18q0 -20 -30 -20h-66 q-35 0 -51 16q-14 17 -41 117t-72 117q-23 8 -50 8t-30 -11l-12 -59q-12 -69 -12 -95t24.5 -43.5t24.5 -29.5q0 -20 -33 -20h-188q-12 0 -17 2q124 -135 298 -135t293.5 120.5t119.5 290.5t-120 292t-287.5 122t-287.5 -122t-120 -283t92 -269q0 14 26.5 28.5t37.5 28.5 q18 29 34 111l43 207q10 47 10 78t-23 45t-23 26q0 20 30 21h228zM598 1034q155 0 156 105q0 53 -70 65q-25 4 -90 4q-10 0 -14 -10l-31 -143l-2 -13q0 -8 10 -8h41z" glyph-name="registered" horiz-adv-x="1161" unicode="®"/><glyph d="M899 1438q16 0 16 -13q0 -2 -2 -12l-14 -72q-6 -20 -27 -20h-581q-20 0 -21 18q0 5 2 17l13 61q2 20 26 21h588z" glyph-name="macron" horiz-adv-x="1081" unicode="¯"/><glyph d="M207 1294.5q0 -59.5 41 -101.5t100.5 -42t101.5 42t42 101.5t-42 101.5t-101.5 42t-100.5 -42t-41 -101.5zM111 1294.5q0 96.5 69.5 166t167.5 69.5t169 -69.5t71 -166t-71 -166t-169 -69.5t-167.5 69.5t-69.5 166z" glyph-name="degree" horiz-adv-x="616" unicode="°"/><glyph d="M1186 862v-69q0 -23 -23 -23h-399q-12 0 -12 -12v-375q0 -23 -23 -23h-76q-23 0 -22 23v375q0 12 -13 12h-397q-25 0 -24 23v69q0 23 24 23h397q12 0 13 12v375q0 23 22 22h76q23 0 23 -22v-375q0 -12 12 -12h399q23 0 23 -23zM197 152v69q0 23 22 23h942q23 0 23 -23 v-69q0 -23 -23 -23h-942q-22 0 -22 23z" glyph-name="plusminus" horiz-adv-x="1382" unicode="±"/><glyph d="M61 1092q-49 0 -49 43q0 150 133 247q45 33 127 74t119 68q98 66 98 151q0 43 -29.5 72t-77.5 29t-78 -28t-51.5 -60.5t-38.5 -54t-39 -21.5t-29 14t-7 49q0 86 47 123q76 55 205 55t193.5 -59t64.5 -139q0 -117 -127 -191q-59 -35 -163.5 -69.5t-141.5 -54.5t-60.5 -47 t-23.5 -39.5t17 -12.5h202q90 0 116 8t50.5 29.5t38.5 21.5q31 0 31 -30q0 -16 -14 -50t-20.5 -53.5t-17.5 -50.5t-81 -31l-156 7h-238z" glyph-name="uni00B2" horiz-adv-x="702" unicode="²"/><glyph d="M467 1669q0 109 -92 109t-147 -82t-78 -82q-41 0 -41 43q0 98 65 143q84 55 205 55t187.5 -48t66.5 -119t-57.5 -125t-155.5 -70q-16 -2 -17 -8q1 -4 17 -6q66 -8 114 -46t48 -120t-94 -162t-244 -80t-207 62q-37 39 -37 113t49 75q22 0 38 -26t19 -38q60 -104 144 -104 t125 60.5t41 115.5t-30 85t-85 30l-84 -8q-29 0 -29 26q0 12 5 29q8 41 40 41l89 -8q63 0 104 46t41 99z" glyph-name="uni00B3" horiz-adv-x="684" unicode="³"/><glyph d="M211 1249q-14 1 -14 9t14 18l246 184q35 27 82 27h188q20 0 21 -12q-1 -9 -11 -15l-340 -190q-37 -20 -75 -21h-111z" glyph-name="acute" horiz-adv-x="944" unicode="´"/><glyph d="M934 133q0 43 24 199q0 6 -6 6t-14 -12q-100 -160 -199.5 -254.5t-218.5 -94.5t-174 91q-2 6 -6 6t-6 -8l-45 -191q-16 -66 -19.5 -134.5t-9.5 -88.5q-16 -47 -91 -47t-75 49q0 31 67.5 195.5t163.5 663.5t103 523q6 25 39 31l133 23q14 2 18 2q25 0 25 -21q0 -6 -2 -16 l-129 -633q-25 -127 -25 -186q0 -119 91 -119q139 0 287 265t204 511l33 145q6 25 33 31l122 18q16 2 21 3q29 0 29 -21q0 -4 -2 -16l-117 -576q-49 -237 -49 -285t39 -49q27 0 64.5 31t57.5 31q31 0 31 -38t-65 -99q-94 -90 -197 -91q-135 0 -135 156z" glyph-name="uni00B5" horiz-adv-x="1544" unicode="µ"/><glyph d="M836 1360q-225 0 -344 -125q-98 -105 -98 -247q-1 -274 333 -273q18 0 21 14q62 385 109 478.5t120 152.5h-141zM629 -106q164 24 238 109t105.5 224t52.5 301t41 316t53.5 297t111.5 229q-137 0 -188.5 -71.5t-76 -123t-48.5 -158.5t-50 -299t-34.5 -252t-25.5 -162.5 t-30.5 -145.5t-42.5 -121.5t-106 -142.5zM936 1462h516q92 0 92 -43q0 -15 -7 -39t-21 -24q-6 0 -33 10t-65 10t-90.5 -43.5t-88.5 -198.5t-59 -360q-24 -205 -37 -285.5t-38.5 -206.5t-55 -180.5t-79.5 -128t-172.5 -125t-313.5 -51.5t-191 45q0 8 2 19l10 49q4 18 21 18 l34 -12q37 -12 84 -12t88 28.5t82.5 95.5t94.5 421l18 131q2 14 2 18q0 14 -20 14q-274 0 -401.5 96.5t-127.5 264.5q0 207 168 348q78 63 189.5 97t191.5 39t207 5z" glyph-name="paragraph" horiz-adv-x="1540" unicode="¶"/><glyph d="M286 434q-36 0 -88.5 61.5t-52.5 101.5t71 98.5t108 58.5t89 -61.5t52 -101.5t-71.5 -98.5t-107.5 -58.5z" glyph-name="periodcentered" horiz-adv-x="610" unicode="·"/><glyph d="M639 -225q0 -66 -75 -118t-179 -52q-49 0 -98 14t-49 45q0 39 43 39q10 0 42.5 -9t67.5 -9t60.5 20.5t25.5 43.5q0 41 -70.5 58.5t-70.5 56.5q0 38 90 138h106q-74 -63 -73 -94q0 -30 61.5 -39.5t90 -31t28.5 -62.5z" glyph-name="cedilla" horiz-adv-x="876" unicode="¸"/><glyph d="M53 1759q0 49 33 51q94 8 174 26t92 19q37 0 37 -34q0 -7 -2 -17l-139 -690q-2 -20 -29 -20h-108q-18 0 -19 12q0 2 2 12l105 518q12 61 12 76q0 25 -39 25l-82 -4q-37 0 -37 26z" glyph-name="uni00B9" horiz-adv-x="446" unicode="¹"/><glyph d="M364 297q-66 0 -82 13.5t-16 47.5t12.5 74.5t30.5 52.5q19 21 85 21t83 -13t17 -45t-12 -74t-32 -60t-86 -17zM451 788q106 0 172.5 112t66.5 247t-41 193.5t-108 58.5q-113 0 -177.5 -116t-64.5 -242t41 -189.5t111 -63.5zM571 1487q141 0 219 -83t78 -218 q0 -186 -129 -336t-319 -150q-139 0 -218 83t-79 221q0 201 135 342t313 141z" glyph-name="ordmasculine" horiz-adv-x="946" unicode="º"/><glyph d="M271 1063q7 0 16 -8l411 -445q12 -14 12.5 -22t-14.5 -21l-594 -436q-12 -10 -19 -10t-7 6t2 16l22 109q6 25 27 41l399 293q20 15 9 26l-283 306q-10 10 -10 19t2 19l18 97q2 10 9 10zM670 1030q8 0 16 -8l356 -389q11 -14 7 -41l-19 -88q-4 -20 -18 -31l-506 -375 q-16 -12 -24 -12t-7 6q0 6 2 17l21 106q6 27 28 41l400 293q12 8 12 14t-6 12l-283 308q-10 13 -10 21t2 18l18 90q3 18 11 18z" glyph-name="guillemotright" horiz-adv-x="1144" unicode="»"/><glyph d="M301 1391q0 49 33 51q94 8 174 26t92 19q37 0 37 -35q0 -6 -2 -16l-139 -691q-2 -20 -29 -20h-109q-18 0 -18 12q0 2 2 13l104 518q12 61 13 75q0 25 -39 25l-82 -4q-37 0 -37 27zM1272 270h71q20 0 21 -18q0 -4 -2 -14l-12 -58q-2 -20 -27 -20h-74q-16 0 -20 -17 l-25 -120q-6 -25 -28 -25h-105q-20 0 -20 20q0 4 2 15l20 100q2 10 2 14q0 12 -14 13h-334q-23 0 -22 18q0 2 2 15l12 59q6 33 31 53q242 193 297 436q6 20 24 21h109q12 0 12 -5t-2 -16q-51 -238 -344 -456q-6 -3 -6 -9t8 -6h235q18 0 21 17l67 331q4 23 25 23h109 q20 0 20 -18q0 -4 -2 -15l-63 -311q-2 -11 -2 -19t14 -8zM1133 1266h141l-934 -1069h-141z" glyph-name="onequarter" horiz-adv-x="1513" unicode="¼"/><glyph d="M582 1487q37 0 36 -35q0 -6 -2 -16l-139 -691q-2 -20 -28 -20h-109q-18 0 -18 12q0 2 2 13l104 518q12 61 12 75q0 25 -39 25l-82 -4q-37 0 -36 27q0 49 32 51q94 8 175 26t92 19zM883 0q-49 0 -49 43q0 150 133 248q45 33 127 74t118 67q98 66 99 152q0 43 -30 71.5 t-78 28.5q-47 0 -77 -28t-51.5 -60.5t-39 -54t-39.5 -21.5t-28.5 14.5t-6.5 49.5q0 86 47 123q76 55 204 55t193 -59.5t65 -139.5q0 -117 -127 -190q-59 -35 -163.5 -70t-141.5 -55t-60.5 -47t-23.5 -39t17 -12h203q90 0 115 8t50 29.5t39 21.5q31 0 31 -31q1 -16 -13 -50 t-21 -53.5t-18.5 -50t-80.5 -30.5l-156 6h-237zM1133 1266h141l-934 -1069h-141z" glyph-name="onehalf" horiz-adv-x="1585" unicode="½"/><glyph d="M1417 270h72q20 0 20 -18q0 -4 -2 -14l-12 -58q-2 -20 -27 -20h-73q-16 0 -21 -17l-24 -120q-6 -25 -29 -25h-104q-20 0 -21 20q0 4 2 15l21 100q2 10 2 14q0 12 -15 13h-334q-23 0 -22 18q0 2 2 15l12 59q6 33 31 53q242 193 297 436q6 20 25 21h108q12 0 12 -5t-2 -16 q-51 -238 -344 -456q-6 -3 -6 -9t8 -6h236q18 0 20 17l68 331q4 23 24 23h109q20 0 20 -18q0 -4 -2 -15l-63 -311q-2 -10 -2 -14q0 -13 14 -13zM616 1302q0 108 -90 109q-90 0 -147 -82t-80 -82q-41 0 -41 43q0 98 66 144q84 55 204 55t187 -48t67 -119t-57 -125t-156 -71 q-16 -2 -16 -7t16 -7q66 -8 114 -46t48 -120t-93.5 -161.5t-243.5 -79.5t-208 61q-36 39 -36 114t49 74q36 0 57 -63q59 -105 143 -105t125 60t41 116t-29.5 85.5t-84.5 29.5l-84 -8q-29 0 -29 27q0 69 45 69l88 -8q63 0 104 45.5t41 99.5zM1286 1266h141l-933 -1069h-142z " glyph-name="threequarters" horiz-adv-x="1658" unicode="¾"/><glyph d="M604 584q0 35 -35 47t-35 40t37 40t80 12t82 -27.5t39 -72.5q0 -86 -125 -189q-25 -18 -143.5 -99t-175.5 -136q-137 -133 -138 -273q0 -100 57.5 -158.5t155.5 -58.5t170 62.5t72 144.5q0 60 -50 76t-50 48t46 64.5t105 32.5t99.5 -39t40.5 -112q0 -137 -140 -259 t-328 -122t-290.5 91t-102.5 224q1 211 230 369q59 39 161.5 91t139.5 77q98 66 98 127zM685 797q-36 0 -88 61.5t-52 101.5t70.5 98t107.5 58t89 -61.5t52 -101.5t-71.5 -98t-107.5 -58z" glyph-name="questiondown" horiz-adv-x="1067" unicode="¿"/><glyph d="M682 1853q0 16 23 17h180q47 0 71 -27l177 -180q12 -12 12 -21t-17 -10h-104q-39 1 -70 21l-260 184q-12 10 -12 16zM418 590h463q16 0 16 12q0 4 -2 14l-102 564q-1 14 -7 14t-12 -10l-360 -574q-6 -8 -6 -14t10 -6zM1317 39q0 -39 -64 -39h-333q-51 0 -52 33 q0 32 35 43.5t51.5 33t16.5 53.5t-17 124l-32 180q-2 16 -23 16h-545q-20 0 -28 -14q-154 -250 -154 -326q0 -35 38 -59.5t38 -44.5q0 -39 -62 -39h-290q-53 0 -54 35q0 16 11.5 26.5t19.5 13t21 11.5q79 37 212 244l730 1126q12 20 32 21h70q23 0 25 -21l211 -1163 q32 -147 54 -169t44 -34t33.5 -22.5t11.5 -28.5z" glyph-name="Agrave" unicode="À"/><glyph d="M651 1632q-14 0 -14 8t14 19l246 184q35 27 82 27h188q20 0 21 -12q0 -9 -10 -15l-340 -190q-35 -20 -76 -21h-111zM418 590h463q16 0 16 12q0 4 -2 14l-102 564q-1 14 -7 14t-12 -10l-360 -574q-6 -8 -6 -14t10 -6zM1317 39q0 -39 -64 -39h-333q-51 0 -52 33 q0 32 35 43.5t51.5 33t16.5 53.5t-17 124l-32 180q-2 16 -23 16h-545q-20 0 -28 -14q-154 -250 -154 -326q0 -35 38 -59.5t38 -44.5q0 -39 -62 -39h-290q-53 0 -54 35q0 16 11.5 26.5t19.5 13t21 11.5q79 37 212 244l730 1126q12 20 32 21h70q23 0 25 -21l211 -1163 q32 -147 54 -169t44 -34t33.5 -22.5t11.5 -28.5z" glyph-name="Aacute" unicode="Á"/><glyph d="M715 1612h-94q-25 0 -3 22l224 217q18 18 39 19h127q20 0 32 -19l136 -217q6 -8 6 -15t-13 -7h-77q-16 0 -29 14l-115 141q-10 12 -16 12.5t-17 -10.5l-165 -145q-15 -12 -35 -12zM418 590h463q16 0 16 12q0 4 -2 14l-102 564q-1 14 -7 14t-12 -10l-360 -574 q-6 -8 -6 -14t10 -6zM1317 39q0 -39 -64 -39h-333q-51 0 -52 33q0 32 35 43.5t51.5 33t16.5 53.5t-17 124l-32 180q-2 16 -23 16h-545q-20 0 -28 -14q-154 -250 -154 -326q0 -35 38 -59.5t38 -44.5q0 -39 -62 -39h-290q-53 0 -54 35q0 16 11.5 26.5t19.5 13t21 11.5 q79 37 212 244l730 1126q12 20 32 21h70q23 0 25 -21l211 -1163q32 -147 54 -169t44 -34t33.5 -22.5t11.5 -28.5z" glyph-name="Acircumflex" unicode="Â"/><glyph d="M770 1880q55 0 170 -43t165 -43t91 72q8 12 14 12t15 -2l22 -6q23 -6 23 -17q0 -4 -2 -10q-61 -178 -199 -178q-68 0 -178.5 43t-159.5 43t-90 -76q-7 -14 -15 -14t-14 2l-26 8q-25 8 -17 31q66 178 201 178zM418 590h463q16 0 16 12q0 4 -2 14l-102 564q-1 14 -7 14 t-12 -10l-360 -574q-6 -8 -6 -14t10 -6zM1317 39q0 -39 -64 -39h-333q-51 0 -52 33q0 32 35 43.5t51.5 33t16.5 53.5t-17 124l-32 180q-2 16 -23 16h-545q-20 0 -28 -14q-154 -250 -154 -326q0 -35 38 -59.5t38 -44.5q0 -39 -62 -39h-290q-53 0 -54 35q0 16 11.5 26.5 t19.5 13t21 11.5q79 37 212 244l730 1126q12 20 32 21h70q23 0 25 -21l211 -1163q32 -147 54 -169t44 -34t33.5 -22.5t11.5 -28.5z" glyph-name="Atilde" unicode="Ã"/><glyph d="M1204 1753q0 -33 -11 -70t-33 -53t-74 -16t-72.5 9t-20.5 42q0 88 41 123q23 18 77 18t73.5 -10t19.5 -43zM850 1753q0 -33 -11 -70t-33 -53t-74 -16t-72.5 9t-20.5 42q0 88 41 123q20 18 76 18t75 -10t19 -43zM418 590h463q16 0 16 12q0 4 -2 14l-102 564q-1 14 -7 14 t-12 -10l-360 -574q-6 -8 -6 -14t10 -6zM1317 39q0 -39 -64 -39h-333q-51 0 -52 33q0 32 35 43.5t51.5 33t16.5 53.5t-17 124l-32 180q-2 16 -23 16h-545q-20 0 -28 -14q-154 -250 -154 -326q0 -35 38 -59.5t38 -44.5q0 -39 -62 -39h-290q-53 0 -54 35q0 16 11.5 26.5 t19.5 13t21 11.5q79 37 212 244l730 1126q12 20 32 21h70q23 0 25 -21l211 -1163q32 -147 54 -169t44 -34t33.5 -22.5t11.5 -28.5z" glyph-name="Adieresis" unicode="Ä"/><glyph d="M418 590h463q16 0 16 12q0 4 -2 14l-102 564q-1 14 -7 14t-12 -10l-360 -574q-6 -8 -6 -14t10 -6zM1317 39q0 -39 -64 -39h-333q-51 0 -52 33q0 32 35 43.5t51.5 33t16.5 53.5t-17 124l-32 180q-2 16 -23 16h-545q-20 0 -28 -14q-154 -250 -154 -326q0 -35 38 -59.5 t38 -44.5q0 -39 -62 -39h-290q-53 0 -54 35q0 16 11.5 26.5t19.5 13t21 11.5q79 37 212 244l730 1126q12 20 32 21h70q23 0 25 -21l211 -1163q32 -147 54 -169t44 -34t33.5 -22.5t11.5 -28.5zM807 1683.5q0 -45.5 30.5 -76t74.5 -30.5t75 30.5t31 76t-31 77t-75 31.5 t-74.5 -31.5t-30.5 -77zM727 1683.5q0 75.5 54.5 130t132 54.5t132 -54.5t54.5 -130t-54.5 -129t-132 -53.5t-132 53.5t-54.5 129z" glyph-name="Aring" unicode="Å"/><glyph d="M1123 1298q-5 0 -15 -10q-558 -626 -584 -656t-26 -36t10 -6h453q24 -1 30 22l135 668l2 12q0 6 -5 6zM1245 707q-27 0 -33 -27l-63 -318q-33 -160 -33 -196t38 -49t126 -13t188 18q99 18 160.5 62.5t143.5 153.5q48 63 76 63q58 0 59 -53q1 -33 -19 -76t-45 -118.5 t-54 -120.5t-114 -45q-18 0 -122.5 6t-213.5 6h-534q-53 0 -53 39q0 14 5 19t7 8.5t8 7.5t9 5t11 5l32 16t48 44t38 84.5t32 143.5t18 101t-20 10h-518q-25 0 -39 -16q-141 -165 -191 -233t-49 -100q0 -32 34 -53.5t34 -41.5q0 -39 -59 -39h-312q-59 0 -59 37 q0 26 17.5 35.5t72.5 37t182 166.5q170 180 476.5 522.5t459.5 518.5q12 14 12 24q0 20 -55 37t-55 45q0 39 57 39h688q119 0 239 8.5t132 8.5q63 0 64 -47q0 -16 -21 -141t-22 -136q-10 -74 -62 -74q-45 1 -55 49q-20 98 -39.5 127t-53.5 56t-114 35t-231 8h-80 q-41 0 -52 -43l-90 -443q-2 -12 -2 -18q0 -27 37 -27q222 0 312 9.5t112 9.5q66 0 66 -33q0 -8 -14 -48t-36 -53.5t-81 -13.5l-218 9q-61 2 -182 2z" glyph-name="AE" horiz-adv-x="2056" unicode="Æ"/><glyph d="M699 92q187 0 341 166q14 16 41 49t55.5 63.5t61.5 30.5q45 0 45 -54t-42 -150t-124 -142q-143 -78 -348 -78h-8q-45 -45 -45 -66t28.5 -31.5t61.5 -15.5t61.5 -26.5t28.5 -62.5q0 -66 -74.5 -118t-179.5 -52q-49 0 -98 14t-49 45q0 39 43 39q10 0 42.5 -9t67.5 -9 t60.5 20.5t25.5 43.5q0 41 -70.5 58.5t-70.5 56.5q0 38 74 120q-242 31 -391.5 198.5t-149.5 425.5q0 170 70.5 330t191.5 280.5t295 194.5t378 74t318 -70q100 -60 33 -284q-16 -53 -53 -54q-27 0 -39 16.5t-31 63.5q-39 100 -106.5 159.5t-194.5 59.5 q-186 0 -336.5 -122.5t-227.5 -303t-77 -370.5t102.5 -340t289.5 -150z" glyph-name="Ccedilla" horiz-adv-x="1388" unicode="Ç"/><glyph d="M725 1870q47 0 72 -27l176 -180q12 -12 12 -21t-16 -10h-105q-38 1 -69 21l-260 184q-12 10 -13 16q0 16 23 17h180zM453 707q-27 0 -33 -27l-68 -338q-27 -141 -26 -160q0 -47 35.5 -62.5t105.5 -15.5q203 0 307 48.5t177 148.5t110 100q53 0 53 -51q0 -35 -20 -80 t-40 -105.5t-32 -92t-48 -58t-70 -26.5t-141.5 6t-215.5 6h-535q-53 0 -53 39q0 25 13.5 31t15.5 8t31.5 13t62.5 59t63 202q153 758 169 830t16 121q0 48 -45 73t-45 47q0 39 67 39h537q119 0 238.5 8.5t131.5 8.5q63 0 64 -47q0 -29 -17.5 -122t-26.5 -161t-63 -68 t-59.5 60.5t-27 103.5t-66.5 70q-68 41 -338 41h-80q-43 0 -51 -43l-86 -422q-6 -31 -6 -39q0 -27 39 -27q211 0 308 8.5t124 8.5q55 0 55 -31q0 -4 -15 -46t-37 -55.5t-81 -13.5l-188 9q-63 2 -209 2z" glyph-name="Egrave" horiz-adv-x="1263" unicode="È"/><glyph d="M569 1632q-14 0 -14 8t14 19l246 184q35 27 82 27h188q20 0 21 -12q0 -9 -10 -15l-340 -190q-35 -20 -76 -21h-111zM453 707q-27 0 -33 -27l-68 -338q-27 -141 -26 -160q0 -47 35.5 -62.5t105.5 -15.5q203 0 307 48.5t177 148.5t110 100q53 0 53 -51q0 -35 -20 -80 t-40 -105.5t-32 -92t-48 -58t-70 -26.5t-141.5 6t-215.5 6h-535q-53 0 -53 39q0 25 13.5 31t15.5 8t31.5 13t62.5 59t63 202q153 758 169 830t16 121q0 48 -45 73t-45 47q0 39 67 39h537q119 0 238.5 8.5t131.5 8.5q63 0 64 -47q0 -29 -17.5 -122t-26.5 -161t-63 -68 t-59.5 60.5t-27 103.5t-66.5 70q-68 41 -338 41h-80q-43 0 -51 -43l-86 -422q-6 -31 -6 -39q0 -27 39 -27q211 0 308 8.5t124 8.5q55 0 55 -31q0 -4 -15 -46t-37 -55.5t-81 -13.5l-188 9q-63 2 -209 2z" glyph-name="Eacute" horiz-adv-x="1263" unicode="É"/><glyph d="M606 1612h-94q-12 0 -12 6t10 16l223 217q18 18 39 19h127q20 0 33 -19l135 -217q6 -8 6 -15t-12 -7h-78q-16 0 -29 14l-114 141q-17 20 -33 2l-166 -145q-15 -12 -35 -12zM453 707q-27 0 -33 -27l-68 -338q-27 -141 -26 -160q0 -47 35.5 -62.5t105.5 -15.5 q203 0 307 48.5t177 148.5t110 100q53 0 53 -51q0 -35 -20 -80t-40 -105.5t-32 -92t-48 -58t-70 -26.5t-141.5 6t-215.5 6h-535q-53 0 -53 39q0 25 13.5 31t15.5 8t31.5 13t62.5 59t63 202q153 758 169 830t16 121q0 48 -45 73t-45 47q0 39 67 39h537q119 0 238.5 8.5 t131.5 8.5q63 0 64 -47q0 -29 -17.5 -122t-26.5 -161t-63 -68t-59.5 60.5t-27 103.5t-66.5 70q-68 41 -338 41h-80q-43 0 -51 -43l-86 -422q-6 -31 -6 -39q0 -27 39 -27q211 0 308 8.5t124 8.5q55 0 55 -31q0 -4 -15 -46t-37 -55.5t-81 -13.5l-188 9q-63 2 -209 2z" glyph-name="Ecircumflex" horiz-adv-x="1263" unicode="Ê"/><glyph d="M1079 1753q0 -33 -11 -70t-33 -53t-74 -16t-72.5 9t-20.5 42q0 88 41 123q19 18 75 18t75.5 -10t19.5 -43zM725 1753q0 -33 -11.5 -70t-33.5 -53t-73 -16q-52 0 -72.5 9t-20.5 42q0 88 41 123q23 18 77 18t73.5 -10t19.5 -43zM453 707q-27 0 -33 -27l-68 -338 q-27 -141 -26 -160q0 -47 35.5 -62.5t105.5 -15.5q203 0 307 48.5t177 148.5t110 100q53 0 53 -51q0 -35 -20 -80t-40 -105.5t-32 -92t-48 -58t-70 -26.5t-141.5 6t-215.5 6h-535q-53 0 -53 39q0 25 13.5 31t15.5 8t31.5 13t62.5 59t63 202q153 758 169 830t16 121 q0 48 -45 73t-45 47q0 39 67 39h537q119 0 238.5 8.5t131.5 8.5q63 0 64 -47q0 -29 -17.5 -122t-26.5 -161t-63 -68t-59.5 60.5t-27 103.5t-66.5 70q-68 41 -338 41h-80q-43 0 -51 -43l-86 -422q-6 -31 -6 -39q0 -27 39 -27q211 0 308 8.5t124 8.5q55 0 55 -31q0 -4 -15 -46 t-37 -55.5t-81 -13.5l-188 9q-63 2 -209 2z" glyph-name="Edieresis" horiz-adv-x="1263" unicode="Ë"/><glyph d="M473 1870q47 0 72 -27l176 -180q12 -12 12 -21t-16 -10h-105q-38 1 -69 21l-260 184q-12 10 -13 16q0 16 23 17h180zM332 191q0 -78 49 -99t49 -51q0 -41 -61 -41h-361q-49 0 -49 39q0 21 12.5 28t15.5 9t32.5 13t62.5 56t65 209l160 795q25 123 25 153t-14.5 49t-45 30 t-30.5 40q0 41 63 41h326q53 0 53 -37q0 -16 -11 -25t-35 -19.5t-44 -22.5q-43 -26 -78 -209l-160 -795q-24 -117 -24 -163z" glyph-name="Igrave" horiz-adv-x="643" unicode="Ì"/><glyph d="M246 1632q-14 0 -15 10q0 6 15 17l246 184q35 27 81 27h189q20 0 20 -10t-10 -17l-340 -190q-37 -20 -76 -21h-110zM332 191q0 -78 49 -99t49 -51q0 -41 -61 -41h-361q-49 0 -49 39q0 21 12.5 28t15.5 9t32.5 13t62.5 56t65 209l160 795q25 123 25 153t-14.5 49t-45 30 t-30.5 40q0 41 63 41h326q53 0 53 -37q0 -16 -11 -25t-35 -19.5t-44 -22.5q-43 -26 -78 -209l-160 -795q-24 -117 -24 -163z" glyph-name="Iacute" horiz-adv-x="643" unicode="Í"/><glyph d="M315 1612h-94q-12 0 -12 6t10 16l223 217q18 18 39 19h127q20 0 33 -19l135 -217q6 -8 6 -15t-12 -7h-78q-16 0 -28 14l-115 141q-17 20 -33 2l-166 -145q-15 -12 -35 -12zM332 191q0 -78 49 -99t49 -51q0 -41 -61 -41h-361q-49 0 -49 39q0 21 12.5 28t15.5 9t32.5 13 t62.5 56t65 209l160 795q25 123 25 153t-14.5 49t-45 30t-30.5 40q0 41 63 41h326q53 0 53 -37q0 -16 -11 -25t-35 -19.5t-44 -22.5q-43 -26 -78 -209l-160 -795q-24 -117 -24 -163z" glyph-name="Icircumflex" horiz-adv-x="643" unicode="Î"/><glyph d="M797 1753q0 -33 -11.5 -70t-33.5 -53t-73 -16q-52 0 -72.5 9t-20.5 42q0 88 41 123q19 18 75 18t75.5 -10t19.5 -43zM442 1753q0 -33 -11 -70t-33 -53t-74 -16t-72.5 9t-20.5 42q0 88 41 123q23 18 77 18t73.5 -10t19.5 -43zM332 191q0 -78 49 -99t49 -51q0 -41 -61 -41 h-361q-49 0 -49 39q0 21 12.5 28t15.5 9t32.5 13t62.5 56t65 209l160 795q25 123 25 153t-14.5 49t-45 30t-30.5 40q0 41 63 41h326q53 0 53 -37q0 -16 -11 -25t-35 -19.5t-44 -22.5q-43 -26 -78 -209l-160 -795q-24 -117 -24 -163z" glyph-name="Idieresis" horiz-adv-x="643" unicode="Ï"/><glyph d="M381 162q0 -30 32.5 -41.5t110.5 -11.5h21q307 -1 495 161q129 113 201 277t72 346q0 301 -211 405q-117 57 -383 58h-60q-45 0 -53 -43l-96 -479q-2 -10 -2 -15q0 -12 14 -12q63 0 140 7t104 7q74 0 74 -37q0 -4 -6 -40t-23.5 -50t-58.5 -14l-254 8q-18 0 -21 -16 l-65 -326q-31 -154 -31 -184zM299 1421q0 41 61 41h367q246 0 391.5 -33.5t245.5 -115.5q174 -137 174 -414q0 -162 -65.5 -325.5t-176.5 -280.5q-279 -293 -786 -293h-440q-53 0 -54 41q0 18 8.5 23.5t15.5 9.5t10 6t33 16t52 47q39 59 70 209l61 310q2 10 2 14 q0 12 -16 12l-197 -10q-61 0 -61 33l10 47q6 33 21.5 46t52.5 13l201 -10q18 0 20 18l66 324q25 123 25 161t-36 60q-8 4 -20 11.5t-23.5 14.5t-11.5 25z" glyph-name="Eth" horiz-adv-x="1607" unicode="Ð"/><glyph d="M848 1880q55 0 170 -43t165 -43t91 72q8 12 14 12t15 -2l22 -6q23 -6 23 -17q0 -4 -2 -10q-61 -178 -199 -178q-68 0 -178.5 43t-159.5 43t-90 -76q-7 -14 -15 -14t-14 2l-26 8q-25 8 -17 31q66 178 201 178zM1612 1462q61 0 61 -39t-78 -61q-53 -23 -81 -69.5 t-52 -140.5t-239 -1142q-6 -25 -29 -24h-80q-20 0 -33 20l-579 1133q-6 12 -11 12t-10 -16q-158 -747 -162 -889q0 -109 80 -150q6 -2 16.5 -8t27 -14t16.5 -33q0 -41 -66 -41h-362q-61 0 -62 41q0 28 61 52t100.5 77t70.5 171q31 117 115 535t85 427q0 32 -59 60t-69.5 37 t-10.5 25q0 37 53 37h207q47 0 64 -35l565 -1101q8 -16 14 -17q10 0 13 19q106 537 133 680q49 244 19 295t-74 67t-44 51q0 41 72 41h328z" glyph-name="Ntilde" horiz-adv-x="1624" unicode="Ñ"/><glyph d="M809 1853q0 16 22 17h181q47 0 71 -27l177 -180q12 -12 12 -21t-17 -10h-104q-39 1 -70 21l-260 184q-12 10 -12 16zM1350 885q0 223 -105.5 358t-294.5 135q-266 0 -449 -238t-184 -554q0 -225 104.5 -362.5t291.5 -137.5q272 0 454.5 237.5t182.5 561.5zM987 1487 q276 0 436 -166t160 -428q0 -373 -269.5 -644.5t-633.5 -271.5q-276 0 -435 165t-159 429q0 371 268 643.5t633 272.5z" glyph-name="Ograve" horiz-adv-x="1669" unicode="Ò"/><glyph d="M760 1632q-14 0 -15 10q0 6 15 17l246 184q35 27 81 27h189q20 0 20 -10t-10 -17l-340 -190q-37 -20 -76 -21h-110zM1350 885q0 223 -105.5 358t-294.5 135q-266 0 -449 -238t-184 -554q0 -225 104.5 -362.5t291.5 -137.5q272 0 454.5 237.5t182.5 561.5zM987 1487 q276 0 436 -166t160 -428q0 -373 -269.5 -644.5t-633.5 -271.5q-276 0 -435 165t-159 429q0 371 268 643.5t633 272.5z" glyph-name="Oacute" horiz-adv-x="1669" unicode="Ó"/><glyph d="M840 1612h-95q-12 0 -12 6t10 16l224 217q18 18 39 19h127q20 0 32 -19l135 -217q6 -8 7 -12q0 -10 -13 -10h-77q-16 0 -29 14l-115 141q-10 12 -16 12.5t-17 -10.5l-166 -145q-14 -12 -34 -12zM1350 885q0 223 -105.5 358t-294.5 135q-266 0 -449 -238t-184 -554 q0 -225 104.5 -362.5t291.5 -137.5q272 0 454.5 237.5t182.5 561.5zM987 1487q276 0 436 -166t160 -428q0 -373 -269.5 -644.5t-633.5 -271.5q-276 0 -435 165t-159 429q0 371 268 643.5t633 272.5z" glyph-name="Ocircumflex" horiz-adv-x="1669" unicode="Ô"/><glyph d="M684 1690q0 6 2 12q66 178 201 178q55 0 169.5 -43t164.5 -43t92 72q8 12 14 12t14 -2l23 -6q23 -6 22 -17q0 -4 -2 -10q-61 -178 -198 -178q-68 0 -178.5 43t-159.5 43t-90 -76q-8 -14 -16 -14t-13 2l-27 8q-18 6 -18 19zM1350 885q0 223 -105.5 358t-294.5 135 q-266 0 -449 -238t-184 -554q0 -225 104.5 -362.5t291.5 -137.5q272 0 454.5 237.5t182.5 561.5zM987 1487q276 0 436 -166t160 -428q0 -373 -269.5 -644.5t-633.5 -271.5q-276 0 -435 165t-159 429q0 371 268 643.5t633 272.5z" glyph-name="Otilde" horiz-adv-x="1669" unicode="Õ"/><glyph d="M1290 1753q0 -33 -11 -70t-33 -53t-74 -16t-72.5 9t-20.5 42q0 88 41 123q23 18 77 18t73.5 -10t19.5 -43zM936 1753q0 -33 -11 -70t-33 -53t-74 -16t-72.5 9t-20.5 42q0 88 41 123q20 18 76 18t75 -10t19 -43zM1350 885q0 223 -105.5 358t-294.5 135q-266 0 -449 -238 t-184 -554q0 -225 104.5 -362.5t291.5 -137.5q272 0 454.5 237.5t182.5 561.5zM987 1487q276 0 436 -166t160 -428q0 -373 -269.5 -644.5t-633.5 -271.5q-276 0 -435 165t-159 429q0 371 268 643.5t633 272.5z" glyph-name="Odieresis" horiz-adv-x="1669" unicode="Ö"/><glyph d="M287 1153l331 -334l334 334l90 -88l-333 -334l333 -334l-90 -88l-334 334l-331 -334l-90 88l333 334l-333 334z" glyph-name="multiply" horiz-adv-x="1239" unicode="×"/><glyph d="M1622 1462h111q14 0 14 -10q0 -4 -6 -10l-223 -197q-10 -10 -5 -20q86 -147 86 -334q0 -373 -269 -643.5t-634 -270.5q-252 0 -420 154q-6 6 -12 6t-12 -6l-127 -113q-20 -18 -49 -18h-103q-14 0 -14 8t6 15l219 192q6 6 6 12t-4 15q-82 141 -82 327q0 238 118 448 t327 340t458 130t418 -154q7 -8 13 -8t12 6l127 113q20 18 45 18zM370 385q6 0 15 8l897 791q8 8 8 13t-4 13q-109 170 -317 170q-180 0 -328.5 -117.5t-227.5 -294.5t-79 -364q-1 -100 28 -209q2 -10 8 -10zM718 86q194 0 343 116.5t227 294t78 365.5q0 98 -29 209 q-2 6 -6 6t-10 -6l-899 -792q-8 -7 -8 -13t2 -10q108 -170 302 -170z" glyph-name="Oslash" horiz-adv-x="1705" unicode="Ø"/><glyph d="M717 1853q0 16 22 17h181q47 0 71 -27l176 -180q29 -29 -4 -31h-104q-39 1 -70 21l-260 184q-12 10 -12 16zM1556 1462q61 0 62 -39q0 -26 -25.5 -38.5t-63 -25.5t-67.5 -63t-56 -146t-132 -613q-31 -160 -86 -258q-82 -143 -227 -222.5t-347 -79.5t-338.5 93.5 t-136.5 289.5q0 76 23 193l121 596q23 106 23 150t-34 69q-6 4 -32.5 17t-26.5 38q0 39 66 39h325q53 0 53 -37q0 -16 -11 -25t-34.5 -19.5t-43.5 -22.5q-44 -27 -79 -209l-114 -574q-23 -106 -23 -174q0 -137 86 -210.5t238 -73.5q397 0 487 428q95 475 109 563t14 123 q0 104 -50 126.5t-54 25.5t-13.5 10t-9.5 26q0 43 70 43h327z" glyph-name="Ugrave" horiz-adv-x="1511" unicode="Ù"/><glyph d="M737 1632q-14 0 -14 8t14 19l246 184q35 27 82 27h188q20 0 21 -12q0 -9 -10 -15l-340 -190q-35 -20 -76 -21h-111zM1556 1462q61 0 62 -39q0 -26 -25.5 -38.5t-63 -25.5t-67.5 -63t-56 -146t-132 -613q-31 -160 -86 -258q-82 -143 -227 -222.5t-347 -79.5t-338.5 93.5 t-136.5 289.5q0 76 23 193l121 596q23 106 23 150t-34 69q-6 4 -32.5 17t-26.5 38q0 39 66 39h325q53 0 53 -37q0 -16 -11 -25t-34.5 -19.5t-43.5 -22.5q-44 -27 -79 -209l-114 -574q-23 -106 -23 -174q0 -137 86 -210.5t238 -73.5q397 0 487 428q95 475 109 563t14 123 q0 104 -50 126.5t-54 25.5t-13.5 10t-9.5 26q0 43 70 43h327z" glyph-name="Uacute" horiz-adv-x="1511" unicode="Ú"/><glyph d="M762 1612h-94q-26 0 -2 22l223 217q18 18 39 19h127q20 0 32 -19l136 -217q6 -8 6 -15t-12 -7h-78q-16 0 -29 14l-115 141q-10 12 -16 12.5t-16 -10.5l-166 -145q-15 -12 -35 -12zM1556 1462q61 0 62 -39q0 -26 -25.5 -38.5t-63 -25.5t-67.5 -63t-56 -146t-132 -613 q-31 -160 -86 -258q-82 -143 -227 -222.5t-347 -79.5t-338.5 93.5t-136.5 289.5q0 76 23 193l121 596q23 106 23 150t-34 69q-6 4 -32.5 17t-26.5 38q0 39 66 39h325q53 0 53 -37q0 -16 -11 -25t-34.5 -19.5t-43.5 -22.5q-44 -27 -79 -209l-114 -574q-23 -106 -23 -174 q0 -137 86 -210.5t238 -73.5q397 0 487 428q95 475 109 563t14 123q0 104 -50 126.5t-54 25.5t-13.5 10t-9.5 26q0 43 70 43h327z" glyph-name="Ucircumflex" horiz-adv-x="1511" unicode="Û"/><glyph d="M1253 1753q0 -33 -11 -70t-33 -53t-74 -16t-72.5 9t-20.5 42q0 88 41 123q23 18 77 18t73.5 -10t19.5 -43zM899 1753q0 -33 -11 -70t-33 -53t-74 -16t-72.5 9t-20.5 42q0 88 41 123q19 18 75 18t75.5 -10t19.5 -43zM1556 1462q61 0 62 -39q0 -26 -25.5 -38.5t-63 -25.5 t-67.5 -63t-56 -146t-132 -613q-31 -160 -86 -258q-82 -143 -227 -222.5t-347 -79.5t-338.5 93.5t-136.5 289.5q0 76 23 193l121 596q23 106 23 150t-34 69q-6 4 -32.5 17t-26.5 38q0 39 66 39h325q53 0 53 -37q0 -16 -11 -25t-34.5 -19.5t-43.5 -22.5q-44 -27 -79 -209 l-114 -574q-23 -106 -23 -174q0 -137 86 -210.5t238 -73.5q397 0 487 428q95 475 109 563t14 123q0 104 -50 126.5t-54 25.5t-13.5 10t-9.5 26q0 43 70 43h327z" glyph-name="Udieresis" horiz-adv-x="1511" unicode="Ü"/><glyph d="M635 1632q-14 0 -14 8t14 19l246 184q35 27 82 27h188q20 0 20 -10t-10 -17l-340 -190q-35 -20 -76 -21h-110zM1446 1462q57 0 57 -35q0 -25 -48 -46t-101 -73t-146 -163l-465 -567q-6 -8 -10 -25l-41 -201q-43 -196 -8 -230t59.5 -47.5t24.5 -33.5q0 -41 -63 -41h-361 q-47 0 -47 37q0 19 9 26t18.5 15t21.5 8q43 23 70 57q35 49 67 209l29 144q4 16 4 21t-6 24l-215 630q-45 133 -67 164t-54.5 48.5t-32.5 39.5q0 39 66 39h323q47 0 48 -35q0 -25 -49.5 -45.5t-49.5 -68.5q0 -49 29 -135l166 -482q6 -18 11 -18q12 0 308 375 q164 211 164 270q0 33 -36 57.5t-36 42.5q0 39 60 39h301z" glyph-name="Yacute" horiz-adv-x="1351" unicode="Ý"/><glyph d="M979 809q0 66 -23 115q-37 76 -116.5 105.5t-206.5 29.5h-94q-39 0 -45 -39l-115 -563q-2 -10 -2 -19q0 -23 26 -22h89q150 2 247.5 33.5t168.5 124.5t71 235zM1202 800q0 -132 -84 -251q-168 -233 -622 -238h-121q-25 0 -31 -26q-10 -61 -10 -97t15.5 -62t50 -40.5 t34.5 -46.5q0 -39 -65 -39h-357q-51 0 -51 39q0 18 17.5 29.5t48 29.5t59.5 52t59 178q187 901 187 956q0 56 -14 70t-34 24.5t-31 19.5t-11 25q0 39 65 39h326q53 0 53 -37q0 -16 -11 -25t-35 -19.5t-42 -20.5q-38 -21 -68 -154q-2 -10 -2 -18q0 -25 31 -25 q252 0 384 -27.5t204 -125.5q55 -78 55 -210z" glyph-name="Thorn" horiz-adv-x="1257" unicode="Þ"/><glyph d="M1124 219v19q0 119 64 118q20 0 33.5 -13t93.5 -134t278 -121q123 0 189.5 56t66.5 124t-60 108t-146.5 61.5t-171.5 48t-145 87t-60 156.5q0 135 131 237.5t308 102.5t288 -57q49 -25 65.5 -55.5t16.5 -90.5v-18q0 -106 -60 -107q-35 0 -82 70q-111 156 -266 156 q-78 0 -145.5 -41.5t-67.5 -111.5t60.5 -108t147.5 -58.5t174 -47.5t147.5 -89t60.5 -165q0 -152 -135 -260.5t-373 -108.5q-113 0 -212 26t-144 65q-56 42 -56 151zM39 219v19q0 119 63 118q20 0 34 -13t38.5 -50t44.5 -62q121 -143 289 -143q123 0 189.5 56t66.5 124 t-60.5 108t-145.5 61.5t-171 48t-146.5 87t-60.5 156.5q0 135 131 237.5t309 102.5t287 -57q49 -25 65.5 -55.5t16.5 -90.5v-18q0 -106 -59 -107q-35 0 -82 70q-111 156 -266 156q-78 0 -145.5 -41.5t-67.5 -111.5t60 -108t147.5 -58.5t174.5 -47.5t147 -89t60 -165 q0 -152 -135 -260.5t-372 -108.5q-113 0 -212.5 26t-144.5 65q-55 42 -55 151z" glyph-name="germandbls" horiz-adv-x="2170" unicode="ß"/><glyph d="M733 1487q47 0 72 -27l176 -180q12 -12 12 -21t-16 -10h-105q-38 1 -69 21l-260 184q-12 10 -13 16q0 16 23 17h180zM399 410h349q18 0 18 14q0 4 -2 12l-92 367q-4 16 -12.5 15.5t-140.5 -198.5t-132 -204t12 -6zM1141 35q0 -35 -58 -35h-295q-45 0 -45 33q0 18 41 43.5 t41 61.5t-26 151q-6 23 -31 22h-432q-25 0 -35 -18q-82 -127 -82 -163t34 -56.5t34 -40.5q0 -33 -54 -33h-262q-51 0 -51 33q0 15 8.5 21.5t16 13.5t39.5 26t67 60q43 45 129 165l510 715q14 18 35 19h63q23 0 29 -23l197 -786q26 -106 44 -130t50.5 -41.5t32.5 -37.5z" glyph-name="agrave" horiz-adv-x="1247" unicode="à"/><glyph d="M524 1249q-14 1 -14 9t14 18l246 184q35 27 82 27h188q20 0 21 -12q0 -9 -10 -15l-340 -190q-37 -20 -76 -21h-111zM399 410h349q18 0 18 14q0 4 -2 12l-92 367q-4 16 -12.5 15.5t-140.5 -198.5t-132 -204t12 -6zM1141 35q0 -35 -58 -35h-295q-45 0 -45 33q0 18 41 43.5 t41 61.5t-26 151q-6 23 -31 22h-432q-25 0 -35 -18q-82 -127 -82 -163t34 -56.5t34 -40.5q0 -33 -54 -33h-262q-51 0 -51 33q0 15 8.5 21.5t16 13.5t39.5 26t67 60q43 45 129 165l510 715q14 18 35 19h63q23 0 29 -23l197 -786q26 -106 44 -130t50.5 -41.5t32.5 -37.5z" glyph-name="aacute" horiz-adv-x="1247" unicode="á"/><glyph d="M592 1229h-94q-26 0 -2 22l223 217q18 18 39 19h127q20 0 33 -19l135 -217q6 -10 6 -12q0 -10 -12 -10h-78q-16 0 -29 14l-115 141q-10 12 -16 12.5t-16 -10.5l-166 -145q-15 -12 -35 -12zM399 410h349q18 0 18 14q0 4 -2 12l-92 367q-4 16 -12.5 15.5t-140.5 -198.5 t-132 -204t12 -6zM1141 35q0 -35 -58 -35h-295q-45 0 -45 33q0 18 41 43.5t41 61.5t-26 151q-6 23 -31 22h-432q-25 0 -35 -18q-82 -127 -82 -163t34 -56.5t34 -40.5q0 -33 -54 -33h-262q-51 0 -51 33q0 15 8.5 21.5t16 13.5t39.5 26t67 60q43 45 129 165l510 715 q14 18 35 19h63q23 0 29 -23l197 -786q26 -106 44 -130t50.5 -41.5t32.5 -37.5z" glyph-name="acircumflex" horiz-adv-x="1247" unicode="â"/><glyph d="M641 1499q55 0 170 -43t165 -43t91 72q8 12 14 12t15 -2l22 -6q23 -6 23 -13t-2 -14q-61 -178 -199 -178q-68 0 -178.5 43t-159.5 43t-90 -76q-8 -14 -16 -14t-13 2l-26 8q-25 8 -17 31q66 178 201 178zM399 410h349q18 0 18 14q0 4 -2 12l-92 367q-4 16 -12.5 15.5 t-140.5 -198.5t-132 -204t12 -6zM1141 35q0 -35 -58 -35h-295q-45 0 -45 33q0 18 41 43.5t41 61.5t-26 151q-6 23 -31 22h-432q-25 0 -35 -18q-82 -127 -82 -163t34 -56.5t34 -40.5q0 -33 -54 -33h-262q-51 0 -51 33q0 15 8.5 21.5t16 13.5t39.5 26t67 60q43 45 129 165 l510 715q14 18 35 19h63q23 0 29 -23l197 -786q26 -106 44 -130t50.5 -41.5t32.5 -37.5z" glyph-name="atilde" horiz-adv-x="1247" unicode="ã"/><glyph d="M1063 1417q0 -33 -11.5 -70t-33.5 -53t-73 -16q-52 0 -72.5 9t-20.5 42q0 88 41 123q19 18 75 18t75.5 -10t19.5 -43zM709 1417q0 -33 -11.5 -70t-33.5 -53t-73 -16q-52 0 -72.5 9t-20.5 42q0 88 41 123q23 18 77 18t73.5 -10t19.5 -43zM399 410h349q18 0 18 14 q0 4 -2 12l-92 367q-4 16 -12.5 15.5t-140.5 -198.5t-132 -204t12 -6zM1141 35q0 -35 -58 -35h-295q-45 0 -45 33q0 18 41 43.5t41 61.5t-26 151q-6 23 -31 22h-432q-25 0 -35 -18q-82 -127 -82 -163t34 -56.5t34 -40.5q0 -33 -54 -33h-262q-51 0 -51 33q0 15 8.5 21.5 t16 13.5t39.5 26t67 60q43 45 129 165l510 715q14 18 35 19h63q23 0 29 -23l197 -786q26 -106 44 -130t50.5 -41.5t32.5 -37.5z" glyph-name="adieresis" horiz-adv-x="1247" unicode="ä"/><glyph d="M399 410h349q18 0 18 14q0 4 -2 12l-92 367q-4 16 -12.5 15.5t-140.5 -198.5t-132 -204t12 -6zM1141 35q0 -35 -58 -35h-295q-45 0 -45 33q0 18 41 43.5t41 61.5t-26 151q-6 23 -31 22h-432q-25 0 -35 -18q-82 -127 -82 -163t34 -56.5t34 -40.5q0 -33 -54 -33h-262 q-51 0 -51 33q0 15 8.5 21.5t16 13.5t39.5 26t67 60q43 45 129 165l510 715q14 18 35 19h63q23 0 29 -23l197 -786q26 -106 44 -130t50.5 -41.5t32.5 -37.5zM674 1345.5q0 -45.5 30.5 -76t74.5 -30.5t75 30.5t31 76t-31 77t-75 31.5t-74.5 -31.5t-30.5 -77zM594 1345.5 q0 75.5 54 130t132 54.5t132.5 -54.5t54.5 -130t-54.5 -129t-132.5 -53.5t-132 53.5t-54 129z" glyph-name="aring" horiz-adv-x="1247" unicode="å"/><glyph d="M905 895q0 6 -5 6t-13 -8l-428 -459q-6 -6 -6 -12t14 -6h319q25 -1 27 22l90 441q2 10 2 16zM1051 487q-29 0 -33 -28l-21 -103q-31 -147 -31 -178q1 -58 42.5 -68t111.5 -10t121 11q102 16 155.5 53t123.5 115q70 77 98 77q26 0 42.5 -14t16.5 -42t-19 -66t-39 -92 t-33 -81.5t-45.5 -52t-60.5 -24.5t-129.5 8t-217.5 8h-469q-53 0 -54 37q0 27 48 49t74 56t50 145q2 10 2 14q0 16 -18 16h-387q-20 0 -39 -18q-70 -76 -97.5 -112.5t-27.5 -64.5t26.5 -46.5t26.5 -38.5q0 -37 -57 -37h-279q-51 0 -51 35q0 27 57 55q58 28 150 117 q92 88 393 399t301 328t-45 34.5t-45 41.5q0 37 53 37h590q111 0 227 7t130 7q78 0 77 -47q0 -23 -16 -107t-22 -125q-12 -74 -68 -73q-41 0 -55 49q-2 6 -10.5 35.5t-24 61t-53.5 52.5q-61 37 -252 37h-107q-43 0 -53 -43l-53 -266q-2 -12 -2 -19q0 -27 39 -26 q122 0 211.5 9t119.5 9q70 0 70 -33q0 -12 -12 -36q-10 -35 -32 -48.5t-73 -13.5l-170 8q-61 2 -155 2z" glyph-name="ae" horiz-adv-x="1802" unicode="æ"/><glyph d="M494 -88q0 -22 27.5 -32.5t62 -15.5t62.5 -26.5t28 -62.5q0 -66 -75 -118t-179 -52q-49 0 -98.5 14t-49.5 45q0 39 43 39q12 0 45 -9t67 -9t59.5 20.5t25.5 43.5q0 41 -70.5 58.5t-70.5 56.5q0 38 80 128q-172 37 -275.5 153.5t-103.5 290.5q0 266 210 449.5t515 183.5 q217 0 301 -55q43 -28 43 -88q0 -83 -21 -148t-52 -65q-30 0 -43 16t-27.5 56t-24.5 61q-63 119 -223 119q-201 0 -332 -165t-131 -380q0 -145 82.5 -242.5t236.5 -97.5t287 176q6 8 18.5 24.5t34.5 46t55 29.5q45 0 45 -47t-35 -145q-36 -98 -108 -133q-106 -53 -303 -54 l-59 3q-47 -46 -47 -68z" glyph-name="ccedilla" horiz-adv-x="1193" unicode="ç"/><glyph d="M477 1470q0 16 23 17h180q47 0 72 -27l176 -180q12 -12 12 -21t-16 -10h-105q-38 1 -69 21l-261 184q-12 10 -12 16zM432 487q-27 0 -31 -26l-22 -105q-31 -147 -31 -182t23.5 -52.5t48 -19.5t76.5 -2t130 12q77 12 128 37t79.5 50.5t88.5 91.5q60 65 86 65q56 -1 57 -49 q-1 -27 -19 -67t-41.5 -101.5t-54 -108t-100.5 -46.5q-8 0 -113.5 8t-222.5 8h-469q-53 0 -53 39q0 23 48 48t77 63t61 196q76 379 87 432q11 52 11 94q0 69 -45 89.5t-45 48.5q0 37 58 37h477q111 0 228.5 7t131.5 7q78 0 78 -47q0 -8 -39 -232q-12 -74 -63 -73 q-45 0 -62 49q-2 6 -17.5 63.5t-68.5 85.5q-61 37 -258 37h-108q-45 0 -54 -43l-53 -266q-2 -12 -2 -17q0 -29 39 -28q92 0 148 2l204 16q49 0 49 -30q0 -10 -12 -43t-33.5 -45.5t-68.5 -12.5l-176 8q-53 2 -152 2z" glyph-name="egrave" horiz-adv-x="1191" unicode="è"/><glyph d="M494 1249q-14 1 -14 9t14 18l245 184q35 27 82 27h189q20 -1 20 -11t-10 -16l-340 -190q-37 -20 -76 -21h-110zM432 487q-27 0 -31 -26l-22 -105q-31 -147 -31 -182t23.5 -52.5t48 -19.5t76.5 -2t130 12q77 12 128 37t79.5 50.5t88.5 91.5q60 65 86 65q56 -1 57 -49 q-1 -27 -19 -67t-41.5 -101.5t-54 -108t-100.5 -46.5q-8 0 -113.5 8t-222.5 8h-469q-53 0 -53 39q0 23 48 48t77 63t61 196q76 379 87 432q11 52 11 94q0 69 -45 89.5t-45 48.5q0 37 58 37h477q111 0 228.5 7t131.5 7q78 0 78 -47q0 -8 -39 -232q-12 -74 -63 -73 q-45 0 -62 49q-2 6 -17.5 63.5t-68.5 85.5q-61 37 -258 37h-108q-45 0 -54 -43l-53 -266q-2 -12 -2 -17q0 -29 39 -28q92 0 148 2l204 16q49 0 49 -30q0 -10 -12 -43t-33.5 -45.5t-68.5 -12.5l-176 8q-53 2 -152 2z" glyph-name="eacute" horiz-adv-x="1191" unicode="é"/><glyph d="M516 1229h-94q-12 0 -12 6t10 16l223 217q18 18 39 19h127q20 0 33 -19l135 -217q6 -10 6 -12q0 -10 -12 -10h-78q-16 0 -29 14l-114 141q-17 20 -33 2l-166 -145q-15 -12 -35 -12zM432 487q-27 0 -31 -26l-22 -105q-31 -147 -31 -182t23.5 -52.5t48 -19.5t76.5 -2 t130 12q77 12 128 37t79.5 50.5t88.5 91.5q60 65 86 65q56 -1 57 -49q-1 -27 -19 -67t-41.5 -101.5t-54 -108t-100.5 -46.5q-8 0 -113.5 8t-222.5 8h-469q-53 0 -53 39q0 23 48 48t77 63t61 196q76 379 87 432q11 52 11 94q0 69 -45 89.5t-45 48.5q0 37 58 37h477 q111 0 228.5 7t131.5 7q78 0 78 -47q0 -8 -39 -232q-12 -74 -63 -73q-45 0 -62 49q-2 6 -17.5 63.5t-68.5 85.5q-61 37 -258 37h-108q-45 0 -54 -43l-53 -266q-2 -12 -2 -17q0 -29 39 -28q92 0 148 2l204 16q49 0 49 -30q0 -10 -12 -43t-33.5 -45.5t-68.5 -12.5l-176 8 q-53 2 -152 2z" glyph-name="ecircumflex" horiz-adv-x="1191" unicode="ê"/><glyph d="M1006 1417q0 -33 -11 -70t-33 -53t-74 -16t-72.5 9t-20.5 42q0 88 41 123q20 18 76 18t75 -10t19 -43zM651 1417q0 -33 -11 -70t-33 -53t-74 -16t-72.5 9t-20.5 42q0 88 41 123q23 18 77 18t73.5 -10t19.5 -43zM432 487q-27 0 -31 -26l-22 -105q-31 -147 -31 -182 t23.5 -52.5t48 -19.5t76.5 -2t130 12q77 12 128 37t79.5 50.5t88.5 91.5q60 65 86 65q56 -1 57 -49q-1 -27 -19 -67t-41.5 -101.5t-54 -108t-100.5 -46.5q-8 0 -113.5 8t-222.5 8h-469q-53 0 -53 39q0 23 48 48t77 63t61 196q76 379 87 432q11 52 11 94q0 69 -45 89.5 t-45 48.5q0 37 58 37h477q111 0 228.5 7t131.5 7q78 0 78 -47q0 -8 -39 -232q-12 -74 -63 -73q-45 0 -62 49q-2 6 -17.5 63.5t-68.5 85.5q-61 37 -258 37h-108q-45 0 -54 -43l-53 -266q-2 -12 -2 -17q0 -29 39 -28q92 0 148 2l204 16q49 0 49 -30q0 -10 -12 -43t-33.5 -45.5 t-68.5 -12.5l-176 8q-53 2 -152 2z" glyph-name="edieresis" horiz-adv-x="1191" unicode="ë"/><glyph d="M201 1470q0 16 22 17h180q47 0 72 -27l176 -180q29 -29 -4 -31h-104q-39 1 -70 21l-260 184q-12 10 -12 16zM354 190q0 -79 46 -100t46 -49q0 -41 -61 -41h-340q-53 0 -53 39q0 23 46 44t77 64t63 199q76 379 87 432q11 52 11 94q0 72 -45 90t-45 48q0 37 58 37h323 q55 0 56 -37q0 -22 -14.5 -29.5t-51 -22.5t-57 -63.5t-43.5 -159.5l-78 -385q-25 -117 -25 -160z" glyph-name="igrave" horiz-adv-x="614" unicode="ì"/><glyph d="M211 1249q-14 1 -14 9t14 18l246 184q35 27 82 27h188q20 0 21 -12q-1 -9 -11 -15l-340 -190q-37 -20 -75 -21h-111zM354 190q0 -79 46 -100t46 -49q0 -41 -61 -41h-340q-53 0 -53 39q0 23 46 44t77 64t63 199q76 379 87 432q11 52 11 94q0 72 -45 90t-45 48q0 37 58 37 h323q55 0 56 -37q0 -22 -14.5 -29.5t-51 -22.5t-57 -63.5t-43.5 -159.5l-78 -385q-25 -117 -25 -160z" glyph-name="iacute" horiz-adv-x="614" unicode="í"/><glyph d="M266 1229h-94q-12 0 -12 6t10 16l223 217q18 18 39 19h127q20 0 33 -19l135 -217q6 -10 6 -12q0 -10 -12 -10h-78q-16 0 -29 14l-114 141q-17 20 -33 2l-166 -145q-15 -12 -35 -12zM354 190q0 -79 46 -100t46 -49q0 -41 -61 -41h-340q-53 0 -53 39q0 23 46 44t77 64 t63 199q76 379 87 432q11 52 11 94q0 72 -45 90t-45 48q0 37 58 37h323q55 0 56 -37q0 -22 -14.5 -29.5t-51 -22.5t-57 -63.5t-43.5 -159.5l-78 -385q-25 -117 -25 -160z" glyph-name="icircumflex" horiz-adv-x="614" unicode="î"/><glyph d="M750 1417q0 -33 -11 -70t-33 -53t-74 -16t-72.5 9t-20.5 42q0 88 41 123q20 18 76 18t75 -10t19 -43zM395 1417q0 -33 -11 -70t-33 -53t-74 -16t-72.5 9t-20.5 42q0 88 41 123q19 18 75 18t75.5 -10t19.5 -43zM354 190q0 -79 46 -100t46 -49q0 -41 -61 -41h-340 q-53 0 -53 39q0 23 46 44t77 64t63 199q76 379 87 432q11 52 11 94q0 72 -45 90t-45 48q0 37 58 37h323q55 0 56 -37q0 -22 -14.5 -29.5t-51 -22.5t-57 -63.5t-43.5 -159.5l-78 -385q-25 -117 -25 -160z" glyph-name="idieresis" horiz-adv-x="614" unicode="ï"/><glyph d="M1085 629q0 203 -159 274q-88 41 -355 41q-18 0 -24 -20l-64 -314q-2 -10 -2 -14q0 -10 13 -10l194 12q55 0 55 -33q0 -2 -6 -32.5t-19 -45t-46 -14.5l-195 8q-23 0 -24 -14l-39 -199q-20 -98 -20 -122t23 -33t85 -9q399 2 491 201t92 324zM240 1010q0 37 55 37h344 q215 0 438 -59.5t223 -360.5q0 -230 -141 -371t-303 -198.5t-367 -57.5h-391q-55 0 -55 39q0 18 19.5 30.5t51 29.5t57.5 51t58 196l23 115l2 12q0 8 -12 8l-150 -10q-47 0 -47 33q0 6 7 36t21.5 42t47.5 12l133 -8q25 0 27 16l26 129q21 101 21 147t-22.5 65.5t-44 31.5 t-21.5 35z" glyph-name="eth" horiz-adv-x="1359" unicode="ð"/><glyph d="M463 1309q0 6 2 12q66 178 201 178q55 0 169.5 -43t164.5 -43t92 72q8 12 14 12t14 -2l23 -6q23 -6 22 -16q0 -4 -2 -11q-61 -178 -198 -178q-68 0 -178.5 43t-159.5 43t-90 -76q-7 -14 -15 -14t-14 2l-27 8q-18 6 -18 19zM1335 1047q63 0 64 -41q0 -20 -17.5 -32.5 t-48 -25t-49.5 -28.5q-63 -51 -106 -222t-148 -690q-2 -23 -31 -22h-69q-27 0 -41 22l-467 752q-10 16 -16.5 16t-10.5 -16q-86 -400 -86 -512t80 -154q4 -2 14.5 -7t26.5 -13t16 -35q0 -39 -59 -39h-344q-61 0 -61 39q0 31 59 57t109.5 99.5t164.5 678.5q2 10 2 15 q0 33 -63 61q-16 8 -33.5 15.5t-30 15t-12.5 25.5q0 41 60 41h192q45 0 66 -33l458 -740q10 -16 18 -16t11 18q86 440 86 514t-21.5 110t-67.5 55t-46 51q0 41 59 41h342z" glyph-name="ntilde" horiz-adv-x="1368" unicode="ñ"/><glyph d="M516 1470q0 16 23 17h180q47 0 72 -27l176 -180q12 -12 12 -21t-16 -10h-105q-39 1 -70 21l-260 184q-12 10 -12 16zM291 432q0 -158 77.5 -253t209.5 -95q184 0 312 154.5t128 371.5q0 162 -78 258.5t-209 96.5q-174 0 -307 -148.5t-133 -384.5zM770 1069 q221 0 344 -120t123 -310q0 -268 -204 -465t-496 -197q-217 0 -341 118t-124 311q0 272 207.5 467.5t490.5 195.5z" glyph-name="ograve" horiz-adv-x="1296" unicode="ò"/><glyph d="M516 1249q-14 1 -14 9t14 18l246 184q35 27 82 27h188q20 0 21 -12q-1 -9 -11 -15l-340 -190q-35 -20 -75 -21h-111zM291 432q0 -158 77.5 -253t209.5 -95q184 0 312 154.5t128 371.5q0 162 -78 258.5t-209 96.5q-174 0 -307 -148.5t-133 -384.5zM770 1069 q221 0 344 -120t123 -310q0 -268 -204 -465t-496 -197q-217 0 -341 118t-124 311q0 272 207.5 467.5t490.5 195.5z" glyph-name="oacute" horiz-adv-x="1296" unicode="ó"/><glyph d="M563 1229h-94q-12 0 -12 6t10 16l223 217q18 18 39 19h127q20 0 33 -19l135 -217q6 -10 6 -12q0 -10 -12 -10h-78q-16 0 -29 14l-114 141q-17 20 -33 2l-166 -145q-15 -12 -35 -12zM291 432q0 -158 77.5 -253t209.5 -95q184 0 312 154.5t128 371.5q0 162 -78 258.5 t-209 96.5q-174 0 -307 -148.5t-133 -384.5zM770 1069q221 0 344 -120t123 -310q0 -268 -204 -465t-496 -197q-217 0 -341 118t-124 311q0 272 207.5 467.5t490.5 195.5z" glyph-name="ocircumflex" horiz-adv-x="1296" unicode="ô"/><glyph d="M410 1309q0 6 2 12q66 178 200 178q55 0 170 -43t165 -43t91 72q8 12 14 12t15 -2l23 -6q23 -6 22 -16q0 -4 -2 -11q-61 -178 -199 -178q-68 0 -178 43t-159 43t-91 -76q-8 -14 -15 -14t-13 2l-27 8q-18 6 -18 19zM291 432q0 -158 77.5 -253t209.5 -95q184 0 312 154.5 t128 371.5q0 162 -78 258.5t-209 96.5q-174 0 -307 -148.5t-133 -384.5zM770 1069q221 0 344 -120t123 -310q0 -268 -204 -465t-496 -197q-217 0 -341 118t-124 311q0 272 207.5 467.5t490.5 195.5z" glyph-name="otilde" horiz-adv-x="1296" unicode="õ"/><glyph d="M1044 1417q0 -33 -11 -70t-33 -53t-73 -16q-52 0 -72.5 9t-20.5 42q0 88 40 123q23 18 77 18t73.5 -10t19.5 -43zM690 1417q0 -33 -11 -70t-33 -53t-74 -16t-72.5 9t-20.5 42q0 88 41 123q20 18 76 18t75 -10t19 -43zM291 432q0 -158 77.5 -253t209.5 -95 q184 0 312 154.5t128 371.5q0 162 -78 258.5t-209 96.5q-174 0 -307 -148.5t-133 -384.5zM770 1069q221 0 344 -120t123 -310q0 -268 -204 -465t-496 -197q-217 0 -341 118t-124 311q0 272 207.5 467.5t490.5 195.5z" glyph-name="odieresis" horiz-adv-x="1296" unicode="ö"/><glyph d="M852 417q0 -50 -36 -86t-86 -36t-86 36t-36 86t36 86t86 36t86 -36t36 -86zM852 1048.5q0 -51.5 -36 -86t-86 -34.5t-86 34.5t-36 86t36 87t86 35.5t86 -35.5t36 -87zM197 696v70q0 23 22 22h1022q25 0 25 -22v-70q0 -23 -25 -22h-1022q-22 -1 -22 22z" glyph-name="divide" horiz-adv-x="1462" unicode="÷"/><glyph d="M340 303q4 0 20 12l613 523q6 6 6 9t-4 9q-76 109 -219 109q-186 0 -313.5 -157t-127.5 -359q1 -56 11 -101t14 -45zM1042 604q0 59 -10 99t-13 40t-20 -14l-608 -516q-8 -8 -8 -14t6 -15q82 -100 211 -100q195 0 318.5 157.5t123.5 362.5zM1335 1047q15 1 15 -7t-4 -12 l-148 -125q-6 -6 -6 -11t6 -15q63 -98 64 -236q0 -272 -204 -468t-493 -196q-188 0 -315 97q-6 4 -10 4t-17 -10l-57 -50q-25 -18 -49 -18h-94q-13 0 -13 6t6 12l144 123q8 8 8 14.5t-8 18.5q-61 100 -62 232q0 268 205 465.5t492 197.5q188 0 309 -92q10 -8 16 -8t13 6 l61 53q23 18 49 19h92z" glyph-name="oslash" horiz-adv-x="1355" unicode="ø"/><glyph d="M518 1470q0 16 23 17h180q47 0 72 -27l176 -180q12 -12 12 -21t-16 -10h-105q-38 1 -69 21l-261 184q-12 10 -12 16zM1315 1047q66 0 65 -39q0 -21 -15.5 -30.5t-56 -27.5t-74.5 -70.5t-57 -152.5t-44 -197q-49 -231 -107 -323q-141 -229 -461 -230q-184 0 -292.5 82 t-108.5 265q0 86 26 217l39 190q33 167 13.5 195t-50 41t-30.5 41q0 39 57 39h322q55 0 55 -37q0 -23 -18 -32.5t-52 -25.5q-35 -16 -53 -59t-43 -158l-35 -172q-31 -150 -30 -223q0 -115 70.5 -173t189.5 -58q176 0 262 97t132 302q46 206 46 286t-15.5 108t-35.5 40 t-33.5 19.5t-25 14.5t-11.5 30q0 41 72 41h299z" glyph-name="ugrave" horiz-adv-x="1339" unicode="ù"/><glyph d="M545 1249q-15 1 -15 9t15 18l246 184q35 27 81 27h189q20 -1 20 -11t-10 -16l-340 -190q-35 -20 -76 -21h-110zM1315 1047q66 0 65 -39q0 -21 -15.5 -30.5t-56 -27.5t-74.5 -70.5t-57 -152.5t-44 -197q-49 -231 -107 -323q-141 -229 -461 -230q-184 0 -292.5 82 t-108.5 265q0 86 26 217l39 190q33 167 13.5 195t-50 41t-30.5 41q0 39 57 39h322q55 0 55 -37q0 -23 -18 -32.5t-52 -25.5q-35 -16 -53 -59t-43 -158l-35 -172q-31 -150 -30 -223q0 -115 70.5 -173t189.5 -58q176 0 262 97t132 302q46 206 46 286t-15.5 108t-35.5 40 t-33.5 19.5t-25 14.5t-11.5 30q0 41 72 41h299z" glyph-name="uacute" horiz-adv-x="1339" unicode="ú"/><glyph d="M606 1229h-94q-12 0 -12 6t10 16l223 217q18 18 39 19h127q20 0 33 -19l135 -217q6 -10 6 -12q0 -10 -12 -10h-78q-16 0 -29 14l-114 141q-17 20 -33 2l-166 -145q-15 -12 -35 -12zM1315 1047q66 0 65 -39q0 -21 -15.5 -30.5t-56 -27.5t-74.5 -70.5t-57 -152.5t-44 -197 q-49 -231 -107 -323q-141 -229 -461 -230q-184 0 -292.5 82t-108.5 265q0 86 26 217l39 190q33 167 13.5 195t-50 41t-30.5 41q0 39 57 39h322q55 0 55 -37q0 -23 -18 -32.5t-52 -25.5q-35 -16 -53 -59t-43 -158l-35 -172q-31 -150 -30 -223q0 -115 70.5 -173t189.5 -58 q176 0 262 97t132 302q46 206 46 286t-15.5 108t-35.5 40t-33.5 19.5t-25 14.5t-11.5 30q0 41 72 41h299z" glyph-name="ucircumflex" horiz-adv-x="1339" unicode="û"/><glyph d="M1118 1417q0 -33 -11 -70t-33 -53t-74 -16t-72.5 9t-20.5 42q0 88 41 123q23 18 77 18t73.5 -10t19.5 -43zM764 1417q0 -33 -11 -70t-33 -53t-74 -16t-72.5 9t-20.5 42q0 88 41 123q20 18 76 18t75 -10t19 -43zM1315 1047q66 0 65 -39q0 -21 -15.5 -30.5t-56 -27.5 t-74.5 -70.5t-57 -152.5t-44 -197q-49 -231 -107 -323q-141 -229 -461 -230q-184 0 -292.5 82t-108.5 265q0 86 26 217l39 190q33 167 13.5 195t-50 41t-30.5 41q0 39 57 39h322q55 0 55 -37q0 -23 -18 -32.5t-52 -25.5q-35 -16 -53 -59t-43 -158l-35 -172 q-31 -150 -30 -223q0 -115 70.5 -173t189.5 -58q176 0 262 97t132 302q46 206 46 286t-15.5 108t-35.5 40t-33.5 19.5t-25 14.5t-11.5 30q0 41 72 41h299z" glyph-name="udieresis" horiz-adv-x="1339" unicode="ü"/><glyph d="M514 1249q-14 1 -14 9t14 18l246 184q35 27 82 27h188q20 0 21 -12q-1 -9 -11 -15l-340 -190q-35 -20 -75 -21h-111zM1235 1047q57 0 57 -37q0 -29 -79.5 -58t-225.5 -178l-311 -315q-16 -16 -19 -33l-16 -82q-23 -115 -23 -156q0 -75 46.5 -96t46.5 -53q0 -39 -62 -39 h-340q-53 0 -53 39q0 26 42.5 42t76.5 60q35 51 76 250q2 9 2 17t-7 20l-151 307q-67 131 -95 169t-52.5 52.5t-36 23.5t-11.5 30q0 37 64 37h321q47 0 47 -33q0 -23 -43 -45.5t-43 -60.5t50 -136l110 -215q4 -10 9 -10t16 10l149 154q164 164 164 217q0 25 -31.5 43 t-31.5 39q0 37 57 37h297z" glyph-name="yacute" horiz-adv-x="1204" unicode="ý"/><glyph d="M559 739h-80q-23 0 -24 -20l-74 -359q-2 -10 -2 -14q0 -14 16 -14h70q217 0 305 90q64 68 64 169t-81 124.5t-194 23.5zM465 227h-86q-18 0 -21 -16l-2 -31q0 -69 46.5 -90t46.5 -51q0 -39 -64 -39h-338q-53 0 -53 39q0 25 48 47t71 55q37 55 65 205l78 385 q23 109 23 150t-23 61.5t-45.5 32.5t-22.5 35q0 37 58 37h321q57 0 58 -39q0 -23 -31 -36.5t-39 -17.5q-48 -26 -66 -100q0 -12 15 -12h71q113 -2 173.5 -6.5t132 -27t119.5 -75.5t48 -155t-73 -189q-139 -162 -510 -162z" glyph-name="thorn" horiz-adv-x="1103" unicode="þ"/><glyph d="M1020 1417q0 -33 -11 -70t-33 -53t-74 -16t-72.5 9t-20.5 42q0 88 41 123q23 18 77 18t73.5 -10t19.5 -43zM666 1417q0 -33 -11 -70t-33 -53t-74 -16t-72.5 9t-20.5 42q0 88 41 123q23 18 77 18t73.5 -10t19.5 -43zM1235 1047q57 0 57 -37q0 -29 -79.5 -58t-225.5 -178 l-311 -315q-16 -16 -19 -33l-16 -82q-23 -115 -23 -156q0 -75 46.5 -96t46.5 -53q0 -39 -62 -39h-340q-53 0 -53 39q0 26 42.5 42t76.5 60q35 51 76 250q2 9 2 17t-7 20l-151 307q-67 131 -95 169t-52.5 52.5t-36 23.5t-11.5 30q0 37 64 37h321q47 0 47 -33q0 -23 -43 -45.5 t-43 -60.5t50 -136l110 -215q4 -10 9 -10t16 10l149 154q164 164 164 217q0 25 -31.5 43t-31.5 39q0 37 57 37h297z" glyph-name="ydieresis" horiz-adv-x="1204" unicode="ÿ"/><glyph d="M354 190q0 -79 46 -100t46 -49q0 -41 -61 -41h-340q-53 0 -53 39q0 23 46 44t77 64t63 199q76 379 87 432q11 52 11 94q0 72 -45 90t-45 48q0 37 58 37h323q55 0 56 -37q0 -22 -14.5 -29.5t-51 -22.5t-57 -63.5t-43.5 -159.5l-78 -385q-25 -117 -25 -160z" glyph-name="dotlessi" horiz-adv-x="616" unicode="ı"/><glyph d="M1075 350q0 -31 -19 -78t-42 -117.5t-52 -118.5t-120 -48q-12 0 -115.5 6t-210.5 6h-479q-53 0 -53 37q0 11 3 15.5t4 7.5t5 6.5t6 5.5t7 4t7 4t8.5 4t8.5 4q47 25 69 55q37 55 78 259t47 229l-137 -49q-12 -4 -14 -4q-12 0 -13 14l9 72q2 18 18 24l160 57l82 404 q22 109 22 145q-1 65 -45.5 82t-44.5 47q0 39 66 39h323q53 0 54 -37q0 -27 -35 -41t-43 -18q-31 -18 -48.5 -59t-41.5 -158q-31 -184 -66 -324l186 68q13 4 19 4t6 -12l-8 -74q-4 -20 -19 -25l-206 -73l-70 -351q-33 -160 -33 -196t38 -49t118 -13t148.5 15.5t117.5 49.5 t72.5 57.5t47.5 53.5t41 51t36.5 45.5t54.5 24.5q53 0 53 -51z" glyph-name="Lslash" horiz-adv-x="1157" unicode="Ł"/><glyph d="M1007 356q15 0 31.5 -14t16.5 -36q1 -22 -17 -58t-37.5 -94t-34 -86.5t-48 -56t-80.5 -27.5q-8 0 -112.5 8t-221.5 8h-430q-53 0 -54 39q0 18 18.5 29.5t50.5 29t50 43.5q35 51 78 267l-111 -50q-8 -4 -16 -4t-8 6t2 17l14 69q4 18 21 27l123 55q2 6 12 58.5t20 97.5 l9 47q23 109 23 151t-23 61.5t-45.5 31.5t-22.5 35q0 37 57 37h322q57 0 57 -39q0 -23 -30.5 -36.5t-38.5 -17.5q-37 -20 -56.5 -64t-41.5 -150t-21 -115l209 96q8 4 16 4t8 -7t-2 -16l-16 -71q-4 -16 -21 -25l-219 -100l-30 -150q-31 -147 -31 -188t30.5 -54.5t94.5 -13.5 t126 12t114.5 37t81 51.5t60.5 60.5t45 49.5t18 20.5t15.5 13t20 10t24.5 2z" glyph-name="lslash" horiz-adv-x="1118" unicode="ł"/><glyph d="M1151 1288q0 88 -187 88t-341 -118.5t-234 -300t-80 -392.5t115 -344t301 -133q68 0 131.5 25t75.5 84l217 1075q2 12 2 16zM1270 707q-27 0 -33 -27l-68 -336q-27 -129 -27 -170t36 -55.5t106 -14.5q197 0 294 42t171 133q14 18 32.5 41.5t40 52t56.5 28.5q53 0 53 -51 q0 -31 -20 -79t-43 -117.5t-50.5 -117.5t-119.5 -48q-12 0 -118.5 6t-215.5 6h-403q-14 0 -87 -11t-147 -12q-295 0 -467 181.5t-172 447.5q0 221 118 423t326.5 329t452.5 127q72 0 155 -11.5t120 -11.5h401q119 0 240 8.5t133 8.5q61 0 61 -47q-1 -18 -19 -126t-24 -151 q-10 -74 -63 -74q-59 0 -62.5 59.5t-24 102.5t-63.5 70q-68 43 -342 43h-80q-41 0 -51 -43l-90 -443q-2 -10 -2 -16q0 -29 37 -29q109 0 188 2l217 15q84 0 84 -35q0 -4 -15 -45t-39 -53.5t-83 -12.5l-211 9q-61 2 -182 2z" glyph-name="OE" horiz-adv-x="2080" unicode="Œ"/><glyph d="M760 965q-186 0 -328.5 -150.5t-142.5 -392.5q0 -156 84 -249t223 -93q177 0 205 131l129 637q4 20 4 26q0 41 -52 66t-122 25zM1083 487q-29 0 -32 -26l-33 -164q-18 -88 -18 -128t34 -54.5t102 -14.5t157 14t144 50.5t125 114.5t103 77q18 0 34.5 -14t16.5 -39t-17 -59 t-38 -89t-35 -85.5t-47 -58t-65 -27.5t-134 8t-217 8h-309q-27 0 -97.5 -11.5t-146.5 -11.5q-248 0 -393 127t-145 334q0 256 204.5 443.5t526.5 187.5q70 0 141.5 -11t106.5 -11h321q111 0 228 7t131 7q78 0 77 -47q0 -16 -5 -44t-14 -79t-17.5 -98.5t-22.5 -65.5t-51 -18 t-51 45q-2 6 -11 37.5t-23.5 62.5t-53.5 53q-61 37 -259 37h-108q-41 0 -51 -43l-54 -266q-2 -12 -2 -19q0 -27 39 -26q88 0 193.5 9t136.5 9q72 0 72 -33q0 -9 -14 -41t-33 -44.5t-64 -12.5l-176 8q-61 2 -156 2z" glyph-name="oe" horiz-adv-x="1839" unicode="œ"/><glyph d="M956 1870h95q12 0 12 -6t-10 -17l-224 -217q-18 -18 -38 -18h-127q-20 0 -33 18l-135 217q-6 8 -7 13q0 10 13 10h78q16 0 28 -15l115 -141q10 -12 16 -12t17 10l166 146q14 12 34 12zM487 96q133 0 242 82t109 205q0 152 -153 221.5t-242 114.5t-151.5 126t-62.5 191 t58.5 202.5t154.5 154.5q150 94 336 94q100 0 183 -26.5t125 -69.5t42 -140q0 -23 -4 -63q-14 -117 -67 -117q-32 0 -46 19.5t-26 50t-18 43.5q-88 186 -267 186q-123 0 -200.5 -75t-77.5 -167t62.5 -153.5t151.5 -102.5t179 -86t152.5 -126.5t62.5 -198.5q0 -195 -174 -339 t-436 -145q-139 0 -242.5 40t-147.5 90.5t-44 115.5l12 127q4 100 65 101q39 0 51.5 -28t26 -63.5t25.5 -60.5q98 -203 321 -203z" glyph-name="Scaron" horiz-adv-x="1173" unicode="Š"/><glyph d="M860 1487h94q25 0 2 -23l-223 -217q-18 -18 -39 -18h-127q-20 0 -32 18l-136 217q-6 10 -6 16t13 7h77q16 0 29 -14l115 -142q10 -12 16 -12t16 10l166 146q15 12 35 12zM39 219v19q0 119 63 118q20 0 34 -13t38.5 -50t44.5 -62q121 -143 289 -143q123 0 189.5 56 t66.5 124t-60.5 108t-145.5 61.5t-171 48t-146.5 87t-60.5 156.5q0 135 131 237.5t309 102.5t287 -57q49 -25 65.5 -55.5t16.5 -90.5v-18q0 -106 -59 -107q-35 0 -82 70q-111 156 -266 156q-78 0 -145.5 -41.5t-67.5 -111.5t60 -108t147.5 -58.5t174.5 -47.5t147 -89 t60 -165q0 -152 -135 -260.5t-372 -108.5q-113 0 -212.5 26t-144.5 65q-55 42 -55 151z" glyph-name="scaron" horiz-adv-x="1085" unicode="š"/><glyph d="M1145 1753q0 -33 -11.5 -70t-33.5 -53t-73 -16q-52 0 -72.5 9t-20.5 42q0 88 41 123q19 18 75 18t75.5 -10t19.5 -43zM791 1753q0 -33 -11.5 -70t-33.5 -53t-73 -16q-52 0 -72.5 9t-20.5 42q0 88 41 123q23 18 77 18t73.5 -10t19.5 -43zM1446 1462q57 0 57 -35 q0 -25 -48 -46t-101 -73t-146 -163l-465 -567q-6 -8 -10 -25l-41 -201q-43 -196 -8 -230t59.5 -47.5t24.5 -33.5q0 -41 -63 -41h-361q-47 0 -47 37q0 19 9 26t18.5 15t21.5 8q43 23 70 57q35 49 67 209l29 144q4 16 4 21t-6 24l-215 630q-45 133 -67 164t-54.5 48.5 t-32.5 39.5q0 39 66 39h323q47 0 48 -35q0 -25 -49.5 -45.5t-49.5 -68.5q0 -49 29 -135l166 -482q6 -18 11 -18q12 0 308 375q164 211 164 270q0 33 -36 57.5t-36 42.5q0 39 60 39h301z" glyph-name="Ydieresis" horiz-adv-x="1351" unicode="Ÿ"/><glyph d="M1022 1870h94q12 0 12 -6t-10 -17l-223 -217q-18 -18 -39 -18h-127q-20 0 -33 18l-135 217q-6 7 -6 15t12 8h78q16 0 29 -15l114 -141q10 -12 16.5 -12t16.5 10l166 146q15 12 35 12zM1102 401q18 0 34.5 -12t16.5 -36q1 -24 -23 -73t-52.5 -121t-59 -123.5t-103.5 -51.5 q-14 0 -121.5 8t-224.5 8h-561q-43 0 -43 33q0 41 39 98l1018 1198q14 17 14 23t-12 6h-127q-188 0 -295.5 -11.5t-155.5 -56t-77 -95t-33 -56.5q-37 -59 -72 -60q-55 0 -55 51q0 20 12 64t28.5 118t24.5 105q16 59 95 60q12 0 127.5 -7.5t230.5 -7.5h569q31 0 31 -22 q0 -64 -37 -107l-1022 -1200q-12 -14 -12 -20t10 -7q330 0 426 12t164 60.5t158 161.5q49 61 88 61z" glyph-name="Zcaron" horiz-adv-x="1292" unicode="Ž"/><glyph d="M961 1487h94q12 0 12 -6t-10 -17l-223 -217q-18 -18 -39 -18h-127q-20 0 -33 18l-135 217q-6 10 -6 16t12 7h78q16 0 28 -14l115 -142q10 -12 16.5 -12t16.5 10l166 146q15 12 35 12zM1042 356q58 0 58 -51q0 -25 -18 -65t-44 -105.5t-54.5 -108t-100.5 -42.5 q-14 0 -116.5 8t-219.5 8h-492q-43 0 -43 31q0 6 4 20l13 39q8 25 24 41l832 795q6 6 6 12t-12 6h-185q-223 0 -283.5 -59t-101.5 -121q-41 -57 -69 -57q-53 0 -54 53q0 26 10 68t21.5 93.5t22.5 82.5q18 57 94 57q14 0 126.5 -7t225.5 -7h481q39 0 39 -29q0 -4 -2 -14 l-8 -31q-8 -29 -31 -51l-835 -799q-8 -8 -8 -14t10 -7q201 0 303 10t172.5 49t140.5 117t94 78z" glyph-name="zcaron" horiz-adv-x="1218" unicode="ž"/><glyph d="M997 1530q138 0 138 -105q0 -66 -48 -65q-20 0 -51.5 32.5t-63.5 32.5t-55.5 -17t-52.5 -73.5t-64.5 -193t-35.5 -170.5q0 -10 12 -10h158q27 0 27 -21q0 -6 -3 -16l-8 -43q-6 -23 -30 -23h-162q-16 0 -19 -14q-33 -190 -47 -277q-68 -397 -127 -569t-147 -270 q-106 -123 -242 -123t-141 84q0 86 47 86q23 0 54.5 -34t62.5 -34q88 0 137.5 170.5t105.5 490.5l88 480q0 10 -12 10h-153q-27 0 -27 23q0 4 2 14l10 43q6 23 31 23h160q16 0 18 16q141 553 438 553z" glyph-name="florin" horiz-adv-x="1169" unicode="ƒ"/><glyph d="M367 1229h-95q-12 0 -12 6t10 16l224 217q18 18 38 19h127q20 0 33 -19l135 -217q13 -22 -6 -22h-78q-16 0 -28 14l-115 141q-10 12 -16 12.5t-17 -10.5l-166 -145q-14 -12 -34 -12z" glyph-name="circumflex" horiz-adv-x="1064" unicode="ˆ"/><glyph d="M1034 1487h94q25 0 2 -23l-223 -217q-18 -18 -39 -18h-127q-20 0 -32 18l-136 217q-6 10 -6 16t13 7h77q16 0 29 -14l115 -142q10 -12 16 -12t17 10l165 146q15 12 35 12z" glyph-name="caron" horiz-adv-x="1064" unicode="ˇ"/><glyph d="M616 1229q-108 0 -170.5 53t-62.5 129t45 76q27 0 35 -37q31 -113 149 -113t189 119q18 31 39 31q35 0 34 -39q0 -66 -75 -142.5t-183 -76.5z" glyph-name="breve" horiz-adv-x="927" unicode="˘"/><glyph d="M446 1417q0 -33 -11 -70t-33 -53t-73 -16q-52 0 -72.5 9t-20.5 42q0 88 40 123q23 18 77 18t73.5 -10t19.5 -43z" glyph-name="dotaccent" horiz-adv-x="684" unicode="˙"/><glyph d="M322 1345.5q0 -45.5 30.5 -76t74.5 -30.5t74.5 30.5t30.5 76t-30.5 77t-74.5 31.5t-74.5 -31.5t-30.5 -77zM242 1345.5q0 75.5 54 130t132 54.5t132 -54.5t54 -130t-54 -129t-132 -53.5t-132 53.5t-54 129z" glyph-name="ring" horiz-adv-x="856" unicode="˚"/><glyph d="M643 -252q18 0 19 -18q0 -39 -70 -82t-150 -43t-133 40t-53 115q0 117 135 242h82q-53 -106 -53 -166t31.5 -88.5t73.5 -28.5t76 14.5t42 14.5z" glyph-name="ogonek" horiz-adv-x="911" unicode="˛"/><glyph d="M252 1309q0 6 2 12q66 178 201 178q55 0 169.5 -43t164.5 -43t92 72q8 12 14 12t14 -2l23 -6q23 -6 22 -16q0 -4 -2 -11q-61 -178 -198 -178q-68 0 -178.5 43t-159.5 43t-90 -76q-8 -14 -16 -14t-13 2l-27 8q-18 6 -18 19z" glyph-name="tilde" horiz-adv-x="1208" unicode="˜"/><glyph d="M618 1237q-59 0 -59 20q0 29 89 108t129 99q39 20 121 20t83 -32q0 -29 -152 -122t-211 -93zM233 1237q-59 0 -59 20q0 29 89 108t129 99t122 20t82 -32q0 -29 -152 -122t-211 -93z" glyph-name="hungarumlaut" horiz-adv-x="1241" unicode="˝"/><glyph d="M1247 1157q27 0 27 -24q0 -16 -12 -45t-23.5 -64t-23.5 -64t-51 -52q-38 -24 -187 -23q-10 0 -12 -11q-111 -344 -111 -552q0 -166 78 -166q31 0 60.5 31.5t45.5 31.5q29 0 29 -31q0 -57 -70.5 -134t-151.5 -77q-171 -1 -171 231t172 664q2 6 2 12t-12 7q-184 10 -281 10 q-8 0 -10 -10q-32 -195 -116 -476.5t-224 -402.5q-41 -35 -73 -35t-61.5 30.5t-29.5 54.5t14.5 34t41 15.5t30.5 7.5q80 31 172 271t145 505q0 6 -49 6t-104 -19.5t-81 -39t-42 -19.5q-27 0 -27 27q0 14 15 41q68 109 132 152t169 42q39 0 215 -8t284 -8t158.5 12.5 t83.5 44.5t49 31z" glyph-name="pi" horiz-adv-x="1300" unicode="π"/><glyph d="M158 641h1222q23 0 23 -18q0 -4 -2 -15l-23 -106q-4 -23 -26 -23h-1225q-20 0 -21 19q1 6 3 14l22 106q4 23 27 23z" glyph-name="endash" horiz-adv-x="1542" unicode="–"/><glyph d="M158 641h1808q23 0 23 -18q0 -4 -2 -15l-23 -106q-4 -23 -27 -23h-1810q-20 0 -21 19q1 6 3 14l22 106q4 23 27 23z" glyph-name="emdash" horiz-adv-x="2127" unicode="—"/><glyph d="M184 1077q0 147 164 301q117 109 193 109q18 0 32.5 -13.5t14.5 -30.5t-13 -26l-43 -24q-45 -25 -77 -56q-63 -59 -63 -110t50 -119q52 -68 52 -112q0 -42 -63 -89t-107 -47t-92 77t-48 140z" glyph-name="quoteleft" horiz-adv-x="544" unicode="‘"/><glyph d="M569 1270q0 -147 -163 -301q-117 -109 -193 -109q-18 0 -32.5 13.5t-14.5 30.5t12 26l43 24q45 25 78 56q63 59 63 110q0 52 -51 120t-51 110t62.5 89.5t106.5 47.5t92 -77t48 -140z" glyph-name="quoteright" horiz-adv-x="618" unicode="’"/><glyph d="M418 78q0 -147 -164 -301q-117 -109 -193 -109q-18 0 -32.5 13.5t-14.5 30.5t13 26l43 24q45 25 77 56q63 58 63 110t-50 120q-51 68 -51 110t62.5 89.5t106.5 47.5t92 -77t48 -140z" glyph-name="quotesinglbase" horiz-adv-x="591" unicode="‚"/><glyph d="M633 1077q0 147 164 301q117 109 192 109q18 0 32.5 -13.5t14.5 -30.5t-12 -26l-45 -24q-139 -81 -139 -176q0 -41 51 -109t51 -112q0 -42 -62.5 -89t-106.5 -47t-92 77t-48 140zM184 1077q0 147 164 301q117 109 193 109q18 0 32.5 -13.5t14.5 -30.5t-13 -26l-43 -24 q-45 -25 -77 -56q-63 -59 -63 -110t50 -119q52 -68 52 -112q0 -42 -63 -89t-107 -47t-92 77t-48 140z" glyph-name="quotedblleft" horiz-adv-x="993" unicode="“"/><glyph d="M1018 1270q0 -147 -164 -301q-117 -109 -192 -109q-18 0 -33 13.5t-15 30.5t13 26l45 24q139 81 139 176q0 42 -51 110t-51 110t62.5 89.5t106.5 47.5t92 -77t48 -140zM569 1270q0 -147 -163 -301q-117 -109 -193 -109q-18 0 -32.5 13.5t-14.5 30.5t12 26l43 24 q45 25 78 56q63 59 63 110q0 52 -51 120t-51 110t62.5 89.5t106.5 47.5t92 -77t48 -140z" glyph-name="quotedblright" horiz-adv-x="1067" unicode="”"/><glyph d="M866 78q0 -147 -164 -301q-117 -109 -192 -109q-18 0 -32.5 13.5t-14.5 30.5t12 26l45 24q139 81 139 177q0 41 -51 109t-51 110t62.5 89.5t106.5 47.5t92 -77t48 -140zM418 78q0 -147 -164 -301q-117 -109 -193 -109q-18 0 -32.5 13.5t-14.5 30.5t13 26l43 24 q45 25 77 56q63 58 63 110t-50 120q-51 68 -51 110t62.5 89.5t106.5 47.5t92 -77t48 -140z" glyph-name="quotedblbase" horiz-adv-x="1040" unicode="„"/><glyph d="M610 1190q0 -22 17 -23q39 0 117.5 36t112.5 36q69 0 69 -53l-15 -66q-8 -115 -82 -114q-41 0 -112.5 35.5t-108.5 35.5q-46 0 -22 -103.5t24 -141.5t-62 -228t-90 -292q-26 -102 -34 -134.5t-12 -49.5t-21.5 -72.5t-66.5 -55.5q-43 0 -43 63q0 33 22.5 170.5t42.5 438.5 q10 135 37 186q8 18 58.5 94.5t50.5 110.5q0 14 -29 14t-111 -35.5t-112 -35.5q-64 0 -64 53q0 20 6 39.5t13 58.5t26 61t57 21q38 0 109.5 -36t104.5 -36q48 0 24 94.5t-24 127.5q0 98 94 98l10 -1l68 1q66 0 65 -55q0 -41 -59.5 -130.5t-59.5 -111.5z" glyph-name="dagger" horiz-adv-x="1001" unicode="†"/><glyph d="M676 1190q0 -22 18 -21q41 0 119 35t117 35q61 0 61 -55l-14 -72q-4 -106 -82 -106q-35 0 -106.5 34.5t-112.5 34.5q-29 0 -29 -41l21 -266q0 -47 -73 -182.5t-73 -155.5t17 -20q39 0 118.5 35.5t120.5 35.5q59 0 60 -51l-15 -72q-8 -111 -82 -110q-33 0 -107.5 34.5 t-113.5 34.5q-47 0 -22.5 -103t24.5 -126q0 -88 -90 -88h-10h-70q-68 0 -67 55q0 39 59 126t59 122q1 14 -29 14t-108 -34.5t-123 -34.5q-55 0 -55 51q0 4 8 39t14.5 89t75.5 52q39 0 109 -33.5t111 -33.5q27 0 26 37l-20 266q0 43 73.5 187.5t73.5 158.5q1 14 -29 14 t-110 -34.5t-123 -34.5q-55 0 -55 51l14 67q2 6 4 21.5t10 53.5t58.5 38t121 -34t109.5 -34q27 0 27 39t-14.5 95.5t-14.5 87.5q0 96 92 96l11 -1l73 1q61 0 62 -53q0 -43 -59.5 -132.5t-59.5 -111.5z" glyph-name="daggerdbl" horiz-adv-x="1083" unicode="‡"/><glyph d="M358 354q-57 0 -135 90.5t-78 148.5t103.5 145t159.5 87t133 -90t77 -148t-101.5 -145.5t-158.5 -87.5z" glyph-name="bullet" horiz-adv-x="763" unicode="•"/><glyph d="M189 -23q-36 0 -88 61.5t-52 101.5t70.5 98.5t107.5 58.5t89.5 -61.5t52.5 -101.5t-72 -98.5t-108 -58.5zM703 -23q-36 0 -88 61.5t-52 101.5t71.5 98.5t107.5 58.5t88.5 -61.5t52.5 -101.5t-72 -98.5t-108 -58.5zM1211 -23q-36 0 -88 61.5t-52 101.5t70.5 98.5 t107.5 58.5t89.5 -61.5t52.5 -101.5t-72 -98.5t-108 -58.5z" glyph-name="ellipsis" horiz-adv-x="1564" unicode="…"/><glyph d="M1380 1462h131l-1048 -1462h-131zM657 1227q0 78 -27.5 126t-76.5 48q-76 0 -151.5 -116.5t-75.5 -313.5q0 -84 26.5 -134.5t75.5 -50.5q78 0 133 87.5t75.5 181.5t20.5 172zM412 700q-133 0 -200 78t-67 205q0 201 130.5 352.5t295.5 151.5q127 0 196 -78t69 -209 q0 -203 -131 -351.5t-293 -148.5zM1518 504q0 78 -28 126t-77 48q-76 0 -151.5 -116.5t-75.5 -313.5q0 -84 26.5 -134.5t75.5 -50.5q78 0 133.5 87.5t76 181.5t20.5 172zM1272 -23q-133 0 -199.5 78t-66.5 205q0 201 130 352.5t296 151.5q127 0 195.5 -78t68.5 -209 q0 -203 -131 -351.5t-293 -148.5zM2292 504q0 78 -28 126t-77 48q-76 0 -151.5 -116.5t-75.5 -313.5q0 -84 26.5 -134.5t75.5 -50.5q78 0 133.5 87.5t76 181.5t20.5 172zM2046 -23q-133 0 -199.5 78t-66.5 205q0 201 130 352.5t296 151.5q127 0 195.5 -78t68.5 -209 q0 -203 -131 -351.5t-293 -148.5z" glyph-name="perthousand" horiz-adv-x="2510" unicode="‰"/><glyph d="M88 580q0 8 14 20l594 436q12 10 20 10t7 -6q0 -6 -2 -16l-23 -109q-6 -25 -26 -41l-400 -292q-14 -10 -14 -16t6 -11l283 -305q10 -10 10 -20t-2 -19l-18 -96q-2 -10 -11 -11q-6 0 -14 9l-412 444q-12 15 -12 23z" glyph-name="guilsinglleft" horiz-adv-x="831" unicode="‹"/><glyph d="M76 110q0 6 2 17l22 109q6 25 27 40l399 293q21 15 9 27l-283 305q-10 9 -10 19t2 20l18 96q2 10 10 11q6 0 15 -9l411 -444q12 -16 12 -24t-14 -19l-594 -436q-26 -22 -26 -5z" glyph-name="guilsinglright" horiz-adv-x="804" unicode="›"/><glyph d="M528 1266h142l-934 -1069h-142z" glyph-name="fraction" horiz-adv-x="243" unicode="⁄"/><glyph d="M980 1278q204 0 204 -117q0 -49 -12 -89t-23 -52t-33 -12t-33.5 10t-27 35.5t-25.5 38.5q-55 70 -143 69q-119 0 -212 -98t-147 -232q-4 -10 -4 -17t17 -7h417q18 0 19 -14q0 -4 -4 -15l-19 -43q-8 -20 -28 -20h-418q-16 0 -23 -17q-26 -99 -26 -117t16 -18h383 q18 0 19 -14q0 -4 -5 -14l-18 -43q-8 -20 -29 -21h-360q-20 0 -21 -16v-35q0 -174 69 -251t141 -77t132 42t100 83t61 41t36.5 -12t15.5 -42q-1 -30 -27 -90t-77 -99q-51 -38 -168 -38q-211 0 -346 128t-141 350q0 16 -21 16h-123q-18 0 -18 16q0 4 2 15l8 41q2 20 25 20 h112q16 0 21 19q6 52 14 84t8 36q0 12 -14 13h-109q-18 0 -18 16q0 4 2 14l8 41q2 20 25 21h129q16 0 22 14q102 217 282.5 337t384.5 120z" glyph-name="Euro" horiz-adv-x="1296" unicode="€"/><glyph d="M246 731.5q0 -274.5 192.5 -468t465 -193.5t465 193.5t192.5 468t-192.5 469t-465 194.5t-465 -194.5t-192.5 -469zM147 732q0 312 222.5 533.5t533.5 221.5t532.5 -221.5t221.5 -533.5t-221.5 -533.5t-532.5 -221.5t-533.5 221.5t-222.5 533.5zM954 1069h-67 q-18 0 -21 -14l-63 -312q-2 -10 -2 -14q0 -12 14 -12h62q96 2 155.5 18.5t107.5 67.5t48 139t-67.5 107.5t-166.5 19.5zM1364 930q0 -84 -61 -160q-117 -137 -422 -137h-80q-18 0 -23 -17q-26 -138 -26 -166q1 -50 38 -69.5t37 -42.5q0 -33 -51 -33h-272q-45 0 -45 31 q0 18 39.5 37.5t63.5 56.5t48 156l62 311q16 92 16 128t-36 56.5t-36 38.5q0 31 48 31h299q141 0 223 -15.5t130 -68.5t48 -137z" glyph-name="uni2117" horiz-adv-x="1804" unicode="℗"/><glyph d="M1479 1462q33 0 32 -22q0 -13 -18 -22t-33 -17q-31 -17 -47 -115l-41 -205q-14 -71 -14 -101t26.5 -47.5t26.5 -31.5q0 -25 -39 -24h-203q-33 0 -32 24q0 14 27.5 27.5t44.5 36.5t34 112l49 242l2 12q0 4 -4 4t-10 -10l-219 -340q-8 -14 -29 -14h-31q-18 0 -22 16 l-74 334q-4 14 -8 14q-3 -1 -29 -123t-26 -176q0 -81 32.5 -99t32.5 -34q0 -27 -37 -26h-174q-39 0 -39 26q0 14 20.5 25.5t31.5 19.5q49 41 84 209l41 199q2 10 2 16q0 23 -27 35q-4 0 -18.5 8.5t-14.5 22.5q0 25 39 24h156q29 0 35 -24l65 -291q2 -12 6 -12t10 8l195 297 q14 23 39 22h158zM677 1264q-30 0 -40 32q-25 66 -47 86t-66 19q-10 0 -12 -10l-63 -310q-12 -61 -12.5 -96t26 -53.5t26.5 -30.5q0 -25 -38 -24h-205q-31 0 -31 22q0 16 28.5 30.5t44.5 39.5t34 108l61 303q2 10 2 16q-1 6 -33 5q-32 1 -63 -21t-56.5 -69t-46.5 -47 q-37 0 -36 32q0 2 9 62t15 78q12 35 49 34l197 -8h84l186 8q41 0 41 -30l-18 -133q-6 -43 -36 -43z" glyph-name="trademark" horiz-adv-x="1486" unicode="™"/><glyph d="M35 50q0 130 12 198q6 43 43 43q20 0 42 -39t50 -51t152 -13h147q10 0 11 9q0 6 -15 16q-252 176 -252 465q0 197 116 384t312.5 306t411.5 119q258 0 410.5 -162t152.5 -388t-138 -418.5t-364 -311.5q-12 -8 -12 -13t10 -6h140q96 0 139 7.5t83 52.5t60 45q35 0 35 -33 q-1 -16 -21 -74t-28 -85t-12 -36.5t-12.5 -25.5t-17.5 -21.5t-27 -15.5t-79 -10l-294 8h-148q-47 0 -62.5 12t-15.5 44t9.5 46.5t33.5 26.5q217 129 356.5 352.5t139.5 470.5q0 190 -94.5 309t-268.5 119t-314 -119.5t-212 -290.5t-72 -336t63.5 -295t166.5 -210 q23 -16 22.5 -36.5t-18.5 -56.5t-90 -36h-148l-297 -8q-66 0 -86 13t-20 45z" glyph-name="uni2126" horiz-adv-x="1732" unicode="Ω"/><glyph d="M682 821q-123 0 -206 -102.5t-83 -255.5t79 -264t235 -111q113 0 197.5 102.5t84.5 268.5t-92 264t-215 98zM305 1145q-61 0 -61 79t49 134q51 55 152.5 92t216.5 37q258 0 426.5 -217.5t168.5 -541.5t-161.5 -537.5t-442.5 -213.5q-203 0 -344 139.5t-141 342.5t132 338 t339 135q137 0 239.5 -66.5t145.5 -189.5q4 -12 9 -12t5 74t-19.5 192.5t-62.5 222.5t-120.5 166.5t-177.5 62.5t-163 -48t-122 -136q-37 -53 -68 -53z" glyph-name="partialdiff" horiz-adv-x="1441" unicode="∂"/><glyph d="M1006 106q14 0 14 13q0 4 -2 14l-189 1036q-2 18 -8 19q-4 0 -12 -12l-659 -1049q-4 -6 -5 -10q0 -10 13 -11h848zM1221 0h-1252q-16 0 -16 8t6 17l899 1431q16 20 33 21h70q23 0 24 -21l258 -1419q2 -10 2 -14q1 -23 -24 -23z" glyph-name="uni2206" horiz-adv-x="1409" unicode="∆"/><glyph d="M379 1462h1259q51 0 52 -37q0 -28 -34 -41.5t-42 -17.5q-33 -18 -49.5 -58t-40.5 -159l-201 -991q-25 -117 -25 -163q0 -80 49.5 -100.5t49.5 -50.5q0 -41 -62 -41h-360q-49 0 -49 41q0 23 48 46.5t78 65.5t62 202l236 1163q2 10 2 14q0 20 -25 21h-670q-25 0 -30 -25 l-238 -1173q-23 -109 -23 -164t25 -79t49.5 -37t24.5 -36q0 -39 -64 -39h-358q-49 0 -49 37q0 27 47 50.5t72 56.5q37 55 67 211l201 991q23 109 23 150t-22 60t-44.5 31.5t-22.5 30.5q1 41 64 41z" glyph-name="product" horiz-adv-x="1679" unicode="∏"/><glyph d="M31 0q-25 0 -25 23q0 4 2 16l8 43q6 31 25 49l506 563q12 14 12 24.5t-12 37.5l-254 544q-8 18 -8 28t4 36l12 66q6 33 41 32h401q115 0 233 7.5t132 7.5q72 0 72 -50q0 -20 -12.5 -86t-32.5 -190q-12 -72 -60 -72q-45 1 -56 51q-5 24 -12 57.5t-19.5 66.5t-49.5 59 q-63 43 -274 43h-140q-23 0 -22 -17q0 -6 4 -14l235 -508q11 -25 11 -43t-23 -41l-465 -518q-10 -10 -10 -19t16 -10h342q182 0 220 14t69.5 52.5t56.5 38.5q33 0 33 -33q0 -10 -35 -116t-58.5 -128t-102.5 -22l-293 8h-471z" glyph-name="summation" horiz-adv-x="1173" unicode="∑"/><glyph d="M197 686v92q0 31 30 31h1008q12 0 21.5 -9t9.5 -22v-92q0 -31 -31 -31h-1008q-30 0 -30 31z" glyph-name="minus" horiz-adv-x="1462" unicode="−"/><glyph d="M1305 1616v-74q0 -16 -17 -16h-100q-16 0 -19 -17l-333 -1509q-2 -14 -19 -14h-115q-16 0 -22 12l-336 803q-8 16 -25 16h-182q-16 0 -16 17v73q0 16 16 17h352q23 0 29 -19l258 -612q4 -12 9 -12t8 12l290 1321q2 18 25 18h180q17 0 17 -16z" glyph-name="radical" horiz-adv-x="1435" unicode="√"/><glyph d="M507 485q81 0 144.5 46.5t167.5 152.5q-100 104 -163.5 150.5t-147.5 46.5t-140.5 -56.5t-56.5 -140.5t57.5 -141.5t138.5 -57.5zM1296 485q82 0 140.5 57.5t58.5 141.5t-57.5 140.5t-138.5 56.5t-143 -45t-167 -154q94 -104 159.5 -150.5t147.5 -46.5zM510 1004 q80 0 154.5 -36t120.5 -77t120 -119q74 78 120 119t120 77t151 36q139 0 232.5 -89.5t93.5 -228.5t-95 -231.5t-221 -92.5t-211 57.5t-192 174.5q-78 -82 -122 -121t-117.5 -75t-153.5 -36q-139 0 -233.5 93.5t-94.5 227.5t95.5 227.5t232.5 93.5z" glyph-name="infinity" horiz-adv-x="1804" unicode="∞"/><glyph d="M992 1530q134 0 134 -100q0 -70 -47 -70q-23 0 -54.5 33.5t-61.5 33.5q-94 0 -153.5 -200.5t-119.5 -624.5t-122 -595t-156 -275q-115 -123 -249 -123t-134 100q0 70 47 70q20 0 54 -34t60 -34q96 0 156 190.5t119 624.5t120 605t167 285t240 114z" glyph-name="integral" horiz-adv-x="1155" unicode="∫"/><glyph d="M526 719q109 0 311.5 -96.5t308.5 -96.5t206 92q17 17 32 0l54 -55q6 -6 6 -14t-6 -14q-137 -127 -301 -127q-98 0 -216 48t-222.5 95t-170.5 47q-98 0 -190 -127q-8 -10 -15 -10t-22 10l-47 37q-16 12 -16 20t22 37t52 61.5t88 62.5t126 30zM1139 735q-106 0 -311 96.5 t-310 96.5t-205 -92q-17 -17 -32 0l-54 55q-6 6 -6 14t6 15q137 127 301 127q98 0 216 -48.5t222.5 -95.5t170.5 -47q98 0 190 127q8 10 15 10t22 -10l47 -37q16 -12 16 -20q1 -8 -21 -37t-52.5 -61.5t-88.5 -62.5t-126 -30z" glyph-name="approxequal" horiz-adv-x="1665" unicode="≈"/><glyph d="M918 856q-16 0 -25 -12l-135 -219q-4 -5 -4 -11t10 -6h502q25 0 24 -22v-70q0 -23 -24 -22h-578q-10 0 -18 -13l-187 -295q-10 -16 -28 -16h-88q-18 0 -5 23l177 284q4 6 4 11t-11 6h-288q-25 0 -25 22v70q0 23 25 22h362q14 0 21 10l137 220q6 10 6 14t-10 4h-516 q-25 0 -25 23v69q0 23 25 23h585q18 0 27 12l182 295q8 14 29 14h88q12 0 12 -5t-6 -15l-172 -277q-10 -16 -10 -20t10 -4h277q25 0 24 -23v-69q0 -23 -24 -23h-348z" glyph-name="notequal" horiz-adv-x="1509" unicode="≠"/><glyph d="M1192 1274v-96q0 -25 -21 -33l-751 -328q-18 -8 -18.5 -12t18.5 -12l751 -328q20 -8 21 -33v-98q0 -22 -31 -8l-930 409q-20 8 -20 31v78q0 23 20 30l928 408q13 6 23 6t10 -14zM1192 231v-84q0 -23 -23 -22h-933q-23 0 -23 22v84q0 23 23 23h933q23 0 23 -23z" glyph-name="lessequal" horiz-adv-x="1402" unicode="≤"/><glyph d="M211 1178v96q0 14 9 14t24 -6l927 -408q20 -8 21 -30v-78q0 -23 -21 -31l-929 -409q-14 -6 -22 -6t-9 14v98q0 25 20 33l752 328q18 8 18 12t-18 12l-752 328q-20 8 -20 33zM211 147v84q0 23 22 23h934q23 0 23 -23v-84q0 -23 -23 -22h-934q-22 -1 -22 22z" glyph-name="greaterequal" horiz-adv-x="1402" unicode="≥"/><glyph d="M995 752q0 8 -2 14l-209 620q-4 12 -10 13q-4 0 -14 -15l-490 -657q-8 -10 -8 -17t4 -20l209 -620q4 -10 8.5 -10t12.5 12l491 663q8 9 8 17zM1122 734q0 -4 -12 -21l-565 -762q-12 -18 -37 -19h-78q-27 0 -33 17l-254 758q-4 12 -4 21t17 30l559 753q10 18 37 19h77 q25 -1 31 -19l258 -761q4 -12 4 -16z" glyph-name="lozenge" horiz-adv-x="1245" unicode="◊"/><glyph d="M1234 -23q-110 0 -182 85t-73 221v96h-281v-96q0 -137 -72 -221t-182 -85q-111 0 -186.5 76t-75.5 187t85 182.5t220 71.5h97v280h-97q-135 0 -220 72t-85 182t77 186t185 76t182 -84q73 -84 72 -221v-96h281v96q0 135 74 220t182 85t184 -75.5t76 -186.5t-85 -182.5 t-218 -71.5h-96v-280h96q133 0 218 -72t85 -182t-75.5 -186.5t-185.5 -76.5zM584 889v96q0 84 -39 136.5t-101 52.5t-103.5 -41t-41.5 -104t51 -101.5t137 -38.5h97zM584 379h-97q-86 0 -137 -39t-51 -101t42 -103.5t103 -41.5t100.5 52.5t39.5 136.5v96zM979 494v280h-281 v-280h281zM1234 1174q-60 0 -99 -52.5t-39 -136.5v-96h96q84 0 135 39t51 100t-42 103.5t-102 42.5zM1192 379h-96v-96q0 -84 39 -136.5t99 -52.5t102 41t42 104t-51 101.5t-135 38.5z" glyph-name="uniF8FF" horiz-adv-x="1677" unicode=""/><glyph d="M424 436q-27 0 -33 -28l-14 -70q-21 -109 -21 -150t14.5 -65.5t46.5 -37.5t32 -46q0 -39 -62 -39h-340q-53 0 -53 37q0 25 47 48t76 61t61 200l80 385q20 99 20 141q1 72 -44.5 90t-45.5 48q0 37 58 37h477q111 0 228 7t137 7t33.5 -2t25.5 -13.5t12 -22.5t-39 -241 q-12 -74 -65 -73q-45 0 -60 49q0 2 -9 34.5t-20.5 61t-56.5 53.5q-61 37 -258 37h-108q-41 0 -51 -43l-64 -317q-2 -12 -2 -17q0 -29 39 -28q92 0 141 2l193 16q68 0 67 -33q0 -4 -12 -38t-33.5 -47t-70.5 -13l-170 8q-59 2 -156 2zM1503 190q0 -79 46 -100t46 -49 q0 -41 -61 -41h-340q-53 0 -53 39q0 23 46 44t77 64t63 199q76 379 87 432q11 52 11 94q0 72 -45 90t-45 48q0 37 58 37h323q55 0 56 -37q0 -22 -14.5 -29.5t-51 -22.5t-57 -63.5t-43.5 -159.5l-78 -385q-25 -117 -25 -160z" glyph-name="uniFB01" horiz-adv-x="1765" unicode="ﬁ"/><glyph d="M424 436q-27 0 -33 -28l-14 -70q-21 -109 -21 -150t14.5 -65.5t46.5 -37.5t32 -46q0 -39 -62 -39h-340q-53 0 -53 37q0 25 47 48t76 61t61 200l80 385q20 99 20 141q1 72 -44.5 90t-45.5 48q0 37 58 37h477q111 0 228 7t137 7t33.5 -2t25.5 -13.5t12 -22.5t-39 -241 q-12 -74 -65 -73q-45 0 -60 49q0 2 -9 34.5t-20.5 61t-56.5 53.5q-61 37 -258 37h-108q-41 0 -51 -43l-64 -317q-2 -12 -2 -17q0 -29 39 -28q92 0 141 2l193 16q68 0 67 -33q0 -4 -12 -38t-33.5 -47t-70.5 -13l-170 8q-59 2 -156 2zM2118 356q56 0 57 -55q0 -27 -15 -57 t-38 -92t-55.5 -115t-104.5 -53q-10 0 -115.5 8t-222.5 8h-428q-55 0 -55 39q0 23 47 46t77 63t62 198l78 385q20 99 20 145t-22.5 66.5t-44 32.5t-21.5 33q0 39 56 39h323q55 0 56 -37q0 -24 -30 -38t-38 -18q-37 -20 -56.5 -64t-41.5 -155l-76 -379q-31 -147 -31 -187 t32 -54.5t95 -14.5t115 11q102 16 156.5 52.5t124.5 114.5t96 78z" glyph-name="uniFB02" horiz-adv-x="2238" unicode="ﬂ"/></font>
</defs>
</svg>
