<?xml version="1.0" encoding="UTF-8"?>
<svg width="60px" height="36px" viewBox="0 0 60 36" version="1.1" xmlns="http://www.w3.org/2000/svg" xmlns:xlink="http://www.w3.org/1999/xlink">
    <title>AmericanExpress-light@1.5x</title>
    <g id="Icons" stroke="none" stroke-width="1" fill="none" fill-rule="evenodd">
        <g transform="translate(-55.000000, -41.000000)" id="AmericanExpress-light">
            <g transform="translate(55.000000, 41.000000)">
                <rect id="Rectangle" fill="#FFFFFF" x="0" y="0" width="60" height="36" rx="2.4"></rect>
                <path d="M50.6444168,20.7993498 L48.5245922,20.7993498 C48.3129473,20.7993498 48.17234,20.8072517 48.0538952,20.8870017 C47.931194,20.9655811 47.8839335,21.0822064 47.8839335,21.2361459 C47.8839335,21.4192052 47.9875544,21.5437323 48.1382889,21.5975819 C48.2609901,21.640164 48.3927912,21.6526021 48.5865299,21.6526021 L49.2169146,21.6694301 C49.8530234,21.6850874 50.2776341,21.7941035 50.5365395,22.0599857 C50.5836533,22.0970073 50.6119802,22.1385651 50.6444168,22.180123 L50.6444168,20.7993498 Z M50.6444168,23.9985701 C50.3618811,24.41049 49.8113403,24.6193034 49.0660333,24.6193034 L46.8198382,24.6193034 L46.8198382,23.5787484 L49.0569334,23.5787484 C49.2788523,23.5787484 49.4341368,23.5496286 49.5276304,23.4586112 C49.6086485,23.3835437 49.6651556,23.2745276 49.6651556,23.1420986 C49.6651556,23.0007435 49.6086485,22.8885081 49.5230805,22.8211962 C49.4386868,22.747153 49.3158388,22.713497 49.1132938,22.713497 C48.0211651,22.6764755 46.6586828,22.747153 46.6586828,21.2115624 C46.6586828,20.5077135 47.1069238,19.766843 48.3274777,19.766843 L50.64427,19.766843 L50.64427,18.8013554 L48.4917154,18.8013554 C47.8421035,18.8013554 47.3702323,18.9564655 47.036033,19.1976179 L47.036033,18.8013554 L43.8521132,18.8013554 C43.342962,18.8013554 42.7453074,18.9271994 42.462625,19.1976179 L42.462625,18.8013554 L36.7769805,18.8013554 L36.7769805,19.1976179 C36.3244831,18.8721792 35.5609764,18.8013554 35.2085774,18.8013554 L31.4582654,18.8013554 L31.4582654,19.1976179 C31.1002891,18.8519857 30.3041991,18.8013554 29.8189716,18.8013554 L25.6217396,18.8013554 L24.6612652,19.8376668 L23.761701,18.8013554 L17.491905,18.8013554 L17.491905,25.5723529 L23.6436966,25.5723529 L24.6333785,24.5196525 L25.5656728,25.5723529 L29.357668,25.5757185 L29.357668,23.9829128 L29.7304682,23.9829128 C30.2336018,23.9906683 30.8270001,23.9704747 31.3505349,23.7448333 L31.3505349,25.5722066 L34.4782412,25.5722066 L34.4782412,23.8074627 L34.6291225,23.8074627 C34.8216871,23.8074627 34.8406206,23.8153645 34.8406206,24.0072036 L34.8406206,25.5720603 L44.3420374,25.5720603 C44.9452693,25.5720603 45.5758008,25.4181208 45.9249708,25.1387761 L45.9249708,25.5720603 L48.9387821,25.5720603 C49.5659379,25.5720603 50.1784164,25.4844084 50.6444168,25.2599377 L50.6444168,23.9985701 L50.6444168,23.9985701 Z M46.0048146,22.0599857 C46.2312835,22.2936753 46.3526637,22.5886773 46.3526637,23.0881027 C46.3526637,24.1320234 45.698502,24.6193034 44.5255021,24.6193034 L42.2600799,24.6193034 L42.2600799,23.5787484 L44.5164022,23.5787484 C44.7370002,23.5787484 44.8934589,23.5496286 44.9915024,23.4586112 C45.071493,23.3835437 45.1288808,23.2745276 45.1288808,23.1420986 C45.1288808,23.0007435 45.0667963,22.8885081 44.9869525,22.8211962 C44.8980088,22.747153 44.7753076,22.713497 44.5727626,22.713497 C43.485037,22.6764755 42.1228483,22.747153 42.1228483,21.2115624 C42.1228483,20.5077135 42.5663926,19.766843 43.7857724,19.766843 L46.1175353,19.766843 L46.1175353,20.7996425 L43.9839143,20.7996425 C43.7724162,20.7996425 43.634891,20.8075443 43.5179139,20.8872944 C43.390516,20.9658738 43.3432555,21.0824991 43.3432555,21.2364386 C43.3432555,21.4194978 43.4514263,21.544025 43.5977578,21.5978745 C43.7204589,21.6404567 43.85226,21.6528947 44.0504019,21.6528947 L44.6765302,21.6697227 C45.3079423,21.6850874 45.7413593,21.7939572 46.0048146,22.0599857 L46.0048146,22.0599857 Z M35.5094596,21.7603012 C35.3538815,21.852343 35.1614637,21.8602448 34.9351417,21.8602448 L33.5221699,21.8602448 L33.5221699,20.7703764 L34.9543688,20.7703764 C35.1614637,20.7703764 35.3687054,20.7747663 35.5094596,20.8580283 C35.6601942,20.9366077 35.750312,21.086889 35.750312,21.2945317 C35.750312,21.5021745 35.6601942,21.6694301 35.5094596,21.7603012 L35.5094596,21.7603012 Z M36.2119092,22.3642065 C36.4708146,22.4594676 36.6824595,22.6302351 36.7816772,22.7715902 C36.9459148,23.008499 36.9696918,23.2296042 36.9743885,23.6573278 L36.9743885,24.6193034 L35.8066724,24.6193034 L35.8066724,24.0121788 C35.8066724,23.7202498 35.8348526,23.28799 35.6186577,23.0623486 C35.4486961,22.8885081 35.1896439,22.8469503 34.7653267,22.8469503 L33.5223167,22.8469503 L33.5223167,24.6193034 L32.3535732,24.6193034 L32.3535732,19.7666966 L35.0389093,19.7666966 C35.6277576,19.7666966 36.0566247,19.7925971 36.438378,19.9957036 C36.8054542,20.2168088 37.0363262,20.5197126 37.0363262,21.0732802 C37.0361794,21.8478067 36.5180751,22.243045 36.2119092,22.3642065 L36.2119092,22.3642065 Z M37.6812413,19.7666966 L41.5632076,19.7666966 L41.5632076,20.7702301 L38.839564,20.7702301 L38.839564,21.6524557 L41.49672,21.6524557 L41.49672,22.6425268 L38.839564,22.6425268 L38.839564,23.6080144 L41.5632076,23.6124043 L41.5632076,24.6193034 L37.6812413,24.6193034 L37.6812413,19.7666966 L37.6812413,19.7666966 Z M29.8337956,22.0061362 L28.330706,22.0061362 L28.330706,20.7703764 L29.8472986,20.7703764 C30.2672126,20.7703764 30.5587013,20.9409976 30.5587013,21.3653556 C30.5587013,21.785031 30.2807156,22.0061362 29.8337956,22.0061362 L29.8337956,22.0061362 Z M27.1722365,24.1779711 L25.3864644,22.2013409 L27.1722365,20.2874863 L27.1722365,24.1779711 L27.1722365,24.1779711 Z M22.560521,23.6080144 L19.70082,23.6080144 L19.70082,22.6425268 L22.2543551,22.6425268 L22.2543551,21.6524557 L19.70082,21.6524557 L19.70082,20.7702301 L22.6168813,20.7702301 L23.8890989,22.1843665 L22.560521,23.6080144 L22.560521,23.6080144 Z M31.8074354,21.3653556 C31.8074354,22.7133507 30.7986731,22.991671 29.7819851,22.991671 L28.330706,22.991671 L28.330706,24.6193034 L26.0699805,24.6193034 L24.6377817,23.0128889 L23.1493693,24.6193034 L18.5422037,24.6193034 L18.5422037,19.7666966 L23.22026,19.7666966 L24.6512847,21.3573074 L26.130744,19.7666966 L29.8472986,19.7666966 C30.7703462,19.7666966 31.8074354,20.0214577 31.8074354,21.3653556 L31.8074354,21.3653556 Z" id="EXPRESS" fill="#0072CE"></path>
                <path d="M12.9929102,14.1745363 L12.1968202,12.2404881 L11.40528,14.1745363 L12.9929102,14.1745363 Z M30.5306679,13.4043997 C30.3708334,13.501124 30.1817914,13.5043433 29.9553226,13.5043433 L28.5423508,13.5043433 L28.5423508,12.4267667 L29.9745497,12.4267667 C30.1772415,12.4267667 30.3887396,12.4358391 30.526118,12.5142722 C30.6769993,12.5849498 30.7703462,12.7353774 30.7703462,12.9431664 C30.7703462,13.1551991 30.6815493,13.3258203 30.5306679,13.4043997 L30.5306679,13.4043997 Z M40.6106589,14.1745363 L39.8057625,12.2404881 L39.0052694,14.1745363 L40.6106589,14.1745363 L40.6106589,14.1745363 Z M21.8209381,16.2679381 L20.6285643,16.2679381 L20.6241611,12.4683245 L18.9376068,16.2679381 L17.9163689,16.2679381 L16.2254114,12.4649589 L16.2254114,16.2679381 L13.8597442,16.2679381 L13.4128242,15.1858253 L10.9910901,15.1858253 L10.5396202,16.2679381 L9.27635566,16.2679381 L11.3591937,11.416502 L13.0872844,11.416502 L15.0654742,16.0098114 L15.0654742,11.416502 L16.9638202,11.416502 L18.4859901,14.7076177 L19.8842847,11.416502 L21.8207913,11.416502 L21.8207913,16.2679381 L21.8209381,16.2679381 Z M26.5732609,16.2679381 L22.6877721,16.2679381 L22.6877721,11.416502 L26.5732609,11.416502 L26.5732609,12.4267667 L23.8509383,12.4267667 L23.8509383,13.3012368 L26.5079475,13.3012368 L26.5079475,14.2956978 L23.8509383,14.2956978 L23.8509383,15.264551 L26.5732609,15.264551 L26.5732609,16.2679381 L26.5732609,16.2679381 Z M32.0516636,12.7230856 C32.0516636,13.4965878 31.5338529,13.896216 31.2320901,14.0162068 C31.4865924,14.1127849 31.7039613,14.283406 31.8074354,14.4247612 C31.971673,14.6660599 32,14.8816045 32,15.3148886 L32,16.2679381 L30.8268533,16.2679381 L30.8224501,15.656131 C30.8224501,15.364202 30.8504836,14.9443802 30.6388387,14.7109833 C30.468877,14.5403621 30.2098248,14.5033405 29.791085,14.5033405 L28.5424976,14.5033405 L28.5424976,16.2679381 L27.3794782,16.2679381 L27.3794782,11.416502 L30.0546871,11.416502 C30.6491127,11.416502 31.0870796,11.4321593 31.4631089,11.6488746 C31.8310657,11.8655898 32.0516636,12.181956 32.0516636,12.7230856 L32.0516636,12.7230856 Z M33.9130231,16.2679381 L32.7262267,16.2679381 L32.7262267,11.416502 L33.9130231,11.416502 L33.9130231,16.2679381 L33.9130231,16.2679381 Z M47.6813885,16.2679381 L46.0331416,16.2679381 L43.828483,12.6266539 L43.828483,16.2679381 L41.4597335,16.2679381 L41.0070894,15.1858253 L38.5909327,15.1858253 L38.1517916,16.2679381 L36.790777,16.2679381 C36.2254122,16.2679381 35.5096063,16.1432647 35.1042227,15.7313448 C34.6954634,15.3194249 34.4827911,14.7614673 34.4827911,13.8792416 C34.4827911,13.1597353 34.6098954,12.5019805 35.1098001,11.9822151 C35.4858293,11.595025 36.0746776,11.416502 36.8761982,11.416502 L38.0022311,11.416502 L38.0022311,12.4560327 L36.8998285,12.4560327 C36.4753645,12.4560327 36.2356862,12.5189548 36.0048143,12.7434255 C35.8065256,12.9477027 35.6704682,13.3338685 35.6704682,13.8423664 C35.6704682,14.3621318 35.774089,14.7368838 35.9902838,14.9816944 C36.1693454,15.1736798 36.4947384,15.2319193 36.8009043,15.2319193 L37.323265,15.2319193 L38.9625588,11.4166483 L40.7053267,11.4166483 L42.6745634,16.0054215 L42.6745634,11.4166483 L44.4455114,11.4166483 L46.4900421,14.7954159 L46.4900421,11.4166483 L47.6813885,11.4166483 L47.6813885,16.2679381 L47.6813885,16.2679381 Z M9.26285265,17.2208413 L11.2501423,17.2208413 L11.6982365,16.1432647 L12.7014215,16.1432647 L13.1483415,17.2208413 L17.058488,17.2208413 L17.058488,16.3970015 L17.4075112,17.2243533 L19.4373647,17.2243533 L19.7863879,16.3847098 L19.7863879,17.2208413 L29.5038526,17.2208413 L29.4993027,15.4520002 L29.6873174,15.4520002 C29.8189716,15.4565364 29.8574258,15.4686818 29.8574258,15.6853971 L29.8574258,17.2208413 L34.8833312,17.2208413 L34.8833312,16.8090677 C35.2887148,17.0256367 35.9192463,17.2208413 36.7489471,17.2208413 L38.8633411,17.2208413 L39.3158384,16.1432647 L40.3190234,16.1432647 L40.7615402,17.2208413 L44.8360711,17.2208413 L44.8360711,16.1972606 L45.4530996,17.2208413 L48.7181842,17.2208413 L48.7181842,10.4545263 L45.4868571,10.4545263 L45.4868571,11.2536363 L45.0343598,10.4545263 L41.7186389,10.4545263 L41.7186389,11.2536363 L41.303128,10.4545263 L36.8243878,10.4545263 C36.0746776,10.4545263 35.4156724,10.5588598 34.8833312,10.8496182 L34.8833312,10.4545263 L31.7926115,10.4545263 L31.7926115,10.8496182 C31.4538623,10.5499337 30.9922651,10.4545263 30.4790042,10.4545263 L19.1874124,10.4545263 L18.4297765,12.2021496 L17.6517394,10.4545263 L14.0951661,10.4545263 L14.0951661,11.2536363 L13.7044597,10.4545263 L10.6712745,10.4545263 L9.26270588,13.6715989 L9.26270588,17.2208413 L9.26285265,17.2208413 Z" id="AMERICAN" fill="#0072CE"></path>
            </g>
        </g>
    </g>
</svg>