<?xml version="1.0" encoding="UTF-8"?>
<svg width="76px" height="49px" viewBox="0 0 76 49" version="1.1" xmlns="http://www.w3.org/2000/svg" xmlns:xlink="http://www.w3.org/1999/xlink">
    <title>Apple-Pay-Payment-Mark</title>
    <defs>
        <polygon id="path-1" points="0.0274698795 49 0.0274698795 0.018490566 75.7806988 0.018490566 75.7806988 49"></polygon>
    </defs>
    <g id="Icons" stroke="none" stroke-width="1" fill="none" fill-rule="evenodd">
        <g transform="translate(-485.000000, -41.000000)" id="Group">
            <g transform="translate(485.000000, 41.000000)" id="Apple-Pay-Payment-Mark">
                <g id="Group-3">
                    <mask id="mask-2" fill="white">
                        <use xlink:href="#path-1"></use>
                    </mask>
                    <g id="Clip-2"></g>
                    <path d="M6.78643373,0.0161792453 C6.5273012,0.0161792453 6.26771084,0.0161792453 6.00903614,0.0175660377 C5.7906506,0.0194150943 5.57272289,0.0217264151 5.35433735,0.0277358491 C4.8786506,0.0406792453 4.39884337,0.0688773585 3.92910843,0.154396226 C3.45204819,0.240839623 3.00795181,0.382292453 2.57484337,0.605103774 C2.14860241,0.823754717 1.75898795,1.10989623 1.4206506,1.45104717 C1.08277108,1.79266038 0.799373494,2.18558491 0.582819277,2.61641509 C0.362144578,3.05371698 0.222048193,3.50211321 0.136891566,3.98425472 C0.0517349398,4.459 0.0238072289,4.94299057 0.0109879518,5.42282075 C0.00503614458,5.64332075 0.00228915663,5.86335849 0.000915662651,6.08339623 C-7.3253012e-05,6.34503774 -7.3253012e-05,6.60667925 -7.3253012e-05,6.86878302 L-7.3253012e-05,42.1478585 C-7.3253012e-05,42.4099623 -7.3253012e-05,42.6711415 0.000915662651,42.9332453 C0.00228915663,43.153283 0.00503614458,43.373783 0.0109879518,43.5938208 C0.0238072289,44.0731887 0.0517349398,44.5576415 0.136891566,45.0319245 C0.222048193,45.514066 0.362144578,45.9624623 0.582819277,46.4002264 C0.799373494,46.8305943 1.08277108,47.2239811 1.4206506,47.5651321 C1.75898795,47.9067453 2.14860241,48.1928868 2.57484337,48.4110755 C3.00795181,48.6343491 3.45204819,48.7758019 3.92910843,48.8627075 C4.39884337,48.9473019 4.8786506,48.9759623 5.35433735,48.9889057 C5.57272289,48.9939906 5.7906506,48.9972264 6.00903614,48.9981509 C6.26771084,49 6.5273012,49 6.78643373,49 L68.9942651,49 C69.2529398,49 69.5125301,49 69.7712048,48.9981509 C69.9891325,48.9972264 70.2070602,48.9939906 70.4263614,48.9889057 C70.9011325,48.9759623 71.3809398,48.9473019 71.8515904,48.8627075 C72.3281928,48.7758019 72.7722892,48.6343491 73.2058554,48.4110755 C73.6320964,48.1928868 74.0207952,47.9067453 74.3595904,47.5651321 C74.697012,47.2239811 74.9804096,46.8305943 75.1974217,46.4002264 C75.4185542,45.9624623 75.5586506,45.514066 75.6433494,45.0319245 C75.728506,44.5576415 75.7559759,44.0731887 75.7687952,43.5938208 C75.774747,43.373783 75.777494,43.153283 75.7788675,42.9332453 C75.7806988,42.6711415 75.7806988,42.4099623 75.7806988,42.1478585 L75.7806988,6.86878302 C75.7806988,6.60667925 75.7806988,6.34503774 75.7788675,6.08339623 C75.777494,5.86335849 75.774747,5.64332075 75.7687952,5.42282075 C75.7559759,4.94299057 75.728506,4.459 75.6433494,3.98425472 C75.5586506,3.50211321 75.4185542,3.05371698 75.1974217,2.61641509 C74.9804096,2.18558491 74.697012,1.79266038 74.3595904,1.45104717 C74.0207952,1.10989623 73.6320964,0.823754717 73.2058554,0.605103774 C72.7722892,0.382292453 72.3281928,0.240839623 71.8515904,0.154396226 C71.3809398,0.0688773585 70.9011325,0.0406792453 70.4263614,0.0277358491 C70.2070602,0.0217264151 69.9891325,0.0194150943 69.7712048,0.0175660377 C69.5125301,0.0161792453 69.2529398,0.0161792453 68.9942651,0.0161792453 L6.78643373,0.0161792453 Z" id="Fill-1" fill="#1A1919" mask="url(#mask-2)"></path>
                </g>
                <path d="M68.9942651,1.64889623 L69.759759,1.65028302 C69.9666988,1.65166981 70.1740964,1.65398113 70.3824096,1.65999057 C70.745012,1.66969811 71.1694217,1.68957547 71.564988,1.76122642 C71.9083614,1.82363208 72.1967952,1.91885849 72.4733253,2.06077358 C72.7466506,2.20083962 72.9966265,2.38482075 73.215012,2.60485849 C73.4343133,2.82674528 73.6165301,3.07960377 73.7570843,3.35834906 C73.8971807,3.63570755 73.9905783,3.92508491 74.0523855,4.2745566 C74.1228916,4.66979245 74.1425783,5.09923585 74.1521928,5.46766038 C74.1581446,5.67521698 74.1608916,5.88323585 74.1618072,6.09633962 C74.1636386,6.35382075 74.1636386,6.61083962 74.1636386,6.86878302 L74.1636386,42.1478585 C74.1636386,42.4058019 74.1636386,42.6628208 74.1618072,42.9253868 C74.1608916,43.1334057 74.1581446,43.3414245 74.1521928,43.5499057 C74.1425783,43.9174057 74.1228916,44.3468491 74.0514699,44.7462453 C73.9905783,45.0910943 73.8971807,45.3804717 73.7561687,45.659217 C73.6160723,45.9375 73.4343133,46.1898962 73.2159277,46.4103962 C72.9961687,46.632283 72.7471084,46.8153396 72.4705783,46.9567925 C72.1958795,47.0982453 71.9083614,47.1934717 71.5681928,47.2549528 C71.1643855,47.3275283 70.7225783,47.3478679 70.3897349,47.3566509 C70.180506,47.3617358 69.9721928,47.3645094 69.7583855,47.365434 C69.5042892,47.367283 69.2488193,47.367283 68.9942651,47.367283 L6.78643373,47.367283 C6.78322892,47.367283 6.7800241,47.367283 6.77636145,47.367283 C6.52501205,47.367283 6.27274699,47.367283 6.01681928,47.365434 C5.80804819,47.3645094 5.59973494,47.3617358 5.39828916,47.3571132 C5.05766265,47.3478679 4.61539759,47.3275283 4.21525301,47.2554151 C3.87187952,47.1934717 3.58436145,47.0982453 3.306,46.9549434 C3.03221687,46.8148774 2.78315663,46.6318208 2.56339759,46.4094717 C2.34546988,46.1898962 2.16416867,45.9379623 2.02407229,45.659217 C1.88351807,45.380934 1.78966265,45.0906321 1.72785542,44.7416226 C1.65689157,44.3426887 1.63720482,43.9155566 1.62713253,43.5499057 C1.62163855,43.3409623 1.6193494,43.1315566 1.6179759,42.924 L1.61706024,42.3101132 L1.61706024,6.70699057 L1.6179759,6.09449057 C1.6193494,5.88508491 1.62163855,5.67614151 1.62713253,5.46719811 C1.63720482,5.10108491 1.65689157,4.67349057 1.72877108,4.27132075 C1.78966265,3.92600943 1.88351807,3.63524528 2.02453012,3.35557547 C2.16371084,3.07914151 2.34546988,2.82674528 2.56431325,2.60578302 C2.7826988,2.38482075 3.03313253,2.20176415 3.30828916,2.06031132 C3.58344578,1.91839623 3.87187952,1.82363208 4.21525301,1.76122642 C4.61081928,1.68957547 5.03522892,1.66969811 5.39874699,1.65999057 C5.60568675,1.65398113 5.81308434,1.65166981 6.0186506,1.65028302 L6.78643373,1.64889623 L68.9942651,1.64889623" id="Fill-4" fill="#FFFFFE"></path>
                <path d="M19.9193253,16.5513679 C20.5621205,15.7400943 20.9979759,14.6505377 20.8830602,13.5374057 C19.9426747,13.5845566 18.7948916,14.1637736 18.1305783,14.9759717 C17.5340241,15.671217 17.0061446,16.8060755 17.143494,17.8725189 C18.199253,17.9649717 19.2540964,17.3399906 19.9193253,16.5513679" id="Fill-5" fill="#1A1919"></path>
                <path d="M20.8706988,18.081 C19.3378795,17.9885472 18.0344337,18.9593019 17.3023614,18.9593019 C16.5698313,18.9593019 15.4486024,18.1272264 14.2358072,18.1498774 C12.6576627,18.1729906 11.1935181,19.0739434 10.3923133,20.5069623 C8.74503614,23.3739245 9.95783133,27.6262925 11.5597831,29.9607264 C12.3376386,31.1159245 13.2752771,32.3876132 14.510506,32.3423113 C15.6775181,32.2960849 16.1353494,31.5791132 17.5537108,31.5791132 C18.9716145,31.5791132 19.3836627,32.3423113 20.6193494,32.3191981 C21.9003614,32.2960849 22.7015663,31.1635377 23.4794217,30.0069528 C24.3717349,28.6904245 24.7370843,27.4191981 24.7604337,27.3493962 C24.7370843,27.3258208 22.2895181,26.3781792 22.2670843,23.5352547 C22.2437349,21.1545943 24.1886024,20.0225094 24.2801687,19.9522453 C23.1818313,18.3121321 21.4658795,18.1272264 20.8706988,18.081" id="Fill-6" fill="#1A1919"></path>
                <path d="M32.3837831,24.0155472 L35.4420964,24.0155472 C37.7628434,24.0155472 39.0836867,22.7540283 39.0836867,20.5670566 C39.0836867,18.3805472 37.7628434,17.1305849 35.454,17.1305849 L32.3837831,17.1305849 L32.3837831,24.0155472 Z M36.1563133,14.8594811 C39.4884096,14.8594811 41.8091566,17.1786604 41.8091566,20.5550377 C41.8091566,23.943434 39.4407952,26.2746321 36.072988,26.2746321 L32.3837831,26.2746321 L32.3837831,32.1985472 L29.7182892,32.1985472 L29.7182892,14.8594811 L36.1563133,14.8594811 L36.1563133,14.8594811 Z" id="Fill-7" fill="#1A1919"></path>
                <path d="M50.5624337,27.4885377 L50.5624337,26.5150094 L47.5993494,26.7073113 C45.9333012,26.8154811 45.0647952,27.44 45.0647952,28.533717 C45.0647952,29.5909151 45.969012,30.2759906 47.3850843,30.2759906 C49.1939759,30.2759906 50.5624337,29.1101604 50.5624337,27.4885377 Z M42.4702651,28.6058302 C42.4702651,26.3828019 44.1482169,25.1092642 47.242241,24.9169623 L50.5624337,24.7126415 L50.5624337,23.7515943 C50.5624337,22.3453868 49.6463133,21.5766415 48.0159759,21.5766415 C46.6708675,21.5766415 45.6952289,22.2732736 45.4928675,23.3429528 L43.0887952,23.3429528 C43.1606747,21.0958868 45.2547952,19.461783 48.0873976,19.461783 C51.1338072,19.461783 53.121253,21.0718491 53.121253,23.5713113 L53.121253,32.1985472 L50.6576627,32.1985472 L50.6576627,30.1197453 L50.5981446,30.1197453 C49.8962892,31.4774151 48.3488193,32.3302925 46.6708675,32.3302925 C44.1958313,32.3302925 42.4702651,30.8408774 42.4702651,28.6058302 L42.4702651,28.6058302 Z" id="Fill-8" fill="#1A1919"></path>
                <path d="M55.3861446,36.8364434 L55.3861446,34.7581038 C55.5527952,34.7816792 55.9570602,34.805717 56.1713253,34.805717 C57.3493253,34.805717 58.0159277,34.3013868 58.4206506,33.0033491 L58.6587229,32.2346038 L54.1481687,19.6180283 L56.9326988,19.6180283 L60.0747952,29.8553302 L60.1343133,29.8553302 L63.2759518,19.6180283 L65.9895181,19.6180283 L61.3123133,32.8716038 C60.2414458,35.9114528 59.0153735,36.9090189 56.4213012,36.9090189 C56.2189398,36.9090189 55.564241,36.8849811 55.3861446,36.8364434" id="Fill-9" fill="#1A1919"></path>
            </g>
        </g>
    </g>
</svg>