<svg xmlns="http://www.w3.org/2000/svg" viewBox="0 0 3000 3000"><defs><style>.cls-1{isolation:isolate;}.cls-2{fill:#cff5f4;}.cls-3{fill:#fff;}.cls-4{fill:#89dade;}.cls-5{fill:#24b2b0;}.cls-6{fill:#5fc7c7;}.cls-26,.cls-7{opacity:0.4;}.cls-8{fill:#baf0e9;}.cls-9{fill:#f1cf6e;}.cls-10{fill:#42b7b5;}.cls-11{fill:#009994;}.cls-12{fill:#4abcbb;}.cls-13{fill:#008ca6;opacity:0.18;mix-blend-mode:multiply;}.cls-14{fill:#ffcdab;}.cls-15{fill:#ffae81;}.cls-16{fill:#003284;}.cls-17{fill:#000e75;}.cls-18{fill:#bfe9f0;}.cls-19{fill:#004dc1;}.cls-20{fill:#ffb023;}.cls-21{fill:#fdbfa8;}.cls-22{fill:#fdcb5c;}.cls-23{fill:#f2b851;}.cls-24{fill:#ffe5a1;}.cls-25{fill:#55b7b4;}.cls-26,.cls-38,.cls-56{fill:#dbeff4;}.cls-27{fill:#06869d;}.cls-28{fill:#007ea5;opacity:0.8;}.cls-29{fill:#0090b2;}.cls-30{fill:#007da3;}.cls-31{fill:#cce9f0;}.cls-32{fill:#001672;}.cls-33{fill:#00668e;}.cls-34{fill:#ffcdac;}.cls-35{fill:#b0dde7;}.cls-36{fill:#66bcd1;}.cls-37{fill:#1c3082;}.cls-39{fill:#ffad83;}.cls-40{fill:#df705f;}.cls-41{fill:#c1e2e8;}.cls-42{fill:#9e0a6c;}.cls-43{fill:#630849;}.cls-44{fill:#f41cc1;}.cls-45{fill:#593402;}.cls-46{fill:#e4b69d;}.cls-47{fill:#cea28b;}.cls-48{fill:#969696;}.cls-49{fill:#606060;}.cls-50{fill:#2d2d2d;}.cls-51{fill:#212121;}.cls-52{fill:#bababa;}.cls-53{fill:#141414;}.cls-54{fill:#333;}.cls-55{fill:none;stroke:#3f3f3f;stroke-miterlimit:10;stroke-width:0.5px;}.cls-56{opacity:0.2;}</style></defs><g class="cls-1"><g id="_Layer_" data-name="&lt;Layer&gt;"><path class="cls-2" d="M262.08,2060.37c142.84,345.09,661.35,521.14,1218.26,438a1920,1920,0,0,0,233.1-49.82c638.92-178.61,1025-642,862.37-1034.94s-812.43-566.72-1451.36-388.1c-117.48,32.84-226.41,75.31-325,125.2C362.1,1372.08,129.34,1739.67,262.08,2060.37Z"/><path class="cls-2" d="M2380.42,2242.88c-245.25,217.38-608.85,259.21-568.84,333.89,62,115.81,408,77.86,667.93-121.71,297.95-228.74,331.39-570.74,250.37-595.5C2623.37,1827,2651.64,2002.47,2380.42,2242.88Z"/><path class="cls-2" d="M724.17,647.24c797.89-478.81,1443.08-511.62,1829.41,23.43,332.18,460,63.8,1036-256.35,1230.84L1987.47,1905H228.32S146.86,993.68,724.17,647.24Z"/><path class="cls-2" d="M424.21,649.52c86-62.4,160.05-45,166.74-119.3,4.51-50.16-80.28-44.75-124.41-18.09-26.72,16.15-63.79,38.8-102.64,82.15-67.69,75.54-70.67,169.13-46.69,163.59C350,750.32,358.16,697.44,424.21,649.52Z"/><path class="cls-2" d="M268.06,878c-10.43,23.64-19.54,45.28-43.05,41-16.79-3.07-23.28-42.9-11.88-66.37,11.13-23,29.84-40.31,55.49-33.33S278.87,853.47,268.06,878Z"/><path class="cls-2" d="M2633.37,640.13c-25.73,6-61-149.39-256.88-261.95-130.16-74.8-296.66-130.84-296.69-141.66-.06-20.88,123-8.26,182.66-1.94,138.31,14.64,299.46,136.86,358.92,217.45C2671.21,519.58,2676.82,629.91,2633.37,640.13Z"/><path class="cls-3" d="M1480.8,382.94a48.2,48.2,0,0,0-61.2-59.87,76.84,76.84,0,0,0-108.23-15.43A120.94,120.94,0,0,0,1089.91,323c-2.26-.22-4.54-.34-6.85-.34a68.17,68.17,0,0,0-67.71,60.28Z"/><path class="cls-4" d="M1432.47,348.57c-8.72-32.56-37.58-55.3-70.19-55.3-27.26,0-53.74,13.23-65.89,32.91l-2.2-1.36c12.81-20.73,39.53-34.13,68.09-34.13,33.77,0,63.66,23.52,72.69,57.21Z"/><path class="cls-4" d="M1481.84,384.23H1190.41v-2.58H1479.9a48.48,48.48,0,0,0,1.72-12.81c0-25.87-20.28-46.91-45.2-46.91a43.82,43.82,0,0,0-14.16,2.36l-.84-2.44a46.24,46.24,0,0,1,15-2.5c26.34,0,47.78,22.2,47.78,49.49a51.24,51.24,0,0,1-2.08,14.47Z"/><rect class="cls-4" x="1133.08" y="381.65" width="33.56" height="2.58"/><rect class="cls-4" x="1099.05" y="381.65" width="15.27" height="2.58"/><path class="cls-4" d="M1016.64,383.09l-2.57-.3a69.49,69.49,0,0,1,58.58-60.65l.39,2.56A66.87,66.87,0,0,0,1016.64,383.09Z"/><path class="cls-4" d="M1085.07,350.05l-2.57-.28a122.29,122.29,0,0,1,167.09-100l-1,2.4a119.69,119.69,0,0,0-163.56,97.85Z"/><path class="cls-3" d="M2435.07,581.78A89.67,89.67,0,0,0,2321.21,470.4a143,143,0,0,0-201.37-28.72A224.9,224.9,0,0,0,1920,320.11c-98,0-181.38,62.69-212.2,150.16-4.19-.41-8.44-.63-12.74-.63a126.82,126.82,0,0,0-126,112.14Z"/><path class="cls-4" d="M2346.22,517.54c-16.35-61-70.5-103.69-131.66-103.69-51.08,0-100.73,24.82-123.53,61.75l-2.2-1.35c23.26-37.67,73.79-63,125.73-63,62.33,0,117.5,43.43,134.16,105.6Z"/><path class="cls-4" d="M2436.17,583.07H1894.81v-2.58h539.43a91.51,91.51,0,0,0,3.45-25c0-48.72-38.22-88.37-85.2-88.37a82.41,82.41,0,0,0-26.7,4.45l-.84-2.44a84.83,84.83,0,0,1,27.54-4.59c48.4,0,87.78,40.8,87.78,90.95a94,94,0,0,1-3.83,26.61Z"/><rect class="cls-4" x="1788.14" y="580.49" width="62.44" height="2.58"/><rect class="cls-4" x="1724.84" y="580.49" width="28.4" height="2.58"/><path class="cls-4" d="M1570.4,581.93l-2.56-.29a128.12,128.12,0,0,1,108.05-111.86l.38,2.55A125.54,125.54,0,0,0,1570.4,581.93Z"/><path class="cls-4" d="M1697.72,520.48l-2.57-.28a226.38,226.38,0,0,1,309.34-185.08l-1,2.39a223.8,223.8,0,0,0-305.81,183Z"/><path class="cls-5" d="M2414.58,1912.13H2123.29a6.47,6.47,0,1,1,0-12.93h291.29a6.47,6.47,0,1,1,0,12.93Z"/><path class="cls-5" d="M1960.14,1912.13H768.55a6.47,6.47,0,1,1,0-12.93H1960.14a6.47,6.47,0,1,1,0,12.93Z"/><path class="cls-5" d="M526.3,1912.13h-186a6.47,6.47,0,1,1,0-12.93h186a6.47,6.47,0,1,1,0,12.93Z"/><path class="cls-5" d="M340.27,1912.13H97.32a6.47,6.47,0,1,1,0-12.93h243a6.47,6.47,0,1,1,0,12.93Z"/><g id="a_laptop" data-name="a laptop"><path class="cls-6" d="M2519,687.9V1806c0,28.39-18.17,52.46-42.88,59.92a54.72,54.72,0,0,1-16.39,2.49H701.6c-32.61,0-59.27-28.07-59.27-62.41V687.9c0-34.34,26.66-62.41,59.27-62.41H2459.77c31.85,0,58,26.82,59.22,60C2519,686.33,2519,687.09,2519,687.9Z"/><rect class="cls-3" x="715.67" y="677.09" width="1730.82" height="1047.97"/><polygon class="cls-3" points="604.47 1873.66 307.01 2073.28 2838.14 2073.28 2546.09 1865.6 604.47 1873.66"/><path class="cls-4" d="M1927.73,2073.28H1204.8l34.26-84.88,659.82,3.61Z"/><g class="cls-7"><path class="cls-6" d="M2468,1967.67,691.8,1970l103.52-91.76H2352.76Z"/><rect class="cls-3" x="741.21" y="1905.33" width="1670.37" height="11.76"/><path class="cls-3" d="M844.78,1987.81l-8.34-8.3c12.8-12.85,25.59-25.93,37.95-38.58,13.78-14.1,28-28.68,42.57-43.23,4.07-4.32,8.16-8.44,12.12-12.44,5.4-5.45,10.51-10.6,15.55-16.18l8.73,7.88c-5.22,5.79-10.66,11.28-15.92,16.58-3.93,4-8,8.06-12,12.29l-.12.13c-14.52,14.52-28.77,29.09-42.55,43.19C870.42,1961.82,857.62,1974.92,844.78,1987.81Z"/><path class="cls-3" d="M978.4,1987.74l-8.46-8.16c21.17-22,42.92-44,64-65.39,14.59-14.81,29.68-30.13,44.45-45.28l8.43,8.21c-14.8,15.18-29.9,30.5-44.5,45.32C1021.26,1943.77,999.53,1965.83,978.4,1987.74Z"/><path class="cls-3" d="M1112.07,1987.63l-8.67-7.94c1.48-1.63,3.14-3.12,4.73-4.57,1-.91,2-1.77,2.81-2.61,1.51-1.79,3.14-3.57,4.71-5.28s3.14-3.43,4.52-5.09l.38-.45.47-.37a106.22,106.22,0,0,0,8.28-7.76c6.21-6.5,12.5-12.79,18.58-18.87s12.3-12.3,18.43-18.72,12.36-12.74,18.37-18.89c9-9.16,18.21-18.63,27.16-28.1l8.55,8.08c-9,9.54-18.31,19-27.29,28.24-6,6.14-12.2,12.48-18.3,18.81-6.2,6.5-12.51,12.81-18.6,18.9s-12.31,12.31-18.43,18.73l-.1.09c-2.86,2.86-5.81,5.81-8.84,8.29-1.45,1.72-3,3.41-4.51,5.06s-3.14,3.42-4.52,5.08l-.36.39c-1.1,1.1-2.28,2.17-3.42,3.2C1114.56,1985.17,1113.18,1986.42,1112.07,1987.63Z"/><path class="cls-3" d="M2285.09,1987.91c-9.51-9.08-17.59-17.22-25.44-25.63-4.66-5-9.28-9.72-13.74-14.34s-9.13-9.42-13.85-14.43c-8.14-8.4-16.41-16.7-24.41-24.72-9.85-9.89-20.05-20.12-30-30.53l8.51-8.12c9.84,10.31,20,20.5,29.81,30.34,8,8.07,16.34,16.4,24.54,24.87l.06.06c4.68,5,9.3,9.74,13.76,14.35s9.15,9.44,13.88,14.47c7.71,8.26,15.65,16.26,25,25.18Z"/><path class="cls-3" d="M2151.54,1987.92c-4-3.79-7.68-7.77-11.24-11.62-2.76-3-5.61-6-8.62-9.07-3-2.71-5.87-5.57-8.63-8.34s-5.48-5.48-8.31-8l-.33-.32c-13.69-14.41-27.59-28.6-41-42.32-8.45-8.63-17.19-17.54-25.75-26.39l8.45-8.18c8.53,8.82,17.26,17.72,25.7,26.33,13.43,13.71,27.31,27.87,41,42.29,3,2.71,5.84,5.55,8.59,8.3s5.47,5.47,8.3,8l.22.21c3.21,3.2,6.17,6.4,9,9.5,3.59,3.88,7,7.55,10.71,11.09Z"/><path class="cls-3" d="M2017.85,1987.8c-17-17.14-34-34.66-50.52-51.61-18.13-18.64-36.87-37.91-55.57-56.69l8.34-8.3c18.74,18.83,37.51,38.12,55.66,56.79,16.46,16.93,33.48,34.43,50.44,51.53Z"/><path class="cls-3" d="M1273.51,1980.6l-10.32-5.64c10.23-18.76,20.53-38,30.48-56.65,8.22-15.36,16.71-31.25,25.18-46.89l10.34,5.61c-8.46,15.61-16.94,31.48-25.14,46.82C1294.08,1942.5,1283.77,1961.79,1273.51,1980.6Z"/><rect class="cls-3" x="1375.37" y="1917.2" width="111.9" height="11.76" transform="translate(-749.68 2918.15) rotate(-77.86)"/><rect class="cls-3" x="1559" y="1868.38" width="11.76" height="109.4"/><rect class="cls-3" x="1826.12" y="1860.98" width="11.76" height="124.21" transform="translate(-692.23 1096.8) rotate(-28.26)"/><rect class="cls-3" x="1692.56" y="1867.13" width="11.76" height="111.9" transform="translate(-366.36 400.08) rotate(-12.14)"/></g><path class="cls-6" d="M642.33,865.05a8.07,8.07,0,0,1-8.07-8.07V687.9c0-38.86,30.21-70.48,67.34-70.48a8.07,8.07,0,1,1,0,16.13c-28.23,0-51.21,24.38-51.21,54.35V857A8.06,8.06,0,0,1,642.33,865.05Z"/><path class="cls-6" d="M642.33,1260.43a8.07,8.07,0,0,1-8.07-8.06V1142.08a8.07,8.07,0,0,1,16.13,0v110.29A8.06,8.06,0,0,1,642.33,1260.43Z"/><path class="cls-6" d="M872.93,1876.46H701.6c-37.13,0-67.34-31.62-67.34-70.48V1660.89a8.07,8.07,0,0,1,16.13,0V1806c0,30,23,54.35,51.21,54.35H872.93a8.07,8.07,0,0,1,0,16.13Z"/><path class="cls-6" d="M1434.83,1876.46H1195.77a8.07,8.07,0,0,1,0-16.13h239.06a8.07,8.07,0,0,1,0,16.13Z"/><path class="cls-6" d="M2085.44,1876.46H1880.89a8.07,8.07,0,0,1,0-16.13h204.55a8.07,8.07,0,1,1,0,16.13Z"/><path class="cls-6" d="M2459.77,1876.46h-258.5a8.07,8.07,0,0,1,0-16.13h258.5a46.73,46.73,0,0,0,14-2.12c21.95-6.63,37.23-28.1,37.23-52.23V1394.69a8.07,8.07,0,0,1,16.13,0V1806c0,31.18-20,59-48.62,67.64A62.54,62.54,0,0,1,2459.77,1876.46Z"/><path class="cls-6" d="M2519,1190.74a8.07,8.07,0,0,1-8.06-8.07V880.11a8.07,8.07,0,0,1,16.13,0v302.56A8.07,8.07,0,0,1,2519,1190.74Z"/><path class="cls-6" d="M2519,693.58a8.06,8.06,0,0,1-8.05-7.77c-1-28.82-24-52.26-51.16-52.26H2070.4a8.07,8.07,0,1,1,0-16.13h389.37a65.43,65.43,0,0,1,46.86,20,71.64,71.64,0,0,1,20.42,47.83,8.07,8.07,0,0,1-7.77,8.35Z"/><path class="cls-6" d="M1698.44,633.55h-595a8.07,8.07,0,1,1,0-16.13h595a8.07,8.07,0,0,1,0,16.13Z"/><path class="cls-6" d="M1103.4,633.55H701.6a8.07,8.07,0,0,1,0-16.13h401.8a8.07,8.07,0,0,1,0,16.13Z"/><path class="cls-6" d="M1832.8,958.54H791.42a41.9,41.9,0,0,1-41.85-41.86V770.42a41.89,41.89,0,0,1,41.85-41.85H1832.8a41.89,41.89,0,0,1,41.85,41.85V916.68A41.9,41.9,0,0,1,1832.8,958.54ZM791.42,744.69a25.76,25.76,0,0,0-25.73,25.73V916.68a25.76,25.76,0,0,0,25.73,25.73H1832.8a25.76,25.76,0,0,0,25.73-25.73V770.42a25.76,25.76,0,0,0-25.73-25.73Z"/><rect class="cls-8" x="1913.56" y="732.29" width="486.47" height="213.85" rx="33.79"/><path class="cls-6" d="M1420.84,1376.53H795.38a45.87,45.87,0,0,1-45.81-45.82v-300a45.87,45.87,0,0,1,45.81-45.82h625.46a45.87,45.87,0,0,1,45.82,45.82v300A45.87,45.87,0,0,1,1420.84,1376.53ZM795.38,1001a29.73,29.73,0,0,0-29.69,29.69v300a29.73,29.73,0,0,0,29.69,29.69h625.46a29.72,29.72,0,0,0,29.69-29.69v-300a29.72,29.72,0,0,0-29.69-29.69Z"/><rect class="cls-8" x="1500.31" y="994.92" width="366.29" height="692.54" rx="33.79"/><path class="cls-9" d="M1695.88,1202.24l20.53-6.72-2.84-16.09-21.88-.3a95.23,95.23,0,0,0-3.38-9.12l17-13.33-8.17-14.15-20.68,7.21a96.92,96.92,0,0,0-6.29-7.4l11.41-18.35L1669,1113.48l-17,13.84a94.6,94.6,0,0,0-8.45-4.82l4.44-21.12-15.36-5.59-11.2,18.81c-3.17-.7-6.37-1.24-9.58-1.62l-3-21.39h-16.35l-4.1,21.51c-3.2.42-6.4,1-9.56,1.73l-10.17-19-15.36,5.59,3.5,21.59a92.37,92.37,0,0,0-8.4,4.91l-16.06-14.4L1519.87,1124l10.69,19.11a96.9,96.9,0,0,0-6.22,7.47l-20-8-8.17,14.15L1512.7,1171a96.19,96.19,0,0,0-3.28,9.16l-21.56-.7-2.84,16.09,20.46,7.77a95.5,95.5,0,0,0,.07,9.72l-20.53,6.72,2.84,16.09,21.88.3a94.24,94.24,0,0,0,3.38,9.12l-17,13.33,8.17,14.15,20.68-7.21a95,95,0,0,0,6.29,7.4l-11.41,18.35,12.52,10.51,16.95-13.84a94.6,94.6,0,0,0,8.45,4.82l-4.44,21.12,15.36,5.59,11.2-18.81a94.35,94.35,0,0,0,9.58,1.62l3,21.39h16.35l4.09-21.51a95.06,95.06,0,0,0,9.57-1.73l10.17,19,15.36-5.59-3.5-21.58a94.87,94.87,0,0,0,8.4-4.92l16.06,14.4,12.52-10.51-10.69-19.11a96.9,96.9,0,0,0,6.22-7.47l20,8,8.17-14.15-16.56-14.29a95.22,95.22,0,0,0,3.28-9.16l21.56.7,2.84-16.09L1696,1212C1696.09,1208.72,1696.06,1205.48,1695.88,1202.24Zm-29.29-39.76a8.12,8.12,0,1,1-3,11.09A8.1,8.1,0,0,1,1666.59,1162.48Zm-31.91-26.76a8.12,8.12,0,1,1,3,11.1A8.13,8.13,0,0,1,1634.68,1135.72Zm-32.88-15.34a8.13,8.13,0,1,1-8.12,8.13A8.13,8.13,0,0,1,1601.8,1120.38Zm-44.27,11.29a8.12,8.12,0,1,1-3,11.09A8.11,8.11,0,0,1,1557.53,1131.67Zm-32.7,31.9a8.12,8.12,0,1,1,3,11.1A8.12,8.12,0,0,1,1524.83,1163.57Zm-12.37,44a8.12,8.12,0,1,1,8.12,8.13A8.13,8.13,0,0,1,1512.46,1207.55Zm22.38,47.25a8.12,8.12,0,1,1,3-11.1A8.13,8.13,0,0,1,1534.84,1254.8Zm32.32,24.77a8,8,0,1,1-2.93-11A8,8,0,0,1,1567.16,1279.57Zm32.46,16.85a8.17,8.17,0,1,1,8.18-8.17A8.17,8.17,0,0,1,1599.62,1296.42Zm44.28-10.81a8.12,8.12,0,1,1,3-11.1A8.12,8.12,0,0,1,1643.9,1285.61Zm-43.19-13.16a64.83,64.83,0,1,1,64.83-64.82A64.82,64.82,0,0,1,1600.71,1272.45Zm75.89-18.75a8.12,8.12,0,1,1-3-11.09A8.11,8.11,0,0,1,1676.6,1253.7Zm4.25-35.86a8.12,8.12,0,1,1,8.12-8.12A8.12,8.12,0,0,1,1680.85,1217.84Z"/><path class="cls-6" d="M1521.78,1368.41l-19.71-6.19c0-1.3.08-2.6.08-3.9s0-2.3-.07-3.45l19.7-6.18a4.56,4.56,0,0,0,3.13-5.14l-2.58-14.65a4.55,4.55,0,0,0-4.7-3.76l-20.53.92c-.76-2.36-1.6-4.69-2.52-7l16.31-12.48a4.56,4.56,0,0,0,1.17-5.91l-7.43-12.87a4.56,4.56,0,0,0-5.7-1.93l-18.93,7.86c-1.53-2-3.12-3.86-4.78-5.7l11-17.27a4.55,4.55,0,0,0-.91-6l-11.39-9.56a4.57,4.57,0,0,0-6,.14l-15,13.82c-2.11-1.32-4.26-2.57-6.47-3.75l4.45-19.93a4.56,4.56,0,0,0-2.9-5.28l-14-5.09a4.57,4.57,0,0,0-5.61,2.19l-9.39,18.1c-2.44-.51-4.9-1-7.39-1.29L1409,1234a4.55,4.55,0,0,0-4.52-4h-14.87a4.55,4.55,0,0,0-4.52,4l-2.64,20.24c-2.49.34-5,.78-7.38,1.29l-9.4-18.1a4.57,4.57,0,0,0-5.61-2.19l-14,5.09a4.55,4.55,0,0,0-2.89,5.28l4.44,19.93c-2.21,1.18-4.36,2.43-6.47,3.75l-15.05-13.82a4.57,4.57,0,0,0-6-.14l-11.39,9.56a4.55,4.55,0,0,0-.91,6l11,17.27c-1.66,1.84-3.25,3.75-4.78,5.7l-18.93-7.86a4.56,4.56,0,0,0-5.7,1.93L1282,1300.7a4.57,4.57,0,0,0,1.17,5.91l16.31,12.48c-.92,2.28-1.76,4.61-2.52,7l-20.53-.92a4.55,4.55,0,0,0-4.7,3.76l-2.58,14.65a4.56,4.56,0,0,0,3.13,5.14l19.7,6.18c0,1.15-.07,2.29-.07,3.45s0,2.6.08,3.9l-19.71,6.19a4.55,4.55,0,0,0-3.13,5.14l2.58,14.65a4.57,4.57,0,0,0,4.7,3.76l20.68-.93q1.14,3.49,2.52,6.87l-16.46,12.59a4.56,4.56,0,0,0-1.17,5.9l7.43,12.88a4.57,4.57,0,0,0,5.7,1.93l19.2-8q2.25,2.85,4.68,5.55l-11.2,17.54a4.55,4.55,0,0,0,.91,6l11.39,9.55a4.56,4.56,0,0,0,6-.13l15.35-14.1c2,1.27,4.13,2.48,6.26,3.61l-4.53,20.35a4.55,4.55,0,0,0,2.89,5.28l14,5.08a4.56,4.56,0,0,0,5.61-2.18l9.61-18.52q3.51.73,7.11,1.23l2.7,20.71a4.55,4.55,0,0,0,4.52,4h14.87a4.55,4.55,0,0,0,4.52-4l2.71-20.71q3.58-.5,7.1-1.23l9.61,18.52a4.56,4.56,0,0,0,5.61,2.18l14-5.08a4.56,4.56,0,0,0,2.9-5.28l-4.54-20.35c2.13-1.13,4.22-2.34,6.26-3.61l15.35,14.1a4.56,4.56,0,0,0,6,.13l11.39-9.55a4.55,4.55,0,0,0,.91-6l-11.2-17.54q2.43-2.7,4.68-5.55l19.2,8a4.57,4.57,0,0,0,5.7-1.93l7.43-12.88a4.55,4.55,0,0,0-1.17-5.9l-16.46-12.59q1.38-3.37,2.52-6.87l20.68.93a4.57,4.57,0,0,0,4.7-3.76l2.58-14.65A4.55,4.55,0,0,0,1521.78,1368.41Zm-69.19-86.19a94.19,94.19,0,0,1,38,65.23c-24.87,9.62-49.52,6.13-58.68-9.74S1432,1298.93,1452.59,1282.22ZM1397,1264.07a93.88,93.88,0,0,1,37.08,7.59c-4.11,26.32-19.45,45.88-37.77,45.88s-33.42-19.28-37.67-45.31A93.87,93.87,0,0,1,1397,1264.07Zm15.25,94.25a15.26,15.26,0,1,1-15.25-15.26A15.25,15.25,0,0,1,1412.26,1358.32Zm-71.76-75.43c20.53,16.7,29.67,39.62,20.56,55.41s-33.21,19.28-57.78,10.08A94.17,94.17,0,0,1,1340.5,1282.89Zm.75,151.4a94.14,94.14,0,0,1-37.84-65.08c24.64-9.3,48.91-5.72,58,10S1361.49,1417.61,1341.25,1434.29Zm55.76,18.27a93.91,93.91,0,0,1-37.68-7.85c4.24-26,19.49-45.33,37.68-45.33s33.43,19.29,37.67,45.33A93.86,93.86,0,0,1,1397,1452.56Zm56-18.42c-20.62-16.71-29.82-39.7-20.69-55.52s33.62-19.34,58.39-9.85A94.12,94.12,0,0,1,1453,1434.14Z"/><path class="cls-6" d="M1882.1,1645.61l-10.78-5.52a65.19,65.19,0,0,0,.57-8.55,68,68,0,0,0-.46-7.73l11-5.35a1.91,1.91,0,0,0,.59-2.34l-5.4-16.63c-.33-1-1.12-1.67-1.84-1.55l-12,1.87a66.1,66.1,0,0,0-9.5-13.16l5.77-10.85a1.93,1.93,0,0,0-.9-2.24L1845,1563.28a1.94,1.94,0,0,0-2.4-.18l-8.69,8.66a65.62,65.62,0,0,0-15.3-5l-1.73-12.33c-.1-.73-1-1.29-2-1.29h-17.48a1.92,1.92,0,0,0-2,1.27l-2,12.32a65.68,65.68,0,0,0-15.14,4.88l-8.79-9.1a1.92,1.92,0,0,0-2.42.17L1752.83,1573a1.94,1.94,0,0,0-.91,2.23l5.73,11.3a66,66,0,0,0-9.32,12.71l-12.61-2.23c-.72-.13-1.53.55-1.85,1.55l-5.4,16.63a1.93,1.93,0,0,0,.57,2.34l11.35,5.81a66,66,0,0,0-.54,8.25,67.9,67.9,0,0,0,.43,7.45l-11.54,5.63a1.92,1.92,0,0,0-.59,2.35l5.4,16.62c.32,1,1.12,1.67,1.84,1.56l12.53-2a66.69,66.69,0,0,0,9.17,12.83l-6,11.26a1.92,1.92,0,0,0,.9,2.25l14.14,10.27a1.94,1.94,0,0,0,2.4.18l8.89-8.85a65.55,65.55,0,0,0,15.09,5.08l1.75,12.44a1.91,1.91,0,0,0,2,1.29h17.49a1.93,1.93,0,0,0,2-1.27l2-12.21a65.44,65.44,0,0,0,15.35-4.8l8.6,8.91a1.92,1.92,0,0,0,2.41-.16l14.15-10.28a2,2,0,0,0,.91-2.23L1853.7,1677a65.81,65.81,0,0,0,9.66-13l12.05,2.13c.73.13,1.53-.54,1.86-1.55l5.4-16.63A1.91,1.91,0,0,0,1882.1,1645.61Zm-76.23-3.07a11,11,0,1,1,11-11A11,11,0,0,1,1805.87,1642.54Z"/><path class="cls-6" d="M2366.24,1314h-412a41.91,41.91,0,0,1-41.86-41.86V1020.91a41.91,41.91,0,0,1,41.86-41.86h412a41.9,41.9,0,0,1,41.85,41.86v251.18A41.9,41.9,0,0,1,2366.24,1314Zm-412-318.77a25.76,25.76,0,0,0-25.73,25.73v251.18a25.76,25.76,0,0,0,25.73,25.73h412a25.76,25.76,0,0,0,25.73-25.73V1020.91a25.76,25.76,0,0,0-25.73-25.73Z"/><path class="cls-9" d="M1983.9,1449l-.83,21.58,16.08,2.93,7.88-20.42a95.49,95.49,0,0,0,9.72,0l6.61,20.54,16.11-2.75.42-21.89q4.59-1.43,9.12-3.33l13.25,17.07,14.2-8.09-7.09-20.71a95.33,95.33,0,0,0,7.45-6.24l18.26,11.49,10.58-12.46-13.75-17q2.64-4.1,4.85-8.41l21.11,4.56,5.68-15.33-18.75-11.31q1.08-4.74,1.7-9.57l21.38-2.93.09-16.35-21.45-4.21a93.35,93.35,0,0,0-1.7-9.58l19.08-10.07-5.51-15.38-21.63,3.38q-2.24-4.37-4.85-8.42l14.5-16L2096,1277.46,2076.82,1288a92,92,0,0,0-7.45-6.25l8.15-20-14.11-8.25L2049,1270a95.64,95.64,0,0,0-9.13-3.31l.82-21.58-16.08-2.93-7.88,20.42a92.69,92.69,0,0,0-9.72,0l-6.6-20.55-16.11,2.75-.42,21.89q-4.61,1.43-9.12,3.33L1961.53,1253l-14.2,8.09,7.09,20.71A91.55,91.55,0,0,0,1947,1288l-18.27-11.5L1918.13,1289l13.75,17a96.56,96.56,0,0,0-4.85,8.42l-21.12-4.56-5.67,15.32,18.75,11.32a93.28,93.28,0,0,0-1.7,9.56L1895.9,1349l-.09,16.34,21.46,4.21a93.3,93.3,0,0,0,1.69,9.58l-19.08,10.07,5.51,15.39,21.63-3.39q2.24,4.37,4.85,8.42l-14.49,16,10.43,12.58,19.15-10.57a96,96,0,0,0,7.45,6.26l-8.14,20,14.11,8.25,14.38-16.49A95.82,95.82,0,0,0,1983.9,1449Zm47.46-13.66a8.12,8.12,0,1,1-9.37-6.64A8.12,8.12,0,0,1,2031.36,1435.3Zm36.17-20.63a8.12,8.12,0,1,1-11.44-1.07A8.12,8.12,0,0,1,2067.53,1414.67Zm25.8-25.52a8.12,8.12,0,1,1-4.79-10.43A8.11,8.11,0,0,1,2093.33,1389.15Zm4.79-45.43a8.12,8.12,0,1,1-9.37-6.64A8.12,8.12,0,0,1,2098.12,1343.72ZM2079.55,1302a8.12,8.12,0,1,1-11.43-1.06A8.12,8.12,0,0,1,2079.55,1302Zm-37-26.86a8.12,8.12,0,1,1-10.44,4.79A8.12,8.12,0,0,1,2042.6,1275.11Zm-52.07,4.58a8.12,8.12,0,1,1,9.37,6.64A8.11,8.11,0,0,1,1990.53,1279.69Zm-34.46,21.71a8,8,0,1,1,11.3,1A8,8,0,0,1,1956.07,1301.4ZM1929,1326a8.17,8.17,0,1,1,4.82,10.5A8.16,8.16,0,0,1,1929,1326Zm-5.23,45.27a8.12,8.12,0,1,1,9.37,6.64A8.11,8.11,0,0,1,1923.77,1371.27Zm27.33-35.93a64.83,64.83,0,1,1,38.28,83.3A64.82,64.82,0,0,1,1951.1,1335.34Zm-8.76,77.68a8.12,8.12,0,1,1,11.43,1.06A8.12,8.12,0,0,1,1942.34,1413Zm32.15,16.43a8.12,8.12,0,1,1,4.8,10.43A8.12,8.12,0,0,1,1974.49,1429.45Z"/><path class="cls-6" d="M1888.52,1228l12.65-16.34c1.2.5,2.4,1,3.63,1.43s2.16.78,3.25,1.14l-1,20.62a4.55,4.55,0,0,0,3.74,4.72l14.63,2.66a4.56,4.56,0,0,0,5.16-3.1l6.26-19.57q3.72.15,7.41,0l6,19.63a4.58,4.58,0,0,0,5.13,3.16l14.66-2.51a4.55,4.55,0,0,0,3.79-4.67l-.81-20.49q3.56-1.12,7-2.49l12.37,16.34a4.57,4.57,0,0,0,5.89,1.21l12.92-7.37a4.56,4.56,0,0,0,2-5.69l-7.74-18.91q3-2.28,5.77-4.77l17.15,11.09a4.55,4.55,0,0,0,6-.88l9.62-11.34a4.54,4.54,0,0,0-.1-6l-13.71-15.1c1.33-2.1,2.58-4.26,3.77-6.48l19.9,4.55a4.56,4.56,0,0,0,5.29-2.86l5.16-13.94a4.56,4.56,0,0,0-2.15-5.63L2044,1137q.81-3.67,1.35-7.37l20.24-2.52a4.58,4.58,0,0,0,4-4.51l.08-14.87a4.56,4.56,0,0,0-4-4.54l-20.23-2.75q-.51-3.72-1.28-7.37l18.19-9.32a4.56,4.56,0,0,0,2.22-5.59l-5-14a4.57,4.57,0,0,0-5.26-2.92l-20,4.35c-1.15-2.19-2.38-4.35-3.69-6.46l13.95-15a4.56,4.56,0,0,0,.17-6l-9.49-11.45a4.56,4.56,0,0,0-6-.94l-17.37,11q-2.73-2.49-5.66-4.78l8-18.94a4.57,4.57,0,0,0-1.9-5.71l-12.84-7.51a4.57,4.57,0,0,0-5.91,1.15L1981,1017.14c-1.06-.43-2.12-.85-3.2-1.25s-2.46-.87-3.69-1.28l1-20.64a4.57,4.57,0,0,0-3.74-4.72l-14.63-2.66a4.57,4.57,0,0,0-5.16,3.1l-6.31,19.72c-2.45-.1-4.88-.1-7.31,0l-6.1-19.8a4.55,4.55,0,0,0-5.13-3.15l-14.65,2.5a4.55,4.55,0,0,0-3.79,4.67l.81,20.78c-2.3.74-4.58,1.57-6.82,2.46l-12.56-16.59a4.56,4.56,0,0,0-5.9-1.21L1871,1006.4a4.56,4.56,0,0,0-2,5.69l7.9,19.3q-2.87,2.2-5.56,4.61l-17.51-11.32a4.57,4.57,0,0,0-6,.88l-9.62,11.34a4.57,4.57,0,0,0,.1,6l14,15.44q-1.92,3-3.63,6.24l-20.36-4.66a4.55,4.55,0,0,0-5.29,2.86l-5.17,14a4.57,4.57,0,0,0,2.16,5.62l18.48,9.72c-.52,2.36-1,4.73-1.3,7.09l-20.71,2.59a4.55,4.55,0,0,0-4,4.5l-.08,14.87a4.55,4.55,0,0,0,3.94,4.54l20.66,2.81c.33,2.4.73,4.77,1.22,7.13l-18.56,9.5a4.55,4.55,0,0,0-2.21,5.6l5,14a4.57,4.57,0,0,0,5.27,2.92l20.34-4.42c1.12,2.14,2.31,4.25,3.57,6.31l-14.15,15.24a4.57,4.57,0,0,0-.17,6l9.5,11.44a4.56,4.56,0,0,0,5.94,1l17.53-11.06q2.69,2.46,5.56,4.74l-8.05,19.07a4.56,4.56,0,0,0,1.9,5.71l12.84,7.51A4.55,4.55,0,0,0,1888.52,1228Zm104.85-35a94.14,94.14,0,0,1-74.38,13c-.39-26.66,11.45-48.56,29.51-51.64S1984.85,1167.92,1993.37,1193Zm36.31-45.82a93.85,93.85,0,0,1-20,32.15c-23.25-13-36.27-34.18-29.92-51.35s29.69-24.65,55.58-19.6A93.84,93.84,0,0,1,2029.68,1147.21ZM1936,1128.8a15.25,15.25,0,1,1,19.6-9A15.25,15.25,0,0,1,1936,1128.8Zm95.65-41.11c-22.8,13.45-47.47,14.07-59.11,0s-6.54-37.84,10.61-57.68A94.17,94.17,0,0,1,2031.66,1087.69Zm-142.25-51.86a94.13,94.13,0,0,1,74.17-12.9c.16,26.34-11.61,47.86-29.51,50.92S1898,1060.6,1889.41,1035.83Zm-36.49,45.94a93.92,93.92,0,0,1,20.45-32.61c22.94,13,35.74,34,29.42,51.08s-29.69,24.65-55.59,19.59A94,94,0,0,1,1852.92,1081.77Zm-2.16,58.87c22.84-13.54,47.59-14.19,59.25-.13s6.47,38.24-11,58.18A94.11,94.11,0,0,1,1850.76,1140.64Z"/><path class="cls-6" d="M1765.81,1369.85l8.91-8.19a64.75,64.75,0,0,0,15.23,5.75l1.21,12.15c.07.73.94,1.32,2,1.36l17.47.71a2,2,0,0,0,2.1-1.18l2.4-11.88a66.87,66.87,0,0,0,15.64-4.35l8.17,9.18a1.92,1.92,0,0,0,2.42-.07l14.55-9.69a1.93,1.93,0,0,0,1-2.19l-5.1-11.16a65.54,65.54,0,0,0,10-12.61l12.17,2.66c.72.15,1.55-.49,1.92-1.48l6.07-16.39a2,2,0,0,0-.48-2.36L1870.6,1314a65.94,65.94,0,0,0,.68-15.9l11.58-5.08a1.91,1.91,0,0,0,.69-2.32l-4.73-16.83c-.28-1-1-1.71-1.77-1.63l-12.58,1.45a66.58,66.58,0,0,0-8.69-13.15l6.46-11a1.9,1.9,0,0,0-.8-2.28l-13.72-10.84a1.92,1.92,0,0,0-2.39-.27l-9.39,8.62a65.47,65.47,0,0,0-14.69-5.55l-1.27-12.78c-.08-.73-.94-1.32-2-1.37l-17.46-.7a2,2,0,0,0-2.1,1.18l-2.52,12.44a66.37,66.37,0,0,0-15.21,4.14l-8.48-9.53a1.92,1.92,0,0,0-2.42.07l-14.55,9.69a1.94,1.94,0,0,0-1,2.19l5.22,11.41a65.1,65.1,0,0,0-10,12.38l-12.28-2.68c-.72-.16-1.55.48-1.92,1.48l-6.07,16.39a1.94,1.94,0,0,0,.48,2.36l10.77,6.07a65.37,65.37,0,0,0-.83,16.06l-11.34,5a1.92,1.92,0,0,0-.68,2.32l4.72,16.83c.29,1,1,1.71,1.78,1.63l12.11-1.4a66.24,66.24,0,0,0,8.87,13.58l-6.18,10.57a1.93,1.93,0,0,0,.81,2.28l13.72,10.84A1.94,1.94,0,0,0,1765.81,1369.85Zm29.33-70.42a11,11,0,1,1,6.5,14.14A11,11,0,0,1,1795.14,1299.43Z"/><path class="cls-6" d="M1409,1092.39H790.12v-60.25H1409Zm-602.74-16.13h586.61v-28H806.24Z"/><rect class="cls-3" x="1947.58" y="767.51" width="180.39" height="132.93"/><rect class="cls-8" x="2103.63" y="1031.39" width="256.53" height="52.93"/><rect class="cls-8" x="2104.86" y="1107.38" width="256.53" height="18.64"/><path class="cls-9" d="M968.1,1454.83l20.52-6.72-2.84-16.1-21.88-.3a95,95,0,0,0-3.37-9.11l17-13.33-8.18-14.15-20.67,7.2a96.79,96.79,0,0,0-6.29-7.39l11.41-18.36-12.52-10.5-17,13.84a93.39,93.39,0,0,0-8.44-4.82L920.3,1354l-15.36-5.59-11.21,18.81a94.67,94.67,0,0,0-9.57-1.63l-3.06-21.39H864.76l-4.1,21.52a94.33,94.33,0,0,0-9.56,1.72l-10.18-19L825.56,1354l3.51,21.58q-4.3,2.23-8.41,4.91l-16.06-14.39-12.52,10.5,10.69,19.12a96.76,96.76,0,0,0-6.21,7.47l-20-8-8.18,14.15,16.56,14.29a94.26,94.26,0,0,0-3.28,9.16l-21.55-.71-2.84,16.1,20.46,7.76a95.48,95.48,0,0,0,.06,9.72l-20.52,6.72,2.84,16.1,21.88.3a96.16,96.16,0,0,0,3.37,9.12l-17,13.32,8.18,14.16,20.67-7.21q2.94,3.81,6.29,7.39l-11.41,18.36,12.52,10.5,17-13.83a95.75,95.75,0,0,0,8.44,4.81l-4.44,21.12,15.36,5.59,11.21-18.81a94.67,94.67,0,0,0,9.57,1.63l3.06,21.39H881.1l4.1-21.52a94.33,94.33,0,0,0,9.56-1.72l10.18,19,15.36-5.59-3.51-21.58a94.92,94.92,0,0,0,8.41-4.91l16.06,14.39,12.52-10.5-10.69-19.12a92.75,92.75,0,0,0,6.21-7.47l20,8,8.18-14.16L961,1496.87a95.4,95.4,0,0,0,3.28-9.17l21.55.71,2.84-16.1-20.46-7.76A95.5,95.5,0,0,0,968.1,1454.83Zm-29.29-39.77a8.12,8.12,0,1,1-3,11.09A8.12,8.12,0,0,1,938.81,1415.06Zm-31.91-26.75a8.12,8.12,0,1,1,3,11.09A8.12,8.12,0,0,1,906.9,1388.31ZM874,1373a8.12,8.12,0,1,1-8.12,8.12A8.11,8.11,0,0,1,874,1373Zm-44.27,11.28a8.12,8.12,0,1,1-3,11.09A8.13,8.13,0,0,1,829.74,1384.25ZM797,1416.16a8.12,8.12,0,1,1,3,11.09A8.13,8.13,0,0,1,797,1416.16Zm-12.36,44a8.12,8.12,0,1,1,8.12,8.12A8.11,8.11,0,0,1,784.68,1460.14Zm22.37,47.24a8.12,8.12,0,1,1,3-11.09A8.11,8.11,0,0,1,807.05,1507.38Zm32.33,24.77a8,8,0,1,1-2.94-11A8,8,0,0,1,839.38,1532.15ZM871.84,1549a8.17,8.17,0,1,1,8.17-8.17A8.17,8.17,0,0,1,871.84,1549Zm44.28-10.82a8.12,8.12,0,1,1,3-11.09A8.11,8.11,0,0,1,916.12,1538.19ZM872.93,1525a64.83,64.83,0,1,1,64.83-64.83A64.84,64.84,0,0,1,872.93,1525Zm75.89-18.75a8.12,8.12,0,1,1-3-11.1A8.13,8.13,0,0,1,948.82,1506.29Zm4.24-35.86a8.13,8.13,0,1,1,8.12-8.13A8.13,8.13,0,0,1,953.06,1470.43Z"/><path class="cls-6" d="M2012.58,832.24,1999.17,828c0-.88,0-1.76,0-2.65s0-1.57,0-2.34l13.4-4.21a3.11,3.11,0,0,0,2.12-3.5l-1.75-10a3.11,3.11,0,0,0-3.2-2.56l-14,.63q-.78-2.4-1.71-4.74l11.09-8.49a3.1,3.1,0,0,0,.8-4l-5.06-8.76a3.1,3.1,0,0,0-3.88-1.31l-12.87,5.35q-1.56-2-3.25-3.88l7.51-11.74a3.12,3.12,0,0,0-.62-4.05l-7.75-6.5a3.11,3.11,0,0,0-4.09.09l-10.24,9.41c-1.43-.9-2.9-1.76-4.4-2.56l3-13.55a3.1,3.1,0,0,0-2-3.59l-9.5-3.46a3.11,3.11,0,0,0-3.82,1.49l-6.39,12.31c-1.65-.35-3.32-.65-5-.88l-1.79-13.76a3.1,3.1,0,0,0-3.08-2.7h-10.11a3.11,3.11,0,0,0-3.08,2.7l-1.79,13.76c-1.69.23-3.37.53-5,.88l-6.39-12.31a3.11,3.11,0,0,0-3.82-1.49l-9.5,3.46a3.1,3.1,0,0,0-2,3.59l3,13.55c-1.5.8-3,1.66-4.4,2.56l-10.24-9.41a3.11,3.11,0,0,0-4.09-.09l-7.74,6.5a3.1,3.1,0,0,0-.62,4.05l7.5,11.74q-1.69,1.89-3.25,3.88l-12.87-5.35a3.1,3.1,0,0,0-3.88,1.31l-5.06,8.76a3.1,3.1,0,0,0,.8,4l11.09,8.49q-.93,2.34-1.71,4.74l-14-.63a3.12,3.12,0,0,0-3.2,2.56l-1.75,10a3.11,3.11,0,0,0,2.12,3.5l13.4,4.21c0,.77,0,1.55,0,2.34s0,1.77,0,2.65l-13.41,4.21a3.11,3.11,0,0,0-2.12,3.5l1.75,10a3.12,3.12,0,0,0,3.2,2.56l14.06-.63q.78,2.37,1.71,4.66l-11.19,8.57a3.1,3.1,0,0,0-.8,4l5.06,8.76a3.1,3.1,0,0,0,3.88,1.31l13-5.43c1,1.3,2.08,2.55,3.18,3.77L1867,885.21a3.1,3.1,0,0,0,.62,4l7.74,6.5a3.11,3.11,0,0,0,4.09-.09l10.44-9.59q2.08,1.29,4.26,2.45l-3.08,13.84a3.1,3.1,0,0,0,2,3.59l9.5,3.46a3.11,3.11,0,0,0,3.82-1.49l6.54-12.59q2.38.49,4.83.84l1.83,14.08a3.11,3.11,0,0,0,3.08,2.7h10.11a3.1,3.1,0,0,0,3.08-2.7l1.83-14.08q2.44-.34,4.83-.84l6.54,12.59a3.11,3.11,0,0,0,3.82,1.49l9.5-3.46a3.1,3.1,0,0,0,2-3.59l-3.08-13.84q2.17-1.15,4.26-2.45l10.44,9.59a3.11,3.11,0,0,0,4.09.09l7.75-6.5a3.12,3.12,0,0,0,.62-4l-7.62-11.93c1.1-1.22,2.16-2.47,3.18-3.77l13,5.43a3.1,3.1,0,0,0,3.88-1.31l5.06-8.76a3.1,3.1,0,0,0-.8-4L1994,852.29q.93-2.29,1.71-4.66l14.06.63a3.11,3.11,0,0,0,3.2-2.56l1.75-10A3.11,3.11,0,0,0,2012.58,832.24Zm-47.06-58.61A64,64,0,0,1,1991.38,818c-16.92,6.54-33.67,4.17-39.91-6.63S1951.51,785,1965.52,773.63Zm-37.79-12.34a63.79,63.79,0,0,1,25.21,5.16c-2.79,17.9-13.22,31.2-25.68,31.2s-22.73-13.11-25.62-30.81A63.78,63.78,0,0,1,1927.73,761.29Zm10.37,64.09A10.38,10.38,0,1,1,1927.73,815,10.37,10.37,0,0,1,1938.1,825.38Zm-48.8-51.3c14,11.36,20.18,26.95,14,37.68s-22.58,13.11-39.29,6.86A64,64,0,0,1,1889.3,774.08Zm.51,103a64,64,0,0,1-25.73-44.25c16.75-6.33,33.26-3.9,39.43,6.8S1903.58,865.7,1889.81,877Zm37.92,12.43a63.84,63.84,0,0,1-25.63-5.35c2.89-17.7,13.26-30.82,25.63-30.82s22.73,13.12,25.62,30.82A63.82,63.82,0,0,1,1927.73,889.47Zm38-12.53c-14-11.36-20.29-27-14.07-37.75s22.86-13.15,39.7-6.7A64,64,0,0,1,1965.78,876.94Z"/><path class="cls-9" d="M1850.79,929.56l-8.62-4.41a52.09,52.09,0,0,0,.08-13l8.78-4.28a1.53,1.53,0,0,0,.47-1.87l-4.32-13.31c-.26-.8-.9-1.33-1.47-1.24l-9.59,1.5a52.86,52.86,0,0,0-7.6-10.53l4.61-8.68a1.53,1.53,0,0,0-.72-1.8l-11.31-8.22a1.56,1.56,0,0,0-1.93-.15l-7,6.93a52.88,52.88,0,0,0-12.24-4l-1.39-9.87c-.08-.58-.79-1-1.64-1h-14a1.53,1.53,0,0,0-1.63,1l-1.59,9.86a51.82,51.82,0,0,0-12.11,3.91l-7-7.29a1.54,1.54,0,0,0-1.93.13l-11.31,8.23a1.53,1.53,0,0,0-.73,1.78l4.58,9a53,53,0,0,0-7.46,10.17l-10.08-1.78c-.59-.1-1.23.43-1.49,1.24l-4.32,13.31a1.55,1.55,0,0,0,.46,1.87l9.08,4.65a51.59,51.59,0,0,0-.09,12.56l-9.23,4.51a1.53,1.53,0,0,0-.48,1.87l4.33,13.31c.26.8.89,1.33,1.47,1.24l10-1.57a52.66,52.66,0,0,0,7.33,10.27l-4.79,9a1.53,1.53,0,0,0,.72,1.8l11.32,8.22a1.54,1.54,0,0,0,1.92.15L1767,966a52.32,52.32,0,0,0,12.07,4.07l1.4,10c.08.58.79,1,1.64,1h14a1.56,1.56,0,0,0,1.64-1l1.56-9.77a52.15,52.15,0,0,0,12.29-3.84l6.88,7.13a1.54,1.54,0,0,0,1.93-.13l11.32-8.23a1.55,1.55,0,0,0,.73-1.78l-4.42-8.7a52.71,52.71,0,0,0,7.73-10.43l9.65,1.7c.58.1,1.22-.43,1.48-1.24l4.33-13.3A1.56,1.56,0,0,0,1850.79,929.56Zm-61-2.44a8.81,8.81,0,1,1,8.81-8.81A8.81,8.81,0,0,1,1789.79,927.12Z"/><g class="cls-7"><path class="cls-3" d="M2517.76,685.19V1803.27c0,28.39-18.17,52.46-42.89,59.92l-1146.26,2.49-251.54.54.38-.54,871.29-1242.9h509.74c31.86,0,58,26.82,59.22,60C2517.76,683.62,2517.76,684.38,2517.76,685.19Z"/></g><path class="cls-10" d="M2838.14,2072.94v20.37c0,32.5-33.35,59.1-74.1,59.1H376.38c-40.75,0-74.1-26.6-74.1-59.1v-18.38Z"/><rect class="cls-11" x="2616.39" y="2120.01" width="97.35" height="14.42"/><path class="cls-11" d="M1718.6,2125.42H1413.29a14.46,14.46,0,0,1-14.42-14.42h0a14.47,14.47,0,0,1,14.42-14.43H1718.6A14.47,14.47,0,0,1,1733,2111h0A14.46,14.46,0,0,1,1718.6,2125.42Z"/><rect class="cls-12" x="1373.52" y="1773.55" width="454.4" height="33.86" rx="9.36"/></g><g id="base_slim" data-name="base slim"><path class="cls-13" d="M1311.79,2284.17c-.72,16.8-78.89,22.39-256,19.45-275.31-4.57-319.91-27.42-319.19-44.22s144.8-24.23,321.81-16.61S1312.51,2267.38,1311.79,2284.17Z"/><g id="legs"><g id="jeans"><path class="cls-14" d="M1157.24,2163.6q4.26,46.43,8.53,92.85l-28.92,3.66q-4.74-42.08-9.47-84.17Z"/><path class="cls-15" d="M1161.18,2215.54c-5.48-2.48-9.52-2-11.34-1.61-9.28,2-16.64,12.87-16.39,27l-4.5-44.26,32.18-5.92Q1161.16,2203.17,1161.18,2215.54Z"/><path class="cls-16" d="M1162.93,2184.52q0,8.4.17,17.42c-.76.31-32.84,4.56-34.26,4.12-.24-2-3.17-17.3-3.44-18.35-25.2-98.71-25.7-144.52-25.7-144.52a330.48,330.48,0,0,0,7.2-74.66,89.63,89.63,0,0,1,7.92-39.73c2.28-5,4.62-8.67,8.82-10.49,12.34-5.33,29.53,10.7,30.29,11.43,3.94,19.68,6.08,35.76,7.29,46.32C1170.08,2053.54,1162.86,2171.8,1162.93,2184.52Z"/><path class="cls-16" d="M1157.92,1921.88c-.74,9.17-5.77,13.07-5.77,13.07-3.46,2.69-7.65,3.07-13.53,3.45a48.39,48.39,0,0,1-17.52-1.41,44.08,44.08,0,0,1-18-10.08c-8.95-14.79-20.78-35.23-33.57-60.2-4.49-8.77-10.9-21.35-18.54-38.43-10.12-22.61-20.45-45.93-28.7-77.33-.87-3.34-4.12-15.87-7.06-32.51a442.82,442.82,0,0,1-6.14-97c7.54,1.94,26.79,6.23,47.57,3.27a133.15,133.15,0,0,0,24.53-6.21,125.53,125.53,0,0,0,11.92-5.09C1100.41,1645.27,1159.45,1902.79,1157.92,1921.88Z"/><path class="cls-17" d="M1125.36,1908.43q-.33,3-.83,5.87a95.1,95.1,0,0,1-4.47,16.45,134.38,134.38,0,0,1-8.28,18.38c-15.72,28.55,14.34,115.07,14.34,115.07,9.69,27.91,22.74,68.21,36.25,120.26a110.76,110.76,0,0,0-36.79,5.48c-2.64-10.92-6.24-26.4-10.18-45.06-3.16-15-6-29.41-11.54-60.14-8-44.06-12.07-66.08-12.33-70.53-1.2-20.48-.37-51.31,11-89.15-3.7-6.16-9.63-16.17-16.61-28.66-21.41-38.27-47.35-85.29-63.63-145.45a270.21,270.21,0,0,1-7.06-32.51c-4.48-30.84-10.18-69.53,10.33-84.66,3.86-2.85,18-6.06,46.3-12.47,9.19-2.08,16.8-3.67,22-4.73-21.22,32.39-30.1,61.35-34.18,79.83-3.52,15.94-7.75,46.58,2.24,69.32,8.14,18.54,16.86,19.6,31.91,38.9C1117.29,1834.77,1129.21,1874.75,1125.36,1908.43Z"/><path class="cls-17" d="M1169.11,2191.87a9,9,0,0,1-1.87,7,9.8,9.8,0,0,1-4.14,3.07c-.76.31-29.74,4.47-29.74,4.47a19.87,19.87,0,0,1-5.7-.78,9.52,9.52,0,0,1-5.71-7.15,9,9,0,0,1,1.32-6.23,18.53,18.53,0,0,1,2.54-2.66,10.33,10.33,0,0,1,4.59-1.84l27.3-3.82a19.63,19.63,0,0,1,5.23.59A9.59,9.59,0,0,1,1169.11,2191.87Z"/><path class="cls-18" d="M1123.83,2192.57a1.1,1.1,0,0,1-.86-1.77,10.77,10.77,0,0,1,2.21-2.11,11.49,11.49,0,0,1,5.07-2,1.1,1.1,0,0,1,.3,2.17,9.3,9.3,0,0,0-4.1,1.63,8.75,8.75,0,0,0-1.76,1.68A1.09,1.09,0,0,1,1123.83,2192.57Z"/><path class="cls-18" d="M1133.36,2207.51a1.1,1.1,0,0,1-.15-2.18l27.3-3.82a9.55,9.55,0,0,0,2.19-.58,8.84,8.84,0,0,0,3.68-2.74,1.09,1.09,0,0,1,1.72,1.35,11,11,0,0,1-4.59,3.42,11.36,11.36,0,0,1-2.69.71l-27.31,3.83Z"/><path class="cls-18" d="M1169.11,2193a1.09,1.09,0,0,1-1.08-.92,8.49,8.49,0,0,0-5.49-6.49,6.36,6.36,0,0,0-.84-.28,9.42,9.42,0,0,0-3.84-.26,1.09,1.09,0,1,1-.31-2.16,11.47,11.47,0,0,1,4.73.31,8.76,8.76,0,0,1,1.06.35,10.66,10.66,0,0,1,6.85,8.19,1.09,1.09,0,0,1-.91,1.25Z"/><path class="cls-18" d="M1162.7,2175.93h0a1.1,1.1,0,0,1-1.07-1.12c.89-30.84,1.31-62.13,1.23-93-.07-31.08-.64-62.61-1.69-93.69a1.09,1.09,0,1,1,2.18-.07c1.06,31.1,1.63,62.65,1.7,93.75.07,30.89-.34,62.21-1.23,93.07A1.09,1.09,0,0,1,1162.7,2175.93Z"/><path class="cls-18" d="M1152.11,1941.28a1.07,1.07,0,0,1-1-1.52,70.73,70.73,0,0,0,3.78-11.33c4-16.7.74-30-2.44-42.94l-.27-1.08c-4.15-16.85-8.21-35-12.41-55.5a1.09,1.09,0,0,1,2.14-.44c4.19,20.47,8.25,38.6,12.39,55.42l.27,1.08c3.25,13.15,6.61,26.75,2.45,44a73,73,0,0,1-3.9,11.67A1.09,1.09,0,0,1,1152.11,1941.28Z"/><path class="cls-14" d="M854.64,2164.47l-36.39,86.7-27.62-8.84q15.72-39.66,31.43-79.33Z"/><path class="cls-15" d="M833.54,2212.62a17.14,17.14,0,0,0-9.39-6.19c-9.23-2.15-21,4.55-27.48,17.33l17-41.5,31.61,8.18Z"/><path class="cls-16" d="M844.15,2199.17l-33.51-9.91c.63-3.09,1.74-8.5,3.1-15.24,11.8-58.72,13.68-76.31,23.34-106.58,2.07-6.48,4-12.49,7.22-20.71,2.53-6.43,13.28-33.35,37.15-66.49,8.69-12,16.28-19.86,28.6-27.81,22.74-14.68,56-22.81,63.41-13.34,4.25,5.43-2.8,13.14-23.8,50.62C938.61,2009.44,849.22,2188.29,844.15,2199.17Z"/><path class="cls-16" d="M1056.8,1744.1a401.49,401.49,0,0,0-23.34,55.52c-10.59,31.81-36,121.61-53.28,146.68A47.63,47.63,0,0,1,970,1956.78c-3.41,2.59-14.06,10.67-27.15,8.82a22.73,22.73,0,0,1-19.93-21.11c0-.15,0-.3,0-.45,0,0,1.87-36.78,4.66-70.45,1.92-23.18,6.88-72.26,16.17-136.86a86.37,86.37,0,0,1-8.37-36.39c-.08-22.06,8.7-38,14.7-48.57,13.41-23.63,32-38.2,44.17-46.12q-1-14.78-2-29.54a173.14,173.14,0,0,1,60.07,4.83,166.82,166.82,0,0,1,57.09,27.27c-5.59,15.92-37.22,107-41.8,115.28C1067.63,1723.49,1062.09,1733.73,1056.8,1744.1Z"/><path class="cls-17" d="M963,1733.11a41.29,41.29,0,0,0-3.78,5.41c-16.16,28.19-14.12,55-10.76,95.1,4.63,55.18-13.05,56.43-6.59,92,1.63,9,4.37,19.53.41,32.82-5.07,17-18.28,28.93-30.32,39.55-16.43,14.48-20.72,12.94-29.19,21.73-17.42,18.07-16.24,42.13-17.06,60.93-1.09,24.91-6.53,59.89-25.93,103.62L813.32,2177c1.63-8.61,4-21,7-35.92,8.22-41.41,12.41-62.36,16.15-74.18,4.27-13.5,12.79-39.71,33-68.56a240.91,240.91,0,0,1,52.92-54.23q2-34.59,5.21-70.53c4.22-47.49,9.72-93.15,16.17-136.86a105.54,105.54,0,0,1-2.47-65.35c11.85-40.8,45-61.13,53-65.73q1.35-13.32,2.68-26.65a86.72,86.72,0,0,1,51.93,1.09c3.07,54-11.72,79.66-26.33,93.13C1011.84,1683.1,989.31,1700.49,963,1733.11Z"/><path class="cls-17" d="M853.29,2192.8a9.24,9.24,0,0,1-5.23,5.45,12.21,12.21,0,0,1-5.62.92c-.9-.06-31.84-9.1-31.84-9.1a11.91,11.91,0,0,1-5.33-3.21,8.88,8.88,0,0,1-2.25-8.92,9.06,9.06,0,0,1,4.31-5q.45-.24.93-.45a12.39,12.39,0,0,1,8.36-.43l29.1,8.6a12.23,12.23,0,0,1,4.14,2.14C853,2185.31,854.5,2189.2,853.29,2192.8Z"/><path class="cls-18" d="M848.06,2199.34a1.1,1.1,0,0,1-.44-2.1,8.09,8.09,0,0,0,4.63-4.78c1-3.05-.18-6.5-3.07-8.79a11.28,11.28,0,0,0-3.77-2,1.09,1.09,0,1,1,.62-2.09,13.09,13.09,0,0,1,4.51,2.33c3.62,2.86,5.1,7.26,3.79,11.19a10.25,10.25,0,0,1-5.84,6.1A1.11,1.11,0,0,1,848.06,2199.34Z"/><path class="cls-18" d="M829.57,2177a1.15,1.15,0,0,1-.31,0l-13-3.83a1.09,1.09,0,1,1,.62-2.1l13,3.83a1.1,1.1,0,0,1,.74,1.36A1.08,1.08,0,0,1,829.57,2177Z"/><path class="cls-18" d="M842.45,2200.27h-.08a14,14,0,0,1-3-.55l-29.1-8.6a13.09,13.09,0,0,1-5.8-3.51,9.9,9.9,0,0,1-2.49-10,1.09,1.09,0,1,1,2.07.7,7.74,7.74,0,0,0,2,7.81,10.82,10.82,0,0,0,4.84,2.92l29.1,8.61a11.41,11.41,0,0,0,2.51.45,1.11,1.11,0,0,1,1,1.17A1.09,1.09,0,0,1,842.45,2200.27Z"/><path class="cls-18" d="M988.82,1933.12a1,1,0,0,1-.44-.1,1.08,1.08,0,0,1-.55-1.44c25.37-56.56,35.66-100.81,35.76-101.25,8.28-36.1,22.82-72.26,43.22-107.48a1.1,1.1,0,0,1,1.9,1.1c-20.3,35-34.76,71-43,106.87-.11.44-10.44,44.89-35.91,101.65A1.09,1.09,0,0,1,988.82,1933.12Z"/><path class="cls-18" d="M815.25,2167.4a.68.68,0,0,1-.2,0,1.09,1.09,0,0,1-.88-1.27c4.71-25.9,10.2-52,16.33-77.65,1.59-6.64,3.25-13.37,4.94-20a1.09,1.09,0,1,1,2.12.54c-1.68,6.61-3.34,13.32-4.93,20-6.12,25.58-11.61,51.67-16.31,77.53A1.08,1.08,0,0,1,815.25,2167.4Z"/><path class="cls-18" d="M844.3,2047.83a1.34,1.34,0,0,1-.39-.07,1.1,1.1,0,0,1-.63-1.42c1.51-4,3.13-7.93,4.83-11.81,2.94-6.72,6.22-13.41,9.74-19.88a1.09,1.09,0,0,1,1.92,1c-3.49,6.42-6.74,13.06-9.65,19.72-1.69,3.84-3.3,7.79-4.8,11.71A1.09,1.09,0,0,1,844.3,2047.83Z"/><path class="cls-18" d="M922.44,1935.58h-.1a1.1,1.1,0,0,1-1-1.19q1.74-18.45,3.42-36.88c2.75-30.24,5.42-60.89,7.94-91.11a1.11,1.11,0,0,1,1.18-1,1.1,1.1,0,0,1,1,1.18c-2.52,30.23-5.19,60.89-7.94,91.12q-1.68,18.45-3.42,36.9A1.1,1.1,0,0,1,922.44,1935.58Z"/><path class="cls-18" d="M941.28,1753.37h-.17a1.1,1.1,0,0,1-.91-1.26l2.33-14.43a88.45,88.45,0,0,1-6.27-17.59,86.83,86.83,0,0,1-2-28.85,1.1,1.1,0,0,1,1.19-1,1.11,1.11,0,0,1,1,1.2,85.05,85.05,0,0,0,8.19,45.58,1.12,1.12,0,0,1,.1.65l-2.39,14.77A1.09,1.09,0,0,1,941.28,1753.37Z"/></g><g id="foot"><path class="cls-19" d="M1161.59,2250a107.93,107.93,0,0,1,29.36,7.67,103,103,0,0,1,32,21.11l-95.56,2.79a36.85,36.85,0,0,1-1.86-15.84,38.91,38.91,0,0,1,9.82-21.68,18.12,18.12,0,0,0,8.74,7.5C1152.7,2255,1160.76,2250.47,1161.59,2250Z"/><path class="cls-3" d="M1168.85,2262.28h-.12a.81.81,0,0,1-.68-.91l1.25-8.71a.8.8,0,0,1,1.59.23l-1.25,8.71A.8.8,0,0,1,1168.85,2262.28Z"/><path class="cls-3" d="M1175.22,2263.49a.55.55,0,0,1-.18,0,.8.8,0,0,1-.6-1l2-8.58a.82.82,0,0,1,1-.6.81.81,0,0,1,.59,1l-2,8.58A.79.79,0,0,1,1175.22,2263.49Z"/><path class="cls-3" d="M1182,2265.25a.91.91,0,0,1-.23,0,.81.81,0,0,1-.54-1l2.89-9.57a.78.78,0,0,1,1-.53.8.8,0,0,1,.54,1l-2.88,9.56A.81.81,0,0,1,1182,2265.25Z"/><path class="cls-3" d="M1188.77,2267.32a.93.93,0,0,1-.29-.05.81.81,0,0,1-.46-1l3.72-9.6a.8.8,0,1,1,1.49.58l-3.72,9.6A.78.78,0,0,1,1188.77,2267.32Z"/><path class="cls-3" d="M1194.77,2270.21a.81.81,0,0,1-.42-.12.8.8,0,0,1-.26-1.1l5.42-8.89a.8.8,0,0,1,1.37.84l-5.43,8.89A.8.8,0,0,1,1194.77,2270.21Z"/></g><g id="foot-2" data-name="foot"><path class="cls-19" d="M822.64,2242.36a111.87,111.87,0,0,1,28.55,28.28,105,105,0,0,1,12.1,23.16l-79.6-27.23a46.36,46.36,0,0,1,4-19.83,48.8,48.8,0,0,1,9.23-13.69,17,17,0,0,0,9.54,10.43C814.63,2246.87,822,2242.72,822.64,2242.36Z"/><path class="cls-3" d="M817.91,2256.94a.79.79,0,0,1-.61-1.32,27.72,27.72,0,0,1,7.62-6.15,29.32,29.32,0,0,1,7.33-2.83.8.8,0,1,1,.37,1.56,27.42,27.42,0,0,0-6.93,2.67,26.07,26.07,0,0,0-7.18,5.8A.8.8,0,0,1,817.91,2256.94Z"/><path class="cls-3" d="M823.73,2262.9a.8.8,0,0,1-.52-.19.81.81,0,0,1-.08-1.13,27.68,27.68,0,0,1,7.61-6.15,29.54,29.54,0,0,1,7.34-2.83.8.8,0,0,1,1,.6.79.79,0,0,1-.59,1,27.42,27.42,0,0,0-6.93,2.67,25.92,25.92,0,0,0-7.18,5.8A.8.8,0,0,1,823.73,2262.9Z"/><path class="cls-3" d="M829.56,2268.86a.8.8,0,0,1-.52-.19.81.81,0,0,1-.08-1.13,27.75,27.75,0,0,1,7.61-6.16,29.13,29.13,0,0,1,7.34-2.82.8.8,0,0,1,1,.6.79.79,0,0,1-.59,1,27,27,0,0,0-6.94,2.67,25.88,25.88,0,0,0-7.17,5.8A.8.8,0,0,1,829.56,2268.86Z"/><path class="cls-3" d="M836.45,2274.32a.79.79,0,0,1-.4-.1.81.81,0,0,1-.3-1.1,14,14,0,0,1,7.86-6.34,13.79,13.79,0,0,1,5.33-.54.8.8,0,0,1,.72.87.78.78,0,0,1-.86.73,12,12,0,0,0-11.66,6.08A.8.8,0,0,1,836.45,2274.32Z"/></g></g><g id="head"><g id="face"><path class="cls-14" d="M1061.52,1176.29c26.71,6.09,38.22,41.69,39.28,64.87.5,11,1.16,25.55-7.62,31.38-13.64,9-44.88-6.26-58.5-29.17-12.33-20.73-13.34-52.86,3.33-64C1047.47,1173.09,1059.29,1175.78,1061.52,1176.29Z"/><path class="cls-15" d="M1026.61,1249.67l26.18,13.83a84,84,0,0,0,13.1-19.14c11.92-24.1,8.64-47.39,6.54-57.43l8.73,1.06c-13.84-16.72-23.17-16.39-26.18-16C1039.08,1174.36,1026.73,1204.9,1026.61,1249.67Z"/></g><g id="hair"><path class="cls-16" d="M1065.89,1182.67c.37.24,5.09,3.11,9.82,1.07,4.41-1.91,7-7.31,5.45-12.76a78.54,78.54,0,0,0-22.87-12.23,73.47,73.47,0,0,0-13-3.16,71.62,71.62,0,0,0-34.91,4.05c-4.22-12-13.32-30-31.85-40.15-8.2-5.67-41.19-26-76.07-12.93-4.52,1.69-29.18,11.43-38.94,34-6.62,15.3-1.42,25-11.81,47.65-3,6.66-6.29,13.35-12.8,20.1-11.61,12-25.26,14.46-36.26,18-7,2.26-42.83,14.32-57.6,40.2-13.92,24.39-9.63,62.08,9.75,78.85,10.75,9.29,19.62,6.52,34.08,20.56,6.88,6.67,18.85,18.47,16.23,32.42-1.73,9.21-10.46,19.9-22.72,20.56-12,.65-19.91-8.65-20.83-9.77,0,.25,0,.53,0,.81a40.43,40.43,0,0,0,6.17,19.24c9.42,14.71,25.7,18.23,29.21,19,24.12,5.21,48.23-9.17,60-26.09,5.31-7.61,7.26-14.48,8.93-20.56,3-11,7.53-35.17-4.07-67.85a96.22,96.22,0,0,0,16,.66c9.33-.4,20.17-.76,30.19-6.65,14-8.21,19.05-22,20.39-25.82,5.71-16.16,1.5-31.28-2.13-44.36a77.37,77.37,0,0,0-4.29-12.38c-1.64-3.58-3-5.7-4.19-9.67a37.68,37.68,0,0,1-1.48-8.44c3-.17,19.41-1.44,29.88-14.5a39.59,39.59,0,0,0,8.11-20.56c1-8.52-1.31-14.81-1.62-17.39.65-1,8.08-11.14,20.28-11.08,9.39,0,18.28,6.17,22.45,15.49-.56,1.6-1,3-1.36,4.28a59.63,59.63,0,0,0-2.32,15.78c-.41,27.92,20.17,45.12,20.17,45.12a58.92,58.92,0,0,0,29.21,12.65,98.43,98.43,0,0,0,8.27-16.3c0,1.46-.09,2.94-.16,4.44a189.46,189.46,0,0,1-5.68,38,180.13,180.13,0,0,0,9.74-38.75c.09-.68.17-1.34.25-2a104.56,104.56,0,0,1,1.37,12.28c.87,15.34-1.57,27.52-3.24,35.58a167.29,167.29,0,0,1-8.93,29.26,103.2,103.2,0,0,0,9.74-18.19c4-9.59,5.61-20.89,8.92-43.49.42-2.82.11-6.82.82-12.65a113.43,113.43,0,0,1,3.54-17.61,41.34,41.34,0,0,0,0-44.67Z"/><path class="cls-17" d="M1003.12,1159.54a22.26,22.26,0,0,0,1.62,13.44c4.57,9.29,13.67,8,18.66,15,8.06,11.28-7.7,25.55-3.24,44.28,1.61,6.76,6.2,15.62,19.47,24.52-5.93-1.16-22-5.1-34.08-19A56.62,56.62,0,0,1,995,1219.64a55.78,55.78,0,0,1-3.14-20.6,52.09,52.09,0,0,0,2.32-15.78,50.21,50.21,0,0,0-.81-8.69c-.37-.6-7.22-11.08-20.28-11.08-.72,0-13.46.23-20.28,11.08.31,2.58,2.58,8.87,1.62,17.39a39.59,39.59,0,0,1-8.11,20.56c-10.47,13.06-26.91,14.33-29.88,14.5a37.68,37.68,0,0,0,1.48,8.44c1.18,4,2.55,6.09,4.19,9.67a77.37,77.37,0,0,1,4.29,12.38c3.63,13.08,7.84,28.2,2.13,44.36-1.34,3.81-6.43,17.61-20.39,25.82-10,5.89-20.86,6.25-30.19,6.65a96.22,96.22,0,0,1-16-.66c11.6,32.68,7.07,56.87,4.07,67.85-3.17,11.58-7.11,17.91-8.93,20.56-3.74,5.46-19.09,25.85-45.43,26.89-2.26.08-30.51.77-43.82-19.78a40.12,40.12,0,0,1-6.17-19.24c2.42,4,11.08,16.82,28.08,21.62,13.36,3.77,31.36,2.57,42.19-7.91,16.06-15.53,11.33-46.58,4.06-64.06-5.38-12.93-12.67-19.68-10.55-31.63,1.35-7.62,6.61-15.11,13-19.77,4.6-3.36,10.37-5.4,21.91-9.49,7.7-2.73,10.57-3.25,13.79-6.32,4.83-4.62,5.93-10.69,6.49-14.24,3.94-25.12-1.65-35.93,3.24-52.19,1.22-4,5.58-18.65,18.66-26.89,13.63-8.58,22.16-1.26,34.89-9.49,14.05-9.08,10.31-22.6,22.72-30.84C966.75,1154.35,979,1150.89,1003.12,1159.54Z"/><path class="cls-3" d="M802.6,1405.89a.57.57,0,0,1-.25-.06.53.53,0,0,1-.21-.72,23.84,23.84,0,0,0,2.5-6.84c2.6-13.83-9.55-25.62-16.08-32-8.06-7.83-14.26-10.34-20.26-12.77-4.64-1.88-9-3.65-13.79-7.77-7.92-6.85-13.77-17.63-16.46-30.34a.53.53,0,1,1,1-.22c2.65,12.49,8.37,23.06,16.12,29.76,4.63,4,8.94,5.75,13.5,7.6,5.8,2.35,12.39,5,20.6,13,6.67,6.47,19.08,18.52,16.37,32.9a24.74,24.74,0,0,1-2.61,7.16A.52.52,0,0,1,802.6,1405.89Z"/><path class="cls-3" d="M737.53,1290.6h-.06a.52.52,0,0,1-.46-.58,64.51,64.51,0,0,1,7.63-23.74.53.53,0,0,1,.92.52,63.52,63.52,0,0,0-7.5,23.35A.54.54,0,0,1,737.53,1290.6Z"/><path class="cls-3" d="M777.74,1237.59a.53.53,0,0,1-.47-.28.53.53,0,0,1,.21-.71,146.14,146.14,0,0,1,25.06-10.77c1.74-.56,3.55-1.1,5.41-1.65,6.52-1.93,13.9-4.11,20.89-8.4a.52.52,0,0,1,.72.17.53.53,0,0,1-.17.73c-7.11,4.36-14.56,6.56-21.14,8.51-1.85.55-3.65,1.08-5.39,1.64A145.85,145.85,0,0,0,778,1237.52.47.47,0,0,1,777.74,1237.59Z"/><path class="cls-3" d="M859.94,1154.73h-.07a.52.52,0,0,1-.45-.59,50.38,50.38,0,0,1,3.67-13.78,53.37,53.37,0,0,1,9.8-14.9.54.54,0,0,1,.75,0,.53.53,0,0,1,0,.74,52.52,52.52,0,0,0-9.62,14.61,49.64,49.64,0,0,0-3.59,13.5A.53.53,0,0,1,859.94,1154.73Z"/><path class="cls-3" d="M902.51,1107.08a.53.53,0,0,1-.49-.34.53.53,0,0,1,.31-.68c15.16-5.65,31.65-5.77,49-.35a.53.53,0,0,1-.31,1c-17.14-5.36-33.41-5.24-48.34.33A.58.58,0,0,1,902.51,1107.08Z"/><path class="cls-3" d="M1010.43,1160.17a.54.54,0,0,1-.5-.35c-4.47-12.74-13.58-30-31.6-39.87a.53.53,0,1,1,.51-.93c18.31,10,27.56,27.54,32.09,40.45a.53.53,0,0,1-.33.67A.47.47,0,0,1,1010.43,1160.17Z"/><path class="cls-3" d="M810.15,1449.53c-6.73,0-30.67-1.37-42.76-20a40.07,40.07,0,0,1-6.25-19.5.53.53,0,0,1,.49-.56.54.54,0,0,1,.56.49,39.09,39.09,0,0,0,6.09,19c13,20.13,40.27,19.65,43.35,19.53,25.51-1,40.9-20.66,45-26.66,3.56-5.2,6.62-12.25,8.85-20.4a.52.52,0,0,1,.64-.37.53.53,0,0,1,.37.65c-2.29,8.37-5.32,15.35-9,20.72-4.18,6.1-19.84,26.09-45.84,27.11C811.37,1449.51,810.86,1449.53,810.15,1449.53Z"/><path class="cls-3" d="M873.91,1335a96.66,96.66,0,0,1-12-.75.53.53,0,0,1-.46-.59.54.54,0,0,1,.59-.46,94.15,94.15,0,0,0,15.92.66l.48,0c6.82-.28,14.56-.61,22.07-3.17a.52.52,0,0,1,.34,1c-7.66,2.61-15.47,2.94-22.36,3.24l-.48,0C876.62,1334.92,875.27,1335,873.91,1335Z"/><path class="cls-3" d="M916.45,1227.55a.53.53,0,0,1,0-1.06c4.44-.26,19.68-2,29.5-14.3a38.69,38.69,0,0,0,8-20.29,43.51,43.51,0,0,0-1.14-14.81c-.23-1-.41-1.83-.49-2.46a.54.54,0,0,1,.46-.59.52.52,0,0,1,.59.46c.07.58.24,1.37.46,2.36A43.81,43.81,0,0,1,955,1192a39.76,39.76,0,0,1-8.22,20.83c-10.09,12.58-25.71,14.43-30.26,14.7Z"/><path class="cls-20" d="M1015,1163.21l-16.64,16.22a10,10,0,0,1-13.77,0l-2.29-2.24a9.34,9.34,0,0,1,0-13.42l16.63-16.21a10,10,0,0,1,13.77,0l2.3,2.23A9.36,9.36,0,0,1,1015,1163.21Z"/></g></g><g id="torso"><path class="cls-21" d="M1268,1476.09c-5.3-1.22-6.69-1.83-9.25-2.43-13.43-3.14-35.29-.54-41,.19l-2.79,7.65c7.21,7.82,12.44,9.33,16,9.17,2.92-.13,5.61-1.45,9.69-.22a13.85,13.85,0,0,0,6,.92c.49,0,3.06-.31,3.18-1.13.24-1.69-10.13-3.84-9.93-5.78.08-.81,1.93-1.22,3.18-1.46,8.14-1.57,16.31-.88,24.77,0,2.33.23,4.68.17,7,.36,4.26.34,6.92.77,8-.71a2.13,2.13,0,0,0,.48-1.6C1282.87,1478.66,1277.16,1478.19,1268,1476.09Z"/><path class="cls-22" d="M1105.29,1510.28a677.71,677.71,0,0,0-50.38-50.47c-23.75-21.4-39.38-32.37-58.58-55.77-11.35-13.85-15-24.76-19.85-33.16,18-15.33,28.75-16.58,33.58-16.19,17.79,1.42,32.87,15.26,50.74,30.54,13.72,11.74,15.91,17.62,44.44,54.08,12.23,15.63,22.5,28.19,29.29,36.38-2.73.49-14.62,2.94-22.64,13.9A34.74,34.74,0,0,0,1105.29,1510.28Z"/><path class="cls-22" d="M1083.42,1480.2l136.74-12q4.62,11.77,9.25,23.56c-73.38,16.34-128.25,27.34-148,30.2-4.07.58-13.28,1.78-19.63-3.54-5.78-4.84-7.56-13.87-5.61-20.79C1058.89,1487.83,1069.73,1480.62,1083.42,1480.2Z"/><path class="cls-23" d="M1076.63,1505.85c9.3,8.29,27.74-.81,48.79-7.21,21.74-6.6,54.31-12.76,98.76-8.28-9.37,2.75-22.49,6.45-38.29,10.45-29.49,7.47-52,11.84-68.89,14.7-37.19,6.3-44.6,10-51.7,4.81-9.22-6.74-8.77-19.62-8.85-42.74-.24-68.39,19.59-22.55,17.56-14.6C1072.45,1469.11,1066,1496.41,1076.63,1505.85Z"/><path class="cls-24" d="M1079,1522.32a1.18,1.18,0,0,1-.19-2.34l68.34-11.56a1.19,1.19,0,0,1,1.36,1,1.18,1.18,0,0,1-1,1.36l-68.35,11.56Z"/><path class="cls-24" d="M1204.6,1498.71a1.18,1.18,0,0,1-.26-2.32l23.27-5.37-3-9.09a1.18,1.18,0,0,1,2.25-.73l3.77,11.54-25.78,5.94Z"/><path class="cls-14" d="M998.24,1591.05,1103,1628.27a613.35,613.35,0,0,0,32.73-161.65,95.61,95.61,0,0,0,14.19-22.33c4.22-9.3,9.83-21.66,7.64-34-4.35-24.52-36.91-35.4-39.28-36.16-6-4-30.84-21.44-38.19-54.24a85.75,85.75,0,0,1,3.27-47.85q-19.63-10.11-39.28-20.21c.81,1.55,12.78,25.47-1.09,47.86-10,16.18-26.83,20.75-30.53,21.66a887.64,887.64,0,0,1-2.28,198.17C1007,1544.66,1003,1568.54,998.24,1591.05Z"/><path class="cls-15" d="M1070.05,1249.3l6.9,21a61.45,61.45,0,0,0-10.55,11.07,62.85,62.85,0,0,0-10.55,23.73c-1.23,5.18-3.36,14.14-1.62,24.51,3.22,19.14,17.62,31,22.72,34.8-7.61-.52-37-3.4-56-26.47a65.49,65.49,0,0,1-10.79-18.79,37.09,37.09,0,0,0,16-4.46,42.21,42.21,0,0,0,13.7-13.36c12.57-19.82-.84-49.89-1.44-51.19Z"/><path class="cls-22" d="M1135.71,1461.31a594.66,594.66,0,0,1-32.74,167l-61.24-21.75q-21.66-7.68-43.31-15.39l-.19-.06c.09-1,.16-2,.25-3.12.83-9.73,1.81-23.34,2.54-39.5,2.51-55.47,3.77-83.21-2.28-106.88-4.8-18.72-10.56-28.94-11.43-51.21-.75-19.86,3-33,4.46-37.48a.07.07,0,0,1,0-.06c0-.11.07-.22.09-.31a98.07,98.07,0,0,1,9.06-19.88l.08-.16v0a103.7,103.7,0,0,1,11.42-15.62,191.12,191.12,0,0,0,27.25,24.27c6.63,4.81,43.27,25.74,71.14,32.62,2.17.53,9.14.31,17.25,3.52a50,50,0,0,1,16.35,10.64,49.18,49.18,0,0,1,13.12,22.33C1161.8,1427.33,1153.12,1447.37,1135.71,1461.31Z"/><path class="cls-23" d="M1048.42,1608.07c-2.24-.51-35.68-8.31-50.19-11.71.07-1.76,6.56-131.13.51-154.8-4.8-18.72-10.56-28.94-11.43-51.21-.75-19.86,3-33,4.46-37.48a.07.07,0,0,1,0-.06q4-9.82,9.23-20.35c-5.83,46.56.16,81.29,6.85,104.65,8.11,28.28,14.65,30.66,17.64,55,4.41,35.78-6.44,54.78,4.36,85.08A94.69,94.69,0,0,0,1048.42,1608.07Z"/><path class="cls-23" d="M1149.9,1444.29a68.35,68.35,0,0,0-10.93,14.76,60.73,60.73,0,0,0-3.17,7c.22,34.38-4.55,60.29-9.14,77.94-1.19,4.59-6.3,22.26-16.46,57.42-2.17,7.54-5.59,19.34-7.72,26.69l-18.89-6.25c35.28-61.94,34.74-102,27-127.58-7.39-24.49-5.68-51.49-15.94-75-1.07-2.46-4.91-10.84-2.28-20a27.85,27.85,0,0,1,9.13-13.36,74.8,74.8,0,0,0,29.7,24.49,76.14,76.14,0,0,0,27.41,6.68C1158.14,1431.88,1153.85,1439.78,1149.9,1444.29Z"/><polygon class="cls-25" points="1298.26 1486.87 1663.63 1198.75 1711.35 1186.64 1793.11 1096.08 1772.91 1070.56 1662.28 1124.64 1640.31 1165.66 1275.73 1458.4 1298.26 1486.87"/><polygon class="cls-26" points="1298.26 1486.87 1663.63 1198.75 1711.35 1186.64 1793.11 1096.08 1780.11 1079.66 1283.19 1467.83 1298.26 1486.87"/><polygon class="cls-27" points="1260.85 1367.92 1381.34 1520.17 1408.37 1498.85 1287.89 1346.6 1260.85 1367.92"/><path class="cls-27" d="M1159.32,1448l120.49,152.25c32.17-51.91,35.77-91.68,89-112.64l-79.13-100C1249.45,1437.18,1207,1428.62,1159.32,1448Z"/><path class="cls-27" d="M979.76,1712l1.21,1.52a96.32,96.32,0,0,0,135.13,15.83l163.71-129.1L1159.32,1448l-163.7,129.09A95.94,95.94,0,0,0,979.76,1712Z"/><path class="cls-26" d="M1063.69,1697.37a11.56,11.56,0,0,0-1.91,16.27l6.68,8.45a11.62,11.62,0,0,0,16.3,1.91l171.3-135.09a11.56,11.56,0,0,0,1.91-16.27l-6.68-8.44a11.62,11.62,0,0,0-16.3-1.91Z"/><path class="cls-26" d="M1028.56,1654.39a11.57,11.57,0,0,0-1.91,16.27l6.68,8.45a11.63,11.63,0,0,0,16.3,1.91l171.3-135.09a11.57,11.57,0,0,0,1.92-16.27l-6.69-8.44a11.62,11.62,0,0,0-16.3-1.91Z"/><path class="cls-26" d="M993.87,1609.15a11.57,11.57,0,0,0-1.91,16.27l6.68,8.44a11.62,11.62,0,0,0,16.3,1.91l171.3-135.08a11.57,11.57,0,0,0,1.91-16.28l-6.68-8.44a11.62,11.62,0,0,0-16.3-1.91Z"/><path class="cls-28" d="M1243.3,1425.39c-2.67,48.92,18.82,88.8,63.34,120,5.11-.45,29.14-52,52.57-50.27l-79.12-100C1264.81,1417.11,1260.81,1420.26,1243.3,1425.39Z"/><path class="cls-26" d="M1078.2,1707.81c-4.75,3.75-7,8.83-5,11.34l3.35,4.22c2,2.51,7.45,1.5,12.21-2.25l162.09-127.82c4.76-3.75,7-8.83,5-11.34l-3.34-4.22c-2-2.51-7.46-1.5-12.22,2.25Z"/><path class="cls-26" d="M1044.39,1663.53c-4.76,3.75-7,8.83-5,11.34l3.34,4.22c2,2.51,7.46,1.51,12.22-2.25L1217,1549c4.76-3.75,7-8.83,5-11.34l-3.34-4.22c-2-2.51-7.45-1.5-12.21,2.25Z"/><path class="cls-26" d="M1007.94,1619c-4.76,3.76-7,8.83-5,11.34l3.34,4.23c2,2.51,7.46,1.5,12.22-2.25l162.08-127.83c4.76-3.75,7-8.82,5-11.34l-3.34-4.22c-2-2.51-7.45-1.5-12.21,2.25Z"/><path class="cls-14" d="M1218.11,1576.62a25.44,25.44,0,0,0,2.89,1.79c3.79,2.09,11.93,6.58,22.4,6a35.32,35.32,0,0,0,18.86-6.92c.62-1.44,4.94-12-.76-20.71-3.73-5.69-9.76-7.59-13.77-8.78-17.89-5.33-35,4.28-40,7.35l.45,7.6A30,30,0,0,0,1218.11,1576.62Z"/><path class="cls-22" d="M1065.6,1496.67c-3.75,10.88,30.86,32.1,40.34,37.71,22.28,13.19,57,29.75,106.37,39l6.11-24.26-108.34-69a222.44,222.44,0,0,0-25.84,7.31C1072.55,1491.44,1066.68,1493.54,1065.6,1496.67Z"/><path class="cls-22" d="M1119.05,1497.89c-10.09-25.17-18.19-45.25-23.87-59.32-18.48-45.74-17.63-43.19-18.6-46-1.74-5-7.29-19-9.31-23-5.12-10.06-19.73-18.21-32.52-21.1-19.39-4.37-46.09.73-51.79,16.1a21.34,21.34,0,0,0-.19,13.07c15.24,21.06,106.6,147,121.06,152.07,7.24,2.55,11.36.15,11.36.15,1.61-.94,3.45-2.78,4.89-7.88C1122.63,1512.93,1121,1504.09,1119.05,1497.89Z"/><path class="cls-24" d="M1118.92,1498.06a1.18,1.18,0,0,1-1.09-.73l-6.37-15.62-12.41,11.64a1.18,1.18,0,0,1-1.61-1.72l14.91-14,7.66,18.8a1.17,1.17,0,0,1-.64,1.53A1.2,1.2,0,0,1,1118.92,1498.06Z"/><path class="cls-24" d="M1109,1492.09l-.3,0a1.18,1.18,0,0,1-.84-1.44l2.92-11.24a1.18,1.18,0,0,1,2.29.59l-2.93,11.24A1.17,1.17,0,0,1,1109,1492.09Z"/><path class="cls-24" d="M1095,1529a1.21,1.21,0,0,1-.54-.14c-5-2.67-63.41-80.74-73.28-97-5.32-8.73-11.11-17.27-17.21-25.37a1.18,1.18,0,0,1,1.89-1.42c6.14,8.16,12,16.76,17.33,25.57,10.51,17.27,68,93.61,72.38,96.1a1.19,1.19,0,0,1,.46,1.6A1.17,1.17,0,0,1,1095,1529Z"/><path class="cls-24" d="M1212.63,1574.91h-.18a296.49,296.49,0,0,1-98.19-33.35,1.18,1.18,0,1,1,1.14-2.06,294,294,0,0,0,97.41,33.08,1.18,1.18,0,0,1-.18,2.34Z"/><path class="cls-24" d="M1148.39,1504.31a1.23,1.23,0,0,1-.63-.18l-36.86-23.23-45-111.29a1.18,1.18,0,0,1,2.19-.88l44.7,110.58,36.22,22.83a1.18,1.18,0,0,1-.63,2.17Z"/><path class="cls-24" d="M1216.65,1549.2a1.29,1.29,0,0,1-.65-.19l-35.6-23.19a1.17,1.17,0,1,1,1.28-2l35.61,23.18a1.18,1.18,0,0,1-.64,2.17Z"/><path class="cls-24" d="M992.38,1392.93a1.17,1.17,0,0,1-.72-.25c-2.95-2.27-8.19-7.2-10-14.78a20,20,0,0,1-.17-10c.6-2.34,2.21-6,6.46-10.07,8.45-8.11,21.27-12,28.16-13.61a1.18,1.18,0,0,1,.53,2.3c-6.65,1.54-19,5.29-27.06,13a20.15,20.15,0,0,0-5.81,9,17.68,17.68,0,0,0,.18,8.83c1.68,6.87,6.48,11.38,9.19,13.46a1.19,1.19,0,0,1,.22,1.66A1.21,1.21,0,0,1,992.38,1392.93Z"/></g></g><path class="cls-13" d="M2928.49,2286c-.72,16.8-58.15,23.27-188.12,22.37-202-1.41-234.46-23.74-233.74-40.54S2613.18,2242,2743,2247.56,2929.22,2269.22,2928.49,2286Z"/><g id="L_leg" data-name="L leg"><path class="cls-29" d="M2600.74,2252.87s10.52-242.55,12.34-254.23a486.82,486.82,0,0,1,10-51.16c5.73-22,81-39.57,53.2,121.18-8.67,50-25.25,134.12-43.35,184Z"/><path class="cls-29" d="M2667.35,1956.32c57.31-25.84,129.21-246.44,138.31-286.62,29.65-131-80-190.77-107-78.29-8.45,35.27-76.59,320.37-75.55,341.66C2624.94,1970.12,2640.83,1968.27,2667.35,1956.32Z"/><path class="cls-30" d="M2780,1752c-26.82,75.89-69.46,176.68-107,201.2,9.69,19.16,14,54.48,3.4,115.42-8.66,50-25.25,134.12-43.35,184l-32.21.18s0,0,0,0c51.85-64.35,57.73-197.68,42.19-275.84h0c-5.36-26.82-7.51-47,3.31-72.53,23-54.5,88.4-90,74-149.79-11.86-49.19,1.15-111.84,15.41-136.67C2757.94,1579.18,2805.3,1680.29,2780,1752Z"/><path class="cls-31" d="M2646.17,1820.18l-.2,0a.9.9,0,0,1-.68-1.07q1.27-5.79,2.6-11.64a.89.89,0,1,1,1.74.4q-1.32,5.84-2.59,11.63A.89.89,0,0,1,2646.17,1820.18Z"/><path class="cls-31" d="M2637.64,1860l-.19,0a.9.9,0,0,1-.69-1.06l2.29-10.77c1.22-5.73,2.43-11.46,3.67-17.21a.9.9,0,1,1,1.75.38c-1.24,5.75-2.45,11.47-3.67,17.2l-2.29,10.77A.9.9,0,0,1,2637.64,1860Z"/><path class="cls-31" d="M2629.39,1962.59a.89.89,0,0,1-.85-.6c-6.33-18.29-7.66-33.68-4.18-48.43,3.11-12.51,6.09-25.48,9.69-42.06a.9.9,0,0,1,1.07-.68.88.88,0,0,1,.68,1.06c-3.6,16.6-6.59,29.58-9.7,42.1-3.39,14.39-2.08,29.46,4.13,47.42a.89.89,0,0,1-.55,1.14A1,1,0,0,1,2629.39,1962.59Z"/><path class="cls-32" d="M2633,2252.69c0,3,.13,23.37.17,30.63l-92,.51c17.66-13.83,40.86-26.57,59.67-31Z"/><path class="cls-33" d="M2675.12,2076.29H2675a.89.89,0,0,1-.73-1c.41-2.3.8-4.55,1.18-6.73,11.55-66.67,4.57-99.26-3.32-114.86a.91.91,0,0,1,.31-1.16c21-13.68,46.55-54.14,73.93-117a.9.9,0,0,1,1.64.72c-27.63,63.41-52.5,102.87-73.92,117.32,11.15,22.84,12.24,62.66,3.12,115.26-.37,2.19-.77,4.44-1.18,6.75A.88.88,0,0,1,2675.12,2076.29Z"/></g><g id="R_leg" data-name="R leg"><path class="cls-29" d="M2848.4,1570.54c17.1,44.27,36.13,117.57,35.91,157.2s2.45,198.14-3.11,235.11-5,54.52-23.73,38.41-46-60.09-53.71-91.35l-71.66-307C2712,1516.62,2824.61,1508.92,2848.4,1570.54Z"/><path class="cls-29" d="M2876.23,1913.88c25.54,48.5,33.59,95.12,32.59,152.54s-7.4,139.51-10.77,184.79c-.47.48-32.21.18-32.21.18-.54-97.26-37.28-205.32-28.66-265.28C2844.68,1933.91,2863.55,1889.81,2876.23,1913.88Z"/><path class="cls-32" d="M2898.05,2251.21c0,3,.13,23.36.18,30.62l-92.06.52c17.66-13.84,40.86-26.58,59.67-31Z"/><path class="cls-30" d="M2908.81,2066.42c-1,57.43-7.39,139.51-10.76,184.78-.47.5-32.21.18-32.21.18,64.11-132.08-10.73-236.6-4-331.58,7.44-104.19-6.41-273.64-111.51-238.59-2.4-47.73,94.92-119.45,101.08-102.5,16.23,44.66,33.05,111.75,32.85,149-.18,31.86,1.51,140.57-.7,201.17C2903.34,1972.15,2909.71,2015,2908.81,2066.42Z"/><path class="cls-33" d="M2908.82,2067.32h0a.89.89,0,0,1-.88-.91c1-55.41-6.55-96.42-25.13-137.12a1.15,1.15,0,0,1-.08-.41c1.32-36.07,1.23-90,1.05-127.47a.89.89,0,0,1,.89-.9h0a.89.89,0,0,1,.89.89c.18,37.39.27,91.23-1,127.34,18.63,40.9,26.17,82.1,25.2,137.7A.9.9,0,0,1,2908.82,2067.32Z"/><path class="cls-31" d="M2857.47,2002.15a.88.88,0,0,1-.58-.21c-18.41-15.85-46-59.4-54-91.81l-43.84-187.82a.91.91,0,0,1,.67-1.08.9.9,0,0,1,1.08.67l43.83,187.81c7.79,31.56,35.6,75.52,53.42,90.87a.89.89,0,0,1-.58,1.57Z"/></g><g id="L_arm" data-name="L arm"><path class="cls-34" d="M2106.1,1509.92c8.88-4.53,33.53-13.11,47.18-11.82,11.73,1.11,21.14,1.84,29.35,3.66,13.24,2.92,13.82,11.79,6.4,17.75-1.23.61-64.06,22.94-65.59,19.49-5.61-12.71,16.42-12.71,23.65-23.37,0,0-21.14,1.44-28,4.26C2079.64,1535.64,2093.58,1516.31,2106.1,1509.92Z"/><path class="cls-3" d="M2188,1521.33a56.09,56.09,0,0,0-7.33-20.35c47.3-20.14,97.24-39.24,129.09-48.25,44.71-12.64,85.9-13.8,95.6,8.16,9.62,21.8-26.37,42.09-42.36,45.72C2315.58,1517.38,2238.88,1521.05,2188,1521.33Z"/><path class="cls-3" d="M2429.7,1489.15c-34.91,9.37-51.15,10.52-69.61,10.92-28.79.63-21.75-24.68,2.72-43.52,54.37-41.86,79.79-33,101.91-45.16s58.18-16,81.86-4C2591.73,1430.27,2480.83,1475.44,2429.7,1489.15Z"/><path class="cls-35" d="M2367,1505.48c-31.63,10.35-124.33,15.55-179,15.85a56.09,56.09,0,0,0-7.33-20.35C2233.27,1508.28,2299.65,1509,2367,1505.48Z"/><path class="cls-36" d="M2188,1522.23a.9.9,0,0,1-.89-.77,54.76,54.76,0,0,0-7.2-20,.91.91,0,0,1,.29-1.24.89.89,0,0,1,1.23.29,56.88,56.88,0,0,1,7.34,19.92c19.34-.12,42.19-.84,64.44-2a.9.9,0,0,1,.09,1.79c-22.57,1.2-45.76,1.92-65.3,2Z"/><path class="cls-36" d="M2269,1519.27a.89.89,0,0,1-.89-.83.91.91,0,0,1,.84-1c5.89-.37,11.7-.78,17.26-1.21a.89.89,0,1,1,.14,1.78c-5.57.43-11.38.84-17.29,1.22Z"/></g><g id="body"><path class="cls-37" d="M2864.56,1603.6c-66.7.08-130.85,7.32-183.06-21.34l12.48,25c4.47,2.5,6.53,2,11.05,4.27,51.19,25.89,100.26,24.73,164.26,25.1Z"/><path class="cls-3" d="M2498.46,1457.81c-15-8.49-57.65-24.77-42.09-47.3,8.68-12.57,57.9-59.45,112.39-55.46,24.82,1.81,21.38-29,40.52-32,35.39-5.45,93.34,17.31,117.82,36,32.41,24.77,163.35,193.18,138.93,254.79-39.63-5.29-62.86-23.06-89.89-7.8-16.07,9.08-85.89-9-116.06-37.7C2553.66,1467,2506.68,1462.47,2498.46,1457.81Z"/><path class="cls-38" d="M2866,1613.87c11.25,1.5-44.52-11.81-42.21-4.41,61.06-110.57-98.31-211.55-123.07-220.11a25.17,25.17,0,0,0-2.89-.82c18.85-15,37.67-16,57.56-2.29h0C2814.5,1449.75,2884.76,1560.73,2866,1613.87Z"/><path class="cls-35" d="M2866,1613.87c-39.62-5.28-58.8-9.44-89.89-3.63-18.15,3.39-85.9-13.12-116.07-41.87-74.59-71.08-120-94.55-143.28-103.83,48.74,4.15,86.34,27.37,121.63,55.32,38.85,30.76,56.77,35,64.84,25,23-28.56-60.17-78.39-33.93-105.46,8.42,19.56,82.77,103.3,136.86,118.67,17.85,5.07,40.16,5.15,57.26,1.72C2870,1587.48,2870,1589.28,2866,1613.87Z"/><path class="cls-36" d="M2592.52,1384.47a14.21,14.21,0,0,1-3.12-.35c-7.78-1.73-12.73-9.64-17.1-16.62-.37-.6-.73-1.19-1.1-1.76-2.1,5.71-7.36,11.48-13.62,14.83-5.91,3.15-12.12,3.81-17.47,1.85a.89.89,0,1,1,.61-1.68c6.25,2.28,12.16.31,16-1.75,6.54-3.49,11.89-9.74,13.31-15.56a.9.9,0,0,1,.72-.67.89.89,0,0,1,.9.39c.71,1.07,1.42,2.21,2.16,3.4,4.18,6.68,8.92,14.25,16,15.83,4,.88,8.27-.21,13.12-3.34a.89.89,0,0,1,1.24.27.88.88,0,0,1-.27,1.23C2599.81,1383.17,2596.06,1384.47,2592.52,1384.47Z"/><path class="cls-36" d="M2608.71,1523.72a.84.84,0,0,1-.56-.2c-58-47.19-90.12-57.94-103.86-62.53a41.26,41.26,0,0,1-6.27-2.4.9.9,0,0,1-.34-1.22.89.89,0,0,1,1.22-.33,42.4,42.4,0,0,0,6,2.25c13.83,4.62,46.22,15.45,104.42,62.84a.9.9,0,0,1-.57,1.59Z"/></g><g id="head-2" data-name="head"><path class="cls-34" d="M2559.35,1279.1c9.84,16.46,22,26.63,38.62,37.76a74.48,74.48,0,0,0,10.68,6,15.84,15.84,0,0,1,1.27,1.66c6.77,10.17.2,25.67-14.67,34.61s-32.41,7.93-39.18-2.24c-3.61-5.06-14.44-16.23-17.64-22.25C2508.27,1277.81,2546,1256.84,2559.35,1279.1Z"/><path class="cls-39" d="M2580.16,1364.75c-10.17,1.66-19.54-1-24.08-7.87-3.62-5.06-14.45-16.23-17.65-22.26-30.16-56.82,7.61-77.78,20.92-55.52,8.58,14.33,13.83,18.08,26.49,29.13C2573.1,1327.28,2553.83,1350.84,2580.16,1364.75Z"/><path class="cls-34" d="M2509.91,1327.16c-6.52-22-11.33-55.4-3.86-67.76a21.2,21.2,0,0,0,10.56-4.32c17.78-13.33,40.8-1.06,41.47,19.35h0s0,6.2,0,6.2a9.52,9.52,0,0,1,9.32-9.56c4.81-.06,9.49,3.54,9.33,10.41a34.7,34.7,0,0,1-1.32,8.81c-2.82,9.59-9.66,14-15.13,14.12-1.19,7-3.21,13.95-5.78,18.7-9.59,9.06-22.39,15.41-38.53,19.85A96.64,96.64,0,0,1,2509.91,1327.16Z"/><path class="cls-40" d="M2512.08,1305.05c12.06,3.81,16.05,10.26,19.94,19.35,10.37-2.59,22.37-6.14,28.27-20,.75,5.68-.51,23.72-5.51,28.22-13.59,12.23-32.84,17.81-52.73,19.42,0,0-1.52-24.76,7.85-24.89,5.59-.07,11.83.3,11.82-6.07C2521.71,1315.25,2512.08,1305.05,2512.08,1305.05Z"/><path class="cls-40" d="M2574.64,1308.73a96.86,96.86,0,0,1-2-12.26c3-4.72,4.09-10.5,4.08-16.09a9.24,9.24,0,0,0-9.34-9.31,9.51,9.51,0,0,0-9.32,9.56c0-6.05-.08-6.2,0-6.2h0c-.67-20.41-23.69-32.68-41.47-19.35-15.32,11.67-36.76-1.22-33.8-20.25a32.33,32.33,0,0,0,11,1.74c17-.23,20.9-12.57,43.43-12.87C2580.77,1223.13,2604.16,1275.19,2574.64,1308.73Z"/><path class="cls-36" d="M2574.16,1365.37c-8.18,0-15.32-2.95-19.15-8.72a.89.89,0,0,1,1.49-1c6.5,9.77,23.53,10.65,38,2,8.55-5.14,14.68-12.8,16.41-20.5a16.23,16.23,0,0,0-2-12.85.88.88,0,0,1,.25-1.24.89.89,0,0,1,1.24.25,18,18,0,0,1,2.28,14.23c-1.84,8.17-8.28,16.26-17.24,21.64A41.76,41.76,0,0,1,2574.16,1365.37Z"/></g><path class="cls-36" d="M2829,1485.46a.9.9,0,0,1-.78-.46c-5.14-9.1-59-90.16-90-114.9-20.29-16.2-42.1-29.09-63.07-37.26-20.76-8.1-49.81-9.83-50.1-9.85a.89.89,0,0,1-.84-.94.93.93,0,0,1,.94-.85c.29,0,29.63,1.77,50.65,10s43.11,21.22,63.54,37.54c31.15,24.87,85.23,106.28,90.4,115.41a.9.9,0,0,1-.34,1.22A.88.88,0,0,1,2829,1485.46Z"/><path class="cls-36" d="M2207.4,1490.65a.89.89,0,0,1-.32-1.73c.73-.28,73.43-27.67,107.27-38.38,17.81-5.64,31.4-7.59,45.44-6.53a.89.89,0,0,1,.82,1,.88.88,0,0,1-1,.83c-13.79-1-27.18.88-44.76,6.45-33.79,10.7-106.45,38.07-107.17,38.35A.93.93,0,0,1,2207.4,1490.65Z"/><path class="cls-36" d="M2371.33,1445.79h-1.16a.9.9,0,0,1,0-1.8h0c4.62,0,8.92,0,10.38-1.11,17.85-13.08,42.72-20.45,56-23.68a26.82,26.82,0,0,1,5-.6c4.57-.26,8.88-.51,14.11-8.57a.89.89,0,1,1,1.5,1c-5.72,8.82-10.7,9.11-15.51,9.39a24.52,24.52,0,0,0-4.67.56c-13.11,3.19-37.72,10.48-55.32,23.38C2380,1445.52,2376.84,1445.79,2371.33,1445.79Z"/><path class="cls-36" d="M2468.42,1398.55a.87.87,0,0,1-.67-.3.9.9,0,0,1,.08-1.27c11.54-10.18,26.94-20.79,36.63-26.78,15.81-9.78,43.95-15.31,47.18-15.7a.9.9,0,0,1,.21,1.78c-3.17.38-30.9,5.82-46.45,15.45-9.63,6-24.93,16.49-36.39,26.6A.88.88,0,0,1,2468.42,1398.55Z"/><path class="cls-27" d="M2963.16,1730.23l-13.89,35.7c-10.95,28.16-55,37.3-98.39,20.42L2072.72,1483.6c-43.39-16.88-69.68-53.39-58.72-81.55l13.89-35.7c10.95-28.16,55-37.3,98.39-20.42l778.16,302.75C2947.82,1665.56,2974.12,1702.07,2963.16,1730.23Z"/><path class="cls-25" d="M2955.7,1749.41l-13.89,35.7c-11,28.16-55,37.3-98.39,20.42l-778.16-302.75c-43.39-16.88-69.68-53.39-58.72-81.55l13.88-35.7c11-28.16,55-37.3,98.4-20.42L2897,1667.86C2940.36,1684.74,2966.65,1721.25,2955.7,1749.41Z"/><path class="cls-27" d="M1988.61,1201.84a165.75,165.75,0,0,1-120.2,309c-41.93-16.31-80.45-96.74-96.07-136l-4-15.57L1930.68,1424l46-121.25-163.05-46.35-4-15.57S1924.62,1177,1988.61,1201.84Z"/><path class="cls-25" d="M1992.63,1217.41a165.75,165.75,0,0,1-120.2,308.95c-60.45-23.52-100.09-151.6-100.09-151.6l162.36,64.79,46-121.25-167.07-61.92S1928.64,1192.52,1992.63,1217.41Z"/><path class="cls-26" d="M2110.55,1427.14a12.06,12.06,0,0,0-15.61,6.87l-11.48,29.5a12.06,12.06,0,0,0,6.87,15.61l770.21,299.66a12.06,12.06,0,0,0,15.61-6.87l11.48-29.5a12.07,12.07,0,0,0-6.87-15.61Z"/><path class="cls-26" d="M2066.88,1402.08s-56.86,155.73-188,112.8c-45.65-15-74.13-112.29-74.13-112.29l120.26,48C1968.43,1460.43,2014.81,1450.31,2066.88,1402.08Z"/><g id="R_arm" data-name="R arm"><path class="cls-3" d="M2813.06,1568.6c-21.62-14.19-46.14-27.34-67.56-46.12-14-12.31-40.18-40.08-51.47-49.37-48.65-40.06-24.61-94.59,6.72-83.76,69.51,24,130.65,124.39,148.35,166.15C2855.11,1569.68,2843.56,1588.61,2813.06,1568.6Z"/><path class="cls-34" d="M2745.64,1696.58c-14.36,7.38-30,15.39-35.26,21.11s-11.22,21.21-13.51,30.78,21.74,14.54,35,2.53,9.13-15,18.91-20.12,13.44-13.43,16.76-21.94S2766.82,1689.94,2745.64,1696.58Z"/><path class="cls-3" d="M2850.59,1570.63c-18.73,55.08-65.14,116.49-86.71,146.67-6.49-10.15-14.05-16-22-19,40.05-60.56,25.72-127.08,60.78-161.2C2817.42,1522.73,2858.09,1548.59,2850.59,1570.63Z"/><path class="cls-31" d="M2763.88,1717.3c-5.24-8.2-11.17-13.6-17.47-16.93,29.8-17.68,61.14-50.66,78.28-74.15C2803.77,1663.06,2778.28,1697.14,2763.88,1717.3Z"/><path class="cls-36" d="M2800.71,1561.63a.83.83,0,0,1-.47-.14l-5.91-3.67c-16.62-10.31-33.8-21-49.42-34.67-69.94-61.34-74.42-76.71-76.11-82.49-.11-.38-.21-.71-.31-1a.89.89,0,1,1,1.69-.58c.11.33.22.69.34,1.1,1.64,5.65,6,20.65,75.57,81.65,15.51,13.6,32.63,24.21,49.18,34.48l5.92,3.68a.9.9,0,0,1-.48,1.66Z"/><path class="cls-36" d="M2844.35,1587.83a.83.83,0,0,1-.34-.07.9.9,0,0,1-.48-1.18c2.35-5.56,4.44-11,6.22-16.24a16.87,16.87,0,0,0,.52-8.72c-.82-4.24-6.35-17-16.54-35.17a.9.9,0,0,1,1.56-.88c10.29,18.29,15.89,31.33,16.74,35.71a18.56,18.56,0,0,1-.59,9.64c-1.79,5.25-3.89,10.75-6.26,16.36A.9.9,0,0,1,2844.35,1587.83Z"/></g><path class="cls-34" d="M2091.91,1522.53s6.43-29.89,28.8-29.93c34.28,0,1.54,47.59,1.54,47.59Z"/><path class="cls-13" d="M1763.14,2217.81c51.47-65.4,505.72-65.4,505.72-65.4l71.91-112.52a83.17,83.17,0,0,1,90.16-35.91l55.29,13.76-39.73,134.67s-334.62,89.81-529.52,110.5c-140.53,14.92-159.43-34.53-159.5-45.14Z"/><path class="cls-23" d="M2388,2050.38l-19.59-12.11c-15.15-9.35-42-12.52-60.33-7.17L1937,2139.3c-23.32,6.8-32.27,22-19.47,34.11l16.61,15.71c13.41,12.68,16,21.43,40.06,13.86L2383,2078.78C2401.73,2072.89,2403.75,2060.13,2388,2050.38Z"/><path class="cls-9" d="M2369.55,2039l-15.14-9.35c-11.75-7.27-35.86-8.83-54.19-3.53l-370,107c-23.24,6.72-34.39,19.72-24.48,29.09l12.8,12.1c10.27,9.72,38.28,11.72,62.09,4.41l377.48-115.82C2376.72,2057.23,2381.68,2046.5,2369.55,2039Z"/><path class="cls-23" d="M1917,2262.91c49.3-11.11,76.76-63,40.89-95.72-34-31-97.14-44.6-143.69-31.54-23.33,6.55-40.63,34.17-46,49.76l5.69,24.05,84.06-25.82,31.48,30-84.67,14.82,5.26,21.22S1878.8,2275.32,1917,2262.91Z"/><path class="cls-9" d="M1923.42,2237.88c49.06-15.64,60.75-52.56,28.79-81.55-30.46-27.63-90.8-38.85-137.12-25.92-33.56,9.37-46.87,55-46.87,55l92.46-27.49,42.07,41.9-98,28.68S1885.69,2249.9,1923.42,2237.88Z"/><path class="cls-26" d="M1966.81,2157.34c-3.33,1-7.9.13-10.18-1.92l-10.72-9.69c-2.23-2-1.35-4.44,2-5.4L2314.58,2033a13.17,13.17,0,0,1,9.43,1.54l12.34,7.8c2.62,1.65,2.6,3.64-.06,4.44Z"/><path class="cls-26" d="M1944.27,2167.22S1891.7,2116.73,1820,2134c-25.57,6.17-34.19,40.48-34.19,40.48l68-20.1C1878.44,2149.87,1907.11,2152.05,1944.27,2167.22Z"/><path class="cls-23" d="M2454.27,2085.36c-37.31,12.08-105.81,3.91-78.1-36.8-38.77-24.42-66.71-54.16-30.68-64.24,17.39-4.87,64.35.87,88.44,5.23l-1.88,18.66L2372.94,2023l48,25.58,65.23-30.82C2489.08,2028.72,2498.85,2072.94,2454.27,2085.36Z"/><path class="cls-9" d="M2451.81,2065c-37.25,11.84-81.7-1.62-118.3-24.75-35.07-22.16-32.58-47.78,3.48-57.82,25.05-7,96.94,7.09,96.94,7.09l-68.29,19.28,52,30.88,68.58-22S2497.46,2056.68,2451.81,2065Z"/><path class="cls-26" d="M2353.82,2041.74s-64.65-39.16-12.72-56.19c17.61-5.78,72,5.27,72,5.27l-50.73,14.25C2347.34,2011.64,2341.52,2022.46,2353.82,2041.74Z"/><path class="cls-13" d="M1012.32,2013.64c0,17.13-79.76,26.24-261.18,31-281.95,7.41-328.61-13.89-328.61-31s147.12-31,328.61-31S1012.32,1996.51,1012.32,2013.64Z"/><path class="cls-31" d="M663.61,1641.64a.91.91,0,0,1-.77-.44L504,1377.5a.91.91,0,0,1,.31-1.25.9.9,0,0,1,1.24.31l158.86,263.71a.91.91,0,0,1-.78,1.37Z"/><path class="cls-34" d="M676.87,705.68c-26.13-10.28-44.15,13.91-46.49,32.64-1.85,14.83,4.54,33,1.15,49.22s8.76,15.33,12.3,2.74S648.73,772,655.21,763s16-30.22,11.09-45.07-11,23-19.44,29.57c1.26-9.78-.06-21.12,8.56-29C664.42,710.33,672.75,717.85,676.87,705.68Z"/><path class="cls-3" d="M648.09,782.31a59.16,59.16,0,0,1-17.52-3.23c-9,49.84-44.72,99.33-57.75,133.06-13.66,35.36-2.85,54.28,1.11,59.41,7.08,9.18,26.51,10.55,35.09-5.19C623.4,940,652,838.68,648.09,782.31Z"/><path class="cls-3" d="M481.8,1100c36.72-44,60.74-68.17,80.71-87.39,28.45-27.38,34.88-34.49,44.25-52.43,14.6-28-18-25.07-48.06-10.3-66.89,32.82-54.62,50.76-80.12,61-39,15.63-59.75,42.23-60.93,53.56C416.08,1079.66,450.08,1138,481.8,1100Z"/><path class="cls-41" d="M606.6,977.5C603.55,978,478.74,1088,478.74,1088l-18,43.11-10.39-67.23s29.64-1.83,49.83-14.81,100.47-74.73,100.47-74.73l23.5-54Z"/><g id="L_leg-2" data-name="L leg"><path class="cls-42" d="M397.4,2137C393.59,2061,390,1985,385.56,1909.13c-1.51-25.55-4.93-176.78-64.67-120.55-44.62,42-11.81,145.92-1.38,195.42,7.61,36.15,15.95,72.3,26.2,107.85,2.24,7.79,7.54,40.06,14.31,44.14C367.67,2140.61,389.08,2137,397.4,2137Z"/><path class="cls-42" d="M318.85,1803.65c-41.7-18.11-65.68-78.33-83.62-115.51-22.31-46.2-40.95-94.29-57.7-142.6-15.85-45.71-32.9-94.92-23.18-143.7,7.53-37.73,43.78-95.75,90.92-67.38,33.18,20,37.87,69.4,46.11,102.53q18.72,75.21,36.91,150.56c12.84,53.35,26.5,106.73,36.74,160.61C372.44,1787.08,369.4,1825.6,318.85,1803.65Z"/><path class="cls-43" d="M188,1574.49c21,57.18,44.06,115.1,75.91,167.59,6.78,11.18,14,22.46,22.22,32.7,3.4,4.22,22.79,19.68,24.7,24.39,3.81,9.38-7.71,34.52-8.54,46.28-4.47,63.63,14.53,130.23,29.31,191.76,6.54,27.19,11.06,57.9,23,83.34,10.57,22.58,13.48,16.4,42.86,16.4-53-52.62-59.09-155.3-58.49-223.58.39-43.61,14.66-87.41,12.46-130.61-2.21-43.53-31.72-74.59-58-107.22-27.32-33.93-42.18-62.07-35.27-105.55,6.39-40.23,4.07-82.37-9.11-121.28-14.59-43.08-38.78-39.13-56.21,2.49C176.94,1489,173.74,1535.78,188,1574.49Z"/><path class="cls-44" d="M323.1,1568.69a1.54,1.54,0,0,1-1.52-1.18l-3.49-14.94a1.51,1.51,0,0,1,1.18-1.81,1.55,1.55,0,0,1,1.86,1.14l3.49,14.95a1.51,1.51,0,0,1-1.18,1.81A2,2,0,0,1,323.1,1568.69Z"/><path class="cls-44" d="M335.28,1620.55a1.54,1.54,0,0,1-1.52-1.17q-4.12-17.61-8.31-35.19a1.5,1.5,0,0,1,1.17-1.81,1.52,1.52,0,0,1,1.87,1.13q4.2,17.58,8.32,35.2a1.52,1.52,0,0,1-1.18,1.81A2.07,2.07,0,0,1,335.28,1620.55Z"/><path class="cls-44" d="M362.57,1811a1.69,1.69,0,0,1-.5-.08,1.49,1.49,0,0,1-1-1.91c14.11-40.65-.49-91.24-13.37-135.87-3.71-12.87-7.22-25-10-36.55a1.51,1.51,0,0,1,1.17-1.81,1.57,1.57,0,0,1,1.88,1.14c2.72,11.46,6.22,23.57,9.92,36.41,13,45,27.74,96.11,13.32,137.64A1.56,1.56,0,0,1,362.57,1811Z"/><path class="cls-45" d="M355.74,2129c0,6.75-4,32.95-.32,37.41,6.46,7.76,3.32-1.1,13.72,4.08,17.73,8.83,69,5.28,106.26,2.77a10,10,0,0,0,3.85-19.1C441.49,2136,396,2129,355.74,2129Z"/><path class="cls-44" d="M310.68,1939.23a1.56,1.56,0,0,1-1.54-1.25c-5.49-29.42-10.68-60.73-8.65-91.49.36-5.56,2.07-12.36,3.88-19.56,2.67-10.63,5.43-21.63,3.62-28.29-.54-2-10.18-10.46-14.81-14.52-3.39-3-5.35-4.71-6.05-5.54C279,1769,272,1758.2,265.68,1748c-13.47-21.79-26.08-46.09-40.86-78.78a1.49,1.49,0,0,1,.8-2,1.6,1.6,0,0,1,2.06.78c14.73,32.57,27.28,56.76,40.68,78.44,6.25,10.1,13.15,20.76,21.18,30.21.6.7,3.1,2.9,5.74,5.22,8.47,7.43,15,13.33,15.74,16,2,7.4-.85,18.77-3.62,29.77-1.77,7.07-3.44,13.74-3.79,19-2,30.42,3.15,61.52,8.61,90.76a1.52,1.52,0,0,1-1.26,1.76Z"/></g><g id="R_leg-2" data-name="R leg"><path class="cls-42" d="M108,1370.67C66,1479,67,1585.88,68.16,1699.94c.28,27,.36,54.08,1.89,81,1,17.42-1.22,58.59,10,72.8,21.82,27.69,65.9-59.59,73.46-77.78,19.95-48,26.64-103.37,38.36-153.73q19.14-82.34,38.3-164.67c9.18-39.48,31.86-97.74-14.28-124.1C178.15,1311.94,123.26,1331.48,108,1370.67Z"/><path class="cls-42" d="M78.24,1757.22c-36.41,68.55-38.5,141.65-34.77,217,2.11,42.59,5.5,85.1,9,127.6,1,12.34-1.47,29,7.59,35.39,1.34.93,30.83,1.38,32.08,0,6.25-7,1.59-36.34,2.49-46.78,1.56-18,3.9-36,6.65-53.92,7-45.28,17.06-90.13,21.67-135.74,4-39.51,1.89-79.43-12.37-117.11C106.87,1773.94,90.55,1734.05,78.24,1757.22Z"/><path class="cls-45" d="M60.68,2129A10.59,10.59,0,0,0,50,2138.42c-1.18,10.39-2.78,24.79.47,28,7.91,7.79,4.06-1.1,16.81,4.09,21.25,8.66,66.76,4.9,103.59,2.08,11.06-.84,13.53-15.81,3.43-20.39C139.09,2136.22,104.41,2129.79,60.68,2129Z"/><path class="cls-43" d="M41.74,1929.09c1.09,46.27,4.45,92.48,8,138.64,1.22,15.91-2.58,46.35,4.81,60,1.1,2-1.25,7.51.81,9.26,3.74,3.19,34.27,0,37,0-65.58-130.3,6.75-257.06,1.7-391.3-2.6-69.41,9-131.23,30.54-197.08,20.4-62.47,19.23-113.31-20-168.69C69.77,1475.26,67.45,1566.14,67.91,1666c.17,37,7.17,79.64-1.24,115.53C54.71,1832.55,40.47,1875.48,41.74,1929.09Z"/><path class="cls-44" d="M41.74,1930.6a1.54,1.54,0,0,1-1.57-1.48c-1-42.28,8-77.62,17.5-115,3.25-12.8,6.62-26,9.62-39.76,3.49-15.92,2-35,.65-53.53-.68-9-1.32-17.5-1.4-25.49-.33-32.82-.3-65.35-.27-96.8a1.53,1.53,0,0,1,1.56-1.51h0a1.53,1.53,0,0,1,1.56,1.51c0,31.45,0,64,.27,96.77.08,7.9.72,16.35,1.39,25.3,1.41,18.7,2.87,38-.7,54.38-3,13.77-6.38,27-9.64,39.85-9.46,37.23-18.4,72.39-17.41,114.26a1.54,1.54,0,0,1-1.53,1.55Z"/><path class="cls-44" d="M100.39,1856.94a1.58,1.58,0,0,1-1.17-.51,1.47,1.47,0,0,1,.14-2.13c42.64-36.31,58-90.2,71.08-146.89q15.27-65.92,30.65-131.82l15.34-65.9a1.58,1.58,0,0,1,1.87-1.15,1.52,1.52,0,0,1,1.18,1.81l-15.35,65.9q-15.34,65.89-30.64,131.82c-13.25,57.19-28.73,111.59-72.07,148.49A1.53,1.53,0,0,1,100.39,1856.94Z"/></g><g id="L_arm-2" data-name="L arm"><path class="cls-46" d="M607.27,1063.46c-6.28,20.66-16.15,42.46-33.14,57.07-6.14,5.28-42,33.64-48.44,30.75-17.19-7.76,6.35-24.89,9.62-32.69,2.48-5.93-.72-37.5,9.85-39.39,2.51-.45-.71,30.77,20.7,24.93C584.54,1099,588,1063.76,607.27,1063.46Z"/><path class="cls-47" d="M268.16,1123.88c18.71,43.52,51.56,87.84,85,122.06,8.26,8.45,30.39,33,44.53,23.81,13.29-8.66-1.25-45.61-4.56-54.54-15.05-40.51-46-80-72.43-114.26C289,1059.87,246.11,1072.62,268.16,1123.88Z"/><path class="cls-46" d="M540.54,1140.73a63.49,63.49,0,0,1-9.3-15.57c-29.24,27.49-67,43.43-102.77,61.09-25.13,12.41-76.13,40.78-55.7,76.14C400.52,1310.42,524,1166.6,540.54,1140.73Z"/><path class="cls-48" d="M389.76,1199.11c-12.78-19.59-21.68-41.83-35.34-60.47-11.76-16-25.63-28.79-38.84-44.28-35.75-41.91-66.64-10.4-45.42,34.53,10.06,21.29,24.44,40.43,37.1,60.28,10.88,17.06,19.44,43.13,34.38,57.3,13,12.3,5.72,11.39,17.63,4.36C363.81,1248.15,392.24,1202.91,389.76,1199.11Z"/><path class="cls-49" d="M296.26,1172.88c18.5,27.4,31.2,64.65,57.57,86.06,4.27-6.72,21-32.5,24.76-39.57-12.09,22.5-67.08-68-73.65-92.27A318.5,318.5,0,0,1,296.26,1172.88Z"/><path class="cls-50" d="M352.85,1260a1.57,1.57,0,0,1-1.15-.49c-8.33-8.82-20.3-27.75-31.88-46.06-9.44-14.93-19.19-30.37-26.47-39.44a1.48,1.48,0,0,1,.27-2.12,1.59,1.59,0,0,1,2.2.27c7.38,9.21,16.75,24,26.67,39.71,11.5,18.19,23.39,37,31.52,45.6a1.48,1.48,0,0,1-.1,2.13A1.58,1.58,0,0,1,352.85,1260Z"/></g><g id="body-2" data-name="body"><path class="cls-48" d="M288.9,1072.34c-62.44-34.89-132.1-48.08-201-21.71-27.67,10.6-52.07,25.82-53.17,56.93-1.13,32.35,14.48,68.2,27.15,97.3,12.06,27.71,30.07,51.68,43,78.73,7.39,15.42,11.1,30,10.71,47.08-.22,9.85-8,26.89-5.24,35.35,5.07,15.52,41.49,25.3,57.85,31.19,37.81,13.63,78.12,20.58,118.51,19.23-11.32-32.25-10.39-66.37-8.67-99.88,1.49-29.17-3.32-62.74,1.5-90.89C285.51,1191.19,335.4,1098.32,288.9,1072.34Z"/><path class="cls-49" d="M109.61,1370.05c28.08,15.87,58,28.93,89.47,37-18.42-14.62-42.68-38.69-20.78-58.23,5.28-4.71,73.56-12.2,71.32-20.54-5.39-20.11-79.06-4.86-92.3-6.82-16.32-2.42-4.43,2.67-16.19-7.29-12.72-10.78-21.33-30.13-34.79-42C116.57,1306.38,116.59,1335.16,109.61,1370.05Z"/><path class="cls-51" d="M111.16,1360.63c34.22,19.66,71.41,35.14,110.67,42.25,13.92,2.53,43.45-1.28,55,4.61,10.77,5.48,8.25.41,11.59,17.55a316.25,316.25,0,0,1-116.22-16.67c-14.59-4.95-46.56-13.08-56.66-24.84S104.34,1380.75,111.16,1360.63Z"/><path class="cls-52" d="M278.64,1227.78a1.46,1.46,0,0,1-.54-.09,1.49,1.49,0,0,1-.92-1.94c14.91-38.9,23-69.37,26.21-98.8a1.56,1.56,0,0,1,1.72-1.35,1.52,1.52,0,0,1,1.39,1.66c-3.24,29.69-11.38,60.39-26.39,99.54A1.56,1.56,0,0,1,278.64,1227.78Z"/></g><g id="head_front" data-name="head front"><path class="cls-53" d="M227.11,912.66c21.87,10.84,26.54,25.4,22.62,46.67,10.38-18.83,11.28-41.71-5.55-58.1Q238.16,909.71,227.11,912.66Z"/><path class="cls-46" d="M169.78,960.28c5.4,38.93-21,73.76-12.37,112.71,6,26.93,44.19,58.17,73.14,26.58,14.4-15.72-1.84-36.11-4.89-52.84-3.83-21,10.45-38.32,9.46-58C233.76,961.8,165.94,932.57,169.78,960.28Z"/><path class="cls-54" d="M212,874.11c-48-.08-63.36,75-43,92.06,7.05-28.64,10.82-53.28,51.57-52.4,16.79.37,35.5,13.67,35.93-2.5C257.23,883.12,230.48,874.14,212,874.11Z"/><path class="cls-46" d="M238.8,998.58c8.42-23.35,29.26-63.65-1.29-81.18-26.58-15.24-57.88-.17-63,24.58-1-15.1-13.32-9.87-16.41,1.22-2.88,10.3,7,19.52,10.52,28.46C177.26,993.77,216.67,1044.87,238.8,998.58Z"/><path class="cls-47" d="M154.81,1037.75c1.95,10.76-1.12,50.68,12.05,58.1-1.88-15.8-5.24-45.65,3.19-60.71,8.72-15.58,20.42-15.73,41.9-17.82-26.54-4.49-28.78-21.24-42.35-37.28C166.51,999.45,163.64,1019.51,154.81,1037.75Z"/><path class="cls-52" d="M197.09,1113.62c-7.36,0-11.73-2.42-17-5.69-30.44-18.86-22.58-35.35-25.07-55.93-.61-5.08-1.2-9.88-1.94-14a1.56,1.56,0,0,1,1.47-1.73,1.79,1.79,0,0,1,2,1.27c.76,4.2,1.35,9,2,14.16,2.42,20-3.71,36.1,23.54,53.48,7.23,4.62,14.73,6.6,26.6,4.17,11.34-2.31,18.44-5.84,21.7-10.8,4.69-7.13,3.75-17.36-.05-27.49-3.51-9.36-9.8-18.39-7.35-27.29a1.76,1.76,0,0,1,2.12-1.12,1.51,1.51,0,0,1,1.31,1.81c-2.22,8.09,3.66,16.24,7,25.21,4,10.78,5.46,22.08,0,30.36-3.77,5.74-11.61,9.74-24,12.26A62.52,62.52,0,0,1,197.09,1113.62Z"/></g><path class="cls-55" d="M215.16,959c-4.32,3-22.33-1.55-27-6.27-2.76-2.77-2.65-10.54.21-12,4.88-2.47,21.88,1.8,27,6.27C218.39,949.62,217.69,957.24,215.16,959Z"/><path class="cls-55" d="M224.84,959.62c3.77,3.39,21.62,1.16,26.75-2.81,3-2.33,3.88-9.8,1.32-11.53-4.37-2.94-21.23-.85-26.75,2.82C222.93,950.25,222.64,957.64,224.84,959.62Z"/><line class="cls-55" x1="216.68" y1="951.22" x2="223.61" y2="951.64"/><line class="cls-55" x1="185.84" y1="945.17" x2="173.33" y2="930.28"/><path class="cls-29" d="M153.28,1519.85l30.4,21c19.08,13.21,44.15,10,56-7L789.82,738.94c11.83-17.09,5.95-41.66-13.13-54.87l-30.4-21c-19.08-13.21-44.15-10-56,7L140.15,1465C128.32,1482.08,134.2,1506.64,153.28,1519.85Z"/><path class="cls-25" d="M165.61,1539.2l30.39,21c19.09,13.21,44.15,10.06,56-7l550.16-794.9c11.84-17.1,6-41.67-13.13-54.88l-30.39-21c-19.09-13.21-44.15-10.06-56,7l-550.16,794.9C140.64,1501.42,146.52,1526,165.61,1539.2Z"/><path class="cls-29" d="M936.21,860.91c-3.41,4.92-1.72,12,3.77,15.78l46.36,32.09c5.49,3.79,12.69,2.89,16.1-2l99.63-144c3.4-4.92,1.71-12-3.78-15.78l-46.36-32.09c-5.49-3.79-12.69-2.89-16.09,2Z"/><path class="cls-29" d="M943.07,644l-101,146c60.28,18,100.21,18.47,138.35,63.62l67.75-97.9C987.32,729.49,977.78,684.31,943.07,644Z"/><polygon class="cls-29" points="647.58 655.2 747.99 510.11 516.25 462.81 647.58 655.2"/><rect class="cls-29" x="708.13" y="530" width="176.6" height="242.03" transform="translate(-192.13 935.4) rotate(-55.31)"/><rect class="cls-56" x="703.92" y="577.23" width="175.8" height="142.16" transform="translate(-191.89 930.44) rotate(-55.31)"/><path class="cls-26" d="M988.71,895.5c-2.88,4.15-3,9-.23,11l4.61,3.19c2.74,1.9,7.29.08,10.16-4.07L1101,764.32c2.87-4.15,3-9.05.23-11l-4.62-3.19c-2.74-1.9-7.29-.08-10.16,4.07Z"/><path class="cls-28" d="M983.47,702.52c-47.33,9-83.07,47.22-97.47,96.43,2.18,4.7,62.9,17.09,68.64,35.32l64.83-95.59C987.11,712.13,994.34,717.78,983.47,702.52Z"/><polygon class="cls-28" points="683.35 680.13 720.78 626.05 515.55 463.83 647.58 655.2 683.35 680.13"/><g id="R_arm-2" data-name="R arm"><path class="cls-47" d="M114.52,1312.31c6.06-50.09,9-105.43-5.35-154.5-5.61-19.2-52.34-123.45-70.12-68-13.68,42.72,6.18,108.4,13.26,151.46,2.52,15.37,1.83,44.69,11,57.76C67.92,1305.57,112.8,1326.5,114.52,1312.31Z"/><path class="cls-48" d="M123.64,1261.84c-1.16-36.1-4.91-72.6-15.9-107.26-5.86-18.46-23.51-75.37-47.21-80.91C12.14,1062.38,48.59,1247,52.74,1272,71.6,1259.63,102.19,1260.73,123.64,1261.84Z"/><path class="cls-49" d="M75.56,1264.73c15.27-3.9,31.42-4.66,47.11-3.38,1.67-36.66-2.77-74-15.09-108.86C110.49,1194.29,97.35,1229.27,75.56,1264.73Z"/><path class="cls-46" d="M237.09,1323.29c22.45,10.77,72.06,18.61,94.83,4.3,41.5-26.08-13-40.12-37.32-40.12,6.61-2.76,16.61-12.5,13.26-20.59C299.9,1273.42,208.12,1309.39,237.09,1323.29Z"/><path class="cls-46" d="M78.81,1322.07c49.74,12,100.08,5.67,150.59,6.53,18.47.32,20.94,5.36,25.82-9.91,7.42-23.21-2.34-15.93-15.06-19.55-39.2-11.17-90.73-27-131.78-29.28-17.31-.95-40.14-2-46.61,16C57.9,1296.7,66.94,1319.21,78.81,1322.07Z"/><path class="cls-50" d="M121.57,1241.85a1.53,1.53,0,0,1-1.56-1.51c0-9.85-.34-19.4-.9-28.36a1.53,1.53,0,0,1,1.47-1.6,1.5,1.5,0,0,1,1.65,1.42c.56,9,.87,18.62.9,28.53A1.45,1.45,0,0,1,121.57,1241.85Z"/><path class="cls-52" d="M115.5,1189.61a1.55,1.55,0,0,1-1.55-1.31c-3.54-26.82-10.18-45.75-21.52-61.39a1.47,1.47,0,0,1,.38-2.1,1.6,1.6,0,0,1,2.18.37c11.65,16.06,18.45,35.41,22.06,62.73a1.51,1.51,0,0,1-1.35,1.69Z"/></g></g></g></svg>