<?xml version="1.0" encoding="UTF-8"?>
<svg width="78px" height="50px" viewBox="0 0 78 50" version="1.1" xmlns="http://www.w3.org/2000/svg" xmlns:xlink="http://www.w3.org/1999/xlink">
    <title>front@1.5x</title>
    <defs>
        <filter id="filter-1">
            <feColorMatrix in="SourceGraphic" type="matrix" values="0 0 0 0 0.105882 0 0 0 0 0.105882 0 0 0 0 0.105882 0 0 0 1.000000 0"></feColorMatrix>
        </filter>
    </defs>
    <g id="Icons" stroke="none" stroke-width="1" fill="none" fill-rule="evenodd">
        <g transform="translate(-737.000000, -40.000000)" id="front">
            <g transform="translate(738.000000, 41.000000)">
                <rect id="Rectangle" stroke="#000000" stroke-width="1.3" fill="#FFFFFF" fill-rule="nonzero" x="0" y="0" width="76.125" height="47.6875" rx="5.6875"></rect>
                <path d="M6.5625,2.625 L70,2.625 C72.1746212,2.625 73.9375,4.3878788 73.9375,6.5625 L73.9375,41.5625 C73.9375,43.7371212 72.1746212,45.5 70,45.5 L6.5625,45.5 C4.3878788,45.5 2.625,43.7371212 2.625,41.5625 L2.625,6.5625 C2.625,4.3878788 4.3878788,2.625 6.5625,2.625 Z" id="Rectangle" stroke="#000000" stroke-width="0.5" fill="#FFFFFF" fill-rule="nonzero"></path>
                <rect id="Rectangle-2" stroke="#000000" stroke-width="0.5" fill="#EAEAEA" fill-rule="nonzero" x="6.375" y="6.375" width="12.625" height="12.625" rx="1.3125"></rect>
                <g filter="url(#filter-1)" id="number">
                    <g transform="translate(17.750000, 35.125000)">
                        <circle id="Oval" fill="#000000" fill-rule="nonzero" cx="0.984375" cy="0.984375" r="1"></circle>
                        <circle id="Oval" fill="#000000" fill-rule="nonzero" cx="4.046875" cy="0.984375" r="1"></circle>
                        <circle id="Oval" fill="#000000" fill-rule="nonzero" cx="7.109375" cy="0.984375" r="1"></circle>
                        <circle id="Oval" fill="#000000" fill-rule="nonzero" cx="10.171875" cy="0.984375" r="1"></circle>
                        <circle id="Oval" fill="#000000" fill-rule="nonzero" cx="14.984375" cy="0.984375" r="1"></circle>
                        <circle id="Oval" fill="#000000" fill-rule="nonzero" cx="18.046875" cy="0.984375" r="1"></circle>
                        <circle id="Oval" fill="#000000" fill-rule="nonzero" cx="21.109375" cy="0.984375" r="1"></circle>
                        <circle id="Oval" fill="#000000" fill-rule="nonzero" cx="24.171875" cy="0.984375" r="1"></circle>
                        <circle id="Oval" fill="#000000" fill-rule="nonzero" cx="28.984375" cy="0.984375" r="1"></circle>
                        <circle id="Oval" fill="#000000" fill-rule="nonzero" cx="32.046875" cy="0.984375" r="1"></circle>
                        <circle id="Oval" fill="#000000" fill-rule="nonzero" cx="35.109375" cy="0.984375" r="1"></circle>
                        <circle id="Oval" fill="#000000" fill-rule="nonzero" cx="38.171875" cy="0.984375" r="1"></circle>
                        <circle id="Oval" fill="#000000" fill-rule="nonzero" cx="42.984375" cy="0.984375" r="1"></circle>
                        <circle id="Oval" fill="#000000" fill-rule="nonzero" cx="46.046875" cy="0.984375" r="1"></circle>
                        <circle id="Oval" fill="#000000" fill-rule="nonzero" cx="49.109375" cy="0.984375" r="1"></circle>
                        <circle id="Oval" fill="#000000" fill-rule="nonzero" cx="52.171875" cy="0.984375" r="1"></circle>
                    </g>
                </g>
            </g>
        </g>
    </g>
</svg>