<?xml version="1.0" encoding="UTF-8"?>
<svg width="60px" height="36px" viewBox="0 0 60 36" version="1.1" xmlns="http://www.w3.org/2000/svg" xmlns:xlink="http://www.w3.org/1999/xlink">
    <title>Discover-light@1.5x</title>
    <defs>
        <rect id="path-1" x="0" y="0" width="60" height="36" rx="2.4"></rect>
        <path d="M14.4692501,36 L57.6002189,36 C58.9255814,36 60,34.9277038 60,33.6031816 L60,20.2188412 C60,20.2188412 43.9197204,31.1207981 14.4692501,36 Z" id="path-3"></path>
    </defs>
    <g id="Icons" stroke="none" stroke-width="1" fill="none" fill-rule="evenodd">
        <g transform="translate(-295.000000, -41.000000)" id="Discover-light">
            <g transform="translate(295.000000, 41.000000)">
                <g id="Rectangle">
                    <mask id="mask-2" fill="white">
                        <use xlink:href="#path-1"></use>
                    </mask>
                    <use id="Mask" fill="#FFFFFF" xlink:href="#path-1"></use>
                    <mask id="mask-4" fill="white">
                        <use xlink:href="#path-3"></use>
                    </mask>
                    <use id="Mask" fill="#E6772F" xlink:href="#path-3"></use>
                </g>
                <path d="M10.97315,17.893209 C10.5227219,18.2783457 9.94932162,18.4467587 9.03238878,18.4467587 L8.65190819,18.4467587 L8.65190819,13.8507582 L9.03238878,13.8507582 C9.94932162,13.8507582 10.5007223,14.0078357 10.97315,14.4121348 C11.4608083,14.8299284 11.7538545,15.4744319 11.7538545,16.1410665 C11.7538545,16.8109399 11.4608083,17.4783842 10.97315,17.893209 L10.97315,17.893209 Z M9.3164095,12.6734869 L7.23462504,12.6734869 L7.23462504,19.6245698 L9.30371741,19.6245698 C10.4048265,19.6245698 11.1996333,19.3738396 11.8962879,18.8205599 C12.723812,18.1652607 13.2148548,17.1758346 13.2148548,16.1507827 C13.2148548,14.0987895 11.6128313,12.6734869 9.3164095,12.6734869 L9.3164095,12.6734869 Z" id="Fill-13" fill="#1A1919"></path>
                <polygon id="Fill-14" fill="#1A1919" points="13.8683563 12.6734869 15.2799985 12.6734869 15.2799985 19.6245698 13.8683563 19.6245698"></polygon>
                <path d="M18.7466308,15.3375964 C17.8945686,15.0385554 17.6455217,14.8393747 17.6455217,14.4636842 C17.6455217,14.0269981 18.0905909,13.6958399 18.7026316,13.6958399 C19.1268293,13.6958399 19.4762848,13.8583152 19.8485861,14.2553272 L20.5855733,13.3301355 C19.9766351,12.8173396 19.2478272,12.557703 18.4533025,12.557703 C17.1677351,12.557703 16.1879059,13.4135323 16.1879059,14.5451918 C16.1879059,15.5060093 16.6434108,15.9934353 17.9726955,16.456301 C18.5283269,16.6411774 18.8106553,16.7674872 18.9536528,16.8530431 C19.2368274,17.0282034 19.3778506,17.2792035 19.3778506,17.569338 C19.3778506,18.1347629 18.9096536,18.5503974 18.2767415,18.5503974 C17.6029327,18.5503974 17.057737,18.2276059 16.7314093,17.6214272 L15.8181431,18.4678103 C16.4710805,19.3832859 17.2537592,19.792443 18.3320226,19.792443 C19.8026125,19.792443 20.838851,18.8502481 20.838851,17.5083422 C20.838851,16.4025924 20.3582439,15.9014019 18.7466308,15.3375964" id="Fill-15" fill="#1A1919"></path>
                <path d="M21.2839202,16.1507827 C21.2839202,18.1949489 22.960686,19.7789484 25.1191871,19.7789484 C25.7278432,19.7789484 26.2496291,19.6639741 26.8921307,19.3738396 L26.8921307,17.7763456 C26.3243714,18.3223382 25.8259954,18.5377125 25.1812373,18.5377125 C23.7549287,18.5377125 22.7446385,17.5501756 22.7446385,16.1410665 C22.7446385,14.8096865 23.7876461,13.7549464 25.1191871,13.7549464 C25.7910216,13.7549464 26.3043461,13.9827357 26.8921307,14.5368251 L26.8921307,12.9412203 C26.2713466,12.6408299 25.7619708,12.5164094 25.1482379,12.5164094 C23.0021468,12.5164094 21.2839202,14.1314465 21.2839202,16.1507827" id="Fill-16" fill="#1A1919"></path>
                <polyline id="Fill-17" fill="#1A1919" points="38.3691627 17.3401992 36.4320681 12.6734869 34.887582 12.6734869 37.9669646 19.8 38.7265155 19.8 41.8656919 12.6734869 40.3333339 12.6734869 38.3691627 17.3401992"></polyline>
                <polyline id="Fill-18" fill="#1A1919" points="42.5084757 19.6245698 46.5256625 19.6245698 46.5256625 18.4467587 43.9257588 18.4467587 43.9257588 16.5704656 46.4269463 16.5704656 46.4269463 15.3929243 43.9257588 15.3929243 43.9257588 13.8507582 46.5256625 13.8507582 46.5256625 12.6734869 42.5084757 12.6734869 42.5084757 19.6245698"></polyline>
                <path d="M49.2925377,15.8698245 L48.881314,15.8698245 L48.881314,13.7673614 L49.3156655,13.7673614 C50.2007271,13.7673614 50.6748471,14.1228099 50.6748471,14.7999704 C50.6748471,15.4957534 50.2007271,15.8698245 49.2925377,15.8698245 L49.2925377,15.8698245 Z M52.133591,14.7244005 C52.133591,13.4227086 51.2005815,12.6734869 49.5649945,12.6734869 L47.4609284,12.6734869 L47.4609284,19.6245698 L48.881314,19.6245698 L48.881314,16.8298323 L49.0654903,16.8298323 L51.0226103,19.6245698 L52.765375,19.6245698 L50.479953,16.6948861 C51.5480627,16.4859892 52.133591,15.788047 52.133591,14.7244005 L52.133591,14.7244005 Z" id="Fill-19" fill="#1A1919"></path>
                <path d="M35.0872709,16.1669762 C35.0872709,18.1682296 33.3927361,19.7902839 31.3005159,19.7902839 C29.2088599,19.7902839 27.5140431,18.1682296 27.5140431,16.1669762 C27.5140431,14.165453 29.2088599,12.5431288 31.3005159,12.5431288 C33.3927361,12.5431288 35.0872709,14.165453 35.0872709,16.1669762" id="Fill-20" fill="#E6772F"></path>
            </g>
        </g>
    </g>
</svg>