<?xml version="1.0" encoding="utf-8"?>
<!-- Generator: Adobe Illustrator 23.1.1, SVG Export Plug-In . SVG Version: 6.00 Build 0)  -->
<svg version="1.1" id="Layer_1" xmlns="http://www.w3.org/2000/svg" xmlns:xlink="http://www.w3.org/1999/xlink" x="0px" y="0px"
	 viewBox="0 0 508 508" style="enable-background:new 0 0 508 508;" xml:space="preserve">
<style type="text/css">
	.st0{fill:#0475BC;}
	.st1{fill:#FFFFFF;}
	.st2{fill:#CE0E2D;}
</style>
<g>
	<circle class="st0" cx="253.5" cy="253.5" r="250"/>
	<g>
		<polygon class="st1" points="367.3,406 415.4,297.9 390.1,297.9 372.8,339.7 353.8,297.9 327.1,297.9 359.9,365.5 342.2,406 		"/>
		<path class="st1" d="M296.7,376.6h22.9c-0.2-1.3-0.8-6.9-0.8-14v-64.1h-23.9V343c0,7.9-5,13.4-13,13.4c-8.5,0-12.6-6-12.6-13.5
			v-44.3h-23.9v49.3c0,16.7,10.7,30.5,29.7,30.5c7.9,0,16.8-2.8,20.9-9.6C296,370.8,296.4,375.2,296.7,376.6"/>
		<path class="st1" d="M427.6,143h-21.4v10.1c0,7.2-3.9,12.7-12.1,12.7h-3.9v20.9h13.8v33.5c0,15.6,9.9,25.1,26.1,25.1
			c7.5,0,11.5-1.7,12.4-2.2v-19.8c-1.4,0.3-3.8,0.8-6.3,0.8c-5.2,0-8.6-1.7-8.6-8.2v-29.2h15.2v-20.9h-15.2V143z"/>
		<path class="st1" d="M380.2,231.8v-38.2c0-16-9.3-30.2-34.6-30.2c-22.9,0-33.3,14.8-34.3,25.9l20.7,4.2c0.5-5.8,5-11.5,13.4-11.5
			c7.5,0,11.5,3.9,11.5,8.5c0,2.7-1.4,4.7-5.7,5.3l-18.4,2.8c-12.9,1.9-23.1,9.7-23.1,23.6c0,12.4,9.9,23.7,27,23.7
			c10.4,0,17.9-4.4,22-11c0,5.3,0.6,8.2,0.8,8.8h21.5C381,243.1,380.2,237.9,380.2,231.8z M357,213.3c0,12.1-7.2,15.6-14.3,15.6
			c-6.6,0-9.3-3.9-9.3-8c0-5.5,3.8-7.9,8.8-8.6l14.8-2.4V213.3z"/>
		<path class="st1" d="M303,203.5c0-25.1-14.9-40.1-39.1-40.1c-20.3,0-39,16-39,41.2c0,26.2,19.2,41.6,40.7,41.6
			c19.8,0,32.2-11.3,36-24.8l-20-5.7c-2.2,6.1-7.1,10.2-15.7,10.2c-9.3,0-17.3-6.3-17.8-15.1h54.4C302.7,210.4,303,206.8,303,203.5z
			 M248.7,195.5c0.5-5.8,5.5-13.2,15.6-13.2c11.3,0,15.4,7.2,15.7,13.2H248.7z"/>
		<path class="st1" d="M219.6,165.8c-1.6-0.5-3.9-0.8-6.3-0.8c-6.3,0-16.2,2.5-20.3,11.3v-10.5h-23.1v78.1h23.9v-34.1
			c0-15.6,8.6-21.2,18.2-21.2c2.4,0,4.9,0.2,7.5,0.8V165.8z"/>
		<path class="st1" d="M200.9,294.3c-10.9,0-20,4.5-23.4,9.5v-40.3h-23.6V376h23.6v-9c3.7,6.1,11.9,10.7,22.4,10.7
			c22.3,0,38-17.5,38-41.9C238,312,224,294.3,200.9,294.3z M195.6,355.9c-9.5,0-18.1-6.7-18.1-19.9c0-13.5,8.7-19.7,18.1-19.7
			c9.5,0,18,6.3,18,19.7C213.6,349.4,205.1,355.9,195.6,355.9z"/>
		<path class="st1" d="M159,243.9v-59.6h-57.1v21.1h33.5c-1.4,6.3-9.1,18.2-27.5,18.2c-18.1,0-33.5-12.1-33.5-35.4
			c0-24.8,17.8-34.9,32.8-34.9c18.5,0,25.9,12.6,27.7,19.5l23.9-8.3c-4.9-15.6-19.6-34.4-51.5-34.4c-31.4,0-58,23.1-58,58.1
			c0,35.2,25.5,58,56.4,58c15.9,0,24.8-6.6,29.7-13.7v11.3H159z"/>
		<path class="st2" d="M417.2,366.4c0,7.4,6,13.5,13.5,13.5s13.7-6.1,13.7-13.5c0-7.5-6.1-13.7-13.7-13.7S417.2,358.9,417.2,366.4
			 M445.2,267h-28.6l5.5,76.5h17.6L445.2,267z"/>
	</g>
</g>
</svg>
