<svg id="Layer_1" data-name="Layer 1" xmlns="http://www.w3.org/2000/svg" viewBox="0 0 300 158"><defs><style>.cls-1{fill:#cf202f;}.cls-2{font-size:53px;fill:#454546;font-family:PMackinacProMedium, P22 Mackinac Pro;}.cls-3{letter-spacing:0em;}</style></defs><path class="cls-1" d="M276.1,46.07c.6,2,2.73,2.26,3.28-.41C280,42.49,277.33,40,274,39c-7.36-2.22-17.42,5.45-10.95,14.3,3,4.12,7.75,4.72,11.22,7.21,1.29.92,7.71,5.72.38,13.15-5.34,5.42-15.49,2.74-16.17-3.47-.11-1.56,1.64-1.37.84-5.14-.54-2.07-4.89-2-5.73,1.9-.56,2.62-.53,9,8.21,13.12,12.39,5.83,28.79-6.37,21.39-17.32-4.77-6.89-14.74-9.35-16.47-13.57-2.29-5.56,8-7.73,9.42-3.13"/><path class="cls-1" d="M81.21,73.41c-1.48-5.77-.56-17.65.34-24.59,1.64-12.53,5.24-19.47,5.25-27.08,0-3.54-1.1-10.9-8.85-11.19-19.15-.73-26.2,45.8-27.12,52.38-.4-3-.18-20.2-1.58-32.73-2.06-18.43-6.08-19.56-10-19.86C24.9,9.28,23.94,36.91,24.07,63.24c0-5.38.66-16.35-4.39-22-2.52-2.79-6.44-2.51-3.81,1.19.28.4.6,1.25,1,1.84,4.93,7.48,3.94,37.37,9,37.13,1.58-.07,4-.72,3.76-7.43-.6-20.25.94-56.49,7.84-56.52,7.31,0,5.7,36,7.83,50,1.19,7.1,8.6,7.69,10.89-2.4,3.06-13.5,3.21-22.22,9.89-36.26,8.87-18.66,16.21-12.56,13.06.46-1.62,6.67-7,22.78-4.33,41.28.78,5.38,4.27,12.2,6.87,10.73,1.48-.83.72-3.37-.44-7.91"/><path class="cls-1" d="M92.34,45c-1.85,1.52-7.93,14.25-5.3,27.19C89.6,83,97.11,85.71,105.47,75.8c4.63,10.13,21,5.5,29.56-6.94.55,5.93,1,6.9,1.14,7.4.79,3.62,4.75,5.06,5.78,1.94.86-2.64,4-16.17,11.74-24.15,2-2.07,8.85-4.89,7,2.53-.46,1.8-3.65,12.82-3.55,17.69.1,5,1.68,9.29,5.07,7.17,1.44-.9.81-5.1.62-7.62-.76-10.67,2.58-15.87,4.3-20.29s.48-9.7-6.94-8.62c-8,1.17-15.87,10.45-19.87,22.23.09-18.69,9.95-37.29,16.46-53.15,1-1.88-3.09-6.6-7.63-1.73C145,16.73,136.25,44.44,135.48,57.4c-.3,2.24-3.81,11.55-9.15,15.56s-14.34,6-14.5-3.86,5.3-18.56,9.37-20.24c2.23-.92,3.32,1.08,4.21,2.14,1.33,1.58,6.46,2.54,6.31-2.09-.16-4.82-5.44-8.69-12.82-5.08C108.12,49.11,105,61.68,104.1,67c-1.12,7-3.84,9.91-4.5,10.37S94.78,82,94.12,72.1a49.12,49.12,0,0,1,3.21-17.59c1.73-4.73,1.52-4.18,1.83-5.44A4.13,4.13,0,0,0,92.34,45"/><path class="cls-1" d="M100,30.89A5.58,5.58,0,0,0,95.93,39a3.71,3.71,0,0,0,4.58,1.5c1.62-.62,4.24-3.41,4.32-5.8s-1.4-4.09-4.81-3.81"/><path class="cls-1" d="M194.93,51.18c.49,1,2.47,1.31,3.1-1,.71-2.62-1.55-9.14-6.62-9.29-4.84-.16-8.73,2.6-12.43,6.67-3.43,3.78-13.38,17.73-12.78,27.92.46,5.41,5.38,7.39,11.11,4,6.94-4.07,11.86-11.59,12.89-12.84.27,8.88,7.81,14.67,16.82,6.1a18.67,18.67,0,0,0,5.47,6.49c6.54,4.49,18.25,3.57,26.87-10.08,1.8,6.41,2.86,8.92,3.47,10.11,1.76,3.39,5.32,4,5.61-.42.09-1.42-1.46-4.75-2.67-9.31-3.45-12.94-8.33-35.6,2.56-50.83,4.65-5.18,9.53-6.52,10.22-.53.37,3.28-.23,17.85-10.91,37-1.57,3.36,1.7,4.29,2.71,2,1.48-3.35,15.41-24.48,15-38.74-.23-8.5-12.72-13-21.62-1.57-8.54,11-9.19,32.49-6.18,44.69-5.8,10.6-12.21,19.14-20.4,14.87-8.66-5.41-5.92-23.9-.19-28,3.86-2.76,6.23.46,4.11,4.42-2.82,5.26-4.9,6.07-6.68,7.47-2.36,1.87-.84,4.24,1.38,3.43a18.94,18.94,0,0,0,11.6-12.46c3.77-12.13-11-16.5-18.5-2.64a30,30,0,0,0-3.17,18.77c-1.53,1.79-6.52,8.54-7.36,4-.81-4.42.5-11.39.8-13.35.76-5-4.23-7-7.17-2.63-3.07,4.54-8.93,16.67-16,20.14-6.82,3.7-.57-16.93,4.73-22.84,3.17-3.89,8.09-8.08,12.89-3.13.77.91.86.61,1.34,1.58"/><path class="cls-1" d="M282.69,37.34a2,2,0,1,1-2.11,2,2.07,2.07,0,0,1,2.1-2Zm0,.42a1.63,1.63,0,1,0,1.58,1.62,1.57,1.57,0,0,0-1.58-1.62Zm-.31,2.68h-.48v-2a3.88,3.88,0,0,1,.79-.07,1.15,1.15,0,0,1,.71.16.57.57,0,0,1,.2.44.54.54,0,0,1-.43.48v0c.21.06.32.22.38.5a1.29,1.29,0,0,0,.15.49h-.51A1.36,1.36,0,0,1,283,40c0-.22-.17-.32-.43-.32h-.22Zm0-1.14h.23c.25,0,.47-.09.47-.3s-.14-.31-.44-.31l-.26,0Z"/><text class="cls-2" transform="translate(14.7 145.42) scale(0.99 1)">H<tspan class="cls-3" x="41.07" y="0">a</tspan><tspan x="69.27" y="0">ndmade</tspan></text></svg>