<svg id="Layer_1" data-name="Layer 1" xmlns="http://www.w3.org/2000/svg" viewBox="0 0 300 158"><defs><style>.cls-1{fill:#cf202f;}.cls-2{fill:#454546;}</style></defs><path class="cls-1" d="M276,53.86c.6,2,2.73,2.26,3.28-.41.62-3.17-2-5.66-5.38-6.66-7.36-2.22-17.41,5.45-10.94,14.3,3,4.12,7.74,4.72,11.21,7.21,1.29.92,7.71,5.73.38,13.16-5.34,5.42-15.48,2.74-16.16-3.47-.11-1.56,1.64-1.37.84-5.14-.54-2.07-4.89-2-5.73,1.9-.56,2.62-.53,9,8.21,13.12,12.38,5.83,28.78-6.37,21.38-17.32-4.77-6.9-14.74-9.36-16.47-13.58-2.29-5.56,8-7.73,9.42-3.13"/><path class="cls-1" d="M81.14,81.21c-1.48-5.77-.56-17.66.34-24.6,1.64-12.53,5.24-19.47,5.25-27.08,0-3.54-1.1-10.9-8.85-11.19-19.14-.73-26.19,45.8-27.11,52.39-.4-3-.18-20.21-1.58-32.74-2.06-18.43-6.08-19.56-10-19.86C24.84,17.07,23.88,44.7,24,71c0-5.39.66-16.36-4.39-22-2.52-2.79-6.44-2.51-3.81,1.19.28.4.6,1.25,1,1.84,4.93,7.48,3.94,37.38,9,37.14,1.58-.07,4-.72,3.76-7.43-.6-20.26.94-56.5,7.84-56.53,7.31,0,5.7,36,7.83,50,1.19,7.1,8.6,7.69,10.89-2.4C59.19,59.34,59.34,50.62,66,36.58,74.88,17.92,82.22,24,79.07,37c-1.62,6.67-7,22.78-4.33,41.29.78,5.38,4.27,12.2,6.87,10.73,1.48-.83.72-3.37-.44-7.91"/><path class="cls-1" d="M92.27,52.79C90.42,54.31,84.34,67,87,80,89.53,90.8,97,93.51,105.4,83.6c4.63,10.13,21,5.5,29.55-6.94.55,5.93,1,6.9,1.14,7.4.79,3.62,4.75,5.06,5.78,1.94.86-2.64,4-16.17,11.74-24.16,2-2.07,8.85-4.89,7,2.53-.46,1.8-3.65,12.83-3.55,17.7s1.68,9.29,5.07,7.17c1.44-.9.81-5.1.62-7.62-.76-10.67,2.58-15.88,4.3-20.3s.48-9.7-6.94-8.62c-8,1.17-15.87,10.45-19.87,22.24.09-18.7,9.95-37.3,16.46-53.16,1-1.88-3.09-6.6-7.63-1.73-4.15,4.47-12.9,32.18-13.67,45.14-.3,2.24-3.81,11.56-9.14,15.57s-14.34,6-14.5-3.86,5.3-18.57,9.37-20.25c2.23-.92,3.32,1.08,4.21,2.14,1.33,1.58,6.45,2.54,6.3-2.09-.16-4.82-5.43-8.69-12.81-5.08C108.05,56.9,104.93,69.48,104,74.8c-1.12,7-3.84,9.91-4.5,10.37s-4.82,4.63-5.48-5.27a49,49,0,0,1,3.21-17.6c1.73-4.73,1.52-4.18,1.83-5.44a4.13,4.13,0,0,0-6.82-4.07"/><path class="cls-1" d="M99.93,38.68a5.58,5.58,0,0,0-4.64,6.38,5.26,5.26,0,0,0,.57,1.73,3.7,3.7,0,0,0,4.58,1.5c1.62-.62,4.24-3.41,4.32-5.8s-1.4-4.09-4.81-3.81"/><path class="cls-1" d="M194.85,59c.48,1,2.46,1.31,3.09-1,.71-2.62-1.55-9.14-6.61-9.29-4.84-.16-8.73,2.6-12.43,6.67-3.43,3.78-13.38,17.74-12.78,27.93.46,5.41,5.38,7.39,11.11,4,6.94-4.07,11.86-11.59,12.89-12.84.27,8.88,7.8,14.67,16.81,6.1A18.83,18.83,0,0,0,212.4,87c6.54,4.49,18.25,3.57,26.87-10.08,1.8,6.41,2.86,8.92,3.47,10.11,1.76,3.39,5.32,4,5.61-.42.09-1.42-1.46-4.75-2.67-9.31-3.45-13-8.33-35.61,2.56-50.84,4.65-5.18,9.53-6.52,10.22-.53.37,3.28-.23,17.85-10.91,37-1.57,3.36,1.7,4.29,2.71,2,1.48-3.35,15.4-24.48,15-38.74-.23-8.5-12.71-13-21.61-1.57-8.54,11-9.19,32.49-6.18,44.69-5.8,10.61-12.21,19.15-20.4,14.88-8.66-5.41-5.92-23.91-.19-28,3.86-2.76,6.23.46,4.11,4.42-2.82,5.26-4.9,6.07-6.68,7.47-2.36,1.88-.84,4.25,1.38,3.44a19,19,0,0,0,11.6-12.47c3.77-12.13-11-16.5-18.5-2.64a30.06,30.06,0,0,0-3.17,18.78c-1.53,1.79-6.52,8.54-7.36,4s.5-11.4.8-13.36c.76-5-4.22-7-7.16-2.63-3.07,4.54-8.93,16.68-16,20.15-6.82,3.7-.57-16.94,4.73-22.85,3.17-3.89,8.09-8.08,12.89-3.13.77.91.86.61,1.34,1.58"/><path class="cls-1" d="M282.59,45.13a2,2,0,1,1-2.11,2,2.07,2.07,0,0,1,2.1-2Zm0,.42a1.63,1.63,0,1,0,1.58,1.68v-.06a1.57,1.57,0,0,0-1.52-1.62Zm-.31,2.68h-.48v-2a4.22,4.22,0,0,1,.79-.07,1.17,1.17,0,0,1,.71.16.57.57,0,0,1,.2.44.52.52,0,0,1-.43.48h0c.21.06.32.22.38.5a1.4,1.4,0,0,0,.15.49h-.51a1.34,1.34,0,0,1-.19-.44c0-.22-.17-.32-.43-.32h-.22Zm0-1.14h.23c.25,0,.47-.09.47-.3s-.14-.31-.44-.31h-.26Z"/><path class="cls-2" d="M51.91,136.16c.81,1.93,2.75,1.66,2.75,2.69,0,.63-.66.86-1.58.86H44.72c-.92,0-1.58-.23-1.58-.86,0-1,1.73-.74,2.65-2.46a10.49,10.49,0,0,0,.56-4.4v-7.58c0-.24-.17-.46-.48-.49a.29.29,0,0,0-.13,0h-17c-.36,0-.46.09-.46.4V132c0,2.22.1,3.7.61,4.58.92,1.56,2.56,1.3,2.56,2.28,0,.63-.67.86-1.59.86H21.57c-1,0-1.63-.23-1.63-.86,0-1,1.84-.67,2.71-2.6a11,11,0,0,0,.51-4.26V114.55c0-3.27-.11-4.18-1.29-4.85-.86-.49-1.62-.53-1.62-1.25,0-.49.51-.74,1.37-.74h8.21c.87,0,1.38.27,1.38.74,0,.74-.82.74-1.63,1.25-1.13.67-1.28,1.58-1.28,4.85v6.54c-.05.24.17.46.48.5H45.94c.31,0,.46-.13.46-.41v-6.65c0-3.27-.1-4.17-1.33-4.84-.82-.45-1.58-.53-1.58-1.26,0-.49.46-.74,1.38-.74H53c.91,0,1.37.28,1.42.74,0,.74-.82.74-1.63,1.26-1.17.67-1.32,1.57-1.32,4.84V132A12,12,0,0,0,51.91,136.16Z"/><path class="cls-2" d="M81.67,137c.49,0,.88.31.88.68,0,0,0,0,0,.06a3.88,3.88,0,0,1-3.86,2.49,3.67,3.67,0,0,1-3.85-3.54c0-.08,0-.22-.11-.22s-.09,0-.2.18a10.08,10.08,0,0,1-8.14,3.58c-4.95,0-7.95-2.69-7.95-5.78a5.74,5.74,0,0,1,3.16-4.89c2.66-1.56,5.78-2.06,8.66-3.22,2-.81,4.29-2.11,4.29-4.53,0-2.15-1.69-3.7-4.44-3.7-3,0-4.64,1.75-5.91,3.32-1,1.26-1.18,2.07-2.29,2.07s-1.52-1-1.52-2.19a5.41,5.41,0,0,1,.87-3.27c1.38-1.57,5.5-2.22,8.41-2.22,6.53,0,9.89,3.23,9.89,7.67,0,3.5-.15,7.62-.15,11.21,0,1.57.61,2.28,1.63,2.28Zm-7.18-9.9a.16.16,0,0,0-.15-.18c-.11,0-.16,0-.36.18-1.78,1.21-5.15,2-7.6,3.4a4.47,4.47,0,0,0-2.55,3.7c0,1.79,1.38,3.4,4.08,3.4a6.31,6.31,0,0,0,5.51-3.18c1-1.88,1.07-3.85,1.07-6.59Z"/><path class="cls-2" d="M111.71,131.81c0,2.33.15,4,.76,4.89.87,1.17,2.49,1.34,2.49,2.15,0,.63-.65.86-1.42.86H105c-.77,0-1.44-.23-1.44-.86,0-.9,1.74-.94,2.56-2.33.51-.86.66-2.47.66-4.71v-7c0-3.9-2.35-5.61-5.35-5.61A6.66,6.66,0,0,0,97,120.78c-1.92,1.7-2.39,4.13-2.39,11,0,2.29.15,3.95.71,4.8.87,1.3,2.49,1.43,2.49,2.22,0,.62-.6.85-1.37.85H88c-.77,0-1.38-.23-1.38-.85,0-.94,1.83-1,2.6-2.42a11.26,11.26,0,0,0,.61-4.62v-8.72c0-1.44,0-2.22-.51-2.82-.81-1.08-3-.86-3-1.84,0-.5.26-.81,1.43-1A24.91,24.91,0,0,0,92.54,116a2.76,2.76,0,0,1,1-.23c.66,0,1.13.4,1.13,1.26v2.65c0,.13,0,.22.15.22s.16-.09.25-.22a10.38,10.38,0,0,1,8.26-3.91,8.65,8.65,0,0,1,6.69,2.78c1.11,1.35,1.73,3,1.73,6.1Z"/><path class="cls-2" d="M142.91,133.06a5.79,5.79,0,0,0,.36,2.6c.76,1.22,3,1,3,2,0,.45-.25.81-1.43,1a31.56,31.56,0,0,0-4.58,1.26,3.08,3.08,0,0,1-1.18.26c-.66,0-1.06-.31-1.06-1.16v-2.42a.34.34,0,0,0-.31-.36c-.16,0-.2,0-.36.18a11.46,11.46,0,0,1-8.37,3.76c-4.89,0-10.44-3.27-10.44-11,0-6.65,4.58-13.36,12.18-13.36a13.72,13.72,0,0,1,6.74,1.8.71.71,0,0,0,.35.13c.16,0,.22-.09.22-.23v-4.25a4.16,4.16,0,0,0-.57-2.69c-1-1.08-2.89-.86-2.89-1.84,0-.45.2-.74,1.42-1a27.71,27.71,0,0,0,4.65-1.26,3.4,3.4,0,0,1,1.11-.26,1,1,0,0,1,1.08,1.17Zm-4.82-5.29c0-6.18-3-9.68-7.29-9.68-5.36,0-7.19,5-7.19,9.46,0,5.29,3,9.46,7.4,9.46s7.06-3.67,7.06-9.24Z"/><path class="cls-2" d="M192.11,136.74c1,1.35,2.39,1.21,2.39,2.11,0,.63-.66.86-1.43.86h-8.41c-.81,0-1.43-.23-1.43-.86,0-.94,1.58-.81,2.55-2.33.56-.9.67-2.42.67-4.66v-7c0-3-1.43-5.6-5.36-5.6a6.23,6.23,0,0,0-4.24,1.52c-1.83,1.75-2,4.22-2,11.08,0,2.5.16,4.17.76,5,1,1.26,2.2,1.21,2.2,2,0,.63-.62.86-1.43.86H168.4c-.77,0-1.38-.23-1.38-.86,0-.9,1.27-.74,2.19-2,.61-.85.77-2.42.77-5V125c0-4-1.84-5.74-5-5.74a6.39,6.39,0,0,0-4.19,1.47c-2,1.75-2.44,4.22-2.44,11.13,0,2.33.15,3.9.71,4.75.87,1.3,2.5,1.39,2.5,2.22,0,.62-.66.85-1.43.85h-8.41c-.77,0-1.42-.23-1.42-.81,0-.94,1.67-.94,2.54-2.37.51-.86.66-2.42.66-4.66v-8c0-1.93,0-3-.51-3.63-.86-1.17-2.88-.74-2.88-1.84,0-.49.26-.8,1.37-1a29.48,29.48,0,0,0,4.82-1.3,3.38,3.38,0,0,1,1-.23c.66,0,1.07.36,1.07,1.17v2.78c0,.13,0,.18.15.18s.15-.09.26-.22A10.27,10.27,0,0,1,167,115.8c3.32,0,6.29,1.59,7.39,4,.05.09.1.18.2.18s.16-.09.25-.22a10.19,10.19,0,0,1,8.22-4,8.32,8.32,0,0,1,6.67,2.83c1.08,1.3,1.64,3,1.64,6.1v7.13C191.29,134.36,191.44,135.89,192.11,136.74Z"/><path class="cls-2" d="M220.65,137a.8.8,0,0,1,.87.68v.06a3.89,3.89,0,0,1-3.86,2.51,3.67,3.67,0,0,1-3.85-3.54c0-.09,0-.22-.1-.22s-.11,0-.21.17a10.11,10.11,0,0,1-8.15,3.59c-4.95,0-8-2.69-8-5.79a5.73,5.73,0,0,1,3.16-4.88c2.65-1.57,5.78-2.06,8.67-3.23,2-.8,4.27-2.1,4.27-4.53,0-2.15-1.67-3.69-4.42-3.69-3.07,0-4.65,1.75-5.92,3.31-1,1.26-1.17,2.07-2.3,2.07s-1.42-1-1.42-2.21a5.43,5.43,0,0,1,.86-3.28c1.38-1.56,5.51-2.21,8.42-2.21,6.52,0,9.89,3.23,9.89,7.67,0,3.49-.16,7.61-.16,11.2,0,1.57.62,2.29,1.64,2.29Zm-7.16-9.9c0-.09,0-.18-.14-.18s-.15,0-.36.18c-1.79,1.21-5.15,2-7.59,3.4a4.46,4.46,0,0,0-2.56,3.7c0,1.79,1.38,3.4,4.08,3.4a6.32,6.32,0,0,0,5.51-3.18c1-1.88,1.07-3.85,1.07-6.59Z"/><path class="cls-2" d="M249.3,133.06a5.93,5.93,0,0,0,.35,2.6c.77,1.22,3.07,1,3.07,2,0,.45-.25.81-1.43,1a31.69,31.69,0,0,0-4.59,1.26,3,3,0,0,1-1.17.26c-.66,0-1.08-.31-1.08-1.16v-2.42a.33.33,0,0,0-.29-.36.47.47,0,0,0-.37.18,11.46,11.46,0,0,1-8.36,3.76c-4.89,0-10.45-3.27-10.45-11,0-6.65,4.59-13.36,12.18-13.36a13.76,13.76,0,0,1,6.75,1.8.67.67,0,0,0,.35.13c.16,0,.2-.09.2-.23v-4.25a4.15,4.15,0,0,0-.55-2.69c-1-1.08-2.89-.86-2.89-1.84,0-.45.2-.74,1.42-1a27.34,27.34,0,0,0,4.64-1.26,3.52,3.52,0,0,1,1.12-.26,1,1,0,0,1,1.07,1.17Zm-4.82-5.29c0-6.18-3-9.68-7.29-9.68-5.35,0-7.18,5-7.18,9.46,0,5.29,3,9.46,7.39,9.46s7-3.67,7-9.24Z"/><path class="cls-2" d="M279.38,134.86c0,1.25-3.85,5.33-10.66,5.33-7.8,0-12.38-5.38-12.38-11.52a13,13,0,0,1,13.2-12.87c7.34,0,10.4,5.25,10.4,8.39,0,2.73-1.53,3.14-4,3.18H262.1c-.36,0-.56.14-.56.45v.23c0,4.7,3,8.91,8.46,8.91,5,0,7-3,8.25-3a1,1,0,0,1,1.14.81A.53.53,0,0,1,279.38,134.86Zm-17.64-10c0,.22.1.27.4.27h8.31c3,0,4.29-.54,4.29-2.6.07-2.45-2.46-4.48-5.65-4.53h0a7.42,7.42,0,0,0-7.29,6.37A2.72,2.72,0,0,0,261.74,124.86Z"/></svg>