<svg id="Layer_1" data-name="Layer 1" xmlns="http://www.w3.org/2000/svg" viewBox="0 0 300 158"><defs><style>.cls-1{fill:#cf202f;}.cls-2{fill:#454546;}</style></defs><path class="cls-1" d="M276.1,45.07c.6,2,2.73,2.26,3.28-.41C280,41.49,277.33,39,274,38c-7.36-2.22-17.42,5.45-10.95,14.3,3,4.12,7.75,4.72,11.22,7.21,1.29.92,7.71,5.72.38,13.15-5.34,5.42-15.49,2.74-16.17-3.47-.11-1.56,1.64-1.37.84-5.14-.54-2.07-4.89-2-5.73,1.9-.56,2.62-.53,9,8.21,13.12,12.39,5.83,28.79-6.37,21.39-17.32-4.77-6.89-14.74-9.35-16.47-13.57-2.29-5.56,8-7.73,9.42-3.13"/><path class="cls-1" d="M81.21,72.41c-1.48-5.77-.56-17.65.34-24.59,1.64-12.53,5.24-19.47,5.25-27.08,0-3.54-1.1-10.9-8.85-11.19-19.15-.73-26.2,45.8-27.12,52.38-.4-3-.18-20.2-1.58-32.73-2.06-18.43-6.08-19.56-10-19.86C24.9,8.28,23.94,35.91,24.07,62.24c0-5.38.66-16.35-4.39-22-2.52-2.79-6.44-2.51-3.81,1.19.28.4.6,1.25,1,1.84,4.93,7.48,3.94,37.37,9,37.13,1.58-.07,4-.72,3.76-7.43-.6-20.25.94-56.49,7.84-56.52,7.31,0,5.7,36,7.83,50,1.19,7.1,8.6,7.69,10.89-2.4,3.06-13.5,3.21-22.22,9.89-36.26,8.87-18.66,16.21-12.56,13.06.46-1.62,6.67-7,22.78-4.33,41.28.78,5.38,4.27,12.2,6.87,10.73,1.48-.83.72-3.37-.44-7.91"/><path class="cls-1" d="M92.34,44c-1.85,1.52-7.93,14.25-5.3,27.19C89.6,82,97.11,84.71,105.47,74.8c4.63,10.13,21,5.5,29.56-6.94.55,5.93,1,6.9,1.14,7.4.79,3.62,4.75,5.06,5.78,1.94.86-2.64,4-16.17,11.74-24.15,2-2.07,8.85-4.89,7,2.53-.46,1.8-3.65,12.82-3.55,17.69.1,5,1.68,9.29,5.07,7.17,1.44-.9.81-5.1.62-7.62-.76-10.67,2.58-15.87,4.3-20.29s.48-9.7-6.94-8.62c-8,1.17-15.87,10.45-19.87,22.23.09-18.69,9.95-37.29,16.46-53.15,1-1.88-3.09-6.6-7.63-1.73C145,15.73,136.25,43.44,135.48,56.4c-.3,2.24-3.81,11.55-9.15,15.56s-14.34,6-14.5-3.86,5.3-18.56,9.37-20.24c2.23-.92,3.32,1.08,4.21,2.14,1.33,1.58,6.46,2.54,6.31-2.09-.16-4.82-5.44-8.69-12.82-5.08C108.12,48.11,105,60.68,104.1,66c-1.12,7-3.84,9.91-4.5,10.37S94.78,81,94.12,71.1a49.12,49.12,0,0,1,3.21-17.59c1.73-4.73,1.52-4.18,1.83-5.44A4.13,4.13,0,0,0,92.34,44"/><path class="cls-1" d="M100,29.89A5.58,5.58,0,0,0,95.93,38a3.71,3.71,0,0,0,4.58,1.5c1.62-.62,4.24-3.41,4.32-5.8s-1.4-4.09-4.81-3.81"/><path class="cls-1" d="M194.93,50.18c.49,1,2.47,1.31,3.1-1,.71-2.62-1.55-9.14-6.62-9.29-4.84-.16-8.73,2.6-12.43,6.67-3.43,3.78-13.38,17.73-12.78,27.92.46,5.41,5.38,7.39,11.11,4,6.94-4.07,11.86-11.59,12.89-12.84.27,8.88,7.81,14.67,16.82,6.1a18.67,18.67,0,0,0,5.47,6.49c6.54,4.49,18.25,3.57,26.87-10.08,1.8,6.41,2.86,8.92,3.47,10.11,1.76,3.39,5.32,4,5.61-.42.09-1.42-1.46-4.75-2.67-9.31-3.45-12.94-8.33-35.6,2.56-50.83,4.65-5.18,9.53-6.52,10.22-.53.37,3.28-.23,17.85-10.91,37-1.57,3.36,1.7,4.29,2.71,2,1.48-3.35,15.41-24.48,15-38.74-.23-8.5-12.72-13-21.62-1.57-8.54,11-9.19,32.49-6.18,44.69-5.8,10.6-12.21,19.14-20.4,14.87-8.66-5.41-5.92-23.9-.19-28,3.86-2.76,6.23.46,4.11,4.42-2.82,5.26-4.9,6.07-6.68,7.47-2.36,1.87-.84,4.24,1.38,3.43a18.94,18.94,0,0,0,11.6-12.46c3.77-12.13-11-16.5-18.5-2.64a30,30,0,0,0-3.17,18.77c-1.53,1.79-6.52,8.54-7.36,4-.81-4.42.5-11.39.8-13.35.76-5-4.23-7-7.17-2.63-3.07,4.54-8.93,16.67-16,20.14-6.82,3.7-.57-16.93,4.73-22.84,3.17-3.89,8.09-8.08,12.89-3.13.77.91.86.61,1.34,1.58"/><path class="cls-1" d="M282.69,36.34a2,2,0,1,1-2.11,2,2.07,2.07,0,0,1,2.1-2Zm0,.42a1.63,1.63,0,1,0,1.58,1.62,1.57,1.57,0,0,0-1.58-1.62Zm-.31,2.68h-.48v-2a3.88,3.88,0,0,1,.79-.07,1.15,1.15,0,0,1,.71.16.57.57,0,0,1,.2.44.54.54,0,0,1-.43.48v0c.21.06.32.22.38.5a1.29,1.29,0,0,0,.15.49h-.51A1.36,1.36,0,0,1,283,39c0-.22-.17-.32-.43-.32h-.22Zm0-1.14h.23c.25,0,.47-.09.47-.3s-.14-.31-.44-.31l-.26,0Z"/><path class="cls-2" d="M48.2,139.54c.84,2.61,2.86,2.25,2.86,3.64,0,.85-.69,1.16-1.64,1.16H40.73c-.95,0-1.64-.31-1.64-1.16,0-1.33,1.8-1,2.75-3.33.48-1.22.59-3.1.59-5.95V123.64a.59.59,0,0,0-.64-.67H24.16c-.37,0-.48.12-.48.55V133.9c0,3,.11,5,.64,6.19.95,2.12,2.65,1.76,2.65,3.09,0,.85-.69,1.16-1.65,1.16H16.69c-1,0-1.69-.31-1.69-1.16,0-1.33,1.91-.91,2.81-3.52a18.9,18.9,0,0,0,.53-5.76V110.29c0-4.43-.11-5.65-1.33-6.56-.9-.66-1.69-.72-1.69-1.7,0-.66.53-1,1.43-1h8.52c.9,0,1.43.37,1.43,1,0,1-.85,1-1.69,1.7-1.17.91-1.33,2.13-1.33,6.56v8.86a.59.59,0,0,0,.64.67H42c.32,0,.48-.18.48-.55v-9c0-4.43-.11-5.65-1.38-6.56-.85-.6-1.64-.72-1.64-1.7,0-.66.47-1,1.43-1h8.47c.95,0,1.43.37,1.48,1,0,1-.85,1-1.69,1.7-1.22.91-1.38,2.13-1.38,6.56V133.9A21,21,0,0,0,48.2,139.54Z"/><path class="cls-2" d="M79.11,140.63a.91.91,0,0,1,.9,1A4.19,4.19,0,0,1,76,145c-1.74,0-3.7-1.21-4-4.79,0-.12,0-.3-.11-.3s-.1.06-.21.24A9.64,9.64,0,0,1,63.23,145c-5.14,0-8.26-3.64-8.26-7.83a8.2,8.2,0,0,1,3.28-6.61c2.76-2.12,6-2.79,9-4.37,2.12-1.09,4.45-2.85,4.45-6.13,0-2.91-1.75-5-4.61-5-3.17,0-4.82,2.37-6.14,4.49-1.06,1.7-1.22,2.8-2.38,2.8S57,121,57,119.39a9,9,0,0,1,.9-4.43c1.43-2.12,5.71-3,8.73-3,6.78,0,10.27,4.37,10.27,10.38,0,4.73-.15,10.31-.15,15.17,0,2.12.63,3.09,1.69,3.09Zm-7.46-13.41c0-.12-.05-.24-.16-.24s-.16.06-.37.24c-1.85,1.64-5.35,2.67-7.89,4.61a6.29,6.29,0,0,0-2.65,5c0,2.43,1.43,4.61,4.24,4.61,2.06,0,4.45-1.33,5.72-4.31,1.06-2.54,1.11-5.21,1.11-8.92Z"/><path class="cls-2" d="M110.3,133.65c0,3.16.16,5.47.79,6.62.9,1.58,2.59,1.82,2.59,2.91,0,.85-.68,1.16-1.48,1.16h-8.89c-.8,0-1.49-.31-1.49-1.16,0-1.21,1.8-1.27,2.65-3.15.53-1.16.69-3.34.69-6.38v-9.46c0-5.28-2.44-7.59-5.56-7.59a6.05,6.05,0,0,0-4.55,2.12c-2,2.31-2.49,5.59-2.49,14.93,0,3.1.16,5.35.74,6.5.9,1.76,2.59,1.94,2.59,3,0,.85-.63,1.16-1.43,1.16H85.68c-.8,0-1.43-.31-1.43-1.16,0-1.27,1.9-1.33,2.7-3.27a19.78,19.78,0,0,0,.63-6.26V121.82c0-1.94,0-3-.53-3.82-.84-1.46-3.07-1.16-3.07-2.49,0-.67.27-1.09,1.48-1.4a21.14,21.14,0,0,0,4.93-1.82,2.36,2.36,0,0,1,1-.3c.69,0,1.17.54,1.17,1.7v3.58c0,.18,0,.3.16.3s.16-.12.26-.3a10.07,10.07,0,0,1,8.58-5.28,8.12,8.12,0,0,1,6.94,3.76c1.16,1.82,1.8,4,1.8,8.25Z"/><path class="cls-2" d="M142.7,135.35a10,10,0,0,0,.37,3.52c.79,1.64,3.17,1.34,3.17,2.67,0,.61-.26,1.1-1.48,1.4a27.66,27.66,0,0,0-4.76,1.7,2.52,2.52,0,0,1-1.22.36c-.69,0-1.11-.42-1.11-1.57v-3.28c0-.3-.16-.49-.32-.49s-.21.06-.37.25c-2.12,3-5.24,5.09-8.69,5.09-5.08,0-10.85-4.43-10.85-14.93,0-9,4.76-18.08,12.65-18.08a11.73,11.73,0,0,1,7,2.43.68.68,0,0,0,.37.18c.16,0,.22-.12.22-.31v-5.76a7,7,0,0,0-.59-3.64c-1-1.46-3-1.16-3-2.49,0-.61.21-1,1.48-1.34a24.3,24.3,0,0,0,4.82-1.7,2.89,2.89,0,0,1,1.16-.36c.64,0,1.12.49,1.12,1.58Zm-5-7.16c0-8.37-3.13-13.11-7.58-13.11-5.56,0-7.46,6.8-7.46,12.81,0,7.16,3.07,12.8,7.68,12.8S137.67,135.72,137.67,128.19Z"/><path class="cls-2" d="M193.79,140.33c1.05,1.82,2.48,1.64,2.48,2.85,0,.85-.68,1.16-1.48,1.16h-8.73c-.85,0-1.49-.31-1.49-1.16,0-1.27,1.64-1.09,2.65-3.15.58-1.22.69-3.28.69-6.31v-9.47c0-4.07-1.48-7.59-5.56-7.59a5.69,5.69,0,0,0-4.4,2.06c-1.9,2.37-2.11,5.71-2.11,15,0,3.39.16,5.64.79,6.73,1,1.7,2.28,1.64,2.28,2.73,0,.85-.64,1.16-1.48,1.16h-8.26c-.8,0-1.43-.31-1.43-1.16,0-1.21,1.32-1,2.27-2.73.64-1.15.8-3.28.8-6.73v-9.29c0-5.4-1.91-7.77-5.24-7.77a5.8,5.8,0,0,0-4.35,2c-2.06,2.37-2.54,5.71-2.54,15.06,0,3.15.16,5.28.74,6.43.9,1.76,2.6,1.88,2.6,3,0,.85-.69,1.16-1.49,1.16H151.8c-.8,0-1.48-.31-1.48-1.1,0-1.27,1.74-1.27,2.64-3.21.53-1.16.69-3.28.69-6.31V122.85c0-2.61,0-4-.53-4.91-.9-1.58-3-1-3-2.49,0-.67.27-1.09,1.43-1.4a24.92,24.92,0,0,0,5-1.76,2.82,2.82,0,0,1,1.06-.3c.69,0,1.11.48,1.11,1.58v3.76c0,.18.06.24.16.24s.16-.12.27-.3a10,10,0,0,1,8.52-5.28,8.09,8.09,0,0,1,7.68,5.4c.05.12.1.24.21.24s.16-.12.26-.3c1.7-2.85,4.56-5.34,8.53-5.34a7.86,7.86,0,0,1,6.93,3.82c1.12,1.76,1.7,4.07,1.7,8.26v9.65C192.94,137.11,193.1,139.18,193.79,140.33Z"/><path class="cls-2" d="M223.43,140.63a.91.91,0,0,1,.9,1,4.19,4.19,0,0,1-4,3.39c-1.75,0-3.71-1.21-4-4.79,0-.12,0-.3-.11-.3s-.11.06-.21.24a9.66,9.66,0,0,1-8.47,4.85c-5.14,0-8.26-3.64-8.26-7.83a8.2,8.2,0,0,1,3.28-6.61c2.75-2.12,6-2.79,9-4.37,2.12-1.09,4.44-2.85,4.44-6.13,0-2.91-1.74-5-4.6-5-3.18,0-4.82,2.37-6.14,4.49-1.06,1.7-1.22,2.8-2.39,2.8s-1.48-1.4-1.48-3a9.15,9.15,0,0,1,.9-4.43c1.43-2.12,5.72-3,8.74-3,6.77,0,10.27,4.37,10.27,10.38,0,4.73-.16,10.31-.16,15.17,0,2.12.64,3.09,1.7,3.09ZM216,127.22c0-.12-.05-.24-.15-.24s-.16.06-.37.24c-1.86,1.64-5.35,2.67-7.89,4.61a6.29,6.29,0,0,0-2.65,5c0,2.43,1.43,4.61,4.23,4.61,2.07,0,4.45-1.33,5.72-4.31,1.06-2.54,1.11-5.21,1.11-8.92Z"/><path class="cls-2" d="M253.18,135.35a10.25,10.25,0,0,0,.37,3.52c.8,1.64,3.18,1.34,3.18,2.67,0,.61-.26,1.1-1.48,1.4a27.81,27.81,0,0,0-4.77,1.7,2.46,2.46,0,0,1-1.21.36c-.69,0-1.12-.42-1.12-1.57v-3.28c0-.3-.16-.49-.31-.49s-.22.06-.38.25c-2.11,3-5.24,5.09-8.68,5.09-5.08,0-10.85-4.43-10.85-14.93,0-9,4.76-18.08,12.65-18.08a11.76,11.76,0,0,1,7,2.43.68.68,0,0,0,.37.18c.16,0,.21-.12.21-.31v-5.76a7,7,0,0,0-.58-3.64c-1-1.46-3-1.16-3-2.49,0-.61.21-1,1.48-1.34a24.3,24.3,0,0,0,4.82-1.7,2.89,2.89,0,0,1,1.16-.36c.64,0,1.11.49,1.11,1.58Zm-5-7.16c0-8.37-3.12-13.11-7.57-13.11-5.56,0-7.46,6.8-7.46,12.81,0,7.16,3.07,12.8,7.67,12.8S248.15,135.72,248.15,128.19Z"/><path class="cls-2" d="M284.42,137.78c0,1.7-4,7.22-11.07,7.22-8.1,0-12.86-7.28-12.86-15.59,0-8.86,5.5-17.42,13.71-17.42,7.62,0,10.8,7.1,10.8,11.35,0,3.7-1.59,4.25-4.18,4.31H266.47c-.37,0-.58.18-.58.6v.31c0,6.37,3.17,12.07,8.79,12.07,5.18,0,7.3-4.12,8.57-4.12A1.14,1.14,0,0,1,284.42,137.78ZM266.1,124.25c0,.3.1.36.42.36h8.63c3.07,0,4.45-.73,4.45-3.52a6,6,0,0,0-5.88-6.13c-4.23,0-6.93,4.13-7.57,8.62A6.47,6.47,0,0,0,266.1,124.25Z"/></svg>