<svg width="20" height="20" viewBox="0 0 20 20" fill="none" xmlns="http://www.w3.org/2000/svg">
<path d="M4.16667 10H2.5L10 2.5L17.5 10H15.8333" stroke="white" stroke-width="2" stroke-linecap="round" stroke-linejoin="round"/>
<path d="M4.1665 10V15.8333C4.1665 16.2754 4.3421 16.6993 4.65466 17.0118C4.96722 17.3244 5.39114 17.5 5.83317 17.5H14.1665C14.6085 17.5 15.0325 17.3244 15.345 17.0118C15.6576 16.6993 15.8332 16.2754 15.8332 15.8333V10" stroke="white" stroke-width="2" stroke-linecap="round" stroke-linejoin="round"/>
<path d="M7.5 17.5V12.5C7.5 12.058 7.6756 11.6341 7.98816 11.3215C8.30072 11.009 8.72464 10.8334 9.16667 10.8334H10.8333C11.2754 10.8334 11.6993 11.009 12.0118 11.3215C12.3244 11.6341 12.5 12.058 12.5 12.5V17.5" stroke="white" stroke-width="2" stroke-linecap="round" stroke-linejoin="round"/>
</svg>
