<svg id="OUTLINED" xmlns="http://www.w3.org/2000/svg" viewBox="0 0 695 100"><defs><style>.cls-1{fill:#cf1f2e;}</style></defs><path d="M343.28,75.37c0,1-1,1.51-2.35,1.51H327.22c-1.38,0-2.35-.48-2.35-1.51s.69-1.31,1.52-1.79a4.6,4.6,0,0,0,2.27-2.49c.42-1,.83-2.34.83-9.16V36.28a.32.32,0,0,0-.28-.34.36.36,0,0,0-.34.27L315.29,67.65c-.48,1.1-.76,1.24-1.59,1.24h-2.41c-1,0-1.24-.21-1.65-1.24L296.12,36.14c-.07-.13-.13-.2-.27-.2a.33.33,0,0,0-.35.34c0,2.48,0,21.37.21,28.2.21,6.34,2.07,7.58,4.34,8.68,1.18.55,2.48,1,2.48,2.14s-1,1.58-2.48,1.58H288.27c-1.8,0-2.62-.55-2.62-1.51,0-1.38,1.58-1.59,2.68-3,1.45-1.79,2.21-4.68,2.28-12.13.07-5.93.07-24.33.07-25.85a4,4,0,0,0-.28-1.86,3,3,0,0,0-1.58-1.17c-1.17-.48-2.62-.9-2.62-2.21,0-1,.89-1.51,2.41-1.51h11.44c1.66,0,2.21.34,2.62,1.37l11.72,26.68c.07.14.14.28.35.28a.37.37,0,0,0,.34-.21l11.58-26.68a2.19,2.19,0,0,1,2.14-1.44h12c1.37,0,2.06.62,2.06,1.37,0,1.25-1.1,1.38-2.34,2.14-1.86,1.24-1.86,3-1.86,7.24V64c0,4.76.41,6.14.82,7.1a5,5,0,0,0,2.28,2.49C342.59,74.06,343.28,74.47,343.28,75.37Z"/><path d="M383.87,73.37a2.49,2.49,0,0,1-.48,1.45,7.28,7.28,0,0,1-5.93,2.82c-2.62,0-5.38-1.51-6.07-5.58,0-.07-.27-.07-.27-.07a13.57,13.57,0,0,1-11.31,5.65c-5.58,0-10.82-3.24-10.82-9a9.43,9.43,0,0,1,4.62-8c3.51-2.21,8.06-3.17,11.51-4.76,3.79-1.79,5.51-3.79,5.51-6.41a4.63,4.63,0,0,0-3.58-4.62,6.81,6.81,0,0,0-1.72-.21,7.89,7.89,0,0,0-5,1.86c-2.2,1.87-3.17,4.07-4.13,5.17a2.37,2.37,0,0,1-2.14,1c-1.79,0-2.27-1.59-2.27-3.86,0-1.79.34-4.07,1.24-5.17s3-2.14,5.44-2.69a31.71,31.71,0,0,1,6.9-.76c8.41,0,14.33,4.69,14.33,11.79,0,5-.27,10.34-.27,14.61,0,3.59.41,5.52,1.93,5.52.34,0,.76-.07,1.17-.07A1.3,1.3,0,0,1,383.87,73.37ZM370.63,58.14a.18.18,0,0,0-.2-.21.31.31,0,0,0-.21.07c-2.27,1.65-6.07,2.62-9,4.62a6.24,6.24,0,0,0-3,5.17,4.5,4.5,0,0,0,4.82,4.61,7.25,7.25,0,0,0,6.41-4.13c1.1-2.35,1.17-4.83,1.17-8.76Z"/><path d="M431,75.37c0,.83-.69,1.51-2,1.51h-5.1c-2.28,0-3.59-.06-5-1-1.65-1-3.17-3.31-6.06-8.07-3.31-5.51-4.35-6.82-5.52-6.82a2.57,2.57,0,0,0-1.79,1l-2.14,2a1.15,1.15,0,0,0-.34,1c0,4,.41,5.24.76,6a5.36,5.36,0,0,0,2.41,2.55c1,.55,1.51.89,1.51,1.72,0,1.1-1,1.58-2.34,1.58H391.93c-1.31,0-2.34-.48-2.34-1.58,0-.83.68-1.24,1.51-1.72A5.94,5.94,0,0,0,393.44,71c.49-1,.83-2.55.83-7.45V38.69c0-2.48,0-4-.55-5.1a3.88,3.88,0,0,0-2.41-1.93c-.9-.34-2-.75-2-1.72s.55-1.38,2.14-1.72A64.39,64.39,0,0,0,399,26a6.8,6.8,0,0,1,2.41-.62c1,0,1.59.41,1.59,2.07V57.51c0,.14.07.28.21.28a.36.36,0,0,0,.27-.14c2-1.86,4.76-4.48,6.21-5.93,2.34-2.34,4.54-4.68,4.54-6.2s-2.06-1.52-2.06-3.1c0-1,.89-1.52,2.27-1.52h13.3c1.38,0,2.07.48,2.07,1.52-.07,1.45-1.79,1.65-3.24,2.2-4.13,1.59-7.72,4.83-14,10.76a.69.69,0,0,0-.28.48.32.32,0,0,0,.35.28c.34,0,.69-.35,1.38-.35,2.34,0,3.79,3,7.17,8,4.27,6.41,5.72,8.41,7.65,9.51C430,74,431,74.4,431,75.37Z"/><path d="M466.24,69.3c0,1.45-2.07,3.72-4.42,5.24a19.92,19.92,0,0,1-10.68,3c-6.48,0-13-3-15.79-10.41A21.47,21.47,0,0,1,434,59.93a20.06,20.06,0,0,1,10-17.72,16.77,16.77,0,0,1,8.13-2.07,15.24,15.24,0,0,1,9.72,3.31,13.61,13.61,0,0,1,5,10.13c0,3.11-.9,4.76-5.66,4.76H443.69c-.55,0-.82.28-.82.76A13.82,13.82,0,0,0,445.28,67a10.58,10.58,0,0,0,9,4.41c6.41,0,8.69-3.52,10.55-3.52A1.42,1.42,0,0,1,466.24,69.3ZM443.62,54.07h9.59c3.44,0,5.1-.83,5.1-3.38a6.53,6.53,0,0,0-6.89-6.27c-6.42,0-8.48,7.37-8.48,9C442.94,53.93,443.07,54.07,443.62,54.07Z"/><path d="M500.83,45.79c0,2.14-1,3.66-2.75,3.66a5.18,5.18,0,0,1-2.62-.9,4.86,4.86,0,0,0-2.55-.82,4.35,4.35,0,0,0-3,1.44c-1.51,1.52-3.51,4.21-3.51,14.69,0,4.82.34,6.27.82,7.3a5.7,5.7,0,0,0,2.35,2.42c.9.55,1.45,1,1.45,1.79,0,1-1,1.51-2.28,1.51H475.54c-1.31,0-2.28-.48-2.28-1.51,0-.83.62-1.31,1.45-1.79a5.62,5.62,0,0,0,2.34-2.42c.48-1,.83-2.55.83-7.3V53.17c0-2.48-.14-4-.69-5a3.84,3.84,0,0,0-2.34-1.86c-.76-.28-1.94-.69-1.94-1.66s.63-1.44,2.07-1.79a37.6,37.6,0,0,0,7.31-2.27,3.55,3.55,0,0,1,1.66-.42c1,0,1.79.62,1.79,2.07v5.38c0,.14,0,.27.13.27s.07-.07.14-.2c1.52-3.31,5.45-7.52,9.72-7.52a4.87,4.87,0,0,1,3.73,1.45A6.32,6.32,0,0,1,500.83,45.79Z"/><path d="M546,57c0,11-7,20.68-17.16,20.68a18.52,18.52,0,0,1-8.55-2.2.53.53,0,0,0-.28-.07c-.13,0-.27.07-.27.34v1.93c0,4.42.41,5.86.83,6.76a5.81,5.81,0,0,0,2.34,2.48c.83.48,1.45,1,1.45,1.79,0,1-1,1.52-2.28,1.52H509c-1.31,0-2.27-.48-2.27-1.52,0-.82.55-1.24,1.45-1.79a5.81,5.81,0,0,0,2.34-2.48c.42-1,.83-2.41.83-7.17v-24c0-2.48,0-4-.55-5.1a4,4,0,0,0-2.42-1.86c-1-.35-1.93-.69-1.93-1.66s.56-1.38,2.14-1.72a50.74,50.74,0,0,0,7.65-2.27,5.26,5.26,0,0,1,1.86-.49c.9,0,1.66.49,1.66,2.07v3.24c0,.41.21.62.41.62a.71.71,0,0,0,.55-.34,14.32,14.32,0,0,1,11.17-5.59A12.87,12.87,0,0,1,538,41.66C543.57,44.62,546,50.62,546,57Zm-8.75,2.9c0-7.65-3.38-13.51-9-13.51-4.76,0-8.62,4.2-8.62,13.09s3.72,13.86,9,13.86C534.47,73.3,537.23,67.1,537.23,59.86Z"/><path d="M569.69,75.37c0,1-1,1.51-2.28,1.51H554.18c-1.24,0-2.28-.48-2.28-1.51,0-.83.62-1.31,1.45-1.79a5.41,5.41,0,0,0,2.41-2.42c.48-1,.83-2.55.83-7.3V38.49c0-2.48,0-4-.55-5a4.08,4.08,0,0,0-2.41-1.93c-.83-.35-1.86-.76-1.86-1.66s.48-1.38,2.06-1.72a45.22,45.22,0,0,0,6.83-1.93,8.25,8.25,0,0,1,2.75-.83c1,0,1.66.48,1.66,2.07v36.4c0,4.75.34,6.27.83,7.23a6.67,6.67,0,0,0,2.34,2.49C569.07,74.13,569.69,74.54,569.69,75.37Z"/><path d="M609.6,73.37a2.49,2.49,0,0,1-.48,1.45,7.28,7.28,0,0,1-5.93,2.82c-2.62,0-5.38-1.51-6.07-5.58,0-.07-.27-.07-.27-.07a13.59,13.59,0,0,1-11.31,5.65c-5.58,0-10.82-3.24-10.82-9a9.43,9.43,0,0,1,4.62-8c3.51-2.21,8.06-3.17,11.51-4.76,3.79-1.79,5.51-3.79,5.51-6.41a4.63,4.63,0,0,0-3.58-4.62,6.81,6.81,0,0,0-1.72-.21,7.89,7.89,0,0,0-5,1.86c-2.2,1.87-3.17,4.07-4.13,5.17a2.39,2.39,0,0,1-2.14,1c-1.79,0-2.27-1.59-2.27-3.86,0-1.79.34-4.07,1.24-5.17s3-2.14,5.44-2.69a31.71,31.71,0,0,1,6.9-.76c8.41,0,14.33,4.69,14.33,11.79,0,5-.27,10.34-.27,14.61,0,3.59.41,5.52,1.93,5.52.34,0,.76-.07,1.17-.07A1.3,1.3,0,0,1,609.6,73.37ZM596.36,58.14a.18.18,0,0,0-.2-.21A.31.31,0,0,0,596,58c-2.28,1.65-6.07,2.62-9,4.62a6.24,6.24,0,0,0-3,5.17,4.5,4.5,0,0,0,4.82,4.61,7.25,7.25,0,0,0,6.41-4.13c1.1-2.35,1.17-4.83,1.17-8.76Z"/><path d="M631.37,77.64c-6.34,0-12.68-3.1-15.23-10.41a19.19,19.19,0,0,1-1-6.41c0-6.82,3.18-14.34,10-18.27a18.56,18.56,0,0,1,9.44-2.41c2.83,0,6.9.62,8.76,2.62,1.1,1.11,1.38,3,1.38,4.62a13,13,0,0,1-.21,2.69A2,2,0,0,1,642.2,52a2.2,2.2,0,0,1-1.87-1.17c-.55-.76-1.44-2.55-2.48-3.79a6.68,6.68,0,0,0-5.3-2.55c-5.31,0-8.69,5.3-8.69,12.13a22.49,22.49,0,0,0,1.24,7.65c2.55,6.34,7,7.38,10.06,7.38a12.72,12.72,0,0,0,7.38-2.83,3.52,3.52,0,0,1,1.86-.9,1.38,1.38,0,0,1,1.38,1.38,3.4,3.4,0,0,1-.69,1.86C642.33,75.23,637.16,77.64,631.37,77.64Z"/><path d="M684.31,69.3c0,1.45-2.07,3.72-4.41,5.24a20,20,0,0,1-10.69,3c-6.48,0-13-3-15.78-10.41a21.23,21.23,0,0,1-1.31-7.23,20.07,20.07,0,0,1,10-17.72,16.78,16.78,0,0,1,8.14-2.07A15.28,15.28,0,0,1,680,43.45a13.63,13.63,0,0,1,5,10.13c0,3.11-.9,4.76-5.65,4.76H661.77c-.55,0-.83.28-.83.76A13.9,13.9,0,0,0,663.35,67a10.61,10.61,0,0,0,9,4.41c6.41,0,8.68-3.52,10.54-3.52A1.41,1.41,0,0,1,684.31,69.3ZM661.7,54.07h9.58c3.45,0,5.1-.83,5.1-3.38a6.53,6.53,0,0,0-6.89-6.27c-6.41,0-8.48,7.37-8.48,9C661,53.93,661.15,54.07,661.7,54.07Z"/><path class="cls-1" d="M255.45,43.92c-1.31-4.33-11-2.29-8.86,2.94,1.63,4,11,6.28,15.49,12.77,7,10.29-8.46,21.76-20.12,16.27-8.21-3.86-8.24-9.86-7.7-12.33.79-3.66,4.87-3.73,5.37-1.79.76,3.55-.89,3.37-.79,4.84.65,5.84,10.19,8.35,15.21,3.26,6.89-7,.85-11.5-.36-12.37-3.26-2.33-7.71-2.9-10.54-6.78-6.09-8.31,3.37-15.52,10.29-13.44,3.17,1,5.7,3.26,5.09,6.24-.52,2.52-2.51,2.29-3.08.39M72.24,69.62c-1.39-5.42-.53-16.59.32-23.12C74.1,34.72,77.49,28.2,77.49,21c0-3.33-1-10.24-8.32-10.52-18-.69-24.62,43.06-25.49,49.25-.38-2.84-.17-19-1.48-30.78-1.94-17.33-5.71-18.39-9.44-18.67-13.46-1-14.36,25-14.23,49.74,0-5.06.61-15.37-4.14-20.65-2.35-2.63-6-2.37-3.57,1.11.26.37.56,1.18.92,1.74,4.63,7,3.71,35.13,8.45,34.91,1.48-.07,3.73-.68,3.54-7-.56-19,.88-53.11,7.36-53.14,6.88,0,5.36,33.84,7.37,47,1.11,6.69,8.08,7.24,10.23-2.25,2.88-12.69,3-20.9,9.3-34.09,8.34-17.55,15.24-11.81,12.28.43C68.74,34.43,63.65,49.58,66.19,67c.74,5.06,4,11.47,6.46,10.08,1.39-.78.68-3.16-.41-7.44M82.71,42.9c-1.75,1.43-7.46,13.4-5,25.56C80.13,78.65,87.19,81.19,95,71.87c4.36,9.52,19.71,5.17,27.79-6.53.53,5.59,1,6.49,1.07,7,.75,3.41,4.47,4.76,5.43,1.83.82-2.49,3.78-15.21,11-22.71,1.89-2,8.31-4.59,6.58,2.38-.42,1.7-3.43,12-3.33,16.64.09,4.74,1.58,8.74,4.77,6.74,1.35-.85.75-4.8.58-7.16-.72-10,2.43-14.93,4-19.09s.45-9.12-6.52-8.1c-7.56,1.1-14.92,9.82-18.69,20.9.09-17.57,9.36-35.07,15.48-50,1-1.77-2.91-6.2-7.17-1.63C132.2,16.33,124,42.38,123.26,54.57c-.29,2.11-3.58,10.86-8.6,14.63S101.17,74.8,101,65.57s5-17.45,8.8-19c2.1-.86,3.13,1,4,2,1.25,1.48,6.08,2.39,5.93-2-.15-4.54-5.11-8.17-12-4.78-10.14,5-13.12,16.79-13.92,21.75-1.05,6.55-3.61,9.33-4.23,9.76S85,77.71,84.38,68.39a46.32,46.32,0,0,1,3-16.54c1.63-4.45,1.44-3.92,1.72-5.12a3.87,3.87,0,0,0-6.4-3.83m7.22-13.26a5.25,5.25,0,0,0-3.85,7.63,3.47,3.47,0,0,0,4.3,1.41c1.53-.59,4-3.2,4.06-5.45s-1.31-3.85-4.51-3.59m89.21,19.08c.47,1,2.32,1.23,2.92-1,.67-2.46-1.46-8.58-6.22-8.73-4.55-.15-8.21,2.44-11.69,6.27-3.22,3.55-12.58,16.67-12,26.25.43,5.09,5.06,7,10.44,3.8,6.52-3.83,11.15-10.9,12.11-12.09.26,8.36,7.36,13.81,15.82,5.74a17.61,17.61,0,0,0,5.14,6.11c6.15,4.22,17.16,3.36,25.26-9.48,1.69,6,2.69,8.39,3.26,9.5,1.65,3.19,5,3.78,5.28-.39.08-1.33-1.37-4.46-2.51-8.75-3.24-12.17-7.84-33.48,2.4-47.8,4.37-4.87,9-6.13,9.61-.5.35,3.09-.22,16.78-10.26,34.78-1.47,3.16,1.61,4,2.55,1.9,1.4-3.15,14.49-23,14.12-36.43-.21-8-12-12.27-20.32-1.47-8,10.37-8.65,30.55-5.81,42-5.45,10-11.48,18-19.19,14-8.13-5.09-5.55-22.48-.18-26.32,3.64-2.59,5.87.44,3.88,4.16a16.73,16.73,0,0,1-6.28,7c-2.22,1.76-.8,4,1.29,3.23a17.83,17.83,0,0,0,10.9-11.73c3.55-11.4-10.34-15.51-17.39-2.47a28.16,28.16,0,0,0-3,17.64c-1.44,1.68-6.13,8-6.92,3.73s.47-10.72.75-12.55c.72-4.7-4-6.57-6.74-2.48C173.5,57,168,68.39,161.32,71.66c-6.42,3.47-.54-15.93,4.45-21.48,3-3.66,7.6-7.6,12.12-2.94.71.86.8.57,1.25,1.48"/></svg>