<?xml version="1.0" encoding="UTF-8"?>
<svg width="60px" height="36px" viewBox="0 0 60 36" version="1.1" xmlns="http://www.w3.org/2000/svg" xmlns:xlink="http://www.w3.org/1999/xlink">
    <title>MasterCard-light@1.5x</title>
    <g id="Icons" stroke="none" stroke-width="1" fill="none" fill-rule="evenodd">
        <g transform="translate(-215.000000, -41.000000)" id="MasterCard-light">
            <g transform="translate(215.000000, 41.000000)">
                <rect id="Rectangle" fill="#FFFFFF" x="0" y="0" width="60" height="36" rx="2.4"></rect>
                <path d="M33.6771725,18.2912413 C33.6771725,24.7581947 28.4351822,30 21.9684138,30 C15.5014605,30 10.2591,24.7581947 10.2591,18.2912413 C10.2591,11.824473 15.5014605,6.5821125 21.9684138,6.5821125 C28.4351822,6.5821125 33.6771725,11.824473 33.6771725,18.2912413" id="Fill-333" fill="#CC0000"></path>
                <path d="M37.6884637,6.5821125 C34.662324,6.5821125 31.9059723,7.72991392 29.8276061,9.61287816 C29.4047903,9.99665055 29.0101006,10.4111395 28.6457574,10.8524593 L31.0114903,10.8524593 C31.3345696,11.2458537 31.6322985,11.6594175 31.9041219,12.0925955 L27.7529407,12.0925955 C27.5046174,12.490616 27.2788689,12.9041798 27.0782859,13.3327318 L32.5784067,13.3327318 C32.766407,13.7340829 32.9318325,14.1474617 33.0743131,14.5723129 L26.5823794,14.5723129 C26.4473004,14.9760696 26.3333159,15.3898184 26.2422764,15.811709 L33.4140461,15.811709 C33.5857629,16.6110806 33.6771725,17.4404286 33.6771725,18.2912413 C33.6771725,19.5911454 33.4653021,20.842384 33.0743131,22.0109099 L26.5823794,22.0109099 C26.72486,22.435391 26.8902855,22.8493248 27.0779158,23.2512311 L32.5784067,23.2512311 C32.3774535,23.6786729 32.1528153,24.0926068 31.9030117,24.4911823 L27.7529407,24.4911823 C28.0236538,24.9230651 28.3219378,25.337184 28.6457574,25.7300233 L31.0107501,25.7300233 C30.647147,26.1717131 30.2520872,26.5862021 29.8279762,26.9699745 C31.9061573,28.8529387 34.662324,30 37.6884637,30 C44.155047,30 49.3972224,24.7581947 49.3972224,18.2912413 C49.3972224,11.8250281 44.155047,6.5821125 37.6884637,6.5821125" id="Fill-334" fill="#FF9900"></path>
                <path d="M19.2340818,19.5731965 C19.1006682,19.5580232 19.0418255,19.5532122 18.9502309,19.5532122 C18.2296862,19.5532122 17.865343,19.8004253 17.865343,20.2887451 C17.865343,20.5894347 18.0431661,20.7805807 18.3207257,20.7805807 C18.8386519,20.7805807 19.211877,20.2876349 19.2340818,19.5731965 L19.2340818,19.5731965 Z M20.1587253,21.7253936 L19.1051091,21.7253936 L19.1293493,21.2248611 C18.8081204,21.620106 18.3793833,21.8088465 17.7970633,21.8088465 C17.1083454,21.8088465 16.635939,21.271121 16.635939,20.4896983 C16.635939,19.3134007 17.4573304,18.6274585 18.8675181,18.6274585 C19.0120341,18.6274585 19.1967038,18.6407813 19.3858144,18.6646515 C19.4250428,18.5051472 19.435405,18.4374227 19.435405,18.3513792 C19.435405,18.0316306 19.2140975,17.9117248 18.620305,17.9117248 C17.9983865,17.9054335 17.4854564,18.0603117 17.2746962,18.1295166 C17.288019,18.0492093 17.451039,17.0431483 17.451039,17.0431483 C18.084245,16.8569984 18.5020647,16.7874234 18.9722506,16.7874234 C20.063985,16.7874234 20.6422341,17.2774086 20.6409388,18.2037175 C20.6431593,18.4522259 20.6018955,18.7577264 20.5380568,19.160743 C20.4277731,19.8601931 20.1909222,21.3603102 20.1587253,21.7253936 L20.1587253,21.7253936 Z" id="Fill-336" fill="#000066"></path>
                <polyline id="Fill-337" fill="#000066" points="16.1039498 21.7253936 14.8325419 21.7253936 15.5612283 17.1600934 13.9349141 21.7253936 13.0687432 21.7253936 12.9616052 17.1856289 12.1962809 21.7253936 11.0064755 21.7253936 12.0003238 15.7861735 13.8283313 15.7861735 13.9388 19.1105972 15.0540344 15.7861735 17.0870659 15.7861735 16.1039498 21.7253936"></polyline>
                <path d="M39.2590809,19.5731965 C39.1256673,19.5580232 39.0675648,19.5532122 38.9761552,19.5532122 C38.2550554,19.5532122 37.8910822,19.8004253 37.8910822,20.2887451 C37.8910822,20.5894347 38.0681652,20.7805807 38.346465,20.7805807 C38.8640211,20.7805807 39.2374313,20.2876349 39.2590809,19.5731965 L39.2590809,19.5731965 Z M40.1842795,21.7253936 L39.1310334,21.7253936 L39.1549035,21.2248611 C38.8336746,21.620106 38.4051226,21.8088465 37.8231726,21.8088465 C37.1335296,21.8088465 36.6616783,21.271121 36.6616783,20.4896983 C36.6616783,19.3134007 37.4834397,18.6274585 38.8932574,18.6274585 C39.0375883,18.6274585 39.2218879,18.6407813 39.4111836,18.6646515 C39.450597,18.5051472 39.4607742,18.4374227 39.4607742,18.3513792 C39.4607742,18.0316306 39.2394667,17.9117248 38.6456742,17.9117248 C38.0237557,17.9054335 37.5110106,18.0603117 37.2995102,18.1295166 C37.3135732,18.0492093 37.4769633,17.0431483 37.4769633,17.0431483 C38.1097992,16.8569984 38.5279889,16.7874234 38.9974347,16.7874234 C40.0899093,16.7874234 40.6674183,17.2774086 40.666308,18.2037175 C40.6685285,18.4522259 40.6276347,18.7577264 40.5634259,19.160743 C40.4535123,19.8601931 40.2161064,21.3603102 40.1842795,21.7253936 L40.1842795,21.7253936 Z" id="Fill-338" fill="#000066"></path>
                <path d="M25.8079881,21.6519328 C25.4599284,21.7614763 25.1888452,21.8088465 24.894632,21.8088465 C24.2449576,21.8088465 23.8902364,21.4354363 23.8902364,20.7476436 C23.8811695,20.5341078 23.9836815,19.9725122 24.0643588,19.4603223 C24.1380046,19.0090104 24.6157772,16.1642096 24.6157772,16.1642096 L25.8790434,16.1642096 L25.7315667,16.8953016 L26.4948556,16.8953016 L26.3225836,18.0562408 L25.5567042,18.0562408 C25.4099677,18.974593 25.2006878,20.1188787 25.1982822,20.2706112 C25.1982822,20.5196747 25.3311408,20.6284781 25.6336807,20.6284781 C25.7785668,20.6284781 25.8907009,20.6136749 25.9763743,20.5829583 L25.8079881,21.6519328" id="Fill-339" fill="#000066"></path>
                <path d="M29.6819798,21.6128894 C29.2478766,21.7455629 28.8295018,21.8103268 28.3855915,21.8088465 C26.9709628,21.8069961 26.2335795,21.0686876 26.2335795,19.6540589 C26.2335795,18.0031344 27.1715459,16.7874234 28.4451743,16.7874234 C29.4867629,16.7874234 30.1523508,17.4679996 30.1523508,18.5349386 C30.1523508,18.8896598 30.106831,19.235314 29.9963623,19.7230787 L27.4801921,19.7230787 C27.3952589,20.4238241 27.8434251,20.7156318 28.578958,20.7156318 C29.03064,20.7156318 29.4388376,20.6223718 29.89237,20.4119816 L29.6819798,21.6128894 L29.6819798,21.6128894 Z M28.9717974,18.7495847 C28.9790139,18.648738 29.1055811,17.8872996 28.383371,17.8872996 C27.9814648,17.8872996 27.6933579,18.1940954 27.5765978,18.7495847 L28.9717974,18.7495847 L28.9717974,18.7495847 Z" id="Fill-340" fill="#000066"></path>
                <path d="M20.921089,18.4224345 C20.921089,19.0328805 21.2171525,19.454216 21.8888467,19.7708189 C22.4034422,20.0130359 22.4835644,20.0846463 22.4835644,20.3039184 C22.4835644,20.6046079 22.2563356,20.7411673 21.7535827,20.7411673 C21.3740662,20.7411673 21.0213805,20.6815845 20.6144782,20.5500212 C20.6144782,20.5500212 20.4477574,21.6151099 20.4398007,21.6659958 C20.7286477,21.7285392 20.986223,21.7868267 21.7626497,21.8088465 C23.1038176,21.8088465 23.7233306,21.2981368 23.7233306,20.1943749 C23.7233306,19.5308224 23.464275,19.1413138 22.8273682,18.8482109 C22.2946389,18.6037734 22.2330206,18.5490016 22.2330206,18.3236232 C22.2330206,18.0625322 22.444521,17.9291185 22.8551242,17.9291185 C23.1047428,17.9291185 23.4454009,17.9557643 23.7686653,18.0014691 L23.9494491,16.8812386 C23.6204485,16.8288723 23.1212113,16.7874234 22.830699,16.7874234 C21.4088537,16.7874234 20.916463,17.5299879 20.921089,18.4224345" id="Fill-341" fill="#000066"></path>
                <path d="M35.8643421,16.9149158 C36.2173979,16.9149158 36.5471387,17.0066955 37.000301,17.2355897 L37.2084707,15.9466029 C37.0215805,15.8733272 36.3663549,15.44385 35.8112357,15.44385 C34.9607931,15.44385 34.2409886,15.8664807 33.7356451,16.5624151 C32.9977067,16.3181627 32.6940565,16.8118487 32.3224967,17.3040544 L31.9922008,17.3810309 C32.0171812,17.2191211 32.039941,17.0583216 32.0327245,16.8953016 L30.8647538,16.8953016 C30.7056196,18.3906076 30.4230639,19.9046027 30.2019415,21.4004638 L30.144024,21.7253936 L31.4158021,21.7253936 C31.6280426,20.3461074 31.7440625,19.4632829 31.8147477,18.8652345 L32.2936305,18.5998876 C32.365611,18.3332453 32.5889539,18.2436861 33.0382304,18.2546034 C32.9795728,18.569541 32.9477459,18.9013173 32.9477459,19.244566 C32.9477459,20.8249903 33.8015192,21.8088465 35.1693329,21.8088465 C35.5218336,21.8088465 35.8245586,21.7625865 36.2932642,21.6349091 L36.516052,20.2815286 C36.0945315,20.488588 35.7494324,20.586104 35.4365303,20.586104 C34.6974816,20.586104 34.2502406,20.0404218 34.2502406,19.1390933 C34.2502406,17.8310475 34.9149033,16.9149158 35.8643421,16.9149158" id="Fill-342" fill="#000066"></path>
                <path d="M46.6266226,15.7861735 L46.344067,17.5020469 C45.9971175,17.0448137 45.6237073,16.7135926 45.1307615,16.7135926 C44.4894138,16.7135926 43.9056134,17.199877 43.5233214,17.9159807 C42.9909621,17.805512 42.440839,17.6176967 42.440839,17.6176967 L42.4404689,17.6223227 C42.482843,17.2220818 42.5007919,16.9785695 42.4965359,16.8953016 L41.3287502,16.8953016 C41.1701712,18.3906076 40.8872454,19.9046027 40.666308,21.4004638 L40.6078355,21.7253936 L41.8799836,21.7253936 C42.0517004,20.6107142 42.1828936,19.6840353 42.2796694,18.9501678 C42.7145127,18.5571434 42.9321195,18.215375 43.3704786,18.2375798 C43.1760018,18.7079508 43.0625725,19.249377 43.0625725,19.8048662 C43.0625725,21.0118804 43.6728335,21.8088465 44.5972919,21.8088465 C45.063222,21.8088465 45.4207187,21.6480469 45.7693336,21.275747 L45.7093807,21.7250235 L46.9121389,21.7250235 L47.8804518,15.7861735 L46.6266226,15.7861735 L46.6266226,15.7861735 Z M45.0369463,20.609604 C44.6043235,20.609604 44.3852364,20.2887451 44.3852364,19.6573896 C44.3852364,18.7079508 44.7947293,18.0349613 45.3711281,18.0349613 C45.8080069,18.0349613 46.0448577,18.3672926 46.0448577,18.9808843 C46.0448577,19.9384649 45.6285183,20.609604 45.0369463,20.609604 L45.0369463,20.609604 Z" id="Fill-343" fill="#000066"></path>
                <polyline id="Fill-344" fill="#FFFFFF" points="16.4695883 21.3728929 15.1985504 21.3728929 15.9270518 16.8075928 14.3011078 21.3728929 13.4345667 21.3728929 13.3276138 16.8340535 12.5621044 21.3728929 11.372299 21.3728929 12.3661474 15.4342279 14.1941548 15.4342279 14.2452258 19.1105972 15.4787006 15.4342279 17.4528894 15.4342279 16.4695883 21.3728929"></polyline>
                <path d="M19.5999053,19.221436 C19.4666767,19.2058927 19.4078341,19.2016367 19.3162394,19.2016367 C18.5956948,19.2016367 18.2311665,19.4484797 18.2311665,19.9364295 C18.2311665,20.236749 18.4091747,20.4290052 18.6869193,20.4290052 C19.2046605,20.4290052 19.5778856,19.9360594 19.5999053,19.221436 L19.5999053,19.221436 Z M20.5243638,21.3728929 L19.4713027,21.3728929 L19.4953579,20.8727305 C19.1741289,21.2677903 18.7453919,21.4567159 18.1630719,21.4567159 C17.474169,21.4567159 17.0019476,20.9182503 17.0019476,20.1370126 C17.0019476,18.96053 17.823524,18.2755129 19.2337117,18.2755129 C19.3778577,18.2755129 19.5625273,18.2886507 19.751823,18.313076 C19.7910514,18.1532017 19.8014136,18.0852921 19.8014136,17.9988785 C19.8014136,17.6793149 19.5801061,17.5603344 18.9863136,17.5603344 C18.3642101,17.5529328 17.851465,17.707811 17.6405197,17.7768309 C17.6540276,17.6968937 17.8168625,16.6908327 17.8168625,16.6908327 C18.4502535,16.5050528 18.8680732,16.4349228 19.3382592,16.4349228 C20.4298085,16.4349228 21.0078726,16.9254631 21.0069474,17.8514019 C21.0089829,18.0995401 20.9680891,18.406521 20.9040653,18.8084273 C20.7935966,19.5073224 20.5567458,21.0083646 20.5243638,21.3728929 L20.5243638,21.3728929 Z" id="Fill-345" fill="#FFFFFF"></path>
                <path d="M37.5741092,15.5941023 L37.3659395,16.8829039 C36.912037,16.65475 36.5832214,16.5624151 36.2305357,16.5624151 C35.281467,16.5624151 34.615694,17.4796571 34.615694,18.7878879 C34.615694,19.6892164 35.0631201,20.2337883 35.8021687,20.2337883 C36.115256,20.2337883 36.4610952,20.1370126 36.8816905,19.9292129 L36.6583476,21.2825935 C36.1903821,21.4100859 35.8874721,21.4567159 35.5351564,21.4567159 C34.1664176,21.4567159 33.3139396,20.4726746 33.3139396,18.8926204 C33.3139396,16.7694746 34.4924576,15.285641 36.1770592,15.285641 C36.7321784,15.285641 37.3877742,15.5208265 37.5741092,15.5941023" id="Fill-346" fill="#FFFFFF"></path>
                <path d="M39.6247194,19.221436 C39.492231,19.2058927 39.4332033,19.2016367 39.3417937,19.2016367 C38.621619,19.2016367 38.2569057,19.4484797 38.2569057,19.9364295 C38.2569057,20.236749 38.4347289,20.4290052 38.7122885,20.4290052 C39.2298446,20.4290052 39.6034398,19.9360594 39.6247194,19.221436 L39.6247194,19.221436 Z M40.549918,21.3728929 L39.4968569,21.3728929 L39.5207271,20.8727305 C39.1994981,21.2677903 38.7707611,21.4567159 38.1889962,21.4567159 C37.4993531,21.4567159 37.0276869,20.9182503 37.0276869,20.1370126 C37.0276869,18.96053 37.8485231,18.2755129 39.2590809,18.2755129 C39.4032268,18.2755129 39.5875264,18.2886507 39.776637,18.313076 C39.8160505,18.1532017 39.8264127,18.0852921 39.8264127,17.9988785 C39.8264127,17.6793149 39.6056603,17.5603344 39.0114977,17.5603344 C38.3899493,17.5529328 37.8773893,17.707811 37.6660739,17.7768309 C37.6793968,17.6968937 37.8424168,16.6908327 37.8424168,16.6908327 C38.4758077,16.5050528 38.8932574,16.4349228 39.3634433,16.4349228 C40.4549926,16.4349228 41.0336119,16.9254631 41.0321316,17.8514019 C41.0347221,18.0995401 40.9934582,18.406521 40.9294345,18.8084273 C40.8193359,19.5073224 40.582485,21.0083646 40.549918,21.3728929 L40.549918,21.3728929 Z" id="Fill-347" fill="#FFFFFF"></path>
                <path d="M26.1736266,21.2996171 C25.825937,21.4091607 25.5544837,21.4567159 25.2606406,21.4567159 C24.6107811,21.4567159 24.2558749,21.0831207 24.2558749,20.3960682 C24.246993,20.1817922 24.3496901,19.6211218 24.4305524,19.1083767 C24.5036431,18.6566947 24.9816007,15.8122641 24.9816007,15.8122641 L26.245237,15.8122641 L26.0973903,16.543171 L26.7461395,16.543171 L26.5733124,17.7037402 L25.9225277,17.7037402 C25.7757912,18.6230175 25.5665113,19.766563 25.5639207,19.9182956 C25.5639207,20.1680992 25.6973344,20.2761624 25.9995043,20.2761624 C26.1443904,20.2761624 26.2563394,20.2619144 26.3423829,20.2304576 L26.1736266,21.2996171" id="Fill-348" fill="#FFFFFF"></path>
                <path d="M30.0483585,21.2613139 C29.6140702,21.3943575 29.1947702,21.457086 28.751415,21.4567159 C27.3366013,21.4557907 26.5997731,20.716557 26.5997731,19.3021133 C26.5997731,17.6506338 27.5375544,16.4349228 28.8102577,16.4349228 C29.8529565,16.4349228 30.5181743,17.1154989 30.5181743,18.1837332 C30.5181743,18.5377142 30.4719144,18.8831834 30.362741,19.3711331 L27.8462007,19.3711331 C27.7608974,20.0718786 28.2096187,20.3642413 28.9444115,20.3642413 C29.3964635,20.3642413 29.8044761,20.2706112 30.2585636,20.0596659 L30.0483585,21.2613139 L30.0483585,21.2613139 Z M29.337991,18.397084 C29.3448374,18.2960523 29.4719597,17.5349839 28.7499347,17.5349839 C28.3476584,17.5349839 28.0595515,17.8423349 27.9424214,18.397084 L29.337991,18.397084 L29.337991,18.397084 Z" id="Fill-349" fill="#FFFFFF"></path>
                <path d="M21.2867275,18.0699338 C21.2867275,18.6814901 21.5831611,19.1019003 22.2550404,19.4188734 C22.7696358,19.6609053 22.849388,19.7325157 22.849388,19.9519728 C22.849388,20.2530325 22.6223442,20.3888516 22.1192212,20.3888516 C21.7400748,20.3888516 21.3872041,20.330009 20.9801167,20.1988158 C20.9801167,20.1988158 20.8135809,21.2631643 20.8058092,21.3133101 C21.0944712,21.3765937 21.3522315,21.4343261 22.1282882,21.4567159 C23.4698262,21.4567159 24.0893392,20.9461913 24.0893392,19.8424293 C24.0893392,19.1785068 23.8299135,18.7891832 23.1931918,18.4968204 C22.6602774,18.2516428 22.5990292,18.1974261 22.5990292,17.9716777 C22.5990292,17.7105866 22.8103446,17.5762478 23.2213178,17.5762478 C23.4703813,17.5762478 23.8114095,17.6040037 24.1344889,17.6495235 L24.3154577,16.5294781 C23.986272,16.4774819 23.4874049,16.4349228 23.1967075,16.4349228 C21.7744922,16.4349228 21.2824716,17.1776722 21.2867275,18.0699338" id="Fill-350" fill="#FFFFFF"></path>
                <path d="M47.2779624,21.3728929 L46.0755743,21.3728929 L46.1351571,20.9234314 C45.7863572,21.2959164 45.4290455,21.4567159 44.9631155,21.4567159 C44.0393972,21.4567159 43.428211,20.660675 43.428211,19.4523656 C43.428211,17.8458507 44.3757994,16.49173 45.496585,16.49173 C45.9895308,16.49173 46.362756,16.6930532 46.7104456,17.1504714 L46.9924461,15.4342279 L48.2460903,15.4342279 L47.2779624,21.3728929 L47.2779624,21.3728929 Z M45.4025848,20.2569183 C45.994897,20.2569183 46.4104962,19.5861493 46.4104962,18.6294939 C46.4104962,18.0157171 46.1738304,17.6822756 45.7369516,17.6822756 C45.1603678,17.6822756 44.75106,18.3554501 44.75106,19.305259 C44.75106,19.9373547 44.970332,20.2569183 45.4025848,20.2569183 L45.4025848,20.2569183 Z" id="Fill-351" fill="#FFFFFF"></path>
                <path d="M41.6949438,16.543171 C41.5359947,18.0381069 41.253254,19.552102 41.0321316,21.0481482 L40.9742141,21.3728929 L42.2456221,21.3728929 C42.7004497,18.4192888 42.8098082,17.84289 43.5233214,17.9148705 C43.6367507,17.3103457 43.8482511,16.780947 44.0057199,16.5141198 C43.4733606,16.4030959 43.1760018,16.7039705 42.7863081,17.2757433 C42.8173948,17.0283452 42.8734619,16.7883486 42.8629146,16.543171 L41.6949438,16.543171" id="Fill-352" fill="#FFFFFF"></path>
                <path d="M31.2311324,16.543171 C31.0714431,18.0381069 30.7883323,19.552102 30.56758,21.0481482 L30.5098476,21.3728929 L31.7816256,21.3728929 C32.2366383,18.4192888 32.3456267,17.84289 33.0580296,17.9148705 C33.1721991,17.3103457 33.3840696,16.780947 33.5411683,16.5141198 C33.0093642,16.4030959 32.7114502,16.7039705 32.3224967,17.2757433 C32.3532133,17.0283452 32.4096504,16.7883486 32.398548,16.543171 L31.2311324,16.543171" id="Fill-353" fill="#FFFFFF"></path>
            </g>
        </g>
    </g>
</svg>