<svg width="20" height="20" viewBox="0 0 20 20" fill="none" xmlns="http://www.w3.org/2000/svg">
<path d="M8.33333 15.8334H4.16667C3.72464 15.8334 3.30072 15.6578 2.98816 15.3452C2.67559 15.0326 2.5 14.6087 2.5 14.1667V5.83335C2.5 4.91669 3.25 4.16669 4.16667 4.16669H15.8333C16.2754 4.16669 16.6993 4.34228 17.0118 4.65484C17.3244 4.9674 17.5 5.39133 17.5 5.83335V14.1667C17.4997 14.459 17.4225 14.746 17.2763 14.9991C17.13 15.2521 16.9198 15.4622 16.6667 15.6084" stroke="#1B1B1B" stroke-width="1.5" stroke-linecap="round" stroke-linejoin="round"/>
<path d="M5 7.5H15" stroke="#1B1B1B" stroke-width="1.5" stroke-linecap="round" stroke-linejoin="round"/>
<path d="M5 10H7.5" stroke="#1B1B1B" stroke-width="1.5" stroke-linecap="round" stroke-linejoin="round"/>
<path d="M5 12.5H6.66667" stroke="#1B1B1B" stroke-width="1.5" stroke-linecap="round" stroke-linejoin="round"/>
<path d="M12.3863 16.553L10.4924 17.5L10.808 15.2904L9.54541 14.0278L11.4393 13.7121L12.3863 11.8182L13.3333 13.7121L15.2272 14.0278L13.9646 15.2904L14.2803 17.5L12.3863 16.553Z" stroke="#1B1B1B" stroke-width="0.94697" stroke-linecap="round" stroke-linejoin="round"/>
</svg>
