<svg width="197" height="40" viewBox="0 0 197 40" fill="none" xmlns="http://www.w3.org/2000/svg">
<path d="M33.2605 30.9798C32.3235 27.3949 31.863 23.7022 31.8908 19.9971C31.866 16.2714 32.3265 12.5584 33.2605 8.95172C34.1736 5.51974 35.478 2.53583 37.1738 0H39.3966C35.9007 5.49821 34.156 12.1639 34.1625 19.9971C34.169 27.8302 35.9144 34.4959 39.3985 39.9941H37.1758C35.4053 37.2136 34.0841 34.1716 33.2605 30.9798Z" fill="black"/>
<path d="M188.851 39.9941C190.651 37.1803 191.981 34.092 192.789 30.8507C193.652 27.2983 194.072 23.6527 194.04 19.9971C194.073 16.3421 193.653 12.6971 192.789 9.14543C191.981 5.90343 190.651 2.81456 188.851 0H191.028C192.757 2.53061 194.077 5.51452 194.991 8.95172C195.925 12.5584 196.385 16.2714 196.36 19.9971C196.388 23.7087 195.927 27.4078 194.991 30.9994C194.077 34.404 192.757 37.4042 191.03 40L188.851 39.9941Z" fill="black"/>
<path d="M8.68282 15.5007C9.57897 13.2642 10.4556 11.8182 11.5709 10.517C13.4238 8.3432 15.4959 6.92658 17.8048 5.80737C22.4753 3.79984 27.0598 6.56068 27.7387 11.8965C29.0771 22.4155 19.8534 33.6037 9.1896 33.6037C5.55217 33.6037 1.94996 32.2145 0.517682 27.2348C-1.26288 19.7994 1.71907 13.0901 6.86704 8.77171C8.11931 7.72098 9.4107 6.63308 10.886 5.90911C11.4032 5.64262 11.9532 5.44526 12.5218 5.32212L12.8642 5.90911C11.8859 6.63308 10.9075 7.32378 9.96444 8.08883C4.92017 12.2096 2.43717 17.4475 3.58572 23.9906C4.67167 30.1815 9.87052 32.8797 15.717 30.5024C22.3697 27.7963 26.4513 17.289 23.4223 10.7616C22.4773 8.72866 20.8474 7.63098 18.7616 7.39031C16.7912 7.17116 15.3942 8.40581 14.3904 10.0044C13.7388 11.0356 13.1597 12.1 12.6059 13.1879C11.9211 14.5223 11.0406 15.5202 8.68282 15.5007Z" fill="black"/>
<path fill-rule="evenodd" clip-rule="evenodd" d="M42.371 35.3469V34.4625L42.3867 34.4762C42.5093 34.7803 42.7122 35.0454 42.9737 35.2432C43.1867 35.4054 43.4457 35.4958 43.7133 35.5015C43.9773 35.5031 44.2362 35.4284 44.4588 35.2863C44.6883 35.1334 44.8824 34.9333 45.0282 34.6993C45.1941 34.4248 45.3168 34.1266 45.3921 33.8149C45.5662 33.0981 45.5662 32.35 45.3921 31.6332C45.319 31.3208 45.1961 31.0222 45.0282 30.7488C44.8846 30.513 44.6901 30.3124 44.4588 30.1618C44.2371 30.0177 43.9776 29.9427 43.7133 29.9465C43.4447 29.9525 43.1852 30.0451 42.9737 30.2107C42.7109 30.4137 42.508 30.6842 42.3867 30.9934H42.371V26.8315H41.8643V35.3469H42.371ZM44.899 31.8973C44.9601 32.1689 44.9896 32.4466 44.9871 32.725C44.9887 33.002 44.9591 33.2783 44.899 33.5488C44.8476 33.7855 44.7605 34.0131 44.6408 34.2238C44.5395 34.4058 44.3967 34.5613 44.224 34.6777C44.0583 34.7875 43.8631 34.8441 43.6644 34.8402C43.4728 34.8415 43.2852 34.7849 43.1263 34.6777C42.954 34.5619 42.8085 34.4104 42.6998 34.2336C42.5705 34.0257 42.4754 33.7985 42.418 33.5605C42.2849 33.0101 42.2849 32.436 42.418 31.8856C42.4754 31.647 42.5705 31.4191 42.6998 31.2105C42.8073 31.0301 42.9529 30.8752 43.1263 30.7566C43.2859 30.651 43.473 30.5945 43.6644 30.5942C43.8642 30.5909 44.0599 30.6504 44.224 30.7644C44.3949 30.8829 44.5372 31.038 44.6408 31.2184C44.7605 31.4304 44.8476 31.6593 44.899 31.8973Z" fill="black"/>
<path fill-rule="evenodd" clip-rule="evenodd" d="M49.8062 32.9131V32.5589C49.808 32.2128 49.7706 31.8675 49.6946 31.5297C49.632 31.2392 49.5251 30.9601 49.3777 30.7021C49.2476 30.4771 49.0684 30.2844 48.8533 30.1385C48.6375 29.9982 48.3848 29.9253 48.1274 29.9292C47.6538 29.9155 47.1999 30.2012 46.8712 30.7118C46.7008 30.9851 46.5747 31.2836 46.4975 31.5963C46.4047 31.9567 46.3593 32.3277 46.3625 32.6998C46.3597 33.0716 46.4064 33.442 46.5014 33.8014C46.5807 34.114 46.7081 34.4123 46.879 34.6858C47.0233 34.9217 47.2185 35.1222 47.4504 35.2728C47.6664 35.4095 47.9167 35.4821 48.1724 35.4822C48.463 35.481 48.7464 35.3908 48.9844 35.2239C49.281 34.9975 49.5186 34.7028 49.677 34.3649L49.2955 33.9188C49.1951 34.1578 49.0458 34.373 48.8572 34.5508C48.5406 34.8667 48.0462 34.9181 47.6715 34.6741C47.5091 34.5685 47.3716 34.429 47.2684 34.2651C47.1471 34.0777 47.0559 33.8724 46.9984 33.6566C46.933 33.4141 46.8981 33.1643 46.8947 32.9131H49.8062ZM48.9726 31.0817C49.1821 31.4579 49.2913 31.8818 49.2896 32.3124L46.9025 32.3202C46.9137 32.1005 46.9518 31.883 47.016 31.6726C47.0762 31.4769 47.1646 31.2911 47.2782 31.1208C47.3772 30.9656 47.5071 30.8324 47.6597 30.7295C47.7988 30.637 47.9623 30.588 48.1293 30.5886C48.4813 30.5791 48.8082 30.7702 48.9726 31.0817Z" fill="black"/>
<path fill-rule="evenodd" clip-rule="evenodd" d="M52.8169 30.9248C52.9961 31.2319 53.0792 31.5856 53.0556 31.9404L53.0419 32.1008C52.7334 32.1006 52.425 32.1175 52.1184 32.1517C51.8458 32.1791 51.5806 32.256 51.3357 32.3786C51.104 32.498 50.9127 32.6832 50.7859 32.9109C50.6349 33.2084 50.5641 33.5402 50.5804 33.8735C50.5742 34.1269 50.6133 34.3794 50.6959 34.619C50.761 34.8021 50.8599 34.9713 50.9874 35.118C51.0941 35.2397 51.2283 35.3343 51.3788 35.3939C51.7597 35.5488 52.1939 35.4931 52.5234 35.2471C52.7639 35.0426 52.9501 34.7818 53.0654 34.4879H53.081C53.081 34.6308 53.083 34.7756 53.0947 34.9262C53.1065 35.0769 53.1182 35.2178 53.1319 35.3449H53.5956C53.5741 35.163 53.5526 34.979 53.5526 34.7932C53.5369 34.576 53.5369 34.3588 53.5369 34.1631V34.1631V31.8543C53.5412 31.5684 53.5063 31.2834 53.4332 31.007C53.3737 30.7944 53.2741 30.5952 53.1397 30.42C53.0239 30.2706 52.8762 30.1489 52.7073 30.0639C52.5407 29.9862 52.359 29.9461 52.1751 29.9465C51.8922 29.9416 51.6136 30.0162 51.3709 30.1617C51.1417 30.2963 50.9452 30.4801 50.7957 30.6998L51.0794 31.2066C51.1985 31.0271 51.3538 30.8745 51.5353 30.7585C51.7102 30.6458 51.9142 30.5867 52.1223 30.5883C52.3969 30.5706 52.6606 30.6984 52.8169 30.9248ZM52.2749 32.7602C52.4841 32.7294 52.6956 32.7169 52.9069 32.723L53.0537 32.7152V33.0948C53.0558 33.3187 53.0308 33.5421 52.9793 33.76C52.9346 33.9556 52.8615 34.1435 52.7621 34.3177C52.6764 34.4735 52.5558 34.6074 52.4099 34.709C52.2688 34.8035 52.1023 34.8527 51.9325 34.8499C51.8317 34.8499 51.7316 34.832 51.637 34.7971C51.5365 34.7623 51.4454 34.7047 51.3709 34.6288C51.284 34.5412 51.2172 34.4357 51.1753 34.3197C51.1264 34.1674 51.1045 34.0078 51.1107 33.8481C51.103 33.6398 51.1612 33.4344 51.277 33.2611C51.3851 33.1119 51.5301 32.9932 51.6977 32.9167C51.881 32.8356 52.0757 32.7828 52.2749 32.7602Z" fill="black"/>
<path d="M57.3864 35.3528C57.3766 35.208 57.3688 35.0573 57.3649 34.8773C57.3609 34.6973 57.3551 34.5662 57.3551 34.4508H57.3414C57.2538 34.7424 57.0832 35.0021 56.8503 35.1982C56.6584 35.3803 56.4063 35.4854 56.1419 35.4937C55.7663 35.5367 55.3984 35.3195 55.1421 34.9067C54.9012 34.4123 54.7888 33.8652 54.8153 33.3159V30.0737H55.3221V32.9892C55.3203 33.2416 55.3354 33.4939 55.3671 33.7444C55.3891 33.9467 55.4412 34.1446 55.5217 34.3314C55.5834 34.4805 55.6833 34.6108 55.8113 34.7091C55.9467 34.8025 56.1086 34.8499 56.273 34.8441C56.4127 34.842 56.5487 34.7992 56.6644 34.7208C56.8047 34.622 56.9211 34.493 57.0048 34.3432C57.1166 34.1426 57.1971 33.9262 57.2435 33.7014C57.3081 33.3999 57.3383 33.092 57.3335 32.7837V30.0737H57.8423V34.7521C57.8423 34.9791 57.854 35.1747 57.8658 35.3587L57.3864 35.3528Z" fill="black"/>
<path d="M60.7628 30.7236H59.7845V33.7975C59.782 33.96 59.7945 34.1224 59.8216 34.2827C59.8393 34.3869 59.8757 34.487 59.9293 34.5782C59.9698 34.6432 60.0292 34.6944 60.0995 34.7249C60.1654 34.7512 60.2359 34.7645 60.3069 34.7641C60.3827 34.7625 60.4576 34.7473 60.528 34.7191C60.6067 34.6876 60.681 34.6462 60.7491 34.5958L60.7706 35.2611C60.6826 35.3113 60.5886 35.3501 60.4908 35.3765C60.3874 35.4037 60.2808 35.4176 60.1738 35.4176C59.767 35.4183 59.4209 35.1213 59.3599 34.7191C59.2972 34.4877 59.2688 34.2484 59.2757 34.0088V30.7236H58.5498V30.074H59.2757V28.6006H59.7845V30.074H60.7628V30.7236Z" fill="black"/>
<path fill-rule="evenodd" clip-rule="evenodd" d="M62.3059 28.4499C62.4154 28.335 62.4699 28.1976 62.461 28.0585C62.4695 27.9213 62.415 27.7858 62.3059 27.6731C62.2408 27.5798 62.1081 27.521 61.963 27.521C61.8179 27.521 61.6853 27.5798 61.6202 27.6731C61.6087 27.6827 61.5986 27.6932 61.5902 27.7044C61.409 27.9379 61.4205 28.2242 61.6202 28.4499C61.6853 28.5431 61.8179 28.6019 61.963 28.6019C62.1081 28.6019 62.2408 28.5431 62.3059 28.4499ZM61.6093 30.0739V35.3569H62.3168V30.0739H61.6093Z" fill="black"/>
<path d="M64.911 30.7237H64.0892V35.3532H63.5804V30.7237H62.8467V30.0741H63.5804V28.632C63.5567 28.1422 63.6569 27.6542 63.872 27.2134C64.1029 26.8456 64.4335 26.6538 64.7681 26.6949C64.8384 26.6924 64.9086 26.6983 64.9775 26.7125C65.0497 26.7234 65.1201 26.7438 65.1868 26.7732L65.0988 27.4482C65.044 27.4287 64.9873 27.4072 64.9325 27.3935C64.8715 27.3794 64.8092 27.3722 64.7466 27.3719C64.6271 27.3669 64.5093 27.4021 64.412 27.4717C64.3214 27.5508 64.2538 27.6529 64.2163 27.7672C64.1639 27.9075 64.131 28.0543 64.1185 28.2035C64.1006 28.3784 64.0914 28.5541 64.0911 28.7299V30.0741H64.9149L64.911 30.7237Z" fill="black"/>
<path d="M68.1789 35.3528C68.1789 35.208 68.1613 35.0573 68.1573 34.8773C68.1534 34.6973 68.1476 34.5662 68.1476 34.4508H68.1339C68.0474 34.7419 67.8781 35.0016 67.6467 35.1982C67.4548 35.3803 67.2027 35.4854 66.9383 35.4937C66.5627 35.5367 66.1948 35.3195 65.9385 34.9067C65.6968 34.4174 65.5831 33.8748 65.6078 33.3296V30.0737H66.1146V32.9892C66.1128 33.2416 66.1279 33.4939 66.1596 33.7444C66.1815 33.9467 66.2336 34.1446 66.3142 34.3314C66.3759 34.4805 66.4758 34.6108 66.6038 34.7091C66.7392 34.8025 66.9011 34.8499 67.0655 34.8441C67.2052 34.842 67.3412 34.7992 67.4569 34.7208C67.6011 34.6236 67.721 34.4943 67.8071 34.3432C67.9188 34.1426 67.9993 33.9262 68.0458 33.7014C68.1104 33.3999 68.1406 33.092 68.1358 32.7837V30.0737H68.6446V34.7521C68.6446 34.9791 68.6563 35.1747 68.668 35.3587L68.1789 35.3528Z" fill="black"/>
<path d="M70.5058 35.3528H69.9971V26.8315H70.5058V35.3528Z" fill="black"/>
<path d="M72.3896 35.3528H71.8809V26.8315H72.3896V35.3528Z" fill="black"/>
<path d="M74.9553 34.531H74.969L76.055 30.0816H76.6126L74.8712 36.7127C74.7945 37.0578 74.6623 37.3882 74.4799 37.691C74.3291 37.9298 74.0614 38.0689 73.7794 38.0549C73.6249 38.056 73.4712 38.0336 73.3235 37.9884L73.3763 37.2899C73.4919 37.3494 73.62 37.3809 73.75 37.3819C73.9215 37.3839 74.0799 37.2904 74.1609 37.1392C74.2818 36.9218 74.3702 36.6877 74.4231 36.4446L74.7068 35.343L73.1963 30.0757H73.7657L74.9553 34.531Z" fill="black"/>
<path fill-rule="evenodd" clip-rule="evenodd" d="M81.5627 35.2295C81.8238 35.0313 82.0266 34.7663 82.1497 34.4625H82.1673V35.3469H82.678V26.8315H82.1634V30.9797H82.1497C82.0271 30.6712 81.8245 30.4011 81.5627 30.197C81.3505 30.0313 81.0903 29.9386 80.8211 29.9328C80.5574 29.9291 80.2985 30.004 80.0776 30.1481C79.8469 30.2989 79.653 30.4995 79.5102 30.7351C79.3417 31.0087 79.2176 31.3072 79.1423 31.6195C78.9682 32.3363 78.9682 33.0844 79.1423 33.8012C79.2176 34.1135 79.3417 34.412 79.5102 34.6856C79.6547 34.9199 79.8483 35.1202 80.0776 35.2726C80.2993 35.4149 80.5576 35.4897 80.8211 35.4878C81.0894 35.4821 81.3489 35.3917 81.5627 35.2295ZM79.6373 33.5488C79.5766 33.2784 79.5464 33.0021 79.5473 32.725C79.5464 32.4466 79.5766 32.169 79.6373 31.8973C79.6891 31.6591 79.7769 31.4302 79.8976 31.2184C80.0003 31.0387 80.1413 30.8837 80.3104 30.7644C80.4751 30.6501 80.6716 30.5906 80.872 30.5942C81.064 30.5947 81.2516 30.6512 81.412 30.7566C81.5844 30.8758 81.7292 31.0306 81.8366 31.2105C81.9639 31.4201 82.0589 31.6477 82.1184 31.8856C82.2515 32.436 82.2515 33.0101 82.1184 33.5605C82.0589 33.7978 81.9639 34.0247 81.8366 34.2336C81.5842 34.6288 81.2359 34.8402 80.872 34.8402C80.6728 34.8433 80.4772 34.7867 80.3104 34.6777C80.1394 34.5606 79.9981 34.4051 79.8976 34.2238C79.7769 34.0134 79.6891 33.7857 79.6373 33.5488Z" fill="black"/>
<path fill-rule="evenodd" clip-rule="evenodd" d="M87.2193 32.725V32.5587C87.2213 32.2117 87.1832 31.8657 87.1058 31.5275C87.0434 31.2367 86.9357 30.9574 86.7868 30.6999C86.6586 30.4747 86.4797 30.2824 86.2644 30.1383C86.049 29.997 85.796 29.9241 85.5385 29.9289C85.2914 29.929 85.0498 30.0018 84.8439 30.1383C84.6164 30.291 84.4247 30.4912 84.2823 30.7253C84.1116 30.9984 83.9855 31.2969 83.9086 31.6097C83.8159 31.9701 83.7705 32.3411 83.7736 32.7133C83.7708 33.085 83.8175 33.4555 83.9125 33.8149C83.9919 34.1274 84.1193 34.4258 84.2901 34.6993C84.4344 34.9351 84.6296 35.1357 84.8615 35.2863C85.0771 35.4238 85.3277 35.4965 85.5835 35.4956C85.8742 35.4944 86.1575 35.4043 86.3955 35.2374C86.6949 35.0104 86.9341 34.7134 87.0921 34.3725L86.7105 33.9264C86.6113 34.166 86.4619 34.3815 86.2722 34.5584C85.9567 34.8747 85.4624 34.9262 85.0885 34.6817C84.7467 34.4364 84.5066 34.0744 84.4134 33.6642C84.3499 33.4213 84.3151 33.1717 84.3097 32.9207H87.2193V32.725ZM86.3857 31.0814C86.5972 31.457 86.7071 31.8812 86.7047 32.3122L84.3254 32.32C84.3345 32.1 84.3726 31.8823 84.4389 31.6723C84.4971 31.4776 84.582 31.2919 84.6913 31.1205C84.792 30.9667 84.9215 30.8338 85.0728 30.7292C85.2129 30.6374 85.3768 30.5884 85.5444 30.5883C85.8958 30.5792 86.222 30.7703 86.3857 31.0814Z" fill="black"/>
<path d="M90.174 31.3321C90.1084 31.1277 89.9911 30.9437 89.8335 30.798C89.6936 30.6636 89.5071 30.5886 89.3131 30.5886C89.2219 30.5891 89.1314 30.6043 89.045 30.6336C88.9553 30.6636 88.8736 30.7138 88.8063 30.7804C88.7318 30.8537 88.6744 30.9426 88.638 31.0406C88.5924 31.1584 88.5705 31.2841 88.5734 31.4104C88.5581 31.619 88.6288 31.8247 88.7691 31.9798C88.9525 32.1384 89.1702 32.2523 89.405 32.3124C89.7599 32.4009 90.0793 32.5954 90.3207 32.8701C90.5293 33.1522 90.6337 33.4979 90.6162 33.8484C90.6223 34.1069 90.5832 34.3645 90.5008 34.6095C90.4346 34.7976 90.3314 34.9706 90.1975 35.1183C90.0819 35.2478 89.9379 35.349 89.7768 35.4137C89.6241 35.4682 89.4635 35.4972 89.3013 35.4998C89.0255 35.4949 88.7572 35.4085 88.5304 35.2513C88.2558 35.0542 88.0433 34.7826 87.918 34.4687L88.321 34.0167C88.5304 34.5293 88.908 34.8404 89.2994 34.8385C89.4059 34.8387 89.5119 34.8242 89.6144 34.7954C89.7125 34.765 89.8018 34.7113 89.8746 34.6389C89.9539 34.5535 90.0151 34.453 90.0546 34.3434C90.102 34.1984 90.1219 34.0458 90.1133 33.8934C90.1291 33.6552 90.0312 33.4237 89.8492 33.2692C89.6155 33.0984 89.3559 32.9663 89.0802 32.8779C88.9765 32.8388 88.8669 32.7918 88.7495 32.7351C88.6257 32.6747 88.5148 32.591 88.4228 32.4885C88.3173 32.3677 88.2338 32.2293 88.1762 32.0796C88.1065 31.8797 88.0734 31.669 88.0784 31.4574C88.0731 31.2221 88.1088 30.9877 88.1841 30.7647C88.2453 30.59 88.3404 30.4291 88.4639 30.2912C88.576 30.1708 88.7128 30.076 88.865 30.0133C89.0127 29.9554 89.17 29.9255 89.3287 29.9253C89.5864 29.9294 89.8357 30.0173 90.039 30.1757C90.2773 30.3499 90.4573 30.592 90.5555 30.8704L90.174 31.3321Z" fill="black"/>
<path fill-rule="evenodd" clip-rule="evenodd" d="M92.3749 28.4499C92.485 28.3352 92.5402 28.1978 92.5323 28.0585C92.5409 27.921 92.4855 27.7853 92.3749 27.6731C92.31 27.5798 92.1777 27.521 92.033 27.521C91.8883 27.521 91.756 27.5798 91.691 27.6731C91.6796 27.6827 91.6696 27.6932 91.6612 27.7044C91.4804 27.9379 91.4919 28.2242 91.691 28.4499C91.756 28.5431 91.8883 28.6019 92.033 28.6019C92.1777 28.6019 92.31 28.5431 92.3749 28.4499ZM91.6829 35.3569H92.3858V30.0739H91.6829V35.3569Z" fill="black"/>
<path fill-rule="evenodd" clip-rule="evenodd" d="M94.2611 37.0965C94.0209 36.9135 93.8249 36.6787 93.6878 36.4097L93.3082 36.9595C93.4989 37.2731 93.7569 37.5405 94.0635 37.7422C94.3379 37.9276 94.6599 38.0302 94.991 38.0376C95.328 38.0537 95.6611 37.9596 95.9399 37.7696C96.1853 37.5923 96.3863 37.3606 96.5269 37.0926C96.6734 36.8162 96.7726 36.5173 96.8204 36.2082C96.8702 35.9074 96.8964 35.6032 96.8987 35.2983V30.074H96.39V31.0113H96.3743C96.2588 30.7021 96.0596 30.4311 95.7991 30.2286C95.5868 30.0578 95.324 29.9622 95.0516 29.9566C94.7874 29.9538 94.5282 30.0286 94.3061 30.1719C94.0759 30.3232 93.8821 30.5236 93.7387 30.7589C93.5721 31.0268 93.4486 31.3193 93.3728 31.6257C93.1987 32.3239 93.1987 33.0543 93.3728 33.7525C93.4458 34.0549 93.5695 34.3427 93.7387 34.6037C93.8846 34.829 94.0783 35.0194 94.3061 35.1613C94.5315 35.2948 94.7897 35.3626 95.0516 35.357C95.3251 35.3511 95.5891 35.2556 95.803 35.085C96.0617 34.889 96.2598 34.6238 96.3743 34.32H96.3958V35.3081C96.3972 35.578 96.3716 35.8474 96.3195 36.1123C96.2778 36.3434 96.1984 36.5662 96.0847 36.7717C95.9859 36.9536 95.8408 37.1061 95.664 37.2139C95.2176 37.4707 94.6587 37.424 94.2611 37.0965ZM93.8737 33.4336C93.8139 33.177 93.7844 32.9144 93.7857 32.6509C93.7842 32.3862 93.8138 32.1222 93.8737 31.8644C93.9279 31.6343 94.0156 31.4135 94.1339 31.2089C94.2385 31.0316 94.38 30.8788 94.5488 30.7608C94.7128 30.6468 94.9086 30.5873 95.1084 30.5906C95.3016 30.5903 95.4902 30.6497 95.6484 30.7608C95.8181 30.8813 95.9629 31.0335 96.0749 31.2089C96.2004 31.4122 96.2947 31.6331 96.3547 31.8644C96.4229 32.1196 96.4571 32.3828 96.4565 32.647C96.4585 32.9294 96.4243 33.2108 96.3547 33.4845C96.2972 33.7141 96.2027 33.9328 96.0749 34.1321C95.9646 34.3008 95.8191 34.4437 95.6484 34.5509C95.4845 34.6463 95.298 34.6963 95.1084 34.6957C94.9099 34.698 94.7151 34.6415 94.5488 34.5332C94.3787 34.4176 94.237 34.2651 94.1339 34.0871C94.0153 33.8834 93.9276 33.6631 93.8737 33.4336Z" fill="black"/>
<path d="M98.6854 30.074C98.6854 30.2149 98.7011 30.3675 98.7069 30.5456C98.7128 30.7236 98.7069 30.8625 98.7069 30.9741H98.7226C98.8123 30.6833 98.981 30.4232 99.2098 30.2227C99.4034 30.0423 99.6556 29.9381 99.9201 29.9292C100.296 29.8862 100.662 30.1033 100.918 30.5162C101.172 31.0164 101.292 31.5739 101.266 32.1344V35.3765H100.759V32.4298C100.76 32.178 100.744 31.9264 100.713 31.6765C100.691 31.4744 100.639 31.2767 100.56 31.0895C100.498 30.9399 100.397 30.8096 100.268 30.7119C100.135 30.6167 99.9726 30.5691 99.8085 30.5769C99.6687 30.578 99.5324 30.6209 99.4172 30.7001C99.2771 30.7986 99.1613 30.9277 99.0787 31.0778C98.966 31.2781 98.8848 31.4945 98.838 31.7195C98.7744 32.0219 98.7442 32.3303 98.748 32.6392V35.3394H98.2413V30.6982C98.2413 30.4712 98.2276 30.2716 98.2178 30.0916L98.6854 30.074Z" fill="black"/>
<path fill-rule="evenodd" clip-rule="evenodd" d="M105.766 32.9129V32.5587C105.77 32.2191 105.734 31.8803 105.659 31.5491C105.598 31.2455 105.487 30.954 105.332 30.6862C105.203 30.4618 105.024 30.2698 104.81 30.1246C104.594 29.9834 104.341 29.9104 104.084 29.9153C103.837 29.9153 103.595 29.9882 103.389 30.1246C103.161 30.2773 102.97 30.4776 102.827 30.7116C102.657 30.9852 102.53 31.2836 102.452 31.596C102.361 31.9568 102.316 32.3276 102.319 32.6996C102.314 33.0715 102.361 33.4422 102.458 33.8012C102.537 34.1136 102.663 34.4119 102.833 34.6856C102.979 34.9211 103.175 35.1216 103.407 35.2726C103.622 35.4101 103.873 35.4828 104.129 35.482C104.419 35.4807 104.703 35.3906 104.941 35.2237C105.237 34.9977 105.474 34.7029 105.631 34.3647L105.24 33.9186C105.141 34.1582 104.991 34.3737 104.802 34.5506C104.487 34.8611 104 34.9123 103.628 34.6739C103.465 34.5683 103.327 34.4288 103.223 34.2649C103.102 34.0773 103.011 33.872 102.953 33.6564C102.889 33.4135 102.854 33.1639 102.849 32.9129H105.766ZM104.933 31.0814C105.143 31.4572 105.253 31.8814 105.25 32.3122L102.855 32.32C102.864 32.1001 102.902 31.8823 102.968 31.6723C103.027 31.4763 103.114 31.2903 103.229 31.1206C103.33 30.9644 103.464 30.8312 103.62 30.7292C103.76 30.6374 103.924 30.5884 104.091 30.5884C104.443 30.5792 104.769 30.7703 104.933 31.0814Z" fill="black"/>
<path fill-rule="evenodd" clip-rule="evenodd" d="M109.142 35.2295C109.403 35.0317 109.606 34.7666 109.729 34.4625H109.744V35.3469H110.253V26.8315H109.744V30.9797H109.729C109.607 30.6705 109.405 30.4 109.142 30.197C108.931 30.0305 108.671 29.9378 108.402 29.9328C108.138 29.9291 107.88 30.004 107.659 30.1481C107.427 30.2978 107.233 30.4986 107.091 30.7351C106.922 31.0085 106.798 31.307 106.723 31.6195C106.549 32.3363 106.549 33.0844 106.723 33.8012C106.799 34.1135 106.923 34.412 107.091 34.6856C107.235 34.9204 107.429 35.1207 107.659 35.2726C107.88 35.4149 108.139 35.4897 108.402 35.4878C108.67 35.4821 108.929 35.3917 109.142 35.2295ZM107.226 33.5488C107.165 33.2786 107.134 33.0021 107.136 32.725C107.134 32.4466 107.165 32.1689 107.226 31.8973C107.277 31.659 107.364 31.4299 107.484 31.2184C107.587 31.0381 107.729 30.8831 107.899 30.7644C108.064 30.6501 108.26 30.5906 108.461 30.5942C108.652 30.5945 108.839 30.651 108.999 30.7566C109.171 30.8762 109.317 31.0309 109.426 31.2105C109.553 31.4196 109.648 31.6474 109.705 31.8856C109.842 32.4355 109.842 33.0106 109.705 33.5605C109.648 33.7981 109.553 34.0252 109.426 34.2336C109.233 34.5909 108.867 34.821 108.461 34.8402C108.262 34.8433 108.066 34.7867 107.899 34.6777C107.727 34.5612 107.585 34.4056 107.484 34.2238C107.364 34.0137 107.276 33.7859 107.226 33.5488Z" fill="black"/>
<path d="M111.705 37.0453H111.278L111.779 34.668H112.309L111.705 37.0453Z" fill="#111111"/>
<path fill-rule="evenodd" clip-rule="evenodd" d="M115.205 38.0528H115.714L115.724 34.476H115.745C115.868 34.778 116.071 35.0406 116.332 35.2352C116.543 35.4005 116.8 35.4937 117.068 35.5013C117.331 35.5032 117.59 35.4285 117.811 35.2861C118.042 35.1343 118.236 34.934 118.381 34.6991C118.547 34.4247 118.67 34.1264 118.747 33.8147C118.921 33.0972 118.921 32.3485 118.747 31.6311C118.672 31.3189 118.548 31.0205 118.381 30.7466C118.237 30.5113 118.042 30.3109 117.811 30.1596C117.59 30.0164 117.331 29.9416 117.068 29.9444C116.8 29.952 116.543 30.0453 116.332 30.2105C116.066 30.4107 115.863 30.6821 115.745 30.9932H115.714V30.0736H115.205V38.0528ZM118.234 31.8972C118.295 32.1688 118.325 32.4464 118.324 32.7248C118.325 33.0019 118.295 33.2782 118.234 33.5486C118.184 33.7857 118.097 34.0135 117.976 34.2236C117.875 34.4051 117.733 34.5605 117.561 34.6776C117.394 34.7866 117.199 34.8431 116.999 34.84C116.594 34.8209 116.228 34.5907 116.035 34.2334C115.907 34.0245 115.812 33.7976 115.753 33.5603C115.62 33.01 115.62 32.4358 115.753 31.8854C115.812 31.6475 115.907 31.42 116.035 31.2104C116.142 31.0299 116.288 30.875 116.461 30.7564C116.621 30.6508 116.808 30.5944 116.999 30.594C117.2 30.5904 117.396 30.65 117.561 30.7643C117.731 30.8829 117.873 31.038 117.976 31.2182C118.097 31.4298 118.184 31.6588 118.234 31.8972Z" fill="black"/>
<path d="M119.946 30.688C119.946 30.465 119.933 30.2615 119.925 30.0815H120.41C120.41 30.2224 120.428 30.3769 120.434 30.553C120.439 30.7291 120.434 30.872 120.434 30.9835H120.441C120.651 30.3398 121.087 29.9367 121.563 29.9465H121.739C121.794 29.9548 121.848 29.9699 121.899 29.9915L121.833 30.7233C121.785 30.702 121.735 30.6863 121.684 30.6763C121.614 30.664 121.543 30.6574 121.473 30.6567C121.334 30.6556 121.198 30.6943 121.081 30.7683C120.945 30.8567 120.833 30.9786 120.756 31.1224C120.653 31.3155 120.577 31.5224 120.531 31.7368C120.471 32.0349 120.443 32.3386 120.447 32.6427V35.341H119.939V31.2516C119.954 31.1009 119.952 30.915 119.946 30.688Z" fill="black"/>
<path fill-rule="evenodd" clip-rule="evenodd" d="M125.697 32.725V32.5587C125.701 32.2101 125.666 31.8622 125.591 31.5217C125.529 31.2308 125.421 30.9515 125.272 30.694C125.144 30.4688 124.965 30.2766 124.75 30.1324C124.534 29.9912 124.281 29.9182 124.024 29.9231C123.777 29.9231 123.535 29.996 123.329 30.1324C123.102 30.2851 122.91 30.4854 122.768 30.7194C122.597 30.9925 122.471 31.2911 122.394 31.6039C122.301 31.9643 122.256 32.3353 122.259 32.7074C122.256 33.0791 122.303 33.4496 122.398 33.809C122.477 34.1216 122.605 34.4199 122.775 34.6934C122.92 34.9293 123.115 35.1298 123.347 35.2804C123.562 35.418 123.813 35.4906 124.069 35.4898C124.36 35.4886 124.643 35.3984 124.881 35.2315C125.177 35.0055 125.415 34.7107 125.572 34.3725L125.18 33.9264C125.081 34.166 124.932 34.3815 124.742 34.5584C124.428 34.8689 123.94 34.9201 123.568 34.6817C123.226 34.4364 122.986 34.0744 122.893 33.6642C122.829 33.4213 122.795 33.1717 122.789 32.9207H125.697V32.725ZM124.863 31.0814C125.075 31.457 125.185 31.8812 125.182 32.3122L122.795 32.32C122.804 32.1 122.842 31.8823 122.909 31.6723C122.969 31.477 123.056 31.2912 123.169 31.1206C123.269 30.9667 123.399 30.8338 123.55 30.7292C123.69 30.6374 123.854 30.5884 124.022 30.5883C124.373 30.5792 124.7 30.7703 124.863 31.0814Z" fill="black"/>
<path d="M129.311 31.2868C129.231 31.0914 129.103 30.9192 128.939 30.7859C128.791 30.6616 128.604 30.5925 128.411 30.5902C128.215 30.5888 128.023 30.6453 127.859 30.7526C127.687 30.8714 127.542 31.0263 127.436 31.2066C127.311 31.4158 127.22 31.6437 127.166 31.8816C127.101 32.1566 127.07 32.4385 127.072 32.721C127.07 33.0004 127.101 33.279 127.166 33.5507C127.22 33.7862 127.309 34.012 127.432 34.2198C127.535 34.4015 127.678 34.5569 127.851 34.6738C128.015 34.7824 128.208 34.839 128.405 34.8362C128.611 34.8419 128.813 34.7723 128.972 34.6405C129.137 34.5054 129.27 34.3366 129.364 34.1455L129.755 34.576C129.432 35.1786 128.937 35.5171 128.422 35.4858C128.151 35.4888 127.884 35.4164 127.651 35.2764C127.414 35.1277 127.213 34.927 127.064 34.6894C126.891 34.4171 126.764 34.1184 126.687 33.805C126.507 33.081 126.507 32.3239 126.687 31.5999C126.764 31.2865 126.891 30.9878 127.064 30.7155C127.213 30.4779 127.414 30.2772 127.651 30.1285C127.884 29.9877 128.151 29.9151 128.422 29.9191C128.677 29.9259 128.925 30.0053 129.137 30.148C129.391 30.3185 129.594 30.5553 129.724 30.8329L129.311 31.2868Z" fill="black"/>
<path fill-rule="evenodd" clip-rule="evenodd" d="M131.276 28.4499C131.385 28.3351 131.44 28.1977 131.431 28.0586C131.439 27.9213 131.385 27.7859 131.276 27.6731C131.201 27.5857 131.073 27.5295 130.93 27.5225C130.789 27.5288 130.66 27.5852 130.588 27.6731L130.566 27.6966C130.379 27.9313 130.388 28.221 130.588 28.4499C130.66 28.5378 130.789 28.5942 130.93 28.6006C131.073 28.5942 131.202 28.5379 131.276 28.4499ZM130.58 35.3569H131.284V30.0739H130.58V35.3569Z" fill="black"/>
<path d="M134.259 31.3321C134.195 31.1276 134.078 30.9434 133.92 30.798C133.781 30.6636 133.594 30.5886 133.4 30.5886C133.308 30.5891 133.217 30.6043 133.13 30.6336C133.041 30.6649 132.959 30.7149 132.891 30.7804C132.817 30.8537 132.759 30.9426 132.723 31.0406C132.677 31.1584 132.655 31.2841 132.658 31.4104C132.645 31.6187 132.716 31.8237 132.854 31.9798C133.037 32.1375 133.254 32.2512 133.488 32.3124C133.843 32.4015 134.163 32.5959 134.406 32.8701C134.614 33.1522 134.719 33.498 134.701 33.8484C134.708 34.1071 134.668 34.3649 134.584 34.6095C134.52 34.7983 134.417 34.9716 134.282 35.1183C134.167 35.2484 134.022 35.3495 133.86 35.4137C133.707 35.4691 133.547 35.4982 133.384 35.4998C133.108 35.4949 132.84 35.4085 132.613 35.2513C132.34 35.0532 132.127 34.782 132.001 34.4687L132.406 34.0167C132.487 34.2411 132.621 34.4426 132.797 34.6037C132.952 34.7525 133.158 34.8371 133.373 34.8404C133.479 34.841 133.585 34.8258 133.688 34.7954C133.787 34.767 133.876 34.713 133.948 34.6389C134.127 34.4424 134.217 34.1803 134.196 33.9149C134.216 33.6731 134.122 33.4361 133.942 33.2731C133.709 33.1027 133.45 32.9706 133.175 32.8818C133.071 32.8427 132.96 32.7957 132.842 32.739C132.72 32.6774 132.61 32.5938 132.518 32.4924C132.412 32.372 132.328 32.2335 132.271 32.0835C132.201 31.8837 132.168 31.6729 132.173 31.4613C132.145 31.0338 132.285 30.6122 132.564 30.2873C132.674 30.1687 132.808 30.0741 132.956 30.0094C133.104 29.9524 133.261 29.9226 133.42 29.9214C133.678 29.9255 133.928 30.0134 134.132 30.1718C134.369 30.3462 134.549 30.5883 134.646 30.8665L134.259 31.3321Z" fill="black"/>
<path fill-rule="evenodd" clip-rule="evenodd" d="M136.465 28.4499C136.575 28.335 136.629 28.1976 136.62 28.0585C136.629 27.9213 136.574 27.7858 136.465 27.6731C136.4 27.5798 136.267 27.521 136.122 27.521C135.977 27.521 135.844 27.5798 135.779 27.6731C135.768 27.6827 135.758 27.6932 135.749 27.7044C135.568 27.9379 135.58 28.2242 135.779 28.4499C135.844 28.5431 135.977 28.6019 136.122 28.6019C136.267 28.6019 136.4 28.5431 136.465 28.4499ZM135.768 30.0739V35.3569H136.476V30.0739H135.768Z" fill="black"/>
<path fill-rule="evenodd" clip-rule="evenodd" d="M140.928 33.8268C141.023 33.4674 141.07 33.097 141.067 32.7252C141.07 32.3522 141.023 31.9804 140.928 31.6197C140.75 30.9447 140.396 30.4223 139.95 30.162C139.488 29.8822 138.909 29.8822 138.447 30.162C138.001 30.4223 137.647 30.9506 137.469 31.6197C137.283 32.3437 137.283 33.1029 137.469 33.8268C137.647 34.5019 138.001 35.0243 138.447 35.2846C138.909 35.5644 139.488 35.5644 139.95 35.2846C140.396 35.0243 140.75 34.496 140.928 33.8268ZM140.435 31.8976C140.5 32.1686 140.531 32.4466 140.529 32.7252C140.53 33.0026 140.499 33.2791 140.435 33.549C140.381 33.7864 140.292 34.0141 140.169 34.224C140.066 34.4057 139.923 34.5611 139.75 34.678C139.586 34.7866 139.393 34.8432 139.196 34.8404C139.001 34.8424 138.809 34.7858 138.646 34.678C138.475 34.5604 138.333 34.4051 138.232 34.224C138.109 34.0141 138.019 33.7864 137.965 33.549C137.84 33.0056 137.84 32.4409 137.965 31.8976C138.019 31.6591 138.109 31.4301 138.232 31.2186C138.336 31.0392 138.477 30.8843 138.646 30.7647C138.807 30.6506 138.999 30.5909 139.196 30.5944C139.394 30.5931 139.587 30.6525 139.75 30.7647C139.92 30.8847 140.063 31.0394 140.169 31.2186C140.291 31.4301 140.381 31.6591 140.435 31.8976Z" fill="black"/>
<path d="M142.614 30.074C142.614 30.2148 142.632 30.3675 142.638 30.5455C142.643 30.7236 142.638 30.8625 142.638 30.974H142.653C142.743 30.6837 142.911 30.4237 143.139 30.2227C143.334 30.0434 143.586 29.9393 143.851 29.9292C144.224 29.8842 144.592 30.1014 144.847 30.5162C145.091 31.0049 145.206 31.5477 145.181 32.0932V35.3335H144.673V32.4298C144.674 32.178 144.659 31.9263 144.628 31.6765C144.603 31.4748 144.552 31.2774 144.475 31.0895C144.412 30.9406 144.311 30.8105 144.183 30.7118C144.049 30.6166 143.886 30.5691 143.722 30.5768C143.582 30.5779 143.445 30.6209 143.33 30.7001C143.189 30.7979 143.072 30.9272 142.99 31.0777C142.877 31.2773 142.795 31.4931 142.747 31.7176C142.683 32.0197 142.652 32.3282 142.657 32.6372V35.3374H142.16V30.6981C142.16 30.4712 142.146 30.2716 142.139 30.0916L142.614 30.074Z" fill="black"/>
<path fill-rule="evenodd" clip-rule="evenodd" d="M151.552 32.9131V32.5589C151.557 32.2131 151.523 31.8679 151.451 31.5297C151.388 31.2392 151.281 30.9601 151.134 30.7021C151.003 30.4771 150.824 30.2844 150.609 30.1385C150.393 29.9982 150.141 29.9253 149.883 29.9292C149.41 29.9155 148.956 30.2012 148.627 30.7118C148.457 30.9851 148.331 31.2836 148.253 31.5963C148.161 31.9567 148.115 32.3277 148.118 32.6998C148.116 33.0716 148.162 33.442 148.257 33.8014C148.337 34.114 148.464 34.4123 148.635 34.6858C148.779 34.9217 148.974 35.1222 149.206 35.2728C149.422 35.4095 149.673 35.4821 149.928 35.4822C150.219 35.481 150.502 35.3908 150.74 35.2239C151.037 34.9975 151.274 34.7028 151.433 34.3649L151.051 33.9188C150.951 34.1578 150.802 34.373 150.613 34.5508C150.296 34.8667 149.802 34.9181 149.427 34.6741C149.265 34.5685 149.127 34.429 149.024 34.2651C148.903 34.0777 148.812 33.8724 148.754 33.6566C148.689 33.4141 148.654 33.1643 148.651 32.9131H151.552ZM150.719 31.0817C150.928 31.4579 151.037 31.8818 151.036 32.3124L148.639 32.3202C148.65 32.1005 148.688 31.883 148.752 31.6726C148.813 31.4769 148.901 31.2911 149.014 31.1208C149.116 30.9646 149.25 30.8314 149.406 30.7295C149.545 30.637 149.708 30.588 149.875 30.5886C150.227 30.5791 150.554 30.7702 150.719 31.0817Z" fill="black"/>
<path d="M153.118 30.074C153.118 30.2149 153.134 30.3675 153.14 30.5456C153.145 30.7236 153.14 30.8625 153.14 30.9741H153.155C153.245 30.6837 153.413 30.4238 153.64 30.2227C153.835 30.0426 154.088 29.9385 154.353 29.9292C154.726 29.8862 155.094 30.1033 155.349 30.5162C155.598 31.0177 155.712 31.5753 155.681 32.1344V35.3765H155.173V32.4298C155.175 32.1779 155.159 31.9262 155.126 31.6765C155.103 31.4748 155.052 31.2772 154.975 31.0895C154.911 30.9405 154.81 30.8104 154.681 30.7119C154.548 30.6167 154.386 30.5691 154.222 30.5769C154.082 30.578 153.946 30.6209 153.83 30.7001C153.689 30.7979 153.572 30.9272 153.49 31.0778C153.378 31.2786 153.297 31.4949 153.249 31.7195C153.186 32.0219 153.157 32.3303 153.161 32.6392V35.3394H152.652V30.6982C152.652 30.4712 152.639 30.2716 152.631 30.0916L153.118 30.074Z" fill="black"/>
<path fill-rule="evenodd" clip-rule="evenodd" d="M157.755 37.0965C157.516 36.9128 157.321 36.6782 157.184 36.4097L156.808 36.9595C157 37.2733 157.258 37.5406 157.565 37.7422C157.839 37.9279 158.16 38.0305 158.491 38.0376C158.829 38.0533 159.162 37.9592 159.442 37.7696C159.687 37.5923 159.888 37.3606 160.029 37.0926C160.174 36.8156 160.272 36.5169 160.32 36.2081C160.372 35.9075 160.399 35.6033 160.401 35.2983V30.074H159.89V31.0113H159.874C159.76 30.7016 159.56 30.4304 159.299 30.2286C159.087 30.0578 158.824 29.9622 158.552 29.9566C158.288 29.9538 158.029 30.0287 157.808 30.1719C157.577 30.3221 157.383 30.5228 157.241 30.7589C157.073 31.0267 156.949 31.3192 156.873 31.6257C156.699 32.3239 156.699 33.0543 156.873 33.7525C156.947 34.0548 157.071 34.3426 157.241 34.6037C157.385 34.8299 157.579 35.0205 157.808 35.1613C158.033 35.2947 158.29 35.3625 158.552 35.357C158.826 35.3503 159.09 35.2548 159.305 35.085C159.563 34.8883 159.76 34.6232 159.874 34.32H159.89V35.3198C159.892 35.5897 159.867 35.8591 159.816 36.124C159.773 36.3549 159.694 36.5775 159.581 36.7834C159.481 36.9649 159.335 37.1173 159.158 37.2256C158.967 37.3422 158.746 37.4001 158.522 37.3919C158.241 37.3825 157.97 37.2784 157.755 37.0965ZM157.37 33.4336C157.308 33.1773 157.278 32.9145 157.28 32.6509C157.278 32.3861 157.308 32.122 157.37 31.8644C157.423 31.6344 157.51 31.4136 157.628 31.2089C157.733 31.032 157.875 30.8793 158.043 30.7608C158.208 30.6465 158.404 30.587 158.604 30.5906C158.797 30.59 158.985 30.6495 159.143 30.7608C159.503 31.0316 159.754 31.4235 159.849 31.8644C159.918 32.1195 159.952 32.3827 159.951 32.647C159.954 32.9294 159.919 33.211 159.849 33.4845C159.762 33.9185 159.508 34.3012 159.143 34.5509C158.979 34.6463 158.794 34.6963 158.604 34.6957C158.405 34.6978 158.21 34.6414 158.043 34.5332C157.873 34.4171 157.732 34.2647 157.628 34.0871C157.51 33.8831 157.423 33.6629 157.37 33.4336Z" fill="black"/>
<path fill-rule="evenodd" clip-rule="evenodd" d="M162.469 28.4499C162.579 28.3351 162.633 28.1977 162.624 28.0586C162.633 27.9214 162.578 27.7859 162.469 27.6732C162.402 27.5812 162.27 27.5234 162.126 27.5234C161.982 27.5234 161.85 27.5812 161.783 27.6732C161.772 27.6828 161.762 27.6933 161.753 27.7045C161.572 27.938 161.584 28.2243 161.783 28.4499C161.854 28.538 161.982 28.5946 162.123 28.6006C162.266 28.5942 162.395 28.5379 162.469 28.4499ZM161.767 30.074V35.357H162.48L162.474 30.074H161.767Z" fill="black"/>
<path d="M164.048 30.074C164.048 30.2149 164.065 30.3675 164.071 30.5456C164.077 30.7236 164.071 30.8625 164.071 30.9741H164.085C164.175 30.6833 164.343 30.4232 164.572 30.2227C164.766 30.0423 165.018 29.9381 165.282 29.9292C165.658 29.8862 166.024 30.1033 166.28 30.5162C166.531 31.0174 166.647 31.5748 166.619 32.1344V35.3765H166.11V32.4298C166.112 32.178 166.097 31.9263 166.065 31.6765C166.043 31.4744 165.992 31.2767 165.912 31.0895C165.849 30.9406 165.749 30.8106 165.621 30.7119C165.486 30.6167 165.324 30.5691 165.159 30.5769C165.019 30.578 164.883 30.6209 164.768 30.7001C164.627 30.7979 164.51 30.9272 164.427 31.0778C164.315 31.2782 164.235 31.4946 164.189 31.7195C164.124 32.0217 164.094 32.3302 164.099 32.6392V35.3394H163.59V30.6982C163.59 30.4712 163.578 30.2716 163.568 30.0916L164.048 30.074Z" fill="black"/>
<path fill-rule="evenodd" clip-rule="evenodd" d="M171.119 32.913V32.5588C171.126 32.2132 171.094 31.868 171.023 31.5296C170.961 31.2389 170.854 30.9596 170.706 30.7019C170.576 30.4769 170.397 30.2843 170.182 30.1384C169.967 29.998 169.714 29.9251 169.458 29.9291C168.982 29.9173 168.53 30.201 168.199 30.7117C168.031 30.986 167.905 31.2842 167.826 31.5961C167.733 31.9565 167.688 32.3276 167.693 32.6997C167.688 33.0714 167.734 33.442 167.83 33.8013C167.91 34.1134 168.038 34.4116 168.207 34.6857C168.353 34.9212 168.549 35.1217 168.781 35.2727C168.996 35.4102 169.246 35.4829 169.501 35.4821C169.792 35.4805 170.076 35.3904 170.315 35.2238C170.61 34.9968 170.847 34.7022 171.005 34.3648L170.614 33.9187C170.514 34.1576 170.364 34.3729 170.176 34.5507C169.859 34.8666 169.365 34.918 168.99 34.674C168.829 34.5673 168.691 34.428 168.587 34.265C168.466 34.0776 168.374 33.8722 168.317 33.6565C168.252 33.4139 168.217 33.1642 168.213 32.913H171.119ZM170.285 31.0815C170.495 31.4577 170.604 31.8816 170.602 32.3123L168.217 32.3201C168.226 32.1003 168.263 31.8825 168.329 31.6724C168.389 31.4768 168.477 31.291 168.591 31.1207C168.69 30.9655 168.82 30.8323 168.972 30.7293C169.113 30.6375 169.276 30.5885 169.444 30.5885C169.795 30.5793 170.122 30.7704 170.285 31.0815Z" fill="black"/>
<path fill-rule="evenodd" clip-rule="evenodd" d="M175.4 32.9129V32.5587C175.404 32.2072 175.367 31.8565 175.289 31.5139C175.228 31.2228 175.121 30.9434 174.972 30.6862C174.842 30.4618 174.664 30.2698 174.449 30.1246C174.234 29.9834 173.981 29.9104 173.723 29.9153C173.476 29.9153 173.235 29.9882 173.029 30.1246C172.801 30.2773 172.61 30.4776 172.467 30.7116C172.297 30.9852 172.17 31.2836 172.091 31.596C172 31.9568 171.956 32.3276 171.958 32.6996C171.953 33.0715 172 33.4422 172.097 33.8012C172.176 34.1136 172.303 34.4119 172.473 34.6856C172.618 34.9211 172.814 35.1216 173.046 35.2726C173.262 35.4101 173.513 35.4828 173.768 35.482C174.059 35.4807 174.342 35.3906 174.58 35.2237C174.877 34.9977 175.114 34.7029 175.271 34.3647L174.88 33.9186C174.78 34.1582 174.631 34.3737 174.441 34.5506C174.127 34.8611 173.639 34.9123 173.267 34.6739C173.104 34.5683 172.966 34.4288 172.862 34.2649C172.741 34.0773 172.65 33.872 172.592 33.6564C172.529 33.4135 172.494 33.1639 172.489 32.9129H175.4ZM174.567 31.0814C174.777 31.4572 174.886 31.8814 174.884 32.3122L172.498 32.32C172.507 32.1001 172.546 31.8823 172.612 31.6723C172.67 31.4763 172.758 31.2903 172.872 31.1206C172.971 30.9654 173.101 30.8322 173.254 30.7292C173.394 30.6374 173.558 30.5884 173.725 30.5884C174.077 30.5792 174.403 30.7703 174.567 31.0814Z" fill="black"/>
<path d="M176.486 30.6885C176.486 30.4654 176.473 30.2619 176.463 30.0819H176.948C176.958 30.2228 176.966 30.3774 176.972 30.5535C176.977 30.7296 176.972 30.8724 176.972 30.9839H176.989C177.201 30.3421 177.635 29.9391 178.11 29.9469H178.286C178.342 29.9542 178.396 29.9693 178.447 29.9919L178.38 30.7237C178.333 30.7025 178.283 30.6867 178.232 30.6767C178.162 30.6644 178.091 30.6578 178.02 30.6572C177.882 30.656 177.746 30.6948 177.629 30.7687C177.492 30.8571 177.381 30.979 177.304 31.1228C177.2 31.3157 177.124 31.5226 177.079 31.7372C177.018 32.0352 176.989 32.339 176.993 32.6432V35.3414H176.484V31.252C176.492 31.1013 176.49 30.9154 176.486 30.6885Z" fill="black"/>
<path fill-rule="evenodd" clip-rule="evenodd" d="M182.235 32.9131V32.5589C182.238 32.2129 182.202 31.8676 182.127 31.5297C182.065 31.2392 181.958 30.9601 181.81 30.7021C181.68 30.4771 181.501 30.2844 181.286 30.1385C181.07 29.9982 180.817 29.9253 180.56 29.9292C180.086 29.9155 179.633 30.2012 179.304 30.7118C179.133 30.9851 179.007 31.2836 178.93 31.5963C178.837 31.9567 178.792 32.3277 178.795 32.6998C178.792 33.0716 178.839 33.442 178.934 33.8014C179.013 34.114 179.141 34.4123 179.312 34.6858C179.456 34.9217 179.651 35.1222 179.883 35.2728C180.099 35.4095 180.349 35.4821 180.605 35.4822C180.896 35.481 181.179 35.3908 181.417 35.2239C181.714 34.9975 181.951 34.7028 182.11 34.3649L181.728 33.9188C181.628 34.1578 181.478 34.373 181.29 34.5508C180.973 34.8667 180.479 34.9181 180.104 34.6741C179.942 34.5685 179.804 34.429 179.701 34.2651C179.58 34.0777 179.489 33.8724 179.431 33.6566C179.366 33.4139 179.33 33.1643 179.325 32.9131H182.235ZM181.403 31.0817C181.613 31.4579 181.722 31.8818 181.72 32.3124L179.323 32.3202C179.335 32.1005 179.373 31.883 179.437 31.6726C179.497 31.4769 179.585 31.2911 179.699 31.1208C179.801 30.9646 179.934 30.8314 180.09 30.7295C180.23 30.637 180.393 30.588 180.56 30.5886C180.912 30.5791 181.239 30.7702 181.403 31.0817Z" fill="black"/>
<path fill-rule="evenodd" clip-rule="evenodd" d="M185.619 35.2295C185.881 35.0317 186.084 34.7666 186.206 34.4625H186.22V35.3469H186.731V26.8315H186.22V30.9797H186.206C186.085 30.6705 185.882 30.4 185.619 30.197C185.408 30.0305 185.147 29.9378 184.878 29.9328C184.614 29.9291 184.355 30.004 184.134 30.1481C183.904 30.2989 183.71 30.4995 183.567 30.7351C183.398 31.0082 183.274 31.3069 183.201 31.6195C183.027 32.3363 183.027 33.0844 183.201 33.8012C183.275 34.1134 183.399 34.4119 183.567 34.6856C183.711 34.9199 183.905 35.1202 184.134 35.2726C184.356 35.4149 184.614 35.4897 184.878 35.4878C185.146 35.4821 185.406 35.3917 185.619 35.2295ZM183.7 33.5488C183.64 33.2783 183.61 33.002 183.612 32.725C183.609 32.4466 183.639 32.1689 183.7 31.8973C183.752 31.6592 183.84 31.4303 183.96 31.2184C184.063 31.0381 184.205 30.8831 184.375 30.7644C184.539 30.6504 184.735 30.5909 184.934 30.5942C185.126 30.5947 185.314 30.6512 185.475 30.7566C185.647 30.8762 185.792 31.0309 185.901 31.2105C186.029 31.4196 186.123 31.6474 186.181 31.8856C186.318 32.4355 186.318 33.0106 186.181 33.5605C185.987 34.3432 185.488 34.8538 184.934 34.8402C184.736 34.8441 184.541 34.7875 184.375 34.6777C184.203 34.5612 184.061 34.4056 183.96 34.2238C183.84 34.0132 183.752 33.7856 183.7 33.5488Z" fill="black"/>
<path fill-rule="evenodd" clip-rule="evenodd" d="M58.5071 19.1536C57.7929 15.6218 59.46 12.0822 59.9765 11.6909L59.9804 11.7124C60.3519 11.4085 60.8729 11.367 61.2877 11.6084C61.7026 11.8498 61.9239 12.3233 61.8432 12.7964L61.3286 14.3109C60.8453 15.5807 60.3757 17.4082 60.454 19.1536C60.5981 21.609 61.5658 20.8802 61.8872 20.6381C61.9192 20.614 61.9448 20.5947 61.9625 20.5839C62.121 20.4646 62.8763 19.631 63.1933 17.7252C63.432 16.2949 64.3086 12.8414 67.2436 11.372C69.3078 10.3799 70.7773 11.4522 70.7773 12.7631C70.8164 14.0252 69.4272 13.7415 69.0691 13.3501C69.028 13.3044 68.9868 13.254 68.9445 13.2023C68.7011 12.9046 68.4193 12.5598 67.8775 12.7631C66.7622 13.2327 65.2536 15.6218 65.3339 18.3201C65.3339 20.9811 67.8345 20.4646 69.3039 19.3923C70.7734 18.2751 71.7204 15.7314 71.8045 15.1053C72.2883 10.779 73.5673 6.57927 75.577 2.71765C76.8077 1.40864 77.9582 2.67851 77.6804 3.19507C77.3433 4.01904 76.9724 4.86842 76.5923 5.7387C74.9578 9.48114 73.1546 13.6099 73.1546 17.7644C74.2269 14.5574 76.4164 12.0137 78.5942 11.6987C80.6584 11.3798 80.9754 12.8492 80.5391 14.08C80.4606 14.2767 80.369 14.4801 80.272 14.6956C79.7813 15.7856 79.1498 17.1885 79.3475 19.6388C79.3532 19.7281 79.3608 19.8256 79.3688 19.9284C79.4214 20.6028 79.4914 21.5011 79.1518 21.7423C78.238 22.3019 77.8017 21.1083 77.7626 19.7582C77.7626 18.642 78.3522 16.4046 78.6284 15.3566C78.6882 15.1297 78.7334 14.9585 78.7546 14.8665C79.2712 12.8414 77.3654 13.6358 76.8097 14.1915C74.9363 16.1346 74.0389 19.2721 73.6957 20.472C73.6532 20.6206 73.6192 20.7394 73.5929 20.8226C73.3151 21.6562 72.2017 21.259 72.0061 20.265C72.0042 20.2597 72.0022 20.2541 72.0001 20.2481C71.9542 20.12 71.8385 19.7968 71.6871 18.2418C69.345 21.6562 64.8584 22.926 63.5494 20.1476C61.2855 22.8869 59.2213 22.1316 58.5071 19.1536ZM56.8791 19.494C56.4878 17.9052 56.7598 14.6494 56.9985 12.7436C57.2084 11.0823 57.5469 9.77916 57.8417 8.64424C58.1597 7.41987 58.4269 6.39128 58.4269 5.32C58.4269 4.32798 58.149 2.30283 56.0065 2.22261C50.7235 2.06412 48.7805 14.8489 48.5418 16.6354C48.4969 16.3366 48.4803 15.4762 48.4582 14.3372V14.3372C48.4216 12.4479 48.3702 9.79229 48.1505 7.66213C47.5106 2.62177 46.3895 2.30283 45.327 2.23044C41.698 1.96697 41.2162 8.36421 41.194 15.0243C41.1541 13.5445 40.9458 11.7657 40.0069 10.7165C39.2927 9.92207 38.2204 10.0003 38.9346 11.0335L39.2125 11.55C39.8495 12.4862 40.1241 14.8197 40.3824 17.0149C40.6715 19.4717 40.9403 21.7553 41.6739 21.7129C42.1103 21.7129 42.7853 21.5172 42.707 19.6878C42.5466 14.1308 42.9849 4.20471 44.8496 4.20471C46.2466 4.20471 46.4723 8.89021 46.6731 13.0608V13.0608C46.7634 14.936 46.8487 16.707 47.0332 17.9013C47.3502 19.8462 49.4164 20.0047 50.0113 17.2263C50.2333 16.2429 50.3989 15.353 50.557 14.5037C50.9925 12.1644 51.3707 10.1329 52.7115 7.3021C55.1729 2.14043 57.1961 3.84664 56.2843 7.4195C56.2209 7.71579 56.1279 8.07987 56.0197 8.50361L56.0197 8.50364C55.4605 10.6936 54.4943 14.4773 55.0927 18.7349C55.3314 20.2043 56.2843 22.0612 56.9985 21.6699C57.3788 21.4797 57.2047 20.7962 56.9055 19.6211L56.8791 19.5175V19.494ZM110.476 12.0294C110.634 12.5851 111.229 12.6164 111.388 11.91C111.548 11.0374 110.801 10.3623 109.879 10.0845C107.895 9.49747 105.117 11.5931 106.862 14.0154C107.392 14.7226 108.119 15.0599 108.821 15.3855C109.223 15.5716 109.616 15.754 109.959 15.9995C110.317 16.2382 112.063 17.5883 110.079 19.5723C108.609 21.0809 105.792 20.3667 105.631 18.6605C105.617 18.4979 105.673 18.4021 105.738 18.2928C105.847 18.1076 105.98 17.8837 105.827 17.2302C105.708 16.6745 104.516 16.6745 104.238 17.7468C104.119 18.4609 104.119 20.2082 106.541 21.3196C109.916 22.9476 114.442 19.6134 112.411 16.5962C111.721 15.5926 110.634 14.9406 109.691 14.3745C108.843 13.8656 108.11 13.4261 107.885 12.8629C107.249 11.3543 110.071 10.7595 110.462 12.0294H110.476Z" fill="#C4051C"/>
<path fill-rule="evenodd" clip-rule="evenodd" d="M88.9899 13.141C88.8314 13.8102 88.2757 13.6967 88.1564 13.4189H88.1505C88.0782 13.2506 88.0339 13.2137 87.9668 13.1577C87.923 13.1212 87.8696 13.0767 87.7924 12.9825C86.4423 11.6324 85.0923 12.7849 84.2196 13.8552C82.7912 15.4831 81.0439 21.1222 82.9497 20.1283C84.5556 19.3414 85.9454 16.9311 86.8284 15.3999C87.0147 15.0767 87.1785 14.7927 87.317 14.5713C88.1094 13.3797 89.4967 13.9354 89.301 15.3247C89.2928 15.381 89.2813 15.4539 89.2676 15.5405C89.1544 16.2569 88.8924 17.9147 89.1054 18.9777C89.2782 20.054 90.3622 18.7931 90.9234 18.1403C91.004 18.0466 91.0738 17.9654 91.1285 17.9055C91.1285 17.8638 91.1189 17.7883 91.1055 17.6828C91.0167 16.9869 90.7612 14.9849 92.0032 12.7438C94.0342 8.93421 98.1236 10.1336 97.0905 13.46C96.6933 14.6907 95.7795 16.1993 93.9148 16.8743C93.2848 17.1111 92.8485 16.436 93.5235 15.9214C93.5909 15.8707 93.6599 15.8224 93.7309 15.7726C94.1612 15.471 94.6672 15.1164 95.3491 13.8552C95.9458 12.7849 95.2708 11.9103 94.1985 12.6656C92.6567 13.775 91.8956 18.8623 94.269 20.367C96.5407 21.5175 98.2801 19.1754 99.867 16.2775C99.0315 12.9434 99.1919 7.02842 101.575 4.05038C104.037 0.868852 107.451 2.09372 107.529 4.44171C107.593 7.55236 105.165 11.883 103.989 13.9795C103.695 14.5046 103.479 14.8896 103.401 15.0801C103.123 15.716 102.209 15.4381 102.647 14.5244C105.584 9.25314 105.743 5.27525 105.623 4.36149C105.465 2.73355 104.115 3.09162 102.845 4.51998C99.8279 8.68767 101.178 14.8825 102.131 18.4553C102.266 18.9729 102.421 19.4352 102.552 19.8265L102.552 19.8267L102.552 19.827L102.552 19.827L102.552 19.8271C102.732 20.3674 102.868 20.772 102.845 20.999C102.767 22.2297 101.814 22.0712 101.336 21.1183C101.178 20.7994 100.861 20.1243 100.384 18.3379C98.0023 22.1104 94.7855 22.308 92.96 21.1183C92.3417 20.6413 91.8393 20.0306 91.4905 19.3319C88.9899 21.674 86.8846 20.0852 86.8846 17.6237C86.8427 17.6762 86.7827 17.7578 86.7058 17.8625C86.201 18.5499 84.9656 20.2321 83.3117 21.1966C81.7248 22.0712 80.3747 21.5547 80.2554 20.0852C80.0969 17.2657 82.8362 13.456 83.75 12.4229C84.8203 11.3115 85.8534 10.5563 87.2035 10.5974C88.5986 10.6404 89.1856 12.4268 88.9899 13.141ZM60.9295 10.0847C60.3738 8.97334 61.2856 7.94022 62.08 7.86196V7.85609C62.9996 7.77586 63.3909 8.2122 63.3909 8.88725C63.3909 9.56229 62.6357 10.3176 62.1993 10.4761C61.7388 10.6972 61.1856 10.5267 60.9295 10.0847ZM112.262 10.1239H112.302C112.382 10.1239 112.46 10.1239 112.46 10.0456C112.46 10.0045 112.421 9.96536 112.341 9.96536H112.262V10.1239ZM112.104 10.4819H112.262V10.2432H112.302C112.421 10.2432 112.421 10.2823 112.421 10.3234L112.501 10.4819H112.619L112.579 10.3234C112.579 10.2432 112.54 10.1649 112.46 10.1649C112.579 10.1649 112.579 10.0847 112.579 10.0456L112.54 9.88514H112.104V10.4819ZM112.341 9.68752C112.142 9.67489 111.957 9.78634 111.875 9.96735C111.793 10.1484 111.832 10.3611 111.973 10.5016C112.113 10.642 112.326 10.6808 112.507 10.599C112.688 10.5172 112.799 10.3319 112.787 10.1336C112.771 9.89424 112.58 9.70363 112.341 9.68752ZM112.928 10.1552C112.928 9.83097 112.665 9.56816 112.341 9.56816C112.017 9.56816 111.754 9.83097 111.754 10.1552C111.754 10.4794 112.017 10.7422 112.341 10.7422C112.665 10.7422 112.928 10.4794 112.928 10.1552Z" fill="#C4051C"/>
<path d="M120.999 8.70311V20.1261H118.722V8.70311H116.061V5.73682H123.66V8.70311H120.999Z" fill="black"/>
<path fill-rule="evenodd" clip-rule="evenodd" d="M129.744 15.5926V15.1875C129.757 14.4013 129.676 13.6164 129.503 12.8493C129.365 12.246 129.134 11.6677 128.818 11.1353C128.253 10.1961 127.363 9.6502 126.421 9.66586C125.924 9.664 125.436 9.79941 125.011 10.0572C124.559 10.3298 124.173 10.6986 123.88 11.1373C123.534 11.663 123.278 12.2421 123.12 12.8513C122.926 13.5833 122.832 14.3383 122.841 15.0956C122.83 15.8643 122.926 16.6309 123.126 17.3731C123.286 17.9745 123.551 18.5428 123.909 19.052C124.217 19.4816 124.618 19.8356 125.083 20.087C126.096 20.6291 127.329 20.5534 128.268 19.8914C128.808 19.478 129.23 18.9301 129.491 18.3026L127.975 16.8351C127.837 17.1284 127.637 17.3882 127.388 17.5962C127.139 17.7949 126.828 17.8989 126.509 17.8897C126.311 17.8888 126.117 17.8398 125.942 17.7469C125.756 17.6474 125.589 17.5148 125.451 17.3555C125.299 17.1761 125.178 16.9732 125.091 16.7548C124.994 16.5087 124.937 16.2482 124.925 15.9839H129.73C129.742 15.8538 129.746 15.7232 129.744 15.5926ZM127.408 12.5363C127.636 12.9559 127.749 13.4285 127.734 13.9059L124.925 13.8864C124.934 13.6366 124.98 13.3895 125.06 13.1526C125.132 12.9314 125.24 12.7232 125.378 12.5363C125.504 12.3684 125.662 12.2269 125.842 12.1195C126.021 12.0195 126.224 11.9682 126.429 11.9708C126.837 11.9535 127.219 12.1739 127.408 12.5363Z" fill="black"/>
<path d="M135.546 13.278C135.428 13.0437 135.254 12.8421 135.04 12.691C134.851 12.5508 134.623 12.4722 134.388 12.466C134.161 12.4657 133.941 12.5415 133.762 12.6812C133.565 12.8365 133.402 13.0303 133.283 13.2506C133.141 13.5088 133.036 13.7853 132.97 14.0724C132.893 14.3988 132.856 14.7331 132.858 15.0683C132.856 15.4032 132.891 15.7373 132.964 16.0643C133.028 16.3526 133.133 16.6301 133.277 16.888C133.399 17.1072 133.566 17.298 133.768 17.4476C133.957 17.5791 134.183 17.6476 134.414 17.6433C134.647 17.6384 134.875 17.5708 135.073 17.4476C135.293 17.3166 135.475 17.1296 135.599 16.9056L136.81 19.1597C136.261 19.973 135.344 20.4606 134.363 20.4609C133.851 20.4635 133.346 20.3377 132.895 20.095C132.428 19.832 132.027 19.4667 131.721 19.0266C131.367 18.5091 131.102 17.9356 130.939 17.3302C130.738 16.5953 130.64 15.836 130.649 15.0742C130.64 14.3195 130.738 13.5673 130.939 12.8397C131.102 12.2341 131.367 11.6606 131.721 11.1433C132.028 10.7023 132.429 10.3348 132.895 10.0671C133.339 9.818 133.84 9.68792 134.349 9.68947C134.59 9.68991 134.829 9.72484 135.059 9.79317C135.296 9.85908 135.524 9.95095 135.74 10.0671C135.957 10.182 136.159 10.3248 136.339 10.4917C136.517 10.6539 136.675 10.8364 136.81 11.0356L135.546 13.278Z" fill="black"/>
<path d="M141.897 20.1264V14.6282C141.897 14.3563 141.883 14.0847 141.855 13.8142C141.833 13.5818 141.782 13.3531 141.703 13.1333C141.639 12.9573 141.536 12.7981 141.401 12.6676C141.271 12.5494 141.1 12.4875 140.924 12.4954C140.532 12.5022 140.184 12.7472 140.046 13.1137C139.827 13.5947 139.722 14.1196 139.738 14.6477V20.1264H137.555V4.76074H139.738V11.2862H139.766C139.921 10.8743 140.166 10.5025 140.484 10.1983C140.796 9.88062 141.224 9.70396 141.67 9.70914C142.079 9.6944 142.481 9.82312 142.806 10.0731C143.122 10.3289 143.376 10.6517 143.552 11.0181C143.753 11.44 143.892 11.8888 143.965 12.3506C144.049 12.8471 144.092 13.3498 144.092 13.8533V20.1147L141.897 20.1264Z" fill="black"/>
<path d="M149.962 20.126V14.5965C149.962 14.3251 149.946 14.0539 149.913 13.7845C149.888 13.5526 149.836 13.3242 149.76 13.1036C149.701 12.9253 149.598 12.7646 149.461 12.6359C149.327 12.5181 149.154 12.4558 148.976 12.4618C148.79 12.4598 148.609 12.5212 148.463 12.6359C148.305 12.7682 148.179 12.9357 148.097 13.1251C147.994 13.348 147.92 13.5835 147.878 13.8256C147.827 14.0978 147.802 14.3743 147.804 14.6513V20.1299H145.608V10.0042H147.724V11.4071H147.751C147.833 11.1838 147.938 10.9695 148.064 10.7673C148.186 10.5648 148.338 10.3826 148.516 10.2273C148.687 10.0798 148.877 9.95661 149.081 9.86137C149.286 9.7662 149.509 9.71743 149.735 9.71854C150.143 9.70655 150.542 9.8358 150.866 10.0844C151.185 10.341 151.441 10.666 151.617 11.0354C151.818 11.4565 151.957 11.9047 152.028 12.3659C152.114 12.8622 152.158 13.3649 152.157 13.8686V20.1299L149.962 20.126Z" fill="black"/>
<path fill-rule="evenodd" clip-rule="evenodd" d="M160.408 17.2696C160.613 16.5393 160.712 15.7836 160.703 15.0253C160.712 14.272 160.611 13.5214 160.406 12.7966C160.24 12.1923 159.97 11.6215 159.608 11.11C158.944 10.1962 158.001 9.6875 157.013 9.6875C156.517 9.68819 156.029 9.81475 155.594 10.0554C155.129 10.3143 154.728 10.6748 154.42 11.11C154.066 11.624 153.802 12.1943 153.638 12.7966C153.433 13.5215 153.333 14.2721 153.342 15.0253C153.334 15.7836 153.433 16.5393 153.638 17.2696C153.8 17.8809 154.065 18.4604 154.42 18.9836C154.729 19.4271 155.129 19.7988 155.594 20.0735C156.472 20.5875 157.558 20.5875 158.436 20.0735C158.899 19.7971 159.3 19.4257 159.61 18.9836C159.973 18.4627 160.243 17.8828 160.408 17.2696ZM158.492 14.0685C158.563 14.3825 158.598 14.7034 158.598 15.0253H158.596C158.6 15.3485 158.57 15.6712 158.506 15.9879C158.446 16.2818 158.344 16.5657 158.205 16.8313C158.087 17.0637 157.921 17.268 157.717 17.43C157.311 17.7314 156.755 17.7314 156.348 17.43C156.143 17.2681 155.975 17.0639 155.857 16.8313C155.721 16.5621 155.622 16.2758 155.563 15.9801C155.43 15.3498 155.43 14.6987 155.563 14.0685C155.621 13.7818 155.72 13.5049 155.857 13.2467C155.972 13.022 156.136 12.8255 156.336 12.6714C156.739 12.3723 157.289 12.3723 157.692 12.6714C157.896 12.8258 158.065 13.0219 158.187 13.2467C158.326 13.5052 158.429 13.7817 158.492 14.0685Z" fill="black"/>
<path d="M161.979 20.1264V4.76074H164.204V20.1264H161.979Z" fill="black"/>
<path fill-rule="evenodd" clip-rule="evenodd" d="M172.52 17.2696C172.725 16.5393 172.824 15.7836 172.816 15.0253C172.824 14.272 172.724 13.5214 172.518 12.7966C172.352 12.1923 172.082 11.6215 171.72 11.11C171.057 10.1962 170.113 9.6875 169.125 9.6875C168.629 9.68819 168.141 9.81475 167.707 10.0554C167.24 10.3131 166.839 10.6738 166.533 11.11C166.178 11.6235 165.913 12.1939 165.75 12.7966C165.545 13.5215 165.446 14.2721 165.455 15.0253C165.446 15.7836 165.545 16.5393 165.75 17.2696C165.912 17.881 166.177 18.4606 166.533 18.9836C166.841 19.4275 167.241 19.7994 167.707 20.0735C168.584 20.5875 169.671 20.5875 170.548 20.0735C171.012 19.7971 171.412 19.4257 171.722 18.9836C172.085 18.4627 172.355 17.8828 172.52 17.2696ZM170.605 14.0685C170.675 14.3825 170.711 14.7034 170.71 15.0253C170.715 15.3516 170.686 15.6776 170.622 15.9977C170.562 16.2916 170.46 16.5754 170.321 16.841C170.202 17.0737 170.035 17.2779 169.83 17.4398C169.423 17.7411 168.867 17.7411 168.46 17.4398C168.255 17.2779 168.088 17.0737 167.969 16.841C167.831 16.5729 167.73 16.2872 167.67 15.9919C167.537 15.3616 167.537 14.7105 167.67 14.0802C167.728 13.7937 167.827 13.5169 167.963 13.2584C168.079 13.0293 168.245 12.8288 168.448 12.6714C168.851 12.3723 169.402 12.3723 169.804 12.6714C170.008 12.8258 170.177 13.0219 170.299 13.2467C170.439 13.5052 170.541 13.7817 170.605 14.0685Z" fill="black"/>
<path fill-rule="evenodd" clip-rule="evenodd" d="M180.818 21.752C181.016 20.9057 181.11 20.0383 181.097 19.1692V10.0042H179.037V11.3152H179.014C178.828 10.8352 178.508 10.4189 178.092 10.1157C177.743 9.86595 177.326 9.72935 176.897 9.72441C176.42 9.7166 175.955 9.86582 175.572 10.149C175.162 10.4662 174.824 10.8662 174.58 11.323C174.294 11.8526 174.087 12.4207 173.963 13.0096C173.816 13.6699 173.744 14.3446 173.748 15.0211C173.744 15.6937 173.816 16.3646 173.963 17.0208C174.085 17.601 174.293 18.1596 174.58 18.6781C174.825 19.1214 175.164 19.5065 175.572 19.8071C175.965 20.0847 176.435 20.2306 176.916 20.2239C177.336 20.2289 177.747 20.1008 178.09 19.858C178.444 19.6071 178.728 19.2704 178.916 18.8796H178.959V19.4881C178.99 20.2016 178.832 20.9106 178.499 21.5426C178.213 22.0513 177.663 22.3544 177.08 22.3253C176.68 22.3174 176.289 22.2091 175.942 22.0103C175.523 21.7691 175.162 21.4399 174.883 21.0456L173.791 23.423C174.234 23.9265 174.782 24.3272 175.396 24.597C175.962 24.8563 176.577 24.9943 177.2 25.002C177.754 25.0098 178.303 24.8886 178.802 24.6479C179.299 24.4004 179.724 24.0291 180.035 23.5697C180.402 23.0153 180.667 22.3997 180.818 21.752ZM178.906 14.0291C178.982 14.3496 179.02 14.678 179.019 15.0074L179.016 14.9976C179.018 15.3333 178.981 15.6682 178.906 15.9955C178.841 16.2814 178.734 16.5558 178.587 16.8095C178.46 17.0297 178.287 17.22 178.08 17.3671C177.885 17.509 177.65 17.5845 177.409 17.5824C177.172 17.5863 176.941 17.5105 176.752 17.3671C176.55 17.2153 176.384 17.0218 176.265 16.7997C176.124 16.5408 176.021 16.2635 175.957 15.9759C175.816 15.3261 175.816 14.6535 175.957 14.0036C176.02 13.7182 176.123 13.4433 176.265 13.1877C176.386 12.9743 176.552 12.7895 176.752 12.6457C176.945 12.5124 177.175 12.4439 177.409 12.45C177.646 12.4454 177.878 12.5137 178.074 12.6457C178.28 12.795 178.452 12.9848 178.581 13.2034C178.73 13.4611 178.839 13.7393 178.906 14.0291Z" fill="black"/>
<path d="M186.43 21.6485C186.314 22.1288 186.166 22.6008 185.986 23.0612C185.841 23.4393 185.644 23.795 185.399 24.1178C185.188 24.3975 184.915 24.624 184.601 24.7791C184.26 24.9354 183.889 25.0117 183.515 25.0022C183.303 25.0022 183.091 24.9825 182.883 24.9435C182.689 24.9088 182.499 24.8538 182.317 24.7791L182.558 21.9713C182.67 22.0277 182.789 22.0722 182.91 22.1044C183.026 22.1359 183.145 22.153 183.264 22.1553C183.555 22.1784 183.835 22.0411 183.994 21.7972C184.178 21.4852 184.31 21.1456 184.385 20.7915L184.599 19.956L181.824 10.0044H184.249L185.728 16.5142H185.765L187.084 10.0103H189.4L186.43 21.6485Z" fill="black"/>
</svg>
