<?xml version="1.0" encoding="utf-8"?>
<!-- Generator: Adobe Illustrator 25.0.0, SVG Export Plug-In . SVG Version: 6.00 Build 0)  -->
<svg version="1.1" id="Layer_1" xmlns="http://www.w3.org/2000/svg" xmlns:xlink="http://www.w3.org/1999/xlink" x="0px" y="0px"
	 viewBox="0 0 239.25 239.25" style="enable-background:new 0 0 239.25 239.25;" xml:space="preserve">
<style type="text/css">
	.st0{fill:#CE0E2D;}
	.st1{fill:#FFFFFF;}
</style>
<rect class="st0" width="239.25" height="239.25"/>
<g>
	<path class="st1" d="M189.36,188.32h12.09l-17-24.67l16.94-18.84h-12.76l-15.89,18.29v-18.29h-9.7v43.5h9.7v-11.66l4.91-5.46
		L189.36,188.32z M137.69,189.24c13.5,0,19.27-9.2,20.68-15.22l-9.27-2.64c-0.86,3.13-3.86,8.16-11.41,8.16
		c-6.51,0-12.52-4.72-12.52-12.89c0-9.14,6.57-13.31,12.4-13.31c7.67,0,10.43,5.09,11.11,8.1l9.14-2.88
		c-1.41-6.26-7.18-14.67-20.25-14.67c-12.15,0-22.46,9.2-22.46,22.76C115.11,180.22,125.18,189.24,137.69,189.24 M92.23,155.62
		l5.22,15.03H86.89L92.23,155.62z M103.64,188.32h10.55l-16.2-43.5H86.77l-16.38,43.5h10.19l3.13-8.84h16.81L103.64,188.32z
		 M58.6,172.67c8.84,0,14.91-5.71,14.91-13.93c0-8.1-6.07-13.93-14.91-13.93H42.22v43.5h9.69v-15.65H58.6z M51.98,164.33v-11.11
		h5.64c3.68,0,6.2,2.09,6.2,5.58c0,3.37-2.51,5.52-6.2,5.52H51.98z"/>
	<path class="st1" d="M139.91,103.2c0,18.36,13.85,30.25,30.25,30.25c16.31,0,30.17-11.89,30.17-30.25
		c0-18.44-13.85-30.33-30.17-30.33C153.76,72.87,139.91,84.76,139.91,103.2 M153.35,103.12c0-12.13,8.69-17.62,16.8-17.62
		c8.03,0,16.72,5.49,16.72,17.62s-8.69,17.54-16.72,17.54C162.04,120.66,153.35,115.25,153.35,103.12 M105.07,99.43v-14.1h7.62
		c5.33,0,8.2,2.71,8.2,7.05c0,4.1-2.87,7.05-8.2,7.05H105.07z M120.08,132.22h14.26l-11.8-23.53c7.13-2.54,11.48-8.53,11.48-16.39
		c0-10.33-7.38-18.2-18.85-18.2H92.12v58.12h12.95v-21.64h4.59L120.08,132.22z M64.17,111.32c11.8,0,19.92-7.62,19.92-18.61
		c0-10.82-8.12-18.61-19.92-18.61H42.29v58.12h12.95v-20.9H64.17z M55.32,100.17V85.33h7.54c4.92,0,8.28,2.79,8.28,7.46
		c0,4.51-3.36,7.38-8.28,7.38H55.32z"/>
</g>
<path class="st1" d="M201.52,77.86v-4.7h-0.87l-1.67,3.83l-1.66-3.83h-0.88v4.7h0.64V74.2l1.59,3.66h0.6l1.61-3.66v3.66H201.52z
	 M195.69,73.76v-0.6h-3.8v0.6h1.57v4.1h0.65v-4.1H195.69z"/>
<g>
	<path class="st1" d="M147.55,46.85c0.29,0.59,1.43,0.76,1.8-0.59c0.41-1.52-0.9-5.29-3.83-5.39c-2.81-0.09-5.06,1.51-7.21,3.87
		c-1.99,2.19-7.76,10.28-7.41,16.18c0.27,3.14,3.12,4.29,6.43,2.35c4.03-2.36,6.88-6.72,7.47-7.45c0.15,5.15,4.53,8.51,9.75,3.54
		c0.64,1.24,1.79,2.82,3.17,3.76c3.79,2.6,10.58,2.07,15.58-5.84c1.04,3.72,1.66,5.17,2.01,5.86c1.02,1.97,3.09,2.33,3.25-0.24
		c0.05-0.82-0.84-2.75-1.55-5.4c-2-7.51-4.83-20.64,1.48-29.47c2.7-3.01,5.53-3.78,5.93-0.31c0.22,1.9-0.13,10.35-6.32,21.44
		c-0.91,1.95,0.99,2.48,1.57,1.17c0.86-1.95,8.93-14.2,8.71-22.46c-0.13-4.93-7.37-7.57-12.54-0.91
		c-4.95,6.39-5.33,18.84-3.58,25.91c-3.36,6.15-7.07,11.1-11.83,8.62c-5.02-3.14-3.43-13.86-0.11-16.23
		c2.24-1.6,3.62,0.27,2.39,2.56c-1.64,3.05-2.84,3.52-3.87,4.33c-1.37,1.08-0.49,2.46,0.8,1.99c3.96-1.44,5.91-4.64,6.72-7.23
		c2.19-7.03-6.38-9.56-10.72-1.53c-2.96,5.48-1.81,10.22-1.84,10.88c-0.88,1.04-3.78,4.95-4.27,2.3c-0.47-2.56,0.29-6.61,0.46-7.74
		c0.44-2.9-2.45-4.05-4.16-1.53c-1.78,2.63-5.17,9.66-9.29,11.67c-3.96,2.14-0.33-9.82,2.74-13.24c1.83-2.26,4.69-4.69,7.47-1.81
		C147.22,46.47,147.28,46.29,147.55,46.85 M92.54,35.09c-1.71,0.14-3.58,2.37-2.37,4.7c0.68,0.99,1.69,1.24,2.65,0.87
		c0.94-0.36,2.46-1.98,2.51-3.36C95.37,35.87,94.52,34.92,92.54,35.09 M88.09,43.26c-1.08,0.89-4.6,8.26-3.07,15.76
		c1.48,6.28,5.84,7.85,10.68,2.1c2.69,5.87,12.15,3.19,17.13-4.02c0.33,3.44,0.6,4,0.66,4.29c0.46,2.1,2.76,2.94,3.35,1.13
		c0.5-1.53,2.33-9.38,6.81-14c1.17-1.2,5.13-2.83,4.06,1.47c-0.26,1.05-2.11,7.43-2.06,10.26c0.06,2.93,0.98,5.39,2.94,4.16
		c0.83-0.52,0.46-2.96,0.36-4.41c-0.44-6.19,1.5-9.21,2.49-11.77c0.99-2.57,0.28-5.62-4.02-5c-4.66,0.68-9.2,6.06-11.52,12.89
		c0.05-10.83,5.77-21.62,9.54-30.82c0.59-1.09-1.79-3.82-4.42-1c-2.42,2.59-7.49,18.66-7.93,26.18c-0.18,1.3-2.21,6.69-5.31,9.02
		c-3.1,2.33-8.31,3.45-8.4-2.24c-0.09-5.69,3.07-10.76,5.42-11.73c1.29-0.53,1.93,0.62,2.45,1.24c0.77,0.92,3.74,1.48,3.66-1.21
		c-0.09-2.8-3.15-5.04-7.43-2.95C97.23,45.65,95.4,52.94,94.91,56c-0.65,4.04-2.23,5.75-2.61,6.01s-2.79,2.71-3.17-3.04
		c-0.12-3.65,0.85-7.46,1.86-10.2c1-2.74,0.88-2.42,1.06-3.15C92.57,43.41,90.13,41.59,88.09,43.26 M81.64,59.74
		c-0.86-3.35-0.33-10.23,0.2-14.26c0.95-7.27,3.04-11.29,3.04-15.7c0-2.05-0.64-6.32-5.13-6.49c-11.09-0.43-15.18,26.55-15.72,30.37
		c-0.23-1.75-0.1-11.71-0.91-18.98C61.92,24,59.59,23.35,57.29,23.17c-8.3-0.62-8.85,15.4-8.78,30.67
		c-0.01-3.12,0.38-9.48-2.55-12.74c-1.45-1.62-3.73-1.46-2.21,0.69c0.16,0.23,0.35,0.73,0.57,1.07c2.85,4.33,2.28,21.67,5.21,21.53
		c0.91-0.04,2.3-0.42,2.18-4.31c-0.35-11.74,0.54-32.75,4.54-32.77c4.24,0,3.3,20.87,4.54,29c0.69,4.12,4.98,4.46,6.31-1.39
		c1.77-7.82,1.86-12.88,5.73-21.02c5.14-10.82,9.4-7.28,7.57,0.26c-0.94,3.87-4.08,13.21-2.51,23.94c0.46,3.12,2.47,7.07,3.98,6.22
		C82.75,63.85,82.31,62.38,81.64,59.74 M194.6,43.89c-0.81-2.67-6.79-1.41-5.46,1.81c1.01,2.45,6.79,3.87,9.55,7.87
		c4.29,6.34-5.22,13.42-12.4,10.04c-5.06-2.38-5.08-6.09-4.75-7.61c0.49-2.25,3.01-2.3,3.32-1.1c0.46,2.19-0.55,2.08-0.49,2.98
		c0.4,3.6,6.28,5.15,9.38,2.01c4.25-4.31,0.53-7.09-0.22-7.63c-2.01-1.44-4.75-1.79-6.5-4.18c-3.75-5.13,2.08-9.57,6.35-8.29
		c1.95,0.59,3.51,2.01,3.14,3.85C196.18,45.2,194.96,45.06,194.6,43.89"/>
</g>
<g>
	<rect x="39.63" y="202.89" width="162.83" height="12.87"/>
</g>
</svg>
