<svg width="87" height="24" viewBox="0 0 87 24" fill="none" xmlns="http://www.w3.org/2000/svg">
<path fill-rule="evenodd" clip-rule="evenodd" d="M58.7539 12.8574C58.5514 13.6047 57.9167 13.5065 57.758 13.1847V13.1792C57.6675 12.9955 57.619 12.9546 57.5436 12.8911C57.4915 12.8472 57.4265 12.7924 57.3258 12.672C55.7827 11.0847 54.2069 12.4265 53.1892 13.6756C51.4875 15.5629 49.4793 22.1683 51.668 20.9847C53.4656 20.1081 55.0356 17.4745 56.0837 15.7162L56.0838 15.7161L56.084 15.7159C56.3662 15.2424 56.6106 14.8325 56.8114 14.5374C57.758 13.1465 59.3612 13.7847 59.115 15.3829C59.1037 15.4582 59.0875 15.5567 59.0681 15.6741C58.9275 16.5254 58.6222 18.3739 58.8578 19.6538C59.1015 20.977 60.4518 19.3237 61.0619 18.5768C61.1232 18.5017 61.1771 18.4357 61.2216 18.3829C60.8984 16.3258 61.2556 14.2197 62.2393 12.3829C64.6414 7.94832 69.3909 9.34468 68.1761 13.2283C67.6385 15.0706 66.2589 16.551 64.4554 17.221C63.7386 17.4883 63.2516 16.7301 64.0122 16.1301C64.935 15.5484 65.6717 14.7156 66.1352 13.7301C66.8137 12.4592 66.0531 11.4283 64.8111 12.312C62.9726 13.6374 62.0916 19.5392 64.8712 21.2738C67.5195 22.6374 69.5769 19.9047 71.4373 16.512C70.4688 12.6065 70.6822 5.73377 73.418 2.20468C76.2797 -1.47168 80.2905 -0.0207737 80.3616 2.7065C80.4419 6.42856 77.5037 11.6008 76.1544 13.9759C75.8487 14.514 75.6245 14.9086 75.5356 15.1101C75.2128 15.8301 74.1677 15.552 74.6656 14.461C78.0963 8.33014 78.2933 3.67195 78.1675 2.61923C77.9431 0.704681 76.3782 1.15195 74.8844 2.78832C71.388 7.66468 72.9694 14.9192 74.0637 19.0647C74.2291 19.6849 74.4144 20.2348 74.5701 20.6969L74.5703 20.6976L74.5704 20.6978L74.5705 20.6979C74.7802 21.3203 74.9361 21.7831 74.9173 22.0429C74.8297 23.461 73.6643 23.2647 73.1171 22.1738C72.6533 21.1314 72.287 20.0487 72.0228 18.9392C69.2541 23.3083 65.495 23.6029 63.3939 22.1683C62.6567 21.6186 62.0558 20.9077 61.6375 20.0901C58.7484 22.8338 56.3244 20.9792 56.2369 18.132C56.2071 18.1711 56.1652 18.2293 56.1116 18.3034C55.6133 18.9933 54.111 21.0731 52.1003 22.2501C50.2618 23.3192 48.6805 22.6865 48.5382 20.952C48.3412 17.6956 51.5422 13.2283 52.6365 12.0174C53.8239 10.7138 55.0058 9.83559 56.6309 9.88468C58.256 9.93377 58.9837 12.0174 58.7539 12.8574ZM23.1057 19.9375C22.2576 15.7756 24.211 11.7011 24.8074 11.2102H24.8239C25.2552 10.8011 25.9073 10.7293 26.4178 11.0347C26.9283 11.34 27.1716 11.9474 27.0125 12.5193C26.8641 13.1146 26.6665 13.6966 26.4216 14.2593C25.7375 16.0666 25.3926 17.984 25.4039 19.9156C25.6017 22.8583 26.768 21.9156 27.1029 21.6449L27.1029 21.6449C27.1293 21.6236 27.1506 21.6064 27.1657 21.5956C27.3737 21.4484 28.2491 20.5047 28.6103 18.2738C28.8839 16.5829 29.8961 12.5575 33.3597 10.8666C35.729 9.7211 37.4252 11.0247 37.4744 12.5029C37.5237 13.9811 35.8767 13.6756 35.4499 13.1684C35.427 13.1383 35.4032 13.1059 35.3783 13.072C35.1229 12.7241 34.7515 12.2182 34.0984 12.4866C32.7906 13.0211 31.0397 15.8193 31.0889 18.9611C31.1382 22.1029 34.0327 21.4866 35.7454 20.1993C37.458 18.912 38.5852 15.9338 38.6837 15.2193C38.9135 11.0684 41.7205 2.19928 43.061 0.764736C44.5165 -0.800718 45.8352 0.710191 45.5069 1.31019C45.1217 2.24595 44.699 3.21097 44.2657 4.20024L44.2657 4.20029C42.3475 8.57958 40.2212 13.434 40.2212 18.3284C41.5071 14.5538 44.0186 11.5811 46.6012 11.2102C48.9869 10.8611 49.3754 12.5575 48.8282 13.9702C48.737 14.2056 48.6313 14.4479 48.5194 14.7042C47.9601 15.9861 47.2487 17.6164 47.4493 20.4666C47.4578 20.5793 47.4691 20.7027 47.4809 20.8325C47.5533 21.6262 47.6474 22.6563 47.2523 22.9047C46.158 23.5866 45.6437 22.1684 45.6108 20.6084C45.5829 19.2789 46.3259 16.5231 46.6341 15.3799C46.6876 15.1817 46.7279 15.032 46.7489 14.9466C47.3399 12.5738 45.1457 13.4684 44.5001 14.1338C42.3211 16.3827 41.2754 19.9973 40.8648 21.4166L40.8647 21.4166C40.8083 21.6118 40.7638 21.7655 40.7301 21.8684C40.4018 22.8775 39.1323 22.4029 38.8752 21.2411C38.668 20.4674 38.5451 19.6738 38.5086 18.8738C35.7508 22.8556 30.5089 24.3393 29.0206 21.0993C26.3395 24.2684 23.9265 23.4011 23.1057 19.9375ZM21.2509 20.2811C20.7748 18.4374 21.0703 14.6356 21.3603 12.4102C21.6175 10.5258 22.004 9.03676 22.342 7.73448L22.342 7.73444C22.7232 6.26601 23.0427 5.0351 23.0456 3.7429C23.0456 2.60836 22.6899 0.257446 20.2003 0.159264C14.0556 -0.0480086 11.7903 14.8484 11.4839 16.9538C11.44 16.6174 11.4201 15.7305 11.3935 14.548C11.3438 12.3372 11.2709 9.09308 10.975 6.48108C10.3239 0.557446 9.03804 0.219264 7.7686 0.121082C3.56751 -0.188026 2.93206 7.17232 2.89982 14.8796C2.84356 13.192 2.57863 11.224 1.49256 10.0211C0.688224 9.13199 -0.553851 9.21926 0.272375 10.4029C0.317528 10.4638 0.363971 10.5607 0.414207 10.6655C0.467459 10.7766 0.524974 10.8966 0.589734 10.992C1.34242 12.1239 1.66594 14.8587 1.96893 17.4199C2.30689 20.2768 2.61932 22.9177 3.47332 22.8774C3.98219 22.8774 4.74822 22.6484 4.68256 20.4993C4.49105 14.0193 4.98351 2.41745 7.19954 2.40654C8.81854 2.40654 9.07362 7.88917 9.30045 12.7644C9.4025 14.9578 9.49883 17.0282 9.71105 18.4211C10.0941 20.6956 12.4469 20.8865 13.2075 17.652C13.4677 16.5042 13.6623 15.4657 13.8479 14.4749C14.361 11.7363 14.806 9.3611 16.3811 6.04472C19.2318 0.0447184 21.5846 2.02472 20.5724 6.19199C20.5128 6.42466 20.4395 6.69304 20.3572 6.99425L20.3571 6.99448L20.3571 6.99465C19.6829 9.46157 18.4073 14.1296 19.1826 19.4084C19.4343 21.132 20.5505 23.3138 21.3712 22.8447C21.8241 22.5905 21.6283 21.8328 21.2878 20.5153L21.2344 20.3084L21.2509 20.2811ZM83.8143 11.5593C83.3711 10.0866 80.0552 10.7793 80.7884 12.5629C81.0447 13.194 81.8868 13.7018 82.8667 14.2926C83.9787 14.9632 85.268 15.7406 86.0795 16.9266C88.4543 20.4338 83.1905 24.3393 79.2126 22.4684C76.4056 21.1538 76.3946 19.1084 76.5807 18.2684C76.8488 17.0248 78.2222 17.0029 78.4137 17.6629C78.5759 18.4233 78.4116 18.6802 78.2777 18.8894C78.1994 19.0119 78.1314 19.118 78.1456 19.2993C78.3644 21.2902 81.6256 22.1411 83.3382 20.3902C85.6911 18.012 83.6282 16.4738 83.2178 16.1793C82.818 15.8903 82.3583 15.6807 81.8889 15.4667C81.0734 15.0949 80.2286 14.7098 79.6175 13.872C77.5382 11.0411 80.7665 8.58657 83.1303 9.29566C84.2246 9.62294 85.0782 10.3866 84.8703 11.4229C84.6952 12.2793 84.0112 12.2029 83.8143 11.5538V11.5593ZM27.2916 6.69934C26.7224 6.78816 26.2305 7.14404 25.9693 7.65605C25.7082 8.16806 25.7095 8.77393 25.9729 9.28479C26.2785 9.78369 26.9025 9.98719 27.4448 9.76479C28.1759 9.40011 28.6912 8.71254 28.8346 7.91024C28.8346 7.11934 28.3805 6.60115 27.2916 6.68843V6.69934ZM85.8279 9.18647H85.899C85.992 9.18647 86.0358 9.22466 86.0358 9.28466C86.0358 9.34466 85.9702 9.38284 85.8826 9.38284H85.8115L85.8279 9.18647ZM85.899 9.48096H85.8279L85.8224 9.72641H85.6747V9.07187C85.7584 9.06422 85.8427 9.06422 85.9264 9.07187C86.0069 9.06508 86.0874 9.0842 86.1562 9.12642C86.1951 9.16107 86.217 9.21079 86.2164 9.26278C86.211 9.33988 86.1553 9.40424 86.0796 9.42096C86.1497 9.44561 86.1975 9.51055 86.2 9.5846C86.2082 9.63951 86.2248 9.69286 86.2492 9.74278H86.0851C86.0589 9.69357 86.0422 9.63992 86.0358 9.5846C86.0249 9.51369 85.9811 9.48096 85.899 9.48096ZM85.9374 8.88115C86.164 8.86556 86.3766 8.99113 86.4718 9.1967C86.567 9.40227 86.5249 9.64509 86.3661 9.80688C86.2072 9.96867 85.9645 10.0158 85.7563 9.92529C85.5481 9.83479 85.4177 9.62549 85.4285 9.39933C85.424 9.26248 85.4758 9.12974 85.5719 9.03189C85.668 8.93404 85.8 8.87959 85.9374 8.88115ZM85.3686 9.07737C85.4859 8.87486 85.7026 8.7501 85.9372 8.7501C86.1718 8.7501 86.3886 8.87486 86.5059 9.07737C86.6232 9.27989 86.6232 9.5294 86.5059 9.73192C86.3886 9.93443 86.1718 10.0592 85.9372 10.0592C85.7026 10.0592 85.4859 9.93443 85.3686 9.73192C85.2513 9.5294 85.2513 9.27989 85.3686 9.07737Z" fill="white"/>
</svg>
