<?xml version="1.0" encoding="UTF-8"?>
<svg width="115px" height="28px" viewBox="0 0 115 28" version="1.1" xmlns="http://www.w3.org/2000/svg" xmlns:xlink="http://www.w3.org/1999/xlink">
    <title>PayPal/PayPal-FullColor-Horizontal</title>
    <defs>
        <polygon id="path-1" points="114.38961 27.9371425 114.38961 0.231680747 0.0169610991 0.231680747 0.0169610991 27.9371425"></polygon>
    </defs>
    <g id="Icons" stroke="none" stroke-width="1" fill="none" fill-rule="evenodd">
        <g transform="translate(-592.000000, -51.000000)" id="Group">
            <g transform="translate(592.000000, 51.000000)" id="PayPal-FullColor-Horizontal">
                <path d="M110.441914,6.86943293 L107.860435,23.2637383 C107.810399,23.581488 108.056335,23.8684787 108.378314,23.8684787 L110.974775,23.8684787 C111.404739,23.8684787 111.770816,23.5560906 111.837812,23.1322362 L114.383108,7.0322585 C114.433426,6.71450878 114.18749,6.42723594 113.865229,6.42723594 L110.959793,6.42723594 C110.701702,6.42723594 110.482055,6.61489452 110.441914,6.86943293" id="Fill-7" fill="#009CDE"></path>
                <path d="M102.694649,18.0871833 C102.403766,19.8051765 101.037833,20.9585007 99.2953624,20.9585007 C98.4215831,20.9585007 97.7225031,20.6780005 97.2727513,20.1469126 C96.8272398,19.6203398 96.6596076,18.8702699 96.8009501,18.0349776 C97.072045,16.332505 98.4600282,15.1419312 100.176209,15.1419312 C101.031331,15.1419312 101.725888,15.4252534 102.18412,15.9611386 C102.645462,16.5009745 102.826663,17.2561239 102.694649,18.0871833 L102.694649,18.0871833 Z M106.891956,12.2353396 L103.88023,12.2353396 C103.622139,12.2353396 103.402493,12.4224338 103.362351,12.6772544 L103.229772,13.5179085 L103.019454,13.2131396 C102.367017,12.2680741 100.913451,11.9522997 99.4618638,11.9522997 C96.1346616,11.9522997 93.2919813,14.4694645 92.7387668,17.9999856 C92.4509935,19.7611543 92.859756,21.4441555 93.8598955,22.6189265 C94.7791871,23.6983161 96.0905627,24.1475679 97.6532453,24.1475679 C100.33536,24.1475679 101.822849,22.4275994 101.822849,22.4275994 L101.688573,23.2631739 C101.637973,23.5809236 101.883909,23.8684787 102.206452,23.8684787 L104.918532,23.8684787 C105.348496,23.8684787 105.714573,23.5563728 105.781852,23.1322362 L107.409835,12.84008 C107.460153,12.5223303 107.214217,12.2353396 106.891956,12.2353396 L106.891956,12.2353396 Z" id="Fill-4" fill="#009CDE"></path>
                <path d="M88.8184915,12.307299 C88.4747465,14.5611773 86.7503681,14.5611773 85.0825267,14.5611773 L84.1335532,14.5611773 L84.7992763,10.3531099 C84.8394176,10.0988537 85.0590639,9.91147734 85.3171552,9.91147734 L85.7522074,9.91147734 C86.8871876,9.91147734 87.9596945,9.91147734 88.5126263,10.5571357 C88.8433677,10.9434584 88.9434382,11.5160288 88.8184915,12.307299 L88.8184915,12.307299 Z M88.0925564,6.42723594 L81.8025328,6.42723594 C81.372569,6.42723594 81.0064919,6.73962399 80.9394956,7.1637606 L78.3961788,23.2637383 C78.3458608,23.5812058 78.5917968,23.8684787 78.9140577,23.8684787 L82.1411894,23.8684787 C82.4422489,23.8684787 82.6986442,23.6497788 82.7452873,23.3529114 L83.4666993,18.788716 C83.5336957,18.3645794 83.8997727,18.0521913 84.3297366,18.0521913 L86.3201216,18.0521913 C90.4631527,18.0521913 92.8541023,16.0505939 93.4791188,12.0838018 C93.7603904,10.348877 93.4904262,8.98560093 92.6765761,8.03122299 C91.7821608,6.98202808 90.1968634,6.42723594 88.0925564,6.42723594 L88.0925564,6.42723594 Z" id="Fill-1" fill="#009CDE"></path>
                <path d="M78.0719391,12.2353396 L75.0446656,12.2353396 C74.7551962,12.2353396 74.4843839,12.3786939 74.3218401,12.6177116 L70.1460175,18.7573926 L68.3761268,12.857576 C68.265597,12.4884671 67.9252442,12.2353396 67.5390966,12.2353396 L64.5632717,12.2353396 C64.2039791,12.2353396 63.950976,12.5880813 64.0668769,12.92756 L67.4002982,22.6948365 L64.2650391,27.1111625 C64.0188204,27.457696 64.2673005,27.9371425 64.6927414,27.9371425 L67.7171881,27.9371425 C68.0038307,27.9371425 68.2720987,27.7968924 68.4354906,27.5615431 L78.5030337,13.0570867 C78.7438813,12.7099889 78.4951185,12.2353396 78.0719391,12.2353396" id="Fill-5" fill="#003087"></path>
                <path d="M57.833673,18.0871833 C57.5427901,19.8051765 56.1765736,20.9585007 54.4341033,20.9585007 C53.5606067,20.9585007 52.8612441,20.6780005 52.411775,20.1469126 C51.9662634,19.6203398 51.7986312,18.8702699 51.939691,18.0349776 C52.2110686,16.332505 53.5990519,15.1419312 55.3149498,15.1419312 C56.1703545,15.1419312 56.8646288,15.4252534 57.3231439,15.9611386 C57.7844858,16.5009745 57.9656869,17.2561239 57.833673,18.0871833 L57.833673,18.0871833 Z M62.0309796,12.2353396 L59.0192538,12.2353396 C58.7611624,12.2353396 58.5415162,12.4224338 58.5013749,12.6772544 L58.3687956,13.5179085 L58.1581953,13.2131396 C57.5060411,12.2680741 56.0524749,11.9522997 54.6008875,11.9522997 C51.2734025,11.9522997 48.431005,14.4694645 47.8777905,17.9999856 C47.5897345,19.7611543 47.998497,21.4441555 48.9989191,22.6189265 C49.917928,23.6983161 51.2295864,24.1475679 52.792269,24.1475679 C55.4743841,24.1475679 56.9618725,22.4275994 56.9618725,22.4275994 L56.8273144,23.2631739 C56.7769965,23.5809236 57.0229324,23.8684787 57.3451933,23.8684787 L60.0575557,23.8684787 C60.4875196,23.8684787 60.8535967,23.5563728 60.920593,23.1322362 L62.5488585,12.84008 C62.5991764,12.5223303 62.3532405,12.2353396 62.0309796,12.2353396 L62.0309796,12.2353396 Z" id="Fill-3" fill="#003087"></path>
                <path d="M43.9572324,12.307299 C43.6134875,14.5611773 41.8891091,14.5611773 40.2215504,14.5611773 L39.2725769,14.5611773 L39.9380173,10.3531099 C39.9784413,10.0988537 40.1980875,9.91147734 40.4558962,9.91147734 L40.8909484,9.91147734 C42.0262113,9.91147734 43.0987181,9.91147734 43.6513673,10.5571357 C43.9823914,10.9434584 44.0824619,11.5160288 43.9572324,12.307299 L43.9572324,12.307299 Z M43.2315801,6.42723594 L36.9415565,6.42723594 C36.5115926,6.42723594 36.1455156,6.73962399 36.0785192,7.1637606 L33.5349197,23.2637383 C33.4848845,23.5812058 33.7308204,23.8684787 34.0527986,23.8684787 L37.0560439,23.8684787 C37.4860078,23.8684787 37.8523675,23.5560906 37.9193639,23.1322362 L38.605723,18.788716 C38.6724367,18.3645794 39.0387964,18.0521913 39.4687603,18.0521913 L41.4591452,18.0521913 C45.6018937,18.0521913 47.993126,16.0505939 48.6181425,12.0838018 C48.899414,10.348877 48.6294499,8.98560093 47.8155998,8.03122299 C46.9209018,6.98202808 45.3356044,6.42723594 43.2315801,6.42723594 L43.2315801,6.42723594 Z" id="Fill-2" fill="#003087"></path>
                <g id="Monogram">
                    <mask id="mask-2" fill="white">
                        <use xlink:href="#path-1"></use>
                    </mask>
                    <g id="Clip-6"></g>
                    <path d="M21.1960028,7.27042969 C21.5346595,5.11531901 21.1937414,3.64876013 20.0259697,2.32047599 C18.7403184,0.858150004 16.4177785,0.231680747 13.446194,0.231680747 L4.82006167,0.231680747 C4.21285433,0.231680747 3.69582349,0.672748967 3.60112402,1.27156327 L0.0093286045,24.0087288 C-0.0616253267,24.4574162 0.28579452,24.8629281 0.74063466,24.8629281 L6.0658544,24.8629281 L5.69836392,27.1896123 C5.63645591,27.5821433 5.94005958,27.9371425 6.33808004,27.9371425 L10.8265522,27.9371425 C11.358,27.9371425 11.810296,27.551102 11.8931227,27.0273511 L11.9372215,26.7996211 L12.7827323,21.4469775 L12.8372905,21.1512388 C12.9201172,20.6272057 13.3724132,20.2414474 13.9035783,20.2414474 L14.5749551,20.2414474 C18.9234982,20.2414474 22.3284389,18.4777389 23.3232074,13.3773762 C23.739037,11.2462519 23.5241964,9.46730499 22.4248345,8.21662402 C22.0921142,7.83848492 21.6785461,7.52553249 21.1960028,7.27042969" id="Fill-8" fill="#009CDE" mask="url(#mask-2)"></path>
                    <path d="M21.1960028,7.27042969 C21.5346595,5.11531901 21.1937414,3.64876013 20.0259697,2.32047599 C18.7403184,0.858150004 16.4177785,0.231680747 13.446194,0.231680747 L4.82006167,0.231680747 C4.21285433,0.231680747 3.69582349,0.672748967 3.60112402,1.27156327 L0.0093286045,24.0087288 C-0.0616253267,24.4574162 0.28579452,24.8629281 0.74063466,24.8629281 L6.0658544,24.8629281 L7.40351975,16.3954341 L7.36196506,16.6609781 C7.45666453,16.0621638 7.96945509,15.6208134 8.57666244,15.6208134 L11.1078238,15.6208134 C16.0785566,15.6208134 19.9705634,13.604824 21.1078051,7.77470922 C21.1414446,7.60228908 21.1702785,7.43494842 21.1960028,7.27042969" id="Fill-9" fill="#012169" mask="url(#mask-2)"></path>
                    <path d="M8.84040753,7.29921342 C8.89750989,6.9388525 9.1290289,6.64396044 9.44083044,6.49468015 C9.5827383,6.42695374 9.74104189,6.38913983 9.90697797,6.38913983 L16.6685201,6.38913983 C17.4696494,6.38913983 18.2165031,6.4416278 18.8991873,6.55140101 C19.0945227,6.58272448 19.2842043,6.61884523 19.4687976,6.65976326 C19.6531082,6.70039911 19.8323305,6.74611443 20.0056164,6.79690924 C20.0924007,6.82202445 20.1774888,6.84855062 20.2614463,6.87648776 C20.5967107,6.98738975 20.9087949,7.11860967 21.1960028,7.27042969 C21.5346595,5.11531901 21.1937414,3.64876013 20.0259697,2.32047599 C18.7403184,0.858150004 16.4177785,0.231680747 13.446194,0.231680747 L4.82006167,0.231680747 C4.21285433,0.231680747 3.69582349,0.672748967 3.60112402,1.27156327 L0.0093286045,24.0087288 C-0.0616253267,24.4574162 0.28579452,24.8629281 0.74063466,24.8629281 L6.0658544,24.8629281 L8.84040753,7.29921342" id="Fill-10" fill="#003087" mask="url(#mask-2)"></path>
                </g>
            </g>
        </g>
    </g>
</svg>