<?xml version="1.0" encoding="utf-8"?>
<!-- Generator: Adobe Illustrator 25.0.0, SVG Export Plug-In . SVG Version: 6.00 Build 0)  -->
<svg version="1.1" id="Layer_1" xmlns="http://www.w3.org/2000/svg" xmlns:xlink="http://www.w3.org/1999/xlink" x="0px" y="0px"
	 viewBox="0 0 302 339" style="enable-background:new 0 0 302 339;" xml:space="preserve">
<style type="text/css">
	.st0{fill:#979797;}
	.st1{fill-rule:evenodd;clip-rule:evenodd;fill:#6D7278;}
	.st2{enable-background:new    ;}
	.st3{fill:#6D7278;}
	.st4{fill:#E01836;}
</style>
<g id="Low-Effort-Dev">
	<g id="Missing-Transaction-modal---320px-Mobile---Done---dev-Copy" transform="translate(-19.000000, -121.000000)">
		<g id="Group-2" transform="translate(19.000000, 121.000000)">
			<g id="Combined-Shape_1_">
				<polygon class="st0" points="285,338.4 249.1,309.3 213.6,338.1 178,309.3 142.5,338.1 107,309.3 71.5,338.1 36,309.3 
					-0.1,338.4 -0.1,-0.1 285,-0.1 285,125 283,125 283,1.9 1.9,1.9 1.9,334.4 36,306.9 71.5,335.7 107,306.9 142.5,335.7 
					178,306.9 213.6,335.7 249.1,306.9 283,334.4 283,155.3 285,155.3 				"/>
			</g>
			<g id="Group-7" transform="translate(69.350000, 17.100000)">
				<g id="Fill-845">
					<path class="st1" d="M140.7,19.4c-0.7-2.5-6.3-1.3-5.1,1.7c0.9,2.3,6.3,3.6,8.9,7.3c4,5.9-4.9,12.5-11.5,9.3
						c-4.7-2.2-4.7-5.7-4.4-7.1c0.5-2.1,2.8-2.1,3.1-1c0.4,2-0.5,1.9-0.5,2.8c0.4,3.4,5.8,4.8,8.7,1.9c4-4,0.5-6.6-0.2-7.1
						c-1.9-1.3-4.4-1.7-6-3.9c-3.5-4.8,1.9-8.9,5.9-7.7c1.8,0.5,3.3,1.9,2.9,3.6C142.2,20.7,141.1,20.5,140.7,19.4L140.7,19.4z
						 M35.7,34.2c-0.8-3.1-0.3-9.5,0.2-13.3c0.9-6.8,2.8-10.5,2.8-14.6c0-1.9-0.6-5.9-4.8-6C23.6-0.1,19.8,25,19.3,28.5
						c-0.2-1.6-0.1-10.9-0.8-17.6C17.3,1,15.2,0.3,13,0.2C5.3-0.4,4.8,14.5,4.9,28.7c0-2.9,0.4-8.8-2.4-11.8
						c-1.4-1.5-3.5-1.4-2.1,0.6c0.2,0.2,0.3,0.7,0.5,1c2.7,4,2.1,20.1,4.8,20c0.8,0,2.1-0.4,2-4C7.5,23.6,8.4,4.1,12.1,4
						c3.9,0,3.1,19.4,4.2,27c0.6,3.8,4.6,4.1,5.9-1.3c1.6-7.3,1.7-12,5.3-19.5c4.8-10.1,8.7-6.8,7,0.2c-0.9,3.6-3.8,12.3-2.3,22.3
						c0.4,2.9,2.3,6.6,3.7,5.8C36.7,38,36.3,36.6,35.7,34.2L35.7,34.2z M41.7,18.9c-1,0.8-4.3,7.7-2.9,14.7c1.4,5.8,5.4,7.3,9.9,2
						c2.5,5.5,11.3,3,15.9-3.7c0.3,3.2,0.6,3.7,0.6,4c0.4,2,2.6,2.7,3.1,1c0.5-1.4,2.2-8.7,6.3-13c1.1-1.1,4.8-2.6,3.8,1.4
						c-0.2,1-2,6.9-1.9,9.5c0.1,2.7,0.9,5,2.7,3.9c0.8-0.5,0.4-2.8,0.3-4.1c-0.4-5.8,1.4-8.6,2.3-10.9s0.3-5.2-3.7-4.6
						c-4.3,0.6-8.6,5.6-10.7,12c0-10.1,5.4-20.1,8.9-28.7c0.5-1-1.7-3.6-4.1-0.9c-2.2,2.4-7,17.4-7.4,24.3c-0.2,1.2-2.1,6.2-4.9,8.4
						c-2.9,2.2-7.7,3.2-7.8-2.1s2.9-10,5-10.9c1.2-0.5,1.8,0.6,2.3,1.2c0.7,0.9,3.5,1.4,3.4-1.1c-0.1-2.6-2.9-4.7-6.9-2.7
						c-5.8,2.8-7.5,9.6-8,12.5c-0.6,3.8-2.1,5.3-2.4,5.6c-0.4,0.2-2.6,2.5-2.9-2.8c-0.1-3.4,0.8-6.9,1.7-9.5c0.9-2.5,0.8-2.2,1-2.9
						C45.9,19,43.6,17.3,41.7,18.9L41.7,18.9z M45.8,11.3c-1.6,0.1-3.3,2.2-2.2,4.4c0.6,0.9,1.6,1.2,2.5,0.8
						c0.9-0.3,2.3-1.8,2.3-3.1C48.5,12,47.7,11.1,45.8,11.3L45.8,11.3z M97,22.2c0.3,0.5,1.3,0.7,1.7-0.5c0.4-1.4-0.8-4.9-3.6-5
						c-2.6-0.1-4.7,1.4-6.7,3.6c-1.8,2-7.2,9.6-6.9,15c0.2,2.9,2.9,4,6,2.2c3.7-2.2,6.4-6.3,6.9-6.9c0.1,4.8,4.2,7.9,9.1,3.3
						c0.6,1.2,1.7,2.6,2.9,3.5c3.5,2.4,9.8,1.9,14.5-5.4c1,3.5,1.5,4.8,1.9,5.4c0.9,1.8,2.9,2.2,3-0.2c0-0.8-0.8-2.6-1.4-5
						c-1.9-7-4.5-19.2,1.4-27.4c2.5-2.8,5.1-3.5,5.5-0.3c0.2,1.8-0.1,9.6-5.9,19.9c-0.8,1.8,0.9,2.3,1.5,1.1
						c0.8-1.8,8.3-13.2,8.1-20.9c-0.1-4.6-6.9-7-11.7-0.8c-4.6,5.9-5,17.5-3.3,24.1c-3.1,5.7-6.6,10.3-11,8
						c-4.7-2.9-3.2-12.9-0.1-15.1c2.1-1.5,3.4,0.3,2.2,2.4c-1.5,2.8-2.6,3.3-3.6,4c-1.3,1-0.5,2.3,0.7,1.9c3.7-1.3,5.5-4.3,6.2-6.7
						c2-6.5-5.9-8.9-10-1.4c-2.8,5.1-1.7,9.5-1.7,10.1c-0.8,1-3.5,4.6-4,2.1c-0.4-2.4,0.3-6.1,0.4-7.2c0.4-2.7-2.3-3.8-3.9-1.4
						c-1.7,2.4-4.8,9-8.6,10.9c-3.7,2-0.3-9.1,2.5-12.3c1.7-2.1,4.4-4.4,6.9-1.7C96.7,21.8,96.7,21.7,97,22.2L97,22.2z M144.1,15.5
						h0.1c0.2,0,0.2,0.1,0.2,0.2c0,0.1-0.1,0.2-0.3,0.2H144v-0.4H144.1z M144.1,16h0.1c0.1,0,0.2,0.1,0.2,0.2s0.1,0.2,0.1,0.3h0.3
						c0,0,0-0.1-0.1-0.3c0-0.1-0.1-0.2-0.2-0.3l0,0c0.1,0,0.2-0.1,0.2-0.3c0-0.1,0-0.2-0.1-0.2c-0.1-0.1-0.2-0.1-0.4-0.1
						s-0.3,0-0.4,0v1.1h0.3L144.1,16L144.1,16z M144.3,15c0.5,0,0.8,0.4,0.8,0.9s-0.4,0.9-0.8,0.9c-0.5,0-0.9-0.4-0.9-0.9
						C143.4,15.4,143.8,15,144.3,15L144.3,15z M144.3,14.7c-0.6,0-1.1,0.5-1.1,1.1c0,0.6,0.5,1.1,1.1,1.1s1.1-0.5,1.1-1.1
						C145.4,15.2,144.9,14.7,144.3,14.7L144.3,14.7z"/>
				</g>
				<g id="Fill-847">
					<path class="st1" d="M37.7,61.1v-7.7l-3.1,7.7h-1.8l-3.1-7.6v7.6h-2v-11h2.8l3.3,7.9l3.2-7.9h2.9V61L37.7,61.1L37.7,61.1z
						 M43.6,56.7l1.9-0.3c0.4-0.1,0.6-0.3,0.6-0.5c0-0.5-0.4-1-1.3-1c-0.9,0-1.4,0.6-1.4,1.2l-1.8-0.4c0.1-1.2,1.2-2.5,3.3-2.5
						c2.4,0,3.3,1.4,3.3,2.9v3.7c0,0.4,0,0.9,0.1,1.2h-1.9c0-0.2-0.1-0.6-0.1-0.9c-0.4,0.6-1.1,1.1-2.2,1.1c-1.6,0-2.6-1.1-2.6-2.3
						C41.4,57.6,42.4,56.9,43.6,56.7L43.6,56.7z M46.1,58v-0.3L44.4,58c-0.5,0.1-0.9,0.4-0.9,1c0,0.4,0.3,0.9,1,0.9
						C45.3,59.7,46.1,59.3,46.1,58L46.1,58z M57.3,59.7c0,0.5,0,1.1,0.1,1.4h-2c0-0.2-0.1-0.5-0.1-0.9c-0.3,0.6-1.1,1.1-2.1,1.1
						c-2.2,0-3.7-1.7-3.7-4c0-2.2,1.5-4,3.6-4c1.3,0,1.9,0.5,2.1,0.9v-4.3h2v9.8H57.3z M53.4,59.4c1,0,1.9-0.8,1.9-2.2
						s-0.8-2.1-1.9-2.1c-1,0-1.9,0.8-1.9,2.1C51.5,58.6,52.3,59.4,53.4,59.4L53.4,59.4z M66.1,58.9c-0.4,1.3-1.6,2.4-3.5,2.4
						c-2.1,0-3.9-1.5-3.9-4.1c0-2.4,1.8-4,3.7-4c2.3,0,3.7,1.5,3.7,3.9c0,0.3,0,0.6,0,0.6h-5.4c0,1,0.9,1.7,1.9,1.7s1.5-0.5,1.7-1.2
						L66.1,58.9z M64.2,56.4c0-0.8-0.5-1.5-1.7-1.5c-1.1,0-1.6,0.8-1.7,1.5H64.2z M71.9,61.1V49.9h2v4.4c0.3-0.5,1.2-1,2.3-1
						c2.2,0,3.5,1.7,3.5,4s-1.4,4-3.6,4c-1,0-1.8-0.5-2.3-1.1v0.9C73.8,61.1,71.9,61.1,71.9,61.1z M75.8,55.1c-1,0-1.9,0.8-1.9,2.1
						c0,1.4,0.9,2.2,1.9,2.2s1.9-0.8,1.9-2.2C77.7,55.9,76.8,55.1,75.8,55.1L75.8,55.1z M81.6,64l1.8-3.9l-3.2-6.6h2.3l2,4.4
						l1.9-4.4h2.2L83.7,64H81.6z M94.3,64l1.8-3.9l-3.2-6.6h2.3l2,4.4l1.9-4.4h2.2L96.5,64H94.3z M109.5,57.3c0,2.3-1.7,4-4,4
						s-4-1.7-4-4s1.7-4,4-4C107.8,53.2,109.5,54.9,109.5,57.3L109.5,57.3z M107.5,57.3c0-1.4-0.9-2.2-1.9-2.2s-1.9,0.7-1.9,2.2
						c0,1.4,0.9,2.2,1.9,2.2C106.5,59.4,107.5,58.7,107.5,57.3L107.5,57.3z M115.9,60.2c-0.4,0.7-1.3,1-2.1,1c-1.8,0-2.9-1.3-2.9-3
						v-4.8h2.1v4.4c0,0.8,0.4,1.5,1.4,1.5c0.9,0,1.4-0.6,1.4-1.5v-4.4h2.1v6.2c0,0.6,0,1.1,0.1,1.4h-2
						C116,60.9,115.9,60.5,115.9,60.2L115.9,60.2z"/>
				</g>
			</g>
			<g class="st2">
				<g>
					<path class="st3" d="M34,115.6l0-6.8l-3.4,5.7H30l-3.4-5.6v6.7h-1.3v-9.3h1.1l3.9,6.5l3.8-6.5h1.1l0,9.3H34z"/>
				</g>
				<g>
					<path class="st3" d="M37.9,107c-0.2-0.2-0.2-0.4-0.2-0.6s0.1-0.4,0.2-0.6c0.2-0.2,0.4-0.2,0.6-0.2s0.5,0.1,0.6,0.2
						c0.2,0.2,0.2,0.3,0.2,0.6c0,0.2-0.1,0.4-0.2,0.6c-0.2,0.2-0.4,0.2-0.6,0.2S38,107.1,37.9,107z M37.9,108.6h1.3v7h-1.3V108.6z"
						/>
				</g>
				<g>
					<path class="st3" d="M42.7,115.2c-0.6-0.3-1-0.7-1.3-1.3c-0.3-0.5-0.5-1.2-0.5-1.9s0.2-1.3,0.5-1.9c0.3-0.5,0.8-1,1.3-1.3
						c0.6-0.3,1.2-0.5,1.9-0.5c0.6,0,1.2,0.1,1.7,0.4c0.5,0.3,0.9,0.6,1.2,1.1l-1,0.6c-0.2-0.3-0.5-0.6-0.8-0.8
						c-0.3-0.2-0.7-0.3-1.1-0.3c-0.5,0-0.9,0.1-1.2,0.3c-0.4,0.2-0.7,0.5-0.9,0.9s-0.3,0.8-0.3,1.3c0,0.5,0.1,0.9,0.3,1.3
						c0.2,0.4,0.5,0.7,0.9,0.9c0.4,0.2,0.8,0.3,1.2,0.3c0.4,0,0.8-0.1,1.1-0.3c0.3-0.2,0.6-0.4,0.8-0.8l1,0.6
						c-0.3,0.5-0.7,0.9-1.2,1.1s-1.1,0.4-1.7,0.4C43.9,115.7,43.3,115.5,42.7,115.2z"/>
				</g>
				<g>
					<path class="st3" d="M55,109.3c0.5,0.5,0.8,1.3,0.8,2.3v4.1h-1.3v-3.9c0-0.7-0.2-1.2-0.5-1.5c-0.3-0.3-0.8-0.5-1.4-0.5
						c-0.7,0-1.2,0.2-1.6,0.6s-0.6,1-0.6,1.7v3.6h-1.3v-9.9h1.3v3.8c0.3-0.3,0.6-0.6,1-0.8c0.4-0.2,0.9-0.3,1.4-0.3
						C53.7,108.5,54.4,108.7,55,109.3z"/>
				</g>
				<g>
					<path class="st3" d="M62.9,109.2c0.5,0.5,0.8,1.2,0.8,2.1v4.3h-1.2v-0.9c-0.2,0.3-0.5,0.6-0.9,0.8s-0.9,0.3-1.4,0.3
						c-0.8,0-1.4-0.2-1.9-0.6c-0.5-0.4-0.7-0.9-0.7-1.5c0-0.6,0.2-1.1,0.7-1.5s1.2-0.6,2.2-0.6h2v-0.3c0-0.5-0.2-1-0.5-1.3
						c-0.3-0.3-0.8-0.4-1.4-0.4c-0.4,0-0.8,0.1-1.2,0.2c-0.4,0.1-0.7,0.3-1,0.6l-0.5-1c0.4-0.3,0.8-0.5,1.3-0.7s1-0.2,1.6-0.2
						C61.7,108.5,62.4,108.7,62.9,109.2z M61.7,114.4c0.4-0.2,0.6-0.5,0.8-0.9v-1h-2c-1.1,0-1.6,0.4-1.6,1.1c0,0.4,0.1,0.6,0.4,0.8
						s0.7,0.3,1.1,0.3C60.9,114.7,61.3,114.6,61.7,114.4z"/>
				</g>
				<g>
					<path class="st3" d="M72.5,112.5h-5.7c0.1,0.6,0.4,1.1,0.8,1.5s1,0.6,1.7,0.6c0.8,0,1.5-0.3,2-0.9l0.7,0.8
						c-0.3,0.4-0.7,0.7-1.2,0.9c-0.5,0.2-1,0.3-1.6,0.3c-0.7,0-1.4-0.2-2-0.5c-0.6-0.3-1-0.7-1.3-1.3c-0.3-0.5-0.5-1.2-0.5-1.9
						c0-0.7,0.2-1.3,0.5-1.8c0.3-0.5,0.7-1,1.3-1.3c0.5-0.3,1.1-0.5,1.8-0.5s1.3,0.2,1.8,0.5c0.5,0.3,0.9,0.7,1.2,1.3
						c0.3,0.5,0.4,1.2,0.4,1.9C72.5,112.2,72.5,112.3,72.5,112.5z M67.5,110.1c-0.4,0.4-0.7,0.9-0.7,1.5h4.5
						c-0.1-0.6-0.3-1.1-0.7-1.5c-0.4-0.4-0.9-0.6-1.5-0.6S67.9,109.7,67.5,110.1z"/>
				</g>
				<g>
					<path class="st3" d="M74.3,105.7h1.3v9.9h-1.3V105.7z"/>
				</g>
				<g>
					<path class="st3" d="M78.3,115.4c-0.5-0.2-0.9-0.4-1.2-0.6l0.5-1c0.3,0.2,0.7,0.4,1.1,0.5c0.4,0.1,0.9,0.2,1.3,0.2
						c1.1,0,1.7-0.3,1.7-1c0-0.2-0.1-0.4-0.2-0.5c-0.2-0.1-0.3-0.2-0.6-0.3s-0.5-0.1-1-0.2c-0.6-0.1-1-0.2-1.4-0.3
						c-0.4-0.1-0.7-0.3-0.9-0.6c-0.3-0.3-0.4-0.7-0.4-1.2c0-0.6,0.3-1.2,0.8-1.5c0.5-0.4,1.2-0.6,2.1-0.6c0.5,0,0.9,0.1,1.4,0.2
						c0.5,0.1,0.9,0.3,1.2,0.5l-0.5,1c-0.6-0.4-1.3-0.6-2-0.6c-0.5,0-1,0.1-1.2,0.3s-0.4,0.4-0.4,0.7c0,0.2,0.1,0.4,0.2,0.5
						s0.4,0.2,0.6,0.3c0.2,0.1,0.6,0.1,1,0.2c0.6,0.1,1,0.2,1.4,0.3c0.4,0.1,0.6,0.3,0.9,0.6c0.2,0.3,0.4,0.6,0.4,1.1
						c0,0.6-0.3,1.1-0.8,1.5c-0.5,0.4-1.3,0.6-2.2,0.6C79.4,115.7,78.9,115.6,78.3,115.4z"/>
				</g>
				<g>
					<path class="st3" d="M89.1,115.4c-0.7-0.2-1.2-0.5-1.5-0.8l0.5-1c0.4,0.3,0.8,0.6,1.4,0.8c0.6,0.2,1.1,0.3,1.7,0.3
						c0.8,0,1.3-0.1,1.7-0.4c0.4-0.3,0.6-0.6,0.6-1c0-0.3-0.1-0.6-0.3-0.8c-0.2-0.2-0.5-0.4-0.8-0.5c-0.3-0.1-0.7-0.2-1.3-0.4
						c-0.7-0.2-1.3-0.3-1.7-0.5c-0.4-0.2-0.8-0.4-1.1-0.8c-0.3-0.4-0.5-0.8-0.5-1.4c0-0.5,0.1-0.9,0.4-1.3c0.3-0.4,0.7-0.7,1.2-1
						c0.5-0.2,1.2-0.4,2-0.4c0.5,0,1.1,0.1,1.6,0.2c0.5,0.1,1,0.3,1.4,0.6l-0.4,1.1c-0.4-0.2-0.8-0.4-1.2-0.6
						c-0.4-0.1-0.9-0.2-1.3-0.2c-0.8,0-1.3,0.1-1.7,0.4c-0.4,0.3-0.6,0.6-0.6,1.1c0,0.3,0.1,0.6,0.3,0.8c0.2,0.2,0.5,0.4,0.8,0.5
						c0.3,0.1,0.7,0.2,1.3,0.4c0.7,0.2,1.3,0.3,1.7,0.5c0.4,0.2,0.8,0.4,1.1,0.8c0.3,0.3,0.5,0.8,0.5,1.4c0,0.5-0.1,0.9-0.4,1.3
						c-0.3,0.4-0.7,0.7-1.2,1c-0.5,0.2-1.2,0.4-2,0.4C90.4,115.7,89.7,115.6,89.1,115.4z"/>
				</g>
				<g>
					<path class="st3" d="M100.4,115.2c-0.2,0.2-0.4,0.3-0.7,0.4c-0.3,0.1-0.6,0.1-0.9,0.1c-0.7,0-1.3-0.2-1.6-0.6
						c-0.4-0.4-0.6-0.9-0.6-1.6v-3.9h-1.2v-1.1h1.2V107h1.3v1.5h2v1.1h-2v3.8c0,0.4,0.1,0.7,0.3,0.9c0.2,0.2,0.5,0.3,0.8,0.3
						c0.4,0,0.7-0.1,1-0.3L100.4,115.2z"/>
				</g>
				<g>
					<path class="st3" d="M102.9,115.2c-0.6-0.3-1-0.7-1.3-1.3c-0.3-0.5-0.5-1.2-0.5-1.9s0.2-1.3,0.5-1.9c0.3-0.5,0.8-1,1.3-1.3
						c0.6-0.3,1.2-0.5,1.9-0.5c0.7,0,1.3,0.2,1.9,0.5c0.6,0.3,1,0.7,1.3,1.3c0.3,0.5,0.5,1.2,0.5,1.9s-0.2,1.3-0.5,1.9
						c-0.3,0.5-0.7,1-1.3,1.3s-1.2,0.5-1.9,0.5C104.1,115.7,103.4,115.5,102.9,115.2z M106,114.3c0.4-0.2,0.6-0.5,0.8-0.9
						c0.2-0.4,0.3-0.8,0.3-1.3s-0.1-0.9-0.3-1.3c-0.2-0.4-0.5-0.7-0.8-0.9c-0.4-0.2-0.8-0.3-1.2-0.3s-0.9,0.1-1.2,0.3
						c-0.4,0.2-0.6,0.5-0.9,0.9s-0.3,0.8-0.3,1.3s0.1,0.9,0.3,1.3s0.5,0.7,0.9,0.9c0.4,0.2,0.8,0.3,1.2,0.3S105.6,114.5,106,114.3z"
						/>
				</g>
				<g>
					<path class="st3" d="M112.4,108.8c0.4-0.2,1-0.3,1.6-0.3v1.2c-0.1,0-0.2,0-0.3,0c-0.7,0-1.2,0.2-1.6,0.6
						c-0.4,0.4-0.6,1-0.6,1.8v3.5h-1.3v-7h1.2v1.2C111.6,109.3,112,109,112.4,108.8z"/>
				</g>
				<g>
					<path class="st3" d="M121.8,112.5h-5.7c0.1,0.6,0.4,1.1,0.8,1.5s1,0.6,1.7,0.6c0.8,0,1.5-0.3,2-0.9l0.7,0.8
						c-0.3,0.4-0.7,0.7-1.2,0.9c-0.5,0.2-1,0.3-1.6,0.3c-0.7,0-1.4-0.2-2-0.5c-0.6-0.3-1-0.7-1.3-1.3c-0.3-0.5-0.5-1.2-0.5-1.9
						c0-0.7,0.2-1.3,0.5-1.8c0.3-0.5,0.7-1,1.3-1.3c0.5-0.3,1.1-0.5,1.8-0.5s1.3,0.2,1.8,0.5c0.5,0.3,0.9,0.7,1.2,1.3
						c0.3,0.5,0.4,1.2,0.4,1.9C121.9,112.2,121.8,112.3,121.8,112.5z M116.8,110.1c-0.4,0.4-0.7,0.9-0.7,1.5h4.5
						c-0.1-0.6-0.3-1.1-0.7-1.5c-0.4-0.4-0.9-0.6-1.5-0.6S117.2,109.7,116.8,110.1z"/>
				</g>
				<g>
					<path class="st3" d="M133,109.7l-0.3,2.6h1.8v1h-2l-0.3,2.4h-0.9l0.3-2.4h-2.5l-0.3,2.4h-0.9l0.3-2.4h-1.8v-1h2l0.3-2.6h-1.9
						v-1h2l0.3-2.4h0.9l-0.3,2.4h2.5l0.3-2.4h0.9l-0.3,2.4h1.8v1H133z M132.1,109.7h-2.5l-0.3,2.6h2.5L132.1,109.7z"/>
				</g>
				<g>
					<path class="st3" d="M138.9,106.3v9.3h-1.3v-8.2h-2.1v-1.2H138.9z"/>
				</g>
				<g>
					<path class="st3" d="M147.4,114.4v1.2h-6.7v-0.9l3.8-3.7c0.5-0.4,0.8-0.8,0.9-1.2c0.2-0.3,0.2-0.6,0.2-1c0-0.5-0.2-0.9-0.5-1.1
						s-0.8-0.4-1.5-0.4c-1,0-1.8,0.3-2.4,1l-0.9-0.8c0.4-0.4,0.8-0.8,1.4-1c0.6-0.2,1.2-0.4,2-0.4c1,0,1.8,0.2,2.3,0.7
						c0.6,0.5,0.9,1.1,0.9,1.9c0,0.5-0.1,1-0.3,1.4s-0.6,0.9-1.2,1.5l-2.8,2.7H147.4z"/>
				</g>
				<g>
					<path class="st3" d="M154.2,111c0.5,0.5,0.7,1.1,0.7,1.8c0,0.5-0.1,1-0.4,1.4c-0.3,0.4-0.7,0.8-1.2,1s-1.2,0.4-1.9,0.4
						c-0.7,0-1.3-0.1-1.9-0.3c-0.6-0.2-1.1-0.5-1.5-0.8l0.6-1.1c0.3,0.3,0.7,0.5,1.2,0.7s1,0.3,1.6,0.3c0.7,0,1.2-0.1,1.6-0.4
						c0.4-0.3,0.6-0.7,0.6-1.2c0-0.5-0.2-0.9-0.6-1.2c-0.4-0.3-1-0.4-1.7-0.4h-0.7v-0.9l2.3-2.9h-4.5v-1.2h6.1v0.9l-2.4,3
						C153,110.3,153.7,110.6,154.2,111z"/>
				</g>
				<g>
					<path class="st3" d="M164.2,113.3h-1.8v2.3h-1.3v-2.3H156v-0.9l4.8-6.1h1.4l-4.6,5.9h3.6v-2h1.2v2h1.8V113.3z"/>
				</g>
				<g>
					<path class="st3" d="M169.7,115.4c-0.3-1.1-0.4-2.2-0.4-3.4c0-1.2,0.1-2.4,0.4-3.4c0.3-1.1,0.7-2,1.2-2.8h1.2
						c-0.5,0.9-0.9,1.9-1.2,2.9s-0.4,2.1-0.4,3.3c0,1.2,0.1,2.3,0.4,3.3s0.6,2,1.2,2.9h-1.2C170.3,117.4,169.9,116.4,169.7,115.4z"
						/>
				</g>
				<g>
					<path class="st3" d="M179.6,114.4v1.2h-6.7v-0.9l3.8-3.7c0.5-0.4,0.8-0.8,0.9-1.2c0.2-0.3,0.2-0.6,0.2-1c0-0.5-0.2-0.9-0.5-1.1
						c-0.3-0.3-0.8-0.4-1.5-0.4c-1,0-1.8,0.3-2.4,1l-0.9-0.8c0.4-0.4,0.8-0.8,1.4-1s1.2-0.4,2-0.4c1,0,1.8,0.2,2.3,0.7
						c0.6,0.5,0.9,1.1,0.9,1.9c0,0.5-0.1,1-0.3,1.4s-0.6,0.9-1.2,1.5l-2.8,2.7H179.6z"/>
				</g>
				<g>
					<path class="st3" d="M183.6,106.3v9.3h-1.3v-8.2h-2.1v-1.2H183.6z"/>
				</g>
				<g>
					<path class="st3" d="M193.8,113.3H192v2.3h-1.3v-2.3h-5.2v-0.9l4.8-6.1h1.4l-4.6,5.9h3.6v-2h1.2v2h1.8V113.3z"/>
				</g>
				<g>
					<path class="st3" d="M194.8,111.4h3.6v1.1h-3.6V111.4z"/>
				</g>
				<g>
					<path class="st3" d="M202.4,106.3v9.3h-1.3v-8.2H199v-1.2H202.4z"/>
				</g>
				<g>
					<path class="st3" d="M211,114.4v1.2h-6.7v-0.9l3.8-3.7c0.5-0.4,0.8-0.8,0.9-1.2c0.2-0.3,0.2-0.6,0.2-1c0-0.5-0.2-0.9-0.5-1.1
						c-0.3-0.3-0.8-0.4-1.5-0.4c-1,0-1.8,0.3-2.4,1l-0.9-0.8c0.4-0.4,0.8-0.8,1.4-1c0.6-0.2,1.2-0.4,2-0.4c1,0,1.8,0.2,2.3,0.7
						c0.6,0.5,0.9,1.1,0.9,1.9c0,0.5-0.1,1-0.3,1.4s-0.6,0.9-1.2,1.5l-2.8,2.7H211z"/>
				</g>
				<g>
					<path class="st3" d="M217.7,111c0.5,0.5,0.7,1.1,0.7,1.8c0,0.5-0.1,1-0.4,1.4c-0.3,0.4-0.7,0.8-1.2,1s-1.2,0.4-1.9,0.4
						c-0.7,0-1.3-0.1-1.9-0.3c-0.6-0.2-1.1-0.5-1.5-0.8l0.6-1.1c0.3,0.3,0.7,0.5,1.2,0.7c0.5,0.2,1,0.3,1.6,0.3
						c0.7,0,1.2-0.1,1.6-0.4c0.4-0.3,0.6-0.7,0.6-1.2c0-0.5-0.2-0.9-0.6-1.2c-0.4-0.3-1-0.4-1.7-0.4h-0.7v-0.9l2.3-2.9h-4.5v-1.2
						h6.1v0.9l-2.4,3C216.6,110.3,217.3,110.6,217.7,111z"/>
				</g>
				<g>
					<path class="st3" d="M219.8,111.4h3.6v1.1h-3.6V111.4z"/>
				</g>
				<g>
					<path class="st3" d="M227.4,106.3v9.3h-1.3v-8.2H224v-1.2H227.4z"/>
				</g>
				<g>
					<path class="st3" d="M236,114.4v1.2h-6.7v-0.9l3.8-3.7c0.5-0.4,0.8-0.8,0.9-1.2c0.2-0.3,0.2-0.6,0.2-1c0-0.5-0.2-0.9-0.5-1.1
						c-0.3-0.3-0.8-0.4-1.5-0.4c-1,0-1.8,0.3-2.4,1l-0.9-0.8c0.4-0.4,0.8-0.8,1.4-1s1.2-0.4,2-0.4c1,0,1.8,0.2,2.3,0.7
						c0.6,0.5,0.9,1.1,0.9,1.9c0,0.5-0.1,1-0.3,1.4s-0.6,0.9-1.2,1.5l-2.8,2.7H236z"/>
				</g>
				<g>
					<path class="st3" d="M242.8,111c0.5,0.5,0.7,1.1,0.7,1.8c0,0.5-0.1,1-0.4,1.4c-0.3,0.4-0.7,0.8-1.2,1c-0.5,0.3-1.2,0.4-1.9,0.4
						c-0.7,0-1.3-0.1-1.9-0.3c-0.6-0.2-1.1-0.5-1.5-0.8l0.6-1.1c0.3,0.3,0.7,0.5,1.2,0.7c0.5,0.2,1,0.3,1.6,0.3
						c0.7,0,1.2-0.1,1.6-0.4c0.4-0.3,0.6-0.7,0.6-1.2c0-0.5-0.2-0.9-0.6-1.2c-0.4-0.3-1-0.4-1.7-0.4h-0.7v-0.9l2.3-2.9H237v-1.2h6.1
						v0.9l-2.4,3C241.6,110.3,242.3,110.6,242.8,111z"/>
				</g>
				<g>
					<path class="st3" d="M252.8,113.3H251v2.3h-1.3v-2.3h-5.2v-0.9l4.8-6.1h1.4l-4.6,5.9h3.6v-2h1.2v2h1.8V113.3z"/>
				</g>
				<g>
					<path class="st3" d="M253.4,118.2c0.5-0.9,0.9-1.9,1.2-2.9s0.4-2.1,0.4-3.3c0-1.2-0.1-2.3-0.4-3.3s-0.6-2-1.2-2.9h1.2
						c0.5,0.8,0.9,1.7,1.2,2.8c0.3,1.1,0.4,2.2,0.4,3.4c0,1.2-0.1,2.4-0.4,3.4c-0.3,1.1-0.7,2-1.2,2.8H253.4z"/>
				</g>
			</g>
			<g class="st2">
				<g>
					<path d="M82.3,134.6l0-6.8l-3.4,5.7h-0.6l-3.4-5.6v6.7h-1.3v-9.3h1.1l3.9,6.5l3.8-6.5h1.1l0,9.3H82.3z"/>
				</g>
				<g>
					<path d="M86.2,126c-0.2-0.2-0.2-0.4-0.2-0.6s0.1-0.4,0.2-0.6c0.2-0.2,0.4-0.2,0.6-0.2s0.5,0.1,0.6,0.2c0.2,0.2,0.2,0.3,0.2,0.6
						c0,0.2-0.1,0.4-0.2,0.6c-0.2,0.2-0.4,0.2-0.6,0.2S86.4,126.1,86.2,126z M86.2,127.6h1.3v7h-1.3V127.6z"/>
				</g>
				<g>
					<path d="M91,134.2c-0.6-0.3-1-0.7-1.3-1.3c-0.3-0.5-0.5-1.2-0.5-1.9s0.2-1.3,0.5-1.9c0.3-0.5,0.8-1,1.3-1.3
						c0.6-0.3,1.2-0.5,1.9-0.5c0.6,0,1.2,0.1,1.7,0.4c0.5,0.3,0.9,0.6,1.2,1.1l-1,0.6c-0.2-0.3-0.5-0.6-0.8-0.8
						c-0.3-0.2-0.7-0.3-1.1-0.3c-0.5,0-0.9,0.1-1.2,0.3c-0.4,0.2-0.7,0.5-0.9,0.9s-0.3,0.8-0.3,1.3c0,0.5,0.1,0.9,0.3,1.3
						c0.2,0.4,0.5,0.7,0.9,0.9c0.4,0.2,0.8,0.3,1.2,0.3c0.4,0,0.8-0.1,1.1-0.3c0.3-0.2,0.6-0.4,0.8-0.8l1,0.6
						c-0.3,0.5-0.7,0.9-1.2,1.1s-1.1,0.4-1.7,0.4C92.3,134.7,91.6,134.5,91,134.2z"/>
				</g>
				<g>
					<path d="M103.3,128.3c0.5,0.5,0.8,1.3,0.8,2.3v4.1h-1.3v-3.9c0-0.7-0.2-1.2-0.5-1.5c-0.3-0.3-0.8-0.5-1.4-0.5
						c-0.7,0-1.2,0.2-1.6,0.6s-0.6,1-0.6,1.7v3.6h-1.3v-9.9h1.3v3.8c0.3-0.3,0.6-0.6,1-0.8c0.4-0.2,0.9-0.3,1.4-0.3
						C102.1,127.5,102.8,127.7,103.3,128.3z"/>
				</g>
				<g>
					<path d="M111.3,128.2c0.5,0.5,0.8,1.2,0.8,2.1v4.3h-1.2v-0.9c-0.2,0.3-0.5,0.6-0.9,0.8s-0.9,0.3-1.4,0.3
						c-0.8,0-1.4-0.2-1.9-0.6c-0.5-0.4-0.7-0.9-0.7-1.5c0-0.6,0.2-1.1,0.7-1.5s1.2-0.6,2.2-0.6h2v-0.3c0-0.5-0.2-1-0.5-1.3
						c-0.3-0.3-0.8-0.4-1.4-0.4c-0.4,0-0.8,0.1-1.2,0.2c-0.4,0.1-0.7,0.3-1,0.6l-0.5-1c0.4-0.3,0.8-0.5,1.3-0.7s1-0.2,1.6-0.2
						C110,127.5,110.7,127.7,111.3,128.2z M110,133.4c0.4-0.2,0.6-0.5,0.8-0.9v-1h-2c-1.1,0-1.6,0.4-1.6,1.1c0,0.4,0.1,0.6,0.4,0.8
						s0.7,0.3,1.1,0.3C109.2,133.7,109.6,133.6,110,133.4z"/>
				</g>
				<g>
					<path d="M120.8,131.5h-5.7c0.1,0.6,0.4,1.1,0.8,1.5s1,0.6,1.7,0.6c0.8,0,1.5-0.3,2-0.9l0.7,0.8c-0.3,0.4-0.7,0.7-1.2,0.9
						c-0.5,0.2-1,0.3-1.6,0.3c-0.7,0-1.4-0.2-2-0.5c-0.6-0.3-1-0.7-1.3-1.3c-0.3-0.5-0.5-1.2-0.5-1.9c0-0.7,0.2-1.3,0.5-1.8
						c0.3-0.5,0.7-1,1.3-1.3c0.5-0.3,1.1-0.5,1.8-0.5s1.3,0.2,1.8,0.5c0.5,0.3,0.9,0.7,1.2,1.3c0.3,0.5,0.4,1.2,0.4,1.9
						C120.8,131.2,120.8,131.3,120.8,131.5z M115.8,129.1c-0.4,0.4-0.7,0.9-0.7,1.5h4.5c-0.1-0.6-0.3-1.1-0.7-1.5
						c-0.4-0.4-0.9-0.6-1.5-0.6S116.2,128.7,115.8,129.1z"/>
				</g>
				<g>
					<path d="M122.6,124.7h1.3v9.9h-1.3V124.7z"/>
				</g>
				<g>
					<path d="M126.7,134.4c-0.5-0.2-0.9-0.4-1.2-0.6l0.5-1c0.3,0.2,0.7,0.4,1.1,0.5c0.4,0.1,0.9,0.2,1.3,0.2c1.1,0,1.7-0.3,1.7-1
						c0-0.2-0.1-0.4-0.2-0.5c-0.2-0.1-0.3-0.2-0.6-0.3s-0.5-0.1-1-0.2c-0.6-0.1-1-0.2-1.4-0.3c-0.4-0.1-0.7-0.3-0.9-0.6
						c-0.3-0.3-0.4-0.7-0.4-1.2c0-0.6,0.3-1.2,0.8-1.5c0.5-0.4,1.2-0.6,2.1-0.6c0.5,0,0.9,0.1,1.4,0.2c0.5,0.1,0.9,0.3,1.2,0.5
						l-0.5,1c-0.6-0.4-1.3-0.6-2-0.6c-0.5,0-1,0.1-1.2,0.3s-0.4,0.4-0.4,0.7c0,0.2,0.1,0.4,0.2,0.5s0.4,0.2,0.6,0.3
						c0.2,0.1,0.6,0.1,1,0.2c0.6,0.1,1,0.2,1.4,0.3c0.4,0.1,0.6,0.3,0.9,0.6c0.2,0.3,0.4,0.6,0.4,1.1c0,0.6-0.3,1.1-0.8,1.5
						c-0.5,0.4-1.3,0.6-2.2,0.6C127.7,134.7,127.2,134.6,126.7,134.4z"/>
				</g>
				<g>
					<path d="M137.4,134.4c-0.7-0.2-1.2-0.5-1.5-0.8l0.5-1c0.4,0.3,0.8,0.6,1.4,0.8c0.6,0.2,1.1,0.3,1.7,0.3c0.8,0,1.3-0.1,1.7-0.4
						c0.4-0.3,0.6-0.6,0.6-1c0-0.3-0.1-0.6-0.3-0.8c-0.2-0.2-0.5-0.4-0.8-0.5c-0.3-0.1-0.7-0.2-1.3-0.4c-0.7-0.2-1.3-0.3-1.7-0.5
						c-0.4-0.2-0.8-0.4-1.1-0.8c-0.3-0.4-0.5-0.8-0.5-1.4c0-0.5,0.1-0.9,0.4-1.3c0.3-0.4,0.7-0.7,1.2-1c0.5-0.2,1.2-0.4,2-0.4
						c0.5,0,1.1,0.1,1.6,0.2c0.5,0.1,1,0.3,1.4,0.6l-0.4,1.1c-0.4-0.2-0.8-0.4-1.2-0.6c-0.4-0.1-0.9-0.2-1.3-0.2
						c-0.8,0-1.3,0.1-1.7,0.4c-0.4,0.3-0.6,0.6-0.6,1.1c0,0.3,0.1,0.6,0.3,0.8c0.2,0.2,0.5,0.4,0.8,0.5c0.3,0.1,0.7,0.2,1.3,0.4
						c0.7,0.2,1.3,0.3,1.7,0.5c0.4,0.2,0.8,0.4,1.1,0.8c0.3,0.3,0.5,0.8,0.5,1.4c0,0.5-0.1,0.9-0.4,1.3c-0.3,0.4-0.7,0.7-1.2,1
						c-0.5,0.2-1.2,0.4-2,0.4C138.7,134.7,138.1,134.6,137.4,134.4z"/>
				</g>
				<g>
					<path d="M148.8,134.2c-0.2,0.2-0.4,0.3-0.7,0.4c-0.3,0.1-0.6,0.1-0.9,0.1c-0.7,0-1.3-0.2-1.6-0.6c-0.4-0.4-0.6-0.9-0.6-1.6
						v-3.9h-1.2v-1.1h1.2V126h1.3v1.5h2v1.1h-2v3.8c0,0.4,0.1,0.7,0.3,0.9c0.2,0.2,0.5,0.3,0.8,0.3c0.4,0,0.7-0.1,1-0.3L148.8,134.2
						z"/>
				</g>
				<g>
					<path d="M151.2,134.2c-0.6-0.3-1-0.7-1.3-1.3c-0.3-0.5-0.5-1.2-0.5-1.9s0.2-1.3,0.5-1.9c0.3-0.5,0.8-1,1.3-1.3
						c0.6-0.3,1.2-0.5,1.9-0.5s1.3,0.2,1.9,0.5c0.6,0.3,1,0.7,1.3,1.3s0.5,1.2,0.5,1.9s-0.2,1.3-0.5,1.9c-0.3,0.5-0.7,1-1.3,1.3
						c-0.6,0.3-1.2,0.5-1.9,0.5S151.8,134.5,151.2,134.2z M154.3,133.3c0.4-0.2,0.6-0.5,0.8-0.9s0.3-0.8,0.3-1.3s-0.1-0.9-0.3-1.3
						s-0.5-0.7-0.8-0.9c-0.4-0.2-0.8-0.3-1.2-0.3s-0.9,0.1-1.2,0.3c-0.4,0.2-0.6,0.5-0.9,0.9s-0.3,0.8-0.3,1.3s0.1,0.9,0.3,1.3
						s0.5,0.7,0.9,0.9c0.4,0.2,0.8,0.3,1.2,0.3S153.9,133.5,154.3,133.3z"/>
				</g>
				<g>
					<path d="M160.7,127.8c0.4-0.2,1-0.3,1.6-0.3v1.2c-0.1,0-0.2,0-0.3,0c-0.7,0-1.2,0.2-1.6,0.6s-0.6,1-0.6,1.8v3.5h-1.3v-7h1.2
						v1.2C160,128.3,160.3,128,160.7,127.8z"/>
				</g>
				<g>
					<path d="M170.1,131.5h-5.7c0.1,0.6,0.4,1.1,0.8,1.5c0.5,0.4,1,0.6,1.7,0.6c0.8,0,1.5-0.3,2-0.9l0.7,0.8
						c-0.3,0.4-0.7,0.7-1.2,0.9c-0.5,0.2-1,0.3-1.6,0.3c-0.7,0-1.4-0.2-2-0.5s-1-0.7-1.3-1.3s-0.5-1.2-0.5-1.9
						c0-0.7,0.2-1.3,0.5-1.8c0.3-0.5,0.7-1,1.3-1.3c0.5-0.3,1.1-0.5,1.8-0.5s1.3,0.2,1.8,0.5c0.5,0.3,0.9,0.7,1.2,1.3
						c0.3,0.5,0.4,1.2,0.4,1.9C170.2,131.2,170.2,131.3,170.1,131.5z M165.2,129.1c-0.4,0.4-0.7,0.9-0.7,1.5h4.5
						c-0.1-0.6-0.3-1.1-0.7-1.5c-0.4-0.4-0.9-0.6-1.5-0.6C166.1,128.6,165.6,128.7,165.2,129.1z"/>
				</g>
				<g>
					<path d="M181.3,128.7l-0.3,2.6h1.8v1h-2l-0.3,2.4h-0.9l0.3-2.4h-2.5l-0.3,2.4h-0.9l0.3-2.4h-1.8v-1h2l0.3-2.6h-1.9v-1h2
						l0.3-2.4h0.9l-0.3,2.4h2.5l0.3-2.4h0.9l-0.3,2.4h1.8v1H181.3z M180.4,128.7h-2.5l-0.3,2.6h2.5L180.4,128.7z"/>
				</g>
				<g>
					<path d="M187.2,125.3v9.3h-1.3v-8.2h-2.1v-1.2H187.2z"/>
				</g>
				<g>
					<path d="M195.8,133.4v1.2h-6.7v-0.9l3.8-3.7c0.5-0.4,0.8-0.8,0.9-1.2c0.2-0.3,0.2-0.6,0.2-1c0-0.5-0.2-0.9-0.5-1.1
						c-0.3-0.3-0.8-0.4-1.5-0.4c-1,0-1.8,0.3-2.4,1l-0.9-0.8c0.4-0.4,0.8-0.8,1.4-1s1.2-0.4,2-0.4c1,0,1.8,0.2,2.3,0.7
						c0.6,0.5,0.9,1.1,0.9,1.9c0,0.5-0.1,1-0.3,1.4s-0.6,0.9-1.2,1.5l-2.8,2.7H195.8z"/>
				</g>
				<g>
					<path d="M202.5,130c0.5,0.5,0.7,1.1,0.7,1.8c0,0.5-0.1,1-0.4,1.4c-0.3,0.4-0.7,0.8-1.2,1c-0.5,0.3-1.2,0.4-1.9,0.4
						c-0.7,0-1.3-0.1-1.9-0.3c-0.6-0.2-1.1-0.5-1.5-0.8l0.6-1.1c0.3,0.3,0.7,0.5,1.2,0.7c0.5,0.2,1,0.3,1.6,0.3
						c0.7,0,1.2-0.1,1.6-0.4c0.4-0.3,0.6-0.7,0.6-1.2c0-0.5-0.2-0.9-0.6-1.2c-0.4-0.3-1-0.4-1.7-0.4h-0.7v-0.9l2.3-2.9h-4.5v-1.2
						h6.1v0.9l-2.4,3C201.3,129.3,202,129.6,202.5,130z"/>
				</g>
				<g>
					<path d="M212.6,132.3h-1.8v2.3h-1.3v-2.3h-5.2v-0.9l4.8-6.1h1.4l-4.6,5.9h3.6v-2h1.2v2h1.8V132.3z"/>
				</g>
			</g>
			<g class="st2">
				<g>
					<path class="st3" d="M78.5,152.4v1.2h-6.7v-0.9l3.8-3.7c0.5-0.4,0.8-0.8,0.9-1.2c0.2-0.3,0.2-0.6,0.2-1c0-0.5-0.2-0.9-0.5-1.1
						s-0.8-0.4-1.5-0.4c-1,0-1.8,0.3-2.4,1l-0.9-0.8c0.4-0.4,0.8-0.8,1.4-1c0.6-0.2,1.2-0.4,2-0.4c1,0,1.8,0.2,2.3,0.7
						c0.6,0.5,0.9,1.1,0.9,1.9c0,0.5-0.1,1-0.3,1.4s-0.6,0.9-1.2,1.5l-2.8,2.7H78.5z"/>
				</g>
				<g>
					<path class="st3" d="M86.1,152.4v1.2h-6.7v-0.9l3.8-3.7c0.5-0.4,0.8-0.8,0.9-1.2c0.2-0.3,0.2-0.6,0.2-1c0-0.5-0.2-0.9-0.5-1.1
						s-0.8-0.4-1.5-0.4c-1,0-1.8,0.3-2.4,1l-0.9-0.8c0.4-0.4,0.8-0.8,1.4-1c0.6-0.2,1.2-0.4,2-0.4c1,0,1.8,0.2,2.3,0.7
						c0.6,0.5,0.9,1.1,0.9,1.9c0,0.5-0.1,1-0.3,1.4s-0.6,0.9-1.2,1.5l-2.8,2.7H86.1z"/>
				</g>
				<g>
					<path class="st3" d="M92.8,149c0.5,0.5,0.7,1.1,0.7,1.8c0,0.5-0.1,1-0.4,1.4c-0.3,0.4-0.7,0.8-1.2,1c-0.5,0.3-1.2,0.4-1.9,0.4
						c-0.7,0-1.3-0.1-1.9-0.3c-0.6-0.2-1.1-0.5-1.5-0.8l0.6-1.1c0.3,0.3,0.7,0.5,1.2,0.7s1,0.3,1.6,0.3c0.7,0,1.2-0.1,1.6-0.4
						c0.4-0.3,0.6-0.7,0.6-1.2c0-0.5-0.2-0.9-0.6-1.2c-0.4-0.3-1-0.4-1.7-0.4h-0.7v-0.9l2.3-2.9H87v-1.2h6.1v0.9l-2.4,3
						C91.7,148.3,92.4,148.6,92.8,149z"/>
				</g>
				<g>
					<path class="st3" d="M112.3,144.3l-3.1,9.3h-1.4l-2.5-7.4l-2.5,7.4h-1.4l-3.1-9.3h1.4l2.5,7.6l2.6-7.6h1.2l2.6,7.6l2.6-7.6
						H112.3z"/>
				</g>
				<g>
					<path class="st3" d="M119.5,150.5h-5.7c0.1,0.6,0.4,1.1,0.8,1.5s1,0.6,1.7,0.6c0.8,0,1.5-0.3,2-0.9l0.7,0.8
						c-0.3,0.4-0.7,0.7-1.2,0.9c-0.5,0.2-1,0.3-1.6,0.3c-0.7,0-1.4-0.2-2-0.5c-0.6-0.3-1-0.7-1.3-1.3c-0.3-0.5-0.5-1.2-0.5-1.9
						c0-0.7,0.2-1.3,0.5-1.8c0.3-0.5,0.7-1,1.3-1.3c0.5-0.3,1.1-0.5,1.8-0.5s1.3,0.2,1.8,0.5c0.5,0.3,0.9,0.7,1.2,1.3
						c0.3,0.5,0.4,1.2,0.4,1.9C119.6,150.2,119.6,150.3,119.5,150.5z M114.5,148.1c-0.4,0.4-0.7,0.9-0.7,1.5h4.5
						c-0.1-0.6-0.3-1.1-0.7-1.5c-0.4-0.4-0.9-0.6-1.5-0.6S115,147.7,114.5,148.1z"/>
				</g>
				<g>
					<path class="st3" d="M121.7,153.4c-0.5-0.2-0.9-0.4-1.2-0.6l0.5-1c0.3,0.2,0.7,0.4,1.1,0.5c0.4,0.1,0.9,0.2,1.3,0.2
						c1.1,0,1.7-0.3,1.7-1c0-0.2-0.1-0.4-0.2-0.5c-0.2-0.1-0.3-0.2-0.6-0.3s-0.5-0.1-1-0.2c-0.6-0.1-1-0.2-1.4-0.3
						c-0.4-0.1-0.7-0.3-0.9-0.6c-0.3-0.3-0.4-0.7-0.4-1.2c0-0.6,0.3-1.2,0.8-1.5c0.5-0.4,1.2-0.6,2.1-0.6c0.5,0,0.9,0.1,1.4,0.2
						c0.5,0.1,0.9,0.3,1.2,0.5l-0.5,1c-0.6-0.4-1.3-0.6-2-0.6c-0.5,0-1,0.1-1.2,0.3s-0.4,0.4-0.4,0.7c0,0.2,0.1,0.4,0.2,0.5
						s0.4,0.2,0.6,0.3c0.2,0.1,0.6,0.1,1,0.2c0.6,0.1,1,0.2,1.4,0.3c0.4,0.1,0.6,0.3,0.9,0.6c0.2,0.3,0.4,0.6,0.4,1.1
						c0,0.6-0.3,1.1-0.8,1.5c-0.5,0.4-1.3,0.6-2.2,0.6C122.8,153.7,122.2,153.6,121.7,153.4z"/>
				</g>
				<g>
					<path class="st3" d="M132,153.2c-0.2,0.2-0.4,0.3-0.7,0.4c-0.3,0.1-0.6,0.1-0.9,0.1c-0.7,0-1.3-0.2-1.6-0.6
						c-0.4-0.4-0.6-0.9-0.6-1.6v-3.9H127v-1.1h1.2V145h1.3v1.5h2v1.1h-2v3.8c0,0.4,0.1,0.7,0.3,0.9c0.2,0.2,0.5,0.3,0.8,0.3
						c0.4,0,0.7-0.1,1-0.3L132,153.2z"/>
				</g>
				<g>
					<path class="st3" d="M145.9,153.6l0-6.8l-3.4,5.7h-0.6l-3.4-5.6v6.7h-1.3v-9.3h1.1l3.9,6.5l3.8-6.5h1.1l0,9.3H145.9z"/>
				</g>
				<g>
					<path class="st3" d="M154.6,147.2c0.5,0.5,0.8,1.2,0.8,2.1v4.3h-1.2v-0.9c-0.2,0.3-0.5,0.6-0.9,0.8s-0.9,0.3-1.4,0.3
						c-0.8,0-1.4-0.2-1.9-0.6c-0.5-0.4-0.7-0.9-0.7-1.5c0-0.6,0.2-1.1,0.7-1.5s1.2-0.6,2.2-0.6h2v-0.3c0-0.5-0.2-1-0.5-1.3
						c-0.3-0.3-0.8-0.4-1.4-0.4c-0.4,0-0.8,0.1-1.2,0.2c-0.4,0.1-0.7,0.3-1,0.6l-0.5-1c0.4-0.3,0.8-0.5,1.3-0.7s1-0.2,1.6-0.2
						C153.3,146.5,154.1,146.7,154.6,147.2z M153.3,152.4c0.4-0.2,0.6-0.5,0.8-0.9v-1h-2c-1.1,0-1.6,0.4-1.6,1.1
						c0,0.4,0.1,0.6,0.4,0.8s0.7,0.3,1.1,0.3C152.5,152.7,153,152.6,153.3,152.4z"/>
				</g>
				<g>
					<path class="st3" d="M157.8,145c-0.2-0.2-0.2-0.4-0.2-0.6s0.1-0.4,0.2-0.6c0.2-0.2,0.4-0.2,0.6-0.2s0.5,0.1,0.6,0.2
						s0.2,0.3,0.2,0.6c0,0.2-0.1,0.4-0.2,0.6s-0.4,0.2-0.6,0.2S157.9,145.1,157.8,145z M157.7,146.6h1.3v7h-1.3V146.6z"/>
				</g>
				<g>
					<path class="st3" d="M167.3,147.3c0.5,0.5,0.8,1.3,0.8,2.3v4.1h-1.3v-3.9c0-0.7-0.2-1.2-0.5-1.5c-0.3-0.3-0.8-0.5-1.4-0.5
						c-0.7,0-1.2,0.2-1.6,0.6c-0.4,0.4-0.6,1-0.6,1.7v3.6h-1.3v-7h1.2v1.1c0.3-0.4,0.6-0.6,1-0.8c0.4-0.2,0.9-0.3,1.5-0.3
						C166.1,146.5,166.8,146.7,167.3,147.3z"/>
				</g>
				<g>
					<path class="st3" d="M175,153.4c-0.7-0.2-1.2-0.5-1.5-0.8l0.5-1c0.4,0.3,0.8,0.6,1.4,0.8c0.6,0.2,1.1,0.3,1.7,0.3
						c0.8,0,1.3-0.1,1.7-0.4c0.4-0.3,0.6-0.6,0.6-1c0-0.3-0.1-0.6-0.3-0.8c-0.2-0.2-0.5-0.4-0.8-0.5c-0.3-0.1-0.7-0.2-1.3-0.4
						c-0.7-0.2-1.3-0.3-1.7-0.5c-0.4-0.2-0.8-0.4-1.1-0.8s-0.5-0.8-0.5-1.4c0-0.5,0.1-0.9,0.4-1.3c0.3-0.4,0.7-0.7,1.2-1
						s1.2-0.4,2-0.4c0.5,0,1.1,0.1,1.6,0.2c0.5,0.1,1,0.3,1.4,0.6l-0.4,1.1c-0.4-0.2-0.8-0.4-1.2-0.6c-0.4-0.1-0.9-0.2-1.3-0.2
						c-0.8,0-1.3,0.1-1.7,0.4c-0.4,0.3-0.6,0.6-0.6,1.1c0,0.3,0.1,0.6,0.3,0.8c0.2,0.2,0.5,0.4,0.8,0.5c0.3,0.1,0.7,0.2,1.3,0.4
						c0.7,0.2,1.3,0.3,1.7,0.5c0.4,0.2,0.8,0.4,1.1,0.8c0.3,0.3,0.5,0.8,0.5,1.4c0,0.5-0.1,0.9-0.4,1.3c-0.3,0.4-0.7,0.7-1.2,1
						c-0.5,0.2-1.2,0.4-2,0.4C176.3,153.7,175.6,153.6,175,153.4z"/>
				</g>
				<g>
					<path class="st3" d="M186.3,153.2c-0.2,0.2-0.4,0.3-0.7,0.4c-0.3,0.1-0.6,0.1-0.9,0.1c-0.7,0-1.3-0.2-1.6-0.6
						c-0.4-0.4-0.6-0.9-0.6-1.6v-3.9h-1.2v-1.1h1.2V145h1.3v1.5h2v1.1h-2v3.8c0,0.4,0.1,0.7,0.3,0.9c0.2,0.2,0.5,0.3,0.8,0.3
						c0.4,0,0.7-0.1,1-0.3L186.3,153.2z"/>
				</g>
				<g>
					<path class="st3" d="M190.1,146.8c0.4-0.2,1-0.3,1.6-0.3v1.2c-0.1,0-0.2,0-0.3,0c-0.7,0-1.2,0.2-1.6,0.6
						c-0.4,0.4-0.6,1-0.6,1.8v3.5h-1.3v-7h1.2v1.2C189.3,147.3,189.6,147,190.1,146.8z"/>
				</g>
				<g>
					<path class="st3" d="M199.5,150.5h-5.7c0.1,0.6,0.4,1.1,0.8,1.5c0.5,0.4,1,0.6,1.7,0.6c0.8,0,1.5-0.3,2-0.9l0.7,0.8
						c-0.3,0.4-0.7,0.7-1.2,0.9s-1,0.3-1.6,0.3c-0.7,0-1.4-0.2-2-0.5c-0.6-0.3-1-0.7-1.3-1.3c-0.3-0.5-0.5-1.2-0.5-1.9
						c0-0.7,0.2-1.3,0.5-1.8s0.7-1,1.3-1.3c0.5-0.3,1.1-0.5,1.8-0.5s1.3,0.2,1.8,0.5c0.5,0.3,0.9,0.7,1.2,1.3s0.4,1.2,0.4,1.9
						C199.5,150.2,199.5,150.3,199.5,150.5z M194.5,148.1c-0.4,0.4-0.7,0.9-0.7,1.5h4.5c-0.1-0.6-0.3-1.1-0.7-1.5s-0.9-0.6-1.5-0.6
						C195.4,147.6,194.9,147.7,194.5,148.1z"/>
				</g>
				<g>
					<path class="st3" d="M207.6,150.5h-5.7c0.1,0.6,0.4,1.1,0.8,1.5c0.5,0.4,1,0.6,1.7,0.6c0.8,0,1.5-0.3,2-0.9l0.7,0.8
						c-0.3,0.4-0.7,0.7-1.2,0.9s-1,0.3-1.6,0.3c-0.7,0-1.4-0.2-2-0.5c-0.6-0.3-1-0.7-1.3-1.3c-0.3-0.5-0.5-1.2-0.5-1.9
						c0-0.7,0.2-1.3,0.5-1.8s0.7-1,1.3-1.3c0.5-0.3,1.1-0.5,1.8-0.5s1.3,0.2,1.8,0.5c0.5,0.3,0.9,0.7,1.2,1.3s0.4,1.2,0.4,1.9
						C207.6,150.2,207.6,150.3,207.6,150.5z M202.6,148.1c-0.4,0.4-0.7,0.9-0.7,1.5h4.5c-0.1-0.6-0.3-1.1-0.7-1.5s-0.9-0.6-1.5-0.6
						C203.6,147.6,203,147.7,202.6,148.1z"/>
				</g>
				<g>
					<path class="st3" d="M213.4,153.2c-0.2,0.2-0.4,0.3-0.7,0.4c-0.3,0.1-0.6,0.1-0.9,0.1c-0.7,0-1.3-0.2-1.6-0.6
						c-0.4-0.4-0.6-0.9-0.6-1.6v-3.9h-1.2v-1.1h1.2V145h1.3v1.5h2v1.1h-2v3.8c0,0.4,0.1,0.7,0.3,0.9c0.2,0.2,0.5,0.3,0.8,0.3
						c0.4,0,0.7-0.1,1-0.3L213.4,153.2z"/>
				</g>
			</g>
			<g class="st2">
				<g>
					<path class="st3" d="M87.8,170.3h-4.9l-1,2.3h-1.4l4.2-9.3H86l4.2,9.3h-1.4L87.8,170.3z M87.4,169.2l-2-4.6l-2,4.6H87.4z"/>
				</g>
				<g>
					<path class="st3" d="M97.3,166.3c0.5,0.5,0.8,1.3,0.8,2.3v4.1h-1.3v-3.9c0-0.7-0.2-1.2-0.5-1.5c-0.3-0.3-0.8-0.5-1.4-0.5
						c-0.7,0-1.2,0.2-1.6,0.6s-0.6,1-0.6,1.7v3.6h-1.3v-7h1.2v1.1c0.3-0.4,0.6-0.6,1-0.8c0.4-0.2,0.9-0.3,1.5-0.3
						C96.1,165.5,96.8,165.7,97.3,166.3z"/>
				</g>
				<g>
					<path class="st3" d="M106.6,165.6l-3.4,7.8c-0.3,0.7-0.7,1.2-1.1,1.5c-0.4,0.3-0.9,0.4-1.5,0.4c-0.3,0-0.7-0.1-1-0.2
						c-0.3-0.1-0.6-0.3-0.8-0.5l0.5-1c0.4,0.3,0.8,0.5,1.3,0.5c0.3,0,0.6-0.1,0.8-0.2c0.2-0.2,0.4-0.4,0.6-0.8l0.2-0.5l-3.1-7h1.3
						l2.5,5.6l2.4-5.6H106.6z"/>
				</g>
				<g>
					<path class="st3" d="M112,172.2c-0.2,0.2-0.4,0.3-0.7,0.4c-0.3,0.1-0.6,0.1-0.9,0.1c-0.7,0-1.3-0.2-1.6-0.6
						c-0.4-0.4-0.6-0.9-0.6-1.6v-3.9H107v-1.1h1.2V164h1.3v1.5h2v1.1h-2v3.8c0,0.4,0.1,0.7,0.3,0.9c0.2,0.2,0.5,0.3,0.8,0.3
						c0.4,0,0.7-0.1,1-0.3L112,172.2z"/>
				</g>
				<g>
					<path class="st3" d="M114.4,172.2c-0.6-0.3-1-0.7-1.3-1.3c-0.3-0.5-0.5-1.2-0.5-1.9s0.2-1.3,0.5-1.9c0.3-0.5,0.8-1,1.3-1.3
						c0.6-0.3,1.2-0.5,1.9-0.5c0.7,0,1.3,0.2,1.9,0.5c0.6,0.3,1,0.7,1.3,1.3c0.3,0.5,0.5,1.2,0.5,1.9s-0.2,1.3-0.5,1.9
						c-0.3,0.5-0.7,1-1.3,1.3s-1.2,0.5-1.9,0.5C115.6,172.7,115,172.5,114.4,172.2z M117.5,171.3c0.4-0.2,0.6-0.5,0.8-0.9
						c0.2-0.4,0.3-0.8,0.3-1.3s-0.1-0.9-0.3-1.3c-0.2-0.4-0.5-0.7-0.8-0.9c-0.4-0.2-0.8-0.3-1.2-0.3s-0.9,0.1-1.2,0.3
						c-0.4,0.2-0.6,0.5-0.9,0.9s-0.3,0.8-0.3,1.3s0.1,0.9,0.3,1.3s0.5,0.7,0.9,0.9c0.4,0.2,0.8,0.3,1.2,0.3S117.1,171.5,117.5,171.3
						z"/>
				</g>
				<g>
					<path class="st3" d="M132.2,165.6l-2.6,7h-1.2l-2-5.3l-2.1,5.3H123l-2.6-7h1.2l2,5.6l2.1-5.6h1.1l2.1,5.6l2.1-5.6H132.2z"/>
				</g>
				<g>
					<path class="st3" d="M139.4,166.3c0.5,0.5,0.8,1.3,0.8,2.3v4.1h-1.3v-3.9c0-0.7-0.2-1.2-0.5-1.5c-0.3-0.3-0.8-0.5-1.4-0.5
						c-0.7,0-1.2,0.2-1.6,0.6s-0.6,1-0.6,1.7v3.6h-1.3v-7h1.2v1.1c0.3-0.4,0.6-0.6,1-0.8c0.4-0.2,0.9-0.3,1.5-0.3
						C138.1,165.5,138.8,165.7,139.4,166.3z"/>
				</g>
				<g>
					<path class="st3" d="M143.5,171.1c0.2,0.2,0.2,0.4,0.2,0.6c0,0.1,0,0.3,0,0.4c0,0.1-0.1,0.3-0.2,0.6l-0.6,1.8H142l0.5-2
						c-0.2-0.1-0.3-0.2-0.4-0.3c-0.1-0.1-0.2-0.3-0.2-0.5c0-0.3,0.1-0.5,0.3-0.7c0.2-0.2,0.4-0.3,0.6-0.3
						C143.1,170.9,143.3,170.9,143.5,171.1z"/>
				</g>
				<g>
					<path class="st3" d="M151.2,164.4H148v-1.2h7.7v1.2h-3.2v8.2h-1.3V164.4z"/>
				</g>
				<g>
					<path class="st3" d="M162.6,172.6l-2.8-3.8l-2.8,3.8h-1.5l3.5-4.8l-3.3-4.5h1.5l2.6,3.6l2.6-3.6h1.5l-3.3,4.5l3.5,4.8H162.6z"
						/>
				</g>
				<g>
					<path class="st3" d="M171.4,163.3v9.3h-1.3v-8.2H168v-1.2H171.4z"/>
				</g>
				<g>
					<path class="st3" d="M180,171.4v1.2h-6.7v-0.9l3.8-3.7c0.5-0.4,0.8-0.8,0.9-1.2c0.2-0.3,0.2-0.6,0.2-1c0-0.5-0.2-0.9-0.5-1.1
						c-0.3-0.3-0.8-0.4-1.5-0.4c-1,0-1.8,0.3-2.4,1l-0.9-0.8c0.4-0.4,0.8-0.8,1.4-1s1.2-0.4,2-0.4c1,0,1.8,0.2,2.3,0.7
						c0.6,0.5,0.9,1.1,0.9,1.9c0,0.5-0.1,1-0.3,1.4s-0.6,0.9-1.2,1.5l-2.8,2.7H180z"/>
				</g>
				<g>
					<path class="st3" d="M186.7,168c0.5,0.5,0.7,1.1,0.7,1.8c0,0.5-0.1,1-0.4,1.4c-0.3,0.4-0.7,0.8-1.2,1s-1.2,0.4-1.9,0.4
						c-0.7,0-1.3-0.1-1.9-0.3c-0.6-0.2-1.1-0.5-1.5-0.8l0.6-1.1c0.3,0.3,0.7,0.5,1.2,0.7c0.5,0.2,1,0.3,1.6,0.3
						c0.7,0,1.2-0.1,1.6-0.4c0.4-0.3,0.6-0.7,0.6-1.2c0-0.5-0.2-0.9-0.6-1.2c-0.4-0.3-1-0.4-1.7-0.4H183v-0.9l2.3-2.9h-4.5v-1.2h6.1
						v0.9l-2.4,3C185.5,167.3,186.2,167.6,186.7,168z"/>
				</g>
				<g>
					<path class="st3" d="M196.8,170.3H195v2.3h-1.3v-2.3h-5.2v-0.9l4.8-6.1h1.4l-4.6,5.9h3.6v-2h1.2v2h1.8V170.3z"/>
				</g>
				<g>
					<path class="st3" d="M203.1,167.8c0.6,0.5,0.9,1.2,0.9,2.1c0,0.5-0.1,1-0.4,1.5c-0.3,0.4-0.7,0.8-1.2,1
						c-0.5,0.3-1.2,0.4-1.9,0.4c-0.7,0-1.3-0.1-1.9-0.3c-0.6-0.2-1.1-0.5-1.5-0.8l0.6-1.1c0.3,0.3,0.7,0.5,1.2,0.7
						c0.5,0.2,1,0.3,1.6,0.3c0.7,0,1.2-0.1,1.6-0.4s0.6-0.7,0.6-1.2c0-0.6-0.2-1-0.6-1.3s-1.2-0.4-2.2-0.4h-2.1l0.5-4.9h5.3v1.2
						h-4.1l-0.3,2.6h1C201.5,167,202.5,167.3,203.1,167.8z"/>
				</g>
			</g>
			<g id="Group-8" transform="translate(16.150000, 199.500000)">
				<g id="Rectangle">
					<rect x="0" y="0" class="st1" width="9.5" height="37"/>
				</g>
				<g id="Rectangle-Copy-6">
					<rect x="58" y="0" class="st1" width="9.5" height="37"/>
				</g>
				<g id="Rectangle-Copy-15">
					<rect x="180.5" y="0" class="st1" width="9.5" height="37"/>
				</g>
				<g id="Rectangle-Copy-8">
					<rect x="76.9" y="0" class="st1" width="9.5" height="37"/>
				</g>
				<g id="Rectangle-Copy-16">
					<rect x="199.5" y="0" class="st1" width="9.5" height="37"/>
				</g>
				<g id="Rectangle-Copy-4">
					<rect x="25.6" y="0" class="st1" width="9.5" height="37"/>
				</g>
				<g id="Rectangle-Copy-17">
					<rect x="147.2" y="0" class="st1" width="9.5" height="37"/>
				</g>
				<g id="Rectangle-Copy-12">
					<rect x="109.2" y="0" class="st1" width="9.5" height="37"/>
				</g>
				<g id="Rectangle-Copy-18">
					<rect x="230.9" y="0" class="st1" width="9.5" height="37"/>
				</g>
				<g id="Rectangle-Copy-5">
					<rect x="39" y="0" class="st1" width="9.5" height="37"/>
				</g>
				<g id="Rectangle-Copy-19">
					<rect x="160.6" y="0" class="st1" width="9.5" height="37"/>
				</g>
				<g id="Rectangle-Copy-13">
					<rect x="122.6" y="0" class="st1" width="9.5" height="37"/>
				</g>
				<g id="Rectangle-Copy-20">
					<rect x="244.1" y="0" class="st1" width="9.5" height="37"/>
				</g>
				<g id="Rectangle_1_">
					<rect x="13.3" y="0" class="st1" width="2.8" height="37"/>
				</g>
				<g id="Rectangle-Copy-21">
					<rect x="134.9" y="0" class="st1" width="2.9" height="37"/>
				</g>
				<g id="Rectangle-Copy-7">
					<rect x="70.3" y="0" class="st1" width="2.8" height="37"/>
				</g>
				<g id="Rectangle-Copy-22">
					<rect x="192.9" y="0" class="st1" width="2.9" height="37"/>
				</g>
				<g id="Rectangle-Copy-9">
					<rect x="89.3" y="0" class="st1" width="2.8" height="37"/>
				</g>
				<g id="Rectangle-Copy-23">
					<rect x="211.9" y="0" class="st1" width="2.9" height="37"/>
				</g>
				<g id="Rectangle-Copy-10">
					<rect x="96.9" y="0" class="st1" width="2.8" height="37"/>
				</g>
				<g id="Rectangle-Copy-24">
					<rect x="218.5" y="0" class="st1" width="2.9" height="37"/>
				</g>
				<g id="Rectangle-Copy-11">
					<rect x="102.6" y="0" class="st1" width="2.8" height="37"/>
				</g>
				<g id="Rectangle-Copy-25">
					<rect x="225.1" y="0" class="st1" width="2.9" height="37"/>
				</g>
				<g id="Rectangle_2_">
					<rect x="19" y="0" class="st1" width="2.9" height="37"/>
				</g>
				<g id="Rectangle-Copy-26">
					<rect x="141.6" y="0" class="st1" width="2.9" height="37"/>
				</g>
				<g id="Rectangle_3_">
					<rect x="52.2" y="0" class="st1" width="2.8" height="37"/>
				</g>
				<g id="Rectangle-Copy-27">
					<rect x="172.9" y="0" class="st1" width="2.9" height="37"/>
				</g>
			</g>
			<g class="st2">
				<g>
					<path class="st3" d="M17.4,247.2v8h-1.1v-7h-1.8v-1H17.4z"/>
				</g>
				<g>
					<path class="st3" d="M24.2,248.1c0.6,0.7,0.9,1.7,0.9,2.9c0,0.9-0.2,1.6-0.5,2.3c-0.3,0.6-0.8,1.1-1.3,1.4
						c-0.6,0.3-1.2,0.5-2,0.5c-0.4,0-0.8,0-1.1-0.1c-0.3-0.1-0.6-0.2-0.9-0.3l0.4-0.9c0.4,0.3,0.9,0.4,1.5,0.4
						c0.8,0,1.5-0.3,1.9-0.8c0.5-0.5,0.7-1.3,0.7-2.2V251c-0.2,0.3-0.5,0.6-0.9,0.8c-0.4,0.2-0.9,0.3-1.4,0.3c-0.5,0-1-0.1-1.4-0.3
						c-0.4-0.2-0.7-0.5-1-0.8c-0.2-0.4-0.3-0.8-0.3-1.3c0-0.5,0.1-0.9,0.4-1.3c0.2-0.4,0.6-0.7,1-0.9c0.4-0.2,0.9-0.3,1.4-0.3
						C22.8,247.1,23.6,247.4,24.2,248.1z M22.8,250.9c0.3-0.1,0.5-0.3,0.7-0.6s0.2-0.5,0.2-0.8c0-0.3-0.1-0.5-0.2-0.8
						c-0.1-0.2-0.4-0.4-0.6-0.6c-0.3-0.1-0.6-0.2-1-0.2c-0.5,0-0.9,0.1-1.3,0.4c-0.3,0.3-0.5,0.7-0.5,1.1c0,0.5,0.2,0.8,0.5,1.1
						s0.8,0.4,1.3,0.4C22.2,251.1,22.5,251,22.8,250.9z"/>
				</g>
				<g>
					<path class="st3" d="M31.2,248.1c0.6,0.7,0.9,1.7,0.9,2.9c0,0.9-0.2,1.6-0.5,2.3c-0.3,0.6-0.8,1.1-1.3,1.4
						c-0.6,0.3-1.2,0.5-2,0.5c-0.4,0-0.8,0-1.1-0.1c-0.3-0.1-0.6-0.2-0.9-0.3l0.4-0.9c0.4,0.3,0.9,0.4,1.5,0.4
						c0.8,0,1.5-0.3,1.9-0.8c0.5-0.5,0.7-1.3,0.7-2.2V251c-0.2,0.3-0.5,0.6-0.9,0.8c-0.4,0.2-0.9,0.3-1.4,0.3c-0.5,0-1-0.1-1.4-0.3
						c-0.4-0.2-0.7-0.5-1-0.8c-0.2-0.4-0.3-0.8-0.3-1.3c0-0.5,0.1-0.9,0.4-1.3c0.2-0.4,0.6-0.7,1-0.9c0.4-0.2,0.9-0.3,1.4-0.3
						C29.8,247.1,30.6,247.4,31.2,248.1z M29.8,250.9c0.3-0.1,0.5-0.3,0.7-0.6s0.2-0.5,0.2-0.8c0-0.3-0.1-0.5-0.2-0.8
						c-0.1-0.2-0.4-0.4-0.6-0.6c-0.3-0.1-0.6-0.2-1-0.2c-0.5,0-0.9,0.1-1.3,0.4c-0.3,0.3-0.5,0.7-0.5,1.1c0,0.5,0.2,0.8,0.5,1.1
						s0.8,0.4,1.3,0.4C29.2,251.1,29.5,251,29.8,250.9z"/>
				</g>
				<g>
					<path class="st3" d="M38.3,248.1c0.6,0.7,0.9,1.7,0.9,2.9c0,0.9-0.2,1.6-0.5,2.3c-0.3,0.6-0.8,1.1-1.3,1.4
						c-0.6,0.3-1.2,0.5-2,0.5c-0.4,0-0.8,0-1.1-0.1c-0.3-0.1-0.6-0.2-0.9-0.3l0.4-0.9c0.4,0.3,0.9,0.4,1.5,0.4
						c0.8,0,1.5-0.3,1.9-0.8c0.5-0.5,0.7-1.3,0.7-2.2V251c-0.2,0.3-0.5,0.6-0.9,0.8c-0.4,0.2-0.9,0.3-1.4,0.3c-0.5,0-1-0.1-1.4-0.3
						c-0.4-0.2-0.7-0.5-1-0.8c-0.2-0.4-0.3-0.8-0.3-1.3c0-0.5,0.1-0.9,0.4-1.3c0.2-0.4,0.6-0.7,1-0.9c0.4-0.2,0.9-0.3,1.4-0.3
						C36.9,247.1,37.7,247.4,38.3,248.1z M36.8,250.9c0.3-0.1,0.5-0.3,0.7-0.6s0.2-0.5,0.2-0.8c0-0.3-0.1-0.5-0.2-0.8
						c-0.1-0.2-0.4-0.4-0.6-0.6c-0.3-0.1-0.6-0.2-1-0.2c-0.5,0-0.9,0.1-1.3,0.4c-0.3,0.3-0.5,0.7-0.5,1.1c0,0.5,0.2,0.8,0.5,1.1
						s0.8,0.4,1.3,0.4C36.2,251.1,36.6,251,36.8,250.9z"/>
				</g>
				<g>
					<path class="st3" d="M44.5,255c-0.6-0.2-1-0.4-1.3-0.7l0.4-0.9c0.3,0.3,0.7,0.5,1.2,0.7c0.5,0.2,1,0.3,1.5,0.3
						c0.7,0,1.2-0.1,1.5-0.3c0.3-0.2,0.5-0.5,0.5-0.9c0-0.3-0.1-0.5-0.3-0.7c-0.2-0.2-0.4-0.3-0.7-0.4c-0.3-0.1-0.6-0.2-1.1-0.3
						c-0.6-0.1-1.1-0.3-1.5-0.4s-0.7-0.4-0.9-0.7c-0.3-0.3-0.4-0.7-0.4-1.2c0-0.4,0.1-0.8,0.3-1.2s0.6-0.6,1-0.8
						c0.5-0.2,1-0.3,1.7-0.3c0.5,0,0.9,0.1,1.4,0.2c0.5,0.1,0.8,0.3,1.2,0.5l-0.4,0.9c-0.3-0.2-0.7-0.4-1.1-0.5s-0.8-0.2-1.1-0.2
						c-0.6,0-1.1,0.1-1.5,0.4c-0.3,0.2-0.5,0.5-0.5,0.9c0,0.3,0.1,0.5,0.3,0.7c0.2,0.2,0.4,0.3,0.7,0.4c0.3,0.1,0.6,0.2,1.1,0.3
						c0.6,0.1,1.1,0.3,1.4,0.4c0.4,0.1,0.7,0.4,0.9,0.7c0.3,0.3,0.4,0.7,0.4,1.2c0,0.4-0.1,0.8-0.3,1.1s-0.6,0.6-1,0.8
						c-0.5,0.2-1,0.3-1.7,0.3C45.7,255.2,45.1,255.1,44.5,255z"/>
				</g>
				<g>
					<path class="st3" d="M56.1,253.2h-4.2l-0.9,2h-1.2l3.6-8h1.1l3.6,8H57L56.1,253.2z M55.7,252.2l-1.7-3.9l-1.7,3.9H55.7z"/>
				</g>
				<g>
					<path class="st3" d="M59.4,247.2h1.1v7h4.3v1h-5.5V247.2z"/>
				</g>
				<g>
					<path class="st3" d="M71.9,254.2v1h-5.8v-8h5.6v1h-4.5v2.5h4v1h-4v2.6H71.9z"/>
				</g>
			</g>
			<g class="st2">
				<g>
					<path d="M93.3,250.6c0.4,0.2,0.7,0.5,1,0.8c0.2,0.4,0.4,0.8,0.4,1.3c0,0.5-0.1,0.9-0.4,1.3s-0.6,0.7-1,0.9
						c-0.4,0.2-0.9,0.3-1.4,0.3c-1.1,0-1.9-0.3-2.5-1c-0.6-0.7-0.9-1.7-0.9-2.9c0-0.9,0.2-1.6,0.5-2.3c0.3-0.6,0.8-1.1,1.3-1.4
						c0.6-0.3,1.2-0.5,2-0.5c0.4,0,0.8,0,1.1,0.1c0.3,0.1,0.6,0.2,0.9,0.3l-0.4,0.9c-0.4-0.3-0.9-0.4-1.5-0.4
						c-0.8,0-1.5,0.3-1.9,0.8s-0.7,1.3-0.7,2.2c0,0.1,0,0.2,0,0.3c0.2-0.3,0.5-0.6,0.9-0.8s0.8-0.3,1.4-0.3
						C92.4,250.3,92.9,250.4,93.3,250.6z M93,253.9c0.3-0.3,0.5-0.7,0.5-1.1c0-0.5-0.2-0.8-0.5-1.1c-0.3-0.3-0.8-0.4-1.3-0.4
						c-0.4,0-0.7,0.1-1,0.2s-0.5,0.3-0.6,0.6c-0.2,0.2-0.2,0.5-0.2,0.8c0,0.3,0.1,0.5,0.2,0.8s0.4,0.4,0.6,0.6
						c0.3,0.1,0.6,0.2,1,0.2C92.3,254.3,92.7,254.2,93,253.9z"/>
				</g>
				<g>
					<path d="M102.4,253.2h-1.5v2h-1.1v-2h-4.4v-0.8l4.1-5.2h1.2l-3.9,5h3.1v-1.7h1.1v1.7h1.5V253.2z"/>
				</g>
				<g>
					<path d="M108.4,247.2v0.8l-3.2,7.2H104l3.2-7h-3.6v1.4h-1.1v-2.4H108.4z"/>
				</g>
				<g>
					<path d="M114.2,251.2c0.4,0.4,0.6,0.9,0.6,1.6c0,0.5-0.1,0.9-0.3,1.2c-0.2,0.4-0.6,0.7-1,0.9c-0.5,0.2-1,0.3-1.7,0.3
						c-0.6,0-1.1-0.1-1.6-0.3s-1-0.4-1.3-0.7l0.5-0.9c0.3,0.3,0.6,0.5,1,0.6c0.4,0.2,0.9,0.2,1.4,0.2c0.6,0,1.1-0.1,1.4-0.4
						s0.5-0.6,0.5-1s-0.2-0.8-0.5-1s-0.8-0.4-1.5-0.4H111v-0.8l2-2.5h-3.8v-1h5.3v0.8l-2.1,2.6C113.1,250.6,113.7,250.8,114.2,251.2
						z"/>
				</g>
			</g>
			<g class="st2">
				<g>
					<path class="st3" d="M123.2,247.2v8H122v-7h-1.8v-1H123.2z"/>
				</g>
				<g>
					<path class="st3" d="M130.5,254.2v1h-5.7v-0.8l3.2-3.1c0.4-0.4,0.7-0.7,0.8-1s0.2-0.6,0.2-0.8c0-0.4-0.1-0.7-0.4-1
						c-0.3-0.2-0.7-0.3-1.3-0.3c-0.9,0-1.6,0.3-2,0.9l-0.8-0.7c0.3-0.4,0.7-0.7,1.2-0.9c0.5-0.2,1.1-0.3,1.7-0.3
						c0.8,0,1.5,0.2,2,0.6c0.5,0.4,0.7,0.9,0.7,1.6c0,0.4-0.1,0.8-0.3,1.2c-0.2,0.4-0.5,0.8-1,1.3l-2.4,2.3H130.5z"/>
				</g>
				<g>
					<path class="st3" d="M136.3,251.2c0.4,0.4,0.6,0.9,0.6,1.6c0,0.5-0.1,0.9-0.3,1.2c-0.2,0.4-0.6,0.7-1,0.9
						c-0.5,0.2-1,0.3-1.7,0.3c-0.6,0-1.1-0.1-1.6-0.3s-1-0.4-1.3-0.7l0.5-0.9c0.3,0.3,0.6,0.5,1,0.6c0.4,0.2,0.9,0.2,1.4,0.2
						c0.6,0,1.1-0.1,1.4-0.4s0.5-0.6,0.5-1s-0.2-0.8-0.5-1s-0.8-0.4-1.5-0.4h-0.6v-0.8l2-2.5h-3.8v-1h5.3v0.8l-2.1,2.6
						C135.3,250.6,135.9,250.8,136.3,251.2z"/>
				</g>
				<g>
					<path class="st3" d="M144.9,253.2h-1.5v2h-1.1v-2h-4.4v-0.8l4.1-5.2h1.2l-3.9,5h3.1v-1.7h1.1v1.7h1.5V253.2z"/>
				</g>
			</g>
			<g class="st2">
				<g>
					<path d="M157.7,254.8c-0.5-0.3-0.9-0.8-1.2-1.4c-0.3-0.6-0.4-1.3-0.4-2.2s0.1-1.6,0.4-2.2c0.3-0.6,0.7-1.1,1.2-1.4
						c0.5-0.3,1.1-0.5,1.7-0.5c0.6,0,1.2,0.2,1.7,0.5c0.5,0.3,0.9,0.8,1.2,1.4s0.4,1.3,0.4,2.2s-0.1,1.6-0.4,2.2
						c-0.3,0.6-0.7,1.1-1.2,1.4c-0.5,0.3-1,0.5-1.7,0.5C158.7,255.2,158.1,255.1,157.7,254.8z M160.9,253.4c0.4-0.5,0.6-1.3,0.6-2.3
						c0-1-0.2-1.8-0.6-2.3s-0.9-0.8-1.5-0.8c-0.6,0-1.2,0.3-1.5,0.8s-0.6,1.3-0.6,2.3c0,1,0.2,1.8,0.6,2.3s0.9,0.8,1.5,0.8
						C160,254.2,160.5,254,160.9,253.4z"/>
				</g>
				<g>
					<path d="M165.3,254.8c-0.5-0.3-0.9-0.8-1.2-1.4c-0.3-0.6-0.4-1.3-0.4-2.2s0.1-1.6,0.4-2.2c0.3-0.6,0.7-1.1,1.2-1.4
						c0.5-0.3,1.1-0.5,1.7-0.5c0.6,0,1.2,0.2,1.7,0.5c0.5,0.3,0.9,0.8,1.2,1.4s0.4,1.3,0.4,2.2s-0.1,1.6-0.4,2.2
						c-0.3,0.6-0.7,1.1-1.2,1.4c-0.5,0.3-1,0.5-1.7,0.5C166.3,255.2,165.7,255.1,165.3,254.8z M168.5,253.4c0.4-0.5,0.6-1.3,0.6-2.3
						c0-1-0.2-1.8-0.6-2.3s-0.9-0.8-1.5-0.8c-0.6,0-1.2,0.3-1.5,0.8s-0.6,1.3-0.6,2.3c0,1,0.2,1.8,0.6,2.3s0.9,0.8,1.5,0.8
						C167.6,254.2,168.1,254,168.5,253.4z"/>
				</g>
				<g>
					<path d="M176.9,254.2v1h-5.7v-0.8l3.2-3.1c0.4-0.4,0.7-0.7,0.8-1s0.2-0.6,0.2-0.8c0-0.4-0.1-0.7-0.4-1
						c-0.3-0.2-0.7-0.3-1.3-0.3c-0.9,0-1.6,0.3-2,0.9l-0.8-0.7c0.3-0.4,0.7-0.7,1.2-0.9s1.1-0.3,1.7-0.3c0.8,0,1.5,0.2,2,0.6
						c0.5,0.4,0.7,0.9,0.7,1.6c0,0.4-0.1,0.8-0.3,1.2s-0.5,0.8-1,1.3l-2.4,2.3H176.9z"/>
				</g>
			</g>
			<g class="st2">
				<g>
					<path d="M188.6,254.8c-0.5-0.3-0.9-0.8-1.2-1.4c-0.3-0.6-0.4-1.3-0.4-2.2s0.1-1.6,0.4-2.2s0.7-1.1,1.2-1.4
						c0.5-0.3,1.1-0.5,1.7-0.5c0.6,0,1.2,0.2,1.7,0.5c0.5,0.3,0.9,0.8,1.2,1.4s0.4,1.3,0.4,2.2s-0.1,1.6-0.4,2.2
						c-0.3,0.6-0.7,1.1-1.2,1.4c-0.5,0.3-1,0.5-1.7,0.5C189.6,255.2,189.1,255.1,188.6,254.8z M191.8,253.4c0.4-0.5,0.6-1.3,0.6-2.3
						c0-1-0.2-1.8-0.6-2.3s-0.9-0.8-1.5-0.8c-0.6,0-1.2,0.3-1.5,0.8s-0.6,1.3-0.6,2.3c0,1,0.2,1.8,0.6,2.3s0.9,0.8,1.5,0.8
						C190.9,254.2,191.4,254,191.8,253.4z"/>
				</g>
				<g>
					<path d="M199.4,250.6c0.4,0.2,0.7,0.5,1,0.8s0.4,0.8,0.4,1.3c0,0.5-0.1,0.9-0.4,1.3s-0.6,0.7-1,0.9c-0.4,0.2-0.9,0.3-1.4,0.3
						c-1.1,0-1.9-0.3-2.5-1s-0.9-1.7-0.9-2.9c0-0.9,0.2-1.6,0.5-2.3c0.3-0.6,0.8-1.1,1.3-1.4c0.6-0.3,1.2-0.5,2-0.5
						c0.4,0,0.8,0,1.1,0.1c0.3,0.1,0.6,0.2,0.9,0.3l-0.4,0.9c-0.4-0.3-0.9-0.4-1.5-0.4c-0.8,0-1.5,0.3-1.9,0.8
						c-0.5,0.5-0.7,1.3-0.7,2.2c0,0.1,0,0.2,0,0.3c0.2-0.3,0.5-0.6,0.9-0.8c0.4-0.2,0.8-0.3,1.4-0.3
						C198.6,250.3,199,250.4,199.4,250.6z M199.2,253.9c0.3-0.3,0.5-0.7,0.5-1.1c0-0.5-0.2-0.8-0.5-1.1c-0.3-0.3-0.8-0.4-1.3-0.4
						c-0.4,0-0.7,0.1-1,0.2s-0.5,0.3-0.6,0.6c-0.2,0.2-0.2,0.5-0.2,0.8c0,0.3,0.1,0.5,0.2,0.8s0.4,0.4,0.7,0.6
						c0.3,0.1,0.6,0.2,1,0.2C198.4,254.3,198.8,254.2,199.2,253.9z"/>
				</g>
				<g>
					<path d="M204.6,245.6h1l-3.8,10.7h-1L204.6,245.6z"/>
				</g>
				<g>
					<path d="M211.4,254.2v1h-5.7v-0.8l3.2-3.1c0.4-0.4,0.7-0.7,0.8-1s0.2-0.6,0.2-0.8c0-0.4-0.1-0.7-0.4-1
						c-0.3-0.2-0.7-0.3-1.3-0.3c-0.9,0-1.6,0.3-2,0.9l-0.8-0.7c0.3-0.4,0.7-0.7,1.2-0.9c0.5-0.2,1.1-0.3,1.7-0.3
						c0.8,0,1.5,0.2,2,0.6s0.7,0.9,0.7,1.6c0,0.4-0.1,0.8-0.3,1.2c-0.2,0.4-0.5,0.8-1,1.3l-2.4,2.3H211.4z"/>
				</g>
				<g>
					<path d="M214.8,247.2v8h-1.1v-7h-1.8v-1H214.8z"/>
				</g>
				<g>
					<path d="M219.4,245.6h1l-3.8,10.7h-1L219.4,245.6z"/>
				</g>
				<g>
					<path d="M226.1,254.2v1h-5.7v-0.8l3.2-3.1c0.4-0.4,0.7-0.7,0.8-1s0.2-0.6,0.2-0.8c0-0.4-0.1-0.7-0.4-1
						c-0.3-0.2-0.7-0.3-1.3-0.3c-0.9,0-1.6,0.3-2,0.9l-0.8-0.7c0.3-0.4,0.7-0.7,1.2-0.9s1.1-0.3,1.7-0.3c0.8,0,1.5,0.2,2,0.6
						c0.5,0.4,0.7,0.9,0.7,1.6c0,0.4-0.1,0.8-0.3,1.2s-0.5,0.8-1,1.3l-2.4,2.3H226.1z"/>
				</g>
				<g>
					<path d="M228.6,254.8c-0.5-0.3-0.9-0.8-1.2-1.4c-0.3-0.6-0.4-1.3-0.4-2.2s0.1-1.6,0.4-2.2c0.3-0.6,0.7-1.1,1.2-1.4
						c0.5-0.3,1.1-0.5,1.7-0.5c0.6,0,1.2,0.2,1.7,0.5c0.5,0.3,0.9,0.8,1.2,1.4s0.4,1.3,0.4,2.2s-0.1,1.6-0.4,2.2
						c-0.3,0.6-0.7,1.1-1.2,1.4c-0.5,0.3-1,0.5-1.7,0.5C229.7,255.2,229.1,255.1,228.6,254.8z M231.8,253.4c0.4-0.5,0.6-1.3,0.6-2.3
						c0-1-0.2-1.8-0.6-2.3s-0.9-0.8-1.5-0.8c-0.6,0-1.2,0.3-1.5,0.8s-0.6,1.3-0.6,2.3c0,1,0.2,1.8,0.6,2.3s0.9,0.8,1.5,0.8
						C230.9,254.2,231.4,254,231.8,253.4z"/>
				</g>
			</g>
			<g class="st2">
				<g>
					<path class="st3" d="M244.3,247.2v8h-1.1v-7h-1.8v-1H244.3z"/>
				</g>
				<g>
					<path class="st3" d="M251.9,251.7c0.2,0.3,0.4,0.7,0.4,1.2c0,0.5-0.1,0.9-0.4,1.2c-0.3,0.4-0.6,0.6-1.1,0.8
						c-0.5,0.2-1,0.3-1.7,0.3c-0.6,0-1.2-0.1-1.7-0.3c-0.5-0.2-0.8-0.5-1.1-0.8s-0.4-0.8-0.4-1.2c0-0.5,0.1-0.8,0.4-1.2
						c0.2-0.3,0.6-0.6,1-0.8c-0.4-0.2-0.6-0.4-0.8-0.7c-0.2-0.3-0.3-0.6-0.3-1c0-0.4,0.1-0.8,0.4-1.2c0.2-0.3,0.6-0.6,1-0.8
						c0.4-0.2,0.9-0.3,1.5-0.3c0.6,0,1.1,0.1,1.5,0.3s0.8,0.4,1,0.8c0.2,0.3,0.4,0.7,0.4,1.2c0,0.4-0.1,0.7-0.3,1s-0.5,0.5-0.8,0.7
						C251.3,251.1,251.7,251.4,251.9,251.7z M250.6,253.9c0.4-0.3,0.5-0.6,0.5-1.1c0-0.4-0.2-0.8-0.5-1c-0.4-0.3-0.9-0.4-1.5-0.4
						s-1.1,0.1-1.5,0.4c-0.4,0.3-0.5,0.6-0.5,1c0,0.4,0.2,0.8,0.5,1.1c0.4,0.3,0.9,0.4,1.5,0.4S250.3,254.2,250.6,253.9z
						 M247.8,248.3c-0.3,0.2-0.5,0.5-0.5,0.9s0.2,0.7,0.5,0.9c0.3,0.2,0.7,0.3,1.3,0.3c0.6,0,1-0.1,1.3-0.3c0.3-0.2,0.5-0.5,0.5-0.9
						s-0.2-0.7-0.5-0.9c-0.3-0.2-0.8-0.3-1.3-0.3C248.6,248,248.2,248.1,247.8,248.3z"/>
				</g>
				<g>
					<path class="st3" d="M253.6,250.4c-0.2-0.1-0.2-0.3-0.2-0.6c0-0.2,0.1-0.4,0.2-0.6c0.2-0.1,0.3-0.2,0.5-0.2
						c0.2,0,0.4,0.1,0.5,0.2c0.1,0.1,0.2,0.3,0.2,0.6c0,0.2-0.1,0.4-0.2,0.6c-0.1,0.1-0.3,0.2-0.5,0.2
						C253.9,250.6,253.7,250.5,253.6,250.4z M253.6,255c-0.2-0.1-0.2-0.3-0.2-0.6c0-0.2,0.1-0.4,0.2-0.6c0.2-0.1,0.3-0.2,0.5-0.2
						c0.2,0,0.4,0.1,0.5,0.2c0.1,0.1,0.2,0.3,0.2,0.6c0,0.2-0.1,0.4-0.2,0.6c-0.1,0.1-0.3,0.2-0.5,0.2
						C253.9,255.2,253.7,255.1,253.6,255z"/>
				</g>
				<g>
					<path class="st3" d="M257.5,254.8c-0.5-0.3-0.9-0.8-1.2-1.4c-0.3-0.6-0.4-1.3-0.4-2.2s0.1-1.6,0.4-2.2s0.7-1.1,1.2-1.4
						c0.5-0.3,1.1-0.5,1.7-0.5c0.6,0,1.2,0.2,1.7,0.5c0.5,0.3,0.9,0.8,1.2,1.4s0.4,1.3,0.4,2.2s-0.1,1.6-0.4,2.2
						c-0.3,0.6-0.7,1.1-1.2,1.4c-0.5,0.3-1,0.5-1.7,0.5C258.6,255.2,258,255.1,257.5,254.8z M260.7,253.4c0.4-0.5,0.6-1.3,0.6-2.3
						c0-1-0.2-1.8-0.6-2.3s-0.9-0.8-1.5-0.8c-0.6,0-1.2,0.3-1.5,0.8s-0.6,1.3-0.6,2.3c0,1,0.2,1.8,0.6,2.3s0.9,0.8,1.5,0.8
						C259.8,254.2,260.4,254,260.7,253.4z"/>
				</g>
				<g>
					<path class="st3" d="M268.3,251c0.5,0.4,0.8,1,0.8,1.8c0,0.5-0.1,0.9-0.3,1.3s-0.6,0.7-1,0.9c-0.5,0.2-1,0.3-1.7,0.3
						c-0.6,0-1.1-0.1-1.6-0.3c-0.5-0.2-1-0.4-1.3-0.7l0.5-0.9c0.3,0.3,0.6,0.5,1,0.6c0.4,0.2,0.9,0.2,1.3,0.2c0.6,0,1.1-0.1,1.4-0.4
						c0.3-0.3,0.5-0.6,0.5-1c0-0.5-0.2-0.8-0.5-1.1c-0.4-0.2-1-0.4-1.9-0.4h-1.8l0.4-4.2h4.5v1h-3.5l-0.2,2.2h0.9
						C267,250.3,267.8,250.6,268.3,251z"/>
				</g>
			</g>
			<g id="Rectangle_4_">
				<path class="st4" d="M224.2,141.7H60.8v-20h163.4V141.7z M62.8,139.7h159.6v-16.2H62.8V139.7z"/>
			</g>
			<g class="st2">
				<g>
					<path class="st4" d="M245.9,136.2c-0.6-0.2-1-0.4-1.3-0.7l0.4-0.9c0.3,0.3,0.7,0.5,1.2,0.7c0.5,0.2,1,0.3,1.5,0.3
						c0.7,0,1.2-0.1,1.5-0.3c0.3-0.2,0.5-0.5,0.5-0.9c0-0.3-0.1-0.5-0.3-0.7c-0.2-0.2-0.4-0.3-0.7-0.4c-0.3-0.1-0.6-0.2-1.1-0.3
						c-0.6-0.1-1.1-0.3-1.5-0.4c-0.4-0.1-0.7-0.4-0.9-0.7c-0.3-0.3-0.4-0.7-0.4-1.2c0-0.4,0.1-0.8,0.3-1.2c0.2-0.3,0.6-0.6,1-0.8
						s1-0.3,1.7-0.3c0.5,0,0.9,0.1,1.4,0.2c0.5,0.1,0.8,0.3,1.2,0.5l-0.4,0.9c-0.3-0.2-0.7-0.4-1.1-0.5s-0.8-0.2-1.1-0.2
						c-0.6,0-1.1,0.1-1.5,0.4c-0.3,0.2-0.5,0.5-0.5,0.9c0,0.3,0.1,0.5,0.3,0.7s0.4,0.3,0.7,0.4c0.3,0.1,0.6,0.2,1.1,0.3
						c0.6,0.1,1.1,0.3,1.4,0.4c0.4,0.1,0.7,0.4,0.9,0.7c0.3,0.3,0.4,0.7,0.4,1.2c0,0.4-0.1,0.8-0.3,1.1c-0.2,0.3-0.6,0.6-1,0.8
						s-1,0.3-1.7,0.3C247.1,136.5,246.5,136.4,245.9,136.2z"/>
				</g>
				<g>
					<path class="st4" d="M255.7,136c-0.2,0.1-0.4,0.2-0.6,0.3c-0.2,0.1-0.5,0.1-0.7,0.1c-0.6,0-1.1-0.2-1.4-0.5
						c-0.3-0.3-0.5-0.8-0.5-1.4v-3.3h-1v-0.9h1V129h1.1v1.3h1.7v0.9h-1.7v3.3c0,0.3,0.1,0.6,0.2,0.8s0.4,0.3,0.7,0.3
						c0.3,0,0.6-0.1,0.9-0.3L255.7,136z"/>
				</g>
				<g>
					<path class="st4" d="M257.8,136.1c-0.5-0.3-0.9-0.6-1.1-1.1c-0.3-0.5-0.4-1-0.4-1.6c0-0.6,0.1-1.1,0.4-1.6
						c0.3-0.5,0.6-0.8,1.1-1.1c0.5-0.3,1-0.4,1.6-0.4s1.1,0.1,1.6,0.4c0.5,0.3,0.8,0.6,1.1,1.1c0.3,0.5,0.4,1,0.4,1.6
						c0,0.6-0.1,1.1-0.4,1.6c-0.3,0.5-0.6,0.8-1.1,1.1c-0.5,0.3-1,0.4-1.6,0.4S258.2,136.3,257.8,136.1z M260.4,135.2
						c0.3-0.2,0.5-0.4,0.7-0.8s0.3-0.7,0.3-1.1c0-0.4-0.1-0.8-0.3-1.1c-0.2-0.3-0.4-0.6-0.7-0.7s-0.7-0.3-1-0.3s-0.7,0.1-1,0.3
						s-0.6,0.4-0.7,0.7c-0.2,0.3-0.3,0.7-0.3,1.1c0,0.4,0.1,0.8,0.3,1.1c0.2,0.3,0.4,0.6,0.7,0.8s0.7,0.3,1,0.3
						S260.1,135.4,260.4,135.2z"/>
				</g>
				<g>
					<path class="st4" d="M265.9,130.6c0.4-0.2,0.8-0.3,1.4-0.3v1.1c-0.1,0-0.1,0-0.3,0c-0.6,0-1.1,0.2-1.4,0.5
						c-0.3,0.4-0.5,0.9-0.5,1.5v3H264v-6h1v1C265.3,131,265.5,130.8,265.9,130.6z"/>
				</g>
				<g>
					<path class="st4" d="M274,133.7h-4.9c0.1,0.5,0.3,1,0.7,1.3c0.4,0.3,0.9,0.5,1.5,0.5c0.7,0,1.3-0.2,1.7-0.7l0.6,0.7
						c-0.3,0.3-0.6,0.6-1,0.7c-0.4,0.2-0.9,0.3-1.4,0.3c-0.6,0-1.2-0.1-1.7-0.4c-0.5-0.3-0.9-0.6-1.1-1.1c-0.3-0.5-0.4-1-0.4-1.6
						c0-0.6,0.1-1.1,0.4-1.6c0.3-0.5,0.6-0.8,1.1-1.1c0.5-0.3,1-0.4,1.6-0.4c0.6,0,1.1,0.1,1.5,0.4c0.5,0.3,0.8,0.6,1.1,1.1
						c0.3,0.5,0.4,1,0.4,1.6C274,133.5,274,133.6,274,133.7z M269.7,131.7c-0.4,0.3-0.6,0.7-0.6,1.3h3.9c-0.1-0.5-0.3-0.9-0.6-1.2
						c-0.4-0.3-0.8-0.5-1.3-0.5S270.1,131.4,269.7,131.7z"/>
				</g>
			</g>
			<g class="st2">
				<g>
					<path class="st4" d="M252.2,142.4v8h-0.9l-4.8-6v6h-1.1v-8h0.9l4.8,6v-6H252.2z"/>
				</g>
				<g>
					<path class="st4" d="M260.1,144.4v6h-1v-0.9c-0.2,0.3-0.5,0.6-0.9,0.7c-0.4,0.2-0.8,0.3-1.2,0.3c-0.8,0-1.4-0.2-1.9-0.7
						c-0.5-0.4-0.7-1.1-0.7-2v-3.5h1.1v3.4c0,0.6,0.1,1,0.4,1.3c0.3,0.3,0.7,0.5,1.2,0.5c0.6,0,1-0.2,1.4-0.5
						c0.3-0.3,0.5-0.8,0.5-1.5v-3.1H260.1z"/>
				</g>
				<g>
					<path class="st4" d="M271.5,145c0.4,0.4,0.7,1.1,0.7,2v3.5h-1.1V147c0-0.6-0.1-1-0.4-1.3c-0.3-0.3-0.7-0.4-1.2-0.4
						c-0.6,0-1,0.2-1.3,0.5c-0.3,0.3-0.5,0.8-0.5,1.5v3.1h-1.1V147c0-0.6-0.1-1-0.4-1.3c-0.3-0.3-0.7-0.4-1.2-0.4
						c-0.6,0-1,0.2-1.3,0.5c-0.3,0.3-0.5,0.8-0.5,1.5v3.1h-1.1v-6h1v0.9c0.2-0.3,0.5-0.5,0.9-0.7c0.4-0.2,0.8-0.2,1.2-0.2
						c0.5,0,0.9,0.1,1.3,0.3c0.4,0.2,0.6,0.5,0.8,0.8c0.2-0.3,0.5-0.6,1-0.8c0.4-0.2,0.9-0.3,1.4-0.3
						C270.5,144.3,271.1,144.5,271.5,145z"/>
				</g>
				<g>
					<path class="st4" d="M279,144.7c0.5,0.3,0.8,0.6,1.1,1.1c0.3,0.5,0.4,1,0.4,1.6c0,0.6-0.1,1.1-0.4,1.6
						c-0.3,0.5-0.6,0.8-1.1,1.1c-0.5,0.3-1,0.4-1.6,0.4c-0.4,0-0.9-0.1-1.2-0.3s-0.7-0.4-0.9-0.8v1h-1v-8.5h1.1v3.3
						c0.2-0.3,0.5-0.6,0.9-0.7c0.4-0.2,0.8-0.2,1.2-0.2C278,144.3,278.5,144.4,279,144.7z M278.4,149.2c0.3-0.2,0.6-0.4,0.7-0.8
						c0.2-0.3,0.3-0.7,0.3-1.1c0-0.4-0.1-0.8-0.3-1.1c-0.2-0.3-0.4-0.6-0.7-0.7c-0.3-0.2-0.7-0.3-1-0.3c-0.4,0-0.7,0.1-1,0.3
						s-0.6,0.4-0.7,0.7c-0.2,0.3-0.3,0.7-0.3,1.1c0,0.4,0.1,0.8,0.3,1.1s0.4,0.6,0.7,0.8s0.7,0.3,1,0.3
						C277.7,149.5,278.1,149.4,278.4,149.2z"/>
				</g>
				<g>
					<path class="st4" d="M287.4,147.7h-4.9c0.1,0.5,0.3,1,0.7,1.3c0.4,0.3,0.9,0.5,1.5,0.5c0.7,0,1.3-0.2,1.7-0.7l0.6,0.7
						c-0.3,0.3-0.6,0.6-1,0.7s-0.9,0.3-1.4,0.3c-0.6,0-1.2-0.1-1.7-0.4c-0.5-0.3-0.9-0.6-1.1-1.1c-0.3-0.5-0.4-1-0.4-1.6
						c0-0.6,0.1-1.1,0.4-1.6c0.3-0.5,0.6-0.8,1.1-1.1c0.5-0.3,1-0.4,1.6-0.4c0.6,0,1.1,0.1,1.5,0.4c0.5,0.3,0.8,0.6,1.1,1.1
						c0.3,0.5,0.4,1,0.4,1.6C287.4,147.5,287.4,147.6,287.4,147.7z M283.1,145.7c-0.4,0.3-0.6,0.7-0.6,1.3h3.9
						c-0.1-0.5-0.3-0.9-0.6-1.2c-0.4-0.3-0.8-0.5-1.3-0.5S283.5,145.4,283.1,145.7z"/>
				</g>
				<g>
					<path class="st4" d="M290.9,144.6c0.4-0.2,0.8-0.3,1.4-0.3v1.1c-0.1,0-0.1,0-0.3,0c-0.6,0-1.1,0.2-1.4,0.5
						c-0.3,0.4-0.5,0.9-0.5,1.5v3H289v-6h1v1C290.2,145,290.5,144.8,290.9,144.6z"/>
				</g>
			</g>
			<g id="Line-2">
				<rect x="224.2" y="132" class="st4" width="17" height="1"/>
			</g>
			<g id="Rectangle-Copy-14">
				<path class="st4" d="M182.4,263H151v-19.9h31.3V263z M153,261.1h27.5V245H153V261.1z"/>
			</g>
			<g id="Rectangle-Copy-28">
				<path class="st4" d="M117.8,263H84.5v-19.9h33.2V263z M86.5,261.1h29.4V245H86.5V261.1z"/>
			</g>
			<g id="Rectangle-Copy-29">
				<path class="st4" d="M236.5,263h-53.2v-19.9h53.2V263z M185.2,261.1h49.4V245h-49.4V261.1z"/>
			</g>
			<g class="st2">
				<g>
					<path class="st4" d="M155.3,281.8l-1.7-2.5c-0.2,0-0.4,0-0.5,0h-2v2.4H150v-8h3.1c1,0,1.8,0.2,2.4,0.7s0.9,1.2,0.9,2
						c0,0.6-0.2,1.1-0.5,1.6c-0.3,0.4-0.7,0.7-1.3,0.9l1.9,2.7H155.3z M154.7,277.9c0.4-0.3,0.6-0.8,0.6-1.3c0-0.6-0.2-1-0.6-1.3
						c-0.4-0.3-0.9-0.5-1.7-0.5h-1.9v3.6h1.9C153.8,278.4,154.4,278.2,154.7,277.9z"/>
				</g>
				<g>
					<path class="st4" d="M163.6,279.1h-4.9c0.1,0.5,0.3,1,0.7,1.3c0.4,0.3,0.9,0.5,1.5,0.5c0.7,0,1.3-0.2,1.7-0.7l0.6,0.7
						c-0.3,0.3-0.6,0.6-1,0.7s-0.9,0.3-1.4,0.3c-0.6,0-1.2-0.1-1.7-0.4c-0.5-0.3-0.9-0.6-1.1-1.1c-0.3-0.5-0.4-1-0.4-1.6
						c0-0.6,0.1-1.1,0.4-1.6c0.3-0.5,0.6-0.8,1.1-1.1c0.5-0.3,1-0.4,1.6-0.4c0.6,0,1.1,0.1,1.5,0.4c0.5,0.3,0.8,0.6,1.1,1.1
						c0.3,0.5,0.4,1,0.4,1.6C163.6,278.8,163.6,279,163.6,279.1z M159.3,277.1c-0.4,0.3-0.6,0.7-0.6,1.3h3.9
						c-0.1-0.5-0.3-0.9-0.6-1.2c-0.4-0.3-0.8-0.5-1.3-0.5S159.6,276.7,159.3,277.1z"/>
				</g>
				<g>
					<path class="st4" d="M170.9,275.7v5.2c0,1.1-0.3,1.8-0.8,2.3c-0.5,0.5-1.3,0.8-2.3,0.8c-0.6,0-1.1-0.1-1.6-0.2
						c-0.5-0.2-0.9-0.4-1.3-0.7l0.5-0.8c0.3,0.2,0.6,0.4,1,0.6c0.4,0.1,0.8,0.2,1.3,0.2c0.7,0,1.2-0.2,1.6-0.5
						c0.3-0.3,0.5-0.8,0.5-1.5v-0.5c-0.3,0.3-0.6,0.5-1,0.7c-0.4,0.2-0.8,0.2-1.2,0.2c-0.6,0-1.1-0.1-1.6-0.4
						c-0.5-0.2-0.8-0.6-1.1-1c-0.3-0.4-0.4-1-0.4-1.5s0.1-1.1,0.4-1.5c0.3-0.4,0.6-0.8,1.1-1c0.5-0.2,1-0.4,1.6-0.4
						c0.5,0,0.9,0.1,1.3,0.2c0.4,0.2,0.7,0.4,1,0.7v-0.9H170.9z M168.8,280.3c0.3-0.2,0.6-0.4,0.7-0.7s0.3-0.6,0.3-1
						c0-0.6-0.2-1.1-0.6-1.4c-0.4-0.4-0.9-0.5-1.5-0.5c-0.6,0-1.1,0.2-1.5,0.5c-0.4,0.4-0.6,0.8-0.6,1.4c0,0.4,0.1,0.7,0.3,1
						s0.4,0.5,0.7,0.7s0.7,0.3,1.1,0.3C168.1,280.5,168.5,280.5,168.8,280.3z"/>
				</g>
				<g>
					<path class="st4" d="M173,274.3c-0.1-0.1-0.2-0.3-0.2-0.5c0-0.2,0.1-0.4,0.2-0.5c0.1-0.1,0.3-0.2,0.5-0.2s0.4,0.1,0.5,0.2
						c0.1,0.1,0.2,0.3,0.2,0.5c0,0.2-0.1,0.4-0.2,0.5s-0.3,0.2-0.5,0.2S173.1,274.5,173,274.3z M173,275.7h1.1v6H173V275.7z"/>
				</g>
				<g>
					<path class="st4" d="M176.5,281.6c-0.5-0.1-0.8-0.3-1.1-0.5l0.5-0.9c0.3,0.2,0.6,0.3,1,0.5c0.4,0.1,0.8,0.2,1.2,0.2
						c1,0,1.4-0.3,1.4-0.8c0-0.2-0.1-0.3-0.2-0.4s-0.3-0.2-0.5-0.2c-0.2,0-0.5-0.1-0.8-0.2c-0.5-0.1-0.9-0.2-1.2-0.3
						s-0.6-0.3-0.8-0.5c-0.2-0.2-0.3-0.6-0.3-1c0-0.5,0.2-1,0.7-1.3c0.5-0.3,1.1-0.5,1.8-0.5c0.4,0,0.8,0,1.2,0.1
						c0.4,0.1,0.7,0.2,1,0.4l-0.5,0.9c-0.5-0.3-1.1-0.5-1.7-0.5c-0.5,0-0.8,0.1-1.1,0.2c-0.2,0.2-0.4,0.4-0.4,0.6
						c0,0.2,0.1,0.4,0.2,0.5c0.1,0.1,0.3,0.2,0.5,0.2c0.2,0.1,0.5,0.1,0.8,0.2c0.5,0.1,0.9,0.2,1.2,0.3c0.3,0.1,0.6,0.3,0.8,0.5
						c0.2,0.2,0.3,0.5,0.3,1c0,0.5-0.2,1-0.7,1.3c-0.5,0.3-1.1,0.5-1.9,0.5C177.4,281.8,176.9,281.8,176.5,281.6z"/>
				</g>
				<g>
					<path class="st4" d="M185.3,281.4c-0.2,0.1-0.4,0.2-0.6,0.3c-0.2,0.1-0.5,0.1-0.7,0.1c-0.6,0-1.1-0.2-1.4-0.5
						c-0.3-0.3-0.5-0.8-0.5-1.4v-3.3h-1v-0.9h1v-1.3h1.1v1.3h1.7v0.9h-1.7v3.3c0,0.3,0.1,0.6,0.2,0.8s0.4,0.3,0.7,0.3
						c0.3,0,0.6-0.1,0.9-0.3L185.3,281.4z"/>
				</g>
				<g>
					<path class="st4" d="M191.8,279.1h-4.9c0.1,0.5,0.3,1,0.7,1.3c0.4,0.3,0.9,0.5,1.5,0.5c0.7,0,1.3-0.2,1.7-0.7l0.6,0.7
						c-0.3,0.3-0.6,0.6-1,0.7s-0.9,0.3-1.4,0.3c-0.6,0-1.2-0.1-1.7-0.4c-0.5-0.3-0.9-0.6-1.1-1.1c-0.3-0.5-0.4-1-0.4-1.6
						c0-0.6,0.1-1.1,0.4-1.6c0.3-0.5,0.6-0.8,1.1-1.1c0.5-0.3,1-0.4,1.6-0.4c0.6,0,1.1,0.1,1.5,0.4c0.5,0.3,0.8,0.6,1.1,1.1
						c0.3,0.5,0.4,1,0.4,1.6C191.8,278.8,191.8,279,191.8,279.1z M187.5,277.1c-0.4,0.3-0.6,0.7-0.6,1.3h3.9
						c-0.1-0.5-0.3-0.9-0.6-1.2c-0.4-0.3-0.8-0.5-1.3-0.5S187.9,276.7,187.5,277.1z"/>
				</g>
				<g>
					<path class="st4" d="M195.2,275.9c0.4-0.2,0.8-0.3,1.4-0.3v1.1c-0.1,0-0.1,0-0.3,0c-0.6,0-1.1,0.2-1.4,0.5
						c-0.3,0.4-0.5,0.9-0.5,1.5v3h-1.1v-6h1v1C194.6,276.4,194.9,276.1,195.2,275.9z"/>
				</g>
			</g>
			<g class="st2">
				<g>
					<path class="st4" d="M156.7,287.8v8h-0.9l-4.8-6v6h-1.1v-8h0.9l4.8,6v-6H156.7z"/>
				</g>
				<g>
					<path class="st4" d="M164.6,289.7v6h-1v-0.9c-0.2,0.3-0.5,0.6-0.9,0.7s-0.8,0.3-1.2,0.3c-0.8,0-1.4-0.2-1.9-0.7s-0.7-1.1-0.7-2
						v-3.5h1.1v3.4c0,0.6,0.1,1,0.4,1.3c0.3,0.3,0.7,0.5,1.2,0.5c0.6,0,1-0.2,1.4-0.5c0.3-0.3,0.5-0.8,0.5-1.5v-3.1H164.6z"/>
				</g>
				<g>
					<path class="st4" d="M176.1,290.3c0.4,0.4,0.7,1.1,0.7,2v3.5h-1.1v-3.4c0-0.6-0.1-1-0.4-1.3c-0.3-0.3-0.7-0.4-1.2-0.4
						c-0.6,0-1,0.2-1.3,0.5c-0.3,0.3-0.5,0.8-0.5,1.5v3.1h-1.1v-3.4c0-0.6-0.1-1-0.4-1.3c-0.3-0.3-0.7-0.4-1.2-0.4
						c-0.6,0-1,0.2-1.3,0.5s-0.5,0.8-0.5,1.5v3.1h-1.1v-6h1v0.9c0.2-0.3,0.5-0.5,0.9-0.7c0.4-0.2,0.8-0.2,1.2-0.2
						c0.5,0,0.9,0.1,1.3,0.3c0.4,0.2,0.6,0.5,0.8,0.8c0.2-0.3,0.5-0.6,1-0.8c0.4-0.2,0.9-0.3,1.4-0.3
						C175,289.7,175.6,289.9,176.1,290.3z"/>
				</g>
				<g>
					<path class="st4" d="M183.5,290c0.5,0.3,0.8,0.6,1.1,1.1c0.3,0.5,0.4,1,0.4,1.6c0,0.6-0.1,1.1-0.4,1.6
						c-0.3,0.5-0.6,0.8-1.1,1.1c-0.5,0.3-1,0.4-1.6,0.4c-0.4,0-0.9-0.1-1.2-0.3c-0.4-0.2-0.7-0.4-0.9-0.8v1h-1v-8.5h1.1v3.3
						c0.2-0.3,0.5-0.6,0.9-0.7c0.4-0.2,0.8-0.2,1.2-0.2C182.5,289.7,183,289.8,183.5,290z M182.9,294.6c0.3-0.2,0.6-0.4,0.7-0.8
						s0.3-0.7,0.3-1.1c0-0.4-0.1-0.8-0.3-1.1c-0.2-0.3-0.4-0.6-0.7-0.7s-0.7-0.3-1-0.3c-0.4,0-0.7,0.1-1,0.3
						c-0.3,0.2-0.6,0.4-0.7,0.7c-0.2,0.3-0.3,0.7-0.3,1.1c0,0.4,0.1,0.8,0.3,1.1c0.2,0.3,0.4,0.6,0.7,0.8c0.3,0.2,0.7,0.3,1,0.3
						C182.2,294.9,182.6,294.8,182.9,294.6z"/>
				</g>
				<g>
					<path class="st4" d="M191.9,293.1H187c0.1,0.5,0.3,1,0.7,1.3c0.4,0.3,0.9,0.5,1.5,0.5c0.7,0,1.3-0.2,1.7-0.7l0.6,0.7
						c-0.3,0.3-0.6,0.6-1,0.7c-0.4,0.2-0.9,0.3-1.4,0.3c-0.6,0-1.2-0.1-1.7-0.4c-0.5-0.3-0.9-0.6-1.1-1.1c-0.3-0.5-0.4-1-0.4-1.6
						c0-0.6,0.1-1.1,0.4-1.6c0.3-0.5,0.6-0.8,1.1-1.1c0.5-0.3,1-0.4,1.6-0.4c0.6,0,1.1,0.1,1.5,0.4c0.5,0.3,0.8,0.6,1.1,1.1
						c0.3,0.5,0.4,1,0.4,1.6C192,292.8,192,293,191.9,293.1z M187.7,291.1c-0.4,0.3-0.6,0.7-0.6,1.3h3.9c-0.1-0.5-0.3-0.9-0.6-1.2
						c-0.4-0.3-0.8-0.5-1.3-0.5S188,290.7,187.7,291.1z"/>
				</g>
				<g>
					<path class="st4" d="M195.4,289.9c0.4-0.2,0.8-0.3,1.4-0.3v1.1c-0.1,0-0.1,0-0.3,0c-0.6,0-1.1,0.2-1.4,0.5
						c-0.3,0.4-0.5,0.9-0.5,1.5v3h-1.1v-6h1v1C194.7,290.4,195,290.1,195.4,289.9z"/>
				</g>
			</g>
			<g class="st2">
				<g>
					<path class="st4" d="M69.6,274.8h-2.7v-1h6.6v1h-2.7v7h-1.1V274.8z"/>
				</g>
				<g>
					<path class="st4" d="M76.3,275.9c0.4-0.2,0.8-0.3,1.4-0.3v1.1c-0.1,0-0.1,0-0.3,0c-0.6,0-1.1,0.2-1.4,0.5
						c-0.3,0.4-0.5,0.9-0.5,1.5v3h-1.1v-6h1v1C75.6,276.4,75.9,276.1,76.3,275.9z"/>
				</g>
				<g>
					<path class="st4" d="M83.1,276.3c0.4,0.4,0.7,1,0.7,1.8v3.6h-1V281c-0.2,0.3-0.4,0.5-0.8,0.6c-0.3,0.1-0.7,0.2-1.2,0.2
						c-0.7,0-1.2-0.2-1.6-0.5c-0.4-0.3-0.6-0.8-0.6-1.3s0.2-1,0.6-1.3s1-0.5,1.8-0.5h1.7v-0.2c0-0.5-0.1-0.8-0.4-1.1
						c-0.3-0.3-0.7-0.4-1.2-0.4c-0.4,0-0.7,0.1-1,0.2c-0.3,0.1-0.6,0.3-0.9,0.5l-0.5-0.8c0.3-0.2,0.7-0.4,1.1-0.6
						c0.4-0.1,0.9-0.2,1.4-0.2C82,275.7,82.7,275.9,83.1,276.3z M82,280.7c0.3-0.2,0.5-0.5,0.7-0.8v-0.8H81c-0.9,0-1.4,0.3-1.4,0.9
						c0,0.3,0.1,0.5,0.4,0.7c0.2,0.2,0.6,0.3,1,0.3S81.7,280.9,82,280.7z"/>
				</g>
				<g>
					<path class="st4" d="M90.9,276.3c0.5,0.4,0.7,1.1,0.7,2v3.5h-1.1v-3.4c0-0.6-0.1-1-0.4-1.3c-0.3-0.3-0.7-0.4-1.2-0.4
						c-0.6,0-1.1,0.2-1.4,0.5c-0.3,0.3-0.5,0.8-0.5,1.5v3.1h-1.1v-6h1v0.9c0.2-0.3,0.5-0.6,0.9-0.7c0.4-0.2,0.8-0.2,1.3-0.2
						C89.8,275.7,90.4,275.9,90.9,276.3z"/>
				</g>
				<g>
					<path class="st4" d="M93.9,281.6c-0.5-0.1-0.8-0.3-1.1-0.5l0.5-0.9c0.3,0.2,0.6,0.3,1,0.5c0.4,0.1,0.8,0.2,1.2,0.2
						c1,0,1.4-0.3,1.4-0.8c0-0.2-0.1-0.3-0.2-0.4c-0.1-0.1-0.3-0.2-0.5-0.2c-0.2,0-0.5-0.1-0.8-0.2c-0.5-0.1-0.9-0.2-1.2-0.3
						s-0.6-0.3-0.8-0.5c-0.2-0.2-0.3-0.6-0.3-1c0-0.5,0.2-1,0.7-1.3c0.5-0.3,1.1-0.5,1.8-0.5c0.4,0,0.8,0,1.2,0.1
						c0.4,0.1,0.7,0.2,1,0.4l-0.5,0.9c-0.5-0.3-1.1-0.5-1.7-0.5c-0.5,0-0.8,0.1-1.1,0.2c-0.2,0.2-0.4,0.4-0.4,0.6
						c0,0.2,0.1,0.4,0.2,0.5c0.1,0.1,0.3,0.2,0.5,0.2c0.2,0.1,0.5,0.1,0.8,0.2c0.5,0.1,0.9,0.2,1.2,0.3c0.3,0.1,0.6,0.3,0.8,0.5
						c0.2,0.2,0.3,0.5,0.3,1c0,0.5-0.2,1-0.7,1.3s-1.1,0.5-1.9,0.5C94.8,281.8,94.3,281.8,93.9,281.6z"/>
				</g>
				<g>
					<path class="st4" d="M103.4,276.3c0.4,0.4,0.7,1,0.7,1.8v3.6h-1V281c-0.2,0.3-0.4,0.5-0.8,0.6c-0.3,0.1-0.7,0.2-1.2,0.2
						c-0.7,0-1.2-0.2-1.6-0.5c-0.4-0.3-0.6-0.8-0.6-1.3s0.2-1,0.6-1.3s1-0.5,1.8-0.5h1.7v-0.2c0-0.5-0.1-0.8-0.4-1.1
						c-0.3-0.3-0.7-0.4-1.2-0.4c-0.4,0-0.7,0.1-1,0.2c-0.3,0.1-0.6,0.3-0.9,0.5l-0.5-0.8c0.3-0.2,0.7-0.4,1.1-0.6
						c0.4-0.1,0.9-0.2,1.4-0.2C102.3,275.7,103,275.9,103.4,276.3z M102.3,280.7c0.3-0.2,0.5-0.5,0.7-0.8v-0.8h-1.7
						c-0.9,0-1.4,0.3-1.4,0.9c0,0.3,0.1,0.5,0.4,0.7c0.2,0.2,0.6,0.3,1,0.3S102,280.9,102.3,280.7z"/>
				</g>
				<g>
					<path class="st4" d="M107.1,281.4c-0.5-0.3-0.9-0.6-1.1-1.1s-0.4-1-0.4-1.6c0-0.6,0.1-1.1,0.4-1.6s0.7-0.8,1.1-1.1
						c0.5-0.3,1-0.4,1.6-0.4c0.5,0,1,0.1,1.5,0.3c0.4,0.2,0.8,0.5,1,1l-0.8,0.5c-0.2-0.3-0.4-0.5-0.7-0.6s-0.6-0.2-0.9-0.2
						c-0.4,0-0.8,0.1-1.1,0.3s-0.6,0.4-0.7,0.7c-0.2,0.3-0.3,0.7-0.3,1.1c0,0.4,0.1,0.8,0.3,1.1c0.2,0.3,0.4,0.6,0.7,0.7
						s0.7,0.3,1.1,0.3c0.3,0,0.7-0.1,0.9-0.2s0.5-0.4,0.7-0.7l0.8,0.5c-0.2,0.4-0.6,0.7-1,1c-0.4,0.2-0.9,0.3-1.5,0.3
						C108.1,281.8,107.6,281.7,107.1,281.4z"/>
				</g>
				<g>
					<path class="st4" d="M116.1,281.4c-0.2,0.1-0.4,0.2-0.6,0.3c-0.2,0.1-0.5,0.1-0.7,0.1c-0.6,0-1.1-0.2-1.4-0.5
						c-0.3-0.3-0.5-0.8-0.5-1.4v-3.3h-1v-0.9h1v-1.3h1.1v1.3h1.7v0.9H114v3.3c0,0.3,0.1,0.6,0.2,0.8c0.2,0.2,0.4,0.3,0.7,0.3
						c0.3,0,0.6-0.1,0.9-0.3L116.1,281.4z"/>
				</g>
				<g>
					<path class="st4" d="M117.5,274.3c-0.1-0.1-0.2-0.3-0.2-0.5c0-0.2,0.1-0.4,0.2-0.5c0.1-0.1,0.3-0.2,0.5-0.2s0.4,0.1,0.5,0.2
						c0.1,0.1,0.2,0.3,0.2,0.5c0,0.2-0.1,0.4-0.2,0.5s-0.3,0.2-0.5,0.2S117.6,274.5,117.5,274.3z M117.4,275.7h1.1v6h-1.1V275.7z"/>
				</g>
				<g>
					<path class="st4" d="M121.6,281.4c-0.5-0.3-0.9-0.6-1.1-1.1c-0.3-0.5-0.4-1-0.4-1.6c0-0.6,0.1-1.1,0.4-1.6
						c0.3-0.5,0.6-0.8,1.1-1.1c0.5-0.3,1-0.4,1.6-0.4c0.6,0,1.1,0.1,1.6,0.4c0.5,0.3,0.8,0.6,1.1,1.1c0.3,0.5,0.4,1,0.4,1.6
						c0,0.6-0.1,1.1-0.4,1.6c-0.3,0.5-0.6,0.8-1.1,1.1c-0.5,0.3-1,0.4-1.6,0.4C122.6,281.8,122.1,281.7,121.6,281.4z M124.2,280.6
						c0.3-0.2,0.5-0.4,0.7-0.8s0.3-0.7,0.3-1.1c0-0.4-0.1-0.8-0.3-1.1c-0.2-0.3-0.4-0.6-0.7-0.7c-0.3-0.2-0.7-0.3-1-0.3
						c-0.4,0-0.7,0.1-1,0.3c-0.3,0.2-0.6,0.4-0.7,0.7c-0.2,0.3-0.3,0.7-0.3,1.1c0,0.4,0.1,0.8,0.3,1.1c0.2,0.3,0.4,0.6,0.7,0.8
						c0.3,0.2,0.7,0.3,1,0.3C123.6,280.9,123.9,280.8,124.2,280.6z"/>
				</g>
				<g>
					<path class="st4" d="M132.9,276.3c0.5,0.4,0.7,1.1,0.7,2v3.5h-1.1v-3.4c0-0.6-0.1-1-0.4-1.3c-0.3-0.3-0.7-0.4-1.2-0.4
						c-0.6,0-1.1,0.2-1.4,0.5c-0.3,0.3-0.5,0.8-0.5,1.5v3.1h-1.1v-6h1v0.9c0.2-0.3,0.5-0.6,0.9-0.7c0.4-0.2,0.8-0.2,1.3-0.2
						C131.8,275.7,132.5,275.9,132.9,276.3z"/>
				</g>
			</g>
			<g class="st2">
				<g>
					<path class="st4" d="M84.5,287.8v8h-0.9l-4.8-6v6h-1.1v-8h0.9l4.8,6v-6H84.5z"/>
				</g>
				<g>
					<path class="st4" d="M92.4,289.7v6h-1v-0.9c-0.2,0.3-0.5,0.6-0.9,0.7c-0.4,0.2-0.8,0.3-1.2,0.3c-0.8,0-1.4-0.2-1.9-0.7
						c-0.5-0.4-0.7-1.1-0.7-2v-3.5h1.1v3.4c0,0.6,0.1,1,0.4,1.3c0.3,0.3,0.7,0.5,1.2,0.5c0.6,0,1-0.2,1.4-0.5
						c0.3-0.3,0.5-0.8,0.5-1.5v-3.1H92.4z"/>
				</g>
				<g>
					<path class="st4" d="M103.9,290.3c0.4,0.4,0.7,1.1,0.7,2v3.5h-1.1v-3.4c0-0.6-0.1-1-0.4-1.3c-0.3-0.3-0.7-0.4-1.2-0.4
						c-0.6,0-1,0.2-1.3,0.5s-0.5,0.8-0.5,1.5v3.1H99v-3.4c0-0.6-0.1-1-0.4-1.3c-0.3-0.3-0.7-0.4-1.2-0.4c-0.6,0-1,0.2-1.3,0.5
						c-0.3,0.3-0.5,0.8-0.5,1.5v3.1h-1.1v-6h1v0.9c0.2-0.3,0.5-0.5,0.9-0.7c0.4-0.2,0.8-0.2,1.2-0.2c0.5,0,0.9,0.1,1.3,0.3
						c0.4,0.2,0.6,0.5,0.8,0.8c0.2-0.3,0.5-0.6,1-0.8c0.4-0.2,0.9-0.3,1.4-0.3C102.8,289.7,103.4,289.9,103.9,290.3z"/>
				</g>
				<g>
					<path class="st4" d="M111.3,290c0.5,0.3,0.8,0.6,1.1,1.1c0.3,0.5,0.4,1,0.4,1.6c0,0.6-0.1,1.1-0.4,1.6
						c-0.3,0.5-0.6,0.8-1.1,1.1c-0.5,0.3-1,0.4-1.6,0.4c-0.4,0-0.9-0.1-1.2-0.3c-0.4-0.2-0.7-0.4-0.9-0.8v1h-1v-8.5h1.1v3.3
						c0.2-0.3,0.5-0.6,0.9-0.7c0.4-0.2,0.8-0.2,1.2-0.2C110.3,289.7,110.8,289.8,111.3,290z M110.7,294.6c0.3-0.2,0.6-0.4,0.7-0.8
						c0.2-0.3,0.3-0.7,0.3-1.1c0-0.4-0.1-0.8-0.3-1.1c-0.2-0.3-0.4-0.6-0.7-0.7c-0.3-0.2-0.7-0.3-1-0.3c-0.4,0-0.7,0.1-1,0.3
						c-0.3,0.2-0.6,0.4-0.7,0.7c-0.2,0.3-0.3,0.7-0.3,1.1c0,0.4,0.1,0.8,0.3,1.1c0.2,0.3,0.4,0.6,0.7,0.8c0.3,0.2,0.7,0.3,1,0.3
						C110,294.9,110.4,294.8,110.7,294.6z"/>
				</g>
				<g>
					<path class="st4" d="M119.7,293.1h-4.9c0.1,0.5,0.3,1,0.7,1.3c0.4,0.3,0.9,0.5,1.5,0.5c0.7,0,1.3-0.2,1.7-0.7l0.6,0.7
						c-0.3,0.3-0.6,0.6-1,0.7c-0.4,0.2-0.9,0.3-1.4,0.3c-0.6,0-1.2-0.1-1.7-0.4c-0.5-0.3-0.9-0.6-1.1-1.1c-0.3-0.5-0.4-1-0.4-1.6
						c0-0.6,0.1-1.1,0.4-1.6c0.3-0.5,0.6-0.8,1.1-1.1c0.5-0.3,1-0.4,1.6-0.4s1.1,0.1,1.5,0.4c0.5,0.3,0.8,0.6,1.1,1.1
						c0.3,0.5,0.4,1,0.4,1.6C119.8,292.8,119.8,293,119.7,293.1z M115.5,291.1c-0.4,0.3-0.6,0.7-0.6,1.3h3.9
						c-0.1-0.5-0.3-0.9-0.6-1.2c-0.4-0.3-0.8-0.5-1.3-0.5S115.8,290.7,115.5,291.1z"/>
				</g>
				<g>
					<path class="st4" d="M123.2,289.9c0.4-0.2,0.8-0.3,1.4-0.3v1.1c-0.1,0-0.1,0-0.3,0c-0.6,0-1.1,0.2-1.4,0.5
						c-0.3,0.4-0.5,0.9-0.5,1.5v3h-1.1v-6h1v1C122.5,290.4,122.8,290.1,123.2,289.9z"/>
				</g>
			</g>
			<g class="st2">
				<g>
					<path class="st4" d="M211.8,274.8H209v-1h6.6v1h-2.7v7h-1.1V274.8z"/>
				</g>
				<g>
					<path class="st4" d="M218.5,275.9c0.4-0.2,0.8-0.3,1.4-0.3v1.1c-0.1,0-0.1,0-0.3,0c-0.6,0-1.1,0.2-1.4,0.5
						c-0.3,0.4-0.5,0.9-0.5,1.5v3h-1.1v-6h1v1C217.8,276.4,218.1,276.1,218.5,275.9z"/>
				</g>
				<g>
					<path class="st4" d="M225.3,276.3c0.4,0.4,0.7,1,0.7,1.8v3.6h-1V281c-0.2,0.3-0.4,0.5-0.8,0.6c-0.3,0.1-0.7,0.2-1.2,0.2
						c-0.7,0-1.2-0.2-1.6-0.5c-0.4-0.3-0.6-0.8-0.6-1.3s0.2-1,0.6-1.3c0.4-0.3,1-0.5,1.8-0.5h1.7v-0.2c0-0.5-0.1-0.8-0.4-1.1
						s-0.7-0.4-1.2-0.4c-0.4,0-0.7,0.1-1,0.2c-0.3,0.1-0.6,0.3-0.9,0.5l-0.5-0.8c0.3-0.2,0.7-0.4,1.1-0.6s0.9-0.2,1.4-0.2
						C224.2,275.7,224.8,275.9,225.3,276.3z M224.2,280.7c0.3-0.2,0.5-0.5,0.7-0.8v-0.8h-1.7c-0.9,0-1.4,0.3-1.4,0.9
						c0,0.3,0.1,0.5,0.4,0.7c0.2,0.2,0.6,0.3,1,0.3S223.9,280.9,224.2,280.7z"/>
				</g>
				<g>
					<path class="st4" d="M233,276.3c0.5,0.4,0.7,1.1,0.7,2v3.5h-1.1v-3.4c0-0.6-0.1-1-0.4-1.3c-0.3-0.3-0.7-0.4-1.2-0.4
						c-0.6,0-1.1,0.2-1.4,0.5s-0.5,0.8-0.5,1.5v3.1H228v-6h1v0.9c0.2-0.3,0.5-0.6,0.9-0.7c0.4-0.2,0.8-0.2,1.3-0.2
						C232,275.7,232.6,275.9,233,276.3z"/>
				</g>
				<g>
					<path class="st4" d="M236.1,281.6c-0.5-0.1-0.8-0.3-1.1-0.5l0.5-0.9c0.3,0.2,0.6,0.3,1,0.5c0.4,0.1,0.8,0.2,1.2,0.2
						c1,0,1.4-0.3,1.4-0.8c0-0.2-0.1-0.3-0.2-0.4c-0.1-0.1-0.3-0.2-0.5-0.2c-0.2,0-0.5-0.1-0.8-0.2c-0.5-0.1-0.9-0.2-1.2-0.3
						c-0.3-0.1-0.6-0.3-0.8-0.5c-0.2-0.2-0.3-0.6-0.3-1c0-0.5,0.2-1,0.7-1.3c0.5-0.3,1.1-0.5,1.8-0.5c0.4,0,0.8,0,1.2,0.1
						c0.4,0.1,0.7,0.2,1,0.4l-0.5,0.9c-0.5-0.3-1.1-0.5-1.7-0.5c-0.5,0-0.8,0.1-1.1,0.2c-0.2,0.2-0.4,0.4-0.4,0.6
						c0,0.2,0.1,0.4,0.2,0.5c0.1,0.1,0.3,0.2,0.5,0.2c0.2,0.1,0.5,0.1,0.8,0.2c0.5,0.1,0.9,0.2,1.2,0.3c0.3,0.1,0.6,0.3,0.8,0.5
						c0.2,0.2,0.3,0.5,0.3,1c0,0.5-0.2,1-0.7,1.3s-1.1,0.5-1.9,0.5C237,281.8,236.5,281.8,236.1,281.6z"/>
				</g>
				<g>
					<path class="st4" d="M245.6,276.3c0.4,0.4,0.7,1,0.7,1.8v3.6h-1V281c-0.2,0.3-0.4,0.5-0.8,0.6c-0.3,0.1-0.7,0.2-1.2,0.2
						c-0.7,0-1.2-0.2-1.6-0.5c-0.4-0.3-0.6-0.8-0.6-1.3s0.2-1,0.6-1.3s1-0.5,1.8-0.5h1.7v-0.2c0-0.5-0.1-0.8-0.4-1.1
						s-0.7-0.4-1.2-0.4c-0.4,0-0.7,0.1-1,0.2c-0.3,0.1-0.6,0.3-0.9,0.5l-0.5-0.8c0.3-0.2,0.7-0.4,1.1-0.6c0.4-0.1,0.9-0.2,1.4-0.2
						C244.5,275.7,245.1,275.9,245.6,276.3z M244.5,280.7c0.3-0.2,0.5-0.5,0.7-0.8v-0.8h-1.7c-0.9,0-1.4,0.3-1.4,0.9
						c0,0.3,0.1,0.5,0.4,0.7c0.2,0.2,0.6,0.3,1,0.3S244.2,280.9,244.5,280.7z"/>
				</g>
				<g>
					<path class="st4" d="M249.3,281.4c-0.5-0.3-0.9-0.6-1.1-1.1s-0.4-1-0.4-1.6c0-0.6,0.1-1.1,0.4-1.6s0.7-0.8,1.1-1.1
						c0.5-0.3,1-0.4,1.6-0.4c0.5,0,1,0.1,1.5,0.3c0.4,0.2,0.8,0.5,1,1l-0.8,0.5c-0.2-0.3-0.4-0.5-0.7-0.6s-0.6-0.2-0.9-0.2
						c-0.4,0-0.8,0.1-1.1,0.3c-0.3,0.2-0.6,0.4-0.7,0.7c-0.2,0.3-0.3,0.7-0.3,1.1c0,0.4,0.1,0.8,0.3,1.1c0.2,0.3,0.4,0.6,0.7,0.7
						c0.3,0.2,0.7,0.3,1.1,0.3c0.3,0,0.7-0.1,0.9-0.2s0.5-0.4,0.7-0.7l0.8,0.5c-0.2,0.4-0.6,0.7-1,1c-0.4,0.2-0.9,0.3-1.5,0.3
						C250.3,281.8,249.8,281.7,249.3,281.4z"/>
				</g>
				<g>
					<path class="st4" d="M258.3,281.4c-0.2,0.1-0.4,0.2-0.6,0.3s-0.5,0.1-0.7,0.1c-0.6,0-1.1-0.2-1.4-0.5c-0.3-0.3-0.5-0.8-0.5-1.4
						v-3.3h-1v-0.9h1v-1.3h1.1v1.3h1.7v0.9h-1.7v3.3c0,0.3,0.1,0.6,0.2,0.8c0.2,0.2,0.4,0.3,0.7,0.3c0.3,0,0.6-0.1,0.9-0.3
						L258.3,281.4z"/>
				</g>
				<g>
					<path class="st4" d="M259.6,274.3c-0.1-0.1-0.2-0.3-0.2-0.5c0-0.2,0.1-0.4,0.2-0.5c0.1-0.1,0.3-0.2,0.5-0.2s0.4,0.1,0.5,0.2
						c0.1,0.1,0.2,0.3,0.2,0.5c0,0.2-0.1,0.4-0.2,0.5s-0.3,0.2-0.5,0.2S259.8,274.5,259.6,274.3z M259.6,275.7h1.1v6h-1.1V275.7z"/>
				</g>
				<g>
					<path class="st4" d="M263.8,281.4c-0.5-0.3-0.9-0.6-1.1-1.1c-0.3-0.5-0.4-1-0.4-1.6c0-0.6,0.1-1.1,0.4-1.6
						c0.3-0.5,0.6-0.8,1.1-1.1c0.5-0.3,1-0.4,1.6-0.4c0.6,0,1.1,0.1,1.6,0.4c0.5,0.3,0.8,0.6,1.1,1.1s0.4,1,0.4,1.6
						c0,0.6-0.1,1.1-0.4,1.6s-0.6,0.8-1.1,1.1c-0.5,0.3-1,0.4-1.6,0.4C264.8,281.8,264.2,281.7,263.8,281.4z M266.4,280.6
						c0.3-0.2,0.5-0.4,0.7-0.8s0.3-0.7,0.3-1.1c0-0.4-0.1-0.8-0.3-1.1c-0.2-0.3-0.4-0.6-0.7-0.7s-0.7-0.3-1-0.3
						c-0.4,0-0.7,0.1-1,0.3c-0.3,0.2-0.6,0.4-0.7,0.7c-0.2,0.3-0.3,0.7-0.3,1.1c0,0.4,0.1,0.8,0.3,1.1c0.2,0.3,0.4,0.6,0.7,0.8
						c0.3,0.2,0.7,0.3,1,0.3C265.8,280.9,266.1,280.8,266.4,280.6z"/>
				</g>
				<g>
					<path class="st4" d="M275.1,276.3c0.5,0.4,0.7,1.1,0.7,2v3.5h-1.1v-3.4c0-0.6-0.1-1-0.4-1.3c-0.3-0.3-0.7-0.4-1.2-0.4
						c-0.6,0-1.1,0.2-1.4,0.5c-0.3,0.3-0.5,0.8-0.5,1.5v3.1H270v-6h1v0.9c0.2-0.3,0.5-0.6,0.9-0.7c0.4-0.2,0.8-0.2,1.3-0.2
						C274,275.7,274.6,275.9,275.1,276.3z"/>
				</g>
			</g>
			<g class="st2">
				<g>
					<path class="st4" d="M210.2,287.8h3.4c0.8,0,1.6,0.2,2.2,0.5c0.7,0.3,1.2,0.8,1.5,1.4c0.4,0.6,0.5,1.3,0.5,2.1
						c0,0.8-0.2,1.5-0.5,2.1c-0.4,0.6-0.9,1.1-1.5,1.4c-0.7,0.3-1.4,0.5-2.2,0.5h-3.4V287.8z M213.5,294.8c0.6,0,1.2-0.1,1.7-0.4
						s0.9-0.6,1.1-1.1s0.4-1,0.4-1.6s-0.1-1.1-0.4-1.6s-0.6-0.8-1.1-1.1s-1.1-0.4-1.7-0.4h-2.2v6H213.5z"/>
				</g>
				<g>
					<path class="st4" d="M223.6,290.3c0.4,0.4,0.7,1,0.7,1.8v3.6h-1V295c-0.2,0.3-0.4,0.5-0.8,0.6c-0.3,0.1-0.7,0.2-1.2,0.2
						c-0.7,0-1.2-0.2-1.6-0.5c-0.4-0.3-0.6-0.8-0.6-1.3s0.2-1,0.6-1.3s1-0.5,1.8-0.5h1.7v-0.2c0-0.5-0.1-0.8-0.4-1.1
						s-0.7-0.4-1.2-0.4c-0.4,0-0.7,0.1-1,0.2c-0.3,0.1-0.6,0.3-0.9,0.5l-0.5-0.8c0.3-0.2,0.7-0.4,1.1-0.6c0.4-0.1,0.9-0.2,1.4-0.2
						C222.5,289.7,223.1,289.9,223.6,290.3z M222.5,294.7c0.3-0.2,0.5-0.5,0.7-0.8v-0.8h-1.7c-0.9,0-1.4,0.3-1.4,0.9
						c0,0.3,0.1,0.5,0.4,0.7c0.2,0.2,0.6,0.3,1,0.3S222.2,294.9,222.5,294.7z"/>
				</g>
				<g>
					<path class="st4" d="M229.7,295.4c-0.2,0.1-0.4,0.2-0.6,0.3s-0.5,0.1-0.7,0.1c-0.6,0-1.1-0.2-1.4-0.5c-0.3-0.3-0.5-0.8-0.5-1.4
						v-3.3h-1v-0.9h1v-1.3h1.1v1.3h1.7v0.9h-1.7v3.3c0,0.3,0.1,0.6,0.2,0.8c0.2,0.2,0.4,0.3,0.7,0.3c0.3,0,0.6-0.1,0.9-0.3
						L229.7,295.4z"/>
				</g>
				<g>
					<path class="st4" d="M236.2,293.1h-4.9c0.1,0.5,0.3,1,0.7,1.3c0.4,0.3,0.9,0.5,1.5,0.5c0.7,0,1.3-0.2,1.7-0.7l0.6,0.7
						c-0.3,0.3-0.6,0.6-1,0.7s-0.9,0.3-1.4,0.3c-0.6,0-1.2-0.1-1.7-0.4c-0.5-0.3-0.9-0.6-1.1-1.1c-0.3-0.5-0.4-1-0.4-1.6
						c0-0.6,0.1-1.1,0.4-1.6c0.3-0.5,0.6-0.8,1.1-1.1c0.5-0.3,1-0.4,1.6-0.4s1.1,0.1,1.5,0.4c0.5,0.3,0.8,0.6,1.1,1.1
						c0.3,0.5,0.4,1,0.4,1.6C236.2,292.8,236.2,293,236.2,293.1z M231.9,291.1c-0.4,0.3-0.6,0.7-0.6,1.3h3.9
						c-0.1-0.5-0.3-0.9-0.6-1.2c-0.4-0.3-0.8-0.5-1.3-0.5S232.3,290.7,231.9,291.1z"/>
				</g>
			</g>
			<g id="Line-4">
				<rect x="166.2" y="263.1" class="st4" width="0.9" height="8.5"/>
			</g>
			<g id="Line-4-Copy-2">
				<rect x="100.7" y="263.1" class="st4" width="1" height="8.5"/>
			</g>
			<g id="Line-4-Copy">
				<rect x="209.4" y="263.1" class="st4" width="0.9" height="8.5"/>
			</g>
		</g>
	</g>
</g>
</svg>
