<?xml version="1.0" encoding="UTF-8"?>
<svg width="36px" height="42px" viewBox="0 0 36 42" version="1.1" xmlns="http://www.w3.org/2000/svg" xmlns:xlink="http://www.w3.org/1999/xlink">
    <title>Group 40</title>
    <defs>
        <polygon id="path-1" points="0 0.865714286 35.4 0.865714286 35.4 41.1428571 0 41.1428571"></polygon>
    </defs>
    <g id="Find-a-Michael's-location" stroke="none" stroke-width="1" fill="none" fill-rule="evenodd">
        <g id="Group-8" transform="translate(0.000000, 0.000000)">
            <g id="Group-3" transform="translate(0.000000, 0.849257)">
                <mask id="mask-2" fill="white">
                    <use xlink:href="#path-1"></use>
                </mask>
                <g id="Clip-2"></g>
                <path d="M0.0111428571,18.5664 C0.0111428571,17.9304 0.0111428571,17.2944 0.0128571429,16.6584 C0.0128571429,16.5829714 -0.00428571429,16.4921143 0.120857143,16.4886857 C0.136285714,16.4886857 0.160285714,16.4235429 0.162,16.3875429 C0.172285714,16.1064 0.177428571,15.8252571 0.184285714,15.5458286 C0.186,15.4824 0.170571429,15.4121143 0.268285714,15.3984 C0.285428571,15.3949714 0.304285714,15.3384 0.304285714,15.3058286 C0.314571429,15.1241143 0.319714286,14.9424 0.323142857,14.7589714 C0.324857143,14.6972571 0.331714286,14.6475429 0.410571429,14.6492571 C0.470571429,14.6509714 0.475714286,14.6098286 0.475714286,14.5652571 C0.479142857,14.4144 0.482571429,14.2652571 0.492857143,14.1161143 C0.494571429,14.0869714 0.522,14.0372571 0.540857143,14.0355429 C0.614571429,14.0286857 0.618,13.9858286 0.618,13.9292571 C0.618,13.8589714 0.619714286,13.7886857 0.623142857,13.7184 C0.624857143,13.6429714 0.604285714,13.5521143 0.732857143,13.5572571 C0.746571429,13.5572571 0.772285714,13.5006857 0.775714286,13.4681143 C0.787714286,13.3344 0.791142857,13.1989714 0.803142857,13.0635429 C0.804857143,13.0344 0.822,12.9812571 0.834,12.9812571 C0.957428571,12.9778286 0.923142857,12.8869714 0.93,12.8184 C0.935142857,12.7584 0.936857143,12.6984 0.938571429,12.6366857 C0.940285714,12.5698286 0.952285714,12.5184 1.03971429,12.5184 C1.05857143,12.5166857 1.08942857,12.4738286 1.09457143,12.4464 C1.10485714,12.3864 1.09628571,12.3246857 1.10485714,12.2646857 C1.11,12.2406857 1.13571429,12.2012571 1.15457143,12.2012571 C1.22828571,12.1978286 1.23171429,12.1549714 1.23342857,12.0984 C1.23514286,12.0041143 1.242,11.9115429 1.24885714,11.8172571 C1.25057143,11.7915429 1.26085714,11.7435429 1.266,11.7435429 C1.42542857,11.7418286 1.374,11.6184 1.38085714,11.5412571 C1.38771429,11.4658286 1.38257143,11.4006857 1.48885714,11.4092571 C1.50428571,11.4109714 1.53685714,11.3715429 1.542,11.3475429 C1.55057143,11.2978286 1.54542857,11.2446857 1.55057143,11.1949714 C1.554,11.1726857 1.57628571,11.1332571 1.58828571,11.1332571 C1.69114286,11.1384 1.68085714,11.0664 1.68085714,11.0012571 C1.68257143,10.9686857 1.68942857,10.9361143 1.68942857,10.9035429 C1.68771429,10.8486857 1.69971429,10.8126857 1.76485714,10.8178286 C1.83685714,10.8246857 1.85057143,10.7835429 1.84885714,10.7235429 C1.84714286,10.6772571 1.854,10.6309714 1.85914286,10.5846857 C1.86085714,10.5624 1.86771429,10.5212571 1.87457143,10.5212571 C2.04771429,10.5161143 1.97914286,10.3755429 1.99457143,10.2915429 C2.00485714,10.2315429 2.01514286,10.1955429 2.08371429,10.2024 C2.14885714,10.2092571 2.16085714,10.1715429 2.15914286,10.1166857 C2.15914286,10.0652571 2.16085714,10.0121143 2.17114286,9.9624 C2.17628571,9.94011429 2.20371429,9.9024 2.22257143,9.9024 C2.298,9.9024 2.30485714,9.86125714 2.30314286,9.80297143 C2.30142857,9.76182857 2.31171429,9.71897143 2.31,9.67782857 C2.30828571,9.61954286 2.32714286,9.58697143 2.39057143,9.59554286 C2.46085714,9.6024 2.478,9.5664 2.47457143,9.50297143 C2.47114286,9.45497143 2.47114286,9.41554286 2.54142857,9.40697143 C2.63571429,9.39497143 2.60485714,9.3024 2.61342857,9.24754286 C2.622,9.18068571 2.62371429,9.12925714 2.71114286,9.13954286 C2.76942857,9.1464 2.77971429,9.1104 2.77971429,9.0624 C2.77971429,9.01954286 2.79,8.9784 2.79,8.93725714 C2.78828571,8.88068571 2.79342857,8.83611429 2.87057143,8.83611429 C2.88771429,8.83782857 2.922,8.79668571 2.92028571,8.77782857 C2.91685714,8.69897143 2.93228571,8.64925714 3.02657143,8.65611429 C3.03685714,8.65611429 3.054,8.62525714 3.05742857,8.60468571 C3.066,8.55497143 3.07285714,8.50354286 3.07285714,8.45382857 C3.07285714,8.39725714 3.08485714,8.36125714 3.15,8.3664 C3.16371429,8.3664 3.18771429,8.36982857 3.18942857,8.36297143 C3.21685714,8.31668571 3.22885714,8.25154286 3.26657143,8.22411429 C3.306,8.19668571 3.38485714,8.22582857 3.37114286,8.13325714 C3.36257143,8.07497143 3.378,8.0304 3.45171429,8.03725714 C3.51171429,8.04411429 3.534,8.01325714 3.534,7.95497143 C3.534,7.91382857 3.54771429,7.87268571 3.54771429,7.83154286 C3.54771429,7.77668571 3.55457143,7.74411429 3.62142857,7.7424 C3.64371429,7.74068571 3.67971429,7.69782857 3.67971429,7.67382857 C3.68142857,7.60868571 3.71228571,7.59668571 3.76714286,7.5984 C3.79285714,7.5984 3.84085714,7.58125714 3.83914286,7.57611429 C3.834,7.48182857 3.88028571,7.44411429 3.96771429,7.44068571 C3.97285714,7.44068571 3.97971429,7.42525714 3.97971429,7.4184 C3.96771429,7.31554286 4.01057143,7.27268571 4.11685714,7.26068571 C4.13742857,7.25897143 4.15971429,7.15611429 4.16314286,7.09954286 C4.16828571,7.03097143 4.19742857,7.01554286 4.25228571,6.97782857 C4.32257143,6.92811429 4.35857143,6.82868571 4.46485714,6.81325714 C4.47,6.81325714 4.46828571,6.76868571 4.47,6.7464 C4.47171429,6.72754286 4.47514286,6.70868571 4.47685714,6.69154286 C4.614,6.72411429 4.578,6.53554286 4.67914286,6.53554286 C4.76142857,6.53382857 4.78542857,6.50297143 4.77514286,6.42754286 C4.77514286,6.42411429 4.77342857,6.41554286 4.77685714,6.41382857 C4.81971429,6.38982857 4.86942857,6.3744 4.90371429,6.34182857 C4.93971429,6.31268571 4.88142857,6.21668571 4.97742857,6.22182857 C5.04428571,6.22697143 5.05971429,6.1944 5.05457143,6.13782857 C5.05285714,6.11897143 5.05628571,6.08468571 5.058,6.08468571 C5.17628571,6.08125714 5.21228571,5.92868571 5.28257143,5.92525714 C5.40771429,5.91668571 5.32371429,5.77782857 5.406,5.77782857 C5.49514286,5.77782857 5.55,5.76068571 5.53628571,5.65611429 C5.53285714,5.64411429 5.54657143,5.62011429 5.54657143,5.62011429 C5.68028571,5.6544 5.64771429,5.47097143 5.73857143,5.46925714 C5.82771429,5.46925714 5.85514286,5.4384 5.84485714,5.35611429 C5.84314286,5.35097143 5.84314286,5.34411429 5.84485714,5.3424 C5.89285714,5.31668571 5.95971429,5.29954286 5.97857143,5.26011429 C6.00257143,5.21211429 5.98714286,5.14697143 6.07285714,5.16068571 C6.14142857,5.17268571 6.16714286,5.1384 6.16028571,5.07325714 C6.15514286,5.02182857 6.17571429,4.99611429 6.23057143,4.99611429 C6.282,4.9944 6.33342857,4.98925714 6.38314286,4.97382857 C6.40714286,4.96697143 6.426,4.93954286 6.44828571,4.92068571 C6.45,4.91897143 6.45,4.91211429 6.45,4.90697143 C6.44142857,4.79382857 6.58542857,4.88811429 6.594,4.80068571 C6.59914286,4.73725714 6.58371429,4.66354286 6.69,4.67382857 C6.70542857,4.67554286 6.726,4.63611429 6.74142857,4.61211429 C6.75514286,4.59154286 6.76371429,4.54697143 6.774,4.54868571 C6.87342857,4.55382857 6.93685714,4.52811429 6.92314286,4.40982857 C6.92142857,4.40297143 6.95571429,4.38411429 6.97457143,4.38068571 C7.026,4.37211429 7.07742857,4.36868571 7.12714286,4.36182857 C7.14942857,4.3584 7.19057143,4.35154286 7.19057143,4.34982857 C7.17342857,4.21954286 7.34485714,4.25382857 7.35,4.18011429 C7.36028571,4.07897143 7.398,4.05325714 7.48542857,4.06354286 C7.50085714,4.06354286 7.53,4.04811429 7.53,4.03782857 C7.53685714,3.88697143 7.65685714,3.93325714 7.73914286,3.92125714 C7.794,3.91268571 7.83685714,3.91611429 7.83685714,3.84068571 C7.83685714,3.82011429 7.87457143,3.78582857 7.89514286,3.78582857 C7.95857143,3.78582857 7.99285714,3.7704 7.986,3.6984 C7.97742857,3.63325714 8.01857143,3.62297143 8.07342857,3.62297143 C8.118,3.62297143 8.166,3.61611429 8.21228571,3.60925714 C8.23457143,3.60582857 8.274,3.59725714 8.274,3.59211429 C8.26371429,3.43611429 8.38885714,3.47382857 8.46771429,3.46697143 C8.54485714,3.46011429 8.59628571,3.45154286 8.58428571,3.35897143 C8.58428571,3.3504 8.586,3.34011429 8.58942857,3.33154286 C8.61857143,3.26468571 8.73685714,3.35382857 8.73685714,3.24925714 C8.73857143,3.1464 8.80885714,3.17554286 8.86371429,3.1704 C8.898,3.16697143 8.92885714,3.16011429 8.96142857,3.16354286 C9.02142857,3.16697143 9.04885714,3.14297143 9.04371429,3.08297143 C9.03514286,3.01097143 9.07285714,2.99554286 9.13457143,2.99897143 C9.18771429,3.00068571 9.23914286,2.99554286 9.28885714,2.98868571 C9.30771429,2.98525714 9.34028571,2.9664 9.34028571,2.95782857 C9.33171429,2.8464 9.40542857,2.86011429 9.47742857,2.85497143 C9.55971429,2.84982857 9.67971429,2.87897143 9.66085714,2.72297143 C9.66085714,2.7144 9.702,2.69382857 9.726,2.6904 C9.78085714,2.68354286 9.83742857,2.68868571 9.89228571,2.67668571 C9.918,2.67154286 9.95742857,2.63897143 9.96085714,2.61668571 C9.966,2.56011429 9.99171429,2.54811429 10.0431429,2.54811429 C10.0928571,2.54811429 10.1442857,2.53954286 10.194,2.54125714 C10.2471429,2.54125714 10.278,2.52582857 10.2711429,2.46925714 C10.2625714,2.3904 10.3088571,2.37668571 10.374,2.38011429 C10.4254286,2.38354286 10.4768571,2.38011429 10.5282857,2.37325714 C10.5471429,2.37154286 10.5814286,2.35268571 10.5814286,2.34411429 C10.5762857,2.2104 10.6808571,2.24982857 10.7494286,2.23954286 C10.8197143,2.22754286 10.914,2.26697143 10.9191429,2.1384 C10.9191429,2.12811429 10.9654286,2.11268571 10.9911429,2.10925714 C11.0785714,2.1024 11.1677143,2.09554286 11.2568571,2.09382857 C11.3117143,2.09211429 11.3494286,2.08182857 11.3425714,2.01668571 C11.3357143,1.9464 11.3768571,1.93268571 11.4385714,1.93268571 C11.5277143,1.93268571 11.6151429,1.9224 11.7025714,1.92068571 C11.7625714,1.91897143 11.8174286,1.9224 11.8191429,1.83668571 C11.8191429,1.82125714 11.862,1.79725714 11.8877143,1.79382857 C11.9665714,1.78525714 12.0471429,1.78011429 12.1242857,1.78182857 C12.2048571,1.78182857 12.2751429,1.78011429 12.2682857,1.66697143 C12.2665714,1.65497143 12.3145714,1.62925714 12.3385714,1.62582857 C12.414,1.61897143 12.4894286,1.62411429 12.5631429,1.61725714 C12.63,1.6104 12.7225714,1.63782857 12.726,1.51782857 C12.726,1.50582857 12.7774286,1.48868571 12.8065714,1.48697143 C12.9454286,1.4784 13.086,1.47325714 13.2265714,1.46811429 C13.2831429,1.4664 13.3294286,1.45782857 13.3277143,1.38582857 C13.3242857,1.31725714 13.3688571,1.31554286 13.4185714,1.31554286 C13.5642857,1.31211429 13.7082857,1.30868571 13.854,1.30011429 C13.8865714,1.2984 13.9414286,1.27611429 13.9414286,1.26068571 C13.95,1.16811429 14.0117143,1.1784 14.0717143,1.17668571 C14.2551429,1.17325714 14.4368571,1.1664 14.6185714,1.16297143 C14.6734286,1.16297143 14.7128571,1.15268571 14.7111429,1.08754286 C14.7094286,1.01382857 14.7591429,1.01211429 14.8157143,1.0104 C15.09,1.00697143 15.366,1.00182857 15.642,0.994971429 C15.7037143,0.993257143 15.7757143,1.00868571 15.7911429,0.910971429 C15.7945714,0.893828571 15.8511429,0.876685714 15.8837143,0.874971429 C16.0568571,0.868114286 16.23,0.864685714 16.4031429,0.864685714 C17.4214286,0.8664 18.4414286,0.869828571 19.4631429,0.873257143 C19.5317143,0.873257143 19.6174286,0.850971429 19.6345714,0.9624 C19.638,0.977828571 19.698,0.991542857 19.7322857,0.993257143 C20.0031429,1.00011429 20.274,1.00354286 20.5465714,1.00868571 C20.6185714,1.0104 20.6991429,0.996685714 20.6991429,1.11497143 C20.6974286,1.1304 20.754,1.15954286 20.7814286,1.15954286 C20.9648571,1.16982857 21.1465714,1.17154286 21.33,1.17668571 C21.39,1.1784 21.4534286,1.1664 21.4602857,1.25897143 C21.462,1.27611429 21.5168571,1.2984 21.5477143,1.30011429 C21.6917143,1.30868571 21.8357143,1.31211429 21.9814286,1.31554286 C22.0328571,1.31554286 22.0791429,1.31554286 22.0757143,1.38411429 C22.074,1.45611429 22.1168571,1.4664 22.1768571,1.46811429 C22.3157143,1.47154286 22.4562857,1.4784 22.5968571,1.48697143 C22.6242857,1.48868571 22.6774286,1.50582857 22.6774286,1.51611429 C22.6791429,1.63782857 22.7717143,1.60868571 22.8368571,1.61725714 C22.9037143,1.62411429 22.9688571,1.62411429 23.034,1.6224 C23.0957143,1.6224 23.1471429,1.62582857 23.1402857,1.70982857 C23.1368571,1.76468571 23.1711429,1.7784 23.2208571,1.78011429 C23.2997143,1.78011429 23.3802857,1.78697143 23.4591429,1.7904 C23.5328571,1.79554286 23.6254286,1.76297143 23.6271429,1.89154286 C23.6271429,1.90182857 23.6734286,1.91554286 23.6974286,1.91897143 C23.7711429,1.92582857 23.8465714,1.93097143 23.922,1.93097143 C24.0008571,1.93097143 24.0745714,1.92925714 24.0642857,2.04411429 C24.0625714,2.05954286 24.1071429,2.08697143 24.1311429,2.0904 C24.1997143,2.09897143 24.2717143,2.09211429 24.3402857,2.1024 C24.4071429,2.11097143 24.5014286,2.08525714 24.5031429,2.20525714 C24.5031429,2.21554286 24.546,2.23268571 24.57,2.23611429 C24.6248571,2.24297143 24.6831429,2.23954286 24.738,2.24468571 C24.762,2.24811429 24.8048571,2.26525714 24.8048571,2.27382857 C24.8014286,2.40754286 24.9008571,2.36982857 24.9728571,2.37668571 C25.0037143,2.38011429 25.0397143,2.37497143 25.0688571,2.38354286 C25.0911429,2.38868571 25.1254286,2.4144 25.1237143,2.4264 C25.1117143,2.55325714 25.1957143,2.54125714 25.2762857,2.54297143 C25.3088571,2.54297143 25.3414286,2.5464 25.374,2.54982857 C25.3928571,2.55154286 25.4237143,2.55668571 25.4254286,2.56354286 C25.4357143,2.7504 25.5865714,2.6664 25.6774286,2.68525714 C25.7288571,2.69725714 25.7528571,2.71268571 25.7477143,2.76411429 C25.7408571,2.8344 25.7768571,2.85154286 25.8402857,2.84982857 C25.8917143,2.84811429 25.9431429,2.85154286 25.9928571,2.8584 C26.0134286,2.86182857 26.0477143,2.87897143 26.0477143,2.88754286 C26.0408571,3.03154286 26.154,2.9904 26.2242857,2.99554286 C26.3031429,3.0024 26.3768571,2.99382857 26.3631429,3.1104 C26.3614286,3.12411429 26.4025714,3.15325714 26.4265714,3.16011429 C26.4762857,3.1704 26.5294286,3.17554286 26.5791429,3.1704 C26.6837143,3.15668571 26.6408571,3.25268571 26.6768571,3.28525714 C26.7094286,3.31782857 26.8122857,3.32811429 26.8105714,3.34354286 C26.7968571,3.51154286 26.9288571,3.45325714 27.0042857,3.47211429 C27.0625714,3.48582857 27.1277143,3.46697143 27.1225714,3.56297143 C27.1208571,3.57668571 27.1637143,3.6024 27.1894286,3.60754286 C27.2442857,3.61954286 27.3008571,3.61611429 27.3557143,3.6264 C27.378,3.62982857 27.414,3.65725714 27.4122857,3.66925714 C27.402,3.78068571 27.4654286,3.79097143 27.5494286,3.78582857 C27.5631429,3.78411429 27.5922857,3.80297143 27.5905714,3.81154286 C27.5768571,3.95211429 27.6917143,3.91782857 27.7602857,3.92811429 C27.834,3.94011429 27.906,3.93325714 27.894,4.03954286 C27.894,4.04468571 27.894,4.05154286 27.8957143,4.05325714 C27.9848571,4.08411429 28.0362857,4.1664 28.1048571,4.22297143 C28.1374286,4.2504 28.1957143,4.2384 28.1957143,4.3104 C28.1957143,4.32754286 28.2351429,4.35325714 28.2608571,4.36011429 C28.3105714,4.37211429 28.362,4.37725714 28.4117143,4.37725714 C28.4665714,4.37725714 28.4854286,4.39782857 28.4871429,4.45097143 C28.4888571,4.48182857 28.5145714,4.53497143 28.53,4.53497143 C28.614,4.53497143 28.6791429,4.54525714 28.6654286,4.65325714 C28.7785714,4.66182857 28.818,4.73554286 28.8317143,4.83497143 C28.8317143,4.84182857 28.8831429,4.8384 28.9088571,4.84525714 C28.9311429,4.84868571 28.9705714,4.85725714 28.9705714,4.86582857 C28.9808571,5.02697143 29.1111429,4.97554286 29.1985714,4.99611429 C29.2122857,4.99954286 29.2397143,5.00125714 29.2397143,5.00125714 C29.2294286,5.13325714 29.3922857,5.14182857 29.4094286,5.23611429 C29.4351429,5.3544 29.5362857,5.26354286 29.5757143,5.31668571 C29.6117143,5.36297143 29.5362857,5.47268571 29.6648571,5.46754286 C29.6854286,5.46754286 29.7231429,5.49325714 29.7231429,5.50525714 C29.7197143,5.58411429 29.7522857,5.61497143 29.8311429,5.60982857 C29.8397143,5.60811429 29.8654286,5.63211429 29.8654286,5.64068571 C29.8551429,5.74011429 29.8877143,5.79497143 29.9957143,5.77611429 C30.03,5.86525714 30.1311429,5.90125714 30.1722857,5.97497143 C30.1997143,6.02811429 30.21,6.06068571 30.2717143,6.05211429 C30.3368571,6.04525714 30.3522857,6.08125714 30.3471429,6.13782857 C30.342,6.19268571 30.3574286,6.22697143 30.4225714,6.22182857 C30.5305714,6.21497143 30.4568571,6.3264 30.5065714,6.35211429 C30.5511429,6.3744 30.642,6.37954286 30.6454286,6.40011429 C30.6574286,6.48068571 30.6574286,6.55097143 30.7654286,6.53554286 C30.7791429,6.64525714 30.8494286,6.6864 30.9522857,6.69497143 C30.9574286,6.69497143 30.9625714,6.73782857 30.9608571,6.76011429 C30.9591429,6.81497143 30.9711429,6.85097143 31.038,6.84582857 C31.0534286,6.84582857 31.086,6.85611429 31.086,6.86125714 C31.0825714,6.97097143 31.1442857,7.00011429 31.242,6.9984 C31.2488571,6.9984 31.2574286,7.0464 31.2625714,7.0704 C31.2882857,7.1544 31.242,7.28125714 31.3945714,7.2864 C31.4082857,7.38411429 31.4477143,7.46297143 31.5505714,7.49211429 C31.5368571,7.59325714 31.6002857,7.59325714 31.6757143,7.60697143 C31.7082857,7.61382857 31.7151429,7.71325714 31.7562857,7.73725714 C31.7991429,7.76125714 31.8677143,7.7424 31.8557143,7.82982857 C31.8522857,7.85725714 31.8625714,7.8864 31.8642857,7.91382857 C31.8677143,7.98754286 31.8745714,8.05782857 31.9774286,8.04068571 C31.986,8.03897143 32.0048571,8.04411429 32.0048571,8.04411429 C31.9928571,8.17097143 32.1334286,8.1984 32.1642857,8.28925714 C32.1814286,8.34582857 32.1934286,8.37154286 32.2517143,8.3664 C32.3151429,8.36125714 32.3305714,8.39554286 32.3305714,8.45211429 C32.3305714,8.49497143 32.346,8.53611429 32.3408571,8.57725714 C32.3305714,8.6784 32.4231429,8.64068571 32.4557143,8.67325714 C32.49,8.70925714 32.49,8.82754286 32.5054286,8.82754286 C32.6957143,8.8224 32.6271429,8.96982857 32.6528571,9.0624 C32.6597143,9.09154286 32.6871429,9.13611429 32.7042857,9.13611429 C32.778,9.13782857 32.7797143,9.17554286 32.7882857,9.23382857 C32.7985714,9.31268571 32.7711429,9.42582857 32.9168571,9.41725714 C32.9288571,9.41725714 32.946,9.47382857 32.958,9.50468571 C32.9682857,9.53211429 32.9768571,9.58697143 32.9854286,9.58697143 C33.1294286,9.5784 33.09,9.68982857 33.0968571,9.76182857 C33.1054286,9.83897143 33.09,9.91611429 33.2082857,9.9024 C33.2237143,9.90068571 33.2562857,9.94011429 33.2597143,9.96411429 C33.27,10.0189714 33.2665714,10.0755429 33.2717143,10.1321143 C33.2751429,10.1526857 33.2854286,10.1921143 33.2922857,10.1921143 C33.4688571,10.1955429 33.3917143,10.3361143 33.4105714,10.4184 C33.4242857,10.4664 33.4208571,10.5058286 33.486,10.5126857 C33.5082857,10.5144 33.5357143,10.5572571 33.5425714,10.5846857 C33.5528571,10.6292571 33.5545714,10.6772571 33.5528571,10.7235429 C33.5511429,10.7835429 33.5648571,10.8246857 33.6368571,10.8178286 C33.7002857,10.8126857 33.714,10.8486857 33.714,10.9035429 C33.7122857,10.9549714 33.7157143,11.0064 33.7242857,11.0578286 C33.7277143,11.0801143 33.7482857,11.1212571 33.7602857,11.1212571 C33.858,11.1178286 33.8511429,11.1829714 33.8545714,11.2498286 C33.8562857,11.3338286 33.8374286,11.4384 33.9831429,11.4212571 C33.9917143,11.4212571 34.014,11.4606857 34.0174286,11.4846857 C34.0242857,11.5446857 34.0191429,11.6064 34.0277143,11.6664 C34.0294286,11.6886857 34.0517143,11.7264 34.0654286,11.7246857 C34.158,11.7229714 34.1545714,11.7812571 34.1562857,11.8464 C34.158,11.9338286 34.17,12.0229714 34.17,12.1104 C34.1717143,12.1686857 34.1871429,12.2029714 34.2488571,12.1961143 C34.3242857,12.1892571 34.3311429,12.2355429 34.3294286,12.2938286 C34.3277143,12.3452571 34.3294286,12.3966857 34.3345714,12.4481143 C34.3362857,12.4721143 34.3534286,12.5132571 34.3637143,12.5132571 C34.482,12.5184 34.4597143,12.6109714 34.4682857,12.6778286 C34.4768571,12.7429714 34.4751429,12.8098286 34.4751429,12.8749714 C34.4717143,12.9349714 34.4854286,12.9744 34.5557143,12.9709714 C34.6225714,12.9675429 34.626,13.0138286 34.6294286,13.0652571 C34.6362857,13.2006857 34.6431429,13.3361143 34.6551429,13.4698286 C34.6568571,13.4989714 34.674,13.5521143 34.6877143,13.5521143 C34.806,13.5624 34.7734286,13.6498286 34.7785714,13.7184 C34.782,13.7801143 34.7854286,13.8401143 34.7837143,13.9001143 C34.782,13.9755429 34.7837143,14.0424 34.8917143,14.0372571 C34.9054286,14.0355429 34.9362857,14.0886857 34.938,14.1161143 C34.9465714,14.2618286 34.9482857,14.4058286 34.9551429,14.5515429 C34.9568571,14.5806857 34.9671429,14.6355429 34.9774286,14.6372571 C35.1162857,14.6561143 35.0785714,14.7641143 35.0837143,14.8429714 C35.094,14.9955429 35.0922857,15.1515429 35.0974286,15.3058286 C35.0991429,15.3349714 35.1077143,15.3898286 35.1197143,15.3915429 C35.2585714,15.4121143 35.2191429,15.5218286 35.2225714,15.6006857 C35.2328571,15.8612571 35.2345714,16.1235429 35.238,16.3858286 C35.2397143,16.4458286 35.238,16.4989714 35.3202857,16.5006857 C35.3991429,16.5024 35.3871429,16.5658286 35.3871429,16.6155429 C35.3922857,16.9806857 35.4008571,17.3441143 35.4008571,17.7092571 C35.3991429,18.6315429 35.394,19.5521143 35.3905714,20.4726857 C35.3888571,20.5481143 35.4042857,20.6269714 35.286,20.6321143 C35.2688571,20.6338286 35.2431429,20.6955429 35.2431429,20.7315429 C35.2345714,20.9732571 35.2311429,21.2166857 35.226,21.4601143 C35.2242857,21.5115429 35.2242857,21.5629714 35.2191429,21.6144 C35.2157143,21.6349714 35.2054286,21.6726857 35.1951429,21.6726857 C35.0631429,21.6864 35.1008571,21.7892571 35.0957143,21.8646857 C35.0871429,22.0275429 35.0871429,22.1921143 35.0785714,22.3549714 C35.0785714,22.3841143 35.0597143,22.4338286 35.046,22.4338286 C34.938,22.4424 34.9585714,22.5195429 34.9551429,22.5881143 C34.9517143,22.7132571 34.9448571,22.8401143 34.9431429,22.9652571 C34.9431429,23.0235429 34.938,23.0698286 34.8642857,23.0646857 C34.7991429,23.0612571 34.7888571,23.1006857 34.7871429,23.1538286 C34.7837143,23.2995429 34.7785714,23.4435429 34.7682857,23.5892571 C34.7665714,23.6166857 34.7391429,23.6664 34.7202857,23.6681143 C34.6465714,23.6732571 34.6431429,23.7178286 34.6431429,23.7744 C34.6414286,23.8635429 34.6328571,23.9526857 34.6328571,24.0401143 C34.6328571,24.0984 34.6174286,24.1309714 34.554,24.1258286 C34.4785714,24.1189714 34.4751429,24.1686857 34.4751429,24.2252571 C34.4751429,24.3041143 34.4717143,24.3846857 34.4648571,24.4618286 C34.4614286,24.5286857 34.4888571,24.6126857 34.3705714,24.6075429 C34.3602857,24.6075429 34.3397143,24.6486857 34.3362857,24.6726857 C34.3311429,24.7275429 34.3294286,24.7841143 34.3311429,24.8406857 C34.3328571,24.8955429 34.3191429,24.9315429 34.2557143,24.9281143 C34.1922857,24.9229714 34.1768571,24.9606857 34.1751429,25.0155429 C34.1717143,25.0909714 34.1631429,25.1646857 34.1597143,25.2401143 C34.158,25.3052571 34.17,25.3755429 34.0654286,25.3704 C34.0534286,25.3704 34.0328571,25.4081143 34.0294286,25.4304 C34.0225714,25.4818286 34.0208571,25.5332571 34.0208571,25.5846857 C34.0225714,25.6429714 34.0157143,25.6875429 33.9402857,25.6806857 C33.8785714,25.6738286 33.8614286,25.7081143 33.8614286,25.7646857 C33.8614286,25.8401143 33.8528571,25.9138286 33.846,25.9892571 C33.8408571,26.0475429 33.8477143,26.1144 33.7568571,26.1161143 C33.7414286,26.1161143 33.7208571,26.1624 33.7157143,26.1881143 C33.7071429,26.2395429 33.7037143,26.2909714 33.7037143,26.3406857 C33.702,26.3921143 33.6848571,26.4246857 33.63,26.4195429 C33.546,26.4109714 33.546,26.4658286 33.546,26.5275429 C33.546,26.5721143 33.5408571,26.6184 33.534,26.6664 C33.5322857,26.6818286 33.522,26.7144 33.5168571,26.7144 C33.3591429,26.7144 33.4174286,26.8395429 33.4002857,26.9166857 C33.3848571,26.9766857 33.3882857,27.0349714 33.3008571,27.0435429 C33.2854286,27.0435429 33.2785714,27.1121143 33.2614286,27.1464 C33.2494286,27.1738286 33.2254286,27.2201143 33.2082857,27.2201143 C33.1174286,27.2132571 33.1037143,27.2595429 33.1002857,27.3366857 C33.0968571,27.4104 33.1208571,27.5184 32.9837143,27.5081143 C32.9768571,27.5081143 32.9648571,27.5458286 32.9614286,27.5664 C32.9562857,27.6178286 32.9494286,27.6692571 32.9511429,27.7206857 C32.9528571,27.7806857 32.9288571,27.8081143 32.8688571,27.8012571 C32.7968571,27.7926857 32.7814286,27.8338286 32.7882857,27.8938286 C32.7917143,27.9469714 32.7831429,27.9829714 32.7162857,27.9864 C32.694,27.9881143 32.6665714,28.0292571 32.658,28.0566857 C32.646,28.1012571 32.6477143,28.1492571 32.6442857,28.1955429 C32.6425714,28.2144 32.6425714,28.2486857 32.6391429,28.2486857 C32.5208571,28.2538286 32.4968571,28.3755429 32.4231429,28.4252571 C32.3768571,28.4595429 32.3477143,28.4749714 32.3477143,28.5315429 C32.3477143,28.5744 32.334,28.6155429 32.334,28.6584 C32.3357143,28.7115429 32.3134286,28.7304 32.2602857,28.7321143 C32.2328571,28.7321143 32.1797143,28.7475429 32.1797143,28.7578286 C32.1745714,28.8469714 32.1711429,28.9206857 32.0511429,28.9292571 C32.0391429,28.9292571 32.0254286,29.0304 32.0254286,29.0852571 C32.0237143,29.1486857 32.0082857,29.1829714 31.938,29.1744 C31.9191429,29.1726857 31.902,29.1778286 31.8831429,29.1795429 C31.9037143,29.3132571 31.7631429,29.3355429 31.7202857,29.4246857 C31.7065714,29.4521143 31.6791429,29.4915429 31.6602857,29.4915429 C31.5625714,29.4829714 31.5625714,29.5361143 31.5522857,29.6098286 C31.5454286,29.6801143 31.5797143,29.7949714 31.4408571,29.7932571 C31.4305714,29.7932571 31.4082857,29.8189714 31.41,29.8309714 C31.4168571,29.9166857 31.3997143,29.9784 31.2934286,29.9664 C31.2882857,30.0864 31.206,30.1121143 31.1117143,30.1292571 C31.1031429,30.1309714 31.11,30.1824 31.1014286,30.2098286 C31.0945714,30.2338286 31.0774286,30.2715429 31.0654286,30.2715429 C30.99,30.2698286 30.9557143,30.2972571 30.9608571,30.3778286 C30.9608571,30.3898286 30.9214286,30.4189714 30.9042857,30.4172571 C30.8117143,30.4069714 30.7877143,30.4515429 30.7962857,30.5304 C30.798,30.5475429 30.7791429,30.5801143 30.7791429,30.5801143 C30.6368571,30.5304 30.6934286,30.7395429 30.5854286,30.7309714 C30.5271429,30.7275429 30.5134286,30.7549714 30.4842857,30.8098286 C30.4431429,30.8886857 30.3282857,30.9246857 30.3214286,31.0378286 C30.2237143,31.0258286 30.1791429,31.0721143 30.1722857,31.1681143 C30.1705714,31.1732571 30.1397143,31.1835429 30.1225714,31.1818286 C30.0574286,31.1801143 30.0437143,31.2178286 30.0471429,31.2726857 C30.0488571,31.3206857 30.0351429,31.3566857 29.9768571,31.3515429 C29.9082857,31.3464 29.8722857,31.3704 29.8757143,31.4458286 C29.8757143,31.4595429 29.8465714,31.4886857 29.8328571,31.4886857 C29.7488571,31.4852571 29.7334286,31.5332571 29.7351429,31.6018286 C29.7351429,31.6206857 29.7145714,31.6549714 29.7025714,31.6549714 C29.6288571,31.6566857 29.5877143,31.6824 29.5945714,31.7612571 C29.4814286,31.7886857 29.4385714,31.8795429 29.3785714,31.9618286 C29.3545714,31.9926857 29.2825714,31.9926857 29.2842857,32.0646857 C29.2842857,32.0801143 29.2568571,32.1058286 29.2414286,32.1058286 C29.154,32.1024 29.1077143,32.1281143 29.118,32.2258286 C29.118,32.2412571 29.094,32.2721143 29.082,32.2721143 C29.0031429,32.2704 28.9757143,32.3098286 28.974,32.3835429 C28.974,32.3938286 28.9431429,32.4109714 28.9225714,32.4161143 C28.8968571,32.4246857 28.842,32.4246857 28.842,32.4264 C28.8454286,32.5498286 28.7151429,32.5721143 28.6722857,32.6595429 C28.6671429,32.6715429 28.6705714,32.6972571 28.6654286,32.6972571 C28.566,32.7178286 28.518,32.7898286 28.4545714,32.8584 C28.4185714,32.8944 28.3534286,32.8995429 28.362,32.9749714 C28.362,32.9835429 28.3585714,33.0024 28.3568571,33.0024 C28.242,33.0092571 28.2094286,33.1275429 28.1271429,33.1721143 C28.0791429,33.1961143 28.05,33.2098286 28.0534286,33.2646857 C28.0568571,33.3126857 28.0448571,33.3486857 27.9848571,33.3452571 C27.9814286,33.3452571 27.9745714,33.3435429 27.9728571,33.3469714 C27.9334286,33.3915429 27.9008571,33.4686857 27.8545714,33.4772571 C27.7722857,33.4909714 27.7345714,33.5098286 27.7431429,33.5972571 C27.7448571,33.6109714 27.7311429,33.6435429 27.7225714,33.6435429 C27.6402857,33.6452571 27.5905714,33.6761143 27.5991429,33.7669714 C27.4825714,33.7789714 27.426,33.8492571 27.4054286,33.9572571 C27.3265714,33.9521143 27.2854286,33.9881143 27.2888571,34.0721143 C27.2888571,34.0806857 27.2614286,34.1012571 27.2494286,34.1012571 C27.1465714,34.0892571 27.1191429,34.1424 27.1225714,34.2315429 C27.1225714,34.2435429 27.1002857,34.2658286 27.09,34.2658286 C27.0111429,34.2624 26.9802857,34.3001143 26.9802857,34.3755429 C26.9802857,34.3875429 26.9477143,34.4081143 26.9305714,34.4081143 C26.862,34.4081143 26.8431429,34.4389714 26.8088571,34.5006857 C26.7677143,34.5709714 26.658,34.6018286 26.6528571,34.7132571 C26.6511429,34.7166857 26.61,34.7166857 26.586,34.7218286 C26.5637143,34.7269714 26.5242857,34.7406857 26.5242857,34.7406857 C26.562,34.8778286 26.3631429,34.8298286 26.37,34.9395429 C26.3751429,35.0046857 26.3494286,35.0355429 26.2825714,35.0304 C26.2345714,35.0269714 26.1985714,35.0389714 26.2002857,35.0989714 C26.202,35.1058286 26.2037143,35.1212571 26.1985714,35.1246857 C26.154,35.1606857 26.082,35.1864 26.0682857,35.2309714 C26.0494286,35.2944 26.0271429,35.3132571 25.974,35.3492571 C25.9037143,35.3972571 25.866,35.4966857 25.7614286,35.5069714 C25.7562857,35.5069714 25.7511429,35.5412571 25.7545714,35.5601143 C25.77,35.6698286 25.6602857,35.6252571 25.6277143,35.6681143 C25.5951429,35.7109714 25.626,35.8104 25.518,35.7881143 C25.5042857,35.7864 25.4768571,35.7915429 25.4768571,35.7932571 C25.4717143,35.9081143 25.362,35.9475429 25.3054286,36.0229714 C25.2968571,36.0315429 25.3002857,36.0606857 25.2985714,36.0606857 C25.1837143,36.0692571 25.1494286,36.1875429 25.0671429,36.2304 C25.0174286,36.2544 24.99,36.2698286 24.9951429,36.3229714 C25.0002857,36.3864 24.9711429,36.4086857 24.9111429,36.4035429 C24.8545714,36.4001143 24.846,36.4378286 24.8202857,36.4789714 C24.7688571,36.5578286 24.6625714,36.5972571 24.6505714,36.7086857 C24.5682857,36.7069714 24.5014286,36.7224 24.5082857,36.8269714 C24.51,36.8355429 24.4791429,36.8475429 24.4654286,36.8526857 C24.4465714,36.8578286 24.4105714,36.8561143 24.4105714,36.8595429 C24.4071429,36.9778286 24.2837143,37.0069714 24.2408571,37.0909714 C24.2202857,37.1321143 24.2134286,37.1681143 24.162,37.1629714 C24.0848571,37.1544 24.0642857,37.1921143 24.066,37.2606857 C24.066,37.2829714 24.0437143,37.3224 24.03,37.3241143 C23.9528571,37.3241143 23.9477143,37.4081143 23.9185714,37.4252571 C23.826,37.4766857 23.742,37.5195429 23.7265714,37.6344 C23.6408571,37.6275429 23.61,37.6738286 23.6134286,37.7509714 C23.502,37.7664 23.4385714,37.8298286 23.4214286,37.9429714 C23.3442857,37.9395429 23.298,37.9686857 23.3048571,38.0544 C23.2037143,38.0749714 23.1574286,38.1658286 23.0871429,38.2206857 C23.0425714,38.2532571 22.9945714,38.2635429 23.0014286,38.3304 C23.0048571,38.3886857 22.9671429,38.3989714 22.9191429,38.3972571 C22.8625714,38.3938286 22.854,38.4264 22.8282857,38.4709714 C22.7802857,38.5515429 22.6671429,38.5875429 22.6585714,38.7006857 C22.5711429,38.6938286 22.5454286,38.7435429 22.5471429,38.8189714 C22.4322857,38.8309714 22.374,38.8995429 22.3551429,39.0092571 C22.2745714,39.0041143 22.2334286,39.0384 22.2368571,39.1224 C22.2368571,39.1326857 22.1991429,39.1549714 22.1837143,39.1532571 C22.0928571,39.1446857 22.0671429,39.1858286 22.0722857,39.2681143 C22.0722857,39.2852571 22.0482857,39.3161143 22.038,39.3161143 C21.9608571,39.3161143 21.9557143,39.3984 21.9248571,39.4172571 C21.8357143,39.4686857 21.7465714,39.5046857 21.7328571,39.6229714 C21.654,39.6161143 21.6094286,39.6435429 21.6145714,39.7326857 C21.6145714,39.7429714 21.5631429,39.7635429 21.5374286,39.7635429 C21.4808571,39.7652571 21.4465714,39.7738286 21.45,39.8406857 C21.4551429,39.9469714 21.3454286,39.8732571 21.3197143,39.9212571 C21.294,39.9641143 21.2837143,40.0584 21.2682857,40.0584 C21.1757143,40.0566857 21.1345714,40.0926857 21.102,40.1784 C21.09,40.2075429 20.9905714,40.2109714 20.9322857,40.2126857 C20.8688571,40.2161143 20.8208571,40.2212571 20.8311429,40.3035429 C20.8397143,40.3704 20.8002857,40.3806857 20.7454286,40.3789714 C20.7025714,40.3789714 20.6614286,40.3824 20.6202857,40.3909714 C20.598,40.3961143 20.562,40.4184 20.562,40.4321143 C20.5671429,40.5264 20.5071429,40.5229714 20.4437143,40.5212571 C20.4025714,40.5212571 20.358,40.5246857 20.3185714,40.5332571 C20.2945714,40.5401143 20.2585714,40.5624 20.2585714,40.5761143 C20.2671429,40.7012571 20.1848571,40.6841143 20.1042857,40.6892571 C20.0288571,40.6944 19.926,40.6704 19.926,40.8041143 C19.926,40.8126857 19.8814286,40.8229714 19.854,40.8246857 C19.7528571,40.8332571 19.6482857,40.8332571 19.5471429,40.8452571 C19.5197143,40.8486857 19.4734286,40.8846857 19.4734286,40.9035429 C19.4734286,40.9909714 19.4237143,40.9995429 19.3551429,40.9961143 C19.2848571,40.9944 19.2145714,40.9978286 19.1442857,41.0012571 C19.0791429,41.0046857 19.0002857,40.9824 18.99,41.0938286 C18.99,41.1075429 18.9231429,41.1281143 18.8871429,41.1281143 C18.366,41.1349714 17.8465714,41.1418286 17.3288571,41.1435429 C17.0528571,41.1435429 16.7768571,41.1349714 16.5008571,41.1264 C16.4682857,41.1246857 16.41,41.0989714 16.4065714,41.0784 C16.3962857,41.0046857 16.3517143,41.0029714 16.2985714,41.0029714 C16.2282857,41.0029714 16.158,40.9995429 16.0877143,40.9978286 C16.0105714,40.9961143 15.9214286,41.0166857 15.9282857,40.8881143 C15.9282857,40.8744 15.882,40.8469714 15.8545714,40.8435429 C15.7705714,40.8332571 15.6882857,40.8315429 15.6025714,40.8264 C15.5374286,40.8229714 15.4585714,40.8486857 15.4551429,40.7355429 C15.4551429,40.7201143 15.3814286,40.7046857 15.3385714,40.6944 C15.2665714,40.6772571 15.1551429,40.7201143 15.1722857,40.5744 C15.174,40.5624 15.1345714,40.5366857 15.1122857,40.5332571 C15.0574286,40.5246857 15.0008571,40.5264 14.946,40.5195429 C14.9237143,40.5178286 14.8842857,40.5075429 14.8842857,40.5006857 C14.886,40.3326857 14.7505714,40.3961143 14.6717143,40.3824 C14.61,40.3704 14.5602857,40.3686857 14.5705714,40.2881143 C14.5791429,40.2212571 14.538,40.2144 14.4831429,40.2144 C14.4385714,40.2144 14.3905714,40.2092571 14.346,40.1955429 C14.3202857,40.1886857 14.2808571,40.1629714 14.2808571,40.1424 C14.2722857,40.0292571 14.1728571,40.0961143 14.1351429,40.0618286 C14.0974286,40.0258286 14.0905714,39.9195429 14.0597143,39.9144 C13.9791429,39.9006857 13.9414286,39.8835429 13.9448571,39.7978286 C13.9448571,39.7875429 13.8934286,39.7669714 13.8642857,39.7669714 C13.8077143,39.7669714 13.7785714,39.7515429 13.7768571,39.6881143 C13.7768571,39.6692571 13.746,39.6452571 13.7237143,39.6298286 C13.7082857,39.6195429 13.6705714,39.6246857 13.6705714,39.6229714 C13.6705714,39.5029714 13.5402857,39.4789714 13.5025714,39.3949714 C13.4785714,39.3418286 13.4631429,39.3178286 13.4082857,39.3229714 C13.3482857,39.3281143 13.3225714,39.3006857 13.3277143,39.2406857 C13.3328571,39.1841143 13.3157143,39.1515429 13.2522857,39.1532571 C13.2317143,39.1532571 13.194,39.1344 13.194,39.1258286 C13.1991429,39.0315429 13.1511429,39.0024 13.0654286,39.0126857 C13.062,39.0126857 13.0517143,39.0109714 13.0517143,39.0092571 C13.0465714,38.8926857 12.93,38.8618286 12.8854286,38.7795429 C12.858,38.7349714 12.8494286,38.7006857 12.7928571,38.7058286 C12.774,38.7058286 12.7414286,38.7024 12.7414286,38.6989714 C12.7277143,38.5909714 12.63,38.5498286 12.5768571,38.4778286 C12.546,38.4366857 12.5442857,38.3886857 12.4774286,38.3955429 C12.414,38.4024 12.402,38.3664 12.4002857,38.3115429 C12.3985714,38.2841143 12.3762857,38.2361143 12.3625714,38.2361143 C12.2871429,38.2344 12.2528571,38.2035429 12.2562857,38.1264 C12.258,38.1161143 12.2425714,38.0972571 12.234,38.0972571 C12.1482857,38.0972571 12.0762857,38.0818286 12.0831429,37.9704 C12.0831429,37.9635429 12.0522857,37.9549714 12.0351429,37.9498286 C12.018,37.9446857 11.982,37.9464 11.982,37.9412571 C11.9717143,37.8332571 11.874,37.7938286 11.8208571,37.7201143 C11.79,37.6789714 11.7865714,37.6326857 11.7214286,37.6395429 C11.658,37.6464 11.6442857,37.6086857 11.6408571,37.5538286 C11.6391429,37.5281143 11.6185714,37.4784 11.6065714,37.4784 C11.5311429,37.4749714 11.4934286,37.4458286 11.4985714,37.3686857 C11.3871429,37.3446857 11.3425714,37.2538286 11.2825714,37.1698286 C11.262,37.1406857 11.19,37.1424 11.19,37.0686857 C11.1882857,37.0515429 11.1334286,37.0378286 11.1077143,37.0224 C11.0785714,37.0052571 11.0305714,36.9846857 11.0322857,36.9658286 C11.034,36.8852571 11.0082857,36.8424 10.9208571,36.8475429 C10.9105714,36.8475429 10.89,36.8218286 10.89,36.8098286 C10.8951429,36.7275429 10.8505714,36.7035429 10.7768571,36.7121143 C10.7682857,36.7121143 10.7528571,36.7086857 10.7511429,36.7069714 C10.746,36.5921143 10.626,36.5595429 10.5831429,36.4772571 C10.5574286,36.4309714 10.5471429,36.4001143 10.4905714,36.4035429 C10.4734286,36.4035429 10.4391429,36.4018286 10.4374286,36.3966857 C10.4202857,36.2989714 10.3465714,36.2492571 10.278,36.1858286 C10.2437143,36.1532571 10.2351429,36.0898286 10.1631429,36.0898286 C10.1528571,36.0915429 10.134,36.0744 10.134,36.0658286 C10.1408571,35.9698286 10.0894286,35.9441143 10.0054286,35.9526857 C10.002,35.9544 9.99342857,35.9509714 9.99342857,35.9509714 C9.98657143,35.8344 9.88371429,35.7949714 9.82028571,35.7229714 C9.81514286,35.7178286 9.822,35.6989714 9.81685714,35.6972571 C9.76371429,35.6715429 9.70028571,35.6578286 9.66085714,35.6184 C9.62142857,35.5841143 9.69,35.4761143 9.57514286,35.4761143 C9.55628571,35.4761143 9.51857143,35.4589714 9.51857143,35.4521143 C9.52542857,35.3441143 9.45857143,35.3304 9.378,35.3321143 C9.37285714,35.3321143 9.36428571,35.3286857 9.36428571,35.3286857 C9.40028571,35.1864 9.21171429,35.1932571 9.19628571,35.0818286 C9.19457143,35.0612571 9.15685714,35.0406857 9.13114286,35.0304 C9.11228571,35.0218286 9.06428571,35.0252571 9.06428571,35.0235429 C9.066,34.9018286 8.93228571,34.8795429 8.898,34.7921143 C8.87571429,34.7355429 8.85514286,34.7218286 8.80371429,34.7184 C8.77628571,34.7166857 8.73171429,34.6926857 8.73171429,34.6772571 C8.72657143,34.6018286 8.71971429,34.5349714 8.61857143,34.5452571 C8.60828571,34.5452571 8.586,34.5195429 8.58771429,34.5075429 C8.59285714,34.4201143 8.54485714,34.4046857 8.47457143,34.4081143 C8.45914286,34.4098286 8.42657143,34.3909714 8.42657143,34.3892571 C8.47457143,34.2486857 8.25857143,34.3069714 8.27571429,34.1921143 C8.29285714,34.0824 8.18828571,34.1235429 8.15228571,34.0858286 C8.11628571,34.0446857 8.15057143,33.9435429 8.04428571,33.9606857 C8.02542857,33.9641143 8.00657143,33.9572571 7.98771429,33.9538286 C8.02371429,33.8115429 7.83342857,33.8184 7.82314286,33.7052571 C7.82142857,33.6864 7.79057143,33.6658286 7.76828571,33.6572571 C7.74428571,33.6469714 7.68942857,33.6538286 7.68942857,33.6469714 C7.67571429,33.5389714 7.57628571,33.4995429 7.52485714,33.4258286 C7.494,33.3829714 7.48885714,33.3384 7.42542857,33.3435429 C7.40657143,33.3452571 7.38942857,33.3384 7.37057143,33.3349714 C7.40485714,33.1926857 7.21457143,33.2012571 7.20428571,33.0881143 C7.20257143,33.0692571 7.17342857,33.0469714 7.15114286,33.0384 C7.12542857,33.0298286 7.07228571,33.0349714 7.07057143,33.0298286 C7.05685714,32.9218286 6.95914286,32.8824 6.906,32.8086857 C6.87685714,32.7641143 6.87,32.7229714 6.80657143,32.7264 C6.786,32.7281143 6.76371429,32.7144 6.74314286,32.7092571 C6.78257143,32.5721143 6.58542857,32.6184 6.59228571,32.5104 C6.59571429,32.4469714 6.55285714,32.4418286 6.51,32.4109714 C6.43628571,32.3595429 6.39685714,32.2601143 6.28885714,32.2464 C6.28371429,32.2464 6.29057143,32.2001143 6.28028571,32.1812571 C6.26314286,32.1555429 6.24257143,32.1264 6.21685714,32.1109714 C6.12942857,32.0612571 6.10028571,31.9378286 5.97685714,31.9344 C5.97857143,31.8538286 5.96657143,31.7852571 5.85857143,31.7938286 C5.85171429,31.7938286 5.83285714,31.7646857 5.83457143,31.7492571 C5.83971429,31.6704 5.79342857,31.6618286 5.73,31.6584 C5.706,31.6566857 5.67,31.6241143 5.66828571,31.6035429 C5.66657143,31.5349714 5.63571429,31.5178286 5.57571429,31.4818286 C5.50371429,31.4406857 5.47285714,31.3309714 5.36314286,31.3258286 C5.35971429,31.3258286 5.35971429,31.2829714 5.35457143,31.2589714 C5.34942857,31.2384 5.33571429,31.1972571 5.33571429,31.1972571 C5.19685714,31.2384 5.25,31.0344 5.13857143,31.0429714 C5.07171429,31.0481143 5.046,31.0241143 5.04771429,30.9555429 C5.04771429,30.9298286 5.02542857,30.8818286 5.01171429,30.8801143 C4.93628571,30.8801143 4.902,30.8492571 4.90542857,30.7721143 C4.90542857,30.7601143 4.88485714,30.7361143 4.87457143,30.7361143 C4.79914286,30.7395429 4.76142857,30.7104 4.76657143,30.6315429 C4.76657143,30.6178286 4.73742857,30.5921143 4.722,30.5938286 C4.63457143,30.6006857 4.59,30.5715429 4.602,30.4755429 C4.60542857,30.4601143 4.59,30.4292571 4.58314286,30.4292571 C4.48714286,30.4344 4.458,30.3812571 4.458,30.2955429 C4.458,30.2904 4.44257143,30.2801143 4.43571429,30.2818286 C4.32942857,30.2938286 4.28142857,30.2492571 4.29514286,30.1412571 C4.29514286,30.1309714 4.27114286,30.1172571 4.25914286,30.1069714 C4.25228571,30.1035429 4.24028571,30.1035429 4.23171429,30.1052571 C4.11,30.1275429 4.20942857,29.9561143 4.11171429,29.9629714 C4.01914286,29.9715429 3.98142857,29.9372571 3.99342857,29.8464 C3.99514286,29.8309714 3.98314286,29.8001143 3.97628571,29.7984 C3.81342857,29.7898286 3.858,29.6612571 3.846,29.5686857 C3.83914286,29.5189714 3.82714286,29.4949714 3.77228571,29.4932571 C3.74142857,29.4915429 3.68828571,29.4675429 3.68828571,29.4538286 C3.68485714,29.3818286 3.66771429,29.3406857 3.58371429,29.3424 C3.57,29.3424 3.54771429,29.2875429 3.546,29.2566857 C3.54428571,29.2001143 3.52885714,29.1675429 3.46714286,29.1744 C3.39685714,29.1829714 3.38657143,29.1486857 3.37628571,29.0869714 C3.36257143,29.0149714 3.40885714,28.8898286 3.25971429,28.8966857 C3.25114286,28.8984 3.234,28.8435429 3.234,28.8161143 C3.23228571,28.7595429 3.22371429,28.7218286 3.15685714,28.7304 C3.07628571,28.7424 3.06428571,28.6944 3.066,28.6292571 C3.06771429,28.5932571 3.05228571,28.5555429 3.054,28.5195429 C3.05571429,28.4612571 3.018,28.4561143 2.97857143,28.4269714 C2.90828571,28.3772571 2.88257143,28.2744 2.79,28.2349714 C2.77457143,28.2281143 2.78828571,28.1646857 2.78314286,28.1269714 C2.77457143,28.0498286 2.78485714,27.9589714 2.65971429,27.9761143 C2.64771429,27.9778286 2.61857143,27.9229714 2.61857143,27.8938286 C2.61514286,27.8355429 2.60828571,27.7961143 2.53457143,27.7978286 C2.51742857,27.7978286 2.48828571,27.7584 2.48314286,27.7361143 C2.47285714,27.6846857 2.47114286,27.6332571 2.47285714,27.5818286 C2.47457143,27.5235429 2.45228571,27.4926857 2.39228571,27.4995429 C2.32028571,27.5081143 2.30485714,27.4686857 2.30828571,27.4069714 C2.31,27.3658286 2.30485714,27.3229714 2.29457143,27.2835429 C2.28942857,27.2612571 2.26371429,27.2286857 2.25171429,27.2286857 C2.166,27.2321143 2.16771429,27.1789714 2.16428571,27.1189714 C2.16257143,27.0915429 2.13171429,27.0401143 2.118,27.0401143 C1.98942857,27.0452571 2.01171429,26.9475429 1.998,26.8755429 C1.98771429,26.8086857 2.022,26.7212571 1.90028571,26.7161143 C1.88314286,26.7161143 1.86257143,26.6201143 1.85914286,26.5686857 C1.85228571,26.4915429 1.87285714,26.4024 1.746,26.4144 C1.73228571,26.4161143 1.70485714,26.3698286 1.70142857,26.3424 C1.69114286,26.2875429 1.69457143,26.2309714 1.68771429,26.1744 C1.68257143,26.1538286 1.66028571,26.1161143 1.64657143,26.1161143 C1.554,26.1144 1.55914286,26.0492571 1.554,25.9892571 C1.55057143,25.9292571 1.54714286,25.8692571 1.54542857,25.8092571 C1.542,25.7355429 1.542,25.6652571 1.434,25.6755429 C1.41857143,25.6772571 1.38942857,25.6378286 1.38428571,25.6121143 C1.37571429,25.5538286 1.38257143,25.4921143 1.37228571,25.4321143 C1.36885714,25.4081143 1.33971429,25.3704 1.32428571,25.3686857 C1.24885714,25.3686857 1.24371429,25.3258286 1.24371429,25.2675429 C1.242,25.1886857 1.23342857,25.1098286 1.23,25.0309714 C1.22657143,24.9761143 1.22314286,24.9298286 1.14942857,24.9229714 C1.13057143,24.9212571 1.10828571,24.8818286 1.10314286,24.8561143 C1.09457143,24.8012571 1.09457143,24.7446857 1.09628571,24.6881143 C1.098,24.6315429 1.08257143,24.5972571 1.01914286,24.6024 C0.947142857,24.6075429 0.936857143,24.5664 0.936857143,24.5064 C0.936857143,24.4224 0.928285714,24.3384 0.926571429,24.2544 C0.924857143,24.1892571 0.938571429,24.1189714 0.835714286,24.1172571 C0.823714286,24.1172571 0.803142857,24.0709714 0.799714286,24.0418286 C0.791142857,23.9509714 0.787714286,23.8566857 0.787714286,23.7624 C0.786,23.7092571 0.775714286,23.6698286 0.712285714,23.6732571 C0.638571429,23.6784 0.631714286,23.6338286 0.63,23.5755429 C0.626571429,23.4349714 0.619714286,23.2961143 0.612857143,23.1555429 C0.611142857,23.1264 0.594,23.0749714 0.582,23.0749714 C0.460285714,23.0715429 0.489428571,22.9789714 0.484285714,22.9121143 C0.477428571,22.7869714 0.475714286,22.6601143 0.475714286,22.5332571 C0.475714286,22.4784 0.462,22.4424 0.398571429,22.4441143 C0.323142857,22.4475429 0.323142857,22.3978286 0.321428571,22.3429714 C0.318,22.1595429 0.309428571,21.9778286 0.306,21.7961143 C0.304285714,21.7429714 0.309428571,21.6949714 0.235714286,21.6795429 C0.211714286,21.6744 0.186,21.6195429 0.186,21.5869714 C0.175714286,21.3298286 0.174,21.0726857 0.165428571,20.8155429 C0.162,20.7315429 0.198,20.6184 0.0471428571,20.6098286 C0.0351428571,20.6081143 0.0162857143,20.5395429 0.0162857143,20.5018286 C0.00942857143,19.9601143 0.00428571429,19.4184 0.000857142857,18.8749714 C-0.000857142857,18.7721143 -0.000857142857,18.6692571 -0.000857142857,18.5664 L0.0111428571,18.5664 Z" id="Fill-1" fill="#BD312A" mask="url(#mask-2)"></path>
            </g>
            <path d="M31.5396,19.4734286 L31.5413143,19.4734286 C31.5413143,19.3054286 31.5430286,19.1374286 31.5413143,18.9694286 C31.5413143,18.9385714 31.5361714,18.8837143 31.5207429,18.8785714 C31.3904571,18.8408571 31.4264571,18.7345714 31.4247429,18.6488571 C31.4178857,18.2511429 31.4144571,17.8534286 31.4041714,17.4557143 C31.4041714,17.4162857 31.3818857,17.3528571 31.3561714,17.3442857 C31.2893143,17.3237143 31.2876,17.2825714 31.2858857,17.2277143 C31.2790286,16.9945714 31.2704571,16.7597143 31.2653143,16.5265714 C31.2636,16.4734286 31.2653143,16.4185714 31.1881714,16.4237143 C31.1127429,16.4271429 31.1110286,16.3791429 31.1093143,16.3225714 C31.1076,16.1785714 31.1024571,16.0328571 31.0938857,15.8888571 C31.0921714,15.8614286 31.0716,15.8134286 31.0578857,15.8117143 C30.9550286,15.8065714 30.9721714,15.7362857 30.9704571,15.6711429 C30.9687429,15.5871429 30.9670286,15.5031429 30.9601714,15.4191429 C30.9567429,15.3934286 30.9327429,15.3471429 30.9190286,15.3488571 C30.8041714,15.3557143 30.8058857,15.2802857 30.8041714,15.2014286 C30.8024571,15.1174286 30.7990286,15.0334286 30.7904571,14.9494286 C30.7887429,14.9237143 30.7664571,14.8757143 30.7527429,14.8757143 C30.6481714,14.8774286 30.6653143,14.8002857 30.6601714,14.7385714 C30.6550286,14.6597143 30.6584571,14.5808571 30.6481714,14.502 C30.6447429,14.4745714 30.6121714,14.4282857 30.5933143,14.4282857 C30.4990286,14.4334286 30.4921714,14.3785714 30.4921714,14.3048571 C30.4938857,14.2294286 30.4801714,14.1557143 30.4767429,14.0802857 C30.4750286,14.0185714 30.4784571,13.9568571 30.3876,13.9551429 C30.3721714,13.9534286 30.3533143,13.9174286 30.3498857,13.8951429 C30.3413143,13.8437143 30.3447429,13.7922857 30.3361714,13.7408571 C30.3327429,13.7185714 30.3087429,13.6808571 30.2967429,13.6808571 C30.1578857,13.698 30.1836,13.602 30.1767429,13.5197143 C30.1716,13.4494286 30.2024571,13.3465714 30.0704571,13.3551429 C30.0618857,13.3551429 30.0447429,13.3208571 30.0430286,13.3002857 C30.0361714,13.2454286 30.0327429,13.1888571 30.0344571,13.1322857 C30.0378857,13.0722857 30.0138857,13.0448571 29.9538857,13.0517143 C29.8801714,13.0585714 29.8698857,13.0157143 29.8716,12.9557143 C29.8733143,12.9094286 29.8681714,12.8631429 29.8613143,12.8168571 C29.8578857,12.7945714 29.8390286,12.7534286 29.8270286,12.7534286 C29.7310286,12.7585714 29.7241714,12.702 29.7276,12.6282857 C29.7293143,12.6094286 29.7156,12.5717143 29.7053143,12.5717143 C29.5544571,12.5614286 29.5990286,12.4414286 29.5904571,12.3608571 C29.5836,12.2957143 29.5767429,12.2511429 29.4978857,12.2597143 C29.4430286,12.2665714 29.4241714,12.2408571 29.4258857,12.1877143 C29.4258857,12.1465714 29.4258857,12.102 29.4138857,12.0625714 C29.4053143,12.0351429 29.3761714,11.9922857 29.3573143,11.9922857 C29.2784571,11.9905714 29.2784571,11.9425714 29.2818857,11.8894286 C29.2870286,11.8311429 29.2664571,11.7985714 29.2047429,11.8054286 C29.1447429,11.8105714 29.1207429,11.7814286 29.1207429,11.7231429 C29.1207429,11.682 29.1036,11.6391429 29.1087429,11.598 C29.1173143,11.514 29.0590286,11.526 29.0076,11.502 C28.9698857,11.4831429 28.9561714,11.4128571 28.9304571,11.3665714 C28.9287429,11.3648571 28.9218857,11.3648571 28.9167429,11.3648571 C28.8156,11.3802857 28.8070286,11.3254286 28.8018857,11.2431429 C28.7984571,11.1865714 28.7761714,11.0974286 28.7350286,11.0802857 C28.6767429,11.0545714 28.6527429,11.034 28.6578857,10.974 C28.6647429,10.9174286 28.6458857,10.8831429 28.5807429,10.8917143 C28.5138857,10.9002857 28.4916,10.8694286 28.4916,10.8042857 C28.4916,10.7854286 28.4556,10.7477143 28.4350286,10.7494286 C28.3596,10.7511429 28.3544571,10.7048571 28.3596,10.65 C28.3613143,10.5968571 28.3424571,10.5677143 28.2876,10.5745714 C28.2156,10.5814286 28.1847429,10.5522857 28.1898857,10.4785714 C28.1916,10.4648571 28.1727429,10.4374286 28.1641714,10.4374286 C28.0150286,10.446 28.0716,10.3174286 28.0390286,10.2505714 C28.0218857,10.2111429 28.0493143,10.146 27.9773143,10.1442857 C27.9173143,10.1442857 27.8950286,10.1168571 27.8950286,10.0585714 C27.8967429,10.0414286 27.8761714,10.0037143 27.8676,10.0054286 C27.7596,10.014 27.7150286,9.96771429 27.7270286,9.85971429 C27.7287429,9.85285714 27.7184571,9.83742857 27.7150286,9.83742857 C27.6310286,9.834 27.5761714,9.80142857 27.5847429,9.70542857 C27.5864571,9.70028571 27.5556,9.68485714 27.5401714,9.68657143 C27.4458857,9.69857143 27.4304571,9.654 27.4201714,9.56828571 C27.4098857,9.49285714 27.2418857,9.522 27.2676,9.39342857 C27.2676,9.39171429 27.2264571,9.38142857 27.2041714,9.378 C27.1818857,9.37457143 27.1390286,9.37457143 27.1390286,9.37114286 C27.1304571,9.26142857 27.0190286,9.23228571 26.9813143,9.16542857 C26.9384571,9.09342857 26.9076,9.08142857 26.8407429,9.07285714 C26.7876,9.066 26.6950286,9.04371429 26.6933143,9.02485714 C26.6881714,8.91857143 26.6470286,8.87228571 26.5407429,8.886 C26.5338857,8.886 26.5184571,8.87742857 26.5184571,8.87228571 C26.5167429,8.78657143 26.4807429,8.73685714 26.3864571,8.74542857 C26.3796,8.74542857 26.3624571,8.71285714 26.3658857,8.69914286 C26.3796,8.59971429 26.3264571,8.59285714 26.2458857,8.58085714 C26.2013143,8.574 26.1687429,8.49685714 26.1310286,8.45228571 C26.1276,8.45057143 26.1207429,8.45228571 26.1156,8.45057143 C26.0350286,8.43 25.9150286,8.47457143 25.9116,8.32371429 C25.9116,8.31685714 25.8721714,8.30314286 25.8516,8.30485714 C25.7796,8.31171429 25.7436,8.29457143 25.7418857,8.20714286 C25.7401714,8.10771429 25.5516,8.14885714 25.5773143,8.01342857 C25.5601714,8.01 25.5413143,8.00657143 25.5224571,8.00485714 C25.4676,7.998 25.4127429,7.998 25.3578857,7.986 C25.3373143,7.98257143 25.3047429,7.95342857 25.3064571,7.938 C25.3201714,7.82314286 25.2464571,7.82657143 25.1658857,7.82657143 C25.0836,7.82657143 25.1573143,7.65857143 25.0338857,7.69457143 C25.0201714,7.698 25.0047429,7.69285714 24.9927429,7.69114286 C24.9601714,7.68942857 24.9276,7.686 24.8950286,7.686 C24.8436,7.68771429 24.8110286,7.67228571 24.8178857,7.61571429 C24.8316,7.52485714 24.7750286,7.52314286 24.7081714,7.51971429 C24.6481714,7.518 24.5470286,7.51628571 24.5384571,7.49228571 C24.5127429,7.41 24.4818857,7.36542857 24.3910286,7.374 C24.3824571,7.37571429 24.3618857,7.34657143 24.3618857,7.33285714 C24.3824571,7.19228571 24.2744571,7.22314286 24.2007429,7.21114286 C24.1321714,7.20085714 24.0413143,7.23514286 24.0481714,7.11 C24.0481714,7.09971429 24.0036,7.08257143 23.9813143,7.07914286 C23.9264571,7.07228571 23.8681714,7.07914286 23.8133143,7.06714286 C23.7876,7.062 23.7464571,7.02771429 23.7464571,7.00714286 C23.7516,6.91971429 23.7018857,6.918 23.6350286,6.906 C23.5527429,6.894 23.4258857,6.95571429 23.4121714,6.79628571 C23.4121714,6.78771429 23.3710286,6.77742857 23.3504571,6.77571429 C23.2853143,6.76885714 23.2184571,6.77057143 23.1533143,6.76028571 C23.0881714,6.75 22.9938857,6.77571429 22.9956,6.654 C22.9956,6.64542857 22.9527429,6.62828571 22.9304571,6.62485714 C22.8773143,6.618 22.8258857,6.61628571 22.7761714,6.61971429 C22.7161714,6.62142857 22.6733143,6.60942857 22.6801714,6.53742857 C22.6853143,6.47057143 22.6458857,6.462 22.5910286,6.46028571 C22.4984571,6.46028571 22.4041714,6.45514286 22.3116,6.44657143 C22.2858857,6.44485714 22.2396,6.42085714 22.2396,6.40542857 C22.2396,6.31114286 22.1778857,6.31971429 22.1161714,6.31971429 C22.0321714,6.318 21.9481714,6.30771429 21.8624571,6.30771429 C21.7990286,6.30771429 21.7527429,6.29914286 21.7596,6.21857143 C21.7647429,6.162 21.7287429,6.15171429 21.6807429,6.15 C21.5504571,6.14657143 21.4201714,6.13971429 21.2898857,6.13457143 C21.2247429,6.13114286 21.1527429,6.14485714 21.1424571,6.04542857 C21.1407429,6.03 21.0824571,6.01285714 21.0516,6.01114286 C20.9161714,6.00257143 20.7807429,6.00257143 20.6470286,5.99057143 C20.6161714,5.98885714 20.5664571,5.94942857 20.5647429,5.92542857 C20.5596,5.84314286 20.5116,5.84142857 20.4516,5.84142857 C20.2544571,5.838 20.0590286,5.83457143 19.8618857,5.82771429 C19.8293143,5.82771429 19.7710286,5.81057143 19.7693143,5.79514286 C19.7538857,5.68885714 19.6716,5.70942857 19.6081714,5.706 C19.5276,5.69914286 19.4487429,5.69914286 19.3681714,5.69914286 C18.9378857,5.694 18.5076,5.69228571 18.0773143,5.68371429 C18.0327429,5.68371429 17.9521714,5.66142857 17.9504571,5.63914286 C17.9333143,5.52771429 17.8578857,5.54142857 17.7841714,5.54142857 C17.7087429,5.54142857 17.6333143,5.53457143 17.5596,5.54485714 C17.5253143,5.54828571 17.4756,5.57914286 17.4704571,5.60657143 C17.4550286,5.68371429 17.4070286,5.68542857 17.3470286,5.68542857 C17.1584571,5.68714286 16.9733143,5.68885714 16.7864571,5.69228571 C16.4436,5.69742857 16.1024571,5.70085714 15.7613143,5.70942857 C15.7218857,5.71114286 15.6584571,5.73514286 15.6516,5.76257143 C15.6327429,5.83285714 15.5864571,5.82942857 15.5350286,5.83114286 C15.3481714,5.83285714 15.1596,5.838 14.9744571,5.84142857 C14.9196,5.84142857 14.8681714,5.84142857 14.8698857,5.91685714 C14.8733143,5.98028571 14.8338857,5.994 14.7807429,5.994 C14.6453143,5.99742857 14.5081714,6.00428571 14.3727429,6.00942857 C14.3127429,6.00942857 14.2510286,6.00085714 14.2407429,6.09 C14.2390286,6.10885714 14.1824571,6.12771429 14.1498857,6.13114286 C14.0093143,6.14142857 13.8687429,6.14142857 13.7298857,6.15171429 C13.7007429,6.15342857 13.6458857,6.18257143 13.6476,6.19628571 C13.6561714,6.30942857 13.5841714,6.31114286 13.5036,6.31114286 C13.4350286,6.31114286 13.3647429,6.31971429 13.2944571,6.318 C13.2378857,6.318 13.1967429,6.32314286 13.1916,6.39685714 C13.1898857,6.41571429 13.1418857,6.44314286 13.1127429,6.44657143 C13.0098857,6.45685714 12.9087429,6.45342857 12.8058857,6.46371429 C12.7784571,6.46714286 12.7270286,6.498 12.7270286,6.51342857 C12.7356,6.62142857 12.6687429,6.62142857 12.5933143,6.61971429 C12.5521714,6.618 12.5093143,6.618 12.4681714,6.62485714 C12.4441714,6.63 12.4064571,6.64885714 12.4064571,6.66085714 C12.4081714,6.762 12.3327429,6.75171429 12.2710286,6.75857143 C12.2058857,6.76371429 12.1407429,6.76885714 12.0756,6.77228571 C12.0190286,6.77571429 11.9744571,6.78085714 11.9676,6.85285714 C11.9658857,6.87171429 11.9281714,6.89571429 11.9024571,6.90085714 C11.8476,6.90942857 11.7910286,6.91114286 11.7344571,6.91114286 C11.6830286,6.91114286 11.6538857,6.93 11.6590286,6.98485714 C11.6658857,7.05171429 11.6367429,7.07571429 11.5698857,7.07228571 C11.5184571,7.06885714 11.4670286,7.074 11.4156,7.07914286 C11.3950286,7.08085714 11.3573143,7.09457143 11.3573143,7.10142857 C11.3624571,7.23857143 11.2561714,7.21114286 11.1841714,7.21628571 C11.0984571,7.22142857 11.0247429,7.218 11.0333143,7.33971429 C11.0333143,7.35514286 10.9338857,7.36542857 10.8996,7.398 C10.8636,7.43057143 10.9013143,7.52485714 10.8001714,7.51285714 C10.7504571,7.50771429 10.6973143,7.51457143 10.6476,7.52657143 C10.6253143,7.53171429 10.5858857,7.56257143 10.5876,7.57971429 C10.5996,7.68428571 10.5344571,7.70485714 10.4607429,7.68428571 C10.2944571,7.63285714 10.2824571,7.86771429 10.1367429,7.84714286 C10.1367429,7.84714286 10.1298857,7.866 10.1298857,7.87285714 C10.1470286,7.97914286 10.0836,7.98771429 9.9996,7.99457143 C9.93102857,7.99971429 9.81445714,7.96885714 9.82302857,8.11114286 C9.82474286,8.118 9.7596,8.12485714 9.72874286,8.14028571 C9.70302857,8.154 9.66017143,8.17971429 9.66188571,8.19857143 C9.66188571,8.274 9.64302857,8.31514286 9.55902857,8.30485714 C9.54531429,8.30485714 9.51445714,8.322 9.51445714,8.32885714 C9.51788571,8.478 9.39274286,8.41971429 9.32245714,8.44885714 C9.28988571,8.46257143 9.22302857,8.46771429 9.22302857,8.47457143 C9.22645714,8.57914286 9.16817143,8.59628571 9.08245714,8.59285714 C9.06874286,8.59285714 9.04302857,8.646 9.04131429,8.67514286 C9.03617143,8.72485714 9.01902857,8.73857143 8.97102857,8.75571429 C8.87845714,8.78828571 8.85445714,8.92714286 8.7276,8.92028571 C8.72588571,8.92028571 8.72074286,8.946 8.72245714,8.96142857 C8.73102857,9.03685714 8.68988571,9.04542857 8.62645714,9.06085714 C8.55102857,9.07971429 8.42074286,9.03857143 8.42588571,9.18942857 C8.42588571,9.19628571 8.39331429,9.21171429 8.37788571,9.21 C8.2956,9.20142857 8.29388571,9.25285714 8.28874286,9.31457143 C8.27845714,9.40542857 8.10188571,9.36942857 8.13274286,9.50314286 C8.13274286,9.50314286 8.09845714,9.51685714 8.0796,9.51514286 C8.00417143,9.50657143 7.9716,9.53228571 7.97502857,9.61628571 C7.98017143,9.71571429 7.78131429,9.66771429 7.82931429,9.80657143 C7.80702857,9.81342857 7.78645714,9.82714286 7.76417143,9.82542857 C7.69045714,9.81857143 7.66131429,9.84942857 7.66988571,9.92142857 C7.6836,10.0328571 7.47274286,9.97971429 7.52245714,10.1185714 C7.52245714,10.1202857 7.4916,10.1408571 7.47617143,10.1391429 C7.38531429,10.1288571 7.37331429,10.182 7.36131429,10.2557143 C7.34588571,10.3294286 7.37674286,10.4494286 7.23102857,10.4374286 C7.22588571,10.4374286 7.21217143,10.47 7.21217143,10.4854286 C7.21731429,10.5505714 7.19331429,10.5814286 7.12474286,10.5745714 C7.06474286,10.566 7.04074286,10.5951429 7.04245714,10.6551429 C7.04417143,10.6842857 7.0236,10.7374286 7.01674286,10.7374286 C6.91902857,10.7288571 6.89845714,10.7854286 6.9036,10.866 C6.7716,10.866 6.7356,10.9602857 6.71331429,11.0648571 C6.58988571,11.0631429 6.61045714,11.1642857 6.59845714,11.2345714 C6.58817143,11.3031429 6.60702857,11.3802857 6.4956,11.3682857 C6.48531429,11.3682857 6.46131429,11.4094286 6.46131429,11.4317143 C6.46302857,11.4951429 6.4356,11.5174286 6.37731429,11.5105714 C6.30531429,11.502 6.2916,11.5431429 6.29331429,11.6031429 C6.29502857,11.6408571 6.2916,11.6802857 6.2796,11.7145714 C6.2676,11.7471429 6.2436,11.7968571 6.2196,11.8002857 C6.15445714,11.8071429 6.14588571,11.8397143 6.1476,11.8928571 C6.1476,11.9322857 6.16131429,11.9922857 6.09617143,11.9837143 C5.9796,11.9717143 5.98645714,12.0471429 5.98131429,12.1225714 C5.97788571,12.1671429 5.96074286,12.2494286 5.9556,12.2494286 C5.79617143,12.2391429 5.85102857,12.3642857 5.83902857,12.4362857 C5.82702857,12.51 5.82017143,12.5751429 5.71731429,12.5665714 C5.70531429,12.5648571 5.67445714,12.6008571 5.67445714,12.6197143 C5.67445714,12.6951429 5.67617143,12.762 5.56988571,12.7551429 C5.56131429,12.7534286 5.54417143,12.7894286 5.54074286,12.8082857 C5.53388571,12.8494286 5.52874286,12.8922857 5.53045714,12.9351429 C5.53388571,13.0088571 5.52531429,13.062 5.42931429,13.0551429 C5.41045714,13.0534286 5.3796,13.098 5.37102857,13.1254286 C5.36074286,13.1597143 5.36245714,13.1991429 5.36074286,13.2368571 C5.36074286,13.3002857 5.37617143,13.3722857 5.2716,13.3671429 C5.2596,13.3671429 5.2356,13.4048571 5.23217143,13.4271429 C5.2236,13.4768571 5.22017143,13.53 5.22188571,13.5814286 C5.22531429,13.6414286 5.21502857,13.6842857 5.14131429,13.6757143 C5.07617143,13.6688571 5.06245714,13.7048571 5.06417143,13.7597143 C5.06417143,13.8077143 5.06074286,13.854 5.05388571,13.9002857 C5.05045714,13.9191429 5.03331429,13.9534286 5.02302857,13.9534286 C4.91331429,13.9517143 4.93045714,14.034 4.92531429,14.1008571 C4.91845714,14.1797143 4.91674286,14.2585714 4.90817143,14.3374286 C4.90474286,14.3665714 4.88417143,14.4145714 4.87217143,14.4145714 C4.75731429,14.4128571 4.78302857,14.4968571 4.77788571,14.562 C4.77274286,14.6322857 4.7676,14.7025714 4.7676,14.7711429 C4.7676,14.8311429 4.76074286,14.8757143 4.68702857,14.8688571 C4.6236,14.8637143 4.60988571,14.8997143 4.60988571,14.9562857 C4.60817143,15.054 4.60302857,15.1517143 4.59274286,15.2494286 C4.59102857,15.2785714 4.5756,15.33 4.56188571,15.33 C4.44017143,15.3351429 4.47274286,15.426 4.4676,15.4945714 C4.46245714,15.5682857 4.46074286,15.6437143 4.46074286,15.7174286 C4.45902857,15.7637143 4.45388571,15.8048571 4.3956,15.8014286 C4.31674286,15.798 4.30474286,15.8425714 4.30474286,15.9077143 C4.30302857,16.0482857 4.2996,16.1871429 4.28931429,16.3277143 C4.2876,16.3602857 4.26017143,16.4134286 4.23617143,16.4185714 C4.17445714,16.4305714 4.1676,16.4648571 4.16588571,16.5162857 C4.16074286,16.7511429 4.15045714,16.9842857 4.14702857,17.2174286 C4.14531429,17.2842857 4.14188571,17.3357143 4.05445714,17.3425714 C4.03217143,17.3442857 4.00474286,17.3905714 3.9996,17.4197143 C3.98931429,17.4642857 3.99445714,17.5122857 3.99274286,17.5585714 C3.9876,17.9425714 3.98417143,18.3265714 3.97731429,18.7105714 C3.9756,18.7568571 3.96188571,18.834 3.93617143,18.8442857 C3.84702857,18.8751429 3.86074286,18.9385714 3.86074286,19.0037143 C3.86074286,19.3105714 3.86074286,19.6191429 3.86074286,19.9294286 C3.86074286,20.0014286 3.84531429,20.082 3.94817143,20.1077143 C3.9636,20.1111429 3.97388571,20.154 3.97731429,20.1797143 C3.98245714,20.226 3.98074286,20.2722857 3.98074286,20.3202857 C3.9876,20.7077143 3.99445714,21.0951429 3.9996,21.4825714 C4.00131429,21.5477143 4.00302857,21.6025714 4.09045714,21.6111429 C4.11274286,21.6128571 4.14702857,21.666 4.14702857,21.6985714 C4.15731429,21.8802857 4.15731429,22.062 4.16417143,22.2454286 C4.16588571,22.314 4.13845714,22.4031429 4.25845714,22.4082857 C4.27045714,22.4082857 4.2876,22.4614286 4.28931429,22.4905714 C4.29617143,22.6242857 4.2996,22.7597143 4.30302857,22.8968571 C4.30474286,22.9465714 4.30817143,22.9928571 4.37502857,22.9894286 C4.44702857,22.9842857 4.45731429,23.0254286 4.45902857,23.0854286 C4.46074286,23.226 4.46931429,23.3665714 4.47788571,23.5071429 C4.4796,23.5345714 4.50017143,23.586 4.51045714,23.586 C4.62531429,23.586 4.60131429,23.6665714 4.60474286,23.7334286 C4.60817143,23.8174286 4.60988571,23.9014286 4.6236,23.9837143 C4.62874286,24.0145714 4.66474286,24.0608571 4.69217143,24.0642857 C4.76074286,24.0694286 4.77788571,24.1002857 4.77445714,24.1637143 C4.77102857,24.2185714 4.77445714,24.2751429 4.78131429,24.33 C4.78302857,24.3522857 4.80188571,24.3934286 4.8156,24.3934286 C4.91845714,24.3934286 4.90302857,24.4705714 4.90988571,24.5322857 C4.91502857,24.5871429 4.91845714,24.6437143 4.92188571,24.6985714 C4.92531429,24.7654286 4.90302857,24.8494286 5.01788571,24.8408571 C5.02817143,24.8391429 5.04874286,24.882 5.05217143,24.9042857 C5.05902857,24.9505714 5.06245714,24.9968571 5.06074286,25.0448571 C5.05731429,25.11 5.0676,25.1562857 5.14817143,25.1477143 C5.20302857,25.1408571 5.22188571,25.1682857 5.22017143,25.2214286 C5.21845714,25.2677143 5.22702857,25.3157143 5.22531429,25.362 C5.2236,25.4185714 5.22874286,25.4631429 5.30417143,25.4631429 C5.32302857,25.4648571 5.35217143,25.5008571 5.35731429,25.5248571 C5.36588571,25.5797143 5.36588571,25.6362857 5.36417143,25.6911429 C5.36417143,25.7425714 5.37617143,25.7768571 5.43445714,25.77 C5.5116,25.7614286 5.51502857,25.8077143 5.53045714,25.8694286 C5.5476,25.9465714 5.47217143,26.0854286 5.64531429,26.082 C5.65217143,26.082 5.66417143,26.118 5.66931429,26.1402857 C5.67445714,26.178 5.68131429,26.214 5.6796,26.2517143 C5.67445714,26.322 5.70017143,26.3562857 5.77388571,26.3477143 C5.83388571,26.3425714 5.84417143,26.3802857 5.84074286,26.4282857 C5.83731429,26.4865714 5.83902857,26.5414286 5.92474286,26.5397143 C5.93845714,26.538 5.96417143,26.5722857 5.96931429,26.5962857 C5.9796,26.6408571 5.98474286,26.6871429 5.98302857,26.7351429 C5.98131429,26.8002857 5.99502857,26.8431429 6.07388571,26.8328571 C6.12702857,26.8277143 6.1476,26.8534286 6.14588571,26.9065714 C6.14588571,26.9597143 6.1596,27.0094286 6.15617143,27.0608571 C6.15102857,27.1551429 6.23845714,27.114 6.27102857,27.1448571 C6.3036,27.1774286 6.31045714,27.2357143 6.33788571,27.2785714 C6.34474286,27.2888571 6.38417143,27.2751429 6.40474286,27.2837143 C6.42531429,27.294 6.45274286,27.318 6.45274286,27.3334286 C6.45102857,27.4122857 6.4596,27.474 6.56245714,27.4688571 C6.57102857,27.4688571 6.58474286,27.5031429 6.58817143,27.5254286 C6.59674286,27.5751429 6.59674286,27.6265714 6.60531429,27.678 C6.61045714,27.702 6.62417143,27.7465714 6.63445714,27.7465714 C6.71674286,27.7448571 6.75617143,27.7774286 6.74245714,27.8614286 C6.85388571,27.8905714 6.92074286,27.9591429 6.93617143,28.074 C7.07331429,28.0688571 7.0356,28.1854286 7.05445714,28.2557143 C7.06817143,28.3054286 7.0716,28.3448571 7.13502857,28.338 C7.20188571,28.3311429 7.22931429,28.362 7.22245714,28.4271429 C7.21731429,28.4837143 7.2516,28.4922857 7.29617143,28.5162857 C7.37674286,28.5591429 7.40245714,28.686 7.52245714,28.6842857 C7.52417143,28.6842857 7.52931429,28.7185714 7.52588571,28.7374286 C7.51388571,28.8214286 7.5756,28.8111429 7.62702857,28.8317143 C7.66474286,28.8471429 7.68017143,28.9174286 7.70931429,28.9637143 C7.71274286,28.9688571 7.72645714,28.9671429 7.73502857,28.9654286 C7.81902857,28.9534286 7.83788571,28.9945714 7.83788571,29.07 C7.83788571,29.0922857 7.87388571,29.118 7.8996,29.1334286 C7.98531429,29.1848571 8.0076,29.3185714 8.13788571,29.3048571 C8.13788571,29.3185714 8.14131429,29.3322857 8.14131429,29.346 C8.13445714,29.4111429 8.17217143,29.4214286 8.2236,29.454 C8.29388571,29.4968571 8.3556,29.574 8.41388571,29.6391429 C8.44645714,29.6768571 8.4156,29.7711429 8.51845714,29.754 C8.63845714,29.7334286 8.54931429,29.8791429 8.62817143,29.8928571 C8.63674286,29.8928571 8.64702857,29.8911429 8.65388571,29.8945714 C8.74302857,29.9357143 8.7636,30.078 8.89388571,30.0608571 C8.8956,30.0797143 8.90074286,30.0985714 8.89731429,30.1157143 C8.88531429,30.1997143 8.94531429,30.1877143 8.99845714,30.21 C9.03617143,30.2271429 9.05331429,30.2957143 9.08074286,30.3402857 C9.08417143,30.3454286 9.0996,30.3437143 9.10988571,30.342 C9.19217143,30.33 9.2076,30.3728571 9.21102857,30.4465714 C9.21445714,30.5408571 9.39617143,30.5031429 9.36188571,30.6368571 C9.36188571,30.6368571 9.39617143,30.6522857 9.4116,30.6505714 C9.48702857,30.642 9.52302857,30.666 9.51788571,30.75 C9.50931429,30.8528571 9.71502857,30.8014286 9.66531429,30.942 C9.66531429,30.9437143 9.6996,30.9608571 9.71502857,30.9591429 C9.79731429,30.9488571 9.83845714,30.9762857 9.82817143,31.0671429 C9.82645714,31.086 9.85388571,31.1237143 9.86588571,31.1237143 C9.94645714,31.1185714 9.97217143,31.158 9.97045714,31.2317143 C9.97045714,31.2437143 10.0030286,31.2677143 10.0167429,31.266 C10.1076,31.2574286 10.1470286,31.29 10.1350286,31.3842857 C10.1230286,31.4854286 10.2961714,31.3877143 10.2738857,31.506 C10.2738857,31.5111429 10.2721714,31.518 10.2756,31.5197143 C10.3441714,31.578 10.4230286,31.626 10.4590286,31.7151429 C10.4607429,31.722 10.4864571,31.7202857 10.5001714,31.7185714 C10.5721714,31.7082857 10.5876,31.746 10.5824571,31.8094286 C10.5756,31.9191429 10.7761714,31.8762857 10.7350286,32.0117143 C10.7573143,32.0168571 10.7796,32.0237143 10.8018857,32.0271429 C10.8241714,32.0305714 10.8670286,32.0288571 10.8670286,32.0357143 C10.8841714,32.1282857 10.9098857,32.2122857 11.0281714,32.2208571 C11.0144571,32.3254286 11.0744571,32.3442857 11.1601714,32.3408571 C11.1721714,32.3408571 11.1876,32.3888571 11.2013143,32.4128571 C11.2150286,32.4437143 11.2287429,32.4985714 11.2424571,32.4985714 C11.3230286,32.4951429 11.3470286,32.5328571 11.3470286,32.6082857 C11.3470286,32.6185714 11.3950286,32.6425714 11.4224571,32.6425714 C11.4876,32.6391429 11.5167429,32.6631429 11.5081714,32.73 C11.5030286,32.7882857 11.5338857,32.7968571 11.5836,32.8191429 C11.6676,32.8534286 11.6881714,32.9905714 11.8133143,32.9768571 C11.8150286,33.0042857 11.8116,33.0351429 11.8201714,33.0608571 C11.8270286,33.0831429 11.8493143,33.1174286 11.8613143,33.1157143 C11.9436,33.1122857 11.9658857,33.1551429 11.9624571,33.2254286 C11.9607429,33.2357143 11.9778857,33.258 11.9847429,33.2562857 C12.0876,33.246 12.1064571,33.3042857 12.1047429,33.3917143 C12.1047429,33.402 12.1510286,33.4277143 12.1767429,33.4277143 C12.2418857,33.426 12.2470286,33.4637143 12.2744571,33.51 C12.3173143,33.5837143 12.4167429,33.618 12.4510286,33.7088571 C12.4527429,33.7105714 12.4613143,33.7105714 12.4647429,33.7105714 C12.5487429,33.6985714 12.5881714,33.7277143 12.5778857,33.8168571 C12.5761714,33.834 12.6036,33.8751429 12.6173143,33.8751429 C12.6978857,33.87 12.7218857,33.906 12.7218857,33.9814286 C12.7218857,33.9934286 12.7716,34.0191429 12.7956,34.0174286 C12.8607429,34.0157143 12.8950286,34.038 12.8847429,34.1065714 C12.8676,34.2231429 13.0836,34.17 13.0338857,34.3105714 C13.0613143,34.3174286 13.0870286,34.3294286 13.1127429,34.3277143 C13.1727429,34.3242857 13.1984571,34.3465714 13.1950286,34.4065714 C13.1916,34.4477143 13.1830286,34.5008571 13.2498857,34.4957143 C13.3218857,34.4888571 13.3373143,34.5248571 13.3373143,34.5865714 C13.3373143,34.6037143 13.3664571,34.626 13.3887429,34.6345714 C13.4144571,34.6431429 13.4676,34.638 13.4676,34.6414286 C13.4761714,34.7562857 13.5841714,34.7905714 13.6356,34.866 C13.6630286,34.9105714 13.6681714,34.95 13.7316,34.95 C13.7487429,34.95 13.7727429,34.9774286 13.7813143,34.9997143 C13.7898857,35.0254286 13.7796,35.0768571 13.7881714,35.0785714 C13.8841714,35.106 13.9390286,35.1694286 14.0024571,35.2465714 C14.0281714,35.2774286 14.0967429,35.2825714 14.0967429,35.3562857 C14.0967429,35.37 14.1464571,35.394 14.1721714,35.394 C14.2373143,35.3922857 14.2681714,35.4111429 14.2596,35.4797143 C14.2527429,35.538 14.2853143,35.5465714 14.3350286,35.5688571 C14.4190286,35.6048571 14.4378857,35.742 14.5647429,35.7282857 C14.5664571,35.7522857 14.5698857,35.7745714 14.5681714,35.7968571 C14.5664571,35.85 14.5836,35.8705714 14.6401714,35.8757143 C14.6641714,35.8774286 14.7053143,35.9117143 14.7053143,35.934 C14.7087429,35.9974286 14.7327429,36.0197143 14.7910286,36.0128571 C14.8596,36.0042857 14.8853143,36.0351429 14.8767429,36.1002857 C14.8698857,36.1602857 14.9093143,36.1637143 14.9538857,36.1877143 C15.0344571,36.2288571 15.0618857,36.354 15.1818857,36.3488571 C15.1818857,36.3488571 15.1870286,36.3745714 15.1853143,36.39 C15.1818857,36.4534286 15.2093143,36.4688571 15.2693143,36.4997143 C15.3413143,36.5374286 15.3807429,36.6351429 15.4647429,36.6797143 C15.4716,36.6814286 15.4681714,36.7054286 15.4664571,36.7191429 C15.4596,36.7808571 15.4887429,36.8065714 15.5487429,36.798 C15.6138857,36.7894286 15.6396,36.8168571 15.6396,36.8854286 C15.6396,36.9025714 15.6756,36.9265714 15.6996,36.9368571 C15.7904571,36.9745714 15.8041714,37.1254286 15.9378857,37.1031429 C15.9396,37.1305714 15.9361714,37.1614286 15.9464571,37.1871429 C15.9567429,37.2094286 15.9841714,37.2454286 16.0013143,37.2437143 C16.0733143,37.242 16.0870286,37.2745714 16.0870286,37.3362857 C16.0870286,37.3534286 16.1178857,37.3774286 16.1401714,37.386 C16.1641714,37.3945714 16.2173143,37.3894286 16.2173143,37.3928571 C16.2276,37.506 16.3373143,37.5402857 16.3870286,37.6157143 C16.4178857,37.6602857 16.4247429,37.6997143 16.4864571,37.6928571 C16.5310286,37.6894286 16.5756,37.6945714 16.5670286,37.758 C16.5533143,37.8557143 16.6150286,37.854 16.6853143,37.8625714 C16.7624571,37.8711429 16.8876,37.8197143 16.8841714,37.9774286 C16.8824571,37.9842857 16.9321714,37.9962857 16.9578857,37.998 C17.0470286,38.0048571 17.1361714,38.01 17.2236,38.01 C17.2853143,38.01 17.3247429,38.0237143 17.3213143,38.094 C17.3196,38.1488571 17.3538857,38.1642857 17.4036,38.1642857 C17.5990286,38.1625714 17.7944571,38.1625714 17.9933143,38.1642857 C18.0481714,38.1642857 18.0824571,38.1505714 18.0807429,38.0871429 C18.0790286,38.0254286 18.1150286,38.0117143 18.1716,38.0117143 C18.2641714,38.01 18.3584571,38.0014286 18.4510286,37.9997143 C18.5093143,37.998 18.5658857,38.0048571 18.5624571,37.9174286 C18.5624571,37.902 18.6018857,37.8745714 18.6276,37.8694286 C18.6756,37.8591429 18.7287429,37.8574286 18.7801714,37.8591429 C18.8384571,37.8608571 18.8624571,37.842 18.8641714,37.7785714 C18.8641714,37.7511429 18.8933143,37.698 18.9087429,37.698 C18.9893143,37.7014286 19.0150286,37.6654286 19.0116,37.5917143 C19.0098857,37.5814286 19.0270286,37.5591429 19.0338857,37.5608571 C19.1384571,37.5711429 19.1590286,37.5162857 19.1556,37.4271429 C19.1538857,37.4151429 19.2036,37.4014286 19.2276,37.3894286 C19.2584571,37.374 19.3133143,37.3585714 19.3116,37.3448571 C19.3098857,37.2642857 19.3476,37.2402857 19.4213143,37.2437143 C19.4333143,37.2437143 19.4504571,37.2128571 19.4556,37.194 C19.4624571,37.1682857 19.4538857,37.1168571 19.4624571,37.1151429 C19.5601714,37.0877143 19.6167429,37.026 19.6767429,36.9471429 C19.7041714,36.9145714 19.7744571,36.9111429 19.7744571,36.8357143 C19.7744571,36.8237143 19.8207429,36.7997143 19.8481714,36.8014286 C19.9133143,36.8031429 19.9441714,36.7808571 19.9356,36.7122857 C19.9201714,36.5957143 20.1361714,36.6488571 20.0847429,36.5082857 C20.1121714,36.5014286 20.1378857,36.4894286 20.1636,36.4911429 C20.2236,36.4928571 20.2510286,36.4722857 20.2441714,36.4088571 C20.2390286,36.3591429 20.2458857,36.3145714 20.3144571,36.3214286 C20.3727429,36.3282857 20.3813143,36.294 20.3881714,36.246 C20.3916,36.222 20.4310286,36.1842857 20.4516,36.186 C20.5321714,36.1877143 20.5613143,36.1585714 20.5544571,36.0797143 C20.5458857,35.9802857 20.6333143,36.0282857 20.6727429,36.006 C20.7224571,35.9751429 20.6504571,35.8671429 20.7550286,35.874 C20.8321714,35.8791429 20.8390286,35.8328571 20.8338857,35.7762857 C20.8287429,35.7231429 20.8544571,35.694 20.9058857,35.7042857 C21.0138857,35.7248571 20.9898857,35.6408571 21.0121714,35.586 C21.0344571,35.5345714 21.1681714,35.5997143 21.1441714,35.4728571 C21.1321714,35.4128571 21.1630286,35.3888571 21.2230286,35.3957143 C21.2898857,35.4025714 21.3156,35.3768571 21.3156,35.31 C21.3138857,35.2911429 21.3516,35.2654286 21.3738857,35.2568571 C21.4664571,35.2174286 21.4818857,35.0665714 21.6156,35.0905714 C21.6173143,35.0665714 21.6207429,35.0442857 21.6190286,35.0202857 C21.6156,34.9688571 21.6361714,34.9482857 21.6910286,34.9431429 C21.7167429,34.9414286 21.7561714,34.9037143 21.7561714,34.8831429 C21.7596,34.8214286 21.7853143,34.7991429 21.8418857,34.806 C21.9104571,34.8145714 21.9361714,34.7837143 21.9293143,34.7168571 C21.9224571,34.6585714 21.9601714,34.6551429 22.0047429,34.6311429 C22.0853143,34.5882857 22.1127429,34.4648571 22.2327429,34.47 C22.2327429,34.47 22.2396,34.4322857 22.2361714,34.4151429 C22.2241714,34.3311429 22.2858857,34.3414286 22.3373143,34.3208571 C22.3750286,34.3037143 22.3921714,34.2351429 22.4213143,34.1905714 C22.4247429,34.1871429 22.4384571,34.1871429 22.4470286,34.1871429 C22.5310286,34.2008571 22.5516,34.1597143 22.5498857,34.0842857 C22.5498857,34.062 22.5910286,34.0225714 22.6133143,34.0242857 C22.7093143,34.0242857 22.6664571,33.942 22.6938857,33.9077143 C22.7230286,33.8734286 22.7813143,33.8614286 22.8241714,33.8357143 C22.8293143,33.834 22.8276,33.8202857 22.8258857,33.81 C22.8138857,33.7294286 22.8533143,33.7037143 22.9304571,33.7071429 C22.9510286,33.7088571 22.9921714,33.6762857 22.9921714,33.6591429 C22.9921714,33.594 23.0127429,33.5648571 23.0796,33.5665714 C23.0984571,33.5665714 23.1344571,33.5288571 23.1327429,33.5082857 C23.1310286,33.3797143 23.2390286,33.4568571 23.2870286,33.4208571 C23.3384571,33.3797143 23.2510286,33.2751429 23.3813143,33.2528571 C23.4601714,33.2391429 23.4876,33.09 23.6076,33.0917143 C23.6093143,33.0917143 23.6076,33.0385714 23.6144571,33.0111429 C23.6196,32.9922857 23.6350286,32.9597143 23.6453143,32.9597143 C23.7276,32.9648571 23.7687429,32.9322857 23.7567429,32.8465714 C23.8750286,32.8311429 23.9093143,32.7351429 23.9693143,32.6528571 C23.9933143,32.622 24.0721714,32.6202857 24.0670286,32.5448571 C24.0653143,32.5328571 24.0876,32.5071429 24.0978857,32.5088571 C24.1973143,32.5191429 24.2504571,32.4865714 24.2316,32.3785714 C24.3190286,32.3425714 24.3550286,32.2465714 24.4218857,32.2054286 C24.4767429,32.1728571 24.5196,32.1642857 24.5110286,32.0905714 C24.5110286,32.0734286 24.5230286,32.0408571 24.5264571,32.0408571 C24.6361714,32.0477143 24.6533143,31.9482857 24.7133143,31.902 C24.7716,31.8591429 24.8298857,31.8471429 24.8264571,31.7597143 C24.8264571,31.7477143 24.8796,31.722 24.9121714,31.7202857 C24.9601714,31.7168571 24.9944571,31.7065714 24.9893143,31.65 C24.9807429,31.5522857 25.0681714,31.5985714 25.1007429,31.5694286 C25.1367429,31.5402857 25.1470286,31.482 25.1727429,31.4408571 C25.1761714,31.434 25.2001714,31.4357143 25.2138857,31.4374286 C25.2858857,31.4477143 25.3013143,31.41 25.2961714,31.3465714 C25.2893143,31.2368571 25.4916,31.2797143 25.4487429,31.1425714 C25.4710286,31.1391429 25.4950286,31.1322857 25.5156,31.1288571 C25.5378857,31.1254286 25.5807429,31.1271429 25.5807429,31.1202857 C25.5978857,31.0277143 25.6236,30.942 25.7418857,30.9351429 C25.7281714,30.8322857 25.7881714,30.8117143 25.8738857,30.8134286 C25.8876,30.8151429 25.9116,30.7585714 25.9133143,30.7277143 C25.9167429,30.678 25.9270286,30.6471429 25.9836,30.6522857 C26.0796,30.6591429 26.0333143,30.57 26.0624571,30.5391429 C26.0933143,30.5031429 26.1858857,30.4928571 26.1876,30.4688571 C26.1927429,30.378 26.2133143,30.3282857 26.3144571,30.3402857 C26.3281714,30.342 26.3607429,30.3145714 26.3607429,30.3025714 C26.3556,30.2237143 26.3898857,30.1962857 26.4653143,30.1962857 C26.4790286,30.1962857 26.5030286,30.1482857 26.5030286,30.1225714 C26.5013143,30.0574286 26.5184571,30.0265714 26.5887429,30.0351429 C26.6470286,30.042 26.6573143,30.0145714 26.6778857,29.9597143 C26.7087429,29.8774286 26.8356,29.862 26.8510286,29.7574286 C26.8510286,29.7557143 26.8681714,29.754 26.8767429,29.7557143 C26.9521714,29.7625714 26.9898857,29.7385714 26.9830286,29.6545714 C26.9761714,29.5517143 27.1784571,29.6048571 27.1321714,29.4642857 C27.1321714,29.4625714 27.1630286,29.4454286 27.1801714,29.4471429 C27.2624571,29.4574286 27.3018857,29.4282857 27.2916,29.3374286 C27.2898857,29.3202857 27.3190286,29.2808571 27.3310286,29.2808571 C27.4133143,29.286 27.4356,29.2482857 27.4356,29.1745714 C27.4356,29.1608571 27.4853143,29.1368571 27.5093143,29.1368571 C27.5761714,29.1402857 27.6053143,29.1162857 27.5967429,29.0477143 C27.5898857,28.9911429 27.6207429,28.9808571 27.6704571,28.9602857 C27.7544571,28.9242857 27.7733143,28.7871429 27.8984571,28.7991429 C27.9001714,28.7802857 27.9053143,28.7614286 27.9018857,28.7442857 C27.8950286,28.6791429 27.9361714,28.6757143 27.9824571,28.6448571 C28.0544571,28.6002857 28.0921714,28.5042857 28.1778857,28.4614286 C28.1864571,28.4562857 28.1727429,28.4202857 28.1813143,28.4065714 C28.1984571,28.3825714 28.2241714,28.3414286 28.2464571,28.3414286 C28.3304571,28.3465714 28.3578857,28.3037143 28.3476,28.2334286 C28.3253143,28.086 28.5498857,28.0688571 28.5087429,27.9162857 C28.5361714,27.9111429 28.5653143,27.9094286 28.5893143,27.9008571 C28.6150286,27.8888571 28.6578857,27.87 28.6561714,27.8545714 C28.6544571,27.7774286 28.6853143,27.7465714 28.7624571,27.7482857 C28.7744571,27.7482857 28.7916,27.7157143 28.7950286,27.6968571 C28.8036,27.6522857 28.8104571,27.606 28.8104571,27.558 C28.8087429,27.4928571 28.8258857,27.45 28.9030286,27.4585714 C28.9596,27.4654286 28.9801714,27.4328571 28.9733143,27.3831429 C28.9613143,27.3008571 29.0041714,27.2888571 29.0744571,27.2717143 C29.1087429,27.2631429 29.1224571,27.1825714 29.1516,27.138 C29.1567429,27.1277143 29.1927429,27.1397143 29.2064571,27.1311429 C29.2304571,27.1157143 29.2596,27.0934286 29.2698857,27.066 C29.2836,27.0334286 29.2818857,26.9922857 29.2818857,26.9562857 C29.2818857,26.8877143 29.2784571,26.8225714 29.3796,26.8294286 C29.3898857,26.8311429 29.4121714,26.7917143 29.4173143,26.7677143 C29.4258857,26.7282857 29.4276,26.6854286 29.4276,26.6425714 C29.4276,26.574 29.4396,26.5242857 29.5270286,26.5328571 C29.5887429,26.5397143 29.5853143,26.4917143 29.5904571,26.4488571 C29.5938857,26.4145714 29.6127429,26.3562857 29.6213143,26.3562857 C29.7464571,26.3665714 29.7190286,26.2671429 29.7276,26.2037143 C29.7378857,26.1334286 29.7207429,26.0562857 29.8338857,26.0665714 C29.8424571,26.0682857 29.8613143,26.0271429 29.8647429,26.0031429 C29.8716,25.9482857 29.8698857,25.8917143 29.8784571,25.8351429 C29.8818857,25.8145714 29.9076,25.7751429 29.9178857,25.7768571 C30.0584571,25.794 30.0327429,25.698 30.0396,25.6157143 C30.0447429,25.5454286 30.0121714,25.4442857 30.1458857,25.4511429 C30.1544571,25.4511429 30.1698857,25.4065714 30.1733143,25.3825714 C30.1801714,25.3311429 30.1836,25.2797143 30.1818857,25.23 C30.1784571,25.17 30.2007429,25.1391429 30.2607429,25.146 C30.3344571,25.1545714 30.3447429,25.1117143 30.3430286,25.0517143 C30.3413143,25.0002857 30.3447429,24.9488571 30.3516,24.8991429 C30.3533143,24.8785714 30.3670286,24.8408571 30.3756,24.8425714 C30.5093143,24.8494286 30.4767429,24.7517143 30.4836,24.6797143 C30.4887429,24.6145714 30.4870286,24.546 30.5007429,24.4825714 C30.5058857,24.4534286 30.5418857,24.4037143 30.5658857,24.4037143 C30.6464571,24.402 30.6550286,24.3591429 30.6533143,24.2957143 C30.6498857,24.2442857 30.6516,24.1911429 30.6584571,24.1414286 C30.6618857,24.1174286 30.6790286,24.0762857 30.6910286,24.0762857 C30.7904571,24.0711429 30.7818857,24.0025714 30.7853143,23.9357143 C30.7887429,23.8517143 30.7956,23.7677143 30.7973143,23.6854286 C30.7973143,23.6322857 30.8024571,23.5911429 30.8693143,23.5962857 C30.9413143,23.6014286 30.9533143,23.5568571 30.9550286,23.4985714 C30.9584571,23.3631429 30.9687429,23.2277143 30.9721714,23.0922857 C30.9738857,23.0374286 30.9738857,22.9928571 31.0476,22.9825714 C31.0681714,22.9808571 31.0938857,22.9328571 31.0956,22.902 C31.1058857,22.7734286 31.1093143,22.6414286 31.1110286,22.5111429 C31.1110286,22.4425714 31.1196,22.3945714 31.2053143,22.3928571 C31.2258857,22.3911429 31.2618857,22.338 31.2636,22.3071429 C31.2738857,22.1254286 31.2738857,21.942 31.2807429,21.7602857 C31.2824571,21.69 31.2550286,21.6042857 31.3716,21.5905714 C31.3836,21.5888571 31.3956,21.5442857 31.3990286,21.5185714 C31.4058857,21.474 31.4058857,21.426 31.4076,21.3797143 C31.4127429,20.9957143 31.4161714,20.6134286 31.4264571,20.2294286 C31.4264571,20.1848571 31.4418857,20.1145714 31.4727429,20.1008571 C31.5430286,20.07 31.5396,20.0202857 31.5396,19.9654286 L31.5396,19.4734286 Z" id="Fill-4" fill="#BD312A"></path>
        </g>
    </g>
</svg>