<?xml version="1.0" encoding="UTF-8"?>
<svg width="60px" height="36px" viewBox="0 0 60 36" version="1.1" xmlns="http://www.w3.org/2000/svg" xmlns:xlink="http://www.w3.org/1999/xlink">
    <title>Visa-light@1.5x</title>
    <g id="Icons" stroke="none" stroke-width="1" fill="none" fill-rule="evenodd">
        <g transform="translate(-135.000000, -41.000000)" id="Visa-light">
            <g transform="translate(135.000000, 41.000000)">
                <rect id="Rectangle" fill="#F2F2F2" x="0" y="0" width="60" height="36" rx="2.4"></rect>
                <polyline id="Fill-1" fill="#26337A" points="24.8939945 23.7280563 26.7388369 12.2836056 29.6877512 12.2836056 27.8430774 23.7280563 24.8939945 23.7280563"></polyline>
                <path d="M38.5397226,12.564507 C37.9566525,12.3348169 37.0396286,12.084338 35.89727,12.084338 C32.9817512,12.084338 30.9294525,13.6374085 30.9124175,15.8612958 C30.8938645,17.5063099 32.3769235,18.4237183 33.4949945,18.9704789 C34.6440995,19.5309296 35.0301705,19.8895775 35.0256166,20.3907042 C35.0176894,21.1571831 34.108424,21.5083944 33.2605521,21.5083944 C32.0799069,21.5083944 31.452647,21.335493 30.4828313,20.9082254 L30.1035069,20.7260282 L29.6911244,23.2877746 C30.3787659,23.6065352 31.6535253,23.8832113 32.9765226,23.8977465 C36.0750415,23.8977465 38.0883788,22.3634366 38.1119917,19.9886197 C38.1226175,18.684169 37.3368138,17.6954366 35.6349982,16.8790986 C34.6044636,16.3483944 33.9719751,15.9968451 33.9792276,15.4597183 C33.9799023,14.9841127 34.5135539,14.4748732 35.6685622,14.4748732 C36.6331493,14.4593239 37.3314166,14.6820845 37.8755253,14.9146479 L38.1403272,15.0454648 L38.5397226,12.564507" id="Fill-2" fill="#26337A"></path>
                <path d="M42.4663797,19.6705352 C42.7107733,19.0127324 43.6411217,16.4716056 43.6411217,16.4716056 C43.623918,16.5018592 43.8841659,15.8087324 44.0330959,15.3797746 L44.2321189,16.3668169 C44.2321189,16.3668169 44.7979853,19.0984225 44.9145318,19.6705352 L42.4663797,19.6705352 L42.4663797,19.6705352 Z M46.1044535,12.2952676 L43.825471,12.2952676 C43.1186018,12.2952676 42.5895041,12.4977465 42.2798378,13.2439437 L37.9004876,23.7321127 L40.9978258,23.7321127 C40.9978258,23.7321127 41.5031419,22.3211831 41.6178332,22.0115493 C41.9556664,22.0115493 44.9652995,22.0174648 45.3948857,22.0174648 C45.4832654,22.4168451 45.7539705,23.7321127 45.7539705,23.7321127 L48.4910433,23.7321127 L46.1044535,12.2952676 L46.1044535,12.2952676 Z" id="Fill-3" fill="#26337A"></path>
                <path d="M22.4200369,12.2932394 L19.5336968,20.0956056 L19.2245364,18.5095775 C18.6866682,16.6821972 17.0123447,14.7015211 15.1395041,13.7090704 L17.7801014,23.7180845 L20.9010525,23.7162254 L25.5450359,12.2932394 L22.4200369,12.2932394" id="Fill-4" fill="#26337A"></path>
                <path d="M16.8543069,12.2854648 L12.0988369,12.2854648 L12.0597069,12.5225915 C15.7600175,13.4705915 18.2083382,15.7588732 19.2245364,18.5095775 L18.1911346,13.2510423 C18.0128571,12.5258028 17.4947226,12.3108169 16.8543069,12.2854648" id="Fill-5" fill="#EC982D"></path>
            </g>
        </g>
    </g>
</svg>