<?xml version="1.0" encoding="UTF-8"?>
<svg width="36px" height="42px" viewBox="0 0 36 42" version="1.1" xmlns="http://www.w3.org/2000/svg" xmlns:xlink="http://www.w3.org/1999/xlink">
    <title>Group 35</title>
    <g id="Find-a-Michael's-location" stroke="none" stroke-width="1" fill="none" fill-rule="evenodd">
        <g id="Group-35" transform="translate(0.000095, 0.713943)">
            <path d="M0.011047619,17.7017143 C0.011047619,17.0657143 0.011047619,16.4297143 0.011047619,15.7937143 C0.0127619048,15.7182857 -0.00266666667,15.6274286 0.12247619,15.624 C0.136190476,15.624 0.160190476,15.5588571 0.161904762,15.5228571 C0.172190476,15.2417143 0.177333333,14.9605714 0.184190476,14.6811429 C0.185904762,14.6177143 0.17047619,14.5474286 0.268190476,14.5337143 C0.285333333,14.5302857 0.30247619,14.4737143 0.304190476,14.4411429 C0.312761905,14.2594286 0.317904762,14.0777143 0.323047619,13.8942857 C0.324761905,13.8325714 0.331619048,13.7828571 0.41047619,13.7845714 C0.47047619,13.7862857 0.475619048,13.7451429 0.475619048,13.7005714 C0.479047619,13.5497143 0.48247619,13.4005714 0.492761905,13.2514286 C0.49447619,13.2222857 0.521904762,13.1725714 0.540761905,13.1708571 C0.61447619,13.164 0.617904762,13.1211429 0.617904762,13.0645714 C0.617904762,12.9942857 0.621333333,12.924 0.623047619,12.8537143 C0.624761905,12.7782857 0.604190476,12.6874286 0.732761905,12.6925714 C0.74647619,12.6925714 0.772190476,12.636 0.775619048,12.6034286 C0.787619048,12.4697143 0.792761905,12.3342857 0.801333333,12.1988571 C0.804761905,12.1697143 0.821904762,12.1165714 0.833904762,12.1165714 C0.955619048,12.1131429 0.923047619,12.0222857 0.929904762,11.9537143 C0.935047619,11.8937143 0.93847619,11.8337143 0.940190476,11.772 C0.940190476,11.7051429 0.95047619,11.6537143 1.03961905,11.6537143 C1.05847619,11.652 1.08933333,11.6091429 1.09447619,11.5817143 C1.1047619,11.5217143 1.09619048,11.46 1.1047619,11.4 C1.10819048,11.376 1.13561905,11.3365714 1.15447619,11.3365714 C1.22819048,11.3331429 1.23161905,11.2902857 1.23161905,11.2337143 C1.23333333,11.1394286 1.24190476,11.0468571 1.2487619,10.9525714 C1.25047619,10.9268571 1.2607619,10.8788571 1.26761905,10.8788571 C1.42533333,10.8771429 1.37390476,10.7537143 1.3807619,10.6765714 C1.38761905,10.6011429 1.38247619,10.536 1.4887619,10.5445714 C1.50590476,10.5462857 1.53504762,10.5068571 1.54019048,10.4828571 C1.55047619,10.4331429 1.54533333,10.38 1.55219048,10.3302857 C1.55561905,10.308 1.57619048,10.2685714 1.58647619,10.2685714 C1.69104762,10.2737143 1.67904762,10.2017143 1.6807619,10.1365714 C1.68247619,10.104 1.68933333,10.0714286 1.68933333,10.0388571 C1.68590476,9.984 1.70133333,9.948 1.7647619,9.95314286 C1.8367619,9.96 1.85047619,9.91885714 1.8487619,9.85885714 C1.84704762,9.81257143 1.85390476,9.76628571 1.85904762,9.72 C1.8607619,9.69771429 1.86761905,9.65657143 1.87447619,9.65657143 C2.04761905,9.65142857 1.97904762,9.51085714 1.99447619,9.42685714 C2.00647619,9.36685714 2.01333333,9.33085714 2.08361905,9.33771429 C2.15047619,9.34457143 2.15904762,9.30685714 2.15904762,9.252 C2.15904762,9.20057143 2.1607619,9.14742857 2.17104762,9.09771429 C2.17619048,9.07542857 2.20533333,9.03771429 2.22247619,9.03771429 C2.29619048,9.03771429 2.3047619,8.99657143 2.30304762,8.93828571 C2.30133333,8.89714286 2.31161905,8.85428571 2.30990476,8.81314286 C2.30819048,8.75485714 2.32704762,8.72228571 2.3887619,8.73085714 C2.4607619,8.73771429 2.47790476,8.70171429 2.47447619,8.63828571 C2.46933333,8.59028571 2.47104762,8.55085714 2.54133333,8.54228571 C2.63733333,8.53028571 2.60304762,8.43771429 2.61161905,8.38285714 C2.62190476,8.316 2.62361905,8.26457143 2.71104762,8.27485714 C2.76933333,8.28171429 2.78133333,8.24571429 2.77961905,8.19771429 C2.77961905,8.15485714 2.78990476,8.11371429 2.78990476,8.07257143 C2.78990476,8.016 2.79504762,7.97142857 2.87047619,7.97142857 C2.88761905,7.97314286 2.92190476,7.932 2.92019048,7.91314286 C2.9167619,7.83428571 2.93390476,7.78457143 3.0247619,7.79142857 C3.03504762,7.79142857 3.05390476,7.76057143 3.05733333,7.74 C3.06590476,7.69028571 3.0727619,7.63885714 3.0727619,7.58914286 C3.0727619,7.53257143 3.0847619,7.49657143 3.14990476,7.50171429 C3.16361905,7.50171429 3.18761905,7.50514286 3.19104762,7.49828571 C3.21847619,7.452 3.2287619,7.38685714 3.26819048,7.35942857 C3.30590476,7.332 3.3847619,7.36114286 3.37104762,7.26857143 C3.36247619,7.21028571 3.37790476,7.16571429 3.45161905,7.17257143 C3.51161905,7.17942857 3.53390476,7.14857143 3.53219048,7.09028571 C3.53219048,7.04914286 3.54761905,7.008 3.54761905,6.96685714 C3.54590476,6.912 3.55619048,6.87942857 3.62133333,6.87771429 C3.64361905,6.876 3.67961905,6.83314286 3.67961905,6.80914286 C3.68133333,6.744 3.71219048,6.732 3.76704762,6.73371429 C3.7927619,6.73371429 3.8407619,6.71657143 3.8407619,6.71142857 C3.83390476,6.61714286 3.88019048,6.57942857 3.96761905,6.576 C3.9727619,6.576 3.98133333,6.56057143 3.97961905,6.55371429 C3.96761905,6.45085714 4.01047619,6.408 4.1167619,6.396 C4.13904762,6.39428571 4.15961905,6.29142857 4.16304762,6.23485714 C4.16819048,6.16628571 4.19904762,6.15085714 4.25219048,6.11314286 C4.32247619,6.06342857 4.35847619,5.964 4.4647619,5.94857143 C4.46990476,5.94857143 4.46647619,5.904 4.46990476,5.88171429 C4.47161905,5.86285714 4.47504762,5.844 4.47847619,5.82685714 C4.61390476,5.85942857 4.57961905,5.67085714 4.67733333,5.67085714 C4.76133333,5.66914286 4.78533333,5.63828571 4.7767619,5.56285714 C4.77504762,5.55942857 4.77504762,5.55085714 4.7767619,5.54914286 C4.81961905,5.52514286 4.86933333,5.50971429 4.90533333,5.47714286 C4.93961905,5.448 4.87961905,5.352 4.97904762,5.35714286 C5.04419048,5.36228571 5.05961905,5.32971429 5.05447619,5.27314286 C5.0527619,5.25428571 5.05619048,5.22 5.05961905,5.22 C5.17447619,5.21657143 5.21390476,5.064 5.28247619,5.06057143 C5.40761905,5.052 5.32361905,4.91314286 5.40590476,4.91314286 C5.49504762,4.91314286 5.55161905,4.896 5.53447619,4.79142857 C5.5327619,4.77942857 5.54647619,4.75542857 5.54647619,4.75542857 C5.68019048,4.78971429 5.64761905,4.60628571 5.73847619,4.60457143 C5.82761905,4.60457143 5.8567619,4.57371429 5.8447619,4.49142857 C5.84304762,4.48628571 5.84304762,4.47942857 5.84647619,4.47771429 C5.89104762,4.452 5.95961905,4.43485714 5.97847619,4.39542857 C6.00247619,4.34742857 5.98704762,4.28228571 6.0727619,4.296 C6.14133333,4.308 6.16704762,4.27371429 6.16019048,4.20857143 C6.15504762,4.15714286 6.17561905,4.13142857 6.23047619,4.13142857 C6.28190476,4.12971429 6.33333333,4.12457143 6.38133333,4.10914286 C6.40704762,4.10228571 6.42590476,4.07485714 6.44819048,4.056 C6.44990476,4.05428571 6.44990476,4.04742857 6.44819048,4.04228571 C6.43961905,3.92914286 6.58533333,4.02342857 6.59219048,3.936 C6.59904762,3.87257143 6.58361905,3.79885714 6.68990476,3.80914286 C6.70533333,3.81085714 6.72590476,3.77142857 6.74133333,3.74742857 C6.75504762,3.72685714 6.76361905,3.68228571 6.77390476,3.684 C6.87333333,3.68914286 6.9367619,3.66342857 6.92304762,3.54514286 C6.92133333,3.53828571 6.95561905,3.51942857 6.97447619,3.516 C7.02590476,3.50742857 7.07733333,3.504 7.12704762,3.49714286 C7.15104762,3.49371429 7.19047619,3.48685714 7.19047619,3.48514286 C7.17333333,3.35485714 7.3447619,3.38914286 7.35161905,3.31542857 C7.36019048,3.21428571 7.39790476,3.18857143 7.48704762,3.19885714 C7.5007619,3.19885714 7.52990476,3.18342857 7.52990476,3.17314286 C7.5367619,3.02228571 7.6567619,3.06857143 7.73733333,3.05657143 C7.79390476,3.048 7.83847619,3.05142857 7.8367619,2.976 C7.8367619,2.95542857 7.87447619,2.92114286 7.89504762,2.92114286 C7.9567619,2.92114286 7.9927619,2.90571429 7.98590476,2.83371429 C7.97904762,2.76857143 8.01847619,2.75828571 8.07333333,2.75828571 C8.11961905,2.75828571 8.16590476,2.75142857 8.21219048,2.74457143 C8.23447619,2.74114286 8.27390476,2.73257143 8.27390476,2.72742857 C8.26361905,2.57142857 8.3887619,2.60914286 8.46761905,2.60228571 C8.5447619,2.59542857 8.59619048,2.58685714 8.58419048,2.49428571 C8.58419048,2.48571429 8.58590476,2.47542857 8.58933333,2.46685714 C8.6167619,2.4 8.7367619,2.48914286 8.7367619,2.38457143 C8.7367619,2.28171429 8.8087619,2.31085714 8.86361905,2.30571429 C8.89619048,2.30228571 8.9287619,2.29542857 8.96133333,2.29885714 C9.02133333,2.30228571 9.05047619,2.27828571 9.04361905,2.21828571 C9.03504762,2.14628571 9.07447619,2.13085714 9.13619048,2.13428571 C9.18761905,2.136 9.23733333,2.13085714 9.2887619,2.124 C9.30761905,2.12057143 9.34190476,2.10171429 9.34019048,2.09314286 C9.33161905,1.98171429 9.40533333,1.99542857 9.47733333,1.99028571 C9.56133333,1.98514286 9.67961905,2.01428571 9.6607619,1.85828571 C9.6607619,1.84971429 9.70190476,1.82914286 9.72590476,1.82571429 C9.7807619,1.81885714 9.83733333,1.824 9.89219048,1.812 C9.91961905,1.80685714 9.95733333,1.77428571 9.95904762,1.752 C9.96590476,1.69542857 9.99161905,1.68342857 10.0413333,1.68342857 C10.0927619,1.68342857 10.1441905,1.67485714 10.195619,1.67657143 C10.2453333,1.67657143 10.2779048,1.66114286 10.2727619,1.60457143 C10.2641905,1.52571429 10.3087619,1.512 10.3739048,1.51542857 C10.4253333,1.51885714 10.4767619,1.51542857 10.5281905,1.50857143 C10.5470476,1.50685714 10.5813333,1.488 10.5813333,1.47942857 C10.5761905,1.34571429 10.6807619,1.38514286 10.747619,1.37485714 C10.819619,1.36285714 10.915619,1.40228571 10.9190476,1.27371429 C10.9190476,1.26342857 10.9653333,1.248 10.9910476,1.24457143 C11.0801905,1.23771429 11.167619,1.23085714 11.2567619,1.22914286 C11.311619,1.22742857 11.3493333,1.21714286 11.3441905,1.152 C11.3373333,1.08171429 11.3767619,1.068 11.4384762,1.068 C11.5259048,1.068 11.6150476,1.05771429 11.7041905,1.056 C11.7624762,1.05428571 11.8173333,1.05771429 11.8190476,0.972 C11.8190476,0.956571429 11.8619048,0.932571429 11.887619,0.929142857 C11.9664762,0.920571429 12.0453333,0.915428571 12.1241905,0.917142857 C12.2064762,0.917142857 12.2750476,0.915428571 12.2681905,0.802285714 C12.2681905,0.790285714 12.3144762,0.764571429 12.3401905,0.761142857 C12.4139048,0.754285714 12.4893333,0.759428571 12.5630476,0.752571429 C12.6299048,0.745714286 12.7241905,0.773142857 12.7259048,0.653142857 C12.7259048,0.641142857 12.7773333,0.624 12.8064762,0.622285714 C12.9453333,0.613714286 13.0859048,0.608571429 13.2247619,0.603428571 C13.2847619,0.601714286 13.3293333,0.593142857 13.3259048,0.521142857 C13.3241905,0.452571429 13.3687619,0.450857143 13.4201905,0.450857143 C13.5641905,0.447428571 13.7099048,0.444 13.8539048,0.435428571 C13.8847619,0.433714286 13.939619,0.411428571 13.9413333,0.396 C13.9481905,0.303428571 14.011619,0.313714286 14.0733333,0.312 C14.2550476,0.308571429 14.4367619,0.301714286 14.6184762,0.298285714 C14.6733333,0.298285714 14.7127619,0.288 14.7110476,0.222857143 C14.7093333,0.149142857 14.7590476,0.147428571 14.8139048,0.145714286 C15.0899048,0.142285714 15.3659048,0.137142857 15.6419048,0.130285714 C15.7053333,0.128571429 15.775619,0.144 15.7910476,0.0462857143 C15.7944762,0.0291428571 15.8510476,0.012 15.883619,0.0102857143 C16.0567619,0.00342857143 16.2299048,0 16.4030476,0 C17.4230476,0.00171428571 18.4413333,0.00514285714 19.4630476,0.00857142857 C19.531619,0.00857142857 19.6173333,-0.0137142857 19.6344762,0.0977142857 C19.6379048,0.113142857 19.6979048,0.126857143 19.7321905,0.128571429 C20.0030476,0.135428571 20.2739048,0.138857143 20.5464762,0.144 C20.6184762,0.145714286 20.6990476,0.132 20.6990476,0.250285714 C20.6973333,0.265714286 20.7539048,0.294857143 20.7813333,0.294857143 C20.9647619,0.305142857 21.1464762,0.306857143 21.3299048,0.312 C21.3899048,0.313714286 21.4533333,0.301714286 21.4601905,0.394285714 C21.4619048,0.411428571 21.5167619,0.433714286 21.547619,0.435428571 C21.691619,0.444 21.835619,0.447428571 21.9813333,0.450857143 C22.0327619,0.450857143 22.0790476,0.450857143 22.075619,0.519428571 C22.0739048,0.591428571 22.1167619,0.601714286 22.1767619,0.603428571 C22.315619,0.606857143 22.4561905,0.613714286 22.5967619,0.622285714 C22.6241905,0.624 22.6773333,0.641142857 22.6773333,0.651428571 C22.6790476,0.773142857 22.771619,0.744 22.8367619,0.752571429 C22.903619,0.759428571 22.9687619,0.759428571 23.0339048,0.757714286 C23.095619,0.757714286 23.1470476,0.761142857 23.1401905,0.845142857 C23.1367619,0.9 23.1710476,0.913714286 23.2207619,0.915428571 C23.299619,0.915428571 23.3801905,0.922285714 23.4590476,0.925714286 C23.5327619,0.930857143 23.6253333,0.898285714 23.6270476,1.02685714 C23.6270476,1.03714286 23.6733333,1.05085714 23.6973333,1.05428571 C23.7710476,1.06114286 23.8464762,1.06628571 23.9219048,1.06628571 C24.0007619,1.06628571 24.0744762,1.06457143 24.0641905,1.17942857 C24.0624762,1.19485714 24.1070476,1.22228571 24.1310476,1.22571429 C24.199619,1.23428571 24.271619,1.22742857 24.3401905,1.23771429 C24.4070476,1.24628571 24.5013333,1.22057143 24.5030476,1.34057143 C24.5030476,1.35085714 24.5459048,1.368 24.5699048,1.37142857 C24.6247619,1.37828571 24.6830476,1.37485714 24.7379048,1.38 C24.7619048,1.38342857 24.8047619,1.40057143 24.8047619,1.40914286 C24.8013333,1.54285714 24.9007619,1.50514286 24.9727619,1.512 C25.003619,1.51542857 25.039619,1.51028571 25.0687619,1.51885714 C25.0910476,1.524 25.1253333,1.54971429 25.123619,1.56171429 C25.111619,1.68857143 25.195619,1.67657143 25.2761905,1.67828571 C25.3087619,1.67828571 25.3413333,1.68171429 25.3739048,1.68514286 C25.3927619,1.68685714 25.423619,1.692 25.4253333,1.69885714 C25.435619,1.88571429 25.5864762,1.80171429 25.6773333,1.82057143 C25.7287619,1.83257143 25.7527619,1.848 25.747619,1.89942857 C25.7407619,1.96971429 25.7767619,1.98685714 25.8401905,1.98514286 C25.891619,1.98342857 25.9430476,1.98685714 25.9927619,1.99371429 C26.0133333,1.99714286 26.047619,2.01428571 26.047619,2.02285714 C26.0407619,2.16685714 26.1539048,2.12571429 26.2241905,2.13085714 C26.3030476,2.13771429 26.3767619,2.12914286 26.3630476,2.24571429 C26.3613333,2.25942857 26.4024762,2.28857143 26.4264762,2.29542857 C26.4761905,2.30571429 26.5293333,2.31085714 26.5790476,2.30571429 C26.683619,2.292 26.6407619,2.388 26.6767619,2.42057143 C26.7093333,2.45314286 26.8121905,2.46342857 26.8104762,2.47885714 C26.7967619,2.64685714 26.9287619,2.58857143 27.0041905,2.60742857 C27.0624762,2.62114286 27.127619,2.60228571 27.1224762,2.69828571 C27.1207619,2.712 27.163619,2.73771429 27.1893333,2.74285714 C27.2441905,2.75485714 27.3007619,2.75142857 27.355619,2.76171429 C27.3779048,2.76514286 27.4139048,2.79257143 27.4121905,2.80457143 C27.4019048,2.916 27.4653333,2.92628571 27.5493333,2.92114286 C27.5630476,2.91942857 27.5921905,2.93828571 27.5904762,2.94685714 C27.5767619,3.08742857 27.691619,3.05314286 27.7601905,3.06342857 C27.8339048,3.07542857 27.9059048,3.06857143 27.8939048,3.17485714 C27.8939048,3.18 27.8939048,3.18685714 27.895619,3.18857143 C27.9847619,3.21942857 28.0361905,3.30171429 28.1047619,3.35828571 C28.1373333,3.38571429 28.195619,3.37371429 28.195619,3.44571429 C28.195619,3.46285714 28.2350476,3.48857143 28.2607619,3.49542857 C28.3104762,3.50742857 28.3619048,3.51257143 28.411619,3.51257143 C28.4664762,3.51257143 28.4853333,3.53314286 28.4870476,3.58628571 C28.4887619,3.61714286 28.5144762,3.67028571 28.5299048,3.67028571 C28.6139048,3.67028571 28.6790476,3.68057143 28.6653333,3.78857143 C28.7784762,3.79714286 28.8179048,3.87085714 28.831619,3.97028571 C28.831619,3.97714286 28.8830476,3.97371429 28.9087619,3.98057143 C28.9310476,3.984 28.9704762,3.99257143 28.9704762,4.00114286 C28.9807619,4.16228571 29.1110476,4.11085714 29.1984762,4.13142857 C29.2121905,4.13485714 29.239619,4.13657143 29.239619,4.13657143 C29.2293333,4.26857143 29.3921905,4.27714286 29.4093333,4.37142857 C29.4350476,4.48971429 29.5361905,4.39885714 29.575619,4.452 C29.611619,4.49828571 29.5361905,4.608 29.6647619,4.60285714 C29.6853333,4.60285714 29.7230476,4.62857143 29.7230476,4.64057143 C29.719619,4.71942857 29.7521905,4.75028571 29.8310476,4.74514286 C29.839619,4.74342857 29.8653333,4.76742857 29.8653333,4.776 C29.8550476,4.87542857 29.887619,4.93028571 29.995619,4.91142857 C30.0299048,5.00057143 30.1310476,5.03657143 30.1721905,5.11028571 C30.199619,5.16342857 30.2099048,5.196 30.271619,5.18742857 C30.3367619,5.18057143 30.3521905,5.21657143 30.3470476,5.27314286 C30.3419048,5.328 30.3573333,5.36228571 30.4224762,5.35714286 C30.5304762,5.35028571 30.4567619,5.46171429 30.5064762,5.48742857 C30.5510476,5.50971429 30.6419048,5.51485714 30.6453333,5.53542857 C30.6573333,5.616 30.6573333,5.68628571 30.7653333,5.67085714 C30.7790476,5.78057143 30.8493333,5.82171429 30.9521905,5.83028571 C30.9573333,5.83028571 30.9624762,5.87314286 30.9607619,5.89542857 C30.9590476,5.95028571 30.9710476,5.98628571 31.0379048,5.98114286 C31.0533333,5.98114286 31.0859048,5.99142857 31.0859048,5.99657143 C31.0824762,6.10628571 31.1441905,6.13542857 31.2419048,6.13371429 C31.2487619,6.13371429 31.2573333,6.18171429 31.2624762,6.20571429 C31.2881905,6.28971429 31.2419048,6.41657143 31.3944762,6.42171429 C31.4081905,6.51942857 31.447619,6.59828571 31.5504762,6.62742857 C31.5367619,6.72857143 31.6001905,6.72857143 31.675619,6.74228571 C31.7081905,6.74914286 31.7150476,6.84857143 31.7561905,6.87257143 C31.7990476,6.89657143 31.867619,6.87771429 31.855619,6.96514286 C31.8521905,6.99257143 31.8624762,7.02171429 31.8641905,7.04914286 C31.867619,7.12285714 31.8744762,7.19314286 31.9773333,7.176 C31.9859048,7.17428571 32.0047619,7.17942857 32.0047619,7.17942857 C31.9927619,7.30628571 32.1333333,7.33371429 32.1641905,7.42457143 C32.1813333,7.48114286 32.1933333,7.50685714 32.251619,7.50171429 C32.3150476,7.49657143 32.3304762,7.53085714 32.3304762,7.58742857 C32.3304762,7.63028571 32.3459048,7.67142857 32.3407619,7.71257143 C32.3304762,7.81371429 32.4230476,7.776 32.455619,7.80857143 C32.4899048,7.84457143 32.4899048,7.96285714 32.5053333,7.96285714 C32.695619,7.95771429 32.6270476,8.10514286 32.6527619,8.19771429 C32.659619,8.22685714 32.6870476,8.27142857 32.7041905,8.27142857 C32.7779048,8.27314286 32.779619,8.31085714 32.7881905,8.36914286 C32.7984762,8.448 32.7710476,8.56114286 32.9167619,8.55257143 C32.9287619,8.55257143 32.9459048,8.60914286 32.9579048,8.64 C32.9681905,8.66742857 32.9767619,8.72228571 32.9853333,8.72228571 C33.1293333,8.71371429 33.0899048,8.82514286 33.0967619,8.89714286 C33.1053333,8.97428571 33.0899048,9.05142857 33.2081905,9.03771429 C33.223619,9.036 33.2561905,9.07542857 33.259619,9.09942857 C33.2699048,9.15428571 33.2664762,9.21085714 33.271619,9.26742857 C33.2750476,9.288 33.2853333,9.32742857 33.2921905,9.32742857 C33.4687619,9.33085714 33.391619,9.47142857 33.4104762,9.55371429 C33.4241905,9.60171429 33.4207619,9.64114286 33.4859048,9.648 C33.5081905,9.64971429 33.535619,9.69257143 33.5424762,9.72 C33.5527619,9.76457143 33.5544762,9.81257143 33.5527619,9.85885714 C33.5510476,9.91885714 33.5647619,9.96 33.6367619,9.95314286 C33.7001905,9.948 33.7139048,9.984 33.7139048,10.0388571 C33.7121905,10.0902857 33.715619,10.1417143 33.7241905,10.1931429 C33.727619,10.2154286 33.7481905,10.2565714 33.7601905,10.2565714 C33.8579048,10.2531429 33.8510476,10.3182857 33.8544762,10.3851429 C33.8561905,10.4691429 33.8373333,10.5737143 33.9830476,10.5565714 C33.991619,10.5565714 34.0139048,10.596 34.0173333,10.62 C34.0241905,10.68 34.0190476,10.7417143 34.027619,10.8017143 C34.0293333,10.824 34.051619,10.8617143 34.0653333,10.86 C34.1579048,10.8582857 34.1544762,10.9165714 34.1561905,10.9817143 C34.1579048,11.0691429 34.1699048,11.1582857 34.1699048,11.2457143 C34.171619,11.304 34.1870476,11.3382857 34.2487619,11.3314286 C34.3241905,11.3245714 34.3310476,11.3708571 34.3293333,11.4291429 C34.327619,11.4805714 34.3293333,11.532 34.3344762,11.5834286 C34.3361905,11.6074286 34.3533333,11.6485714 34.363619,11.6485714 C34.4819048,11.6537143 34.459619,11.7462857 34.4681905,11.8131429 C34.4767619,11.8782857 34.4750476,11.9451429 34.4750476,12.0102857 C34.471619,12.0702857 34.4853333,12.1097143 34.555619,12.1062857 C34.6224762,12.1028571 34.6259048,12.1491429 34.6293333,12.2005714 C34.6361905,12.336 34.6430476,12.4714286 34.6550476,12.6051429 C34.6567619,12.6342857 34.6739048,12.6874286 34.687619,12.6874286 C34.8059048,12.6977143 34.7733333,12.7851429 34.7784762,12.8537143 C34.7819048,12.9154286 34.7853333,12.9754286 34.783619,13.0354286 C34.7819048,13.1108571 34.783619,13.1777143 34.891619,13.1725714 C34.9053333,13.1708571 34.9361905,13.224 34.9379048,13.2514286 C34.9464762,13.3971429 34.9481905,13.5411429 34.9550476,13.6868571 C34.9567619,13.716 34.9670476,13.7708571 34.9773333,13.7725714 C35.1161905,13.7914286 35.0784762,13.8994286 35.083619,13.9782857 C35.0939048,14.1308571 35.0921905,14.2868571 35.0973333,14.4411429 C35.0990476,14.4702857 35.107619,14.5251429 35.119619,14.5268571 C35.2584762,14.5474286 35.2190476,14.6571429 35.2224762,14.736 C35.2327619,14.9965714 35.2344762,15.2588571 35.2379048,15.5211429 C35.239619,15.5811429 35.2379048,15.6342857 35.3201905,15.636 C35.3990476,15.6377143 35.3870476,15.7011429 35.3870476,15.7508571 C35.3921905,16.116 35.4007619,16.4794286 35.4007619,16.8445714 C35.3990476,17.7668571 35.3939048,18.6874286 35.3904762,19.608 C35.3887619,19.6834286 35.4041905,19.7622857 35.2859048,19.7674286 C35.2687619,19.7691429 35.2430476,19.8308571 35.2430476,19.8668571 C35.2344762,20.1085714 35.2310476,20.352 35.2259048,20.5954286 C35.2241905,20.6468571 35.2241905,20.6982857 35.2190476,20.7497143 C35.215619,20.7702857 35.2053333,20.808 35.1950476,20.808 C35.0630476,20.8217143 35.1007619,20.9245714 35.095619,21 C35.0870476,21.1628571 35.0870476,21.3274286 35.0784762,21.4902857 C35.0784762,21.5194286 35.059619,21.5691429 35.0459048,21.5691429 C34.9379048,21.5777143 34.9584762,21.6548571 34.9550476,21.7234286 C34.951619,21.8485714 34.9447619,21.9754286 34.9430476,22.1005714 C34.9430476,22.1588571 34.9379048,22.2051429 34.8641905,22.2 C34.7990476,22.1965714 34.7887619,22.236 34.7870476,22.2891429 C34.783619,22.4348571 34.7784762,22.5788571 34.7681905,22.7245714 C34.7664762,22.752 34.7390476,22.8017143 34.7201905,22.8034286 C34.6464762,22.8085714 34.6430476,22.8531429 34.6430476,22.9097143 C34.6413333,22.9988571 34.6327619,23.088 34.6327619,23.1754286 C34.6327619,23.2337143 34.6173333,23.2662857 34.5539048,23.2611429 C34.4784762,23.2542857 34.4750476,23.304 34.4750476,23.3605714 C34.4750476,23.4394286 34.471619,23.52 34.4647619,23.5971429 C34.4613333,23.664 34.4887619,23.748 34.3704762,23.7428571 C34.3601905,23.7428571 34.339619,23.784 34.3361905,23.808 C34.3310476,23.8628571 34.3293333,23.9194286 34.3310476,23.976 C34.3327619,24.0308571 34.3190476,24.0668571 34.255619,24.0634286 C34.1921905,24.0582857 34.1767619,24.096 34.1750476,24.1508571 C34.171619,24.2262857 34.1630476,24.3 34.159619,24.3754286 C34.1579048,24.4405714 34.1699048,24.5108571 34.0653333,24.5057143 C34.0533333,24.5057143 34.0327619,24.5434286 34.0293333,24.5657143 C34.0224762,24.6171429 34.0207619,24.6685714 34.0207619,24.72 C34.0224762,24.7782857 34.015619,24.8228571 33.9401905,24.816 C33.8784762,24.8091429 33.8613333,24.8434286 33.8613333,24.9 C33.8613333,24.9754286 33.8527619,25.0491429 33.8459048,25.1245714 C33.8407619,25.1828571 33.847619,25.2497143 33.7567619,25.2514286 C33.7413333,25.2514286 33.7207619,25.2977143 33.715619,25.3234286 C33.7070476,25.3748571 33.703619,25.4262857 33.703619,25.476 C33.7019048,25.5274286 33.6847619,25.56 33.6299048,25.5548571 C33.5459048,25.5462857 33.5459048,25.6011429 33.5459048,25.6628571 C33.5459048,25.7074286 33.5407619,25.7537143 33.5339048,25.8017143 C33.5321905,25.8171429 33.5219048,25.8497143 33.5167619,25.8497143 C33.3590476,25.8497143 33.4173333,25.9748571 33.4001905,26.052 C33.3847619,26.112 33.3881905,26.1702857 33.3007619,26.1788571 C33.2853333,26.1788571 33.2784762,26.2474286 33.2613333,26.2817143 C33.2493333,26.3091429 33.2253333,26.3554286 33.2081905,26.3554286 C33.1173333,26.3485714 33.103619,26.3948571 33.1001905,26.472 C33.0967619,26.5457143 33.1207619,26.6537143 32.983619,26.6434286 C32.9767619,26.6434286 32.9647619,26.6811429 32.9613333,26.7017143 C32.9561905,26.7531429 32.9493333,26.8045714 32.9510476,26.856 C32.9527619,26.916 32.9287619,26.9434286 32.8687619,26.9365714 C32.7967619,26.928 32.7813333,26.9691429 32.7881905,27.0291429 C32.791619,27.0822857 32.7830476,27.1182857 32.7161905,27.1217143 C32.6939048,27.1234286 32.6664762,27.1645714 32.6579048,27.192 C32.6459048,27.2365714 32.647619,27.2845714 32.6441905,27.3308571 C32.6424762,27.3497143 32.6424762,27.384 32.6390476,27.384 C32.5207619,27.3891429 32.4967619,27.5108571 32.4230476,27.5605714 C32.3767619,27.5948571 32.347619,27.6102857 32.347619,27.6668571 C32.347619,27.7097143 32.3339048,27.7508571 32.3339048,27.7937143 C32.335619,27.8468571 32.3133333,27.8657143 32.2601905,27.8674286 C32.2327619,27.8674286 32.179619,27.8828571 32.179619,27.8931429 C32.1744762,27.9822857 32.1710476,28.056 32.0510476,28.0645714 C32.0390476,28.0645714 32.0253333,28.1657143 32.0253333,28.2205714 C32.023619,28.284 32.0081905,28.3182857 31.9379048,28.3097143 C31.9190476,28.308 31.9019048,28.3131429 31.8830476,28.3148571 C31.903619,28.4485714 31.7630476,28.4708571 31.7201905,28.56 C31.7064762,28.5874286 31.6790476,28.6268571 31.6601905,28.6268571 C31.5624762,28.6182857 31.5624762,28.6714286 31.5521905,28.7451429 C31.5453333,28.8154286 31.579619,28.9302857 31.4407619,28.9285714 C31.4304762,28.9285714 31.4081905,28.9542857 31.4099048,28.9662857 C31.4167619,29.052 31.399619,29.1137143 31.2933333,29.1017143 C31.2881905,29.2217143 31.2059048,29.2474286 31.111619,29.2645714 C31.1030476,29.2662857 31.1099048,29.3177143 31.1013333,29.3451429 C31.0944762,29.3691429 31.0773333,29.4068571 31.0653333,29.4068571 C30.9899048,29.4051429 30.955619,29.4325714 30.9607619,29.5131429 C30.9607619,29.5251429 30.9213333,29.5542857 30.9041905,29.5525714 C30.811619,29.5422857 30.787619,29.5868571 30.7961905,29.6657143 C30.7979048,29.6828571 30.7790476,29.7154286 30.7790476,29.7154286 C30.6367619,29.6657143 30.6933333,29.8748571 30.5853333,29.8662857 C30.5270476,29.8628571 30.5133333,29.8902857 30.4841905,29.9451429 C30.4430476,30.024 30.3281905,30.06 30.3213333,30.1731429 C30.223619,30.1611429 30.1790476,30.2074286 30.1721905,30.3034286 C30.1704762,30.3085714 30.139619,30.3188571 30.1224762,30.3171429 C30.0573333,30.3154286 30.043619,30.3531429 30.0470476,30.408 C30.0487619,30.456 30.0350476,30.492 29.9767619,30.4868571 C29.9081905,30.4817143 29.8721905,30.5057143 29.875619,30.5811429 C29.875619,30.5948571 29.8464762,30.624 29.8327619,30.624 C29.7487619,30.6205714 29.7333333,30.6685714 29.7350476,30.7371429 C29.7350476,30.756 29.7144762,30.7902857 29.7024762,30.7902857 C29.6287619,30.792 29.587619,30.8177143 29.5944762,30.8965714 C29.4813333,30.924 29.4384762,31.0148571 29.3784762,31.0971429 C29.3544762,31.128 29.2824762,31.128 29.2841905,31.2 C29.2841905,31.2154286 29.2567619,31.2411429 29.2413333,31.2411429 C29.1539048,31.2377143 29.107619,31.2634286 29.1179048,31.3611429 C29.1179048,31.3765714 29.0939048,31.4074286 29.0819048,31.4074286 C29.0030476,31.4057143 28.975619,31.4451429 28.9739048,31.5188571 C28.9739048,31.5291429 28.9430476,31.5462857 28.9224762,31.5514286 C28.8967619,31.56 28.8419048,31.56 28.8419048,31.5617143 C28.8453333,31.6851429 28.7150476,31.7074286 28.6721905,31.7948571 C28.6670476,31.8068571 28.6704762,31.8325714 28.6653333,31.8325714 C28.5659048,31.8531429 28.5179048,31.9251429 28.4544762,31.9937143 C28.4184762,32.0297143 28.3533333,32.0348571 28.3619048,32.1102857 C28.3619048,32.1188571 28.3584762,32.1377143 28.3567619,32.1377143 C28.2419048,32.1445714 28.2093333,32.2628571 28.1270476,32.3074286 C28.0790476,32.3314286 28.0499048,32.3451429 28.0533333,32.4 C28.0567619,32.448 28.0447619,32.484 27.9847619,32.4805714 C27.9813333,32.4805714 27.9744762,32.4788571 27.9727619,32.4822857 C27.9333333,32.5268571 27.9007619,32.604 27.8544762,32.6125714 C27.7721905,32.6262857 27.7344762,32.6451429 27.7430476,32.7325714 C27.7447619,32.7462857 27.7310476,32.7788571 27.7224762,32.7788571 C27.6401905,32.7805714 27.5904762,32.8114286 27.5990476,32.9022857 C27.4824762,32.9142857 27.4259048,32.9845714 27.4053333,33.0925714 C27.3264762,33.0874286 27.2853333,33.1234286 27.2887619,33.2074286 C27.2887619,33.216 27.2613333,33.2365714 27.2493333,33.2365714 C27.1464762,33.2245714 27.1190476,33.2777143 27.1224762,33.3668571 C27.1224762,33.3788571 27.1001905,33.4011429 27.0899048,33.4011429 C27.0110476,33.3977143 26.9801905,33.4354286 26.9801905,33.5108571 C26.9801905,33.5228571 26.947619,33.5434286 26.9304762,33.5434286 C26.8619048,33.5434286 26.8430476,33.5742857 26.8087619,33.636 C26.767619,33.7062857 26.6579048,33.7371429 26.6527619,33.8485714 C26.6510476,33.852 26.6099048,33.852 26.5859048,33.8571429 C26.563619,33.8622857 26.5241905,33.876 26.5241905,33.876 C26.5619048,34.0131429 26.3630476,33.9651429 26.3699048,34.0748571 C26.3750476,34.14 26.3493333,34.1708571 26.2824762,34.1657143 C26.2344762,34.1622857 26.1984762,34.1742857 26.2001905,34.2342857 C26.2019048,34.2411429 26.203619,34.2565714 26.1984762,34.26 C26.1539048,34.296 26.0819048,34.3217143 26.0681905,34.3662857 C26.0493333,34.4297143 26.0270476,34.4485714 25.9739048,34.4845714 C25.903619,34.5325714 25.8659048,34.632 25.7613333,34.6422857 C25.7561905,34.6422857 25.7510476,34.6765714 25.7544762,34.6954286 C25.7699048,34.8051429 25.6601905,34.7605714 25.627619,34.8034286 C25.5950476,34.8462857 25.6259048,34.9457143 25.5179048,34.9234286 C25.5041905,34.9217143 25.4767619,34.9268571 25.4767619,34.9285714 C25.471619,35.0434286 25.3619048,35.0828571 25.3053333,35.1582857 C25.2967619,35.1668571 25.3001905,35.196 25.2984762,35.196 C25.183619,35.2045714 25.1493333,35.3228571 25.0670476,35.3657143 C25.0173333,35.3897143 24.9899048,35.4051429 24.9950476,35.4582857 C25.0001905,35.5217143 24.9710476,35.544 24.9110476,35.5388571 C24.8544762,35.5354286 24.8459048,35.5731429 24.8201905,35.6142857 C24.7687619,35.6931429 24.6624762,35.7325714 24.6504762,35.844 C24.5681905,35.8422857 24.5013333,35.8577143 24.5081905,35.9622857 C24.5099048,35.9708571 24.4790476,35.9828571 24.4653333,35.988 C24.4464762,35.9931429 24.4104762,35.9914286 24.4104762,35.9948571 C24.4070476,36.1131429 24.283619,36.1422857 24.2407619,36.2262857 C24.2201905,36.2674286 24.2133333,36.3034286 24.1619048,36.2982857 C24.0847619,36.2897143 24.0641905,36.3274286 24.0659048,36.396 C24.0659048,36.4182857 24.043619,36.4577143 24.0299048,36.4594286 C23.9527619,36.4594286 23.947619,36.5434286 23.9184762,36.5605714 C23.8259048,36.612 23.7419048,36.6548571 23.7264762,36.7697143 C23.6407619,36.7628571 23.6099048,36.8091429 23.6133333,36.8862857 C23.5019048,36.9017143 23.4384762,36.9651429 23.4213333,37.0782857 C23.3441905,37.0748571 23.2979048,37.104 23.3047619,37.1897143 C23.203619,37.2102857 23.1573333,37.3011429 23.0870476,37.356 C23.0424762,37.3885714 22.9944762,37.3988571 23.0013333,37.4657143 C23.0047619,37.524 22.9670476,37.5342857 22.9190476,37.5325714 C22.8624762,37.5291429 22.8539048,37.5617143 22.8281905,37.6062857 C22.7801905,37.6868571 22.6670476,37.7228571 22.6584762,37.836 C22.5710476,37.8291429 22.5453333,37.8788571 22.5470476,37.9542857 C22.4321905,37.9662857 22.3739048,38.0348571 22.3550476,38.1445714 C22.2744762,38.1394286 22.2333333,38.1737143 22.2367619,38.2577143 C22.2367619,38.268 22.1990476,38.2902857 22.183619,38.2885714 C22.0927619,38.28 22.0670476,38.3211429 22.0721905,38.4034286 C22.0721905,38.4205714 22.0481905,38.4514286 22.0379048,38.4514286 C21.9607619,38.4514286 21.955619,38.5337143 21.9247619,38.5525714 C21.835619,38.604 21.7464762,38.64 21.7327619,38.7582857 C21.6539048,38.7514286 21.6093333,38.7788571 21.6144762,38.868 C21.6144762,38.8782857 21.5630476,38.8988571 21.5373333,38.8988571 C21.4807619,38.9005714 21.4464762,38.9091429 21.4499048,38.976 C21.4550476,39.0822857 21.3453333,39.0085714 21.319619,39.0565714 C21.2939048,39.0994286 21.283619,39.1937143 21.2681905,39.1937143 C21.175619,39.192 21.1344762,39.228 21.1019048,39.3137143 C21.0899048,39.3428571 20.9904762,39.3462857 20.9321905,39.348 C20.8687619,39.3514286 20.8207619,39.3565714 20.8310476,39.4388571 C20.839619,39.5057143 20.8001905,39.516 20.7453333,39.5142857 C20.7024762,39.5142857 20.6613333,39.5177143 20.6201905,39.5262857 C20.5979048,39.5314286 20.5619048,39.5537143 20.5619048,39.5674286 C20.5670476,39.6617143 20.5070476,39.6582857 20.443619,39.6565714 C20.4024762,39.6565714 20.3579048,39.66 20.3184762,39.6685714 C20.2944762,39.6754286 20.2584762,39.6977143 20.2584762,39.7114286 C20.2670476,39.8365714 20.1847619,39.8194286 20.1041905,39.8245714 C20.0287619,39.8297143 19.9259048,39.8057143 19.9259048,39.9394286 C19.9259048,39.948 19.8813333,39.9582857 19.8539048,39.96 C19.7527619,39.9685714 19.6481905,39.9685714 19.5470476,39.9805714 C19.519619,39.984 19.4733333,40.02 19.4733333,40.0388571 C19.4733333,40.1262857 19.423619,40.1348571 19.3550476,40.1314286 C19.2847619,40.1297143 19.2144762,40.1331429 19.1459048,40.1365714 C19.0790476,40.14 19.0001905,40.1177143 18.991619,40.2291429 C18.9899048,40.2428571 18.9230476,40.2634286 18.8853333,40.2634286 C18.367619,40.2702857 17.8481905,40.2771429 17.3287619,40.2788571 C17.0527619,40.2788571 16.7767619,40.2702857 16.5007619,40.2617143 C16.4681905,40.26 16.4099048,40.2342857 16.4064762,40.2137143 C16.3961905,40.14 16.3533333,40.1382857 16.2967619,40.1382857 C16.2264762,40.1382857 16.1579048,40.1348571 16.087619,40.1331429 C16.0104762,40.1314286 15.9213333,40.152 15.9281905,40.0234286 C15.9299048,40.0097143 15.8819048,39.9822857 15.8544762,39.9788571 C15.7704762,39.9685714 15.6864762,39.9668571 15.6024762,39.9617143 C15.5373333,39.9582857 15.4584762,39.984 15.4550476,39.8708571 C15.4550476,39.8554286 15.379619,39.84 15.3384762,39.8297143 C15.2664762,39.8125714 15.1550476,39.8554286 15.1721905,39.7097143 C15.1739048,39.6977143 15.1344762,39.672 15.1121905,39.6685714 C15.0573333,39.66 15.0007619,39.6617143 14.9441905,39.6548571 C14.923619,39.6531429 14.8841905,39.6428571 14.8841905,39.636 C14.8841905,39.468 14.7504762,39.5314286 14.6699048,39.5177143 C14.6099048,39.5057143 14.5601905,39.504 14.5704762,39.4234286 C14.5790476,39.3565714 14.5379048,39.3497143 14.4847619,39.3497143 C14.4384762,39.3497143 14.3904762,39.3445714 14.3459048,39.3308571 C14.3201905,39.324 14.2824762,39.2982857 14.2807619,39.2777143 C14.2721905,39.1645714 14.1727619,39.2314286 14.1367619,39.1971429 C14.0973333,39.1611429 14.0904762,39.0548571 14.059619,39.0497143 C13.9790476,39.036 13.9413333,39.0188571 13.9430476,38.9331429 C13.9447619,38.9228571 13.8933333,38.9022857 13.8641905,38.9022857 C13.807619,38.9022857 13.7784762,38.8868571 13.7784762,38.8234286 C13.7767619,38.8045714 13.7459048,38.7805714 13.723619,38.7651429 C13.7099048,38.7548571 13.6704762,38.76 13.6704762,38.7582857 C13.6687619,38.6382857 13.5401905,38.6142857 13.5024762,38.5302857 C13.4784762,38.4771429 13.4630476,38.4531429 13.4081905,38.4582857 C13.3481905,38.4634286 13.3224762,38.436 13.327619,38.376 C13.3327619,38.3194286 13.315619,38.2868571 13.2504762,38.2885714 C13.231619,38.2885714 13.1939048,38.2697143 13.195619,38.2611429 C13.1990476,38.1668571 13.1510476,38.1377143 13.0653333,38.148 C13.0619048,38.148 13.0533333,38.1462857 13.0533333,38.1445714 C13.0464762,38.028 12.9299048,37.9971429 12.8853333,37.9148571 C12.859619,37.8702857 12.8493333,37.836 12.7944762,37.8411429 C12.775619,37.8411429 12.7413333,37.8377143 12.739619,37.8342857 C12.727619,37.7262857 12.6299048,37.6851429 12.5784762,37.6131429 C12.5459048,37.572 12.5441905,37.524 12.4790476,37.5308571 C12.415619,37.5377143 12.4019048,37.5017143 12.4001905,37.4468571 C12.3984762,37.4194286 12.3761905,37.3714286 12.3624762,37.3714286 C12.2870476,37.3697143 12.2527619,37.3388571 12.2561905,37.2617143 C12.2579048,37.2514286 12.2424762,37.2325714 12.2339048,37.2325714 C12.1481905,37.2325714 12.0761905,37.2171429 12.0830476,37.1057143 C12.0830476,37.0988571 12.0521905,37.0902857 12.0350476,37.0851429 C12.0179048,37.08 11.9819048,37.0817143 11.9819048,37.0765714 C11.971619,36.9685714 11.8721905,36.9291429 11.8190476,36.8554286 C11.7899048,36.8142857 11.7864762,36.768 11.7213333,36.7748571 C11.6579048,36.7817143 11.6441905,36.744 11.6407619,36.6891429 C11.6407619,36.6634286 11.6184762,36.6137143 11.6047619,36.6137143 C11.5293333,36.6102857 11.4933333,36.5811429 11.5001905,36.504 C11.3853333,36.48 11.3441905,36.3891429 11.2841905,36.3051429 C11.2619048,36.276 11.1899048,36.2777143 11.1881905,36.204 C11.1881905,36.1868571 11.1350476,36.1731429 11.1059048,36.1577143 C11.0801905,36.1405714 11.0304762,36.12 11.0304762,36.1011429 C11.0339048,36.0205714 11.0081905,35.9777143 10.9207619,35.9828571 C10.9104762,35.9828571 10.8881905,35.9571429 10.8899048,35.9451429 C10.8950476,35.8628571 10.8504762,35.8388571 10.7784762,35.8474286 C10.7681905,35.8474286 10.7510476,35.844 10.7510476,35.8422857 C10.7459048,35.7274286 10.6259048,35.6948571 10.5830476,35.6125714 C10.5573333,35.5662857 10.5470476,35.5354286 10.4904762,35.5388571 C10.4733333,35.5388571 10.4390476,35.5371429 10.4390476,35.532 C10.4201905,35.4342857 10.3481905,35.3845714 10.2779048,35.3211429 C10.243619,35.2885714 10.2350476,35.2251429 10.1630476,35.2251429 C10.1544762,35.2268571 10.1339048,35.2097143 10.1339048,35.2011429 C10.1407619,35.1051429 10.0893333,35.0794286 10.0070476,35.088 C10.0019048,35.0897143 9.99333333,35.0862857 9.99333333,35.0862857 C9.98819048,34.9697143 9.88361905,34.9302857 9.82019048,34.8582857 C9.81504762,34.8531429 9.82190476,34.8342857 9.8167619,34.8325714 C9.76361905,34.8068571 9.70190476,34.7931429 9.6607619,34.7537143 C9.62133333,34.7194286 9.68990476,34.6114286 9.5767619,34.6114286 C9.55619048,34.6114286 9.51847619,34.5942857 9.51847619,34.5874286 C9.52533333,34.4794286 9.45847619,34.4657143 9.37790476,34.4674286 C9.3727619,34.4674286 9.36590476,34.464 9.36590476,34.464 C9.39847619,34.3217143 9.21161905,34.3285714 9.19619048,34.2171429 C9.19447619,34.1965714 9.1567619,34.176 9.13104762,34.1657143 C9.11219048,34.1571429 9.06590476,34.1605714 9.06590476,34.1588571 C9.06590476,34.0371429 8.93219048,34.0148571 8.89790476,33.9274286 C8.87561905,33.8708571 8.85504762,33.8571429 8.80361905,33.8537143 C8.77619048,33.852 8.73161905,33.828 8.72990476,33.8125714 C8.7247619,33.7371429 8.71961905,33.6702857 8.61847619,33.6805714 C8.60819048,33.6805714 8.58590476,33.6548571 8.58761905,33.6428571 C8.5927619,33.5554286 8.5447619,33.54 8.47447619,33.5434286 C8.45733333,33.5451429 8.42647619,33.5262857 8.42647619,33.5245714 C8.47447619,33.384 8.25847619,33.4422857 8.27561905,33.3274286 C8.2927619,33.2177143 8.18819048,33.2588571 8.15219048,33.2211429 C8.11619048,33.18 8.15219048,33.0788571 8.04247619,33.096 C8.02533333,33.0994286 8.00647619,33.0925714 7.98761905,33.0891429 C8.02361905,32.9468571 7.83333333,32.9537143 7.82133333,32.8405714 C7.81961905,32.8217143 7.79047619,32.8011429 7.76819048,32.7925714 C7.74419048,32.7822857 7.68933333,32.7891429 7.68933333,32.7822857 C7.67390476,32.6742857 7.57790476,32.6348571 7.5247619,32.5611429 C7.49390476,32.5182857 7.4887619,32.4737143 7.42533333,32.4788571 C7.40647619,32.4805714 7.38933333,32.4737143 7.37047619,32.4702857 C7.40647619,32.328 7.21447619,32.3365714 7.20419048,32.2234286 C7.20247619,32.2045714 7.17161905,32.1822857 7.15104762,32.1737143 C7.12533333,32.1651429 7.07219048,32.1702857 7.07047619,32.1651429 C7.0567619,32.0571429 6.95904762,32.0177143 6.90761905,31.944 C6.8767619,31.8994286 6.86990476,31.8582857 6.80647619,31.8617143 C6.78590476,31.8634286 6.76361905,31.8497143 6.74304762,31.8445714 C6.78247619,31.7074286 6.58533333,31.7537143 6.59047619,31.6457143 C6.59561905,31.5822857 6.5527619,31.5771429 6.50990476,31.5462857 C6.43619048,31.4948571 6.3967619,31.3954286 6.2887619,31.3817143 C6.28361905,31.3817143 6.29047619,31.3354286 6.28019048,31.3165714 C6.2647619,31.2908571 6.24247619,31.2617143 6.2167619,31.2462857 C6.12933333,31.1965714 6.09847619,31.0731429 5.97847619,31.0697143 C5.97847619,30.9891429 5.96647619,30.9205714 5.86019048,30.9291429 C5.85161905,30.9291429 5.83447619,30.9 5.83447619,30.8845714 C5.83961905,30.8057143 5.79333333,30.7971429 5.72819048,30.7937143 C5.70761905,30.792 5.66990476,30.7594286 5.66819048,30.7388571 C5.6647619,30.6702857 5.63561905,30.6531429 5.57561905,30.6171429 C5.50533333,30.576 5.4727619,30.4662857 5.36304762,30.4611429 C5.35961905,30.4611429 5.35961905,30.4182857 5.35447619,30.3942857 C5.34933333,30.3737143 5.33561905,30.3325714 5.33561905,30.3325714 C5.1967619,30.3737143 5.24990476,30.1697143 5.13847619,30.1782857 C5.07333333,30.1834286 5.04590476,30.1594286 5.04761905,30.0908571 C5.04761905,30.0651429 5.02533333,30.0171429 5.01161905,30.0154286 C4.93619048,30.0154286 4.90190476,29.9845714 4.90533333,29.9074286 C4.90704762,29.8954286 4.8847619,29.8714286 4.8727619,29.8714286 C4.79733333,29.8748571 4.76133333,29.8457143 4.76647619,29.7668571 C4.76819048,29.7531429 4.73733333,29.7274286 4.72190476,29.7291429 C4.63447619,29.736 4.58819048,29.7068571 4.60190476,29.6108571 C4.60361905,29.5954286 4.58819048,29.5645714 4.58304762,29.5645714 C4.48704762,29.5697143 4.45619048,29.5165714 4.45619048,29.4308571 C4.45619048,29.4257143 4.44247619,29.4154286 4.43561905,29.4171429 C4.32761905,29.4291429 4.28133333,29.3845714 4.29504762,29.2765714 C4.2967619,29.2662857 4.2727619,29.2525714 4.25904762,29.2422857 C4.25219048,29.2388571 4.24019048,29.2388571 4.22990476,29.2405714 C4.10819048,29.2628571 4.20933333,29.0914286 4.11161905,29.0982857 C4.01733333,29.1068571 3.98133333,29.0725714 3.99333333,28.9817143 C3.99504762,28.9662857 3.98304762,28.9354286 3.97619048,28.9337143 C3.81333333,28.9251429 3.85790476,28.7965714 3.84590476,28.704 C3.83904762,28.6542857 3.82704762,28.6302857 3.77219048,28.6285714 C3.74133333,28.6268571 3.68819048,28.6028571 3.68647619,28.5891429 C3.6847619,28.5171429 3.66590476,28.476 3.58361905,28.4777143 C3.57161905,28.4777143 3.54590476,28.4228571 3.54590476,28.392 C3.54419048,28.3354286 3.5287619,28.3028571 3.46533333,28.3097143 C3.3967619,28.3182857 3.38647619,28.284 3.37619048,28.2222857 C3.36419048,28.1502857 3.41047619,28.0251429 3.25961905,28.032 C3.25104762,28.0337143 3.23390476,27.9788571 3.23219048,27.9514286 C3.23219048,27.8948571 3.22361905,27.8571429 3.1567619,27.8657143 C3.07619048,27.8777143 3.06419048,27.8297143 3.06590476,27.7645714 C3.06761905,27.7285714 3.05390476,27.6908571 3.05390476,27.6548571 C3.05561905,27.5965714 3.01619048,27.5914286 2.97847619,27.5622857 C2.90819048,27.5125714 2.88247619,27.4097143 2.78990476,27.3702857 C2.77447619,27.3634286 2.78819048,27.3 2.78304762,27.2622857 C2.77619048,27.1851429 2.7847619,27.0942857 2.65961905,27.1114286 C2.64761905,27.1131429 2.61847619,27.0582857 2.6167619,27.0291429 C2.61504762,26.9708571 2.60819048,26.9314286 2.53447619,26.9331429 C2.51733333,26.9331429 2.48819048,26.8937143 2.48304762,26.8714286 C2.4727619,26.82 2.46933333,26.7685714 2.47104762,26.7171429 C2.4727619,26.6588571 2.45219048,26.628 2.39047619,26.6348571 C2.32019048,26.6434286 2.3047619,26.604 2.30647619,26.5422857 C2.30819048,26.5011429 2.3047619,26.4582857 2.29619048,26.4188571 C2.28933333,26.3965714 2.26533333,26.364 2.24990476,26.364 C2.16590476,26.3674286 2.16761905,26.3142857 2.16419048,26.2542857 C2.16247619,26.2268571 2.13333333,26.1754286 2.11790476,26.1754286 C1.98933333,26.1805714 2.01161905,26.0828571 1.99961905,26.0108571 C1.98761905,25.944 2.02190476,25.8565714 1.89847619,25.8514286 C1.88304762,25.8514286 1.86419048,25.7554286 1.85904762,25.704 C1.85219048,25.6268571 1.8727619,25.5377143 1.74590476,25.5497143 C1.73219048,25.5514286 1.70647619,25.5051429 1.70133333,25.4777143 C1.69104762,25.4228571 1.69447619,25.3662857 1.68590476,25.3097143 C1.68247619,25.2891429 1.66019048,25.2514286 1.64647619,25.2514286 C1.55390476,25.2497143 1.5607619,25.1845714 1.55561905,25.1245714 C1.55047619,25.0645714 1.54533333,25.0045714 1.54361905,24.9445714 C1.54190476,24.8708571 1.54190476,24.8005714 1.43390476,24.8108571 C1.41847619,24.8125714 1.38761905,24.7731429 1.38419048,24.7474286 C1.37561905,24.6891429 1.38247619,24.6274286 1.37219048,24.5674286 C1.3687619,24.5434286 1.33961905,24.5057143 1.32247619,24.504 C1.2487619,24.504 1.24361905,24.4611429 1.24190476,24.4028571 C1.24190476,24.324 1.23161905,24.2451429 1.22819048,24.1662857 C1.22647619,24.1114286 1.22304762,24.0651429 1.14933333,24.0582857 C1.13219048,24.0565714 1.10647619,24.0171429 1.10304762,23.9914286 C1.09447619,23.9365714 1.09447619,23.88 1.09619048,23.8234286 C1.09790476,23.7668571 1.08247619,23.7325714 1.01904762,23.7377143 C0.945333333,23.7428571 0.936761905,23.7017143 0.93847619,23.6417143 C0.93847619,23.5577143 0.928190476,23.4737143 0.92647619,23.3897143 C0.924761905,23.3245714 0.93847619,23.2542857 0.835619048,23.2525714 C0.823619048,23.2525714 0.801333333,23.2062857 0.799619048,23.1771429 C0.792761905,23.0862857 0.787619048,22.992 0.787619048,22.8977143 C0.787619048,22.8445714 0.775619048,22.8051429 0.712190476,22.8085714 C0.63847619,22.8137143 0.631619048,22.7691429 0.629904762,22.7108571 C0.62647619,22.5702857 0.621333333,22.4314286 0.612761905,22.2908571 C0.611047619,22.2617143 0.593904762,22.2102857 0.581904762,22.2102857 C0.460190476,22.2068571 0.489333333,22.1142857 0.484190476,22.0474286 C0.477333333,21.9222857 0.475619048,21.7954286 0.475619048,21.6685714 C0.475619048,21.6137143 0.461904762,21.5777143 0.39847619,21.5794286 C0.323047619,21.5828571 0.321333333,21.5331429 0.321333333,21.4782857 C0.316190476,21.2948571 0.309333333,21.1131429 0.304190476,20.9314286 C0.30247619,20.8782857 0.309333333,20.8302857 0.235619048,20.8148571 C0.211619048,20.8097143 0.185904762,20.7548571 0.184190476,20.7222857 C0.175619048,20.4651429 0.173904762,20.208 0.165333333,19.9508571 C0.161904762,19.8668571 0.197904762,19.7537143 0.0487619048,19.7451429 C0.035047619,19.7434286 0.0161904762,19.6748571 0.0144761905,19.6371429 C0.00933333333,19.0954286 0.00419047619,18.5537143 0.000761904762,18.0102857 C-0.000952380952,17.9074286 0.000761904762,17.8045714 0.000761904762,17.7017143 L0.011047619,17.7017143 Z" id="Fill-1" fill="#BD312A"></path>
            <path d="M31.5395048,17.7594857 L31.541219,17.7594857 C31.541219,17.5914857 31.5429333,17.4234857 31.541219,17.2554857 C31.541219,17.2246286 31.5360762,17.1697714 31.5206476,17.1646286 C31.3903619,17.1269143 31.4263619,17.0206286 31.4246476,16.9349143 C31.4177905,16.5372 31.4143619,16.1394857 31.4040762,15.7417714 C31.4040762,15.7023429 31.3817905,15.6389143 31.3560762,15.6303429 C31.289219,15.6097714 31.2875048,15.5686286 31.2857905,15.5137714 C31.2789333,15.2806286 31.2703619,15.0457714 31.265219,14.8126286 C31.2635048,14.7594857 31.265219,14.7046286 31.1880762,14.7097714 C31.1126476,14.7132 31.1109333,14.6652 31.109219,14.6086286 C31.1075048,14.4646286 31.1023619,14.3189143 31.0937905,14.1749143 C31.0920762,14.1474857 31.0715048,14.0994857 31.0577905,14.0977714 C30.9549333,14.0926286 30.9720762,14.0223429 30.9703619,13.9572 C30.9686476,13.8732 30.9669333,13.7892 30.9600762,13.7052 C30.9566476,13.6794857 30.9326476,13.6332 30.9189333,13.6349143 C30.8040762,13.6417714 30.8057905,13.5663429 30.8040762,13.4874857 C30.8023619,13.4034857 30.7989333,13.3194857 30.7903619,13.2354857 C30.7886476,13.2097714 30.7663619,13.1617714 30.7526476,13.1617714 C30.6480762,13.1634857 30.665219,13.0863429 30.6600762,13.0246286 C30.6549333,12.9457714 30.6583619,12.8669143 30.6480762,12.7880571 C30.6446476,12.7606286 30.6120762,12.7143429 30.593219,12.7143429 C30.4989333,12.7194857 30.4920762,12.6646286 30.4920762,12.5909143 C30.4937905,12.5154857 30.4800762,12.4417714 30.4766476,12.3663429 C30.4749333,12.3046286 30.4783619,12.2429143 30.3875048,12.2412 C30.3720762,12.2394857 30.353219,12.2034857 30.3497905,12.1812 C30.341219,12.1297714 30.3446476,12.0783429 30.3360762,12.0269143 C30.3326476,12.0046286 30.3086476,11.9669143 30.2966476,11.9669143 C30.1577905,11.9840571 30.1835048,11.8880571 30.1766476,11.8057714 C30.1715048,11.7354857 30.2023619,11.6326286 30.0703619,11.6412 C30.0617905,11.6412 30.0446476,11.6069143 30.0429333,11.5863429 C30.0360762,11.5314857 30.0326476,11.4749143 30.0343619,11.4183429 C30.0377905,11.3583429 30.0137905,11.3309143 29.9537905,11.3377714 C29.8800762,11.3446286 29.8697905,11.3017714 29.8715048,11.2417714 C29.873219,11.1954857 29.8680762,11.1492 29.861219,11.1029143 C29.8577905,11.0806286 29.8389333,11.0394857 29.8269333,11.0394857 C29.7309333,11.0446286 29.7240762,10.9880571 29.7275048,10.9143429 C29.729219,10.8954857 29.7155048,10.8577714 29.705219,10.8577714 C29.5543619,10.8474857 29.5989333,10.7274857 29.5903619,10.6469143 C29.5835048,10.5817714 29.5766476,10.5372 29.4977905,10.5457714 C29.4429333,10.5526286 29.4240762,10.5269143 29.4257905,10.4737714 C29.4257905,10.4326286 29.4257905,10.3880571 29.4137905,10.3486286 C29.405219,10.3212 29.3760762,10.2783429 29.357219,10.2783429 C29.2783619,10.2766286 29.2783619,10.2286286 29.2817905,10.1754857 C29.2869333,10.1172 29.2663619,10.0846286 29.2046476,10.0914857 C29.1446476,10.0966286 29.1206476,10.0674857 29.1206476,10.0092 C29.1206476,9.96805714 29.1035048,9.9252 29.1086476,9.88405714 C29.117219,9.80005714 29.0589333,9.81205714 29.0075048,9.78805714 C28.9697905,9.7692 28.9560762,9.69891429 28.9303619,9.65262857 C28.9286476,9.65091429 28.9217905,9.65091429 28.9166476,9.65091429 C28.8155048,9.66634286 28.8069333,9.61148571 28.8017905,9.5292 C28.7983619,9.47262857 28.7760762,9.38348571 28.7349333,9.36634286 C28.6766476,9.34062857 28.6526476,9.32005714 28.6577905,9.26005714 C28.6646476,9.20348571 28.6457905,9.1692 28.5806476,9.17777143 C28.5137905,9.18634286 28.4915048,9.15548571 28.4915048,9.09034286 C28.4915048,9.07148571 28.4555048,9.03377143 28.4349333,9.03548571 C28.3595048,9.0372 28.3543619,8.99091429 28.3595048,8.93605714 C28.361219,8.88291429 28.3423619,8.85377143 28.2875048,8.86062857 C28.2155048,8.86748571 28.1846476,8.83834286 28.1897905,8.76462857 C28.1915048,8.75091429 28.1726476,8.72348571 28.1640762,8.72348571 C28.0149333,8.73205714 28.0715048,8.60348571 28.0389333,8.53662857 C28.0217905,8.4972 28.049219,8.43205714 27.977219,8.43034286 C27.917219,8.43034286 27.8949333,8.40291429 27.8949333,8.34462857 C27.8966476,8.32748571 27.8760762,8.28977143 27.8675048,8.29148571 C27.7595048,8.30005714 27.7149333,8.25377143 27.7269333,8.14577143 C27.7286476,8.13891429 27.7183619,8.12348571 27.7149333,8.12348571 C27.6309333,8.12005714 27.5760762,8.08748571 27.5846476,7.99148571 C27.5863619,7.98634286 27.5555048,7.97091429 27.5400762,7.97262857 C27.4457905,7.98462857 27.4303619,7.94005714 27.4200762,7.85434286 C27.4097905,7.77891429 27.2417905,7.80805714 27.2675048,7.67948571 C27.2675048,7.67777143 27.2263619,7.66748571 27.2040762,7.66405714 C27.1817905,7.66062857 27.1389333,7.66062857 27.1389333,7.6572 C27.1303619,7.54748571 27.0189333,7.51834286 26.981219,7.45148571 C26.9383619,7.37948571 26.9075048,7.36748571 26.8406476,7.35891429 C26.7875048,7.35205714 26.6949333,7.32977143 26.693219,7.31091429 C26.6880762,7.20462857 26.6469333,7.15834286 26.5406476,7.17205714 C26.5337905,7.17205714 26.5183619,7.16348571 26.5183619,7.15834286 C26.5166476,7.07262857 26.4806476,7.02291429 26.3863619,7.03148571 C26.3795048,7.03148571 26.3623619,6.99891429 26.3657905,6.9852 C26.3795048,6.88577143 26.3263619,6.87891429 26.2457905,6.86691429 C26.201219,6.86005714 26.1686476,6.78291429 26.1309333,6.73834286 C26.1275048,6.73662857 26.1206476,6.73834286 26.1155048,6.73662857 C26.0349333,6.71605714 25.9149333,6.76062857 25.9115048,6.60977143 C25.9115048,6.60291429 25.8720762,6.5892 25.8515048,6.59091429 C25.7795048,6.59777143 25.7435048,6.58062857 25.7417905,6.4932 C25.7400762,6.39377143 25.5515048,6.43491429 25.577219,6.29948571 C25.5600762,6.29605714 25.541219,6.29262857 25.5223619,6.29091429 C25.4675048,6.28405714 25.4126476,6.28405714 25.3577905,6.27205714 C25.337219,6.26862857 25.3046476,6.23948571 25.3063619,6.22405714 C25.3200762,6.1092 25.2463619,6.11262857 25.1657905,6.11262857 C25.0835048,6.11262857 25.157219,5.94462857 25.0337905,5.98062857 C25.0200762,5.98405714 25.0046476,5.97891429 24.9926476,5.9772 C24.9600762,5.97548571 24.9275048,5.97205714 24.8949333,5.97205714 C24.8435048,5.97377143 24.8109333,5.95834286 24.8177905,5.90177143 C24.8315048,5.81091429 24.7749333,5.8092 24.7080762,5.80577143 C24.6480762,5.80405714 24.5469333,5.80234286 24.5383619,5.77834286 C24.5126476,5.69605714 24.4817905,5.65148571 24.3909333,5.66005714 C24.3823619,5.66177143 24.3617905,5.63262857 24.3617905,5.61891429 C24.3823619,5.47834286 24.2743619,5.5092 24.2006476,5.4972 C24.1320762,5.48691429 24.041219,5.5212 24.0480762,5.39605714 C24.0480762,5.38577143 24.0035048,5.36862857 23.981219,5.3652 C23.9263619,5.35834286 23.8680762,5.3652 23.813219,5.3532 C23.7875048,5.34805714 23.7463619,5.31377143 23.7463619,5.2932 C23.7515048,5.20577143 23.7017905,5.20405714 23.6349333,5.19205714 C23.5526476,5.18005714 23.4257905,5.24177143 23.4120762,5.08234286 C23.4120762,5.07377143 23.3709333,5.06348571 23.3503619,5.06177143 C23.285219,5.05491429 23.2183619,5.05662857 23.153219,5.04634286 C23.0880762,5.03605714 22.9937905,5.06177143 22.9955048,4.94005714 C22.9955048,4.93148571 22.9526476,4.91434286 22.9303619,4.91091429 C22.877219,4.90405714 22.8257905,4.90234286 22.7760762,4.90577143 C22.7160762,4.90748571 22.673219,4.89548571 22.6800762,4.82348571 C22.685219,4.75662857 22.6457905,4.74805714 22.5909333,4.74634286 C22.4983619,4.74634286 22.4040762,4.7412 22.3115048,4.73262857 C22.2857905,4.73091429 22.2395048,4.70691429 22.2395048,4.69148571 C22.2395048,4.5972 22.1777905,4.60577143 22.1160762,4.60577143 C22.0320762,4.60405714 21.9480762,4.59377143 21.8623619,4.59377143 C21.7989333,4.59377143 21.7526476,4.5852 21.7595048,4.50462857 C21.7646476,4.44805714 21.7286476,4.43777143 21.6806476,4.43605714 C21.5503619,4.43262857 21.4200762,4.42577143 21.2897905,4.42062857 C21.2246476,4.4172 21.1526476,4.43091429 21.1423619,4.33148571 C21.1406476,4.31605714 21.0823619,4.29891429 21.0515048,4.2972 C20.9160762,4.28862857 20.7806476,4.28862857 20.6469333,4.27662857 C20.6160762,4.27491429 20.5663619,4.23548571 20.5646476,4.21148571 C20.5595048,4.1292 20.5115048,4.12748571 20.4515048,4.12748571 C20.2543619,4.12405714 20.0589333,4.12062857 19.8617905,4.11377143 C19.829219,4.11377143 19.7709333,4.09662857 19.769219,4.0812 C19.7537905,3.97491429 19.6715048,3.99548571 19.6080762,3.99205714 C19.5275048,3.9852 19.4486476,3.9852 19.3697905,3.9852 C18.9395048,3.98005714 18.5075048,3.97834286 18.077219,3.96977143 C18.0343619,3.96977143 17.9537905,3.94748571 17.9503619,3.9252 C17.933219,3.81377143 17.8577905,3.82748571 17.7823619,3.82748571 C17.7086476,3.82748571 17.6315048,3.82062857 17.5577905,3.83091429 C17.525219,3.83434286 17.4755048,3.8652 17.4703619,3.89262857 C17.4549333,3.96977143 17.405219,3.97148571 17.3469333,3.97148571 C17.1600762,3.9732 16.9715048,3.97491429 16.7863619,3.97834286 C16.4435048,3.98348571 16.1023619,3.98691429 15.761219,3.99548571 C15.7217905,3.9972 15.6583619,4.0212 15.6515048,4.04862857 C15.6326476,4.11891429 15.5863619,4.11548571 15.5349333,4.1172 C15.3480762,4.11891429 15.161219,4.12405714 14.9726476,4.12748571 C14.9195048,4.12748571 14.8680762,4.12748571 14.8715048,4.20291429 C14.873219,4.26634286 14.8337905,4.28005714 14.7806476,4.28005714 C14.645219,4.28348571 14.5080762,4.29034286 14.3726476,4.29548571 C14.3126476,4.29548571 14.2509333,4.28691429 14.2406476,4.37605714 C14.2389333,4.39491429 14.1823619,4.41377143 14.1497905,4.4172 C14.0109333,4.42748571 13.8703619,4.42748571 13.7297905,4.43777143 C13.7006476,4.43948571 13.6475048,4.46862857 13.6475048,4.48234286 C13.6560762,4.59548571 13.5840762,4.5972 13.505219,4.5972 C13.4349333,4.5972 13.3646476,4.60577143 13.2943619,4.60405714 C13.2377905,4.60405714 13.1966476,4.6092 13.1897905,4.68291429 C13.1897905,4.70177143 13.1417905,4.7292 13.1126476,4.73262857 C13.0115048,4.74291429 12.9069333,4.73948571 12.8057905,4.74977143 C12.7766476,4.7532 12.7269333,4.78405714 12.7286476,4.79948571 C12.7355048,4.90748571 12.6686476,4.90748571 12.593219,4.90577143 C12.5520762,4.90405714 12.509219,4.90405714 12.4680762,4.91091429 C12.4440762,4.91605714 12.4046476,4.93491429 12.4046476,4.94691429 C12.4080762,5.04805714 12.3326476,5.03777143 12.269219,5.04462857 C12.2057905,5.04977143 12.1406476,5.05491429 12.0755048,5.05834286 C12.0206476,5.06177143 11.9743619,5.06691429 11.9675048,5.13891429 C11.9657905,5.15777143 11.9280762,5.18177143 11.9023619,5.18691429 C11.8475048,5.19548571 11.7909333,5.1972 11.7343619,5.1972 C11.6829333,5.1972 11.6537905,5.21605714 11.6589333,5.27091429 C11.6657905,5.33777143 11.6349333,5.36177143 11.5697905,5.35834286 C11.5183619,5.35491429 11.4669333,5.36005714 11.4155048,5.3652 C11.3949333,5.36691429 11.357219,5.38062857 11.357219,5.38748571 C11.3640762,5.52462857 11.2560762,5.4972 11.1823619,5.50234286 C11.0983619,5.50748571 11.0246476,5.50405714 11.033219,5.62577143 C11.0349333,5.6412 10.9337905,5.65148571 10.8995048,5.68405714 C10.865219,5.71662857 10.901219,5.81091429 10.8000762,5.79891429 C10.7503619,5.79377143 10.697219,5.80062857 10.6475048,5.81262857 C10.6235048,5.81777143 10.5857905,5.84862857 10.589219,5.86577143 C10.5995048,5.97034286 10.5343619,5.99091429 10.4606476,5.97034286 C10.2943619,5.91891429 10.2823619,6.15377143 10.1366476,6.1332 C10.1349333,6.1332 10.1280762,6.15205714 10.1297905,6.15891429 C10.145219,6.2652 10.0835048,6.27377143 9.99950476,6.28062857 C9.92921905,6.28577143 9.81607619,6.25491429 9.82464762,6.3972 C9.82464762,6.40405714 9.75950476,6.41091429 9.7303619,6.42634286 C9.70293333,6.44005714 9.66179048,6.46577143 9.66179048,6.48462857 C9.66179048,6.56005714 9.64293333,6.6012 9.55893333,6.59091429 C9.54521905,6.59091429 9.51607619,6.60805714 9.51607619,6.61491429 C9.51779048,6.76405714 9.39264762,6.70577143 9.3223619,6.73491429 C9.28979048,6.74862857 9.22293333,6.75377143 9.22293333,6.76062857 C9.2263619,6.8652 9.16979048,6.88234286 9.0823619,6.87891429 C9.06864762,6.87891429 9.04293333,6.93205714 9.03950476,6.9612 C9.03779048,7.01091429 9.01893333,7.02462857 8.96921905,7.04177143 C8.8783619,7.07434286 8.85264762,7.2132 8.72750476,7.20634286 C8.72750476,7.20634286 8.7223619,7.23205714 8.7223619,7.24748571 C8.73264762,7.32291429 8.68807619,7.33148571 8.62464762,7.34691429 C8.55093333,7.36577143 8.42064762,7.32462857 8.42579048,7.47548571 C8.42579048,7.48234286 8.39493333,7.49777143 8.37779048,7.49605714 C8.29550476,7.48748571 8.29379048,7.53891429 8.28864762,7.60062857 C8.2783619,7.69148571 8.10179048,7.65548571 8.13093333,7.7892 C8.13093333,7.7892 8.0983619,7.80291429 8.08121905,7.8012 C8.00407619,7.79262857 7.96979048,7.81834286 7.97493333,7.90234286 C7.98007619,8.00177143 7.78121905,7.95377143 7.82750476,8.09262857 C7.80693333,8.09948571 7.78464762,8.1132 7.76407619,8.11148571 C7.6903619,8.10462857 7.66121905,8.13548571 7.66979048,8.20748571 C7.68350476,8.31891429 7.47264762,8.26577143 7.5223619,8.40462857 C7.52407619,8.40634286 7.49150476,8.42691429 7.47607619,8.4252 C7.38693333,8.41491429 7.37321905,8.46805714 7.35950476,8.54177143 C7.34579048,8.61548571 7.3783619,8.73548571 7.23264762,8.72348571 C7.22579048,8.72348571 7.21207619,8.75605714 7.21207619,8.77148571 C7.21721905,8.83662857 7.19321905,8.86748571 7.12464762,8.86062857 C7.06293333,8.85205714 7.04064762,8.8812 7.0423619,8.9412 C7.0423619,8.97034286 7.02350476,9.02348571 7.01664762,9.02348571 C6.91893333,9.01491429 6.8983619,9.07148571 6.90350476,9.15205714 C6.77150476,9.15205714 6.73550476,9.24634286 6.71321905,9.35091429 C6.58979048,9.3492 6.6103619,9.45034286 6.5983619,9.52062857 C6.58807619,9.5892 6.60693333,9.66634286 6.49550476,9.65434286 C6.48521905,9.65434286 6.46121905,9.69548571 6.46121905,9.71777143 C6.46464762,9.7812 6.43550476,9.80348571 6.37721905,9.79662857 C6.30521905,9.78805714 6.29150476,9.8292 6.29493333,9.8892 C6.29493333,9.92691429 6.29150476,9.96634286 6.27950476,10.0006286 C6.26750476,10.0332 6.24350476,10.0829143 6.21950476,10.0863429 C6.1543619,10.0932 6.14750476,10.1257714 6.14750476,10.1789143 C6.14750476,10.2183429 6.16293333,10.2783429 6.09607619,10.2697714 C5.97950476,10.2577714 5.9863619,10.3332 5.98121905,10.4086286 C5.97779048,10.4532 5.96064762,10.5354857 5.95550476,10.5354857 C5.79607619,10.5252 5.85093333,10.6503429 5.83893333,10.7223429 C5.82521905,10.7960571 5.82007619,10.8612 5.71893333,10.8526286 C5.70521905,10.8509143 5.67607619,10.8869143 5.67607619,10.9057714 C5.6743619,10.9812 5.67607619,11.0480571 5.56979048,11.0412 C5.56121905,11.0394857 5.54407619,11.0754857 5.54064762,11.0943429 C5.53379048,11.1354857 5.52864762,11.1783429 5.5303619,11.2212 C5.53550476,11.2949143 5.52521905,11.3480571 5.42921905,11.3412 C5.4103619,11.3394857 5.37950476,11.3840571 5.37093333,11.4114857 C5.36064762,11.4457714 5.3623619,11.4852 5.3623619,11.5229143 C5.36064762,11.5863429 5.37779048,11.6583429 5.27150476,11.6532 C5.25779048,11.6532 5.23550476,11.6909143 5.23207619,11.7132 C5.22350476,11.7629143 5.22179048,11.8160571 5.22350476,11.8674857 C5.22521905,11.9274857 5.21493333,11.9703429 5.14121905,11.9617714 C5.07607619,11.9549143 5.0623619,11.9909143 5.06407619,12.0457714 C5.06407619,12.0937714 5.06064762,12.1400571 5.05379048,12.1863429 C5.0503619,12.2052 5.03321905,12.2394857 5.02293333,12.2394857 C4.91321905,12.2377714 4.92864762,12.3200571 4.92350476,12.3869143 C4.9183619,12.4657714 4.91664762,12.5446286 4.9063619,12.6234857 C4.90293333,12.6526286 4.88407619,12.7006286 4.87379048,12.7006286 C4.75721905,12.6989143 4.78293333,12.7829143 4.77779048,12.8480571 C4.77264762,12.9183429 4.76750476,12.9886286 4.76750476,13.0572 C4.76750476,13.1172 4.76064762,13.1617714 4.68521905,13.1549143 C4.62179048,13.1497714 4.60979048,13.1857714 4.60979048,13.2423429 C4.60807619,13.3400571 4.60293333,13.4377714 4.5943619,13.5354857 C4.59093333,13.5646286 4.57379048,13.6160571 4.56179048,13.6160571 C4.44007619,13.6212 4.47264762,13.7120571 4.46750476,13.7806286 C4.4623619,13.8543429 4.46064762,13.9297714 4.46064762,14.0034857 C4.46064762,14.0497714 4.45379048,14.0909143 4.39550476,14.0874857 C4.31664762,14.0840571 4.3063619,14.1286286 4.30464762,14.1937714 C4.30293333,14.3343429 4.29950476,14.4732 4.28921905,14.6137714 C4.28750476,14.6463429 4.26007619,14.6994857 4.23779048,14.7046286 C4.1743619,14.7166286 4.16750476,14.7509143 4.16579048,14.8023429 C4.16064762,15.0372 4.1503619,15.2703429 4.14693333,15.5034857 C4.14521905,15.5703429 4.14007619,15.6217714 4.0543619,15.6286286 C4.03379048,15.6303429 4.0063619,15.6766286 3.99950476,15.7057714 C3.98921905,15.7503429 3.99264762,15.7983429 3.99264762,15.8446286 C3.98750476,16.2286286 3.98407619,16.6126286 3.97550476,16.9966286 C3.97550476,17.0429143 3.96179048,17.1200571 3.93607619,17.1303429 C3.84693333,17.1612 3.86064762,17.2246286 3.86064762,17.2897714 C3.86064762,17.5966286 3.86064762,17.9052 3.86064762,18.2154857 C3.86064762,18.2874857 3.84521905,18.3680571 3.94979048,18.3937714 C3.96350476,18.3972 3.97379048,18.4400571 3.97721905,18.4657714 C3.9823619,18.5120571 3.97893333,18.5583429 3.98064762,18.6063429 C3.98750476,18.9937714 3.9943619,19.3812 3.99950476,19.7686286 C4.00121905,19.8337714 4.00293333,19.8886286 4.0903619,19.8972 C4.11264762,19.8989143 4.14693333,19.9520571 4.14693333,19.9846286 C4.15721905,20.1663429 4.15721905,20.3480571 4.16407619,20.5314857 C4.16579048,20.6000571 4.1383619,20.6892 4.2583619,20.6943429 C4.2703619,20.6943429 4.28750476,20.7474857 4.28921905,20.7766286 C4.29607619,20.9103429 4.30121905,21.0457714 4.30293333,21.1829143 C4.30464762,21.2326286 4.30807619,21.2789143 4.37493333,21.2754857 C4.44693333,21.2703429 4.45721905,21.3114857 4.45893333,21.3714857 C4.46064762,21.5120571 4.46750476,21.6526286 4.47779048,21.7932 C4.47950476,21.8206286 4.50007619,21.8720571 4.5103619,21.8720571 C4.62350476,21.8720571 4.60121905,21.9526286 4.60464762,22.0194857 C4.60807619,22.1034857 4.60979048,22.1874857 4.62350476,22.2697714 C4.62864762,22.3006286 4.6663619,22.3469143 4.6903619,22.3503429 C4.76064762,22.3554857 4.77779048,22.3863429 4.7743619,22.4497714 C4.77093333,22.5046286 4.77264762,22.5612 4.77950476,22.6160571 C4.78293333,22.6383429 4.80350476,22.6794857 4.81550476,22.6794857 C4.9183619,22.6794857 4.90293333,22.7566286 4.90979048,22.8183429 C4.91493333,22.8732 4.9183619,22.9297714 4.92179048,22.9846286 C4.92521905,23.0514857 4.90121905,23.1354857 5.01950476,23.1269143 C5.02979048,23.1252 5.04864762,23.1680571 5.05207619,23.1903429 C5.05893333,23.2366286 5.06064762,23.2829143 5.05893333,23.3309143 C5.05721905,23.3960571 5.06750476,23.4423429 5.14807619,23.4337714 C5.20293333,23.4269143 5.22179048,23.4543429 5.22007619,23.5074857 C5.2183619,23.5537714 5.22693333,23.6017714 5.22693333,23.6480571 C5.22521905,23.7046286 5.22864762,23.7492 5.30407619,23.7492 C5.32293333,23.7509143 5.35207619,23.7869143 5.35721905,23.8109143 C5.36579048,23.8657714 5.36579048,23.9223429 5.36579048,23.9772 C5.36579048,24.0286286 5.37607619,24.0629143 5.4343619,24.0560571 C5.51150476,24.0474857 5.51664762,24.0937714 5.5303619,24.1554857 C5.54750476,24.2326286 5.4703619,24.3714857 5.64521905,24.3680571 C5.65207619,24.3680571 5.66579048,24.4040571 5.66921905,24.4263429 C5.67607619,24.4640571 5.68121905,24.5000571 5.67950476,24.5377714 C5.6743619,24.6080571 5.70007619,24.6423429 5.77379048,24.6337714 C5.83207619,24.6286286 5.84407619,24.6663429 5.84064762,24.7143429 C5.83721905,24.7726286 5.83893333,24.8274857 5.92464762,24.8257714 C5.9383619,24.8240571 5.96407619,24.8583429 5.96750476,24.8823429 C5.97950476,24.9269143 5.98464762,24.9732 5.98293333,25.0212 C5.97950476,25.0863429 5.99321905,25.1292 6.07379048,25.1189143 C6.12693333,25.1137714 6.14750476,25.1394857 6.14579048,25.1926286 C6.14579048,25.2457714 6.15950476,25.2954857 6.15607619,25.3469143 C6.15264762,25.4412 6.2383619,25.4000571 6.27093333,25.4309143 C6.30350476,25.4634857 6.3103619,25.5217714 6.33779048,25.5646286 C6.34464762,25.5749143 6.38407619,25.5612 6.40293333,25.5697714 C6.42521905,25.5800571 6.4543619,25.6040571 6.45264762,25.6194857 C6.45093333,25.6983429 6.46121905,25.7600571 6.5623619,25.7549143 C6.57093333,25.7549143 6.58464762,25.7892 6.58807619,25.8114857 C6.59664762,25.8612 6.5983619,25.9126286 6.60693333,25.9640571 C6.6103619,25.9880571 6.62407619,26.0326286 6.63264762,26.0326286 C6.71664762,26.0309143 6.7543619,26.0634857 6.7423619,26.1474857 C6.85379048,26.1766286 6.92064762,26.2452 6.93607619,26.3600571 C7.07321905,26.3549143 7.03550476,26.4714857 7.0543619,26.5417714 C7.06807619,26.5914857 7.07150476,26.6309143 7.13493333,26.6240571 C7.20179048,26.6172 7.22921905,26.6480571 7.2223619,26.7132 C7.21721905,26.7697714 7.25150476,26.7783429 7.29779048,26.8023429 C7.37664762,26.8452 7.4023619,26.9720571 7.5223619,26.9703429 C7.52407619,26.9703429 7.52921905,27.0046286 7.52750476,27.0234857 C7.51379048,27.1074857 7.57550476,27.0972 7.62521905,27.1177714 C7.66464762,27.1332 7.68179048,27.2034857 7.70921905,27.2497714 C7.71264762,27.2549143 7.7263619,27.2532 7.73664762,27.2514857 C7.82064762,27.2394857 7.83779048,27.2806286 7.83779048,27.3560571 C7.83607619,27.3783429 7.87379048,27.4040571 7.89950476,27.4194857 C7.98521905,27.4709143 8.00750476,27.6046286 8.13607619,27.5909143 C8.13779048,27.6046286 8.14121905,27.6183429 8.13950476,27.6320571 C8.1343619,27.6972 8.17207619,27.7074857 8.22350476,27.7400571 C8.29379048,27.7829143 8.35550476,27.8600571 8.41379048,27.9252 C8.4463619,27.9629143 8.41550476,28.0572 8.5183619,28.0400571 C8.6383619,28.0194857 8.54921905,28.1652 8.62807619,28.1789143 C8.63664762,28.1789143 8.64693333,28.1772 8.65550476,28.1806286 C8.74464762,28.2217714 8.76350476,28.3640571 8.89379048,28.3469143 C8.89550476,28.3657714 8.90064762,28.3846286 8.89721905,28.4017714 C8.88521905,28.4857714 8.94693333,28.4737714 8.9983619,28.4960571 C9.03779048,28.5132 9.05321905,28.5817714 9.0823619,28.6263429 C9.08579048,28.6314857 9.10121905,28.6297714 9.10979048,28.6280571 C9.19207619,28.6160571 9.20750476,28.6589143 9.21093333,28.7326286 C9.2143619,28.8269143 9.39607619,28.7892 9.36179048,28.9229143 C9.36179048,28.9229143 9.39607619,28.9383429 9.41150476,28.9366286 C9.48693333,28.9280571 9.52464762,28.9520571 9.51779048,29.0360571 C9.50921905,29.1389143 9.71493333,29.0874857 9.66693333,29.2280571 C9.66693333,29.2297714 9.69950476,29.2469143 9.71493333,29.2452 C9.79721905,29.2349143 9.83664762,29.2623429 9.8263619,29.3532 C9.82464762,29.3720571 9.85379048,29.4097714 9.86579048,29.4097714 C9.9463619,29.4046286 9.97207619,29.4440571 9.9703619,29.5177714 C9.96864762,29.5297714 10.0029333,29.5537714 10.0166476,29.5520571 C10.1075048,29.5434857 10.1469333,29.5760571 10.1349333,29.6703429 C10.1229333,29.7714857 10.2960762,29.6737714 10.2737905,29.7920571 C10.2737905,29.7972 10.2720762,29.8040571 10.2755048,29.8057714 C10.3440762,29.8640571 10.4229333,29.9120571 10.4589333,30.0012 C10.4606476,30.0080571 10.4846476,30.0063429 10.5000762,30.0046286 C10.5703619,29.9943429 10.5875048,30.0320571 10.5823619,30.0954857 C10.5755048,30.2052 10.7760762,30.1623429 10.7349333,30.2977714 C10.757219,30.3029143 10.7795048,30.3097714 10.8017905,30.3132 C10.8257905,30.3166286 10.8669333,30.3149143 10.8686476,30.3217714 C10.8840762,30.4143429 10.9097905,30.4983429 11.0280762,30.5069143 C11.0143619,30.6114857 11.0726476,30.6303429 11.1600762,30.6269143 C11.1737905,30.6269143 11.1875048,30.6749143 11.1995048,30.6989143 C11.2149333,30.7297714 11.2286476,30.7846286 11.2423619,30.7846286 C11.3229333,30.7812 11.3469333,30.8189143 11.3469333,30.8943429 C11.3469333,30.9046286 11.3966476,30.9286286 11.4206476,30.9286286 C11.4875048,30.9252 11.5183619,30.9492 11.5080762,31.0160571 C11.5029333,31.0743429 11.5337905,31.0829143 11.5835048,31.1052 C11.6675048,31.1394857 11.6880762,31.2766286 11.813219,31.2629143 C11.8149333,31.2903429 11.8115048,31.3212 11.8200762,31.3469143 C11.8269333,31.3692 11.8475048,31.4034857 11.861219,31.4017714 C11.9435048,31.3983429 11.9657905,31.4412 11.9623619,31.5114857 C11.9623619,31.5217714 11.9777905,31.5440571 11.9846476,31.5423429 C12.0875048,31.5320571 12.1063619,31.5903429 12.1046476,31.6777714 C12.1046476,31.6880571 12.1526476,31.7137714 12.1783619,31.7137714 C12.2417905,31.7120571 12.2469333,31.7497714 12.2743619,31.7960571 C12.317219,31.8697714 12.4166476,31.9040571 12.4526476,31.9949143 C12.4526476,31.9966286 12.461219,31.9966286 12.4663619,31.9966286 C12.5469333,31.9846286 12.5880762,32.0137714 12.5777905,32.1029143 C12.5760762,32.1200571 12.605219,32.1612 12.617219,32.1612 C12.6977905,32.1560571 12.7217905,32.1920571 12.7217905,32.2674857 C12.7217905,32.2794857 12.7697905,32.3052 12.7955048,32.3034857 C12.8606476,32.3017714 12.8949333,32.3240571 12.8846476,32.3926286 C12.8675048,32.5092 13.085219,32.4560571 13.0337905,32.5966286 C13.0595048,32.6034857 13.0869333,32.6154857 13.1126476,32.6137714 C13.1726476,32.6103429 13.1983619,32.6326286 13.193219,32.6926286 C13.1915048,32.7337714 13.1829333,32.7869143 13.2497905,32.7817714 C13.3217905,32.7749143 13.337219,32.8109143 13.337219,32.8726286 C13.337219,32.8897714 13.3663619,32.9120571 13.3886476,32.9206286 C13.4126476,32.9292 13.4675048,32.9240571 13.4675048,32.9274857 C13.4760762,33.0423429 13.5840762,33.0766286 13.6355048,33.1520571 C13.6646476,33.1966286 13.6680762,33.2360571 13.7315048,33.2360571 C13.7486476,33.2360571 13.7726476,33.2634857 13.7795048,33.2857714 C13.7897905,33.3114857 13.7795048,33.3629143 13.7880762,33.3646286 C13.8840762,33.3920571 13.9389333,33.4554857 14.0023619,33.5326286 C14.0280762,33.5634857 14.0966476,33.5686286 14.0983619,33.6423429 C14.0983619,33.6560571 14.1463619,33.6800571 14.1720762,33.6800571 C14.237219,33.6783429 14.2680762,33.6972 14.2595048,33.7657714 C14.2526476,33.8240571 14.2835048,33.8326286 14.3349333,33.8549143 C14.4189333,33.8909143 14.4377905,34.0280571 14.5629333,34.0143429 C14.5646476,34.0383429 14.5697905,34.0606286 14.5680762,34.0829143 C14.5646476,34.1360571 14.585219,34.1566286 14.6400762,34.1617714 C14.6640762,34.1634857 14.7035048,34.1977714 14.705219,34.2200571 C14.7086476,34.2834857 14.7326476,34.3057714 14.7909333,34.2989143 C14.8595048,34.2903429 14.885219,34.3212 14.8766476,34.3863429 C14.8697905,34.4463429 14.909219,34.4497714 14.9537905,34.4737714 C15.0343619,34.5149143 15.0600762,34.6400571 15.1817905,34.6349143 C15.1817905,34.6349143 15.185219,34.6606286 15.185219,34.6760571 C15.1817905,34.7394857 15.209219,34.7549143 15.269219,34.7857714 C15.3395048,34.8234857 15.3806476,34.9212 15.4646476,34.9657714 C15.4715048,34.9674857 15.4680762,34.9914857 15.4663619,35.0052 C15.4595048,35.0669143 15.4886476,35.0926286 15.5469333,35.0840571 C15.6137905,35.0754857 15.6395048,35.1029143 15.6395048,35.1714857 C15.6395048,35.1886286 15.6755048,35.2126286 15.6995048,35.2229143 C15.7903619,35.2606286 15.8057905,35.4114857 15.9395048,35.3892 C15.941219,35.4166286 15.9360762,35.4474857 15.9463619,35.4732 C15.9566476,35.4954857 15.9823619,35.5314857 16.001219,35.5297714 C16.073219,35.5280571 16.0869333,35.5606286 16.0886476,35.6223429 C16.0886476,35.6394857 16.1177905,35.6634857 16.1383619,35.6720571 C16.1640762,35.6806286 16.217219,35.6754857 16.2189333,35.6789143 C16.2275048,35.7920571 16.3355048,35.8263429 16.3869333,35.9017714 C16.4177905,35.9463429 16.4229333,35.9857714 16.4863619,35.9789143 C16.5309333,35.9754857 16.5755048,35.9806286 16.5669333,36.0440571 C16.553219,36.1417714 16.613219,36.1400571 16.685219,36.1486286 C16.7623619,36.1572 16.8875048,36.1057714 16.8840762,36.2634857 C16.8840762,36.2703429 16.9320762,36.2823429 16.9577905,36.2840571 C17.0469333,36.2909143 17.1360762,36.2960571 17.2235048,36.2960571 C17.285219,36.2960571 17.3246476,36.3097714 17.321219,36.3800571 C17.3195048,36.4349143 17.3537905,36.4503429 17.4017905,36.4503429 C17.5989333,36.4486286 17.7960762,36.4486286 17.9915048,36.4503429 C18.0463619,36.4503429 18.0840762,36.4366286 18.0823619,36.3732 C18.0789333,36.3114857 18.1149333,36.2977714 18.1715048,36.2977714 C18.2640762,36.2960571 18.3583619,36.2874857 18.4509333,36.2857714 C18.509219,36.2840571 18.5657905,36.2909143 18.5623619,36.2034857 C18.5623619,36.1880571 18.6017905,36.1606286 18.6257905,36.1554857 C18.677219,36.1452 18.7286476,36.1434857 18.7800762,36.1452 C18.8383619,36.1469143 18.8640762,36.1280571 18.8640762,36.0646286 C18.8657905,36.0372 18.8949333,35.9840571 18.9086476,35.9840571 C18.989219,35.9874857 19.0149333,35.9514857 19.0115048,35.8777714 C19.0115048,35.8674857 19.0269333,35.8452 19.0337905,35.8469143 C19.1383619,35.8572 19.1589333,35.8023429 19.1555048,35.7132 C19.1555048,35.7012 19.2035048,35.6874857 19.2275048,35.6754857 C19.2566476,35.6600571 19.313219,35.6446286 19.313219,35.6309143 C19.3097905,35.5503429 19.3475048,35.5263429 19.421219,35.5297714 C19.433219,35.5297714 19.4503619,35.4989143 19.4555048,35.4800571 C19.4623619,35.4543429 19.4537905,35.4029143 19.4623619,35.4012 C19.5600762,35.3737714 19.6166476,35.3120571 19.6766476,35.2332 C19.7040762,35.2006286 19.7743619,35.1972 19.7743619,35.1217714 C19.7743619,35.1097714 19.8206476,35.0857714 19.8480762,35.0874857 C19.913219,35.0892 19.9440762,35.0669143 19.9355048,34.9983429 C19.9200762,34.8817714 20.1360762,34.9349143 20.0846476,34.7943429 C20.1120762,34.7874857 20.1377905,34.7754857 20.1635048,34.7772 C20.2235048,34.7789143 20.2509333,34.7583429 20.2440762,34.6949143 C20.2389333,34.6452 20.2457905,34.6006286 20.3143619,34.6074857 C20.3726476,34.6143429 20.381219,34.5800571 20.3880762,34.5320571 C20.3915048,34.5080571 20.4309333,34.4703429 20.4515048,34.4720571 C20.5320762,34.4737714 20.561219,34.4446286 20.5543619,34.3657714 C20.5457905,34.2663429 20.633219,34.3143429 20.6726476,34.2920571 C20.7223619,34.2612 20.6503619,34.1532 20.7549333,34.1600571 C20.8320762,34.1652 20.8389333,34.1189143 20.8337905,34.0623429 C20.8286476,34.0092 20.8543619,33.9800571 20.9057905,33.9903429 C21.0137905,34.0109143 20.9897905,33.9269143 21.0120762,33.8720571 C21.0343619,33.8206286 21.1680762,33.8857714 21.1440762,33.7589143 C21.1320762,33.6989143 21.1629333,33.6749143 21.2229333,33.6817714 C21.2897905,33.6886286 21.3155048,33.6629143 21.3155048,33.5960571 C21.3137905,33.5772 21.3515048,33.5514857 21.3737905,33.5429143 C21.4663619,33.5034857 21.4817905,33.3526286 21.6155048,33.3766286 C21.617219,33.3526286 21.6206476,33.3303429 21.6189333,33.3063429 C21.6155048,33.2549143 21.6360762,33.2343429 21.6909333,33.2292 C21.7166476,33.2274857 21.7560762,33.1897714 21.7560762,33.1692 C21.7595048,33.1074857 21.785219,33.0852 21.8417905,33.0920571 C21.9103619,33.1006286 21.9360762,33.0697714 21.929219,33.0029143 C21.9223619,32.9446286 21.9600762,32.9412 22.0046476,32.9172 C22.085219,32.8743429 22.1126476,32.7509143 22.2326476,32.7560571 C22.2326476,32.7560571 22.2395048,32.7183429 22.2360762,32.7012 C22.2240762,32.6172 22.2857905,32.6274857 22.337219,32.6069143 C22.3749333,32.5897714 22.3920762,32.5212 22.421219,32.4766286 C22.4246476,32.4732 22.4383619,32.4732 22.4469333,32.4732 C22.5309333,32.4869143 22.5515048,32.4457714 22.5497905,32.3703429 C22.5497905,32.3480571 22.5909333,32.3086286 22.613219,32.3103429 C22.709219,32.3103429 22.6663619,32.2280571 22.6937905,32.1937714 C22.7229333,32.1594857 22.781219,32.1474857 22.8240762,32.1217714 C22.829219,32.1200571 22.8275048,32.1063429 22.8257905,32.0960571 C22.8137905,32.0154857 22.853219,31.9897714 22.9303619,31.9932 C22.9509333,31.9949143 22.9920762,31.9623429 22.9920762,31.9452 C22.9920762,31.8800571 23.0126476,31.8509143 23.0795048,31.8526286 C23.0983619,31.8526286 23.1343619,31.8149143 23.1326476,31.7943429 C23.1309333,31.6657714 23.2389333,31.7429143 23.2869333,31.7069143 C23.3383619,31.6657714 23.2509333,31.5612 23.381219,31.5389143 C23.4600762,31.5252 23.4875048,31.3760571 23.6075048,31.3777714 C23.609219,31.3777714 23.6075048,31.3246286 23.6143619,31.2972 C23.6195048,31.2783429 23.6349333,31.2457714 23.645219,31.2457714 C23.7275048,31.2509143 23.7686476,31.2183429 23.7566476,31.1326286 C23.8749333,31.1172 23.909219,31.0212 23.969219,30.9389143 C23.993219,30.9080571 24.0720762,30.9063429 24.0669333,30.8309143 C24.065219,30.8189143 24.0875048,30.7932 24.0977905,30.7949143 C24.197219,30.8052 24.2503619,30.7726286 24.2315048,30.6646286 C24.3189333,30.6286286 24.3549333,30.5326286 24.4217905,30.4914857 C24.4766476,30.4589143 24.5195048,30.4503429 24.5109333,30.3766286 C24.5109333,30.3594857 24.5229333,30.3269143 24.5263619,30.3269143 C24.6360762,30.3337714 24.653219,30.2343429 24.713219,30.1880571 C24.7715048,30.1452 24.8297905,30.1332 24.8263619,30.0457714 C24.8263619,30.0337714 24.8795048,30.0080571 24.9120762,30.0063429 C24.9600762,30.0029143 24.9943619,29.9926286 24.989219,29.9360571 C24.9806476,29.8383429 25.0680762,29.8846286 25.1006476,29.8554857 C25.1366476,29.8263429 25.1469333,29.7680571 25.1726476,29.7269143 C25.1760762,29.7200571 25.2000762,29.7217714 25.2137905,29.7234857 C25.2857905,29.7337714 25.301219,29.6960571 25.2960762,29.6326286 C25.289219,29.5229143 25.4915048,29.5657714 25.4486476,29.4286286 C25.4709333,29.4252 25.4949333,29.4183429 25.5155048,29.4149143 C25.5377905,29.4114857 25.5806476,29.4132 25.5806476,29.4063429 C25.5977905,29.3137714 25.6235048,29.2280571 25.7417905,29.2212 C25.7280762,29.1183429 25.7880762,29.0977714 25.8737905,29.0994857 C25.8875048,29.1012 25.9115048,29.0446286 25.913219,29.0137714 C25.9166476,28.9640571 25.9269333,28.9332 25.9835048,28.9383429 C26.0795048,28.9452 26.033219,28.8560571 26.0623619,28.8252 C26.093219,28.7892 26.1857905,28.7789143 26.1875048,28.7549143 C26.1926476,28.6640571 26.213219,28.6143429 26.3143619,28.6263429 C26.3280762,28.6280571 26.3606476,28.6006286 26.3606476,28.5886286 C26.3555048,28.5097714 26.3897905,28.4823429 26.465219,28.4823429 C26.4789333,28.4823429 26.5029333,28.4343429 26.5029333,28.4086286 C26.501219,28.3434857 26.5183619,28.3126286 26.5886476,28.3212 C26.6469333,28.3280571 26.657219,28.3006286 26.6777905,28.2457714 C26.7086476,28.1634857 26.8355048,28.1480571 26.8509333,28.0434857 C26.8509333,28.0417714 26.8680762,28.0400571 26.8766476,28.0417714 C26.9520762,28.0486286 26.9897905,28.0246286 26.9829333,27.9406286 C26.9760762,27.8377714 27.1783619,27.8909143 27.1320762,27.7503429 C27.1320762,27.7486286 27.1629333,27.7314857 27.1800762,27.7332 C27.2623619,27.7434857 27.3017905,27.7143429 27.2915048,27.6234857 C27.2897905,27.6063429 27.3189333,27.5669143 27.3309333,27.5669143 C27.413219,27.5720571 27.4355048,27.5343429 27.4355048,27.4606286 C27.4355048,27.4469143 27.485219,27.4229143 27.509219,27.4229143 C27.5760762,27.4263429 27.605219,27.4023429 27.5966476,27.3337714 C27.5897905,27.2772 27.6206476,27.2669143 27.6703619,27.2463429 C27.7543619,27.2103429 27.773219,27.0732 27.8983619,27.0852 C27.9000762,27.0663429 27.905219,27.0474857 27.9017905,27.0303429 C27.8949333,26.9652 27.9360762,26.9617714 27.9823619,26.9309143 C28.0543619,26.8863429 28.0920762,26.7903429 28.1777905,26.7474857 C28.1863619,26.7423429 28.1726476,26.7063429 28.181219,26.6926286 C28.1983619,26.6686286 28.2240762,26.6274857 28.2463619,26.6274857 C28.3303619,26.6326286 28.3577905,26.5897714 28.3475048,26.5194857 C28.325219,26.3720571 28.5497905,26.3549143 28.5086476,26.2023429 C28.5360762,26.1972 28.565219,26.1954857 28.589219,26.1869143 C28.6149333,26.1749143 28.6577905,26.1560571 28.6560762,26.1406286 C28.6543619,26.0634857 28.685219,26.0326286 28.7623619,26.0343429 C28.7743619,26.0343429 28.7915048,26.0017714 28.7949333,25.9829143 C28.8035048,25.9383429 28.8103619,25.8920571 28.8103619,25.8440571 C28.8086476,25.7789143 28.8257905,25.7360571 28.9029333,25.7446286 C28.9595048,25.7514857 28.9800762,25.7189143 28.973219,25.6692 C28.961219,25.5869143 29.0040762,25.5749143 29.0743619,25.5577714 C29.1086476,25.5492 29.1223619,25.4686286 29.1515048,25.4240571 C29.1566476,25.4137714 29.1926476,25.4257714 29.2063619,25.4172 C29.2303619,25.4017714 29.2595048,25.3794857 29.2697905,25.3520571 C29.2835048,25.3194857 29.2817905,25.2783429 29.2817905,25.2423429 C29.2817905,25.1737714 29.2783619,25.1086286 29.3795048,25.1154857 C29.3897905,25.1172 29.4120762,25.0777714 29.417219,25.0537714 C29.4257905,25.0143429 29.4275048,24.9714857 29.4275048,24.9286286 C29.4275048,24.8600571 29.4395048,24.8103429 29.5269333,24.8189143 C29.5886476,24.8257714 29.585219,24.7777714 29.5903619,24.7349143 C29.5937905,24.7006286 29.6126476,24.6423429 29.621219,24.6423429 C29.7463619,24.6526286 29.7189333,24.5532 29.7275048,24.4897714 C29.7377905,24.4194857 29.7206476,24.3423429 29.8337905,24.3526286 C29.8423619,24.3543429 29.861219,24.3132 29.8646476,24.2892 C29.8715048,24.2343429 29.8697905,24.1777714 29.8783619,24.1212 C29.8817905,24.1006286 29.9075048,24.0612 29.9177905,24.0629143 C30.0583619,24.0800571 30.0326476,23.9840571 30.0395048,23.9017714 C30.0446476,23.8314857 30.0120762,23.7303429 30.1457905,23.7372 C30.1543619,23.7372 30.1697905,23.6926286 30.173219,23.6686286 C30.1800762,23.6172 30.1835048,23.5657714 30.1817905,23.5160571 C30.1783619,23.4560571 30.2006476,23.4252 30.2606476,23.4320571 C30.3343619,23.4406286 30.3446476,23.3977714 30.3429333,23.3377714 C30.341219,23.2863429 30.3446476,23.2349143 30.3515048,23.1852 C30.353219,23.1646286 30.3669333,23.1269143 30.3755048,23.1286286 C30.509219,23.1354857 30.4766476,23.0377714 30.4835048,22.9657714 C30.4886476,22.9006286 30.4869333,22.8320571 30.5006476,22.7686286 C30.5057905,22.7394857 30.5417905,22.6897714 30.5657905,22.6897714 C30.6463619,22.6880571 30.6549333,22.6452 30.653219,22.5817714 C30.6497905,22.5303429 30.6515048,22.4772 30.6583619,22.4274857 C30.6617905,22.4034857 30.6789333,22.3623429 30.6909333,22.3623429 C30.7903619,22.3572 30.7817905,22.2886286 30.785219,22.2217714 C30.7886476,22.1377714 30.7955048,22.0537714 30.797219,21.9714857 C30.797219,21.9183429 30.8023619,21.8772 30.869219,21.8823429 C30.941219,21.8874857 30.953219,21.8429143 30.9549333,21.7846286 C30.9583619,21.6492 30.9686476,21.5137714 30.9720762,21.3783429 C30.9737905,21.3234857 30.9737905,21.2789143 31.0475048,21.2686286 C31.0680762,21.2669143 31.0937905,21.2189143 31.0955048,21.1880571 C31.1057905,21.0594857 31.109219,20.9274857 31.1109333,20.7972 C31.1109333,20.7286286 31.1195048,20.6806286 31.205219,20.6789143 C31.2257905,20.6772 31.2617905,20.6240571 31.2635048,20.5932 C31.2737905,20.4114857 31.2737905,20.2280571 31.2806476,20.0463429 C31.2823619,19.9760571 31.2549333,19.8903429 31.3715048,19.8766286 C31.3835048,19.8749143 31.3955048,19.8303429 31.3989333,19.8046286 C31.4057905,19.7600571 31.4057905,19.7120571 31.4075048,19.6657714 C31.4126476,19.2817714 31.4160762,18.8994857 31.4263619,18.5154857 C31.4263619,18.4709143 31.4417905,18.4006286 31.4726476,18.3869143 C31.5429333,18.3560571 31.5395048,18.3063429 31.5395048,18.2514857 L31.5395048,17.7594857 Z" id="Fill-4" fill="#FEFEFE"></path>
        </g>
    </g>
</svg>